
<svg xmlns="http://www.w3.org/2000/svg" version="1.1" xmlns:xlink="http://www.w3.org/1999/xlink" preserveAspectRatio="none" x="0px" y="0px" width="500px" height="100px" viewBox="0 0 500 100">
<defs>
<g id="Layer0_0_FILL">
<path fill="#FFFFFF" fill-opacity="0.5803921568627451" stroke="none" d="
M 500 100
L 500 0 0 0 0 100 500 100
M 490 77
Q 495 77 495 82
L 495 90.25
Q 495 95.25 490 95.25
L 437.5 95.25
Q 432.5 95.25 432.5 90.25
L 432.5 82
Q 432.5 77 437.5 77
L 490 77
M 479.5 82.4
L 479.5 80.15 470.4 80.15 470.4 92.3 479.65 92.3 479.65 90.05 473.1 90.05 473.1 87.1 479 87.1 479 85 473.1 85 473.1 82.4 479.5 82.4
M 449.5 80.15
L 446.8 80.15 446.8 92.3 449.3 92.3 449.3 84.15 449.35 84.15 454.4 92.3 457.05 92.3 457.05 80.15 454.55 80.15 454.55 88.3 449.5 80.15
M 458.75 80.15
L 458.75 82.4 462.4 82.4 462.4 92.3 465.1 92.3 465.1 82.4 468.7 82.4 468.7 80.15 458.75 80.15
M 444.1 85
L 438.2 85 438.2 82.4 444.6 82.4 444.6 80.15 435.5 80.15 435.5 92.3 444.75 92.3 444.75 90.05 438.2 90.05 438.2 87.1 444.1 87.1 444.1 85
M 490.85 81.15
L 489.75 80.45 488.25 80.15 481.7 80.15 481.7 92.3 484.4 92.3 484.4 87.55 487.05 87.55
Q 488.05 87.55 488.5 88 488.95 88.45 489.1 89.4
L 489.2 90.95 489.5 92.3 492.15 92.3 491.9 91.65 491.75 90.9 491.55 88.5 491.25 87.7 490.7 87
Q 490.4 86.7 489.9 86.6
L 489.9 86.55
Q 490.9 86.15 491.35 85.35 491.8 84.6 491.8 83.5
L 491.55 82.2 490.85 81.15
M 487.3 82.25
Q 488.2 82.25 488.7 82.65 489.15 83.05 489.15 83.9 489.15 84.85 488.7 85.25 488.2 85.65 487.3 85.65
L 484.4 85.65 484.4 82.25 487.3 82.25 Z"/>

<path fill="#000000" fill-opacity="0.30196078431372547" stroke="none" d="
M 495 82
Q 495 77 490 77
L 437.5 77
Q 432.5 77 432.5 82
L 432.5 90.25
Q 432.5 95.25 437.5 95.25
L 490 95.25
Q 495 95.25 495 90.25
L 495 82
M 489.75 80.45
L 490.85 81.15 491.55 82.2 491.8 83.5
Q 491.8 84.6 491.35 85.35 490.9 86.15 489.9 86.55
L 489.9 86.6
Q 490.4 86.7 490.7 87
L 491.25 87.7 491.55 88.5 491.75 90.9 491.9 91.65 492.15 92.3 489.5 92.3 489.2 90.95 489.1 89.4
Q 488.95 88.45 488.5 88 488.05 87.55 487.05 87.55
L 484.4 87.55 484.4 92.3 481.7 92.3 481.7 80.15 488.25 80.15 489.75 80.45
M 438.2 85
L 444.1 85 444.1 87.1 438.2 87.1 438.2 90.05 444.75 90.05 444.75 92.3 435.5 92.3 435.5 80.15 444.6 80.15 444.6 82.4 438.2 82.4 438.2 85
M 458.75 82.4
L 458.75 80.15 468.7 80.15 468.7 82.4 465.1 82.4 465.1 92.3 462.4 92.3 462.4 82.4 458.75 82.4
M 446.8 80.15
L 449.5 80.15 454.55 88.3 454.55 80.15 457.05 80.15 457.05 92.3 454.4 92.3 449.35 84.15 449.3 84.15 449.3 92.3 446.8 92.3 446.8 80.15
M 479.5 80.15
L 479.5 82.4 473.1 82.4 473.1 85 479 85 479 87.1 473.1 87.1 473.1 90.05 479.65 90.05 479.65 92.3 470.4 92.3 470.4 80.15 479.5 80.15
M 488.7 82.65
Q 488.2 82.25 487.3 82.25
L 484.4 82.25 484.4 85.65 487.3 85.65
Q 488.2 85.65 488.7 85.25 489.15 84.85 489.15 83.9 489.15 83.05 488.7 82.65 Z"/>
</g>
</defs>

<g transform="matrix( 1, 0, 0, 1, 0,0) ">
<use xlink:href="#Layer0_0_FILL"/>
</g>
</svg>
