
<svg xmlns="http://www.w3.org/2000/svg" version="1.1" xmlns:xlink="http://www.w3.org/1999/xlink" preserveAspectRatio="none" x="0px" y="0px" width="28px" height="68px" viewBox="0 0 28 68">
<defs>
<g id="Symbol_349_0_Layer0_0_FILL">
<path fill="#000000" stroke="none" d="
M -3.7 -1.7
Q -2.8 -12.35 -0.3 -12.3 2.7 -12.3 3.2 -1.15
L 3.45 5.1
Q 3.65 6.9 4.45 4.6 5.55 1.1 4.5 -7.6 3.3 -17.45 -0.25 -17.45 -3.75 -17.45 -4.95 -7.35 -5.95 1.2 -5.05 4.45 -4.5 6.35 -4.2 4.35
L -3.7 -1.7 Z"/>
</g>

<path id="Symbol_349_0_Layer0_0_1_STROKES" stroke="#000000" stroke-width="3" stroke-linejoin="round" stroke-linecap="round" fill="none" d="
M 1.25 -32.25
Q 0.75 -29.75 -1.85 -27.15
L -5.3 -24.2
Q -6.35 -23.3 -8.9 -22.35 -11.05 -21.6 -11.7 -21.6"/>
</defs>

<g transform="matrix( 1, 0, 0, 1, 14,34) ">
<g transform="matrix( 1, 0, 0, 1, 0,0) ">
<use xlink:href="#Symbol_349_0_Layer0_0_FILL"/>

<use xlink:href="#Symbol_349_0_Layer0_0_1_STROKES"/>
</g>
</g>
</svg>
