
<svg xmlns="http://www.w3.org/2000/svg" version="1.1" xmlns:xlink="http://www.w3.org/1999/xlink" preserveAspectRatio="none" x="0px" y="0px" width="339px" height="293px" viewBox="0 0 339 293">
<defs>
<g id="Layer0_0_FILL">
<path fill="#000000" stroke="none" d="
M 238.8 91.75
Q 240.05 86.65 235 86.65 214.75 86.65 198.2 103 190.6 110.5 182.5 124 176.6 133.65 164.9 143.5 158.8 148.55 142.95 153.55 129.15 157.95 129.15 159.1 129.15 160.65 154.5 162.8 165.5 162.8 179.15 154.6 186.1 150.4 191.8 145.5 195.7 142.45 202.7 135 209.8 128.15 218.05 124.5
L 218.05 151
Q 215.95 160.4 216.05 181 216.05 187.05 212.05 211.1 211.05 214.3 220.5 214.3 229.55 214.3 230.6 204.85 230.85 202.55 230.8 195.45 230.75 188.85 231.3 185.05 232.2 178.85 232.75 169.3
L 233.55 154 236.4 122.05
Q 238.8 95.4 238.8 91.75 Z"/>

<path fill="#0D0B0D" stroke="none" d="
M 333.05 257.7
Q 331.05 258.05 329.5 259.6
L 327.3 262.55
Q 325.5 265.75 327.35 267.6 328.7 268.95 329.9 269.55
L 329.05 271.4 321.3 279.45
Q 318.75 282 316 283.4 307.05 287.85 298.5 279.35 294.55 275.4 293.65 269.3 292.8 263.1 292.35 262.65 291 261.3 289.55 262.8 287.6 264.75 290.4 272 293.25 279.45 298.15 284.4 306.25 292.5 316.4 287.45 320.3 285.45 326 279.75 329.45 277.05 332.15 273.6 335.05 269.85 335.25 267 341.15 262.7 337.6 259.1 335.65 257.15 333.05 257.7 Z"/>
</g>

<g id="Symbol_406_0_Layer0_0_FILL">
<path fill="#666666" stroke="none" d="
M 20.5 -35.9
Q 12 -50.75 0 -50.75 -12 -50.75 -20.5 -35.9 -29 -21 -29 0 -29 21 -20.5 35.85 -12 50.75 0 50.75 12 50.75 20.5 35.85 29 21 29 0 29 -21 20.5 -35.9
M 0 -37.85
Q 8.95 -37.85 15.3 -26.8 21.6 -15.7 21.65 0 21.6 15.65 15.3 26.7 8.95 37.8 0 37.85 -8.95 37.8 -15.3 26.7 -21.65 15.65 -21.65 0 -21.65 -15.7 -15.3 -26.8 -8.95 -37.85 0 -37.85 Z"/>

<path fill="#999999" stroke="none" d="
M 15.3 -26.8
Q 8.95 -37.85 0 -37.85 -8.95 -37.85 -15.3 -26.8 -21.65 -15.7 -21.65 0 -21.65 15.65 -15.3 26.7 -8.95 37.8 0 37.85 8.95 37.8 15.3 26.7 21.6 15.65 21.65 0 21.6 -15.7 15.3 -26.8
M 0 -26.15
Q 6.2 -26.15 10.55 -18.5 14.95 -10.8 14.95 0 14.95 10.8 10.55 18.45 6.2 26.15 0 26.15 -6.2 26.15 -10.55 18.45 -14.95 10.8 -14.95 0 -14.95 -10.8 -10.55 -18.5 -6.2 -26.15 0 -26.15 Z"/>

<path fill="#990000" stroke="none" d="
M 10.55 -18.5
Q 6.2 -26.15 0 -26.15 -6.2 -26.15 -10.55 -18.5 -14.95 -10.8 -14.95 0 -14.95 10.8 -10.55 18.45 -6.2 26.15 0 26.15 6.2 26.15 10.55 18.45 14.95 10.8 14.95 0 14.95 -10.8 10.55 -18.5 Z"/>
</g>

<g id="Symbol_408_0_Layer0_0_FILL">
<path fill="#0D0B0D" stroke="none" d="
M 43.05 -25.6
L 42.35 -26.35
Q 27.7 -41 7 -41 -13.7 -41 -28.35 -26.35 -43 -11.7 -43 9 -43 23.25 -36.05 34.65
L -35.35 35.35
Q -20.7 50 0 50 20.7 50 35.35 35.35 50 20.7 50 0 50 -14.25 43.05 -25.6
M 29.75 -27.75
L 29.95 -27.55
Q 34 -23.35 34 -17.5 34 -11.5 29.75 -7.25 25.5 -3 19.5 -3 13.5 -3 9.25 -7.25 7.95 -8.6 7.05 -10.05 5 -13.35 5 -17.5 5 -23.5 9.25 -27.75 13.5 -32 19.5 -32 25.5 -32 29.75 -27.75 Z"/>

<path fill="#181818" stroke="none" d="
M 29.95 -27.55
L 29.75 -27.75
Q 25.5 -32 19.5 -32 13.5 -32 9.25 -27.75 5 -23.5 5 -17.5 5 -13.35 7.05 -10.05 7.95 -8.6 9.25 -7.25 13.5 -3 19.5 -3 25.5 -3 29.75 -7.25 34 -11.5 34 -17.5 34 -23.35 29.95 -27.55
M 42.35 -26.35
L 43.05 -25.6
Q 39.9 -30.8 35.35 -35.35 20.7 -50 0 -50 -20.7 -50 -35.35 -35.35 -50 -20.7 -50 0 -50 20.2 -36.05 34.65 -43 23.25 -43 9 -43 -11.7 -28.35 -26.35 -13.7 -41 7 -41 27.7 -41 42.35 -26.35 Z"/>
</g>

<g id="Symbol_415_0_Layer1_0_FILL">
<path fill="#FFFFFF" stroke="none" d="
M 89.9 77.25
Q 89.7 89.3 88.25 92.85 86.35 97.5 79.85 97.5 71.9 97.5 71.05 86.05
L 70.8 78.15
Q 70.6 74.55 69.45 74.55 67.9 74.55 67.9 76.6
L 67.65 81.35
Q 67.55 86.1 68.4 89.75 71.05 101.3 82.25 101.3 92.35 101.3 92.35 80.75 92.7 76.55 91.1 76.55
L 89.9 77.25
M 117.65 85.8
L 116 79.1
Q 115.2 76.05 114.6 76.05 113.05 76.05 113.05 78.5
L 113.3 81.85
Q 113.8 85.75 114.85 89 118.2 99.3 126 99.3 131.5 99.3 135.2 89.3 137.8 82.15 137.8 78.6 138.3 74.05 136.3 74.05 136.05 74.05 135.3 77.4
L 133.35 84.8
Q 129.85 95.5 124.7 95.5 120.3 95.5 117.65 85.8 Z"/>
</g>

<g id="Symbol_415_0_Layer0_0_FILL">
<path fill="#FFFFFF" stroke="none" d="
M 68.85 129.3
Q 64.4 124.9 66.1 120.25
L 67.35 117.15
Q 67.8 115.6 66.9 114.7 65.6 113.45 64.15 114.95 62.5 116.55 61.9 121.3 61.25 127.1 64.45 130.25 73.75 139.6 81.7 136.6 84.25 135.6 86.6 133.35
L 89 130.75
Q 92.5 126.95 95.45 122.85
L 97.5 119.65
Q 98.5 119.65 99.6 119.05
L 101.9 117.1
Q 103.95 115.05 104.4 113.65 105.3 110.65 102.1 107.45 98.35 103.75 95.2 108.65 92.75 111.05 92.4 112.55 91.95 114.45 93.6 116.75
L 92.7 118.55
Q 88.8 125.6 86.4 128
L 84.65 130
Q 82.85 131.8 80.95 132.75 75.05 135.5 68.85 129.3 Z"/>
</g>

<path id="Symbol_406_0_Layer0_0_1_STROKES" stroke="#000000" stroke-width="1" stroke-linejoin="round" stroke-linecap="round" fill="none" d="
M 10.55 -18.5
Q 14.95 -10.8 14.95 0 14.95 10.8 10.55 18.45 6.2 26.15 0 26.15 -6.2 26.15 -10.55 18.45 -14.95 10.8 -14.95 0 -14.95 -10.8 -10.55 -18.5 -6.2 -26.15 0 -26.15 6.2 -26.15 10.55 -18.5 Z
M 21.65 0
Q 21.6 15.65 15.3 26.7 8.95 37.8 0 37.85 -8.95 37.8 -15.3 26.7 -21.65 15.65 -21.65 0 -21.65 -15.7 -15.3 -26.8 -8.95 -37.85 0 -37.85 8.95 -37.85 15.3 -26.8 21.6 -15.7 21.65 0 Z
M 20.5 -35.9
Q 29 -21 29 0 29 21 20.5 35.85 12 50.75 0 50.75 -12 50.75 -20.5 35.85 -29 21 -29 0 -29 -21 -20.5 -35.9 -12 -50.75 0 -50.75 12 -50.75 20.5 -35.9 Z"/>

<path id="Symbol_408_0_Layer0_0_1_STROKES" stroke="#000000" stroke-width="1" stroke-linejoin="round" stroke-linecap="round" fill="none" d="
M 43.05 -25.6
Q 39.9 -30.8 35.35 -35.35 20.7 -50 0 -50 -20.7 -50 -35.35 -35.35 -50 -20.7 -50 0 -50 20.2 -36.05 34.65
L -35.35 35.35
Q -20.7 50 0 50 20.7 50 35.35 35.35 50 20.7 50 0 50 -14.25 43.05 -25.6 Z"/>
</defs>

<g transform="matrix( 1, 0, 0, 1, 0,0) ">
<use xlink:href="#Layer0_0_FILL"/>
</g>

<g transform="matrix( 0.5566253662109375, 0, 0, 0.556640625, 312.05,238.45) ">
<g transform="matrix( 1, 0, 0, 1, 0,0) ">
<use xlink:href="#Symbol_406_0_Layer0_0_FILL"/>

<use xlink:href="#Symbol_406_0_Layer0_0_1_STROKES"/>
</g>
</g>

<g transform="matrix( 1.15997314453125, 0, 0, 1.160003662109375, 259.55,234.2) ">
<g transform="matrix( 1, 0, 0, 1, 0,0) ">
<use xlink:href="#Symbol_408_0_Layer0_0_FILL"/>

<use xlink:href="#Symbol_408_0_Layer0_0_1_STROKES"/>
</g>
</g>

<g transform="matrix( 0.5566253662109375, 0, 0, 0.556640625, 203.6,238.45) ">
<g transform="matrix( 1, 0, 0, 1, 0,0) ">
<use xlink:href="#Symbol_406_0_Layer0_0_FILL"/>

<use xlink:href="#Symbol_406_0_Layer0_0_1_STROKES"/>
</g>
</g>

<g transform="matrix( 0.9999847412109375, 0, 0, 1, 169.5,146) ">
<g transform="matrix( 1, 0, 0, 1, 0,0) ">
<use xlink:href="#Symbol_415_0_Layer1_0_FILL"/>
</g>

<g transform="matrix( 1, 0, 0, 1, 0,0) ">
<use xlink:href="#Symbol_415_0_Layer0_0_FILL"/>
</g>
</g>
</svg>
