
<svg xmlns="http://www.w3.org/2000/svg" version="1.1" xmlns:xlink="http://www.w3.org/1999/xlink" preserveAspectRatio="none" x="0px" y="0px" width="58px" height="49px" viewBox="0 0 58 49">
<defs>
<g id="Layer0_0_FILL">
<path fill="#8C0003" stroke="none" d="
M 39.45 26.7
Q 39.45 26.95 39.55 27.25
L 39.5 26.1 39.45 26.7
M 39.5 25.7
L 39.55 24.95
Q 30.2 30.6 21 26.15 21.9 28.65 21.9 31.55
L 21.65 36.75
Q 33.15 41.2 39.95 32.3
L 39.55 27.25
Q 39.45 26.95 39.45 26.7
L 39.5 25.7 Z"/>
</g>

<path id="Layer0_0_1_STROKES" stroke="#000000" stroke-width="3" stroke-linejoin="round" stroke-linecap="round" fill="none" d="
M 39.95 32.3
Q 40.8 36.7 45.2 41.1 50 45.9 56.45 46.7
M 56.45 7.8
Q 50 8.6 45.2 13.4 40.3 18.3 39.55 24.95
L 39.6 24.9 39.5 26.1 39.55 27.25 39.95 32.3
Q 33.15 41.2 21.65 36.75 21.55 38.35 17.3 42.6 13.3 46.65 7.8 47.15
M 21 26.15
Q 19.85 23.05 17.3 20.5 13.3 16.45 7.8 16
M 39.55 24.95
L 39.5 25.7 39.6 24.9
M 39.5 25.7
L 39.5 26.1 39.45 26.7
Q 39.45 26.95 39.55 27.25
M 39.5 25.7
L 39.45 26.7
M 21.65 36.75
L 21.9 31.55
Q 21.9 28.65 21 26.15 30.2 30.6 39.55 24.95"/>
</defs>

<g transform="matrix( 1, 0, 0, 1, 0,0) ">
<use xlink:href="#Layer0_0_FILL"/>

<use xlink:href="#Layer0_0_1_STROKES"/>
</g>
</svg>
