
<svg xmlns="http://www.w3.org/2000/svg" version="1.1" xmlns:xlink="http://www.w3.org/1999/xlink" preserveAspectRatio="none" x="0px" y="0px" width="62px" height="36px" viewBox="0 0 62 36">
<defs>
<g id="Body_Parts_Mouths_Smiles_Smile_Open_1_0_Layer1_0_FILL">
<path fill="#F47171" stroke="none" d="
M -13.75 13.55
L -13.7 13.55 -13.7 13.55
Q -11.6919921875 14.2251953125 -9.45 14.6 -11.9408203125 0.563671875 -26 5 -25.64375 5.708203125 -25.2 6.35 -21.566015625 11.407421875 -13.75 13.55 Z"/>

<path fill="#8C0003" stroke="none" d="
M 2.8 14.1
Q 12.027734375 12.4056640625 18.55 7.1 18.9310546875 6.7830078125 19.4 6.75 19.2033203125 1.29296875 22.1 -2.65 8.31953125 -0.383203125 -3.25 -1.05
L -3.25 -1.05
Q -13.998046875 -1.717578125 -26.8 -5.2 -28.3404296875 0.4091796875 -26.15 4.8
L -26.1 4.8
Q -26.0546875 4.9162109375 -26 5 -11.9408203125 0.563671875 -9.45 14.6 -9.2060546875 14.6396484375 -9 14.65 -4.180078125 15.3771484375 2.8 14.1 Z"/>

<path fill="#000000" stroke="none" d="
M 24.5 -5.65
Q 24.000390625 -5.9822265625 23.4 -5.9 8.9431640625 -3.362890625 -3.05 -4.05
L -3.1 -4.05
Q -14.12890625 -4.7501953125 -27.4 -8.45
L -28.8 -8.85 -29.25 -7.5
Q -31.8974609375 0.21328125 -28.8 6.15
L -28.8 6.15
Q -28.29609375 7.177734375 -27.65 8.1 -23.5513671875 13.9677734375 -14.65 16.4 -14.5880859375 16.4396484375 -14.55 16.45 -12.1654296875 17.2154296875 -9.45 17.6 -4.2201171875 18.4228515625 3.35 17.05 8.4501953125 16.1455078125 13.1 13.55 17.8 10.95 19.2 8.95 20.55 7 19.4 6.75 18.9310546875 6.7830078125 18.55 7.1 12.027734375 12.4056640625 2.8 14.1 -4.180078125 15.3771484375 -9 14.65 -9.2060546875 14.6396484375 -9.45 14.6 -11.6919921875 14.2251953125 -13.7 13.55
L -13.7 13.55 -13.75 13.55
Q -21.566015625 11.407421875 -25.2 6.35 -25.64375 5.708203125 -26 5 -26.0546875 4.9162109375 -26.1 4.8
L -26.15 4.8
Q -28.3404296875 0.4091796875 -26.8 -5.2 -13.998046875 -1.717578125 -3.25 -1.05
L -3.25 -1.05
Q 8.31953125 -0.383203125 22.1 -2.65 22.9931640625 -2.7669921875 23.9 -2.95 24.51328125 -3.037109375 24.85 -3.55 25.2326171875 -4.049609375 25.1 -4.65 25.0134765625 -5.26328125 24.5 -5.65 Z"/>
</g>
</defs>

<g transform="matrix( 1, 0, 0, 1, 31,18) ">
<g transform="matrix( 1, 0, 0, 1, 0,0) ">
<use xlink:href="#Body_Parts_Mouths_Smiles_Smile_Open_1_0_Layer1_0_FILL"/>
</g>
</g>
</svg>
