
<svg xmlns="http://www.w3.org/2000/svg" version="1.1" xmlns:xlink="http://www.w3.org/1999/xlink" preserveAspectRatio="none" x="0px" y="0px" width="58px" height="49px" viewBox="0 0 58 49">
<defs>
<g id="Layer0_0_FILL">
<path fill="#8C0003" stroke="none" d="
M 39.6 22.95
L 39.6 21.85
Q 29.8 27.25 20.9 23.75 21.9 28.65 21.9 31.55
L 21.9 38.85
Q 33.65 45.3 40.05 35.15
L 39.5 26.1 39.6 24.9 39.6 22.95 Z"/>
</g>

<path id="Layer0_0_1_STROKES" stroke="#000000" stroke-width="3" stroke-linejoin="round" stroke-linecap="round" fill="none" d="
M 40.05 35.15
Q 40.8 36.7 45.2 41.1 50 45.9 56.45 46.7
M 56.45 7.8
Q 50 8.6 45.2 13.4 40.8 17.8 39.75 23.6
L 39.7 23.85 39.6 24.9 39.5 26.1 40.05 35.15
Q 33.65 45.3 21.9 38.85 21.55 38.35 17.3 42.6 13.3 46.65 7.8 47.15
M 20.9 23.75
Q 29.8 27.25 39.6 21.85
L 39.6 22.95 39.7 23.85
M 20.9 23.75
L 17.3 20.5
Q 13.3 16.45 7.8 16
M 21.9 38.85
L 21.9 31.55
Q 21.9 28.65 20.9 23.75
M 39.6 22.95
L 39.6 24.9"/>
</defs>

<g transform="matrix( 1, 0, 0, 1, 0,0) ">
<use xlink:href="#Layer0_0_FILL"/>

<use xlink:href="#Layer0_0_1_STROKES"/>
</g>
</svg>
