
<svg xmlns="http://www.w3.org/2000/svg" version="1.1" xmlns:xlink="http://www.w3.org/1999/xlink" preserveAspectRatio="none" x="0px" y="0px" width="400px" height="293px" viewBox="0 0 400 293">
<defs>
<g id="Symbol_420_0_Layer4_0_FILL">
<path fill="#0D0B0D" stroke="none" d="
M -4.5 73.25
L -4.15 71.9 -4.2 71.9
Q -4.6 71.75 -4.5 71.35
L -4.1 71.7
Q -3.9 68.1 -6.3 67.5 -10.4 66.4 -10.9 68.35 -11.05 69.65 -9.45 71.9
L -4.5 73.25
M 172.8 80.1
L 173 80.5
Q 173.95 82.65 174.55 83.4 175.85 85.05 177.7 84 182.35 81.3 180.25 77.7 178.85 75.25 176.05 76.9 174.95 77.5 174.3 78.55
L 172.8 80.1 Z"/>

<path fill="#000000" stroke="none" d="
M 23.95 -32.7
Q 10.35 -37.7 9.65 -36.75 8.7 -35.55 27.4 -18.35 36.05 -11.6 51.85 -9.7
L 67.4 -9.1
Q 72.35 -9.15 82.45 -10.75
L 89.9 -11.05
Q 95.6 -10.95 100.95 -9.6
L 84.75 11.3
Q 77.3 17.4 64.8 33.7 61.05 38.5 43.2 55 40.45 56.9 47.9 62.7 55 68.25 61.65 61.45
L 67.55 54.15
Q 71.55 48.9 74.35 46.25 78.8 41.9 85.1 34.7 91.8 26.75 95.1 23.15
L 124.2 -8.1
Q 132.8 -1 140.85 11.7 145 18.4 147.85 34.75 150.35 48.95 151.5 49.15 153 49.3 158.5 24.55 159.95 13.7 153.7 -0.9 150.5 -8.3 146.4 -14.6 144.25 -18.3 139.15 -24.7 140 -26.4 138.6 -28 145.95 -33.55 156.55 -38.25 163.75 -41.45 180.35 -41.85 194.75 -42.3 195.1 -43.4 195.5 -44.9 171.8 -53.9 161.25 -56.95 145.9 -52.85 138.1 -50.75 131.3 -47.6 126.7 -45.75 117.95 -40.5
L 114.25 -38.7 108.9 -39.15 107.7 -42.35
Q 103.7 -52.95 103.1 -68.2 102.85 -76.1 108.6 -91.65 113.6 -105.25 112.7 -105.95 111.45 -106.9 94.25 -88.2 87.5 -79.55 85.6 -63.75 84.65 -55.7 85.05 -48.2 85.05 -44 86.2 -36.15 80.15 -34.45 73.25 -31.75 62.65 -27.8 47.4 -27.2 39.5 -26.95 23.95 -32.7 Z"/>
</g>

<g id="Symbol_406_0_Layer0_0_FILL">
<path fill="#666666" stroke="none" d="
M 20.5 -35.9
Q 12 -50.75 0 -50.75 -12 -50.75 -20.5 -35.9 -29 -21 -29 0 -29 21 -20.5 35.85 -12 50.75 0 50.75 12 50.75 20.5 35.85 29 21 29 0 29 -21 20.5 -35.9
M 0 -37.85
Q 8.95 -37.85 15.3 -26.8 21.6 -15.7 21.65 0 21.6 15.65 15.3 26.7 8.95 37.8 0 37.85 -8.95 37.8 -15.3 26.7 -21.65 15.65 -21.65 0 -21.65 -15.7 -15.3 -26.8 -8.95 -37.85 0 -37.85 Z"/>

<path fill="#999999" stroke="none" d="
M 15.3 -26.8
Q 8.95 -37.85 0 -37.85 -8.95 -37.85 -15.3 -26.8 -21.65 -15.7 -21.65 0 -21.65 15.65 -15.3 26.7 -8.95 37.8 0 37.85 8.95 37.8 15.3 26.7 21.6 15.65 21.65 0 21.6 -15.7 15.3 -26.8
M 0 -26.15
Q 6.2 -26.15 10.55 -18.5 14.95 -10.8 14.95 0 14.95 10.8 10.55 18.45 6.2 26.15 0 26.15 -6.2 26.15 -10.55 18.45 -14.95 10.8 -14.95 0 -14.95 -10.8 -10.55 -18.5 -6.2 -26.15 0 -26.15 Z"/>

<path fill="#990000" stroke="none" d="
M 10.55 -18.5
Q 6.2 -26.15 0 -26.15 -6.2 -26.15 -10.55 -18.5 -14.95 -10.8 -14.95 0 -14.95 10.8 -10.55 18.45 -6.2 26.15 0 26.15 6.2 26.15 10.55 18.45 14.95 10.8 14.95 0 14.95 -10.8 10.55 -18.5 Z"/>
</g>

<g id="Symbol_408_0_Layer0_0_FILL">
<path fill="#0D0B0D" stroke="none" d="
M 43.05 -25.6
L 42.35 -26.35
Q 27.7 -41 7 -41 -13.7 -41 -28.35 -26.35 -43 -11.7 -43 9 -43 23.25 -36.05 34.65
L -35.35 35.35
Q -20.7 50 0 50 20.7 50 35.35 35.35 50 20.7 50 0 50 -14.25 43.05 -25.6
M 29.75 -27.75
L 29.95 -27.55
Q 34 -23.35 34 -17.5 34 -11.5 29.75 -7.25 25.5 -3 19.5 -3 13.5 -3 9.25 -7.25 7.95 -8.6 7.05 -10.05 5 -13.35 5 -17.5 5 -23.5 9.25 -27.75 13.5 -32 19.5 -32 25.5 -32 29.75 -27.75 Z"/>

<path fill="#181818" stroke="none" d="
M 29.95 -27.55
L 29.75 -27.75
Q 25.5 -32 19.5 -32 13.5 -32 9.25 -27.75 5 -23.5 5 -17.5 5 -13.35 7.05 -10.05 7.95 -8.6 9.25 -7.25 13.5 -3 19.5 -3 25.5 -3 29.75 -7.25 34 -11.5 34 -17.5 34 -23.35 29.95 -27.55
M 42.35 -26.35
L 43.05 -25.6
Q 39.9 -30.8 35.35 -35.35 20.7 -50 0 -50 -20.7 -50 -35.35 -35.35 -50 -20.7 -50 0 -50 20.2 -36.05 34.65 -43 23.25 -43 9 -43 -11.7 -28.35 -26.35 -13.7 -41 7 -41 27.7 -41 42.35 -26.35 Z"/>
</g>

<g id="Symbol_420_0_Layer0_0_FILL">
<path fill="#FFFFFF" stroke="none" d="
M 113.05 89.85
Q 113.05 92.3 114.6 92.3 115.2 92.3 116 89.25
L 117.65 82.55
Q 120.3 72.85 124.7 72.85 129.85 72.85 133.35 83.55
L 135.3 90.95
Q 136.05 94.3 136.3 94.3 138.3 94.3 137.8 89.75 137.8 86.2 135.2 79.05 131.5 69.05 126 69.05 118.2 69.05 114.85 79.35 113.8 82.6 113.3 86.5
L 113.05 89.85
M 88.25 75.5
Q 89.7 79.05 89.9 91.1 90.1 91.1 91.1 91.8 92.7 91.8 92.35 87.6 92.35 67.05 82.25 67.05 71.05 67.05 68.4 78.6 67.55 82.25 67.65 87
L 67.9 91.75
Q 67.9 93.8 69.45 93.8 70.6 93.8 70.8 90.2
L 71.05 82.3
Q 71.9 70.85 79.85 70.85 86.35 70.85 88.25 75.5 Z"/>
</g>

<path id="Symbol_420_0_Layer4_0_1_STROKES" stroke="#0D0B0D" stroke-width="4" stroke-linejoin="miter" stroke-linecap="round" stroke-miterlimit="3" fill="none" d="
M 172.8 80.1
L 174.3 78.55
Q 174.95 77.5 176.05 76.9 178.85 75.25 180.25 77.7 182.35 81.3 177.7 84 175.85 85.05 174.55 83.4 173.95 82.65 173 80.5
L 172.8 80.1 Z
M 25.95 88.6
Q 24.2 87.2 8.4 77.15 7.15 76.35 -0.4 73.85 -2.35 73.25 -4 71.75
L -4.1 71.7 -4.15 71.9 -4.5 73.25 -9.45 71.9
Q -11.05 69.65 -10.9 68.35 -10.4 66.4 -6.3 67.5 -3.9 68.1 -4.1 71.7
L -4.5 71.35
Q -4.6 71.75 -4.2 71.9
L -4.15 71.9"/>

<path id="Symbol_420_0_Layer4_0_2_STROKES" stroke="#0D0B0D" stroke-width="4" stroke-linejoin="miter" stroke-linecap="square" stroke-miterlimit="3" fill="none" d="
M 172.8 80.1
L 171.5 81.15
Q 170.35 82.85 168.4 84.05 165.85 85.45 164 87.6 160.9 91.1 156.75 93.45 152.55 95.5 151.05 96.7"/>

<path id="Symbol_406_0_Layer0_0_1_STROKES" stroke="#000000" stroke-width="1" stroke-linejoin="round" stroke-linecap="round" fill="none" d="
M 10.55 -18.5
Q 14.95 -10.8 14.95 0 14.95 10.8 10.55 18.45 6.2 26.15 0 26.15 -6.2 26.15 -10.55 18.45 -14.95 10.8 -14.95 0 -14.95 -10.8 -10.55 -18.5 -6.2 -26.15 0 -26.15 6.2 -26.15 10.55 -18.5 Z
M 21.65 0
Q 21.6 15.65 15.3 26.7 8.95 37.8 0 37.85 -8.95 37.8 -15.3 26.7 -21.65 15.65 -21.65 0 -21.65 -15.7 -15.3 -26.8 -8.95 -37.85 0 -37.85 8.95 -37.85 15.3 -26.8 21.6 -15.7 21.65 0 Z
M 20.5 -35.9
Q 29 -21 29 0 29 21 20.5 35.85 12 50.75 0 50.75 -12 50.75 -20.5 35.85 -29 21 -29 0 -29 -21 -20.5 -35.9 -12 -50.75 0 -50.75 12 -50.75 20.5 -35.9 Z"/>

<path id="Symbol_408_0_Layer0_0_1_STROKES" stroke="#000000" stroke-width="1" stroke-linejoin="round" stroke-linecap="round" fill="none" d="
M 43.05 -25.6
Q 39.9 -30.8 35.35 -35.35 20.7 -50 0 -50 -20.7 -50 -35.35 -35.35 -50 -20.7 -50 0 -50 20.2 -36.05 34.65
L -35.35 35.35
Q -20.7 50 0 50 20.7 50 35.35 35.35 50 20.7 50 0 50 -14.25 43.05 -25.6 Z"/>
</defs>

<g transform="matrix( 0.9999847412109375, 0, 0, 1, 200,146) ">
<g transform="matrix( 1, 0, 0, 1, 0,0) ">
<use xlink:href="#Symbol_420_0_Layer4_0_FILL"/>

<use xlink:href="#Symbol_420_0_Layer4_0_1_STROKES"/>

<use xlink:href="#Symbol_420_0_Layer4_0_2_STROKES"/>
</g>

<g transform="matrix( 0.556640625, 0, 0, 0.556640625, 142.6,92.45) ">
<g transform="matrix( 1, 0, 0, 1, 0,0) ">
<use xlink:href="#Symbol_406_0_Layer0_0_FILL"/>

<use xlink:href="#Symbol_406_0_Layer0_0_1_STROKES"/>
</g>
</g>

<g transform="matrix( 1.160003662109375, 0, 0, 1.160003662109375, 90.1,88.2) ">
<g transform="matrix( 1, 0, 0, 1, 0,0) ">
<use xlink:href="#Symbol_408_0_Layer0_0_FILL"/>

<use xlink:href="#Symbol_408_0_Layer0_0_1_STROKES"/>
</g>
</g>

<g transform="matrix( 0.556640625, 0, 0, 0.556640625, 34.15,92.45) ">
<g transform="matrix( 1, 0, 0, 1, 0,0) ">
<use xlink:href="#Symbol_406_0_Layer0_0_FILL"/>

<use xlink:href="#Symbol_406_0_Layer0_0_1_STROKES"/>
</g>
</g>

<g transform="matrix( 1, 0, 0, 1, 0,0) ">
<use xlink:href="#Symbol_420_0_Layer0_0_FILL"/>
</g>
</g>
</svg>
