
<svg xmlns="http://www.w3.org/2000/svg" version="1.1" xmlns:xlink="http://www.w3.org/1999/xlink" preserveAspectRatio="none" x="0px" y="0px" width="37px" height="84px" viewBox="0 0 37 84">
<defs>
<g id="Body_Parts_Limbs_Legs_Leg_Bent_Above_0_Layer0_0_FILL">
<path fill="#000000" stroke="none" d="
M 3.75 3.4
Q 7.15 6.3736328125 7.6 11.2 7.9 14.281640625 4.65 20.05 1.95 24.8623046875 -0.9 27.9 0.45 31.1 3.4 34.55 7.7 39.65 11 38 14.65 36.2 12.5 31.55 10.35 26.9 5 25 7.05 21.85 8.55 17.95 10.4 13.1 9.85 10.4 8.869921875 5.43125 5.05 2.2 2.6896484375 0.259765625 0 -1.05
L -0.5 -0.15
Q 1.8955078125 1.792578125 3.75 3.4 Z"/>
</g>
</defs>

<g transform="matrix( 0.7727813720703125, 0.62774658203125, -0.589111328125, 0.8009033203125, 18.65,41.9) ">
<g transform="matrix( 1, 0, 0, 1, 0,0) ">
<use xlink:href="#Body_Parts_Limbs_Legs_Leg_Bent_Above_0_Layer0_0_FILL"/>
</g>
</g>
</svg>
