
<svg xmlns="http://www.w3.org/2000/svg" version="1.1" xmlns:xlink="http://www.w3.org/1999/xlink" preserveAspectRatio="none" x="0px" y="0px" width="26px" height="76px" viewBox="0 0 26 76">
<defs>
<g id="Body_Parts_Limbs_Arms_Arm_Bent_0_Layer1_0_FILL">
<path fill="#000000" stroke="none" d="
M -5.45 1.75
Q -9.650390625 5.1412109375 -11.35 11.05 -13.401953125 18.290234375 -10.65 24.85 -7.742578125 31.7291015625 -1.8 33.25
L -1.3 28.3
Q -5.7228515625 27.1162109375 -8.05 22.1 -10.490234375 17.064453125 -9 11.2 -7.8056640625 6.273046875 -4.3 3.35 -2.2009765625 1.61484375 0.15 1.1 0.15 0.1375 0.15 -0.85 -2.7763671875 -0.3404296875 -5.45 1.75 Z"/>
</g>

<g id="Body_Parts_Limbs_Arms_Arm_Bent_0_Layer0_0_FILL">
<path fill="#000000" stroke="none" d="
M 0 37
Q 2.5 37 4.25 35.25 6 33.5 6 31 6 28.5 4.25 26.75 2.5 25 0 25 -2.5 25 -4.25 26.75 -6 28.5 -6 31 -6 33.5 -4.25 35.25 -2.5 37 0 37 Z"/>
</g>
</defs>

<g transform="matrix( 1, 0, 0, 1, 13,37) ">
<g transform="matrix( 1, 0, 0, 1, 0,0) ">
<use xlink:href="#Body_Parts_Limbs_Arms_Arm_Bent_0_Layer1_0_FILL"/>
</g>

<g transform="matrix( 1, 0, 0, 1, 0,0) ">
<use xlink:href="#Body_Parts_Limbs_Arms_Arm_Bent_0_Layer0_0_FILL"/>
</g>
</g>
</svg>
