
<svg xmlns="http://www.w3.org/2000/svg" version="1.1" xmlns:xlink="http://www.w3.org/1999/xlink" preserveAspectRatio="none" x="0px" y="0px" width="48px" height="72px" viewBox="0 0 48 72">
<defs>
<g id="Body_Parts_Limbs_Arms_Arm_Bent_Curled_0_Layer0_0_FILL">
<path fill="#000000" stroke="none" d="
M 0.25 -1.6
Q -0.0951171875 -1.668359375 -0.5 -1.75 -8.6908203125 -3.0677734375 -15.45 1.75 -22.2013671875 6.6392578125 -23.55 14.85 -24.882421875 23.0783203125 -20.05 29.8 -18.103125 32.5111328125 -15.65 34.35 -14.8998046875 34.899609375 -14.1 35.35 -13.3642578125 35.721484375 -12.5 35.85 -9.9919921875 36.271875 -7.95 34.75 -7.6728515625 34.594140625 -7.45 34.4 -5.8107421875 32.9912109375 -5.45 30.8 -5.040625 28.291796875 -6.55 26.2 -8.0025390625 24.1595703125 -10.5 23.75 -13.0083984375 23.353125 -15.1 24.85 -16.75546875 26.039453125 -17.35 27.9 -17.4005859375 27.82421875 -17.45 27.75 -21.551953125 22.0630859375 -20.45 15.1 -19.281640625 8.17421875 -13.6 4.05 -7.8654296875 -0.0376953125 -0.95 1.1 -0.38203125 1.1873046875 0.15 1.3
L 0.25 -1.6 Z"/>
</g>
</defs>

<g transform="matrix( 1, 0, 0, 1, 24,36) ">
<g transform="matrix( 1, 0, 0, 1, 0,0) ">
<use xlink:href="#Body_Parts_Limbs_Arms_Arm_Bent_Curled_0_Layer0_0_FILL"/>
</g>
</g>
</svg>
