
<svg xmlns="http://www.w3.org/2000/svg" version="1.1" xmlns:xlink="http://www.w3.org/1999/xlink" preserveAspectRatio="none" x="0px" y="0px" width="28px" height="80px" viewBox="0 0 28 80">
<defs>
<g id="Layer0_0_FILL">
<path fill="#000000" stroke="none" d="
M 14 39
L 13.5 39.85
Q 15.9 41.8 17.8 43.45 21.15 46.35 21.6 51.25 21.9 54.3 18.65 60.05 15.95 64.85 13.1 67.95 14.45 71.1 17.4 74.55 21.7 79.65 25 78 28.65 76.2 26.5 71.55 24.35 66.9 19 65 21.05 61.85 22.55 57.95 24.4 53.1 23.9 50.45 22.85 45.45 19.1 42.25 16.7 40.25 14 39 Z"/>
</g>
</defs>

<g transform="matrix( 1, 0, 0, 1, 0,0) ">
<use xlink:href="#Layer0_0_FILL"/>
</g>
</svg>
