
<svg xmlns="http://www.w3.org/2000/svg" version="1.1" xmlns:xlink="http://www.w3.org/1999/xlink" preserveAspectRatio="none" x="0px" y="0px" width="58px" height="49px" viewBox="0 0 58 49">
<defs>
<path id="Layer0_0_1_STROKES" stroke="#000000" stroke-width="3" stroke-linejoin="round" stroke-linecap="round" fill="none" d="
M 56.45 7.8
Q 50 8.6 45.2 13.4 39.45 19.15 39.45 27.25 39.45 29.15 39.75 30.95 40.8 36.7 45.2 41.1 50 45.9 56.45 46.7
M 39.75 30.95
Q 35.8 26.65 29.8 27.05 23.8 27.45 21.85 32.5 21.55 38.35 17.3 42.6 13.3 46.65 7.8 47.15
M 21.85 32.5
L 21.9 31.55
Q 21.9 25.1 17.3 20.5 13.3 16.45 7.8 16"/>
</defs>

<g transform="matrix( 1, 0, 0, 1, 0,0) ">
<use xlink:href="#Layer0_0_1_STROKES"/>
</g>
</svg>
