
<svg xmlns="http://www.w3.org/2000/svg" version="1.1" xmlns:xlink="http://www.w3.org/1999/xlink" preserveAspectRatio="none" x="0px" y="0px" width="54px" height="65px" viewBox="0 0 54 65">
<defs>
<g id="Body_Parts_Mouths_Frowns_Frown_Open_4_0_Layer0_0_FILL">
<path fill="#000000" stroke="none" d="
M 16.4 -12
Q 11.1 -15.2 4.5 -15.5 -1.85 -15.8 -8 -13.15 -14.65 -10.35 -19.2 -4.85
L -19.25 -4.8 -19.25 -4.75 -19.3 -4.75
Q -26.55 4.1 -26.35 16.85
L -26.35 16.9
Q -26.3 23.35 -24.3 30.75
L -23.9 32.3
Q -21.1 30 -16.75 27.6 -8.15 22.85 -0.65 22.3 6.85 21.75 12.9 24.85 15.9 26.4 17.4 28.05
L 18.05 27.15
Q 30.45 9.65 24.4 -3.2 23.65 -4.95 22.6 -6.35
L 22.6 -6.4 22.55 -6.45
Q 20.15 -9.75 16.4 -12
M 15.35 -10.3
Q 17.85 -8.8 19.7 -6.75 19.1 -6.7 -16.15 -5.25 -12.35 -9.15 -7.2 -11.3 -1.45 -13.8 4.4 -13.5 10.5 -13.2 15.35 -10.3
M 17.4 -4.85
L 21.3 -5
Q 22.8 -3.5 24.3 1.9 26.85 11 17.15 25.45 14.5 23.25 10.5 22 3.05 19.4 -4.4 21.1 -13.95 23.15 -22.75 28.7
L -23.5 24.9
Q -24.1 21.3 -24.35 16.35 -24.4 4.95 -18 -3.15
L 17.4 -4.85 Z"/>

<path fill="#F47171" stroke="none" d="
M -4.4 21.1
Q -7.8 14.55 -14.1 14.05 -18.55 13.7 -24.35 16.35 -24.1 21.3 -23.5 24.9
L -22.75 28.7
Q -13.95 23.15 -4.4 21.1 Z"/>

<path fill="#6A0003" stroke="none" d="
M 10.5 22
Q 18.4 9.7 17.4 -4.85
L -18 -3.15
Q -24.4 4.95 -24.35 16.35 -18.55 13.7 -14.1 14.05 -7.8 14.55 -4.4 21.1 3.05 19.4 10.5 22 Z"/>

<path fill="#8C0003" stroke="none" d="
M 21.3 -5
L 17.4 -4.85
Q 18.4 9.7 10.5 22 14.5 23.25 17.15 25.45 26.85 11 24.3 1.9 22.8 -3.5 21.3 -5 Z"/>

<path fill="#FFFFFF" stroke="none" d="
M 19.7 -6.75
Q 17.85 -8.8 15.35 -10.3 10.5 -13.2 4.4 -13.5 -1.45 -13.8 -7.2 -11.3 -12.35 -9.15 -16.15 -5.25 19.1 -6.7 19.7 -6.75 Z"/>
</g>
</defs>

<g transform="matrix( 1, 0, 0, 1, 27,32.5) ">
<g transform="matrix( 1, 0, 0, 1, 0,0) ">
<use xlink:href="#Body_Parts_Mouths_Frowns_Frown_Open_4_0_Layer0_0_FILL"/>
</g>
</g>
</svg>
