
<svg xmlns="http://www.w3.org/2000/svg" version="1.1" xmlns:xlink="http://www.w3.org/1999/xlink" preserveAspectRatio="none" x="0px" y="0px" width="334px" height="293px" viewBox="0 0 334 293">
<defs>
<g id="Symbol_410_0_Layer4_0_FILL">
<path fill="#0D0B0D" stroke="none" d="
M 164.8 114.35
Q 165.35 109.95 164.8 105.65 164.2 100.95 162.35 98.8 163.5 91.55 158.4 91.55 155.65 91.55 154.2 93.75 153.05 95.45 153.05 97.6
L 153.55 101.25
Q 154.6 104.8 157.15 104.8
L 160.4 104.4 161.05 106.3 161.25 117.45
Q 161.3 121.05 160.3 124 157.15 133.5 145.05 133.5 139.5 133.5 134.55 129.8 129.6 126.05 128.9 126.05 127.05 126.05 127.05 128.1 127.05 130.9 134.15 134.05 141.45 137.3 148.4 137.3 159.85 137.3 163.45 126.55 164.8 122.4 164.8 114.35 Z"/>

<path fill="#000000" stroke="none" d="
M 69.3 -54.25
Q 70.55 -59.35 65.5 -59.35 45.25 -59.35 28.7 -43 21.1 -35.5 13 -22 7.1 -12.35 -4.6 -2.5 -10.7 2.55 -26.55 7.55 -40.35 11.95 -40.35 13.1 -40.35 14.65 -15 16.8 -4 16.8 9.65 8.6 16.6 4.4 22.3 -0.5 26.2 -3.55 33.2 -11 40.3 -17.85 48.55 -21.5
L 48.55 5
Q 46.45 14.4 46.55 35 46.55 41.05 42.55 65.1 41.55 68.3 51 68.3 60.05 68.3 61.1 58.85 61.35 56.55 61.3 49.45 61.25 42.85 61.8 39.05 62.7 32.85 63.25 23.3
L 64.05 8 66.9 -23.95
Q 69.3 -50.6 69.3 -54.25 Z"/>
</g>

<g id="Symbol_406_0_Layer0_0_FILL">
<path fill="#666666" stroke="none" d="
M 20.5 -35.9
Q 12 -50.75 0 -50.75 -12 -50.75 -20.5 -35.9 -29 -21 -29 0 -29 21 -20.5 35.85 -12 50.75 0 50.75 12 50.75 20.5 35.85 29 21 29 0 29 -21 20.5 -35.9
M 0 -37.85
Q 8.95 -37.85 15.3 -26.8 21.6 -15.7 21.65 0 21.6 15.65 15.3 26.7 8.95 37.8 0 37.85 -8.95 37.8 -15.3 26.7 -21.65 15.65 -21.65 0 -21.65 -15.7 -15.3 -26.8 -8.95 -37.85 0 -37.85 Z"/>

<path fill="#999999" stroke="none" d="
M 15.3 -26.8
Q 8.95 -37.85 0 -37.85 -8.95 -37.85 -15.3 -26.8 -21.65 -15.7 -21.65 0 -21.65 15.65 -15.3 26.7 -8.95 37.8 0 37.85 8.95 37.8 15.3 26.7 21.6 15.65 21.65 0 21.6 -15.7 15.3 -26.8
M 0 -26.15
Q 6.2 -26.15 10.55 -18.5 14.95 -10.8 14.95 0 14.95 10.8 10.55 18.45 6.2 26.15 0 26.15 -6.2 26.15 -10.55 18.45 -14.95 10.8 -14.95 0 -14.95 -10.8 -10.55 -18.5 -6.2 -26.15 0 -26.15 Z"/>

<path fill="#990000" stroke="none" d="
M 10.55 -18.5
Q 6.2 -26.15 0 -26.15 -6.2 -26.15 -10.55 -18.5 -14.95 -10.8 -14.95 0 -14.95 10.8 -10.55 18.45 -6.2 26.15 0 26.15 6.2 26.15 10.55 18.45 14.95 10.8 14.95 0 14.95 -10.8 10.55 -18.5 Z"/>
</g>

<g id="Symbol_408_0_Layer0_0_FILL">
<path fill="#0D0B0D" stroke="none" d="
M 43.05 -25.6
L 42.35 -26.35
Q 27.7 -41 7 -41 -13.7 -41 -28.35 -26.35 -43 -11.7 -43 9 -43 23.25 -36.05 34.65
L -35.35 35.35
Q -20.7 50 0 50 20.7 50 35.35 35.35 50 20.7 50 0 50 -14.25 43.05 -25.6
M 29.75 -27.75
L 29.95 -27.55
Q 34 -23.35 34 -17.5 34 -11.5 29.75 -7.25 25.5 -3 19.5 -3 13.5 -3 9.25 -7.25 7.95 -8.6 7.05 -10.05 5 -13.35 5 -17.5 5 -23.5 9.25 -27.75 13.5 -32 19.5 -32 25.5 -32 29.75 -27.75 Z"/>

<path fill="#181818" stroke="none" d="
M 29.95 -27.55
L 29.75 -27.75
Q 25.5 -32 19.5 -32 13.5 -32 9.25 -27.75 5 -23.5 5 -17.5 5 -13.35 7.05 -10.05 7.95 -8.6 9.25 -7.25 13.5 -3 19.5 -3 25.5 -3 29.75 -7.25 34 -11.5 34 -17.5 34 -23.35 29.95 -27.55
M 42.35 -26.35
L 43.05 -25.6
Q 39.9 -30.8 35.35 -35.35 20.7 -50 0 -50 -20.7 -50 -35.35 -35.35 -50 -20.7 -50 0 -50 20.2 -36.05 34.65 -43 23.25 -43 9 -43 -11.7 -28.35 -26.35 -13.7 -41 7 -41 27.7 -41 42.35 -26.35 Z"/>
</g>

<g id="Symbol_409_0_Layer1_0_FILL">
<path fill="#FFFFFF" stroke="none" d="
M 117.65 85.8
L 116 79.1
Q 115.2 76.05 114.6 76.05 113.05 76.05 113.05 78.5
L 113.3 81.85
Q 113.8 85.75 114.85 89 118.2 99.3 126 99.3 131.5 99.3 135.2 89.3 137.8 82.15 137.8 78.6 138.3 74.05 136.3 74.05 136.05 74.05 135.3 77.4
L 133.35 84.8
Q 129.85 95.5 124.7 95.5 120.3 95.5 117.65 85.8
M 89.9 77.25
Q 89.7 89.3 88.25 92.85 86.35 97.5 79.85 97.5 71.9 97.5 71.05 86.05
L 70.8 78.15
Q 70.6 74.55 69.45 74.55 67.9 74.55 67.9 76.6
L 67.65 81.35
Q 67.55 86.1 68.4 89.75 71.05 101.3 82.25 101.3 92.35 101.3 92.35 80.75 92.7 76.55 91.1 76.55
L 89.9 77.25 Z"/>
</g>

<g id="Symbol_409_0_Layer0_0_FILL">
<path fill="#0D0B0D" stroke="none" d="
M 34.3 98.25
Q 35.5 92.55 30.25 92.55 25.7 92.55 24.25 95.3 23.55 96.6 23.55 99.5
L 23.8 102.5
Q 24.15 103.7 24.85 104.4 24.4 106.05 24.05 108.1 23.2 113.1 23.05 118.25
L 22.9 121.8
Q 22.95 125.05 24.05 127.55 27.55 135.3 40.75 135.3 45.2 135.3 48.85 130.75 51.8 126.95 51.8 124.65 51.8 122.55 50 122.55 48.7 122.55 47.95 123.95
L 46.65 127.05
Q 44.55 131.5 38.3 131.5 29.5 131.5 27.3 125.35 26.6 123.35 26.65 120.8
L 26.8 118.15
Q 26.8 114.75 29.05 107.05
L 29.7 105.15
Q 32.45 104.65 33.5 103 34.3 101.7 34.3 98.25 Z"/>
</g>

<path id="Symbol_406_0_Layer0_0_1_STROKES" stroke="#000000" stroke-width="1" stroke-linejoin="round" stroke-linecap="round" fill="none" d="
M 10.55 -18.5
Q 14.95 -10.8 14.95 0 14.95 10.8 10.55 18.45 6.2 26.15 0 26.15 -6.2 26.15 -10.55 18.45 -14.95 10.8 -14.95 0 -14.95 -10.8 -10.55 -18.5 -6.2 -26.15 0 -26.15 6.2 -26.15 10.55 -18.5 Z
M 21.65 0
Q 21.6 15.65 15.3 26.7 8.95 37.8 0 37.85 -8.95 37.8 -15.3 26.7 -21.65 15.65 -21.65 0 -21.65 -15.7 -15.3 -26.8 -8.95 -37.85 0 -37.85 8.95 -37.85 15.3 -26.8 21.6 -15.7 21.65 0 Z
M 20.5 -35.9
Q 29 -21 29 0 29 21 20.5 35.85 12 50.75 0 50.75 -12 50.75 -20.5 35.85 -29 21 -29 0 -29 -21 -20.5 -35.9 -12 -50.75 0 -50.75 12 -50.75 20.5 -35.9 Z"/>

<path id="Symbol_408_0_Layer0_0_1_STROKES" stroke="#000000" stroke-width="1" stroke-linejoin="round" stroke-linecap="round" fill="none" d="
M 43.05 -25.6
Q 39.9 -30.8 35.35 -35.35 20.7 -50 0 -50 -20.7 -50 -35.35 -35.35 -50 -20.7 -50 0 -50 20.2 -36.05 34.65
L -35.35 35.35
Q -20.7 50 0 50 20.7 50 35.35 35.35 50 20.7 50 0 50 -14.25 43.05 -25.6 Z"/>
</defs>

<g transform="matrix( 1, 0, 0, 1, 167,146) ">
<g transform="matrix( 1, 0, 0, 1, 0,0) ">
<use xlink:href="#Symbol_410_0_Layer4_0_FILL"/>
</g>

<g transform="matrix( 0.556640625, 0, 0, 0.556640625, 142.6,92.45) ">
<g transform="matrix( 1, 0, 0, 1, 0,0) ">
<use xlink:href="#Symbol_406_0_Layer0_0_FILL"/>

<use xlink:href="#Symbol_406_0_Layer0_0_1_STROKES"/>
</g>
</g>

<g transform="matrix( 1.160003662109375, 0, 0, 1.160003662109375, 90.1,88.2) ">
<g transform="matrix( 1, 0, 0, 1, 0,0) ">
<use xlink:href="#Symbol_408_0_Layer0_0_FILL"/>

<use xlink:href="#Symbol_408_0_Layer0_0_1_STROKES"/>
</g>
</g>

<g transform="matrix( 0.556640625, 0, 0, 0.556640625, 34.15,92.45) ">
<g transform="matrix( 1, 0, 0, 1, 0,0) ">
<use xlink:href="#Symbol_406_0_Layer0_0_FILL"/>

<use xlink:href="#Symbol_406_0_Layer0_0_1_STROKES"/>
</g>
</g>

<g transform="matrix( 1, 0, 0, 1, 0,0) ">
<g transform="matrix( 1, 0, 0, 1, 0,0) ">
<use xlink:href="#Symbol_409_0_Layer1_0_FILL"/>
</g>

<g transform="matrix( 1, 0, 0, 1, 0,0) ">
<use xlink:href="#Symbol_409_0_Layer0_0_FILL"/>
</g>
</g>
</g>
</svg>
