
<svg xmlns="http://www.w3.org/2000/svg" version="1.1" xmlns:xlink="http://www.w3.org/1999/xlink" preserveAspectRatio="none" x="0px" y="0px" width="64px" height="43px" viewBox="0 0 64 43">
<defs>
<g id="Layer0_0_FILL">
<path fill="#F47171" stroke="none" d="
M 5.3 30.1
Q 10.95 38.1 21.85 39.75 19.3 25.65 5.3 30.1 Z"/>

<path fill="#000000" stroke="none" d="
M 56.5 15.9
Q 56 15.5 55.4 15.65 40.95 18.15 28.95 17.45 17.85 16.75 4.6 13.05
L 3.4 12.75 2.85 13.85
Q -2.35 24.45 2.55 31.45 9.5 41.75 21.85 42.75 28.8 43.3 36.3 41.55 44.45 39.6 49.75 36 54.55 32.7 52.55 31.9 52.25 31.95 51.95 32.2 45.95 37 34.1 39.25 27.35 40.5 22.25 39.8 22.05 39.75 21.85 39.75 10.95 38.1 5.3 30.1 5.15 29.9 5.05 29.75 1.5 24.35 5.05 16.3 17.9 19.8 28.75 20.45
L 28.8 20.45
Q 40.4 21.1 54.25 18.85 55.05 18.7 55.9 18.6 56.5 18.45 56.9 17.95 57.25 17.45 57.15 16.85 57 16.25 56.5 15.9 Z"/>

<path fill="#8C0003" stroke="none" d="
M 52.4 24.2
Q 52.9 21 54.25 18.85 40.4 21.1 28.8 20.45
L 28.75 20.45
Q 17.9 19.8 5.05 16.3 1.5 24.35 5.05 29.75 5.15 29.9 5.3 30.1 19.3 25.65 21.85 39.75 22.05 39.75 22.25 39.8 27.35 40.5 34.1 39.25 45.95 37 51.95 32.2 52.25 31.95 52.55 31.9 51.75 28.05 52.4 24.2 Z"/>
</g>
</defs>

<g transform="matrix( 1, 0, 0, 1, 0,0) ">
<use xlink:href="#Layer0_0_FILL"/>
</g>
</svg>
