
<svg xmlns="http://www.w3.org/2000/svg" version="1.1" xmlns:xlink="http://www.w3.org/1999/xlink" preserveAspectRatio="none" x="0px" y="0px" width="54px" height="50px" viewBox="0 0 54 50">
<defs>
<g id="Body_Parts_Mouths_Frowns_Frown_Open_3_0_Layer1_0_FILL">
<path fill="#F47171" stroke="none" d="
M -7.25 17.75
Q -9.281640625 13.952734375 -13.35 12.3 -17.8818359375 10.49609375 -23.6 11.95 -23.6283203125 12.313671875 -23.7 12.65 -24.1193359375 15.9927734375 -23.6 21.05 -15.4021484375 18.8271484375 -7.25 17.75 Z"/>

<path fill="#8C0003" stroke="none" d="
M 22.65 18.15
Q 21.4 13.6880859375 21.4 7 21.4 0.5255859375 23.4 -4.45 7.86015625 -8.580859375 -6.85 -5.55 -21.24765625 -2.5154296875 -23.6 11.95 -17.8818359375 10.49609375 -13.35 12.3 -9.281640625 13.952734375 -7.25 17.75 -6.9873046875 17.7298828125 -6.75 17.7
L -6.75 17.7
Q -6.151953125 17.6265625 -5.6 17.55 8.796484375 15.871875 22.65 18.15 Z"/>

<path fill="#000000" stroke="none" d="
M 25.3 -6.6
Q 24.9943359375 -7.1376953125 24.4 -7.3 8.040625 -11.6984375 -7.45 -8.5 -24.22421875 -4.9533203125 -26.65 12.25 -27.207421875 16.4541015625 -26.35 23.2
L -26.15 24.9
Q -14.85 21.05 -2.75 20 8.8 19 16.95 19.3 22.4 19.5 22.7 19.3 23.25 18.95 23.1 18.55 22.95 18.2 22.65 18.15 8.796484375 15.871875 -5.6 17.55 -6.151953125 17.6265625 -6.75 17.7
L -6.75 17.7
Q -6.9873046875 17.7298828125 -7.25 17.75 -15.4021484375 18.8271484375 -23.6 21.05 -24.1193359375 15.9927734375 -23.7 12.65 -23.6283203125 12.313671875 -23.6 11.95 -21.24765625 -2.5154296875 -6.85 -5.55 7.86015625 -8.580859375 23.4 -4.45 23.4953125 -4.428125 23.6 -4.4 24.2033203125 -4.2392578125 24.75 -4.55 25.28828125 -4.8564453125 25.45 -5.45 25.6115234375 -6.0541015625 25.3 -6.6 Z"/>
</g>
</defs>

<g transform="matrix( 1, 0, 0, 1, 27,25) ">
<g transform="matrix( 1, 0, 0, 1, 0,0) ">
<use xlink:href="#Body_Parts_Mouths_Frowns_Frown_Open_3_0_Layer1_0_FILL"/>
</g>
</g>
</svg>
