
<svg xmlns="http://www.w3.org/2000/svg" version="1.1" xmlns:xlink="http://www.w3.org/1999/xlink" preserveAspectRatio="none" x="0px" y="0px" width="54px" height="36px" viewBox="0 0 54 36">
<defs>
<g id="Layer0_0_FILL">
<path fill="#F47171" stroke="none" d="
M 3.85 31.95
Q 11.95 29.75 20.15 28.7 16 21.25 4.3 24.6 4.25 24.95 4.2 25.3 3.65 29 3.85 31.95 Z"/>

<path fill="#000000" stroke="none" d="
M 52.3 11.4
Q 52 10.85 51.4 10.7 35.25 6.35 19.55 9.55 11.05 11.25 6.15 15.95 1.95 19.95 1.25 24.9 0.55 29.8 1.25 35.85 13.15 31.95 22.65 30.85 36.8 29.15 48.65 30.7 50.75 30.95 51.1 30.15 51.45 29.3 50.2 29.1 36.05 26.6 20.65 28.6
L 20.6 28.6
Q 20.35 28.65 20.15 28.7 11.95 29.75 3.85 31.95 3.65 29 4.2 25.3 4.25 24.95 4.3 24.6 5.05 21.1 8.2 18.15 12.55 14.05 20.15 12.5 35.05 9.45 50.45 13.55 50.5 13.6 50.6 13.6 51.2 13.75 51.75 13.45 52.3 13.15 52.45 12.55 52.6 11.95 52.3 11.4 Z"/>

<path fill="#8C0003" stroke="none" d="
M 49.35 20.45
Q 49.35 16.55 50.45 13.55 35.05 9.45 20.15 12.5 12.55 14.05 8.2 18.15 5.05 21.1 4.3 24.6 16 21.25 20.15 28.7 20.35 28.65 20.6 28.6
L 20.65 28.6
Q 36.05 26.6 50.2 29.1 49.35 24.25 49.35 20.45 Z"/>
</g>
</defs>

<g transform="matrix( 1, 0, 0, 1, 0,0) ">
<use xlink:href="#Layer0_0_FILL"/>
</g>
</svg>
