
<svg xmlns="http://www.w3.org/2000/svg" version="1.1" xmlns:xlink="http://www.w3.org/1999/xlink" preserveAspectRatio="none" x="0px" y="0px" width="300px" height="293px" viewBox="0 0 300 293">
<defs>
<g id="Symbol_421_0_Layer0_0_FILL">
<path fill="#000000" stroke="none" d="
M 69.3 -54.25
Q 70.55 -59.35 65.5 -59.35 45.25 -59.35 28.7 -43 21.1 -35.5 13 -22 7.1 -12.35 -4.6 -2.5 -10.7 2.55 -26.55 7.55 -40.35 11.95 -40.35 13.1 -40.35 14.65 -15 16.8 -4 16.8 9.65 8.6 16.6 4.4 22.3 -0.5 26.2 -3.55 33.2 -11 40.3 -17.85 48.55 -21.5
L 48.55 5
Q 46.45 14.4 46.55 35 46.55 41.05 42.55 65.1 41.55 68.3 51 68.3 60.05 68.3 61.1 58.85 61.35 56.55 61.3 49.45 61.25 42.85 61.8 39.05 62.7 32.85 63.25 23.3
L 64.05 8 66.9 -23.95
Q 69.3 -50.6 69.3 -54.25 Z"/>
</g>

<g id="Symbol_408_0_Layer0_0_FILL">
<path fill="#0D0B0D" stroke="none" d="
M 43.05 -25.6
L 42.35 -26.35
Q 27.7 -41 7 -41 -13.7 -41 -28.35 -26.35 -43 -11.7 -43 9 -43 23.25 -36.05 34.65
L -35.35 35.35
Q -20.7 50 0 50 20.7 50 35.35 35.35 50 20.7 50 0 50 -14.25 43.05 -25.6
M 29.75 -27.75
L 29.95 -27.55
Q 34 -23.35 34 -17.5 34 -11.5 29.75 -7.25 25.5 -3 19.5 -3 13.5 -3 9.25 -7.25 7.95 -8.6 7.05 -10.05 5 -13.35 5 -17.5 5 -23.5 9.25 -27.75 13.5 -32 19.5 -32 25.5 -32 29.75 -27.75 Z"/>

<path fill="#181818" stroke="none" d="
M 29.95 -27.55
L 29.75 -27.75
Q 25.5 -32 19.5 -32 13.5 -32 9.25 -27.75 5 -23.5 5 -17.5 5 -13.35 7.05 -10.05 7.95 -8.6 9.25 -7.25 13.5 -3 19.5 -3 25.5 -3 29.75 -7.25 34 -11.5 34 -17.5 34 -23.35 29.95 -27.55
M 42.35 -26.35
L 43.05 -25.6
Q 39.9 -30.8 35.35 -35.35 20.7 -50 0 -50 -20.7 -50 -35.35 -35.35 -50 -20.7 -50 0 -50 20.2 -36.05 34.65 -43 23.25 -43 9 -43 -11.7 -28.35 -26.35 -13.7 -41 7 -41 27.7 -41 42.35 -26.35 Z"/>
</g>

<g id="Symbol_406_0_Layer0_0_FILL">
<path fill="#666666" stroke="none" d="
M 20.5 -35.9
Q 12 -50.75 0 -50.75 -12 -50.75 -20.5 -35.9 -29 -21 -29 0 -29 21 -20.5 35.85 -12 50.75 0 50.75 12 50.75 20.5 35.85 29 21 29 0 29 -21 20.5 -35.9
M 0 -37.85
Q 8.95 -37.85 15.3 -26.8 21.6 -15.7 21.65 0 21.6 15.65 15.3 26.7 8.95 37.8 0 37.85 -8.95 37.8 -15.3 26.7 -21.65 15.65 -21.65 0 -21.65 -15.7 -15.3 -26.8 -8.95 -37.85 0 -37.85 Z"/>

<path fill="#999999" stroke="none" d="
M 15.3 -26.8
Q 8.95 -37.85 0 -37.85 -8.95 -37.85 -15.3 -26.8 -21.65 -15.7 -21.65 0 -21.65 15.65 -15.3 26.7 -8.95 37.8 0 37.85 8.95 37.8 15.3 26.7 21.6 15.65 21.65 0 21.6 -15.7 15.3 -26.8
M 0 -26.15
Q 6.2 -26.15 10.55 -18.5 14.95 -10.8 14.95 0 14.95 10.8 10.55 18.45 6.2 26.15 0 26.15 -6.2 26.15 -10.55 18.45 -14.95 10.8 -14.95 0 -14.95 -10.8 -10.55 -18.5 -6.2 -26.15 0 -26.15 Z"/>

<path fill="#990000" stroke="none" d="
M 10.55 -18.5
Q 6.2 -26.15 0 -26.15 -6.2 -26.15 -10.55 -18.5 -14.95 -10.8 -14.95 0 -14.95 10.8 -10.55 18.45 -6.2 26.15 0 26.15 6.2 26.15 10.55 18.45 14.95 10.8 14.95 0 14.95 -10.8 10.55 -18.5 Z"/>
</g>

<g id="Symbol_426_0_Layer0_0_FILL">
<path fill="#FFFFFF" stroke="none" d="
M 120.5 78.5
L 120.75 81.85
Q 121.25 85.75 122.3 89 125.65 99.3 133.45 99.3 138.95 99.3 142.65 89.3 145.25 82.15 145.25 78.6 145.75 74.05 143.75 74.05 143.5 74.05 142.75 77.4
L 140.8 84.8
Q 137.3 95.5 132.15 95.5 127.75 95.5 125.1 85.8
L 123.45 79.1
Q 122.65 76.05 122.05 76.05 120.5 76.05 120.5 78.5 Z"/>
</g>

<path id="Symbol_408_0_Layer0_0_1_STROKES" stroke="#000000" stroke-width="1" stroke-linejoin="round" stroke-linecap="round" fill="none" d="
M 43.05 -25.6
Q 39.9 -30.8 35.35 -35.35 20.7 -50 0 -50 -20.7 -50 -35.35 -35.35 -50 -20.7 -50 0 -50 20.2 -36.05 34.65
L -35.35 35.35
Q -20.7 50 0 50 20.7 50 35.35 35.35 50 20.7 50 0 50 -14.25 43.05 -25.6 Z"/>

<path id="Symbol_406_0_Layer0_0_1_STROKES" stroke="#000000" stroke-width="1" stroke-linejoin="round" stroke-linecap="round" fill="none" d="
M 10.55 -18.5
Q 14.95 -10.8 14.95 0 14.95 10.8 10.55 18.45 6.2 26.15 0 26.15 -6.2 26.15 -10.55 18.45 -14.95 10.8 -14.95 0 -14.95 -10.8 -10.55 -18.5 -6.2 -26.15 0 -26.15 6.2 -26.15 10.55 -18.5 Z
M 21.65 0
Q 21.6 15.65 15.3 26.7 8.95 37.8 0 37.85 -8.95 37.8 -15.3 26.7 -21.65 15.65 -21.65 0 -21.65 -15.7 -15.3 -26.8 -8.95 -37.85 0 -37.85 8.95 -37.85 15.3 -26.8 21.6 -15.7 21.65 0 Z
M 20.5 -35.9
Q 29 -21 29 0 29 21 20.5 35.85 12 50.75 0 50.75 -12 50.75 -20.5 35.85 -29 21 -29 0 -29 -21 -20.5 -35.9 -12 -50.75 0 -50.75 12 -50.75 20.5 -35.9 Z"/>
</defs>

<g transform="matrix( 0.9999847412109375, 0, 0, 1, 150,146) ">
<g transform="matrix( 1, 0, 0, 1, 0,0) ">
<g transform="matrix( 1, 0, 0, 1, 0,0) ">
<use xlink:href="#Symbol_421_0_Layer0_0_FILL"/>
</g>
</g>

<g transform="matrix( 1.160003662109375, 0, 0, 1.160003662109375, 90.1,88.2) ">
<g transform="matrix( 1, 0, 0, 1, 0,0) ">
<use xlink:href="#Symbol_408_0_Layer0_0_FILL"/>

<use xlink:href="#Symbol_408_0_Layer0_0_1_STROKES"/>
</g>
</g>

<g transform="matrix( 0.8292236328125, 0, 0, 0.556640625, 89.85,92.45) ">
<g transform="matrix( 1, 0, 0, 1, 0,0) ">
<use xlink:href="#Symbol_406_0_Layer0_0_FILL"/>

<use xlink:href="#Symbol_406_0_Layer0_0_1_STROKES"/>
</g>
</g>

<g transform="matrix( 1, 0, 0, 1, 0,0) ">
<use xlink:href="#Symbol_426_0_Layer0_0_FILL"/>
</g>
</g>
</svg>
