
<svg xmlns="http://www.w3.org/2000/svg" version="1.1" xmlns:xlink="http://www.w3.org/1999/xlink" preserveAspectRatio="none" x="0px" y="0px" width="298px" height="298px" viewBox="0 0 298 298">
<defs>
<g id="Layer0_0_FILL">
<path fill="#FFFFFF" fill-opacity="0.4980392156862745" stroke="none" d="
M 198.1 74.85
L 211 12.4 172.7 63.4 165.7 0 145.05 60.35 118.8 2.2 117.75 66 74.85 18.8 93.6 79.8 38.2 48.2 74.85 100.35 12.4 87.45 63.4 125.75 0 132.75 60.35 153.4 2.2 179.65 66 180.7 18.8 223.6 79.8 204.85 48.2 260.3 100.35 223.6 87.45 286.05 125.75 235.05 132.75 298.45 153.4 238.1 179.65 296.25 180.7 232.45 223.6 279.65 204.85 218.65 260.3 250.3 223.6 198.1 286.05 211 235.05 172.7 298.45 165.7 238.1 145.05 296.25 118.8 232.45 117.75 279.65 74.85 218.65 93.6 250.25 38.2 198.1 74.85 Z"/>
</g>
</defs>

<g transform="matrix( 1, 0, 0, 1, 0,0) ">
<use xlink:href="#Layer0_0_FILL"/>
</g>
</svg>
