
<svg xmlns="http://www.w3.org/2000/svg" version="1.1" xmlns:xlink="http://www.w3.org/1999/xlink" preserveAspectRatio="none" x="0px" y="0px" width="58px" height="57px" viewBox="0 0 58 57">
<defs>
<g id="Body_Parts_Mouths_Smiles_Smile_Open_4_0_Layer0_0_FILL">
<path fill="#8C0003" stroke="none" d="
M 20.05 18.05
Q 26.8072265625 10.8078125 27.3 0.8 22.8763671875 0.6171875 18.4 0.4 13.544921875 13.912109375 -1.75 19.1 0.8255859375 22.2564453125 2.45 27.2 12.8427734375 25.769140625 20.05 18.05 Z"/>

<path fill="#6A0003" stroke="none" d="
M -24.05 16.15
Q -9.0603515625 10.13125 -1.75 19.1 13.544921875 13.912109375 18.4 0.4 -3.5986328125 -0.4703125 -25.65 -1.4 -27.8720703125 8.7541015625 -24.05 16.15 Z"/>

<path fill="#F47171" stroke="none" d="
M -24.05 16.15
Q -23.898828125 16.43203125 -23.75 16.7 -17.85 27.25 -3.4 27.55 -0.363671875 27.613671875 2.45 27.2 0.8255859375 22.2564453125 -1.75 19.1 -9.0603515625 10.13125 -24.05 16.15 Z"/>

<path fill="#FFFFFF" stroke="none" d="
M 26 -10.95
Q 16.9 -5.05 2.6 -6 -12.5 -7.05 -20.25 -15.45 -24.18125 -7.8544921875 -25.65 -1.4 -3.5986328125 -0.4703125 18.4 0.4 22.8763671875 0.6171875 27.3 0.8 27.590234375 -4.6599609375 26 -10.95 Z"/>
</g>

<path id="Body_Parts_Mouths_Smiles_Smile_Open_4_0_Layer0_0_1_STROKES" stroke="#000000" stroke-width="2" stroke-linejoin="miter" stroke-linecap="round" stroke-miterlimit="12" fill="none" d="
M -25.625 -1.375
Q -3.5986328125 -0.4703125 18.425 0.425 22.8763671875 0.6171875 27.325 0.8
M -25.625 -1.375
Q -24.18125 -7.8544921875 -20.25 -15.45 -12.5 -7.05 2.6 -6 16.9 -5.05 26 -10.95 27.590234375 -4.6599609375 27.325 0.8 26.8072265625 10.8078125 20.05 18.05 12.8427734375 25.769140625 2.45 27.225 -0.363671875 27.613671875 -3.4 27.55 -17.85 27.25 -23.75 16.7 -23.898828125 16.43203125 -24.05 16.15 -27.8720703125 8.7541015625 -25.625 -1.375 Z"/>
</defs>

<g transform="matrix( 1, 0, 0, 1, 29,28.5) ">
<g transform="matrix( 1, 0, 0, 1, 0,0) ">
<use xlink:href="#Body_Parts_Mouths_Smiles_Smile_Open_4_0_Layer0_0_FILL"/>

<use xlink:href="#Body_Parts_Mouths_Smiles_Smile_Open_4_0_Layer0_0_1_STROKES"/>
</g>
</g>
</svg>
