
<svg xmlns="http://www.w3.org/2000/svg" version="1.1" xmlns:xlink="http://www.w3.org/1999/xlink" preserveAspectRatio="none" x="0px" y="0px" width="64px" height="50px" viewBox="0 0 64 50">
<defs>
<g id="Layer0_0_FILL">
<path fill="#F47171" stroke="none" d="
M 6.4 37.4
L 6.45 37.4
Q 9.95 42.35 17.8 44.55
L 22.15 45.55
Q 19.6 31.55 5.6 36 6 36.8 6.4 37.4 Z"/>

<path fill="#8C0003" stroke="none" d="
M 53.45 40.3
Q 50.65 35.85 50.95 29.65 51.25 24.15 54 21 40.5 23.1 29.2 22.45
L 29.15 22.45
Q 18.3 21.8 5.45 18.3 1 28.2 5.45 35.75
L 5.5 35.85
Q 5.55 35.9 5.6 36 19.6 31.55 22.15 45.55
L 22.75 45.7 22.65 45.7
Q 29.3 46.8 36.15 46 45.85 44.9 53.45 40.3 Z"/>

<path fill="#000000" stroke="none" d="
M 56.9 17.9
Q 56.4 17.5 55.8 17.65 41.35 20.15 29.35 19.45 18.25 18.75 5 15.05
L 3.8 14.75 3.25 15.85
Q -2.75 28.1 2.9 37.3
L 2.8 37.2
Q 3.35 38.3 4 39.15 8 44.95 17.05 47.45
L 17.1 47.45 17.15 47.5 22.1 48.65 22.15 48.65
Q 29.6 49.85 37.65 48.55 45.9 47.25 51.5 43.75 53.65 42.4 54.25 41.4 54.85 40.35 53.45 40.3 45.85 44.9 36.15 46 29.3 46.8 22.65 45.7
L 22.75 45.7 22.15 45.55 17.8 44.55
Q 9.95 42.35 6.45 37.4
L 6.4 37.4
Q 6 36.8 5.6 36 5.55 35.9 5.5 35.85
L 5.45 35.75
Q 1 28.2 5.45 18.3 18.3 21.8 29.15 22.45
L 29.2 22.45
Q 40.5 23.1 54 21 55.1 20.8 56.3 20.6 56.9 20.45 57.3 19.95 57.65 19.45 57.55 18.85 57.4 18.25 56.9 17.9 Z"/>
</g>
</defs>

<g transform="matrix( 1, 0, 0, 1, 0,0) ">
<use xlink:href="#Layer0_0_FILL"/>
</g>
</svg>
