
<svg xmlns="http://www.w3.org/2000/svg" version="1.1" xmlns:xlink="http://www.w3.org/1999/xlink" preserveAspectRatio="none" x="0px" y="0px" width="53px" height="29px" viewBox="0 0 53 29">
<defs>
<g id="Body_Parts_Mouths_Frowns_Frown_Teeth_0_Layer0_0_FILL">
<path fill="#000000" stroke="none" d="
M 26.4 -6.35
Q 21.6 -8.8 11 -9.4 0.55 -10.05 -7.45 -8.5 -19.98046875 -6.0142578125 -24.1 0.85
L -24.1 0.85
Q -24.7501953125 1.9216796875 -25.2 3.05 -26.05 5.15 -26.2 8.75 -26.4 12.4 -25.75 14.2 -17.9 10.9 -3.25 9.55 13.5 8.05 25.05 10.9 24.25 2.8 24.3 0.45 24.4 -3.95 26.4 -6.35
M 21.9 -4.85
Q 21.2166015625 -2.9287109375 20.95 -1.05
L -20.05 0.55
Q -15.9404296875 -3.7521484375 -6.85 -5.55 7.51875 -8.3443359375 21.9 -4.85
M -6.4 7
L -6.4 7
Q -14.6869140625 8.0169921875 -23.25 10.35 -23.4875 6.9037109375 -22.4 4.15 -22.0828125 3.36015625 -21.65 2.6
L 20.85 0.95
Q 20.83828125 2.967578125 21.6 7.2 7.9693359375 5.1732421875 -6.4 7 Z"/>

<path fill="#FFFFFF" stroke="none" d="
M -6.4 7
L -6.4 7
Q 7.9693359375 5.1732421875 21.6 7.2 20.83828125 2.967578125 20.85 0.95
L -21.65 2.6
Q -22.0828125 3.36015625 -22.4 4.15 -23.4875 6.9037109375 -23.25 10.35 -14.6869140625 8.0169921875 -6.4 7
M 20.95 -1.05
Q 21.2166015625 -2.9287109375 21.9 -4.85 7.51875 -8.3443359375 -6.85 -5.55 -15.9404296875 -3.7521484375 -20.05 0.55
L 20.95 -1.05 Z"/>
</g>
</defs>

<g transform="matrix( 1, 0, 0, 1, 26.45,14.5) ">
<g transform="matrix( 1, 0, 0, 1, 0,0) ">
<use xlink:href="#Body_Parts_Mouths_Frowns_Frown_Teeth_0_Layer0_0_FILL"/>
</g>
</g>
</svg>
