
<svg xmlns="http://www.w3.org/2000/svg" version="1.1" xmlns:xlink="http://www.w3.org/1999/xlink" preserveAspectRatio="none" x="0px" y="0px" width="54px" height="30px" viewBox="0 0 54 30">
<defs>
<g id="Layer0_0_FILL">
<path fill="#F47171" stroke="none" d="
M 20.15 22.05
Q 16.2 15.05 5.15 18.05 4.85 18.55 4.6 19.15 3.5 21.9 3.8 25.4 12.05 23.1 20.15 22.05 Z"/>

<path fill="#8C0003" stroke="none" d="
M 50.2 22.5
Q 49.35 18 49.35 15.95 49.35 13.3 50.4 10.55 35.25 6.5 20.15 9.5 8.65 11.75 5.15 18.05 16.2 15.05 20.15 22.05 20.35 22.05 20.6 22
L 20.65 22
Q 35.65 20.05 50.2 22.5 Z"/>

<path fill="#000000" stroke="none" d="
M 52.3 8.4
Q 52 7.85 51.4 7.7 35.45 3.4 19.55 6.55 5.4 9.25 1.8 18.05 -0.25 23.05 1.3 29.2 11.9 25.65 21.75 24.65 36.5 23.1 49.55 24.55 51.2 24.75 51.4 23.75 51.55 22.75 50.2 22.5 35.65 20.05 20.65 22
L 20.6 22
Q 20.35 22.05 20.15 22.05 12.05 23.1 3.8 25.4 3.5 21.9 4.6 19.15 4.85 18.55 5.15 18.05 8.65 11.75 20.15 9.5 35.25 6.5 50.4 10.55 50.5 10.55 50.6 10.6 51.2 10.75 51.75 10.45 52.3 10.15 52.45 9.55 52.6 8.95 52.3 8.4 Z"/>
</g>
</defs>

<g transform="matrix( 1, 0, 0, 1, 0,0) ">
<use xlink:href="#Layer0_0_FILL"/>
</g>
</svg>
