
<svg xmlns="http://www.w3.org/2000/svg" version="1.1" xmlns:xlink="http://www.w3.org/1999/xlink" preserveAspectRatio="none" x="0px" y="0px" width="64px" height="80px" viewBox="0 0 64 80">
<defs>
<g id="Symbol_261_0_Layer0_0_FILL">
<path fill="#000000" stroke="none" d="
M 3.8 3.45
Q 7.15 6.35 7.6 11.25 7.9 14.3 4.65 20.05 1.95 24.85 -0.9 27.95 0.45 31.1 3.4 34.55 7.7 39.65 11 38 14.65 36.2 12.5 31.55 10.35 26.9 5 25 7.05 21.85 8.55 17.95 10.4 13.1 9.9 10.45 8.85 5.45 5.1 2.25 2.7 0.25 0 -1
L -0.5 -0.15 3.8 3.45 Z"/>
</g>
</defs>

<g transform="matrix( 0.4017181396484375, 0.9110107421875, -0.78485107421875, 0.3460693359375, 32,39.85) ">
<g transform="matrix( 1, 0, 0, 1, 0,0) ">
<use xlink:href="#Symbol_261_0_Layer0_0_FILL"/>
</g>
</g>
</svg>
