
<svg xmlns="http://www.w3.org/2000/svg" version="1.1" xmlns:xlink="http://www.w3.org/1999/xlink" preserveAspectRatio="none" x="0px" y="0px" width="960px" height="1620px" viewBox="0 0 960 1620">
<defs>
<linearGradient id="Gradient_1" gradientUnits="userSpaceOnUse" x1="480.05" y1="11.412500000000023" x2="480.05" y2="1619.9875000000002" spreadMethod="pad">
<stop  offset="0%" stop-color="#D8E0E2"/>

<stop  offset="32.94117647058823%" stop-color="#63808D"/>

<stop  offset="68.23529411764706%" stop-color="#232E32"/>

<stop  offset="100%" stop-color="#000000"/>
</linearGradient>

<g id="Layer0_0_FILL">
<path fill="url(#Gradient_1)" stroke="none" d="
M 960 0
L 0 0 0 1620 960 1620 960 0"/>
</g>

<g id="Layer0_1_MEMBER_0_MEMBER_0_MEMBER_0_MEMBER_0_MEMBER_0_FILL">
<path fill="#333333" stroke="none" d="
M 166.8 1530.75
L 163.1 1530.75 161.45 1589.75 196.3 1589.85
Q 194 1578.45 182.65 1576.2 175.45 1574.9 168.8 1577.8
L 166.8 1530.75 Z"/>
</g>

<g id="Layer0_1_MEMBER_1_MEMBER_0_MEMBER_0_MEMBER_0_MEMBER_0_FILL">
<path fill="#333333" stroke="none" d="
M 116.45 1577.8
Q 109.8 1574.9 102.6 1576.2 91.25 1578.45 89 1589.85
L 123.8 1589.75 122.15 1530.75 118.5 1530.75 116.45 1577.8 Z"/>
</g>

<g id="Layer0_1_MEMBER_2_MEMBER_0_MEMBER_0_MEMBER_0_MEMBER_0_MEMBER_0_FILL">
<path fill="#333333" stroke="none" d="
M 72.1 1472.05
L 68.4 1471.85 64.3 1518.25
Q 61.85 1518.85 59.75 1520.7 56.35 1523.7 56.1 1528.35 55.8 1532.85 58.85 1536.3 61.9 1539.75 66.5 1539.95 71.05 1540.25 74.5 1537.2 77.95 1534.1 78.15 1529.55 78.4 1524.9 75.35 1521.55 73.55 1519.5 71.1 1518.55
L 72.1 1472.05 Z"/>
</g>

<g id="Layer0_1_MEMBER_3_MEMBER_0_MEMBER_0_MEMBER_0_MEMBER_0_MEMBER_0_FILL">
<path fill="#333333" stroke="none" d="
M 216.85 1471.85
L 213.15 1472.05 214.05 1518.65
Q 211.55 1519.6 209.8 1521.55 206.8 1524.85 207 1529.55 207.25 1534.15 210.65 1537.2 214.05 1540.25 218.6 1540 223.3 1539.7 226.25 1536.35 229.35 1532.95 229.05 1528.35 228.85 1523.8 225.45 1520.7 223.4 1518.9 220.85 1518.2
L 216.85 1471.85 Z"/>
</g>

<g id="Layer0_1_MEMBER_4_MEMBER_0_MEMBER_0_MEMBER_0_MEMBER_0_FILL">
<path fill="#DF0000" stroke="none" d="
M 169.25 1252.5
Q 249.95 1394.85 141.6 1550.95 324.3 1408.6 169.25 1252.5 Z"/>
</g>

<g id="Layer0_1_MEMBER_4_MEMBER_0_MEMBER_0_MEMBER_0_MEMBER_1_FILL">
<path fill="#FF0000" stroke="none" d="
M 141.6 1550.95
Q 249.95 1394.85 169.25 1252.5 156.7 1239.85 141.6 1226.9 -53.95 1388.6 141.6 1550.95 Z"/>
</g>

<g id="Layer0_1_MEMBER_4_MEMBER_1_MEMBER_0_MEMBER_0_MEMBER_0_FILL">
<path fill="#000000" stroke="none" d="
M 65.65 1353.45
L 64.9 1353.4
Q 62.25 1354.1 62.25 1362.4 62.25 1366.5 63 1371.65
L 63.15 1373.2
Q 64.3 1380.4 65.75 1383.7 67.45 1389.6 70.15 1393.3
L 71.65 1395.05 67.15 1391.9
Q 65.7 1390.75 64.1 1387.7
L 63.25 1385.45 62.5 1376.45
Q 60.75 1380.1 60.75 1382.25 60.75 1404.1 81.5 1404.1 102.25 1404.1 110.35 1401.4 118.4 1398.6 121.25 1396.15 124.1 1393.6 124.95 1391.75
L 125.65 1389.9 124.55 1390.65 108.5 1394.3 107.5 1394.05
Q 106.3 1394.05 97.75 1397
L 90.9 1398.2
Q 91.35 1397.45 91.35 1396.45 91.35 1395.25 90.9 1394.95
L 90.65 1397.35
Q 90.05 1398.55 86.1 1398.55
L 86.1 1398.65 84.65 1398.65 76.45 1396.45
Q 73.85 1395.05 71.75 1392.2 69.2 1388.45 67.3 1382.8 64.55 1374.1 64.1 1365.9
L 63.9 1361.95
Q 63.9 1354.95 65.65 1353.45
M 206.35 1412.85
Q 209.7 1410.15 209.85 1406.85 209.9 1404.95 208.8 1405.1 207.75 1405.25 205.4 1408.6 203 1411.9 191.5 1411 179.9 1410.1 162.9 1399.65 162.85 1404.45 172.4 1410 182.4 1415.7 192.85 1416 201.7 1416.15 206.35 1412.85
M 120.05 1399.1
L 108.45 1407.6
Q 98.9 1413.95 90.15 1413.95 84.9 1413.95 79.3 1410
L 72.95 1405.95 71.65 1406.2
Q 77.75 1418.4 91.55 1418.4 101.4 1418.4 110.35 1411.55 118.5 1405.4 120.05 1399.1
M 222.45 1368.6
Q 222.9 1366.25 222.55 1358.55 222.2 1350.75 221.75 1353.75 221.15 1356.9 221.15 1363.35
L 220.9 1370.25 218.7 1381.15
Q 217.25 1387.3 211.4 1392.65 205.45 1398.2 198.7 1398.65
L 188 1397 178.2 1394.05 177.2 1394.3 169.45 1392.75
Q 163.25 1390.8 161.15 1390.65
L 160.05 1389.9 160.8 1391.75
Q 161.7 1393.7 164.5 1396.15 167.35 1398.65 175.45 1401.4 183.5 1404.1 204.2 1404.1 224.95 1404.1 224.95 1382.25 224.95 1380.1 223.2 1376.45
L 222.45 1385.45 221.65 1387.7
Q 220.1 1390.65 218.6 1391.9
L 211.1 1396.7
Q 209.2 1397.55 205.95 1398.2
L 209.3 1396.25
Q 215.6 1392.1 218.5 1385.75 222.25 1377.6 222.45 1368.6 Z"/>
</g>

<g id="Layer0_1_MEMBER_4_MEMBER_1_MEMBER_0_MEMBER_0_MEMBER_1_FILL">
<path fill="#000000" fill-opacity="0.4980392156862745" stroke="none" d="
M 64.1 1365.9
Q 64.55 1374.1 67.3 1382.8 69.2 1388.45 71.75 1392.2 73.85 1395.05 76.45 1396.45
L 84.65 1398.65 86.1 1398.65 86.1 1398.55
Q 90.05 1398.55 90.65 1397.35
L 90.9 1394.95
Q 91.35 1395.25 91.35 1396.45 91.35 1397.45 90.9 1398.2
L 97.75 1397
Q 106.3 1394.05 107.5 1394.05
L 108.5 1394.3 124.55 1390.65 125.65 1389.9
Q 93.85 1370.55 117.85 1349.15 111.7 1342.75 102.45 1341.05 93.45 1339.35 84.65 1342.8 68.35 1349.05 64.1 1365.9
M 63.15 1373.2
L 63 1371.65 62.5 1376.45 63.25 1385.45 64.1 1387.7
Q 65.7 1390.75 67.15 1391.9
L 71.65 1395.05 70.15 1393.3
Q 67.45 1389.6 65.75 1383.7 64.3 1380.4 63.15 1373.2
M 222.45 1385.45
L 223.2 1376.45 222.45 1368.6
Q 222.25 1377.6 218.5 1385.75 215.6 1392.1 209.3 1396.25
L 205.95 1398.2
Q 209.2 1397.55 211.1 1396.7
L 218.6 1391.9
Q 220.1 1390.65 221.65 1387.7
L 222.45 1385.45
M 184.75 1339.3
Q 174.9 1341.35 167.05 1349.4 172.4 1374.35 160.05 1389.9
L 161.15 1390.65
Q 163.25 1390.8 169.45 1392.75
L 177.2 1394.3 178.2 1394.05 188 1397 198.7 1398.65
Q 205.45 1398.2 211.4 1392.65 217.25 1387.3 218.7 1381.15
L 220.9 1370.25 221.15 1363.35
Q 219.75 1358.5 217.1 1354.2 211.7 1345.35 202.85 1341.3 194.1 1337.35 184.75 1339.3 Z"/>
</g>

<g id="Layer0_1_MEMBER_4_MEMBER_2_MEMBER_0_MEMBER_0_MEMBER_0_FILL">
<path fill="#000000" stroke="none" d="
M 71 1371.45
Q 70.65 1372.55 70.65 1379.75 70.65 1383.4 76.15 1392.1 79.3 1396.6 83.7 1397.8 85.55 1398.25 86.1 1399.2
L 87.05 1400.6
Q 89.25 1402.25 104.2 1402.25 120.1 1402.25 126.75 1389.9 130.45 1383.15 130.45 1375.5 130.45 1365.8 127.05 1358.55 124.3 1352.4 119.75 1350.25
L 113.4 1346.35
Q 108.45 1343.8 102.9 1343.8 89 1346.7 85.3 1349.9
L 79.3 1354.6
Q 75.7 1357.55 74.95 1359.75 72.45 1367.75 71 1371.45
M 74.95 1374.1
Q 74.95 1371.75 79.1 1360 84.65 1355.6 87.15 1353 89.3 1350.85 94.05 1350.05 98.55 1347.95 100.15 1347.95
L 107.5 1349.3 113.95 1352.65
Q 119.75 1355.5 122.7 1360.4 126.05 1365.6 126.05 1375.8 126.05 1384.95 121.25 1390.8 115.4 1397.9 104.1 1397.9
L 90.8 1397.15 88.9 1395.6 83.7 1393.1
Q 80.1 1391.3 78.45 1386.85 74.95 1382.65 74.95 1374.1
M 100.8 1371.25
Q 97.55 1371.25 97.55 1374.4 97.85 1377.35 100.6 1377.35 103.65 1377.35 103.65 1374.3
L 103.25 1372.85
Q 102.5 1371.25 100.8 1371.25
M 186.9 1343.6
L 185.7 1343.7
Q 176.3 1344.1 171.4 1346.55 167.15 1349.55 164.5 1351.1 158.8 1354.3 155.8 1360.5 155.1 1362.05 154.8 1370.6
L 154.6 1380.1
Q 154.6 1382.75 155.9 1385.35
L 159.6 1392
Q 160.5 1393.6 166.95 1397.8 172.45 1401.5 188 1401.5 200.45 1401.5 210.55 1385.9 213.5 1378.25 213.5 1368.4 213.5 1362.3 207.9 1354.85 198.55 1343.6 186.9 1343.6
M 185.85 1347.5
Q 188.45 1347.5 194.35 1350.05 201.4 1353.15 204.05 1356.9 209.35 1364.35 209.35 1368.15 209.35 1374.75 207.35 1383.35 206.5 1386.4 201.7 1391.2 195.25 1397.75 188.1 1397.75
L 178.6 1397.1
Q 177.5 1396.25 175.9 1395.8 171.95 1396.55 169.9 1394.6
L 167.05 1392.95
Q 163.8 1391.6 163 1389.5
L 161.15 1386
Q 158.6 1383.9 158.6 1372.1
L 158.6 1365.55
Q 158.6 1363.15 161.7 1358.8 163.15 1357 169.65 1352.35
L 175 1349.25 185.85 1347.5
M 183.85 1376.5
Q 186.7 1376.5 186.7 1373.55 186.7 1370.35 183.55 1370.35 180.45 1370.35 180.45 1373.3 180.45 1376.5 183.85 1376.5 Z"/>
</g>

<g id="Layer0_1_MEMBER_4_MEMBER_2_MEMBER_0_MEMBER_0_MEMBER_1_FILL">
<path fill="#FFFFFF" stroke="none" d="
M 79.1 1360
Q 74.95 1371.75 74.95 1374.1 74.95 1382.65 78.45 1386.85 80.1 1391.3 83.7 1393.1
L 88.9 1395.6 90.8 1397.15 104.1 1397.9
Q 115.4 1397.9 121.25 1390.8 126.05 1384.95 126.05 1375.8 126.05 1365.6 122.7 1360.4 119.75 1355.5 113.95 1352.65
L 107.5 1349.3 100.15 1347.95
Q 98.55 1347.95 94.05 1350.05 89.3 1350.85 87.15 1353 84.65 1355.6 79.1 1360
M 100.6 1377.35
Q 97.85 1377.35 97.55 1374.4 97.55 1371.25 100.8 1371.25 102.5 1371.25 103.25 1372.85
L 103.65 1374.3
Q 103.65 1377.35 100.6 1377.35
M 185.85 1347.5
L 175 1349.25 169.65 1352.35
Q 163.15 1357 161.7 1358.8 158.6 1363.15 158.6 1365.55
L 158.6 1372.1
Q 158.6 1383.9 161.15 1386
L 163 1389.5
Q 163.8 1391.6 167.05 1392.95
L 169.9 1394.6
Q 171.95 1396.55 175.9 1395.8 177.5 1396.25 178.6 1397.1
L 188.1 1397.75
Q 195.25 1397.75 201.7 1391.2 206.5 1386.4 207.35 1383.35 209.35 1374.75 209.35 1368.15 209.35 1364.35 204.05 1356.9 201.4 1353.15 194.35 1350.05 188.45 1347.5 185.85 1347.5
M 186.7 1373.55
Q 186.7 1376.5 183.85 1376.5 180.45 1376.5 180.45 1373.3 180.45 1370.35 183.55 1370.35 186.7 1370.35 186.7 1373.55 Z"/>
</g>

<g id="Layer0_1_MEMBER_4_MEMBER_3_MEMBER_0_MEMBER_0_MEMBER_0_FILL">
<path fill="#000000" stroke="none" d="
M 131.75 1325.7
Q 132.35 1325.7 136.75 1317.05 141.05 1308.4 145.85 1308.4 147.55 1308.4 149.1 1315.75 150.55 1323.05 151.3 1323.05
L 151.55 1322.95 151.55 1322.4 151.4 1321.75 151.55 1321.2 150.2 1313.75
Q 149.45 1307 146.05 1307 139.95 1307 136 1315.3 131.3 1323.95 131.3 1325.25
L 131.75 1325.7
M 61.15 1304.6
Q 69.15 1307.6 74.15 1309.95
L 83.65 1315.3
Q 89.1 1319.35 95.6 1326.65 101.45 1333.4 107.05 1337.8 112.25 1341.85 115.45 1343.35 118.7 1344.9 121.5 1345.35
L 129.8 1345.65
Q 135.55 1345.4 138.65 1343.5 141.8 1341.5 141.8 1340.4
L 141.35 1339.65 138 1342.05 136.25 1342.8 133.6 1343.35
Q 129.5 1343.5 123.45 1331.15
L 118.1 1318.6
Q 114.05 1310.7 109.9 1306.45 107 1303.55 100.6 1300.75 92.55 1297.4 84.55 1297.4
L 80.3 1297.7
Q 73 1298.9 69.5 1300.3 64.95 1302.1 61.15 1304.6
M 163.35 1310.4
L 163.65 1308.6 163 1307.95 159.15 1320
Q 154.8 1331 150.45 1331 148.45 1331 146.95 1326.35 145.35 1321.75 144 1321.75 142.7 1321.75 138.95 1328.5 135.1 1335.15 132.65 1335.15 127.75 1335.15 124.75 1321.5
L 121.9 1306.9 121.7 1306.9 121.45 1310.25
Q 123.8 1336.6 132.75 1336.6 135.8 1336.6 139.4 1330.25 143.3 1323.55 144.1 1323.35 145.05 1326.5 146.05 1328.5 147.75 1332.45 150.95 1332.45 158.15 1332.45 163.55 1310.95
L 163.35 1310.4
M 215.1 1300.3
L 204.2 1297.7 200.05 1297.4
Q 191.95 1297.4 183.95 1300.75 177.6 1303.5 174.6 1306.45 170.4 1310.8 166.5 1318.6
L 161.05 1331.15
Q 155.05 1343.5 151 1343.35
L 148.25 1342.8 146.6 1342.05 143.2 1339.65 142.8 1340.4
Q 142.7 1341.5 145.85 1343.5 148.95 1345.4 154.7 1345.65
L 163.1 1345.35
Q 165.75 1344.9 169.1 1343.35 172.35 1341.85 177.5 1337.8 183.2 1333.25 189 1326.65 195.5 1319.3 201 1315.3 203.95 1313.05 210.4 1309.95 215.05 1307.7 223.4 1304.6 219.45 1302.05 215.1 1300.3 Z"/>
</g>

<g id="Layer0_1_MEMBER_4_MEMBER_4_MEMBER_0_MEMBER_0_MEMBER_0_FILL">
<path fill="#000000" stroke="none" d="
M 107.95 1438.2
L 110.65 1438.65 125 1437.55 157.55 1437.55 170.1 1436.8
Q 173.8 1436.6 173.8 1435.6 173.8 1434.8 172.15 1434.8
L 157.55 1435.5 126.5 1435.5
Q 107.95 1436.7 107.95 1438.2
M 68.5 1433.15
Q 68.5 1434.15 71.65 1434.15
L 83.1 1433.3 172.7 1432.55 213.8 1431.55 218.05 1430.9 218.3 1429.45
Q 218.3 1427.2 200.15 1427.4 192.3 1428.3 86.3 1429.6
L 74.95 1430.65
Q 68.5 1431.8 68.5 1433.15 Z"/>
</g>

<g id="Layer0_2_MEMBER_0_MEMBER_0_MEMBER_0_MEMBER_0_MEMBER_0_FILL">
<path fill="#333333" stroke="none" d="
M 393.5 1530.75
L 389.8 1530.75 388.15 1589.75 423 1589.85
Q 420.7 1578.45 409.35 1576.2 402.15 1574.9 395.5 1577.8
L 393.5 1530.75 Z"/>
</g>

<g id="Layer0_2_MEMBER_1_MEMBER_0_MEMBER_0_MEMBER_0_MEMBER_0_FILL">
<path fill="#333333" stroke="none" d="
M 348.85 1530.75
L 345.15 1530.75 343.15 1577.8
Q 336.5 1574.9 329.3 1576.2 318 1578.45 315.65 1589.85
L 350.5 1589.75 348.85 1530.75 Z"/>
</g>

<g id="Layer0_2_MEMBER_2_MEMBER_0_MEMBER_0_MEMBER_0_MEMBER_0_MEMBER_0_FILL">
<path fill="#333333" stroke="none" d="
M 298.8 1472.05
L 295.1 1471.85 291 1518.25
Q 288.55 1518.85 286.45 1520.7 283.05 1523.7 282.8 1528.35 282.5 1532.85 285.55 1536.3 288.6 1539.75 293.2 1539.95 297.75 1540.25 301.2 1537.2 304.65 1534.1 304.85 1529.55 305.1 1524.9 302.05 1521.55 300.25 1519.5 297.8 1518.55
L 298.8 1472.05 Z"/>
</g>

<g id="Layer0_2_MEMBER_3_MEMBER_0_MEMBER_0_MEMBER_0_MEMBER_0_MEMBER_0_FILL">
<path fill="#333333" stroke="none" d="
M 443.55 1471.85
L 439.85 1472.05 440.75 1518.65
Q 438.25 1519.6 436.5 1521.55 433.5 1524.85 433.7 1529.55 433.95 1534.15 437.35 1537.2 440.75 1540.25 445.3 1540 450 1539.7 452.95 1536.35 456.05 1532.95 455.75 1528.35 455.55 1523.8 452.15 1520.7 450.1 1518.9 447.55 1518.2
L 443.55 1471.85 Z"/>
</g>

<g id="Layer0_2_MEMBER_4_MEMBER_0_MEMBER_0_MEMBER_0_MEMBER_0_FILL">
<path fill="#DF0000" stroke="none" d="
M 395.95 1252.5
Q 476.65 1394.85 368.3 1550.95 551 1408.6 395.95 1252.5 Z"/>
</g>

<g id="Layer0_2_MEMBER_4_MEMBER_0_MEMBER_0_MEMBER_0_MEMBER_1_FILL">
<path fill="#FF0000" stroke="none" d="
M 395.95 1252.5
Q 383.4 1239.85 368.3 1226.9 172.75 1388.6 368.3 1550.95 476.65 1394.85 395.95 1252.5 Z"/>
</g>

<g id="Layer0_2_MEMBER_4_MEMBER_1_MEMBER_0_MEMBER_0_MEMBER_0_FILL">
<path fill="#000000" stroke="none" d="
M 292.35 1353.45
L 291.6 1353.4
Q 288.95 1354.1 288.95 1362.4 288.95 1366.5 289.7 1371.65
L 289.85 1373.2
Q 291 1380.4 292.45 1383.7 294.15 1389.6 296.85 1393.3
L 298.35 1395.05 293.85 1391.9
Q 292.4 1390.75 290.8 1387.7
L 289.95 1385.45 289.2 1376.45
Q 287.45 1380.1 287.45 1382.25 287.45 1404.1 308.2 1404.1 328.95 1404.1 337.05 1401.4 345.1 1398.6 347.95 1396.15 350.65 1393.7 351.65 1391.75
L 352.35 1389.9 351.25 1390.65 335.2 1394.3 334.2 1394.05
Q 333 1394.05 324.45 1397
L 317.6 1398.2
Q 318.05 1397.45 318.05 1396.45 318.05 1395.25 317.6 1394.95
L 317.35 1397.35
Q 316.75 1398.55 312.8 1398.55
L 312.8 1398.65 311.35 1398.65 303.15 1396.45
Q 300.55 1395.05 298.45 1392.2 295.9 1388.45 294 1382.8 291.25 1374.1 290.8 1365.9
L 290.6 1361.95
Q 290.6 1354.95 292.35 1353.45
M 436.55 1406.85
Q 436.6 1404.95 435.5 1405.1 434.45 1405.25 432.1 1408.6 429.7 1411.9 418.2 1411 406.6 1410.1 389.6 1399.65 389.55 1404.45 399.1 1410 409.1 1415.7 419.55 1416 428.4 1416.15 433.05 1412.85 436.4 1410.15 436.55 1406.85
M 449.15 1368.6
Q 449.6 1366.25 449.25 1358.55 448.9 1350.85 448.4 1353.75 447.85 1357.05 447.85 1363.35
L 447.6 1370.25 445.4 1381.15
Q 443.95 1387.3 438.1 1392.65 432.15 1398.2 425.4 1398.65
L 414.7 1397 404.9 1394.05 403.9 1394.3 396.15 1392.75
Q 389.95 1390.8 387.85 1390.65
L 386.75 1389.9 387.5 1391.75
Q 388.4 1393.7 391.2 1396.15 394.05 1398.65 402.15 1401.4 410.2 1404.1 430.9 1404.1 451.65 1404.1 451.65 1382.25 451.65 1380.1 449.9 1376.45
L 449.15 1385.45 448.35 1387.7
Q 446.8 1390.65 445.3 1391.9
L 437.8 1396.7
Q 435.9 1397.55 432.65 1398.2
L 436 1396.25
Q 442.3 1392.1 445.2 1385.75 448.95 1377.6 449.15 1368.6
M 299.65 1405.95
L 298.35 1406.2
Q 304.45 1418.4 318.25 1418.4 328.1 1418.4 337.05 1411.55 345.2 1405.4 346.75 1399.1
L 335.15 1407.6
Q 325.6 1413.95 316.85 1413.95 311.6 1413.95 306 1410
L 299.65 1405.95 Z"/>
</g>

<g id="Layer0_2_MEMBER_4_MEMBER_1_MEMBER_0_MEMBER_0_MEMBER_1_FILL">
<path fill="#000000" fill-opacity="0.4980392156862745" stroke="none" d="
M 311.35 1342.8
Q 295.05 1349.05 290.8 1365.9 291.25 1374.1 294 1382.8 295.9 1388.45 298.45 1392.2 300.55 1395.05 303.15 1396.45
L 311.35 1398.65 312.8 1398.65 312.8 1398.55
Q 316.75 1398.55 317.35 1397.35
L 317.6 1394.95
Q 318.05 1395.25 318.05 1396.45 318.05 1397.45 317.6 1398.2
L 324.45 1397
Q 333 1394.05 334.2 1394.05
L 335.2 1394.3 351.25 1390.65 352.35 1389.9
Q 320.55 1370.55 344.55 1349.15 338.4 1342.75 329.15 1341.05 320.15 1339.35 311.35 1342.8
M 449.15 1385.45
L 449.9 1376.45 449.15 1368.6
Q 448.95 1377.6 445.2 1385.75 442.3 1392.1 436 1396.25
L 432.65 1398.2
Q 435.9 1397.55 437.8 1396.7
L 445.3 1391.9
Q 446.8 1390.65 448.35 1387.7
L 449.15 1385.45
M 443.8 1354.2
Q 438.4 1345.35 429.55 1341.3 420.8 1337.35 411.45 1339.3 401.6 1341.35 393.75 1349.4 399.1 1374.35 386.75 1389.9
L 387.85 1390.65
Q 389.95 1390.8 396.15 1392.75
L 403.9 1394.3 404.9 1394.05 414.7 1397 425.4 1398.65
Q 432.15 1398.2 438.1 1392.65 443.95 1387.3 445.4 1381.15
L 447.6 1370.25 447.85 1363.35
Q 446.45 1358.5 443.8 1354.2
M 289.85 1373.2
L 289.7 1371.65 289.2 1376.45 289.95 1385.45 290.8 1387.7
Q 292.4 1390.75 293.85 1391.9
L 298.35 1395.05 296.85 1393.3
Q 294.15 1389.6 292.45 1383.7 291 1380.4 289.85 1373.2 Z"/>
</g>

<g id="Layer0_2_MEMBER_4_MEMBER_2_MEMBER_0_MEMBER_0_MEMBER_0_FILL">
<path fill="#000000" stroke="none" d="
M 398.1 1346.55
Q 393.85 1349.55 391.2 1351.1 385.5 1354.3 382.5 1360.5 381.8 1362.05 381.5 1370.6
L 381.3 1380.1
Q 381.3 1382.75 382.6 1385.35
L 386.3 1392
Q 387.2 1393.6 393.65 1397.8 399.15 1401.5 414.7 1401.5 427.15 1401.5 437.25 1385.9 440.2 1378.25 440.2 1368.4 440.2 1362.3 434.6 1354.85 425.25 1343.6 413.6 1343.6
L 412.4 1343.7
Q 403 1344.1 398.1 1346.55
M 396.35 1352.35
L 401.7 1349.25 412.55 1347.5
Q 415.15 1347.5 421.05 1350.05 428.15 1353.2 430.7 1356.9 436.05 1364.35 436.05 1368.15 436.05 1374.75 434.05 1383.35 433.2 1386.4 428.4 1391.2 421.95 1397.75 414.8 1397.75
L 405.3 1397.1
Q 404.2 1396.25 402.6 1395.8 398.65 1396.55 396.6 1394.6
L 393.75 1392.95
Q 390.5 1391.6 389.7 1389.5
L 387.85 1386
Q 385.3 1383.9 385.3 1372.1
L 385.3 1365.55
Q 385.3 1363.15 388.4 1358.8 389.85 1357 396.35 1352.35
M 407.1 1373.3
Q 407.1 1376.5 410.55 1376.5 413.4 1376.5 413.4 1373.55 413.4 1370.35 410.25 1370.35 407.1 1370.35 407.1 1373.3
M 312 1349.9
L 306 1354.6
Q 302.4 1357.55 301.65 1359.75 299.15 1367.75 297.7 1371.45 297.35 1372.55 297.35 1379.75 297.35 1383.4 302.85 1392.1 306 1396.6 310.4 1397.8 312.25 1398.25 312.8 1399.2
L 313.75 1400.6
Q 315.95 1402.25 330.9 1402.25 346.8 1402.25 353.45 1389.9 357.15 1383.15 357.15 1375.5 357.15 1365.8 353.75 1358.55 351 1352.4 346.45 1350.25
L 340.1 1346.35
Q 335.15 1343.8 329.6 1343.8 315.7 1346.7 312 1349.9
M 305.8 1360
Q 311.35 1355.6 313.85 1353 316 1350.85 320.75 1350.05 325.25 1347.95 326.85 1347.95
L 334.2 1349.3 340.65 1352.65
Q 346.45 1355.5 349.4 1360.4 352.75 1365.6 352.75 1375.8 352.75 1384.95 347.95 1390.8 342.1 1397.9 330.8 1397.9
L 317.5 1397.15 315.6 1395.6 310.4 1393.1
Q 306.8 1391.3 305.15 1386.85 301.65 1382.65 301.65 1374.1 301.65 1371.75 305.8 1360
M 329.95 1372.85
Q 329.2 1371.25 327.45 1371.25 324.25 1371.25 324.25 1374.4 324.55 1377.35 327.3 1377.35 330.35 1377.35 330.35 1374.3
L 329.95 1372.85 Z"/>
</g>

<g id="Layer0_2_MEMBER_4_MEMBER_2_MEMBER_0_MEMBER_0_MEMBER_1_FILL">
<path fill="#FFFFFF" stroke="none" d="
M 385.3 1365.55
L 385.3 1372.1
Q 385.3 1383.9 387.85 1386
L 389.7 1389.5
Q 390.5 1391.6 393.75 1392.95
L 396.6 1394.6
Q 398.65 1396.55 402.6 1395.8 404.2 1396.25 405.3 1397.1
L 414.8 1397.75
Q 421.95 1397.75 428.4 1391.2 433.2 1386.4 434.05 1383.35 436.05 1374.75 436.05 1368.15 436.05 1364.35 430.7 1356.9 428.15 1353.2 421.05 1350.05 415.15 1347.5 412.55 1347.5
L 401.7 1349.25 396.35 1352.35
Q 389.85 1357 388.4 1358.8 385.3 1363.15 385.3 1365.55
M 413.4 1373.55
Q 413.4 1376.5 410.55 1376.5 407.1 1376.5 407.1 1373.3 407.1 1370.35 410.25 1370.35 413.4 1370.35 413.4 1373.55
M 305.8 1360
Q 301.65 1371.75 301.65 1374.1 301.65 1382.65 305.15 1386.85 306.8 1391.3 310.4 1393.1
L 315.6 1395.6 317.5 1397.15 330.8 1397.9
Q 342.1 1397.9 347.95 1390.8 352.75 1384.95 352.75 1375.8 352.75 1365.6 349.4 1360.4 346.45 1355.5 340.65 1352.65
L 334.2 1349.3 326.85 1347.95
Q 325.25 1347.95 320.75 1350.05 316 1350.85 313.85 1353 311.35 1355.6 305.8 1360
M 327.45 1371.25
Q 329.2 1371.25 329.95 1372.85
L 330.35 1374.3
Q 330.35 1377.35 327.3 1377.35 324.55 1377.35 324.25 1374.4 324.25 1371.25 327.45 1371.25 Z"/>
</g>

<g id="Layer0_2_MEMBER_4_MEMBER_3_MEMBER_0_MEMBER_0_MEMBER_0_FILL">
<path fill="#000000" stroke="none" d="
M 393.2 1318.6
L 387.75 1331.15
Q 381.75 1343.5 377.7 1343.35
L 374.95 1342.8 373.3 1342.05 369.9 1339.65 369.5 1340.4
Q 369.4 1341.5 372.55 1343.5 375.65 1345.4 381.4 1345.65
L 389.8 1345.35
Q 392.45 1344.9 395.8 1343.35 399.1 1341.8 404.15 1337.8 409.85 1333.3 415.7 1326.65 422.2 1319.3 427.7 1315.3 430.65 1313.05 437.1 1309.95 441.75 1307.7 450.1 1304.6 446.15 1302.05 441.8 1300.3
L 430.9 1297.7 426.75 1297.4
Q 418.65 1297.4 410.65 1300.75 404.3 1303.5 401.3 1306.45 397.1 1310.8 393.2 1318.6
M 378.25 1321.2
L 376.9 1313.75
Q 376.15 1307 372.75 1307 366.65 1307 362.7 1315.3 358 1323.95 358 1325.25
L 358.45 1325.7
Q 359.05 1325.7 363.45 1317.05 367.75 1308.4 372.55 1308.4 374.25 1308.4 375.8 1315.75 377.25 1323.05 378 1323.05
L 378.25 1322.95 378.25 1322.4 378.1 1321.75 378.25 1321.2
M 390.05 1310.4
L 390.35 1308.6 389.7 1307.95 385.85 1320
Q 381.5 1331 377.15 1331 375.15 1331 373.65 1326.35 372.05 1321.75 370.7 1321.75 369.4 1321.75 365.65 1328.5 361.8 1335.15 359.35 1335.15 354.45 1335.15 351.45 1321.5
L 348.6 1306.9 348.4 1306.9 348.1 1310.25
Q 350.5 1336.6 359.45 1336.6 362.5 1336.6 366.1 1330.25 370 1323.55 370.8 1323.35 371.75 1326.5 372.75 1328.5 374.45 1332.45 377.6 1332.45 384.85 1332.45 390.25 1310.95
L 390.05 1310.4
M 310.35 1315.3
Q 315.8 1319.35 322.3 1326.65 328.15 1333.4 333.75 1337.8 338.95 1341.85 342.15 1343.35 345.4 1344.9 348.2 1345.35
L 356.5 1345.65
Q 362.25 1345.4 365.35 1343.5 368.5 1341.5 368.5 1340.4
L 368.05 1339.65 364.7 1342.05 362.95 1342.8 360.3 1343.35
Q 356.2 1343.5 350.15 1331.15
L 344.8 1318.6
Q 340.75 1310.7 336.6 1306.45 333.7 1303.55 327.3 1300.75 319.25 1297.4 311.25 1297.4
L 307 1297.7
Q 299.7 1298.9 296.2 1300.3 291.65 1302.1 287.85 1304.6 295.85 1307.6 300.85 1309.95
L 310.35 1315.3 Z"/>
</g>

<g id="Layer0_2_MEMBER_4_MEMBER_4_MEMBER_0_MEMBER_0_MEMBER_0_FILL">
<path fill="#000000" stroke="none" d="
M 337.35 1438.65
L 351.7 1437.55 384.25 1437.55 396.8 1436.8
Q 400.5 1436.6 400.5 1435.6 400.5 1434.8 398.85 1434.8
L 384.25 1435.5 353.2 1435.5
Q 334.65 1436.7 334.65 1438.2
L 337.35 1438.65
M 298.35 1434.15
L 309.75 1433.3 399.4 1432.55 440.5 1431.55 444.75 1430.9 445 1429.45
Q 445 1427.2 426.85 1427.4 419 1428.3 313 1429.6
L 301.65 1430.65
Q 295.2 1431.8 295.2 1433.15 295.2 1434.15 298.35 1434.15 Z"/>
</g>

<g id="Layer0_3_MEMBER_0_MEMBER_0_MEMBER_0_MEMBER_0_MEMBER_0_FILL">
<path fill="#333333" stroke="none" d="
M 620.2 1530.75
L 616.5 1530.75 614.85 1589.75 649.7 1589.85
Q 647.4 1578.45 636.05 1576.2 628.85 1574.9 622.2 1577.8
L 620.2 1530.75 Z"/>
</g>

<g id="Layer0_3_MEMBER_1_MEMBER_0_MEMBER_0_MEMBER_0_MEMBER_0_FILL">
<path fill="#333333" stroke="none" d="
M 575.55 1530.75
L 571.85 1530.75 569.85 1577.8
Q 563.2 1574.9 556 1576.2 544.7 1578.45 542.35 1589.85
L 577.2 1589.75 575.55 1530.75 Z"/>
</g>

<g id="Layer0_3_MEMBER_2_MEMBER_0_MEMBER_0_MEMBER_0_MEMBER_0_MEMBER_0_FILL">
<path fill="#333333" stroke="none" d="
M 525.5 1472.05
L 521.8 1471.85 517.7 1518.25
Q 515.25 1518.85 513.15 1520.7 509.75 1523.7 509.5 1528.35 509.2 1532.85 512.25 1536.3 515.3 1539.75 519.9 1539.95 524.45 1540.25 527.9 1537.2 531.35 1534.1 531.55 1529.55 531.8 1524.9 528.75 1521.55 526.95 1519.5 524.5 1518.55
L 525.5 1472.05 Z"/>
</g>

<g id="Layer0_3_MEMBER_3_MEMBER_0_MEMBER_0_MEMBER_0_MEMBER_0_MEMBER_0_FILL">
<path fill="#333333" stroke="none" d="
M 670.25 1471.85
L 666.55 1472.05 667.45 1518.65
Q 664.95 1519.6 663.2 1521.55 660.2 1524.85 660.4 1529.55 660.65 1534.15 664.05 1537.2 667.45 1540.25 672 1540 676.7 1539.7 679.65 1536.35 682.75 1532.95 682.45 1528.35 682.25 1523.8 678.85 1520.7 676.8 1518.9 674.25 1518.2
L 670.25 1471.85 Z"/>
</g>

<g id="Layer0_3_MEMBER_4_MEMBER_0_MEMBER_0_MEMBER_0_MEMBER_0_FILL">
<path fill="#DF0000" stroke="none" d="
M 595 1550.95
Q 777.7 1408.6 622.65 1252.5 703.35 1394.85 595 1550.95 Z"/>
</g>

<g id="Layer0_3_MEMBER_4_MEMBER_0_MEMBER_0_MEMBER_0_MEMBER_1_FILL">
<path fill="#FF0000" stroke="none" d="
M 622.65 1252.5
Q 610.1 1239.85 595 1226.9 399.45 1388.6 595 1550.95 703.35 1394.85 622.65 1252.5 Z"/>
</g>

<g id="Layer0_3_MEMBER_4_MEMBER_1_MEMBER_0_MEMBER_0_MEMBER_0_FILL">
<path fill="#000000" stroke="none" d="
M 519.05 1353.45
L 518.3 1353.4
Q 515.65 1354.1 515.65 1362.4 515.65 1366.5 516.4 1371.65
L 516.55 1373.2
Q 517.7 1380.4 519.15 1383.7 520.85 1389.6 523.55 1393.3
L 525.05 1395.05 520.55 1391.9
Q 519.1 1390.75 517.5 1387.7
L 516.65 1385.45 515.9 1376.45
Q 514.15 1380.1 514.15 1382.25 514.15 1404.1 534.9 1404.1 555.65 1404.1 563.75 1401.4 571.8 1398.6 574.65 1396.15 577.5 1393.6 578.35 1391.75
L 579.05 1389.9 577.95 1390.65 561.9 1394.3 560.9 1394.05
Q 559.7 1394.05 551.15 1397
L 544.3 1398.2
Q 544.75 1397.45 544.75 1396.45 544.75 1395.25 544.3 1394.95
L 544.05 1397.35
Q 543.45 1398.55 539.5 1398.55
L 539.5 1398.65 538.05 1398.65 529.85 1396.45
Q 527.25 1395.05 525.15 1392.2 522.6 1388.45 520.7 1382.8 517.95 1374.1 517.5 1365.9
L 517.3 1361.95
Q 517.3 1354.95 519.05 1353.45
M 544.95 1418.4
Q 554.8 1418.4 563.75 1411.55 571.9 1405.4 573.45 1399.1
L 561.85 1407.6
Q 552.3 1413.95 543.55 1413.95 538.3 1413.95 532.7 1410
L 526.35 1405.95 525.05 1406.2
Q 531.15 1418.4 544.95 1418.4
M 616.3 1399.65
Q 616.25 1404.45 625.8 1410 635.8 1415.7 646.25 1416 655.1 1416.15 659.75 1412.85 663.1 1410.15 663.25 1406.85 663.3 1404.95 662.2 1405.1 661.15 1405.25 658.8 1408.6 656.4 1411.9 644.9 1411 633.3 1410.1 616.3 1399.65
M 641.4 1397
L 631.6 1394.05 630.6 1394.3 622.85 1392.75
Q 616.65 1390.8 614.55 1390.65
L 613.45 1389.9 614.2 1391.75
Q 615.1 1393.7 617.9 1396.15 620.75 1398.65 628.85 1401.4 636.9 1404.1 657.6 1404.1 678.35 1404.1 678.35 1382.25 678.35 1380.1 676.6 1376.45
L 675.85 1385.45 675.05 1387.7
Q 673.5 1390.65 672 1391.9
L 664.5 1396.7
Q 662.6 1397.55 659.35 1398.2
L 662.7 1396.25
Q 669 1392.1 671.9 1385.75 675.65 1377.6 675.85 1368.6 676.3 1366.25 675.95 1358.55 675.6 1350.75 675.15 1353.75 674.55 1356.9 674.55 1363.35
L 674.3 1370.25 672.1 1381.15
Q 670.65 1387.3 664.8 1392.65 658.85 1398.2 652.1 1398.65
L 641.4 1397 Z"/>
</g>

<g id="Layer0_3_MEMBER_4_MEMBER_1_MEMBER_0_MEMBER_0_MEMBER_1_FILL">
<path fill="#000000" fill-opacity="0.4980392156862745" stroke="none" d="
M 517.5 1365.9
Q 517.95 1374.1 520.7 1382.8 522.6 1388.45 525.15 1392.2 527.25 1395.05 529.85 1396.45
L 538.05 1398.65 539.5 1398.65 539.5 1398.55
Q 543.45 1398.55 544.05 1397.35
L 544.3 1394.95
Q 544.75 1395.25 544.75 1396.45 544.75 1397.45 544.3 1398.2
L 551.15 1397
Q 559.7 1394.05 560.9 1394.05
L 561.9 1394.3 577.95 1390.65 579.05 1389.9
Q 547.25 1370.55 571.25 1349.15 565.1 1342.75 555.85 1341.05 546.85 1339.35 538.05 1342.8 521.75 1349.05 517.5 1365.9
M 675.85 1385.45
L 676.6 1376.45 675.85 1368.6
Q 675.65 1377.6 671.9 1385.75 669 1392.1 662.7 1396.25
L 659.35 1398.2
Q 662.6 1397.55 664.5 1396.7
L 672 1391.9
Q 673.5 1390.65 675.05 1387.7
L 675.85 1385.45
M 638.15 1339.3
Q 628.3 1341.35 620.45 1349.4 625.8 1374.35 613.45 1389.9
L 614.55 1390.65
Q 616.65 1390.8 622.85 1392.75
L 630.6 1394.3 631.6 1394.05 641.4 1397 652.1 1398.65
Q 658.85 1398.2 664.8 1392.65 670.65 1387.3 672.1 1381.15
L 674.3 1370.25 674.55 1363.35
Q 673.15 1358.5 670.5 1354.2 665.1 1345.35 656.25 1341.3 647.5 1337.35 638.15 1339.3
M 516.55 1373.2
L 516.4 1371.65 515.9 1376.45 516.65 1385.45 517.5 1387.7
Q 519.1 1390.75 520.55 1391.9
L 525.05 1395.05 523.55 1393.3
Q 520.85 1389.6 519.15 1383.7 517.7 1380.4 516.55 1373.2 Z"/>
</g>

<g id="Layer0_3_MEMBER_4_MEMBER_2_MEMBER_0_MEMBER_0_MEMBER_0_FILL">
<path fill="#000000" stroke="none" d="
M 640.3 1343.6
L 639.1 1343.7
Q 629.7 1344.1 624.8 1346.55 620.55 1349.55 617.9 1351.1 612.2 1354.3 609.2 1360.5 608.5 1362.05 608.2 1370.6
L 608 1380.1
Q 608 1382.75 609.3 1385.35
L 613 1392
Q 613.9 1393.6 620.35 1397.8 625.85 1401.5 641.4 1401.5 653.85 1401.5 663.95 1385.9 666.9 1378.25 666.9 1368.4 666.9 1362.3 661.3 1354.85 651.95 1343.6 640.3 1343.6
M 628.4 1349.25
L 639.25 1347.5
Q 641.85 1347.5 647.75 1350.05 654.85 1353.2 657.4 1356.9 662.75 1364.35 662.75 1368.15 662.75 1374.75 660.75 1383.35 659.9 1386.4 655.1 1391.2 648.65 1397.75 641.5 1397.75
L 632 1397.1
Q 630.9 1396.25 629.3 1395.8 625.35 1396.55 623.3 1394.6
L 620.45 1392.95
Q 617.2 1391.6 616.4 1389.5
L 614.55 1386
Q 612 1383.9 612 1372.1
L 612 1365.55
Q 612 1363.15 615.1 1358.8 616.55 1357 623.05 1352.35
L 628.4 1349.25
M 633.8 1373.3
Q 633.8 1376.5 637.25 1376.5 640.1 1376.5 640.1 1373.55 640.1 1370.35 636.95 1370.35 633.8 1370.35 633.8 1373.3
M 524.4 1371.45
Q 524.05 1372.55 524.05 1379.75 524.05 1383.4 529.55 1392.1 532.7 1396.6 537.1 1397.8 538.95 1398.25 539.5 1399.2
L 540.45 1400.6
Q 542.65 1402.25 557.6 1402.25 573.5 1402.25 580.15 1389.9 583.85 1383.15 583.85 1375.5 583.85 1365.8 580.45 1358.55 577.7 1352.4 573.15 1350.25
L 566.8 1346.35
Q 561.85 1343.8 556.3 1343.8 542.4 1346.7 538.7 1349.9
L 532.7 1354.6
Q 529.1 1357.55 528.35 1359.75 525.85 1367.75 524.4 1371.45
M 547.45 1350.05
Q 551.95 1347.95 553.55 1347.95
L 560.9 1349.3 567.35 1352.65
Q 573.15 1355.5 576.1 1360.4 579.45 1365.6 579.45 1375.8 579.45 1384.95 574.65 1390.8 568.8 1397.9 557.5 1397.9
L 544.2 1397.15 542.3 1395.6 537.1 1393.1
Q 533.5 1391.3 531.85 1386.85 528.35 1382.65 528.35 1374.1 528.35 1371.75 532.5 1360 538.05 1355.6 540.55 1353 542.7 1350.85 547.45 1350.05
M 556.65 1372.85
Q 555.9 1371.25 554.2 1371.25 550.95 1371.25 550.95 1374.4 551.25 1377.35 554 1377.35 557.05 1377.35 557.05 1374.3
L 556.65 1372.85 Z"/>
</g>

<g id="Layer0_3_MEMBER_4_MEMBER_2_MEMBER_0_MEMBER_0_MEMBER_1_FILL">
<path fill="#FFFFFF" stroke="none" d="
M 647.75 1350.05
Q 641.85 1347.5 639.25 1347.5
L 628.4 1349.25 623.05 1352.35
Q 616.55 1357 615.1 1358.8 612 1363.15 612 1365.55
L 612 1372.1
Q 612 1383.9 614.55 1386
L 616.4 1389.5
Q 617.2 1391.6 620.45 1392.95
L 623.3 1394.6
Q 625.35 1396.55 629.3 1395.8 630.9 1396.25 632 1397.1
L 641.5 1397.75
Q 648.65 1397.75 655.1 1391.2 659.9 1386.4 660.75 1383.35 662.75 1374.75 662.75 1368.15 662.75 1364.35 657.4 1356.9 654.85 1353.2 647.75 1350.05
M 637.25 1376.5
Q 633.8 1376.5 633.8 1373.3 633.8 1370.35 636.95 1370.35 640.1 1370.35 640.1 1373.55 640.1 1376.5 637.25 1376.5
M 553.55 1347.95
Q 551.95 1347.95 547.45 1350.05 542.7 1350.85 540.55 1353 538.05 1355.6 532.5 1360 528.35 1371.75 528.35 1374.1 528.35 1382.65 531.85 1386.85 533.5 1391.3 537.1 1393.1
L 542.3 1395.6 544.2 1397.15 557.5 1397.9
Q 568.8 1397.9 574.65 1390.8 579.45 1384.95 579.45 1375.8 579.45 1365.6 576.1 1360.4 573.15 1355.5 567.35 1352.65
L 560.9 1349.3 553.55 1347.95
M 554.2 1371.25
Q 555.9 1371.25 556.65 1372.85
L 557.05 1374.3
Q 557.05 1377.35 554 1377.35 551.25 1377.35 550.95 1374.4 550.95 1371.25 554.2 1371.25 Z"/>
</g>

<g id="Layer0_3_MEMBER_4_MEMBER_3_MEMBER_0_MEMBER_0_MEMBER_0_FILL">
<path fill="#000000" stroke="none" d="
M 584.7 1325.25
L 585.15 1325.7
Q 585.75 1325.7 590.15 1317.05 594.45 1308.4 599.25 1308.4 600.95 1308.4 602.5 1315.75 603.95 1323.05 604.7 1323.05
L 604.95 1322.95 604.95 1322.4 604.8 1321.75 604.95 1321.2 603.6 1313.75
Q 602.85 1307 599.45 1307 593.35 1307 589.4 1315.3 584.7 1323.95 584.7 1325.25
M 619.9 1318.6
L 614.45 1331.15
Q 608.45 1343.5 604.4 1343.35
L 601.65 1342.8 600 1342.05 596.6 1339.65 596.2 1340.4
Q 596.1 1341.5 599.25 1343.5 602.35 1345.4 608.1 1345.65
L 616.5 1345.35
Q 619.15 1344.9 622.5 1343.35 625.75 1341.85 630.9 1337.8 636.6 1333.25 642.4 1326.65 648.9 1319.3 654.4 1315.3 657.35 1313.05 663.8 1309.95 668.45 1307.7 676.8 1304.6 672.85 1302.05 668.5 1300.3
L 657.6 1297.7 653.45 1297.4
Q 645.35 1297.4 637.35 1300.75 631 1303.5 628 1306.45 623.8 1310.8 619.9 1318.6
M 616.75 1310.4
L 617.05 1308.6 616.4 1307.95 612.55 1320
Q 608.2 1331 603.85 1331 601.85 1331 600.35 1326.35 598.75 1321.75 597.4 1321.75 596.1 1321.75 592.35 1328.5 588.5 1335.15 586.05 1335.15 581.15 1335.15 578.15 1321.5
L 575.3 1306.9 575.1 1306.9 574.85 1310.25
Q 577.2 1336.6 586.15 1336.6 589.2 1336.6 592.8 1330.25 596.7 1323.55 597.5 1323.35 598.45 1326.5 599.45 1328.5 601.15 1332.45 604.35 1332.45 611.55 1332.45 616.95 1310.95
L 616.75 1310.4
M 537.05 1315.3
Q 542.5 1319.35 549 1326.65 554.85 1333.4 560.45 1337.8 565.65 1341.85 568.85 1343.35 572.1 1344.9 574.9 1345.35
L 583.2 1345.65
Q 588.95 1345.4 592.05 1343.5 595.2 1341.5 595.2 1340.4
L 594.75 1339.65 591.4 1342.05 589.65 1342.8 587 1343.35
Q 582.9 1343.5 576.85 1331.15
L 571.5 1318.6
Q 567.45 1310.7 563.3 1306.45 560.4 1303.55 554 1300.75 545.95 1297.4 537.95 1297.4
L 533.7 1297.7
Q 526.4 1298.9 522.9 1300.3 518.35 1302.1 514.55 1304.6 522.55 1307.6 527.55 1309.95
L 537.05 1315.3 Z"/>
</g>

<g id="Layer0_3_MEMBER_5_MEMBER_0_MEMBER_0_MEMBER_0_MEMBER_0_FILL">
<path fill="#F47171" stroke="none" d="
M 644.35 1471.1
L 644.7 1470.75 642.75 1468.6
Q 633 1458.85 619.05 1458.85 605.15 1458.85 595.3 1468.6 587.65 1476.25 586 1486.4 594.8 1488.9 604.15 1488.9 629.2 1488.9 644.35 1471.1 Z"/>
</g>

<g id="Layer0_3_MEMBER_5_MEMBER_0_MEMBER_0_MEMBER_0_MEMBER_1_FILL">
<path fill="#8C0003" stroke="none" d="
M 619.05 1458.85
Q 633 1458.85 642.75 1468.6
L 644.7 1470.75
Q 659.45 1453.15 655.85 1428.35
L 655.6 1426.85 534.55 1426.85 534.8 1428.35
Q 538.4 1453.45 558.7 1471.1 571.4 1482.3 586 1486.4 587.65 1476.25 595.3 1468.6 605.15 1458.85 619.05 1458.85 Z"/>
</g>

<g id="Layer0_4_MEMBER_0_MEMBER_0_MEMBER_0_MEMBER_0_MEMBER_0_FILL">
<path fill="#333333" stroke="none" d="
M 846.95 1530.75
L 843.25 1530.75 841.6 1589.75 876.45 1589.85
Q 874.15 1578.45 862.8 1576.2 855.6 1574.9 848.95 1577.8
L 846.95 1530.75 Z"/>
</g>

<g id="Layer0_4_MEMBER_1_MEMBER_0_MEMBER_0_MEMBER_0_MEMBER_0_FILL">
<path fill="#333333" stroke="none" d="
M 802.3 1530.75
L 798.6 1530.75 796.6 1577.8
Q 789.95 1574.9 782.75 1576.2 771.45 1578.45 769.1 1589.85
L 803.95 1589.75 802.3 1530.75 Z"/>
</g>

<g id="Layer0_4_MEMBER_2_MEMBER_0_MEMBER_0_MEMBER_0_MEMBER_0_MEMBER_0_FILL">
<path fill="#333333" stroke="none" d="
M 752.25 1472.05
L 748.55 1471.85 744.45 1518.25
Q 742 1518.85 739.9 1520.7 736.5 1523.7 736.25 1528.35 735.95 1532.85 739 1536.3 742.05 1539.75 746.65 1539.95 751.2 1540.25 754.65 1537.2 758.1 1534.1 758.3 1529.55 758.55 1524.9 755.5 1521.55 753.7 1519.5 751.25 1518.55
L 752.25 1472.05 Z"/>
</g>

<g id="Layer0_4_MEMBER_3_MEMBER_0_MEMBER_0_MEMBER_0_MEMBER_0_MEMBER_0_FILL">
<path fill="#333333" stroke="none" d="
M 897 1471.85
L 893.3 1472.05 894.2 1518.65
Q 891.7 1519.6 889.95 1521.55 886.95 1524.85 887.15 1529.55 887.4 1534.15 890.8 1537.2 894.2 1540.25 898.75 1540 903.45 1539.7 906.4 1536.35 909.5 1532.95 909.2 1528.35 909 1523.8 905.6 1520.7 903.55 1518.9 901 1518.2
L 897 1471.85 Z"/>
</g>

<g id="Layer0_4_MEMBER_4_MEMBER_0_MEMBER_0_MEMBER_0_MEMBER_0_FILL">
<path fill="#DF0000" stroke="none" d="
M 849.4 1252.5
Q 930.1 1394.85 821.75 1550.95 1004.45 1408.6 849.4 1252.5 Z"/>
</g>

<g id="Layer0_4_MEMBER_4_MEMBER_0_MEMBER_0_MEMBER_0_MEMBER_1_FILL">
<path fill="#FF0000" stroke="none" d="
M 849.4 1252.5
Q 836.85 1239.85 821.75 1226.9 626.2 1388.6 821.75 1550.95 930.1 1394.85 849.4 1252.5 Z"/>
</g>

<g id="Layer0_4_MEMBER_4_MEMBER_1_MEMBER_0_MEMBER_0_MEMBER_0_FILL">
<path fill="#000000" stroke="none" d="
M 745.8 1353.45
L 745.05 1353.4
Q 742.4 1354.1 742.4 1362.4 742.4 1366.5 743.15 1371.65
L 743.3 1373.2
Q 744.45 1380.4 745.9 1383.7 747.6 1389.6 750.3 1393.3
L 751.8 1395.05 747.3 1391.9
Q 745.85 1390.75 744.25 1387.7
L 743.4 1385.45 742.65 1376.45
Q 740.9 1380.1 740.9 1382.25 740.9 1404.1 761.65 1404.1 782.4 1404.1 790.5 1401.4 798.55 1398.6 801.4 1396.15 804.25 1393.6 805.1 1391.75
L 805.8 1389.9 804.7 1390.65 788.65 1394.3 787.65 1394.05
Q 786.45 1394.05 777.9 1397
L 771.05 1398.2
Q 771.5 1397.45 771.5 1396.45 771.5 1395.25 771.05 1394.95
L 770.8 1397.35
Q 770.2 1398.55 766.25 1398.55
L 766.25 1398.65 764.8 1398.65 756.6 1396.45
Q 754 1395.05 751.9 1392.2 749.35 1388.45 747.45 1382.8 744.7 1374.1 744.25 1365.9
L 744.05 1361.95
Q 744.05 1354.95 745.8 1353.45
M 890 1406.85
Q 890.05 1404.95 888.95 1405.1 887.9 1405.25 885.55 1408.6 883.15 1411.9 871.65 1411 860.05 1410.1 843.05 1399.65 843 1404.45 852.55 1410 862.55 1415.7 873 1416 881.85 1416.15 886.5 1412.85 889.85 1410.15 890 1406.85
M 771.7 1418.4
Q 781.55 1418.4 790.5 1411.55 798.65 1405.4 800.2 1399.1
L 788.6 1407.6
Q 779.05 1413.95 770.3 1413.95 765.05 1413.95 759.45 1410
L 753.1 1405.95 751.8 1406.2
Q 757.9 1418.4 771.7 1418.4
M 902.6 1368.6
Q 903.05 1366.25 902.7 1358.55 902.35 1350.75 901.9 1353.75 901.3 1356.9 901.3 1363.35
L 901.05 1370.25 898.85 1381.15
Q 897.4 1387.3 891.55 1392.65 885.6 1398.2 878.85 1398.65
L 868.15 1397 858.35 1394.05 857.35 1394.3 849.6 1392.75
Q 843.4 1390.8 841.3 1390.65
L 840.2 1389.9 840.95 1391.75
Q 841.85 1393.7 844.65 1396.15 847.5 1398.65 855.6 1401.4 863.65 1404.1 884.35 1404.1 905.1 1404.1 905.1 1382.25 905.1 1380.1 903.35 1376.45
L 902.6 1385.45 901.8 1387.7
Q 900.25 1390.65 898.75 1391.9
L 891.25 1396.7
Q 889.35 1397.55 886.1 1398.2
L 889.45 1396.25
Q 895.75 1392.1 898.65 1385.75 902.4 1377.6 902.6 1368.6 Z"/>
</g>

<g id="Layer0_4_MEMBER_4_MEMBER_1_MEMBER_0_MEMBER_0_MEMBER_1_FILL">
<path fill="#000000" fill-opacity="0.4980392156862745" stroke="none" d="
M 764.8 1342.8
Q 748.5 1349.05 744.25 1365.9 744.7 1374.1 747.45 1382.8 749.35 1388.45 751.9 1392.2 754 1395.05 756.6 1396.45
L 764.8 1398.65 766.25 1398.65 766.25 1398.55
Q 770.2 1398.55 770.8 1397.35
L 771.05 1394.95
Q 771.5 1395.25 771.5 1396.45 771.5 1397.45 771.05 1398.2
L 777.9 1397
Q 786.45 1394.05 787.65 1394.05
L 788.65 1394.3 804.7 1390.65 805.8 1389.9
Q 774 1370.55 798 1349.15 791.85 1342.75 782.6 1341.05 773.6 1339.35 764.8 1342.8
M 743.3 1373.2
L 743.15 1371.65 742.65 1376.45 743.4 1385.45 744.25 1387.7
Q 745.85 1390.75 747.3 1391.9
L 751.8 1395.05 750.3 1393.3
Q 747.6 1389.6 745.9 1383.7 744.45 1380.4 743.3 1373.2
M 902.6 1385.45
L 903.35 1376.45 902.6 1368.6
Q 902.4 1377.6 898.65 1385.75 895.75 1392.1 889.45 1396.25
L 886.1 1398.2
Q 889.35 1397.55 891.25 1396.7
L 898.75 1391.9
Q 900.25 1390.65 901.8 1387.7
L 902.6 1385.45
M 883 1341.3
Q 874.25 1337.35 864.9 1339.3 855.05 1341.35 847.2 1349.4 852.55 1374.35 840.2 1389.9
L 841.3 1390.65
Q 843.4 1390.8 849.6 1392.75
L 857.35 1394.3 858.35 1394.05 868.15 1397 878.85 1398.65
Q 885.6 1398.2 891.55 1392.65 897.4 1387.3 898.85 1381.15
L 901.05 1370.25 901.3 1363.35
Q 899.9 1358.5 897.25 1354.2 891.85 1345.35 883 1341.3 Z"/>
</g>

<g id="Layer0_4_MEMBER_4_MEMBER_2_MEMBER_0_MEMBER_0_MEMBER_0_FILL">
<path fill="#000000" stroke="none" d="
M 765.45 1349.9
L 759.45 1354.6
Q 755.85 1357.55 755.1 1359.75 752.6 1367.75 751.15 1371.45 750.8 1372.55 750.8 1379.75 750.8 1383.4 756.3 1392.1 759.45 1396.6 763.85 1397.8 765.7 1398.25 766.25 1399.2
L 767.2 1400.6
Q 769.4 1402.25 784.35 1402.25 800.25 1402.25 806.9 1389.9 810.6 1383.15 810.6 1375.5 810.6 1365.8 807.2 1358.55 804.45 1352.4 799.9 1350.25
L 793.55 1346.35
Q 788.6 1343.8 783.05 1343.8 769.15 1346.7 765.45 1349.9
M 759.25 1360
Q 764.8 1355.6 767.3 1353 769.45 1350.85 774.2 1350.05 778.7 1347.95 780.3 1347.95
L 787.65 1349.3 794.1 1352.65
Q 799.9 1355.5 802.85 1360.4 806.2 1365.6 806.2 1375.8 806.2 1384.95 801.4 1390.8 795.55 1397.9 784.25 1397.9
L 770.95 1397.15 769.05 1395.6 763.85 1393.1
Q 760.25 1391.3 758.6 1386.85 755.1 1382.65 755.1 1374.1 755.1 1371.75 759.25 1360
M 783.4 1372.85
Q 782.65 1371.25 780.95 1371.25 777.7 1371.25 777.7 1374.4 778 1377.35 780.75 1377.35 783.8 1377.35 783.8 1374.3
L 783.4 1372.85
M 834.75 1380.1
Q 834.75 1382.75 836.05 1385.35
L 839.75 1392
Q 840.65 1393.6 847.1 1397.8 852.6 1401.5 868.15 1401.5 880.6 1401.5 890.7 1385.9 893.65 1378.25 893.65 1368.4 893.65 1362.3 888.05 1354.85 878.7 1343.6 867.05 1343.6
L 865.85 1343.7
Q 856.45 1344.1 851.55 1346.55 847.3 1349.55 844.65 1351.1 838.95 1354.3 835.95 1360.5 835.25 1362.05 834.95 1370.6
L 834.75 1380.1
M 841.85 1358.8
Q 843.3 1357 849.8 1352.35
L 855.15 1349.25 866 1347.5
Q 868.6 1347.5 874.5 1350.05 881.6 1353.2 884.15 1356.9 889.5 1364.35 889.5 1368.15 889.5 1374.75 887.5 1383.35 886.65 1386.4 881.85 1391.2 875.4 1397.75 868.25 1397.75
L 858.75 1397.1
Q 857.65 1396.25 856.05 1395.8 852.1 1396.55 850.05 1394.6
L 847.2 1392.95
Q 843.95 1391.6 843.15 1389.5
L 841.3 1386
Q 838.75 1383.9 838.75 1372.1
L 838.75 1365.55
Q 838.75 1363.15 841.85 1358.8
M 860.55 1373.3
Q 860.55 1376.5 864 1376.5 866.85 1376.5 866.85 1373.55 866.85 1370.35 863.7 1370.35 860.55 1370.35 860.55 1373.3 Z"/>
</g>

<g id="Layer0_4_MEMBER_4_MEMBER_2_MEMBER_0_MEMBER_0_MEMBER_1_FILL">
<path fill="#FFFFFF" stroke="none" d="
M 759.25 1360
Q 755.1 1371.75 755.1 1374.1 755.1 1382.65 758.6 1386.85 760.25 1391.3 763.85 1393.1
L 769.05 1395.6 770.95 1397.15 784.25 1397.9
Q 795.55 1397.9 801.4 1390.8 806.2 1384.95 806.2 1375.8 806.2 1365.6 802.85 1360.4 799.9 1355.5 794.1 1352.65
L 787.65 1349.3 780.3 1347.95
Q 778.7 1347.95 774.2 1350.05 769.45 1350.85 767.3 1353 764.8 1355.6 759.25 1360
M 780.95 1371.25
Q 782.65 1371.25 783.4 1372.85
L 783.8 1374.3
Q 783.8 1377.35 780.75 1377.35 778 1377.35 777.7 1374.4 777.7 1371.25 780.95 1371.25
M 838.75 1365.55
L 838.75 1372.1
Q 838.75 1383.9 841.3 1386
L 843.15 1389.5
Q 843.95 1391.6 847.2 1392.95
L 850.05 1394.6
Q 852.1 1396.55 856.05 1395.8 857.65 1396.25 858.75 1397.1
L 868.25 1397.75
Q 875.4 1397.75 881.85 1391.2 886.65 1386.4 887.5 1383.35 889.5 1374.75 889.5 1368.15 889.5 1364.35 884.15 1356.9 881.6 1353.2 874.5 1350.05 868.6 1347.5 866 1347.5
L 855.15 1349.25 849.8 1352.35
Q 843.3 1357 841.85 1358.8 838.75 1363.15 838.75 1365.55
M 864 1376.5
Q 860.55 1376.5 860.55 1373.3 860.55 1370.35 863.7 1370.35 866.85 1370.35 866.85 1373.55 866.85 1376.5 864 1376.5 Z"/>
</g>

<g id="Layer0_4_MEMBER_4_MEMBER_3_MEMBER_0_MEMBER_0_MEMBER_0_FILL">
<path fill="#000000" stroke="none" d="
M 821.95 1340.4
L 821.5 1339.65 818.15 1342.05 816.4 1342.8 813.75 1343.35
Q 809.65 1343.5 803.6 1331.15
L 798.25 1318.6
Q 794.2 1310.7 790.05 1306.45 787.15 1303.55 780.75 1300.75 772.7 1297.4 764.7 1297.4
L 760.45 1297.7
Q 753.15 1298.9 749.65 1300.3 745.1 1302.1 741.3 1304.6 749.3 1307.6 754.3 1309.95
L 763.8 1315.3
Q 769.25 1319.35 775.75 1326.65 781.6 1333.4 787.2 1337.8 792.4 1341.85 795.6 1343.35 798.85 1344.9 801.65 1345.35
L 809.95 1345.65
Q 815.7 1345.4 818.8 1343.5 821.95 1341.5 821.95 1340.4
M 811.9 1325.7
Q 812.5 1325.7 816.9 1317.05 821.2 1308.4 826 1308.4 827.7 1308.4 829.25 1315.75 830.7 1323.05 831.45 1323.05
L 831.7 1322.95 831.7 1322.4 831.55 1321.75 831.7 1321.2 830.35 1313.75
Q 829.6 1307 826.2 1307 820.1 1307 816.15 1315.3 811.45 1323.95 811.45 1325.25
L 811.9 1325.7
M 843.5 1310.4
L 843.8 1308.6 843.15 1307.95 839.3 1320
Q 834.95 1331 830.6 1331 828.6 1331 827.1 1326.35 825.5 1321.75 824.15 1321.75 822.85 1321.75 819.1 1328.5 815.25 1335.15 812.8 1335.15 807.9 1335.15 804.9 1321.5
L 802.05 1306.9 801.85 1306.9 801.6 1310.25
Q 803.95 1336.6 812.9 1336.6 815.95 1336.6 819.55 1330.25 823.45 1323.55 824.25 1323.35 825.2 1326.5 826.2 1328.5 827.9 1332.45 831.1 1332.45 838.3 1332.45 843.7 1310.95
L 843.5 1310.4
M 869.15 1326.65
Q 875.65 1319.3 881.15 1315.3 884.1 1313.05 890.55 1309.95 895.2 1307.7 903.55 1304.6 899.6 1302.05 895.25 1300.3
L 884.35 1297.7 880.2 1297.4
Q 872.1 1297.4 864.1 1300.75 857.75 1303.5 854.75 1306.45 850.55 1310.8 846.65 1318.6
L 841.2 1331.15
Q 835.2 1343.5 831.15 1343.35
L 828.4 1342.8 826.75 1342.05 823.35 1339.65 822.95 1340.4
Q 822.85 1341.5 826 1343.5 829.1 1345.4 834.85 1345.65
L 843.25 1345.35
Q 845.9 1344.9 849.25 1343.35 852.5 1341.85 857.65 1337.8 863.35 1333.25 869.15 1326.65 Z"/>
</g>

<g id="Layer0_4_MEMBER_4_MEMBER_4_MEMBER_0_MEMBER_0_MEMBER_0_FILL">
<path fill="#000000" stroke="none" d="
M 790.8 1438.65
L 805.15 1437.55 837.7 1437.55 850.25 1436.8
Q 853.95 1436.6 853.95 1435.6 853.95 1434.8 852.3 1434.8
L 837.7 1435.5 806.65 1435.5
Q 788.1 1436.7 788.1 1438.2
L 790.8 1438.65
M 751.8 1434.15
L 763.25 1433.3 852.85 1432.55 893.95 1431.55 898.2 1430.9 898.45 1429.45
Q 898.45 1427.2 880.3 1427.4 872.45 1428.3 766.45 1429.6
L 755.1 1430.65
Q 748.65 1431.8 748.65 1433.15 748.65 1434.15 751.8 1434.15 Z"/>
</g>

<path id="Layer0_1_MEMBER_4_MEMBER_0_MEMBER_1_MEMBER_0_1_STROKES" stroke="#990000" stroke-width="5.5" stroke-linejoin="miter" stroke-linecap="round" stroke-miterlimit="22" fill="none" d="
M 141.6 1550.95
Q -53.95 1388.6 141.6 1226.9 156.7 1239.85 169.25 1252.5 324.3 1408.6 141.6 1550.95 Z"/>

<path id="Layer0_1_MEMBER_4_MEMBER_0_MEMBER_2_MEMBER_0_1_STROKES" stroke="#FF4848" stroke-width="5.5" stroke-linejoin="miter" stroke-linecap="round" stroke-miterlimit="22" fill="none" d="
M 143 1272.05
L 139.95 1498.05"/>

<path id="Layer0_2_MEMBER_4_MEMBER_0_MEMBER_1_MEMBER_0_1_STROKES" stroke="#990000" stroke-width="5.5" stroke-linejoin="miter" stroke-linecap="round" stroke-miterlimit="22" fill="none" d="
M 368.3 1550.95
Q 172.75 1388.6 368.3 1226.9 383.4 1239.85 395.95 1252.5 551 1408.6 368.3 1550.95 Z"/>

<path id="Layer0_2_MEMBER_4_MEMBER_0_MEMBER_2_MEMBER_0_1_STROKES" stroke="#FF4848" stroke-width="5.5" stroke-linejoin="miter" stroke-linecap="round" stroke-miterlimit="22" fill="none" d="
M 369.7 1272.05
L 366.65 1498.05"/>

<path id="Layer0_3_MEMBER_4_MEMBER_0_MEMBER_1_MEMBER_0_1_STROKES" stroke="#FF4848" stroke-width="5.5" stroke-linejoin="miter" stroke-linecap="round" stroke-miterlimit="22" fill="none" d="
M 596.4 1272.05
L 593.35 1498.05"/>

<path id="Layer0_3_MEMBER_4_MEMBER_0_MEMBER_2_MEMBER_0_1_STROKES" stroke="#990000" stroke-width="5.5" stroke-linejoin="miter" stroke-linecap="round" stroke-miterlimit="22" fill="none" d="
M 622.65 1252.5
Q 610.1 1239.85 595 1226.9 399.45 1388.6 595 1550.95 777.7 1408.6 622.65 1252.5 Z"/>

<path id="Layer0_3_MEMBER_5_MEMBER_0_MEMBER_1_MEMBER_0_1_STROKES" stroke="#000000" stroke-width="5.5" stroke-linejoin="round" stroke-linecap="round" fill="none" d="
M 644.7 1470.75
Q 659.45 1453.15 655.85 1428.35
L 655.6 1426.85 534.55 1426.85 534.8 1428.35
Q 538.4 1453.45 558.7 1471.1 571.4 1482.3 586 1486.4 594.8 1488.9 604.15 1488.9 629.2 1488.9 644.35 1471.1
L 644.7 1470.75 Z
M 525.5 1426.85
L 534.55 1426.85"/>

<path id="Layer0_4_MEMBER_4_MEMBER_0_MEMBER_1_MEMBER_0_1_STROKES" stroke="#990000" stroke-width="5.5" stroke-linejoin="miter" stroke-linecap="round" stroke-miterlimit="22" fill="none" d="
M 821.75 1550.95
Q 626.2 1388.6 821.75 1226.9 836.85 1239.85 849.4 1252.5 1004.45 1408.6 821.75 1550.95 Z"/>

<path id="Layer0_4_MEMBER_4_MEMBER_0_MEMBER_2_MEMBER_0_1_STROKES" stroke="#FF4848" stroke-width="5.5" stroke-linejoin="miter" stroke-linecap="round" stroke-miterlimit="22" fill="none" d="
M 823.15 1272.05
L 820.1 1498.05"/>
</defs>

<g transform="matrix( 1, 0, 0, 1, 0,0) ">
<use xlink:href="#Layer0_0_FILL"/>
</g>

<g transform="matrix( 1, 0, 0, 1, 0,0) ">
<use xlink:href="#Layer0_1_MEMBER_0_MEMBER_0_MEMBER_0_MEMBER_0_MEMBER_0_FILL"/>
</g>

<g transform="matrix( 1, 0, 0, 1, 0,0) ">
<use xlink:href="#Layer0_1_MEMBER_1_MEMBER_0_MEMBER_0_MEMBER_0_MEMBER_0_FILL"/>
</g>

<g transform="matrix( 1, 0, 0, 1, 0,0) ">
<use xlink:href="#Layer0_1_MEMBER_2_MEMBER_0_MEMBER_0_MEMBER_0_MEMBER_0_MEMBER_0_FILL"/>
</g>

<g transform="matrix( 1, 0, 0, 1, 0,0) ">
<use xlink:href="#Layer0_1_MEMBER_3_MEMBER_0_MEMBER_0_MEMBER_0_MEMBER_0_MEMBER_0_FILL"/>
</g>

<g transform="matrix( 1, 0, 0, 1, 0,0) ">
<use xlink:href="#Layer0_1_MEMBER_4_MEMBER_0_MEMBER_0_MEMBER_0_MEMBER_0_FILL"/>
</g>

<g transform="matrix( 1, 0, 0, 1, 0,0) ">
<use xlink:href="#Layer0_1_MEMBER_4_MEMBER_0_MEMBER_0_MEMBER_0_MEMBER_1_FILL"/>
</g>

<g transform="matrix( 1, 0, 0, 1, 0,0) ">
<use xlink:href="#Layer0_1_MEMBER_4_MEMBER_0_MEMBER_1_MEMBER_0_1_STROKES"/>
</g>

<g transform="matrix( 1, 0, 0, 1, 0,0) ">
<use xlink:href="#Layer0_1_MEMBER_4_MEMBER_0_MEMBER_2_MEMBER_0_1_STROKES"/>
</g>

<g transform="matrix( 1, 0, 0, 1, 0,0) ">
<use xlink:href="#Layer0_1_MEMBER_4_MEMBER_1_MEMBER_0_MEMBER_0_MEMBER_0_FILL"/>
</g>

<g transform="matrix( 1, 0, 0, 1, 0,0) ">
<use xlink:href="#Layer0_1_MEMBER_4_MEMBER_1_MEMBER_0_MEMBER_0_MEMBER_1_FILL"/>
</g>

<g transform="matrix( 1, 0, 0, 1, 0,0) ">
<use xlink:href="#Layer0_1_MEMBER_4_MEMBER_2_MEMBER_0_MEMBER_0_MEMBER_0_FILL"/>
</g>

<g transform="matrix( 1, 0, 0, 1, 0,0) ">
<use xlink:href="#Layer0_1_MEMBER_4_MEMBER_2_MEMBER_0_MEMBER_0_MEMBER_1_FILL"/>
</g>

<g transform="matrix( 1, 0, 0, 1, 0,0) ">
<use xlink:href="#Layer0_1_MEMBER_4_MEMBER_3_MEMBER_0_MEMBER_0_MEMBER_0_FILL"/>
</g>

<g transform="matrix( 1, 0, 0, 1, 0,0) ">
<use xlink:href="#Layer0_1_MEMBER_4_MEMBER_4_MEMBER_0_MEMBER_0_MEMBER_0_FILL"/>
</g>

<g transform="matrix( 1, 0, 0, 1, 0,0) ">
<use xlink:href="#Layer0_2_MEMBER_0_MEMBER_0_MEMBER_0_MEMBER_0_MEMBER_0_FILL"/>
</g>

<g transform="matrix( 1, 0, 0, 1, 0,0) ">
<use xlink:href="#Layer0_2_MEMBER_1_MEMBER_0_MEMBER_0_MEMBER_0_MEMBER_0_FILL"/>
</g>

<g transform="matrix( 1, 0, 0, 1, 0,0) ">
<use xlink:href="#Layer0_2_MEMBER_2_MEMBER_0_MEMBER_0_MEMBER_0_MEMBER_0_MEMBER_0_FILL"/>
</g>

<g transform="matrix( 1, 0, 0, 1, 0,0) ">
<use xlink:href="#Layer0_2_MEMBER_3_MEMBER_0_MEMBER_0_MEMBER_0_MEMBER_0_MEMBER_0_FILL"/>
</g>

<g transform="matrix( 1, 0, 0, 1, 0,0) ">
<use xlink:href="#Layer0_2_MEMBER_4_MEMBER_0_MEMBER_0_MEMBER_0_MEMBER_0_FILL"/>
</g>

<g transform="matrix( 1, 0, 0, 1, 0,0) ">
<use xlink:href="#Layer0_2_MEMBER_4_MEMBER_0_MEMBER_0_MEMBER_0_MEMBER_1_FILL"/>
</g>

<g transform="matrix( 1, 0, 0, 1, 0,0) ">
<use xlink:href="#Layer0_2_MEMBER_4_MEMBER_0_MEMBER_1_MEMBER_0_1_STROKES"/>
</g>

<g transform="matrix( 1, 0, 0, 1, 0,0) ">
<use xlink:href="#Layer0_2_MEMBER_4_MEMBER_0_MEMBER_2_MEMBER_0_1_STROKES"/>
</g>

<g transform="matrix( 1, 0, 0, 1, 0,0) ">
<use xlink:href="#Layer0_2_MEMBER_4_MEMBER_1_MEMBER_0_MEMBER_0_MEMBER_0_FILL"/>
</g>

<g transform="matrix( 1, 0, 0, 1, 0,0) ">
<use xlink:href="#Layer0_2_MEMBER_4_MEMBER_1_MEMBER_0_MEMBER_0_MEMBER_1_FILL"/>
</g>

<g transform="matrix( 1, 0, 0, 1, 0,0) ">
<use xlink:href="#Layer0_2_MEMBER_4_MEMBER_2_MEMBER_0_MEMBER_0_MEMBER_0_FILL"/>
</g>

<g transform="matrix( 1, 0, 0, 1, 0,0) ">
<use xlink:href="#Layer0_2_MEMBER_4_MEMBER_2_MEMBER_0_MEMBER_0_MEMBER_1_FILL"/>
</g>

<g transform="matrix( 1, 0, 0, 1, 0,0) ">
<use xlink:href="#Layer0_2_MEMBER_4_MEMBER_3_MEMBER_0_MEMBER_0_MEMBER_0_FILL"/>
</g>

<g transform="matrix( 1, 0, 0, 1, 0,0) ">
<use xlink:href="#Layer0_2_MEMBER_4_MEMBER_4_MEMBER_0_MEMBER_0_MEMBER_0_FILL"/>
</g>

<g transform="matrix( 1, 0, 0, 1, 0,0) ">
<use xlink:href="#Layer0_3_MEMBER_0_MEMBER_0_MEMBER_0_MEMBER_0_MEMBER_0_FILL"/>
</g>

<g transform="matrix( 1, 0, 0, 1, 0,0) ">
<use xlink:href="#Layer0_3_MEMBER_1_MEMBER_0_MEMBER_0_MEMBER_0_MEMBER_0_FILL"/>
</g>

<g transform="matrix( 1, 0, 0, 1, 0,0) ">
<use xlink:href="#Layer0_3_MEMBER_2_MEMBER_0_MEMBER_0_MEMBER_0_MEMBER_0_MEMBER_0_FILL"/>
</g>

<g transform="matrix( 1, 0, 0, 1, 0,0) ">
<use xlink:href="#Layer0_3_MEMBER_3_MEMBER_0_MEMBER_0_MEMBER_0_MEMBER_0_MEMBER_0_FILL"/>
</g>

<g transform="matrix( 1, 0, 0, 1, 0,0) ">
<use xlink:href="#Layer0_3_MEMBER_4_MEMBER_0_MEMBER_0_MEMBER_0_MEMBER_0_FILL"/>
</g>

<g transform="matrix( 1, 0, 0, 1, 0,0) ">
<use xlink:href="#Layer0_3_MEMBER_4_MEMBER_0_MEMBER_0_MEMBER_0_MEMBER_1_FILL"/>
</g>

<g transform="matrix( 1, 0, 0, 1, 0,0) ">
<use xlink:href="#Layer0_3_MEMBER_4_MEMBER_0_MEMBER_1_MEMBER_0_1_STROKES"/>
</g>

<g transform="matrix( 1, 0, 0, 1, 0,0) ">
<use xlink:href="#Layer0_3_MEMBER_4_MEMBER_0_MEMBER_2_MEMBER_0_1_STROKES"/>
</g>

<g transform="matrix( 1, 0, 0, 1, 0,0) ">
<use xlink:href="#Layer0_3_MEMBER_4_MEMBER_1_MEMBER_0_MEMBER_0_MEMBER_0_FILL"/>
</g>

<g transform="matrix( 1, 0, 0, 1, 0,0) ">
<use xlink:href="#Layer0_3_MEMBER_4_MEMBER_1_MEMBER_0_MEMBER_0_MEMBER_1_FILL"/>
</g>

<g transform="matrix( 1, 0, 0, 1, 0,0) ">
<use xlink:href="#Layer0_3_MEMBER_4_MEMBER_2_MEMBER_0_MEMBER_0_MEMBER_0_FILL"/>
</g>

<g transform="matrix( 1, 0, 0, 1, 0,0) ">
<use xlink:href="#Layer0_3_MEMBER_4_MEMBER_2_MEMBER_0_MEMBER_0_MEMBER_1_FILL"/>
</g>

<g transform="matrix( 1, 0, 0, 1, 0,0) ">
<use xlink:href="#Layer0_3_MEMBER_4_MEMBER_3_MEMBER_0_MEMBER_0_MEMBER_0_FILL"/>
</g>

<g transform="matrix( 1, 0, 0, 1, 0,0) ">
<use xlink:href="#Layer0_3_MEMBER_5_MEMBER_0_MEMBER_0_MEMBER_0_MEMBER_0_FILL"/>
</g>

<g transform="matrix( 1, 0, 0, 1, 0,0) ">
<use xlink:href="#Layer0_3_MEMBER_5_MEMBER_0_MEMBER_0_MEMBER_0_MEMBER_1_FILL"/>
</g>

<g transform="matrix( 1, 0, 0, 1, 0,0) ">
<use xlink:href="#Layer0_3_MEMBER_5_MEMBER_0_MEMBER_1_MEMBER_0_1_STROKES"/>
</g>

<g transform="matrix( 1, 0, 0, 1, 0,0) ">
<use xlink:href="#Layer0_4_MEMBER_0_MEMBER_0_MEMBER_0_MEMBER_0_MEMBER_0_FILL"/>
</g>

<g transform="matrix( 1, 0, 0, 1, 0,0) ">
<use xlink:href="#Layer0_4_MEMBER_1_MEMBER_0_MEMBER_0_MEMBER_0_MEMBER_0_FILL"/>
</g>

<g transform="matrix( 1, 0, 0, 1, 0,0) ">
<use xlink:href="#Layer0_4_MEMBER_2_MEMBER_0_MEMBER_0_MEMBER_0_MEMBER_0_MEMBER_0_FILL"/>
</g>

<g transform="matrix( 1, 0, 0, 1, 0,0) ">
<use xlink:href="#Layer0_4_MEMBER_3_MEMBER_0_MEMBER_0_MEMBER_0_MEMBER_0_MEMBER_0_FILL"/>
</g>

<g transform="matrix( 1, 0, 0, 1, 0,0) ">
<use xlink:href="#Layer0_4_MEMBER_4_MEMBER_0_MEMBER_0_MEMBER_0_MEMBER_0_FILL"/>
</g>

<g transform="matrix( 1, 0, 0, 1, 0,0) ">
<use xlink:href="#Layer0_4_MEMBER_4_MEMBER_0_MEMBER_0_MEMBER_0_MEMBER_1_FILL"/>
</g>

<g transform="matrix( 1, 0, 0, 1, 0,0) ">
<use xlink:href="#Layer0_4_MEMBER_4_MEMBER_0_MEMBER_1_MEMBER_0_1_STROKES"/>
</g>

<g transform="matrix( 1, 0, 0, 1, 0,0) ">
<use xlink:href="#Layer0_4_MEMBER_4_MEMBER_0_MEMBER_2_MEMBER_0_1_STROKES"/>
</g>

<g transform="matrix( 1, 0, 0, 1, 0,0) ">
<use xlink:href="#Layer0_4_MEMBER_4_MEMBER_1_MEMBER_0_MEMBER_0_MEMBER_0_FILL"/>
</g>

<g transform="matrix( 1, 0, 0, 1, 0,0) ">
<use xlink:href="#Layer0_4_MEMBER_4_MEMBER_1_MEMBER_0_MEMBER_0_MEMBER_1_FILL"/>
</g>

<g transform="matrix( 1, 0, 0, 1, 0,0) ">
<use xlink:href="#Layer0_4_MEMBER_4_MEMBER_2_MEMBER_0_MEMBER_0_MEMBER_0_FILL"/>
</g>

<g transform="matrix( 1, 0, 0, 1, 0,0) ">
<use xlink:href="#Layer0_4_MEMBER_4_MEMBER_2_MEMBER_0_MEMBER_0_MEMBER_1_FILL"/>
</g>

<g transform="matrix( 1, 0, 0, 1, 0,0) ">
<use xlink:href="#Layer0_4_MEMBER_4_MEMBER_3_MEMBER_0_MEMBER_0_MEMBER_0_FILL"/>
</g>

<g transform="matrix( 1, 0, 0, 1, 0,0) ">
<use xlink:href="#Layer0_4_MEMBER_4_MEMBER_4_MEMBER_0_MEMBER_0_MEMBER_0_FILL"/>
</g>
</svg>
