
<svg xmlns="http://www.w3.org/2000/svg" version="1.1" xmlns:xlink="http://www.w3.org/1999/xlink" preserveAspectRatio="none" x="0px" y="0px" width="104px" height="37px" viewBox="0 0 104 37">
<defs>
<g id="Layer0_0_FILL">
<path fill="#FFFFFF" stroke="none" d="
M 104.5 27.3
L 104.5 10.05
Q 104.5 0 94.5 0
L 10 0
Q 0 0 0 10.05
L 0 27.3
Q 0 37.3 10 37.3
L 94.5 37.3
Q 104.5 37.3 104.5 27.3
M 86.35 6.35
L 86.35 26.35 98.3 26.35 98.3 30.85 80.95 30.85 80.95 6.35 86.35 6.35
M 64.1 6.35
L 69.6 6.35 78.8 30.85 73.2 30.85 71.35 25.4 62.2 25.4 60.25 30.85 54.8 30.85 64.1 6.35
M 52.8 6.35
L 52.8 21.6
Q 52.8 26.55 50.05 29 47.25 31.45 42.35 31.45 37.35 31.45 34.65 29 31.9 26.6 31.9 21.6
L 31.9 6.35 37.3 6.35 37.3 21.6 37.45 23.55
Q 37.65 24.5 38.2 25.25 38.75 26.05 39.7 26.45
L 42.35 26.9
Q 45.2 26.9 46.3 25.65 47.4 24.35 47.4 21.6
L 47.4 6.35 52.8 6.35
M 21.4 6.75
Q 23.65 7.8 25.2 9.5 26.75 11.3 27.55 13.65 28.35 16 28.35 18.7 28.35 21.4 27.55 23.7 26.75 26 25.2 27.7
L 28.25 30.5 25.75 33.15 22.25 30
Q 21.05 30.7 19.6 31.05
L 16.35 31.45
Q 13.5 31.45 11.25 30.45 9.05 29.45 7.5 27.75 5.95 26 5.15 23.7 4.3 21.35 4.3 18.7 4.3 16 5.15 13.65 5.95 11.3 7.5 9.5 9.05 7.8 11.25 6.75 13.5 5.8 16.35 5.8 19.2 5.8 21.4 6.75
M 21.45 24.35
Q 22.15 23.4 22.55 22.05 23 20.65 23 18.7 23 17.1 22.65 15.6 22.25 14.05 21.45 12.9 20.7 11.7 19.4 11 18.15 10.3 16.35 10.3 14.5 10.3 13.25 11 12 11.7 11.2 12.9 10.4 14.05 10.05 15.6 9.7 17.1 9.7 18.7 9.7 20.25 10.05 21.7 10.4 23.2 11.2 24.35 12 25.5 13.25 26.2 14.5 26.9 16.35 26.9
L 17.55 26.9 18.5 26.6 16.2 24.45 18.7 21.8 21.45 24.35
M 66.85 12.4
L 66.75 12.4 63.6 21.4 69.9 21.4 66.85 12.4 Z"/>
</g>
</defs>

<g transform="matrix( 1, 0, 0, 1, 0,0) ">
<use xlink:href="#Layer0_0_FILL"/>
</g>
</svg>
