
<svg xmlns="http://www.w3.org/2000/svg" version="1.1" xmlns:xlink="http://www.w3.org/1999/xlink" preserveAspectRatio="none" x="0px" y="0px" width="104px" height="37px" viewBox="0 0 104 37">
<defs>
<g id="Layer0_0_FILL">
<path fill="#FFFFFF" stroke="none" d="
M 104.5 27.3
L 104.5 10.05
Q 104.5 0 94.5 0
L 10 0
Q 0 0 0 10.05
L 0 27.3
Q 0 37.3 10 37.3
L 94.5 37.3
Q 104.5 37.3 104.5 27.3
M 97.5 11.4
L 85.2 11.4 85.2 16.35 96.5 16.35 96.5 20.35 85.2 20.35 85.2 26.1 97.75 26.1 97.75 30.4 80.05 30.4 80.05 7.05 97.5 7.05 97.5 11.4
M 77.4 7.05
L 77.4 11.4 70.4 11.4 70.4 30.4 65.25 30.4 65.25 11.4 58.3 11.4 58.3 7.05 77.4 7.05
M 40.95 21.6
L 41.1 23.45
Q 41.25 24.35 41.8 25.1
L 43.25 26.2 45.75 26.65
Q 48.5 26.65 49.55 25.4 50.6 24.2 50.6 21.6
L 50.6 7.05 55.7 7.05 55.7 21.6
Q 55.7 26.3 53.05 28.65 50.4 30.95 45.75 30.95 41 30.95 38.4 28.65 35.8 26.35 35.8 21.6
L 35.8 7.05 40.95 7.05 40.95 21.6
M 26.55 13.85
L 26.45 13.85 20.75 30.4 16.8 30.4 11.05 14.05 11 14.05 11 30.4 6.2 30.4 6.2 7.05 13.45 7.05 18.9 23.1 18.95 23.1 24.1 7.05 31.35 7.05 31.35 30.4 26.55 30.4 26.55 13.85 Z"/>
</g>
</defs>

<g transform="matrix( 1, 0, 0, 1, 0,0) ">
<use xlink:href="#Layer0_0_FILL"/>
</g>
</svg>
