
<svg xmlns="http://www.w3.org/2000/svg" version="1.1" xmlns:xlink="http://www.w3.org/1999/xlink" preserveAspectRatio="none" x="0px" y="0px" width="104px" height="37px" viewBox="0 0 104 37">
<defs>
<g id="Layer0_0_FILL">
<path fill="#FFFFFF" stroke="none" d="
M 94.5 37.3
Q 104.5 37.3 104.5 27.3
L 104.5 10.05
Q 104.5 0 94.5 0
L 10 0
Q 0 0 0 10.05
L 0 27.3
Q 0 37.3 10 37.3
L 94.5 37.3
M 92.9 6.5
L 99.6 6.5 90.05 16.15 100.55 30.9 93.8 30.9 86.45 19.95 83.4 23.05 83.4 30.9 78 30.9 78 6.5 83.4 6.5 83.4 16.6 92.9 6.5
M 67.15 11.65
Q 66.45 11.05 65.55 10.75
L 63.65 10.4
Q 61.85 10.4 60.6 11.1 59.3 11.85 58.55 13 57.75 14.2 57.4 15.7 57.05 17.2 57.05 18.8 57.05 20.35 57.4 21.8 57.75 23.25 58.55 24.4 59.3 25.6 60.6 26.3 61.85 27 63.65 27 66.1 27 67.5 25.45 68.9 23.95 69.2 21.5
L 74.4 21.5
Q 74.2 23.8 73.35 25.65 72.45 27.5 71.05 28.8 69.65 30.1 67.8 30.8
L 63.65 31.5
Q 60.8 31.5 58.6 30.5 56.35 29.5 54.8 27.8 53.3 26.1 52.45 23.75 51.65 21.45 51.65 18.8 51.65 16.1 52.45 13.75 53.3 11.4 54.8 9.65 56.35 7.9 58.6 6.9 60.8 5.9 63.65 5.9 65.65 5.9 67.45 6.5 69.25 7.1 70.65 8.2 72.1 9.3 73 10.95 73.95 12.6 74.15 14.7
L 68.95 14.7
Q 68.85 13.8 68.35 13
L 67.15 11.65
M 50.6 30.9
L 45 30.9 43.15 25.5 34.05 25.5 32.15 30.9 26.7 30.9 35.95 6.5 41.45 6.5 50.6 30.9
M 22.35 7.8
Q 23.35 8.5 23.9 9.65 24.5 10.85 24.5 12.55 24.5 14.35 23.65 15.6 22.8 16.85 21.15 17.65 23.45 18.3 24.55 19.9 25.65 21.55 25.65 23.8 25.65 25.7 24.95 27.05 24.2 28.4 23 29.25 21.8 30.1 20.2 30.5
L 17.05 30.9 5.2 30.9 5.2 6.5 16.7 6.5 19.85 6.8
Q 21.3 7.1 22.35 7.8
M 19.2 20.85
Q 18.15 20.05 16.4 20.05
L 10.6 20.05 10.6 26.75 16.3 26.75 17.8 26.6 19.05 26.05 19.95 25.1 20.25 23.5
Q 20.25 21.65 19.2 20.85
M 19 12.1
Q 18.65 11.5 18.15 11.2
L 17 10.8 15.6 10.65 10.6 10.65 10.6 16.4 16 16.4
Q 17.45 16.4 18.35 15.7 19.3 15 19.3 13.5
L 19 12.1
M 38.7 12.5
L 38.65 12.5 35.45 21.45 41.75 21.45 38.7 12.5 Z"/>
</g>
</defs>

<g transform="matrix( 1, 0, 0, 1, 0,0) ">
<use xlink:href="#Layer0_0_FILL"/>
</g>
</svg>
