
<svg xmlns="http://www.w3.org/2000/svg" version="1.1" xmlns:xlink="http://www.w3.org/1999/xlink" preserveAspectRatio="none" x="0px" y="0px" width="960px" height="540px" viewBox="0 0 960 540">
<defs>
<linearGradient id="Gradient_1" gradientUnits="userSpaceOnUse" x1="505.04999999999995" y1="41.35" x2="741.75" y2="41.35" spreadMethod="pad">
<stop  offset="0%" stop-color="#7F7F7F"/>

<stop  offset="100%" stop-color="#CCCCCC"/>
</linearGradient>

<g id="Layer2_0_FILL">
<path fill="#666666" stroke="none" d="
M 960 540
L 960 0 0 0 0 540 960 540 Z"/>
</g>

<g id="Layer1_0_FILL">
<path fill="url(#Gradient_1)" stroke="none" d="
M 960 65
L 960 0 0 0 0 65 960 65 Z"/>
</g>

<g id="Layer0_0_FILL">
<path fill="#000000" stroke="none" d="
M 948.9 32.1
Q 947.45 29.8 945.2 28.75 942.95 27.7 940.15 27.7 935.45 27.7 932.5 30.8 929.55 33.9 929.55 39.75 929.55 45.95 932.85 48.7 936.1 51.45 940.35 51.45 945.55 51.45 948.4 48.15 950.25 46.1 950.5 44.15
L 944.5 44.15
Q 944.05 45.1 943.45 45.65 942.3 46.7 940.5 46.7 938.8 46.7 937.55 45.85 935.6 44.5 935.45 41.15
L 950.8 41.15
Q 950.8 38.25 950.6 36.7 950.2 34.05 948.9 32.1
M 937 33.8
Q 938.15 32.55 940.15 32.55 942.05 32.55 943.3 33.75 944.55 34.95 944.7 37.25
L 935.6 37.25
Q 935.9 35.1 937 33.8
M 926.25 33.7
L 927.9 33.8 927.9 27.8
Q 927.65 27.8 927.45 27.8 927.25 27.8 927.15 27.8 924.5 27.8 922.85 29.15 921.85 30 920.5 32.2
L 920.5 28.3 914.9 28.3 914.9 50.7 920.8 50.7 920.8 40
Q 920.8 37.3 921.5 36 922.7 33.7 926.25 33.7
M 908 48
Q 910.85 44.5 910.85 39.55 910.85 34.7 908 31.15 905.15 27.6 899.4 27.6 893.6 27.6 890.8 31.15 887.95 34.7 887.95 39.55 887.95 44.5 890.8 48 893.6 51.5 899.4 51.5 905.15 51.5 908 48
M 895.45 34.4
Q 896.8 32.55 899.35 32.55 901.95 32.55 903.3 34.4 904.7 36.2 904.7 39.55 904.7 42.9 903.3 44.75 901.95 46.55 899.35 46.55 896.8 46.55 895.45 44.75 894.05 42.9 894.05 39.55 894.05 36.2 895.45 34.4
M 883.65 20.45
L 877.8 20.45 877.8 50.7 883.65 50.7 883.65 20.45
M 857.4 28.3
L 851.8 28.3 851.8 59.5 857.6 59.5 857.6 47.85
Q 858.55 49.25 859.5 50 861.25 51.35 863.95 51.35 868.1 51.35 870.8 48.25 873.45 45.15 873.45 39.2 873.45 33.6 870.75 30.7 868 27.8 864.1 27.8 861.4 27.8 859.45 29.3 858.35 30.15 857.4 31.6
L 857.4 28.3
M 862.4 32.95
Q 865.05 32.95 866.25 34.95 867.4 36.9 867.4 39.5 867.4 42.65 866.15 44.55 864.85 46.45 862.4 46.45 860.7 46.45 859.5 45.5 857.4 43.9 857.4 40 857.4 37.55 858 35.95 859.2 32.95 862.4 32.95
M 826.75 28.35
L 834.05 39.35 826.45 50.7 833.55 50.7 837.4 44 841.3 50.7 848.55 50.7 840.95 39.25 848.3 28.35 841.3 28.35 837.65 34.85 833.95 28.35 826.75 28.35
M 822.1 37.5
L 822.1 32.2 807.4 32.2 807.4 25.8 823.45 25.8 823.45 20.45 801.25 20.45 801.25 50.7 824.2 50.7 824.2 45.25 807.4 45.25 807.4 37.5 822.1 37.5
M 750.8 21.65
L 750.8 11 721.8 11 717.4 36.1 728.7 36.1
Q 729.65 34.6 731.2 34 732.7 33.3 734.85 33.3 737.55 33.3 739.2 34.9 740.9 36.45 740.9 39.4 740.9 42 739 43.6 737.1 45.2 734.45 45.2 733.05 45.2 731.8 44.85 730.55 44.5 729.65 43.75 728.3 42.7 727.95 40.9
L 716 40.9
Q 715.85 41.95 716.1 43.45 716.35 44.9 717.05 46.5 717.75 48.1 719.05 49.6 720.35 51.15 722.4 52.35 724.45 53.6 727.3 54.35 730.2 55.1 734.1 55.1 738.65 55.1 742.2 53.95 745.75 52.8 748.15 50.75 750.55 48.7 751.8 45.9 753.05 43.1 753.05 39.75 753.05 35.9 751.95 33.1 750.85 30.3 749 28.5 747.05 26.7 744.55 25.85 742.05 25 739.25 25 736.9 25 734.45 25.5 731.95 26.05 730 27.55
L 729.9 27.4 731.15 21.65 750.8 21.65
M 779 22.05
Q 776.3 22 774.05 23.15 771.8 24.3 770.45 26.3
L 770.3 26.3 770.3 11 758.35 11 758.35 54.3 769.9 54.3 769.9 50.9 769.95 50.85
Q 770.55 51.6 771.25 52.3 771.95 53.15 772.95 53.7 774 54.3 775.5 54.7 777 55.1 779.2 55.1 782.55 55.1 785.05 53.65 787.5 52.15 789.15 49.75 790.8 47.3 791.55 44.35 792.45 41.4 792.45 38.45 792.45 35.7 791.85 32.75 791.15 29.8 789.65 27.45 788.2 25.05 785.6 23.55 783 22.05 779 22.05
M 770.1 35.75
Q 770.3 34.35 770.9 33.3 771.5 32.15 772.5 31.5 773.55 30.8 775.15 30.8 776.75 30.8 777.75 31.5 778.8 32.15 779.4 33.3 780 34.35 780.2 35.75 780.35 37.1 780.4 38.55 780.35 39.95 780.2 41.35 780 42.7 779.4 43.85 778.8 44.95 777.75 45.65 776.75 46.4 775.15 46.4 773.55 46.4 772.5 45.65 771.5 44.95 770.9 43.85 770.3 42.7 770.1 41.35 769.9 39.95 769.9 38.55 769.9 37.1 770.1 35.75 Z"/>
</g>
</defs>

<g transform="matrix( 1, 0, 0, 1, 0,0) ">
<use xlink:href="#Layer2_0_FILL"/>
</g>

<g transform="matrix( 1, 0, 0, 1, 0,0) ">
<use xlink:href="#Layer1_0_FILL"/>
</g>

<g transform="matrix( 1, 0, 0, 1, 0,0) ">
<use xlink:href="#Layer0_0_FILL"/>
</g>
</svg>
