
<svg xmlns="http://www.w3.org/2000/svg" version="1.1" xmlns:xlink="http://www.w3.org/1999/xlink" preserveAspectRatio="none" x="0px" y="0px" width="960px" height="540px" viewBox="0 0 960 540">
<defs>
<radialGradient id="Gradient_1" gradientUnits="userSpaceOnUse" cx="0" cy="0" r="61.82606271832293" fx="-49.94490196078432" fy="-0.2928431372549112" gradientTransform="matrix( -0.9999828111596275, -0.005863223114360938, -0.005863223114360938, 0.9999828111596275, 85.05,181.75) " spreadMethod="pad">
<stop  offset="0%" stop-color="#FFFFFF" stop-opacity="0.8"/>

<stop  offset="100%" stop-color="#CCD7FF" stop-opacity="0.8"/>
</radialGradient>

<radialGradient id="Gradient_2" gradientUnits="userSpaceOnUse" cx="0" cy="0" r="31.140854395793323" fx="2.6661764705882347" fy="8.122058823529414" gradientTransform="matrix( 0.31188932315588674, 0.9501184400385894, 0.21274303896090088, -1.2238745769656354, 44.9,179.8) " spreadMethod="pad">
<stop  offset="0%" stop-color="#FFFFFF" stop-opacity="0.2"/>

<stop  offset="100%" stop-color="#FFFFFF" stop-opacity="0"/>
</radialGradient>

<radialGradient id="Gradient_3" gradientUnits="userSpaceOnUse" cx="0" cy="0" r="78.04206598046976" fx="42.06401960784313" fy="10.921470588235293" gradientTransform="matrix( 0.9679074874684055, 0.251306776077764, -0.25707289713499765, 0.9900109515211342, 475.7,242.75) " spreadMethod="pad">
<stop  offset="0%" stop-color="#EAF2FF" stop-opacity="0.7529411764705882"/>

<stop  offset="100%" stop-color="#A8D8FF" stop-opacity="0.7529411764705882"/>
</radialGradient>

<g id="Layer0_0_FILL">
<path fill="#FFFFFF" stroke="none" d="
M 938.15 51.05
Q 937.55 50.8 936.85 50.8 935.25 50.8 934.4 52.1
L 934.4 50.95 933.2 50.95 933.2 58.75 934.5 58.75 934.5 54.5
Q 934.5 53 935.1 52.45 935.75 51.95 936.55 51.95 937.1 51.95 937.5 52.2 937.9 52.4 938.05 52.8 938.2 53.2 938.2 54
L 938.2 58.75 939.5 58.75 939.5 53.95
Q 939.5 53.05 939.45 52.7 939.3 52.1 939.05 51.7 938.75 51.3 938.15 51.05
M 946.6 50.95
L 946.6 51.9
Q 945.75 50.8 944.35 50.8 943.3 50.8 942.55 51.3 941.8 51.8 941.4 52.75 941 53.7 941 54.8 941 56.45 941.85 57.6 942.75 58.75 944.35 58.75 945.65 58.75 946.5 57.75 946.5 59 946.4 59.4 946.25 60.1 945.75 60.45 945.25 60.8 944.3 60.8 943.45 60.8 943 60.45 942.6 60.2 942.55 59.6
L 941.25 59.4
Q 941.2 60.65 942.05 61.3 942.95 61.9 944.3 61.9 945.5 61.9 946.3 61.45 947.1 61.05 947.45 60.25 947.85 59.5 947.85 57.7
L 947.85 50.95 946.6 50.95
M 942.35 54.7
Q 942.35 53.3 942.95 52.6 943.55 51.9 944.45 51.9 945.35 51.9 946 52.6 946.6 53.35 946.6 54.75 946.6 56.25 946 56.95 945.4 57.65 944.45 57.65 943.55 57.65 942.95 56.95 942.35 56.25 942.35 54.7
M 930.7 51.6
Q 930.4 51.25 929.8 51.05 929.15 50.8 928.2 50.8 927.15 50.8 926.4 51.05 925.65 51.35 925.25 51.85 924.85 52.35 924.65 53.2
L 925.95 53.35
Q 926.15 52.55 926.6 52.2 927.05 51.9 928 51.9 929 51.9 929.5 52.35 929.85 52.65 929.85 53.45
L 929.85 53.8
Q 929.1 54.1 927.5 54.25
L 926.35 54.45
Q 925.8 54.6 925.4 54.9 924.95 55.2 924.7 55.65 924.45 56.15 924.45 56.7 924.45 57.65 925.15 58.3 925.8 58.95 927.1 58.95 927.9 58.95 928.55 58.65 929.25 58.4 929.95 57.8 930 58.35 930.25 58.75
L 931.6 58.75
Q 931.35 58.3 931.3 57.8 931.2 57.35 931.2 55.5
L 931.2 53.75
Q 931.2 52.85 931.1 52.5 931 52 930.7 51.6
M 926.55 55.6
Q 926.9 55.45 927.7 55.35 929.15 55.15 929.85 54.85
L 929.85 55.35
Q 929.85 56.2 929.65 56.65 929.35 57.25 928.75 57.55 928.2 57.9 927.4 57.9 926.65 57.9 926.25 57.55 925.85 57.2 925.85 56.65 925.85 56.3 926.05 56.05 926.2 55.75 926.55 55.6
M 922.85 50.95
L 921.55 50.95 921.55 55.15
Q 921.55 56.15 921.35 56.65 921.1 57.2 920.6 57.5 920.1 57.8 919.5 57.8 918.9 57.8 918.5 57.5 918.1 57.2 917.95 56.7 917.9 56.3 917.9 55.3
L 917.9 50.95 916.55 50.95 916.55 55.8
Q 916.55 56.65 916.65 57 916.75 57.6 917.05 58 917.35 58.4 917.95 58.65 918.55 58.95 919.2 58.95 920.8 58.95 921.7 57.6
L 921.7 58.75 922.85 58.75 922.85 50.95
M 907.4 48
L 906 48 906 58.75 907.4 58.75 907.4 53.7 913 53.7 913 58.75 914.4 58.75 914.4 48 913 48 913 52.4 907.4 52.4 907.4 48
M 899.65 48
L 898.3 48 898.3 58.75 899.65 58.75 899.65 48
M 896.75 55.2
L 896.75 54.85
Q 896.75 52.9 895.8 51.85 894.8 50.8 893.25 50.8 891.6 50.8 890.6 51.9 889.6 52.95 889.6 54.95 889.6 56.8 890.6 57.9 891.6 58.95 893.3 58.95 894.65 58.95 895.55 58.25 896.4 57.6 896.75 56.4
L 895.35 56.25
Q 895.05 57.1 894.55 57.45 894.05 57.85 893.3 57.85 892.35 57.85 891.7 57.15 891.05 56.5 890.95 55.2
L 896.75 55.2
M 891.05 54.1
Q 891.1 53.1 891.7 52.5 892.35 51.9 893.25 51.9 894.25 51.9 894.9 52.65 895.3 53.15 895.4 54.1
L 891.05 54.1
M 886.7 53.45
L 886.7 53.8
Q 885.95 54.1 884.35 54.25
L 883.2 54.45
Q 882.65 54.6 882.25 54.9 881.8 55.2 881.55 55.65 881.3 56.15 881.3 56.7 881.3 57.65 882 58.3 882.65 58.95 883.95 58.95 884.75 58.95 885.4 58.65 886.1 58.4 886.8 57.8 886.85 58.35 887.1 58.75
L 888.45 58.75
Q 888.2 58.3 888.15 57.8 888.05 57.35 888.05 55.5
L 888.05 53.75
Q 888.05 52.85 887.95 52.5 887.85 52 887.55 51.6 887.25 51.25 886.65 51.05 886 50.8 885.05 50.8 884 50.8 883.25 51.05 882.5 51.35 882.1 51.85 881.7 52.35 881.5 53.2
L 882.8 53.35
Q 883 52.55 883.45 52.2 883.9 51.9 884.85 51.9 885.85 51.9 886.35 52.35 886.7 52.65 886.7 53.45
M 886.7 54.85
L 886.7 55.35
Q 886.7 56.2 886.5 56.65 886.2 57.25 885.6 57.55 885.05 57.9 884.25 57.9 883.5 57.9 883.1 57.55 882.7 57.2 882.7 56.65 882.7 56.3 882.9 56.05 883.05 55.75 883.4 55.6 883.75 55.45 884.55 55.35 886 55.15 886.7 54.85
M 863.95 50.95
L 862.65 50.95 862.65 58.75 863.95 58.75 863.95 50.95
M 872.2 53.25
Q 871.95 52.1 871.15 51.45 870.35 50.8 869.1 50.8 868.1 50.8 867.25 51.25 866.35 51.75 865.95 52.7 865.55 53.65 865.55 54.9 865.55 56.85 866.5 57.9 867.5 58.95 869.05 58.95 870.35 58.95 871.25 58.15 872.1 57.4 872.3 56.05
L 871 55.9
Q 870.9 56.9 870.35 57.35 869.85 57.85 869.05 57.85 868.1 57.85 867.5 57.15 866.9 56.4 866.9 54.85 866.9 53.3 867.5 52.6 868.15 51.9 869.15 51.9 869.8 51.9 870.25 52.3 870.7 52.65 870.9 53.45
L 872.2 53.25
M 840.4 61.6
Q 840.85 61.3 841.2 60.65 841.5 60.15 841.95 58.9
L 844.9 50.95 843.6 50.95 841.95 55.5
Q 841.6 56.35 841.4 57.3 841.15 56.35 840.85 55.5
L 839.2 50.95 837.8 50.95 840.75 58.75 840.65 59.1 840.2 60.05
Q 840.05 60.35 839.8 60.5 839.55 60.65 839.1 60.65 838.75 60.65 838.35 60.5
L 838.5 61.75
Q 838.95 61.9 839.35 61.9 839.95 61.9 840.4 61.6
M 874.75 48
L 873.45 48 873.45 58.75 874.75 58.75 874.75 54.5
Q 874.75 53.6 875 53.05 875.2 52.55 875.7 52.25 876.25 51.95 876.8 51.95 877.6 51.95 878.05 52.4 878.45 52.85 878.45 53.8
L 878.45 58.75 879.75 58.75 879.75 53.8
Q 879.75 52.7 879.5 52.1 879.2 51.5 878.6 51.15 877.95 50.8 877.1 50.8 875.7 50.8 874.75 51.85
L 874.75 48
M 863.95 48
L 862.65 48 862.65 49.55 863.95 49.55 863.95 48
M 860.55 48
L 858.65 48 855.5 57.2 852.45 48 850.3 48 850.3 58.75 851.7 58.75 851.7 49.6 854.8 58.75 856.05 58.75 859.2 49.75 859.2 58.75 860.55 58.75 860.55 48
M 800.8 55.3
L 800.8 50.95 799.45 50.95 799.45 55.8
Q 799.45 56.65 799.55 57 799.65 57.6 799.95 58 800.25 58.4 800.85 58.65 801.45 58.95 802.1 58.95 803.7 58.95 804.6 57.6
L 804.6 58.75 805.75 58.75 805.75 50.95 804.45 50.95 804.45 55.15
Q 804.45 56.15 804.25 56.65 804 57.2 803.5 57.5 803 57.8 802.4 57.8 801.8 57.8 801.4 57.5 801 57.2 800.85 56.7 800.8 56.3 800.8 55.3
M 789.3 48
L 787.15 48 787.15 58.75 788.55 58.75 788.55 49.6 791.65 58.75 792.9 58.75 796.05 49.75 796.05 58.75 797.4 58.75 797.4 48 795.5 48 792.35 57.2 789.3 48
M 812.15 53.15
L 813.45 53
Q 813.3 52.2 812.95 51.8 812.65 51.3 811.95 51.05 811.25 50.8 810.35 50.8 809.75 50.8 809.2 50.95 808.7 51.1 808.35 51.35 807.95 51.65 807.7 52.1 807.5 52.5 807.5 53.05 807.5 53.6 807.75 54.1 808.05 54.55 808.6 54.8 809.2 55.1 810.65 55.45 811.7 55.75 812 55.9 812.35 56.15 812.35 56.6 812.35 57.1 811.95 57.5 811.5 57.85 810.6 57.85 809.7 57.85 809.2 57.4 808.7 57 808.55 56.2
L 807.25 56.45
Q 807.5 57.65 808.3 58.3 809.05 58.95 810.6 58.95 811.5 58.95 812.25 58.6 812.95 58.3 813.35 57.7 813.7 57.1 813.7 56.45 813.7 55.8 813.4 55.35 813.1 54.9 812.55 54.65 812 54.4 810.6 54.05
L 809.4 53.7
Q 809.1 53.55 808.9 53.35 808.75 53.15 808.75 52.9 808.75 52.5 809.15 52.2 809.55 51.9 810.45 51.9 811.2 51.9 811.65 52.2 812.05 52.55 812.15 53.15
M 816.6 50.95
L 815.3 50.95 815.3 58.75 816.6 58.75 816.6 50.95
M 823.8 51.45
Q 823 50.8 821.75 50.8 820.75 50.8 819.9 51.25 819 51.75 818.6 52.7 818.2 53.65 818.2 54.9 818.2 56.85 819.15 57.9 820.15 58.95 821.7 58.95 823 58.95 823.9 58.15 824.75 57.4 824.95 56.05
L 823.65 55.9
Q 823.55 56.9 823 57.35 822.5 57.85 821.7 57.85 820.75 57.85 820.15 57.15 819.55 56.4 819.55 54.85 819.55 53.3 820.15 52.6 820.8 51.9 821.8 51.9 822.45 51.9 822.9 52.3 823.35 52.65 823.55 53.45
L 824.85 53.25
Q 824.6 52.1 823.8 51.45
M 831.55 48
L 830.25 48 830.25 58.75 831.45 58.75 831.45 57.8
Q 832.25 58.95 833.6 58.95 835 58.95 836 57.85 837 56.75 837 54.75 837 53.9 836.75 53.15 836.5 52.4 836.1 51.9 835.7 51.35 835.05 51.1 834.4 50.8 833.7 50.8 832.4 50.8 831.55 51.85
L 831.55 48
M 832.05 52.65
Q 832.7 51.9 833.55 51.9 834.4 51.9 835.05 52.6 835.65 53.35 835.65 54.85 835.65 56.35 835 57.1 834.35 57.85 833.5 57.85 832.45 57.85 831.8 56.8 831.45 56.2 831.45 54.8 831.45 53.4 832.05 52.65
M 816.6 48
L 815.3 48 815.3 49.55 816.6 49.55 816.6 48
M 920.4 13.4
L 917.85 13.4 917.85 30 920.65 30 920.65 20.95
Q 920.65 17.75 922 16.6 923.3 15.45 925.1 15.45 926.2 15.45 927.05 16 927.9 16.5 928.2 17.35 928.55 18.2 928.55 19.9
L 928.55 30 931.35 30 931.35 19.8
Q 931.35 17.85 931.2 17.05 930.95 15.85 930.3 15 929.7 14.1 928.45 13.6 927.15 13.05 925.65 13.05 922.2 13.05 920.4 15.75
L 920.4 13.4
M 935.4 17.25
Q 934.55 19.25 934.55 21.6 934.55 25.05 936.4 27.55 938.3 30 941.7 30 944.45 30 946.3 27.85 946.3 30.6 946.1 31.45 945.7 32.85 944.65 33.65 943.6 34.4 941.65 34.4 939.85 34.4 938.8 33.65 938 33.05 937.85 31.8
L 935.1 31.4
Q 935.05 34.05 936.85 35.4 938.7 36.75 941.65 36.75 944.15 36.75 945.9 35.8 947.6 34.85 948.4 33.25 949.15 31.65 949.15 27.75
L 949.15 13.4 946.55 13.4 946.55 15.4
Q 944.65 13.05 941.7 13.05 939.5 13.05 937.9 14.15 936.25 15.2 935.4 17.25
M 937.4 21.4
Q 937.4 18.4 938.75 16.9 940.05 15.35 941.9 15.35 943.85 15.35 945.2 16.9 946.55 18.45 946.55 21.5 946.55 24.7 945.2 26.2 943.9 27.65 941.95 27.65 940 27.65 938.7 26.15 937.4 24.65 937.4 21.4
M 913.55 23.05
L 913.55 19.3
Q 913.55 17.4 913.4 16.7 913.15 15.55 912.55 14.8 911.9 14.05 910.6 13.55 909.25 13.05 907.15 13.05 905 13.05 903.35 13.65 901.75 14.2 900.9 15.3 900 16.4 899.65 18.15
L 902.4 18.5
Q 902.85 16.75 903.8 16.05 904.75 15.35 906.7 15.35 908.85 15.35 909.9 16.3 910.7 17 910.7 18.75
L 910.7 19.45
Q 909.1 20.05 905.7 20.45
L 903.2 20.85
Q 902.05 21.15 901.15 21.8 900.25 22.4 899.7 23.4 899.15 24.4 899.15 25.65 899.15 27.7 900.65 29.05 902.1 30.4 904.85 30.4 906.5 30.4 907.95 29.85 909.4 29.3 910.95 27.95 911.05 29.15 911.5 30
L 914.45 30
Q 913.9 29.05 913.75 28 913.55 26.95 913.55 23.05
M 903.65 23.3
Q 904.4 23 906.1 22.75 909.15 22.3 910.7 21.65
L 910.7 22.7
Q 910.7 24.55 910.25 25.5 909.65 26.75 908.4 27.45 907.15 28.15 905.5 28.15 903.85 28.15 903 27.4 902.15 26.65 902.15 25.55 902.15 24.8 902.55 24.2 902.95 23.6 903.65 23.3
M 893.25 30
L 895.75 30 895.75 13.4 892.95 13.4 892.95 22.3
Q 892.95 24.4 892.5 25.55 892 26.65 890.9 27.3 889.8 27.95 888.55 27.95 887.25 27.95 886.4 27.35 885.55 26.7 885.3 25.6 885.1 24.8 885.1 22.6
L 885.1 13.4 882.3 13.4 882.3 23.7
Q 882.3 25.5 882.45 26.3 882.7 27.55 883.35 28.4 883.95 29.25 885.25 29.8 886.5 30.4 887.95 30.4 891.3 30.4 893.25 27.55
L 893.25 30
M 877.7 7.1
L 874.65 7.1 874.65 16.5 862.75 16.5 862.75 7.1 859.7 7.1 859.7 30 862.75 30 862.75 19.2 874.65 19.2 874.65 30 877.7 30 877.7 7.1
M 839.3 23
L 835.85 13.4 832.8 13.4 839.1 30.05 838 32.8
Q 837.65 33.4 837.1 33.7 836.5 34 835.6 34 834.9 34 833.95 33.75
L 834.3 36.4
Q 835.3 36.75 836.1 36.75 837.45 36.75 838.4 36.1 839.4 35.45 840.15 34.05 840.7 33 841.7 30.3
L 848 13.4 845.2 13.4 841.65 23.1
Q 841 24.9 840.5 26.85 839.95 24.85 839.3 23
M 831.8 16.55
L 832.75 13.95
Q 831.3 13.05 829.85 13.05 828.85 13.05 828.05 13.6 827.25 14.15 826.25 15.9
L 826.25 13.4 823.75 13.4 823.75 30 826.55 30 826.55 21.3
Q 826.55 19.55 827 18.05 827.3 17.05 828.05 16.5 828.8 15.95 829.7 15.95 830.75 15.95 831.8 16.55
M 819.3 16.7
Q 819.05 15.55 818.45 14.8 817.8 14.05 816.5 13.55 815.15 13.05 813.05 13.05 810.9 13.05 809.25 13.65 807.65 14.2 806.8 15.3 805.9 16.4 805.55 18.15
L 808.3 18.5
Q 808.75 16.75 809.7 16.05 810.65 15.35 812.6 15.35 814.75 15.35 815.8 16.3 816.6 17 816.6 18.75
L 816.6 19.45
Q 815 20.05 811.6 20.45
L 809.1 20.85
Q 807.95 21.15 807.05 21.8 806.15 22.4 805.6 23.4 805.05 24.4 805.05 25.65 805.05 27.7 806.55 29.05 808 30.4 810.75 30.4 812.4 30.4 813.85 29.85 815.3 29.3 816.85 27.95 816.95 29.15 817.4 30
L 820.35 30
Q 819.8 29.05 819.65 28 819.45 26.95 819.45 23.05
L 819.45 19.3
Q 819.45 17.4 819.3 16.7
M 816.6 21.65
L 816.6 22.7
Q 816.6 24.55 816.15 25.5 815.55 26.75 814.3 27.45 813.05 28.15 811.4 28.15 809.75 28.15 808.9 27.4 808.05 26.65 808.05 25.55 808.05 24.8 808.45 24.2 808.85 23.6 809.55 23.3 810.3 23 812 22.75 815.05 22.3 816.6 21.65
M 802.65 22.75
L 799.6 21.95
Q 799 24.85 797.2 26.35 795.45 27.8 792.9 27.8 790.8 27.8 789 26.7 787.2 25.65 786.4 23.45 785.5 21.3 785.5 18.35 785.5 16.1 786.25 13.95 786.95 11.85 788.75 10.55 790.5 9.3 793.15 9.3 795.45 9.3 796.95 10.45 798.45 11.6 799.25 14.1
L 802.25 13.4
Q 801.35 10.2 799 8.45 796.65 6.7 793.2 6.7 790.2 6.7 787.65 8.1 785.15 9.45 783.75 12.15 782.4 14.8 782.4 18.4 782.4 21.65 783.6 24.5 784.8 27.4 787.15 28.9 789.45 30.4 793.15 30.4 796.75 30.4 799.2 28.45 801.7 26.45 802.65 22.75
M 762.95 23
L 759.5 13.4 756.45 13.4 762.75 30.05 761.65 32.8
Q 761.3 33.4 760.75 33.7 760.15 34 759.25 34 758.55 34 757.6 33.75
L 757.95 36.4
Q 758.95 36.75 759.75 36.75 761.1 36.75 762.05 36.1 763.05 35.45 763.8 34.05 764.35 33 765.35 30.3
L 771.65 13.4 768.85 13.4 765.3 23.1
Q 764.65 24.9 764.15 26.85 763.6 24.85 762.95 23
M 752.3 9.95
Q 751.4 8.5 749.8 7.8 748.2 7.1 745.6 7.1
L 737 7.1 737 30 745.75 30
Q 747.9 30 749.45 29.65 750.95 29.25 751.95 28.5 752.95 27.75 753.6 26.35 754.3 24.95 754.3 23.35 754.3 21.35 753.2 19.9 752.05 18.4 750 17.8 751.6 17 752.4 15.7 753.2 14.4 753.2 12.95 753.2 11.4 752.3 9.95
M 750.2 13.3
Q 750.2 14.5 749.6 15.3 749.05 16.1 747.85 16.45 747 16.7 745 16.7
L 740.05 16.7 740.05 9.8 744.6 9.8
Q 747.05 9.8 748.1 10.15 749.1 10.45 749.65 11.3 750.2 12.15 750.2 13.3
M 750.5 21.15
Q 751.15 22.1 751.15 23.35 751.15 24.45 750.7 25.3 750.25 26.15 749.55 26.55 748.85 27 747.8 27.2
L 740.05 27.3 740.05 19.4 745.3 19.4
Q 747.5 19.4 748.7 19.8 749.85 20.2 750.5 21.15 Z"/>
</g>

<g id="Layer0_1_MEMBER_0_MEMBER_0_MEMBER_0_FILL">
<path fill="#000000" stroke="none" d="
M 169.6 238.45
L 167.85 238.45 167.05 267.15 183.9 267.15
Q 182.85 261.65 177.35 260.5 173.9 260 170.6 261.25
L 169.6 238.45
M 208.05 238.45
L 206.25 238.45 205.4 267.15 222.35 267.15
Q 221.25 261.65 215.75 260.5 212.25 260 209.05 261.25
L 208.05 238.45
M 247.1 238
Q 248.25 236.1 247.65 233.9 247.1 231.8 245.15 230.65 244 230.05 242.75 229.95
L 236.1 208.25 234.4 208.75 239.55 230.85
Q 238.5 231.5 237.8 232.65 236.7 234.55 237.3 236.7 237.85 238.95 239.75 240 241.75 241.15 243.85 240.5 246 239.9 247.1 238
M 278.85 237.25
L 277.25 237.25 279.45 267.25 294.25 267.25
Q 292.75 261.5 287.85 260.3 284.7 259.7 282 261.15
L 278.85 237.25
M 296.2 237.25
L 294.6 237.25 296.75 267.25 311.6 267.25
Q 310.1 261.5 305.2 260.3 302 259.7 299.35 261.15
L 296.2 237.25
M 70.9 237.9
L 69.3 237.9 68.8 267.5 83.9 267.4
Q 82.85 261.7 77.9 260.65 74.95 260 71.9 261.5
L 70.9 237.9
M 110.8 237.7
L 109.25 237.7 108.75 267.4 123.8 267.25
Q 122.65 261.45 117.8 260.5 114.75 259.9 111.8 261.3
L 110.8 237.7
M 177.6 145.9
Q 177.55 145.15 177 144.4 176.45 143.65 176.1 143.85
L 188.05 125.85 187.1 124.25 170.25 146.1 174.9 154.1 175 154 184.15 153.65
Q 184.5 148.8 181.85 146.5 179.55 144.75 177.6 145.9
M 224.9 124.25
L 208.1 146.1 212.8 154.1 212.85 154 222.05 153.65
Q 222.35 148.75 219.65 146.5 217.4 144.75 215.5 145.9 215.35 145.1 214.85 144.4 214.3 143.65 213.9 143.85
L 225.85 125.85 224.9 124.25
M 535.5 287.15
L 537 287.8
Q 538.35 286.2 540.4 285.4 543.8 283.85 548.05 284.75 552.95 285.7 555.75 289.5 557.45 291.75 557.75 294
L 557.65 294
Q 555.7 294.7 554.7 296.5 553.7 298.3 554.3 300.3 555 302.35 556.75 303.15 558.65 304.05 560.65 303.4 562.55 302.8 563.55 300.9 564.6 299.15 563.95 297.15 563.35 295.3 561.7 294.4 561.15 291.3 558.75 288.5 555 284.05 548.9 283 543.85 282.05 539.65 283.9 537 285.15 535.5 287.15
M 440.2 310.5
Q 438.8 307.55 437.2 305.5
L 436.5 306.25 438.85 311.25
Q 440.6 315.3 439.7 320.5 439.1 323.85 435 328.75 431.75 332.9 428.7 335.25
L 443.1 341.15
Q 443.65 335.15 439.2 332.15
L 437 331.05
Q 440.9 327 441.6 320.5 442.2 315 440.2 310.5
M 485 320.15
Q 482.35 320.15 480 320.9
L 480.25 321.75 485.1 321.65
Q 488.85 321.65 492.45 324.55 494.65 326.4 496.7 332.05 498.4 337 498.85 340.4 501.65 341.7 505.7 342.3 511.5 343.2 512.25 340.25 513.1 337 508.75 335.15 504.4 333.3 500.2 335.15 499.2 331.8 497.5 328.5 495.25 324.25 493.25 322.75 489.3 320.1 485 320.15
M 389.2 255.65
Q 393.3 254.45 396.75 255.65 398.9 256.45 400.1 257.75
L 401.6 257
Q 400.1 255.25 397.5 254.2 393.25 252.7 388.35 253.9 382.25 255.5 378.7 260 376.4 262.9 376 265.8 374.3 266.9 373.85 268.65 373.3 270.65 374.35 272.25 375.35 274 377.35 274.5 379.25 275.05 381.1 274 382.85 273.05 383.45 271 383.9 269.1 382.95 267.4 381.85 265.7 379.95 265.25
L 379.85 265.15
Q 380.15 262.9 381.75 260.65 384.45 256.9 389.2 255.65
M 360.6 261.25
Q 358.05 259.8 354.85 260.4 349.85 261.6 348.35 267.4
L 363.25 267.3 365.35 237.4 363.85 237.4 360.6 261.25
M 348.1 237.5
L 346.5 237.5 343.35 261.4
Q 340.7 259.95 337.5 260.55 332.6 261.75 331.1 267.5
L 345.95 267.5 348.1 237.5
M 326.95 180.7
Q 329 178.25 329 174.5 328.85 168.55 323.35 164.45
L 322.1 171.35 322.1 164.5
Q 315.9 167.5 314.7 173.4 313.95 177 315.5 179.85
L 289.95 188.5 289.95 190.35 321.35 181.65 349.85 195.65 350.25 193.9 326.95 180.7 Z"/>
</g>

<g id="Layer0_2_MEMBER_0_MEMBER_0_MEMBER_0_FILL">
<path fill="#F1CB7C" stroke="none" d="
M 370.35 98.5
L 365.5 98.35
Q 358.8 97.6 353.7 95.35
L 343.75 242.15 360.6 243.2 370.35 98.5 Z"/>
</g>

<g id="Layer0_2_MEMBER_0_MEMBER_0_MEMBER_1_FILL">
<path fill="#E2B767" stroke="none" d="
M 378.85 96.75
Q 374.8 98.35 370.35 98.5
L 360.6 243.2 368.85 243.85 378.85 96.75 Z"/>
</g>

<g id="Layer0_2_MEMBER_0_MEMBER_0_MEMBER_2_FILL">
<path fill="#C4842D" stroke="none" d="
M 353.7 95.35
L 350.6 93.75 340.7 244.85 371.7 246.85 382 95.35
Q 381.9 95.25 382.1 95.1
L 382.1 94.95 378.85 96.75 368.85 243.85 343.75 242.15 353.7 95.35 Z"/>
</g>

<g id="Layer0_2_MEMBER_0_MEMBER_0_MEMBER_3_FILL">
<path fill="#C62222" stroke="none" d="
M 352.35 59.3
L 352.35 59.35
Q 345.6 65.15 344.1 76.85 342.65 88.85 349.7 93.2
L 353.7 95.35
Q 358.8 97.6 365.5 98.35
L 370.35 98.5
Q 374.8 98.35 378.85 96.75
L 382.1 94.95 382.2 95
Q 390.35 89.55 389.6 78.7 388.75 67.25 384.85 63.25 380.9 59.1 378.6 57.55 373.9 54.45 368.1 54 359.05 53.4 352.35 59.3
M 356.6 93.6
L 353.85 92.45
Q 352.05 91.45 351.2 90.85
L 350.1 90.1
Q 345.8 86.2 346.85 77.1 348.2 66.65 354.1 61.35 360.05 56.25 367.85 56.75 372.9 57.05 377.1 59.8
L 378.2 60.55
Q 381.05 78.6 370.2 87.35 367.65 89.45 364.5 90.95 361.1 92.45 356.6 93.6 Z"/>
</g>

<g id="Layer0_2_MEMBER_0_MEMBER_0_MEMBER_4_FILL">
<path fill="#DC3A3A" stroke="none" d="
M 351.2 90.85
Q 352.05 91.45 353.85 92.45
L 356.6 93.6
Q 361.1 92.45 364.5 90.95 367.65 89.45 370.2 87.35 381.05 78.6 378.2 60.55
L 377.1 59.8
Q 372.9 57.05 367.85 56.75 360.05 56.25 354.1 61.35 348.2 66.65 346.85 77.1 345.8 86.2 350.1 90.1
L 351.2 90.85 Z"/>
</g>

<g id="Layer0_3_MEMBER_0_MEMBER_0_MEMBER_0_FILL">
<path fill="#B97800" stroke="none" d="
M 294.7 105.85
L 291.35 106.1 300.6 223.2 271.95 225.45 262.25 108.35 259.7 108.6 269.2 228.9 272.85 228.6 273.1 228.6 303.6 226.2 294.7 105.85 Z"/>
</g>

<g id="Layer0_3_MEMBER_0_MEMBER_0_MEMBER_1_FILL">
<path fill="#F3D08F" stroke="none" d="
M 284.25 245.9
L 291.85 245.35 300.1 226.4 280.85 227.95 280.75 228.1 284.25 245.9 Z"/>
</g>

<g id="Layer0_3_MEMBER_0_MEMBER_0_MEMBER_2_FILL">
<path fill="#BD8A2B" stroke="none" d="
M 272.85 228.65
L 272.85 228.6 269.2 228.9 280.85 246.15 284.25 245.9 272.85 228.65
M 295.25 245
L 303.6 226.2 300.1 226.4 291.85 245.35 295.25 245 Z"/>
</g>

<g id="Layer0_3_MEMBER_0_MEMBER_0_MEMBER_3_FILL">
<path fill="#F0C575" stroke="none" d="
M 273.1 228.6
L 272.85 228.65 284.25 245.9 280.75 228.1 280.85 227.95 273.1 228.6 Z"/>
</g>

<g id="Layer0_3_MEMBER_0_MEMBER_0_MEMBER_4_FILL">
<path fill="#333333" stroke="none" d="
M 280.85 246.15
L 289.35 258.5 295.25 245 280.85 246.15 Z"/>
</g>

<g id="Layer0_3_MEMBER_0_MEMBER_0_MEMBER_5_FILL">
<path fill="#FFA909" stroke="none" d="
M 283.85 106.7
L 271.25 107.7 280.5 224.7 280.6 224.85 293.1 223.85 283.85 106.7 Z"/>
</g>

<g id="Layer0_3_MEMBER_0_MEMBER_0_MEMBER_6_FILL">
<path fill="#E89700" stroke="none" d="
M 271.25 107.7
L 262.25 108.35 271.95 225.45 280.6 224.85 280.5 224.7 271.25 107.7 Z"/>
</g>

<g id="Layer0_3_MEMBER_0_MEMBER_0_MEMBER_7_FILL">
<path fill="#FFBF48" stroke="none" d="
M 291.35 106.1
L 283.85 106.7 293.1 223.85 300.6 223.2 291.35 106.1 Z"/>
</g>

<g id="Layer0_3_MEMBER_0_MEMBER_0_MEMBER_8_FILL">
<path fill="#C3C3C3" stroke="none" d="
M 292.6 80.1
L 283.7 80.85 285.7 106.5 294.7 105.85 292.6 80.1 Z"/>
</g>

<g id="Layer0_3_MEMBER_0_MEMBER_0_MEMBER_9_FILL">
<path fill="#B5B5B5" stroke="none" d="
M 283.7 80.85
L 257.7 82.85 259.7 108.6 285.7 106.5 283.7 80.85 Z"/>
</g>

<g id="Layer0_3_MEMBER_0_MEMBER_0_MEMBER_10_FILL">
<path fill="#E17389" stroke="none" d="
M 269.25 81.95
L 267.75 63.7 264.85 63.95
Q 259.3 64.3 259.75 70.6
L 260.75 82.6 269.25 81.95 Z"/>
</g>

<g id="Layer0_3_MEMBER_0_MEMBER_0_MEMBER_11_FILL">
<path fill="#CC536B" stroke="none" d="
M 264.85 63.95
L 281.7 62.55
Q 286.45 62.25 287.85 65.7
L 288.35 67.2 289.35 80.35 292.6 80.1 292.7 80.1 291.35 66.2
Q 290.6 62.85 287.75 61.05 285.65 59.8 282.45 59.85
L 264.2 61.25
Q 256.3 61.95 256.6 70.45
L 257.7 82.85 260.75 82.6 259.75 70.6
Q 259.3 64.3 264.85 63.95 Z"/>
</g>

<g id="Layer0_3_MEMBER_0_MEMBER_0_MEMBER_12_FILL">
<path fill="#E47E93" stroke="none" d="
M 267.75 63.7
L 269.25 81.95 289.35 80.35 288.35 67.2 287.85 65.7
Q 286.45 62.25 281.7 62.55
L 267.75 63.7 Z"/>
</g>

<g id="Layer0_4_MEMBER_0_MEMBER_0_MEMBER_0_FILL">
<path fill="#000000" stroke="none" d="
M 282 57.5
Q 279.9 57.45 278.1 58.85 276.3 60.35 275.95 62.45 275.65 63.6 276 64.75
L 258.45 79.95 259.45 81.2 277.85 67.2
Q 279 67.8 280.1 67.85 282.3 67.95 284 66.45 285.75 65.1 286.2 62.95 286.55 60.8 285.35 59.2 284.1 57.6 282 57.5 Z"/>
</g>

<g id="Layer0_5_MEMBER_0_MEMBER_0_MEMBER_0_FILL">
<path fill="#24B814" stroke="none" d="
M 206.75 18.15
Q 199.85 47.8 214.85 69.45 229.7 99.05 224.75 131.25
L 240.4 133.65 257.25 26 206.75 18.15
M 257.2 18.75
Q 253.7 19.85 249.65 17.55
L 205.55 10.65 205.65 11.75 256 19.55 261.1 23.3
Q 262.9 23.75 264.35 24.4
L 257.2 18.75 Z"/>
</g>

<g id="Layer0_5_MEMBER_0_MEMBER_0_MEMBER_1_FILL">
<path fill="#139CB9" stroke="none" d="
M 214.85 69.45
Q 199.85 47.8 206.75 18.15
L 172 12.7 155.15 120.45 224.75 131.25
Q 229.7 99.05 214.85 69.45
M 205.65 11.75
L 205.55 10.65 165.85 4.45 149.1 112.2 151.5 112.6 150.6 110.7 167.05 5.7 205.65 11.75 Z"/>
</g>

<g id="Layer0_5_MEMBER_0_MEMBER_0_MEMBER_2_FILL">
<path fill="#094E59" stroke="none" d="
M 206.75 18.15
L 206.25 15.25 169.65 9.6 153.15 115.6 152.1 122.7 225.15 134.1 224.75 131.25 155.15 120.45 172 12.7 206.75 18.15
M 205.55 10.65
L 205.05 7.85 163.6 1.4 146 114.45 153.05 115.6 153.15 115.6 151.65 112.95 151.55 112.6 151.5 112.6 149.1 112.2 165.85 4.45 205.55 10.65 Z"/>
</g>

<g id="Layer0_5_MEMBER_0_MEMBER_0_MEMBER_3_FILL">
<path fill="#2DE418" stroke="none" d="
M 264.1 26.05
Q 260.7 25.25 257.25 26
L 240.4 133.65
Q 244.9 133.05 247.35 133.65
L 264.1 26.05 Z"/>
</g>

<g id="Layer0_5_MEMBER_0_MEMBER_0_MEMBER_4_FILL">
<path fill="#1E9A10" stroke="none" d="
M 267.85 27.65
Q 266.1 26.65 264.1 26.05
L 247.35 133.65
Q 249.25 134.05 251.05 135.4
L 267.85 27.65 Z"/>
</g>

<g id="Layer0_5_MEMBER_0_MEMBER_0_MEMBER_5_FILL">
<path fill="#FFFFFF" stroke="none" d="
M 261.1 23.3
L 256 19.55 167.05 5.7 150.6 110.7 151.5 112.6 151.55 112.6 151.65 112.95 153.15 115.6 169.65 9.6 257.6 23.25
Q 259.3 23.1 261.1 23.3 Z"/>
</g>

<g id="Layer0_5_MEMBER_0_MEMBER_0_MEMBER_6_FILL">
<path fill="#11580A" stroke="none" d="
M 264.35 24.4
Q 262.9 23.75 261.1 23.3 259.3 23.1 257.6 23.25
L 206.25 15.25 206.75 18.15 257.25 26
Q 260.7 25.25 264.1 26.05 266.1 26.65 267.85 27.65
L 251.05 135.4
Q 249.25 134.05 247.35 133.65 244.9 133.05 240.4 133.65
L 224.75 131.25 225.15 134.1 240.35 136.4
Q 242.9 135.2 246.3 135.65 249.7 136.15 253.35 138.45
L 270.75 26.3 258.25 16.15
Q 254 18.3 250.1 14.9
L 205.05 7.85 205.55 10.65 249.65 17.55
Q 253.7 19.85 257.2 18.75
L 264.35 24.4 Z"/>
</g>

<g id="Layer0_6_MEMBER_0_MEMBER_0_MEMBER_0_FILL">
<path fill="url(#Gradient_1)" stroke="none" d="
M 77.1 125.45
Q 56.8 125.3 50.4 125.95 40.9 127 37.3 131.2 33.8 135.35 32.9 146.1 32.45 151.9 32.4 175.6 32.2 203.55 32.9 208.55 33.5 213 35.2 216.35 36.8 219.3 40.2 223
L 48.65 232.05
Q 52.25 235.5 56.4 237.05 60.95 238.6 69 239.1 76.05 239.6 92 239.65 120.65 239.8 122.6 239.7 133.55 239.1 137.45 235.35 141.45 231.65 142.3 220.8 142.7 216.75 142.85 190.2
L 143 163.7
Q 142.85 154 141.55 149.5 140.2 144.85 136.4 141.5 134.25 139.65 125.45 133.85 117.35 128.55 110.65 127.25 102.2 125.6 77.1 125.45 Z"/>
</g>

<g id="Layer0_7_MEMBER_0_MEMBER_0_MEMBER_0_FILL">
<path fill="#FFFFFF" stroke="none" d="
M 95.95 133.05
Q 99.3 133.1 107.6 134.75 114.6 136.1 120.7 135.75 117.55 133.65 111.9 131.75 106.05 129.9 100.95 129.6 88.3 128.9 65.35 128.9 75.95 132.45 95.95 133.05
M 44.35 134.15
Q 54.35 142.8 63.85 145.7 70.55 147.75 93.3 147.8 116.4 147.9 130.6 145.7 129.05 143.45 124.65 142.55 119.75 141.55 113.05 142.75 87.9 147.4 72.65 144.15 64.15 142.35 57.3 137.05 52.6 133.5 48.05 133.5 45.85 133.45 44.35 134.15 Z"/>
</g>

<g id="Layer0_8_MEMBER_0_MEMBER_0_MEMBER_0_FILL">
<path fill="url(#Gradient_2)" stroke="none" d="
M 34.05 161.1
Q 32.5 179.05 34.5 197.2 36.55 215.4 41 223.1 45.5 230.85 49.8 223.6 54.1 216.4 55.75 198.35 57.35 180.4 55.3 162.25 53.25 143.95 48.8 136.3 44.3 128.6 40 135.9 35.7 143.15 34.05 161.1 Z"/>
</g>

<g id="Layer0_10_MEMBER_0_MEMBER_0_MEMBER_0_FILL">
<path fill="#A30518" stroke="none" d="
M 250.6 182
L 276.5 182 244.6 159.85 250.6 182
M 152.75 181.9
L 177.85 237.15 187.3 182 152.75 181.9
M 152.75 181.9
L 161.85 160.4 124.8 181.9 152.75 181.9
M 124.8 181.9
L 125.8 162.4 105.9 181.9 124.8 181.9
M 250.6 182.1
L 250.55 182 222.1 181.95 197.1 234.15 250.6 182.1 Z"/>
</g>

<g id="Layer0_10_MEMBER_0_MEMBER_0_MEMBER_1_FILL">
<path fill="#FF4255" stroke="none" d="
M 153.9 153.75
L 161.85 160.4 186.55 153.75 153.9 153.75
M 186.6 256.25
L 226.6 219.95 250.6 182.1 186.6 256.25
M 105.9 181.9
L 97.55 181.9 186.6 256.25 177.85 237.15 124.8 181.9 151.75 224.15 105.9 181.9
M 222.1 181.95
L 211.3 160.35 187.3 182 222.1 181.95
M 219.1 153.75
L 211.3 160.35 250.55 182 250.6 182.1 250.6 182 244.6 159.85 219.1 153.75 Z"/>
</g>

<g id="Layer0_10_MEMBER_0_MEMBER_0_MEMBER_2_FILL">
<path fill="#C20518" stroke="none" d="
M 197.1 234.15
L 186.6 256.25 250.6 182.1 197.1 234.15
M 124.8 181.9
L 161.85 160.4 153.9 153.75 125.8 162.4 124.8 181.9
M 152.75 181.9
L 124.8 181.9 177.85 237.15 152.75 181.9
M 161.85 160.4
L 152.75 181.9 187.3 182 161.85 160.4
M 250.6 182
L 250.6 182.1 226.6 219.95 268.35 182 250.6 182
M 222.1 181.95
L 187.3 182 197.1 234.15 222.1 181.95 Z"/>
</g>

<g id="Layer0_10_MEMBER_0_MEMBER_0_MEMBER_3_FILL">
<path fill="#E00518" stroke="none" d="
M 177.85 237.15
L 186.6 256.25 197.1 234.15 187.3 182 177.85 237.15
M 276.5 182
L 268.35 182 186.6 256.25 276.5 182
M 235.8 153.75
L 219.1 153.75 244.6 159.85 235.8 153.75 Z"/>
</g>

<g id="Layer0_10_MEMBER_0_MEMBER_0_MEMBER_4_FILL">
<path fill="#FF2336" stroke="none" d="
M 124.8 181.9
L 105.9 181.9 151.75 224.15 124.8 181.9
M 187.3 182
L 211.3 160.35 186.55 153.75 161.85 160.4 187.3 182 Z"/>
</g>

<g id="Layer0_10_MEMBER_0_MEMBER_0_MEMBER_5_FILL">
<path fill="#D98EAD" stroke="none" d="
M 97.55 181.9
L 105.9 181.9 125.8 162.4 153.9 153.75 138.15 153.75 97.55 181.9 Z"/>
</g>

<g id="Layer0_10_MEMBER_0_MEMBER_0_MEMBER_6_FILL">
<path fill="#FF7F92" stroke="none" d="
M 211.3 160.35
L 222.1 181.95 250.55 182 211.3 160.35
M 211.3 160.35
L 219.1 153.75 186.55 153.75 211.3 160.35 Z"/>
</g>

<g id="Layer0_11_MEMBER_0_MEMBER_0_MEMBER_0_FILL">
<path fill="#64A9E1" fill-opacity="0.7529411764705882" stroke="none" d="
M 545.95 197.7
Q 530.2 170.35 498.3 162.05 466.35 153.8 437.85 171.15 409.3 188.6 400.75 221.45 392.2 254.35 408.7 283.45 425.25 312.55 457.1 320.8 489 329.05 517.15 311.4 545.3 293.8 553.5 259.4 561.7 225 545.95 197.7
M 412.1 280.4
Q 396.25 252.8 404.35 221.7 412.45 190.55 439.7 174.1 466.95 157.75 497.35 165.6 527.8 173.55 542.9 199.45 558 225.4 550.2 258 542.45 290.5 515.65 307.15 488.7 323.85 458.3 315.9 427.85 308.05 412.1 280.4 Z"/>
</g>

<g id="Layer0_11_MEMBER_0_MEMBER_0_MEMBER_1_FILL">
<path fill="url(#Gradient_3)" stroke="none" d="
M 412.1 280.4
Q 427.85 308.05 458.3 315.9 488.7 323.85 515.65 307.15 542.45 290.5 550.2 258 558 225.4 542.9 199.45 527.8 173.55 497.35 165.6 466.95 157.75 439.7 174.1 412.45 190.55 404.35 221.7 396.25 252.8 412.1 280.4 Z"/>
</g>

<g id="Layer0_12_MEMBER_0_MEMBER_0_MEMBER_0_FILL">
<path fill="#FFFFFF" stroke="none" d="
M 499.65 180.2
L 506.55 187.7
Q 511.15 193.05 513.75 198.1 516.65 203.6 518.35 212.05
L 520.6 225.55
Q 521.95 232.55 524.15 235.9 527.1 240.25 532.65 240.75 539.05 241.45 542.45 237 545.6 233 545.9 225.8 546.2 219.05 544.1 211.3 541.95 203.45 538.3 197.75 530.05 184.9 519.1 178.1 508.55 171.5 499.65 172.95 495.95 173.55 496.25 175.4 496.4 176.8 499.65 180.2 Z"/>
</g>

<g id="Layer0_13_MEMBER_0_MEMBER_0_MEMBER_0_FILL">
<path fill="#000000" stroke="none" d="
M 141.8 238.65
Q 140.6 239.05 139.6 239.95 138.1 241.55 138.1 243.75 138.1 246.05 139.6 247.6 141.25 249.15 143.4 249.15 145.6 249.15 147.25 247.6 148.8 245.95 148.8 243.75 148.8 241.6 147.25 239.95 146.2 239 145.1 238.65
L 144.25 216.1 142.4 216.1 141.8 238.65
M 143.25 41.1
Q 142.6 43.05 143.5 45.25 144.4 47.35 146.35 48.25 147.5 48.75 148.75 48.75
L 158.8 69.6 160.3 69 151.4 47.5
Q 152.3 46.75 152.65 45.5 153.35 43.5 152.35 41.45 151.55 39.35 149.55 38.45 147.6 37.5 145.75 38.25 143.85 39.1 143.25 41.1
M 288 158.9
L 287.85 154.35
Q 287.65 146.15 290 145.95 291.9 145.8 293.25 153.45
L 294 157.9
Q 294.3 159.35 294.6 157.9 295.2 155.7 293.95 149.25 292.4 142 289.6 142.2 286.85 142.45 286.45 149.7 286.15 156.1 287.2 158.65 288 160.35 288 158.9
M 268.75 196.1
L 268.75 194.5
Q 266.55 194.8 264.35 196.5 261.05 199 259.5 203.75 257.85 209.45 259.85 214.65 261.35 218.1 263.5 219.75 263.5 221.5 264.75 222.9 266.1 224.25 268.1 224.35 270.15 224.35 271.5 223 272.95 221.65 273 219.7 273 217.7 271.6 216.35 270.25 214.9 268.25 214.9 266.35 214.8 264.95 216.2
L 264.85 216.25
Q 263.05 215 262 212.5 260.05 208.55 261.35 203.9 262.45 199.95 265.2 197.75 266.95 196.3 268.75 196.1
M 275.1 174.9
L 274.5 174.65 274.35 175.65
Q 273.75 180.9 274.85 184.75
L 275.45 186.25 275.35 186.25 276 187.7 276 187.65
Q 278.25 192.2 282.5 193.65 286.65 195.1 290.75 193.5 295.15 191.65 298 186.9
L 298.35 186.6 298.25 185.9
Q 298 184.65 298 182.75 297.95 178.7 300.5 174.25 292.95 177.4 286.5 177.4 281.5 177.25 275.1 174.9
M 276.1 183.65
Q 275.25 180.7 275.6 177.4 281.55 179.6 286.6 179.7 291.5 179.85 297.1 177.9 296.6 180.05 296.6 182.1 286.35 185.3 276.1 183.65
M 282.7 191.4
Q 278.95 190.15 277.1 186.25
L 276.6 185.4
Q 286.95 186.75 296.6 183.65
L 296.75 185.65
Q 294.25 189.65 290.25 191.25 286.5 192.7 282.7 191.4
M 221.8 184.9
L 217.15 185.5 216.8 185.75 216.6 186.2 216.8 186.6 217.15 186.7 224.1 186.7 225.85 186.4
Q 226.75 186 226.85 185.45 227.5 183.5 227.5 181.2 227.5 178.6 226.6 176.4 225.7 174.4 224.4 174.4 223.1 174.4 222.25 176.4 221.35 178.45 221.35 181.2 221.35 183.25 221.8 184.9
M 179.3 186.1
L 178.85 186.35 178.75 186.75 178.85 187.15 179.3 187.25 186.15 187.25 188 186.9
Q 188.9 186.4 188.9 186 189.6 184.15 189.6 181.75 189.6 178.9 188.65 176.95 187.75 174.95 186.55 174.95 185.2 174.95 184.35 176.95 183.4 179.1 183.4 181.75 183.4 183.85 183.85 185.4
L 179.3 186.1
M 260.45 90.35
Q 260.2 89.95 259.7 89.95 248.9 90.1 240.5 88.1 232.7 86.25 223.6 81.85
L 222.8 81.5 222.25 82.2
Q 217.25 89.55 219.85 95.25 223.4 103.7 232.15 106 237.25 107.3 242.75 106.85 248.8 106.4 253.05 104.45 256.95 102.6 255.6 101.7
L 255.1 101.85
Q 250.3 104.65 241.4 104.95
L 232.85 103.85 232.6 103.75
Q 225 101.3 221.9 94.6
L 221.85 94.35
Q 220 89.85 223.55 84.35 232.15 88.5 240 90.25
L 240.05 90.25
Q 248.25 92.2 258.5 92.2
L 259.7 92.2 260.5 91.85
Q 260.75 91.5 260.85 91.1
L 260.45 90.35
M 252.25 68.95
Q 251.8 71.3 252.35 73.1 252.7 74.9 253.85 75.1 254.95 75.25 255.9 73.7 256.9 72.3 257.35 69.85 257.75 67.45 257.25 65.7 256.9 64 255.75 63.75 254.65 63.6 253.65 65.1 252.6 66.7 252.25 68.95
M 259.85 55.25
Q 261.05 55.7 261.1 55.05 261.25 54.5 260.25 53.95 254.1 50.7 249.5 57.2 249.15 57.55 249.3 58
L 249.75 58.75 250.55 58.95
Q 251.05 58.85 251.35 58.5 254.95 53.35 259.85 55.25
M 543.4 257.25
Q 542.3 256.9 541 258.5 539.7 260.2 539.15 262.65 538.5 265.05 538.75 267.15 539.15 269.1 540.2 269.4 541.25 269.75 542.55 268.15 543.8 266.55 544.45 264 545.1 261.35 544.8 259.5 544.5 257.5 543.4 257.25
M 548.55 248.2
Q 549.8 248.85 549.95 248.15 550.1 247.4 549.2 246.85 542.9 242.9 537.45 249.4 537.05 249.9 537.05 250.4
L 537.5 251.15 538.4 251.45
Q 538.9 251.45 539.25 251 543.6 245.75 548.55 248.2
M 372.1 195.9
L 371.6 197.35 389.6 204.75
Q 389.6 205.8 390 206.9 390.8 208.65 392.6 209.4 394.45 210 396.2 209.2 397.85 208.45 398.6 206.65 399.3 204.85 398.5 203.15 397.55 201.3 395.85 200.65 393.95 199.95 392.35 200.85 391.3 201.2 390.6 202.15
L 372.1 195.9
M 352.35 153.45
Q 351.2 153.45 350.25 155.1 349.4 156.8 349.25 159.15 349.1 161.5 349.75 163.4 350.45 165.25 351.5 165.25 352.6 165.35 353.6 163.65 354.45 161.95 354.6 159.6 354.7 157.05 354.1 155.25 353.45 153.55 352.35 153.45
M 349 143.5
Q 349 144.15 350.25 143.95 355.5 143.2 358 149.2 358.15 149.65 358.6 149.9
L 359.5 149.9 360.2 149.25
Q 360.35 148.8 360.1 148.4 357.1 140.85 350.1 142.6 349 142.85 349 143.5 Z"/>
</g>

<g id="Layer0_13_MEMBER_0_MEMBER_0_MEMBER_1_FILL">
<path fill="#FFFFFF" stroke="none" d="
M 275.6 177.4
Q 275.25 180.7 276.1 183.65 286.35 185.3 296.6 182.1 296.6 180.05 297.1 177.9 291.5 179.85 286.6 179.7 281.55 179.6 275.6 177.4
M 276.6 185.4
L 277.1 186.25
Q 278.95 190.15 282.7 191.4 286.5 192.7 290.25 191.25 294.25 189.65 296.75 185.65
L 296.6 183.65
Q 286.95 186.75 276.6 185.4 Z"/>
</g>

<g id="Layer0_13_MEMBER_0_MEMBER_0_MEMBER_2_FILL">
<path fill="#F47171" stroke="none" d="
M 232.6 103.75
Q 232.6 93.05 221.9 94.6 225 101.3 232.6 103.75 Z"/>
</g>

<g id="Layer0_13_MEMBER_0_MEMBER_0_MEMBER_3_FILL">
<path fill="#8C0003" stroke="none" d="
M 256.45 95.95
Q 257.2 93.75 258.5 92.2 248.25 92.2 240.05 90.25
L 240 90.25
Q 232.15 88.5 223.55 84.35 220 89.85 221.85 94.35
L 221.9 94.6
Q 232.6 93.05 232.6 103.75
L 232.85 103.85 241.4 104.95
Q 250.3 104.65 255.1 101.85
L 255.6 101.7
Q 255.5 98.6 256.45 95.95 Z"/>
</g>

<g id="Layer0_14_MEMBER_0_MEMBER_0_MEMBER_0_FILL">
<path fill="#FFFFFF" stroke="none" d="
M 115.8 364.65
L 115.15 363.9 122.3 329.9 238.55 329.9 238.55 267.15 67.25 267.15 41.5 415.05 108 415.05
Q 113.65 406.25 122.65 402.5 131.65 398.5 144.15 398.5 160.25 398.5 170.1 407.9 179.85 417.3 179.85 434.4 179.85 449.95 168.85 459.3 157.65 468.65 141.85 468.65 133.85 468.65 126.3 466.75 119 464.7 113.55 460.25 105.65 453.9 103.55 443.25
L 33.05 443.25
Q 32.3 449.45 33.75 458.25 35.2 467.1 39.4 476.25 43.4 485.85 51.15 494.9 58.95 504.05 70.9 511.15 82.9 518.3 99.9 522.7 116.95 527.2 139.8 527.2 166.75 527.2 187.75 520.3 208.4 513.5 222.75 501.5 236.85 489.5 244.3 472.9 251.6 456.1 251.6 436.65 251.6 413.8 245.15 397.5 238.6 380.8 227.6 370.4 216.45 359.7 201.55 354.65 186.7 349.4 170.25 349.4 156.35 349.4 141.85 352.5 127.35 355.75 115.8 364.65
M 404.75 332.05
Q 388.8 332.05 375.6 338.65 362.35 345.4 354.25 357.3
L 353.5 357.3 353.5 267.15 282.75 267.15 282.75 522.5 351.2 522.5 351.2 502.25 351.6 501.9
Q 354.85 506.4 358.95 510.8 363.2 515.5 369 519 375.35 522.5 384.2 524.8 393.15 527.2 406 527.2 425.7 527.2 440.5 518.6 454.95 509.65 464.6 495.65 474.35 481.35 479 463.8 484.1 446.35 484.1 428.8 484.05 412.85 480.6 395.4 476.7 378 467.75 363.9 459.2 349.95 443.7 341 428.45 332.05 404.75 332.05
M 366.35 388
Q 372.55 383.75 381.85 383.75 391.55 383.75 397.45 388 403.7 392.05 407.1 398.5 410.65 404.75 411.75 412.9 412.95 420.9 413 429.65 412.9 438 411.75 445.9 410.65 454.1 407.1 460.75 403.7 467.3 397.45 471.55 391.6 475.9 381.85 475.9 372.5 475.9 366.35 471.55 360.45 467.4 357 460.75 353.5 454.1 352.35 445.9 351.2 438.15 351.2 429.65 351.2 420.75 352.35 412.9 353.5 404.75 357 398.5 360.45 391.95 366.35 388 Z"/>
</g>

<path id="Layer0_3_MEMBER_1_MEMBER_0_1_STROKES" stroke="#666666" stroke-width="4" stroke-linejoin="miter" stroke-linecap="round" stroke-miterlimit="5" fill="none" d="
M 259.7 108.6
L 257.7 82.85 292.6 80.1 294.7 105.85 259.7 108.6 Z"/>

<path id="Layer0_6_MEMBER_1_MEMBER_0_1_STROKES" stroke="#8CA9DD" stroke-width="2.95" stroke-linejoin="round" stroke-linecap="round" fill="none" d="
M 37.3 131.2
Q 33.8 135.35 32.9 146.1 32.55 150.85 32.4 175.6 32.2 203.55 32.9 208.55 33.6 213.2 35.2 216.35 36.8 219.3 40.2 223
L 48.65 232.05
Q 52.4 235.55 56.4 237.05 60.85 238.55 69 239.15 76.75 239.6 92.05 239.65 120.65 239.8 122.6 239.7 133.55 239.1 137.45 235.35 141.45 231.65 142.35 220.8 142.7 216.55 142.85 190.2
L 143 163.7
Q 142.85 153.85 141.6 149.5 140.15 144.8 136.4 141.5 134.25 139.65 125.45 133.85 117.35 128.55 110.65 127.25 102.2 125.6 77.1 125.45 56.8 125.3 50.4 125.95 41 127 37.3 131.2 Z"/>

<path id="Layer0_9_MEMBER_0_MEMBER_0_1_STROKES" stroke="#000000" stroke-width="2.5" stroke-linejoin="round" stroke-linecap="round" fill="none" d="
M 105.8 209.4
Q 121.6 207.25 140.05 207.25"/>

<path id="Layer0_10_MEMBER_1_MEMBER_0_1_STROKES" stroke="#660014" stroke-width="3" stroke-linejoin="miter" stroke-linecap="round" stroke-miterlimit="12" fill="none" d="
M 138.15 153.75
L 235.8 153.75 276.5 182 186.6 256.25 97.55 181.9 138.15 153.75 Z"/>

<path id="Layer0_13_MEMBER_1_MEMBER_0_1_STROKES" stroke="#000000" stroke-width="1.7" stroke-linejoin="round" stroke-linecap="round" fill="none" d="
M 369.25 177.4
Q 360.85 196.4 347 185.4"/>

<path id="Layer0_13_MEMBER_2_MEMBER_0_1_STROKES" stroke="#000000" stroke-width="2.25" stroke-linejoin="round" stroke-linecap="round" fill="none" d="
M 500.6 274.9
Q 507.65 298.7 535.75 294.8"/>

<path id="Layer0_13_MEMBER_3_MEMBER_0_1_STROKES" stroke="#000000" stroke-width="3" stroke-linejoin="round" stroke-linecap="round" fill="none" d="
M 177.6 198.65
Q 191.8 221.5 221 209.85"/>
</defs>

<g transform="matrix( 1, 0, 0, 1, 0,0) ">
<use xlink:href="#Layer0_0_FILL"/>
</g>

<g transform="matrix( 1, 0, 0, 1, 0,0) ">
<use xlink:href="#Layer0_1_MEMBER_0_MEMBER_0_MEMBER_0_FILL"/>
</g>

<g transform="matrix( 1, 0, 0, 1, 0,0) ">
<use xlink:href="#Layer0_2_MEMBER_0_MEMBER_0_MEMBER_0_FILL"/>
</g>

<g transform="matrix( 1, 0, 0, 1, 0,0) ">
<use xlink:href="#Layer0_2_MEMBER_0_MEMBER_0_MEMBER_1_FILL"/>
</g>

<g transform="matrix( 1, 0, 0, 1, 0,0) ">
<use xlink:href="#Layer0_2_MEMBER_0_MEMBER_0_MEMBER_2_FILL"/>
</g>

<g transform="matrix( 1, 0, 0, 1, 0,0) ">
<use xlink:href="#Layer0_2_MEMBER_0_MEMBER_0_MEMBER_3_FILL"/>
</g>

<g transform="matrix( 1, 0, 0, 1, 0,0) ">
<use xlink:href="#Layer0_2_MEMBER_0_MEMBER_0_MEMBER_4_FILL"/>
</g>

<g transform="matrix( 1, 0, 0, 1, 0,0) ">
<use xlink:href="#Layer0_3_MEMBER_0_MEMBER_0_MEMBER_0_FILL"/>
</g>

<g transform="matrix( 1, 0, 0, 1, 0,0) ">
<use xlink:href="#Layer0_3_MEMBER_0_MEMBER_0_MEMBER_1_FILL"/>
</g>

<g transform="matrix( 1, 0, 0, 1, 0,0) ">
<use xlink:href="#Layer0_3_MEMBER_0_MEMBER_0_MEMBER_2_FILL"/>
</g>

<g transform="matrix( 1, 0, 0, 1, 0,0) ">
<use xlink:href="#Layer0_3_MEMBER_0_MEMBER_0_MEMBER_3_FILL"/>
</g>

<g transform="matrix( 1, 0, 0, 1, 0,0) ">
<use xlink:href="#Layer0_3_MEMBER_0_MEMBER_0_MEMBER_4_FILL"/>
</g>

<g transform="matrix( 1, 0, 0, 1, 0,0) ">
<use xlink:href="#Layer0_3_MEMBER_0_MEMBER_0_MEMBER_5_FILL"/>
</g>

<g transform="matrix( 1, 0, 0, 1, 0,0) ">
<use xlink:href="#Layer0_3_MEMBER_0_MEMBER_0_MEMBER_6_FILL"/>
</g>

<g transform="matrix( 1, 0, 0, 1, 0,0) ">
<use xlink:href="#Layer0_3_MEMBER_0_MEMBER_0_MEMBER_7_FILL"/>
</g>

<g transform="matrix( 1, 0, 0, 1, 0,0) ">
<use xlink:href="#Layer0_3_MEMBER_0_MEMBER_0_MEMBER_8_FILL"/>
</g>

<g transform="matrix( 1, 0, 0, 1, 0,0) ">
<use xlink:href="#Layer0_3_MEMBER_0_MEMBER_0_MEMBER_9_FILL"/>
</g>

<g transform="matrix( 1, 0, 0, 1, 0,0) ">
<use xlink:href="#Layer0_3_MEMBER_0_MEMBER_0_MEMBER_10_FILL"/>
</g>

<g transform="matrix( 1, 0, 0, 1, 0,0) ">
<use xlink:href="#Layer0_3_MEMBER_0_MEMBER_0_MEMBER_11_FILL"/>
</g>

<g transform="matrix( 1, 0, 0, 1, 0,0) ">
<use xlink:href="#Layer0_3_MEMBER_0_MEMBER_0_MEMBER_12_FILL"/>
</g>

<g transform="matrix( 1, 0, 0, 1, 0,0) ">
<use xlink:href="#Layer0_3_MEMBER_1_MEMBER_0_1_STROKES"/>
</g>

<g transform="matrix( 1, 0, 0, 1, 0,0) ">
<use xlink:href="#Layer0_4_MEMBER_0_MEMBER_0_MEMBER_0_FILL"/>
</g>

<g transform="matrix( 1, 0, 0, 1, 0,0) ">
<use xlink:href="#Layer0_5_MEMBER_0_MEMBER_0_MEMBER_0_FILL"/>
</g>

<g transform="matrix( 1, 0, 0, 1, 0,0) ">
<use xlink:href="#Layer0_5_MEMBER_0_MEMBER_0_MEMBER_1_FILL"/>
</g>

<g transform="matrix( 1, 0, 0, 1, 0,0) ">
<use xlink:href="#Layer0_5_MEMBER_0_MEMBER_0_MEMBER_2_FILL"/>
</g>

<g transform="matrix( 1, 0, 0, 1, 0,0) ">
<use xlink:href="#Layer0_5_MEMBER_0_MEMBER_0_MEMBER_3_FILL"/>
</g>

<g transform="matrix( 1, 0, 0, 1, 0,0) ">
<use xlink:href="#Layer0_5_MEMBER_0_MEMBER_0_MEMBER_4_FILL"/>
</g>

<g transform="matrix( 1, 0, 0, 1, 0,0) ">
<use xlink:href="#Layer0_5_MEMBER_0_MEMBER_0_MEMBER_5_FILL"/>
</g>

<g transform="matrix( 1, 0, 0, 1, 0,0) ">
<use xlink:href="#Layer0_5_MEMBER_0_MEMBER_0_MEMBER_6_FILL"/>
</g>

<g transform="matrix( 1, 0, 0, 1, 0,0) ">
<use xlink:href="#Layer0_6_MEMBER_0_MEMBER_0_MEMBER_0_FILL"/>
</g>

<g transform="matrix( 1, 0, 0, 1, 0,0) ">
<use xlink:href="#Layer0_6_MEMBER_1_MEMBER_0_1_STROKES"/>
</g>

<g transform="matrix( 1, 0, 0, 1, 0,0) ">
<use xlink:href="#Layer0_7_MEMBER_0_MEMBER_0_MEMBER_0_FILL"/>
</g>

<g transform="matrix( 1, 0, 0, 1, 0,0) ">
<use xlink:href="#Layer0_8_MEMBER_0_MEMBER_0_MEMBER_0_FILL"/>
</g>

<g transform="matrix( 1, 0, 0, 1, 0,0) ">
<use xlink:href="#Layer0_9_MEMBER_0_MEMBER_0_1_STROKES"/>
</g>

<g transform="matrix( 1, 0, 0, 1, 0,0) ">
<use xlink:href="#Layer0_10_MEMBER_0_MEMBER_0_MEMBER_0_FILL"/>
</g>

<g transform="matrix( 1, 0, 0, 1, 0,0) ">
<use xlink:href="#Layer0_10_MEMBER_0_MEMBER_0_MEMBER_1_FILL"/>
</g>

<g transform="matrix( 1, 0, 0, 1, 0,0) ">
<use xlink:href="#Layer0_10_MEMBER_0_MEMBER_0_MEMBER_2_FILL"/>
</g>

<g transform="matrix( 1, 0, 0, 1, 0,0) ">
<use xlink:href="#Layer0_10_MEMBER_0_MEMBER_0_MEMBER_3_FILL"/>
</g>

<g transform="matrix( 1, 0, 0, 1, 0,0) ">
<use xlink:href="#Layer0_10_MEMBER_0_MEMBER_0_MEMBER_4_FILL"/>
</g>

<g transform="matrix( 1, 0, 0, 1, 0,0) ">
<use xlink:href="#Layer0_10_MEMBER_0_MEMBER_0_MEMBER_5_FILL"/>
</g>

<g transform="matrix( 1, 0, 0, 1, 0,0) ">
<use xlink:href="#Layer0_10_MEMBER_0_MEMBER_0_MEMBER_6_FILL"/>
</g>

<g transform="matrix( 1, 0, 0, 1, 0,0) ">
<use xlink:href="#Layer0_10_MEMBER_1_MEMBER_0_1_STROKES"/>
</g>

<g transform="matrix( 1, 0, 0, 1, 0,0) ">
<use xlink:href="#Layer0_11_MEMBER_0_MEMBER_0_MEMBER_0_FILL"/>
</g>

<g transform="matrix( 1, 0, 0, 1, 0,0) ">
<use xlink:href="#Layer0_11_MEMBER_0_MEMBER_0_MEMBER_1_FILL"/>
</g>

<g transform="matrix( 1, 0, 0, 1, 0,0) ">
<use xlink:href="#Layer0_12_MEMBER_0_MEMBER_0_MEMBER_0_FILL"/>
</g>

<g transform="matrix( 1, 0, 0, 1, 0,0) ">
<use xlink:href="#Layer0_13_MEMBER_0_MEMBER_0_MEMBER_0_FILL"/>
</g>

<g transform="matrix( 1, 0, 0, 1, 0,0) ">
<use xlink:href="#Layer0_13_MEMBER_0_MEMBER_0_MEMBER_1_FILL"/>
</g>

<g transform="matrix( 1, 0, 0, 1, 0,0) ">
<use xlink:href="#Layer0_13_MEMBER_0_MEMBER_0_MEMBER_2_FILL"/>
</g>

<g transform="matrix( 1, 0, 0, 1, 0,0) ">
<use xlink:href="#Layer0_13_MEMBER_0_MEMBER_0_MEMBER_3_FILL"/>
</g>

<g transform="matrix( 1, 0, 0, 1, 0,0) ">
<use xlink:href="#Layer0_13_MEMBER_1_MEMBER_0_1_STROKES"/>
</g>

<g transform="matrix( 1, 0, 0, 1, 0,0) ">
<use xlink:href="#Layer0_13_MEMBER_2_MEMBER_0_1_STROKES"/>
</g>

<g transform="matrix( 1, 0, 0, 1, 0,0) ">
<use xlink:href="#Layer0_13_MEMBER_3_MEMBER_0_1_STROKES"/>
</g>

<g transform="matrix( 1, 0, 0, 1, 0,0) ">
<use xlink:href="#Layer0_14_MEMBER_0_MEMBER_0_MEMBER_0_FILL"/>
</g>
</svg>
