
<svg xmlns="http://www.w3.org/2000/svg" version="1.1" xmlns:xlink="http://www.w3.org/1999/xlink" preserveAspectRatio="none" x="0px" y="0px" width="104px" height="37px" viewBox="0 0 104 37">
<defs>
<g id="Layer0_0_FILL">
<path fill="#FFFFFF" stroke="none" d="
M 104.5 10.05
Q 104.5 0 94.5 0
L 10 0
Q 0 0 0 10.05
L 0 27.3
Q 0 37.3 10 37.3
L 94.5 37.3
Q 104.5 37.3 104.5 27.3
L 104.5 10.05
M 98.75 7.6
L 98.75 21.65
Q 98.75 26.2 96.2 28.45 93.65 30.7 89.15 30.7 84.55 30.7 82.05 28.45 79.55 26.25 79.55 21.65
L 79.55 7.6 84.5 7.6 84.5 21.65
Q 84.5 22.55 84.65 23.45 84.8 24.35 85.3 25
L 86.7 26.1 89.15 26.55
Q 91.75 26.55 92.8 25.35 93.8 24.15 93.8 21.65
L 93.8 7.6 98.75 7.6
M 70.55 7.6
L 75.2 7.6 75.2 30.15 70.25 30.15 60.85 15.05 60.8 15.05 60.8 30.15 56.15 30.15 56.15 7.6 61.1 7.6 70.5 22.75 70.55 22.75 70.55 7.6
M 40.75 16.6
L 51.65 16.6 51.65 20.45 40.75 20.45 40.75 26 52.85 26 52.85 30.15 35.75 30.15 35.75 7.6 52.6 7.6 52.6 11.8 40.75 11.8 40.75 16.6
M 24.4 7.6
L 31.4 7.6 31.4 30.15 26.75 30.15 26.75 14.2 26.7 14.2 21.15 30.15 17.35 30.15 11.8 14.35 11.75 14.35 11.75 30.15 7.1 30.15 7.1 7.6 14.1 7.6 19.35 23.15 19.45 23.15 24.4 7.6 Z"/>
</g>
</defs>

<g transform="matrix( 1, 0, 0, 1, 0,0) ">
<use xlink:href="#Layer0_0_FILL"/>
</g>
</svg>
