
<svg xmlns="http://www.w3.org/2000/svg" version="1.1" xmlns:xlink="http://www.w3.org/1999/xlink" preserveAspectRatio="none" x="0px" y="0px" width="69px" height="69px" viewBox="-21 -21 69 69">
<defs>
<filter id="Filter_1" x="-20%" y="-20%" width="140%" height="140%" color-interpolation-filters="sRGB">
<feColorMatrix in="SourceGraphic" type="matrix" values="1 0 0 0 0 0 1 0 0 0 0 0 1 0 0 0 0 0 0.64 0" result="result1"/>
</filter>

<g id="Symbol_233_0_Layer2_0_FILL">
<path fill="#007700" stroke="none" d="
M 26 3.95
Q 23.85 1.8 21.15 0.9 18.05 -0.2 13.35 0 7.75 0.25 3.9 4.15 0 8 0 13.9 0 19.6 4 23.6 6.2 25.85 8.8 26.7 11.9 27.75 16.8 27.35 22.35 26.65 26.2 22.95 30 19.25 30 13.35 30 7.95 26 3.95
M 20.55 3.05
Q 21.75 3.8 22.75 4.8 26.55 8.6 26.55 13.9 26.55 19.25 22.75 23.05 19.6 26.2 15.05 26.65
L 13.7 26.7
Q 12.2 26.7 10.85 26.4 7.6 25.7 5.25 23.65
L 4.35 22.8 3.6 21.95
Q 2.65 20.8 2.05 19.5 0.85 16.95 0.85 13.9 0.85 8.5 4.4 4.9 7.15 2.15 10.8 1.35 12.15 1.05 13.7 1.05
L 15 1.1 16.5 1.35
Q 17.75 1.6 18.85 2.1
L 19.7 2.5 20.55 3.05
M 21.8 2.05
Q 23.8 3 25.1 4.3 25.95 5.15 26.6 6.05
L 26.9 6.45 27.2 6.85
Q 29.15 9.9 29.15 13.4 29.15 16.05 28.35 18.25
L 28.1 18.8 27.95 19.15
Q 27.1 20.95 25.6 22.4 22.7 25.3 19.7 26.1 21.65 25.35 23.35 23.6 25.15 21.8 26.15 19.6
L 26.35 19.2 26.55 18.65
Q 27.35 16.45 27.35 13.9 27.35 10.1 25.5 7
L 25.25 6.6 24.95 6.15
Q 24.25 5.15 23.35 4.25 22.4 3.3 20.85 2.3 19.25 1.3 18 0.85 19.9 1.15 21.8 2.05 Z"/>

<path fill="#009F00" stroke="none" d="
M 26.9 6.45
L 26.6 6.05 24.95 6.15 25.25 6.6 26.9 6.45
M 27.2 6.85
L 25.5 7
Q 27.35 10.1 27.35 13.9 27.35 16.45 26.55 18.65
L 28.35 18.25
Q 29.15 16.05 29.15 13.4 29.15 9.9 27.2 6.85
M 27.95 19.15
L 28.1 18.8 26.35 19.2 26.15 19.6 27.95 19.15
M 19.7 2.5
L 18.85 2.1 3.6 21.95 4.35 22.8 19.7 2.5
M 15 1.1
L 13.7 1.05
Q 12.15 1.05 10.8 1.35 7.15 2.15 4.4 4.9 0.85 8.5 0.85 13.9 0.85 16.95 2.05 19.5
L 16.5 1.35 15 1.1
M 22.75 4.8
Q 21.75 3.8 20.55 3.05
L 5.25 23.65
Q 7.6 25.7 10.85 26.4 12.2 26.7 13.7 26.7
L 15.05 26.65
Q 19.6 26.2 22.75 23.05 26.55 19.25 26.55 13.9 26.55 8.6 22.75 4.8 Z"/>

<path fill="#00AD04" stroke="none" d="
M 27.2 6.85
L 26.9 6.45 25.25 6.6 25.5 7 27.2 6.85
M 25.1 4.3
Q 23.8 3 21.8 2.05 19.9 1.15 18 0.85 19.25 1.3 20.85 2.3 22.4 3.3 23.35 4.25 24.25 5.15 24.95 6.15
L 26.6 6.05
Q 25.95 5.15 25.1 4.3
M 4.35 22.8
L 5.25 23.65 20.55 3.05 19.7 2.5 4.35 22.8
M 18.85 2.1
Q 17.75 1.6 16.5 1.35
L 2.05 19.5
Q 2.65 20.8 3.6 21.95
L 18.85 2.1 Z"/>

<path fill="#009800" stroke="none" d="
M 26.55 18.65
L 26.35 19.2 28.1 18.8 28.35 18.25 26.55 18.65
M 25.6 22.4
Q 27.1 20.95 27.95 19.15
L 26.15 19.6
Q 25.15 21.8 23.35 23.6 21.65 25.35 19.7 26.1 22.7 25.3 25.6 22.4 Z"/>
</g>

<g id="Symbol_233_0_Layer1_0_FILL">
<path fill="#007700" stroke="none" d="
M 23.75 8.3
Q 23.65 8.2 23.2 8.2
L 16.35 8.2
Q 15.85 8.2 15.75 8.3 15.55 8.4 15.4 9.4
L 15.35 9.8
Q 15.35 10.3 15.85 10.3 16.05 10.3 16.4 9.95
L 17 9.4
Q 17.35 9.2 18 9.2 18.35 9.2 18.45 9.35
L 18.55 9.95 18.55 16.3
Q 18.55 16.9 18.3 17.05
L 18.15 17.1 17.9 17.3 17.85 17.55
Q 17.85 18 18.5 18
L 21.05 18
Q 21.65 18 21.65 17.55 21.65 17.3 21.35 17.1
L 21.2 17.05
Q 20.95 16.9 20.95 16.3
L 20.95 9.95 21.05 9.35
Q 21.15 9.2 21.5 9.2 22.15 9.2 22.45 9.4
L 23.1 9.95
Q 23.45 10.3 23.65 10.3 24.15 10.3 24.15 9.8
L 24.1 9.4
Q 24 8.5 23.75 8.3
M 14.65 8.2
L 13.5 8.2
Q 12.55 8.2 12.55 8.65
L 12.65 8.9 12.95 9.1 13.3 9.4
Q 13.4 9.6 13.4 9.9 13.4 11 12.85 13.15
L 11.9 15.9 10.75 12.9
Q 10.05 10.6 10.05 9.65
L 10.15 9.3 10.65 8.9 10.7 8.7
Q 10.7 8.2 10.1 8.2
L 7.7 8.2
Q 7 8.2 7 8.65
L 7.05 8.8 7.15 8.95 7.3 9.05
Q 7.7 9.3 7.7 10.2 7.7 11.6 7.35 12.95 7.05 14.3 6.4 15.85
L 5.5 12.85
Q 4.95 10.75 4.95 9.65
L 5 9.3 5.3 9.1
Q 5.6 8.9 5.6 8.7 5.6 8.2 4.95 8.2
L 2.8 8.2
Q 1.85 8.2 1.85 8.65 1.85 8.9 2.15 9.15
L 2.4 9.4 2.45 9.85 2.65 10.8
Q 3.4 14.75 4.35 17
L 4.7 17.75
Q 4.85 17.95 5.1 18.05 5.35 18.2 5.8 18.2 6.45 18.2 6.75 17.8 7.1 17.25 7.4 16.35
L 8.4 13.1 9.45 16.2 10.1 17.55
Q 10.35 17.95 10.6 18.05 10.85 18.2 11.3 18.2 12 18.2 12.25 17.9
L 13.3 15.4 14.65 9.75
Q 14.7 9.4 15.1 9.05 15.35 8.8 15.35 8.65 15.35 8.2 14.65 8.2 Z"/>
</g>

<g id="Symbol_233_0_Layer0_0_FILL">
<path fill="#00D205" stroke="none" d="
M 25.1 9.45
Q 25 9.35 24.55 9.35
L 17.7 9.35
Q 17.2 9.35 17.1 9.45 16.9 9.55 16.75 10.55
L 16.7 10.95
Q 16.7 11.45 17.2 11.45 17.4 11.45 17.75 11.1
L 18.35 10.55
Q 18.7 10.35 19.35 10.35 19.7 10.35 19.8 10.5
L 19.9 11.1 19.9 17.45
Q 19.9 18.05 19.65 18.2
L 19.5 18.25 19.25 18.45 19.2 18.7
Q 19.2 19.15 19.85 19.15
L 22.4 19.15
Q 23 19.15 23 18.7 23 18.45 22.7 18.25
L 22.55 18.2
Q 22.3 18.05 22.3 17.45
L 22.3 11.1 22.4 10.5
Q 22.5 10.35 22.85 10.35 23.5 10.35 23.8 10.55
L 24.45 11.1
Q 24.8 11.45 25 11.45 25.5 11.45 25.5 10.95
L 25.45 10.55
Q 25.35 9.65 25.1 9.45
M 11.5 10.45
L 12 10.05 12.05 9.85
Q 12.05 9.35 11.45 9.35
L 9.05 9.35
Q 8.35 9.35 8.35 9.8
L 8.4 9.95 8.5 10.1 8.65 10.2
Q 9.05 10.45 9.05 11.35 9.05 12.75 8.7 14.1 8.4 15.45 7.75 17
L 6.85 14
Q 6.3 11.9 6.3 10.8
L 6.35 10.45 6.65 10.25
Q 6.95 10.05 6.95 9.85 6.95 9.35 6.3 9.35
L 4.15 9.35
Q 3.2 9.35 3.2 9.8 3.2 10.05 3.5 10.3
L 3.75 10.55 3.8 11 4 11.95
Q 4.75 15.9 5.7 18.15
L 6.05 18.9
Q 6.2 19.1 6.45 19.2 6.7 19.35 7.15 19.35 7.8 19.35 8.1 18.95 8.45 18.4 8.75 17.5
L 9.75 14.25 10.8 17.35 11.45 18.7
Q 11.7 19.1 11.95 19.2 12.2 19.35 12.65 19.35 13.35 19.35 13.6 19.05
L 14.65 16.55 16 10.9
Q 16.05 10.55 16.45 10.2 16.7 9.95 16.7 9.8 16.7 9.35 16 9.35
L 14.85 9.35
Q 13.9 9.35 13.9 9.8
L 14 10.05 14.3 10.25 14.65 10.55
Q 14.75 10.75 14.75 11.05 14.75 12.15 14.2 14.3
L 13.25 17.05 12.1 14.05
Q 11.4 11.75 11.4 10.8
L 11.5 10.45 Z"/>
</g>

<path id="Layer1_0_1_STROKES" stroke="#FFFFFF" stroke-width="1.4" stroke-linejoin="round" stroke-linecap="round" fill="none" d="
M -6.25 13.3
Q -6.25 5.05 -0.45 -0.8 5.4 -6.6 13.65 -6.6 21.9 -6.6 27.7 -0.8 33.55 5.05 33.55 13.3 33.55 21.55 27.7 27.35 21.9 33.2 13.65 33.2 5.4 33.2 -0.45 27.35 -6.25 21.55 -6.25 13.3 Z"/>

<path id="Layer0_0_1_STROKES" stroke="#FFFFFF" stroke-width="3.95" stroke-linejoin="round" stroke-linecap="round" fill="none" d="
M 1.55 13.55
Q 1.55 8.55 5 5.1 8.5 1.6 13.45 1.65 18.35 1.6 21.8 5.1 25.3 8.55 25.3 13.55 25.3 18.5 21.8 21.9 18.35 25.45 13.45 25.45 8.5 25.45 5 21.9 1.55 18.5 1.55 13.55 Z"/>
</defs>

<g transform="matrix( 1.193603515625, 0, 0, 1.193603515625, -2.9,-2.75) ">
<g transform="matrix( 1, 0, 0, 1, 0,0) ">
<use filter="url(#Filter_1)" xlink:href="#Symbol_233_0_Layer2_0_FILL"/>
</g>

<g transform="matrix( 1, 0, 0, 1, 0,0) ">
<use filter="url(#Filter_1)" xlink:href="#Symbol_233_0_Layer1_0_FILL"/>
</g>

<g transform="matrix( 1, 0, 0, 1, 0,0) ">
<use filter="url(#Filter_1)" xlink:href="#Symbol_233_0_Layer0_0_FILL"/>
</g>
</g>

<g transform="matrix( 1, 0, 0, 1, 0,0) ">
<use xlink:href="#Layer1_0_1_STROKES"/>
</g>

<g transform="matrix( 1, 0, 0, 1, 0,0) ">
<use xlink:href="#Layer0_0_1_STROKES"/>
</g>
</svg>
