
<svg xmlns="http://www.w3.org/2000/svg" version="1.1" xmlns:xlink="http://www.w3.org/1999/xlink" preserveAspectRatio="none" x="0px" y="0px" width="195px" height="197px" viewBox="0 0 195 197">
<defs>
<radialGradient id="Gradient_1" gradientUnits="userSpaceOnUse" cx="0" cy="0" r="96.0875" fx="-3.3225388041337782e-15" fy="54.26117647058824" gradientTransform="matrix( 0, 0.9999999999999999, -1.0084558345258228, 0, -1,2.15) " spreadMethod="pad">
<stop  offset="0%" stop-color="#EAF2FF" stop-opacity="0.7529411764705882"/>

<stop  offset="100%" stop-color="#A8D8FF" stop-opacity="0.7529411764705882"/>
</radialGradient>

<g id="Body_Parts_Characters_Bubble_Bubble_Body_0_Layer1_0_FILL">
<path fill="#64A9E1" fill-opacity="0.7529411764705882" stroke="none" d="
M 69.35 -71.6
Q 41.8974609375 -98.7029296875 1 -98.7 -39.899609375 -98.6986328125 -68.85 -69.85 -97.6986328125 -40.899609375 -97.7 0 -97.69921875 40.9005859375 -68.85 69.75 -39.8998046875 98.7 1 98.7 41.9033203125 98.7033203125 70.25 69.6 98.595703125 40.4958984375 97.7 -2 96.8037109375 -44.4962890625 69.35 -71.6
M 0.95 -94.25
Q 40.0072265625 -94.258203125 66.2 -68.6 92.4435546875 -42.9251953125 93.3 -2.7 94.1625 37.552734375 67.1 65.1 40.020703125 92.65546875 0.95 92.65 -38.1052734375 92.6443359375 -65.75 65.25 -93.2994140625 37.91875 -93.3 -0.8 -93.2990234375 -39.519140625 -65.75 -66.9 -38.105078125 -94.2443359375 0.95 -94.25 Z"/>

<path fill="url(#Gradient_1)" stroke="none" d="
M 66.2 -68.6
Q 40.0072265625 -94.258203125 0.95 -94.25 -38.105078125 -94.2443359375 -65.75 -66.9 -93.2990234375 -39.519140625 -93.3 -0.8 -93.2994140625 37.91875 -65.75 65.25 -38.1052734375 92.6443359375 0.95 92.65 40.020703125 92.65546875 67.1 65.1 94.1625 37.552734375 93.3 -2.7 92.4435546875 -42.9251953125 66.2 -68.6 Z"/>
</g>

<g id="Body_Parts_Characters_Bubble_Bubble_Body_0_Layer0_0_FILL">
<path fill="#FFFFFF" stroke="none" d="
M 71.4 -55.2
Q 66.5 -63.5 60.2 -69.2 46.4 -81.65 30.95 -86.3 16.2 -90.75 6 -86.4 1.75 -84.6 2.65 -82.55 3.35 -80.95 8.25 -77.95 18.05 -71.9 18.9 -71.3 26.05 -66.5 30.8 -61.4 36.1 -55.75 40.7 -46.5 45.4 -36.1 47.6 -31.5 51.4 -23.65 55.1 -20.5 59.9 -16.35 66.8 -17.4 74.7 -18.55 77.45 -24.75 79.95 -30.3 78.1 -38.85 76.35 -46.8 71.4 -55.2 Z"/>
</g>
</defs>

<g transform="matrix( 1, 0, 0, 1, 97.7,98.7) ">
<g transform="matrix( 1, 0, 0, 1, 0,0) ">
<use xlink:href="#Body_Parts_Characters_Bubble_Bubble_Body_0_Layer1_0_FILL"/>
</g>

<g transform="matrix( 1, 0, 0, 1, 0,0) ">
<use xlink:href="#Body_Parts_Characters_Bubble_Bubble_Body_0_Layer0_0_FILL"/>
</g>
</g>
</svg>
