
<svg xmlns="http://www.w3.org/2000/svg" version="1.1" xmlns:xlink="http://www.w3.org/1999/xlink" preserveAspectRatio="none" x="0px" y="0px" width="128px" height="128px" viewBox="0 0 128 128">
<defs>
<radialGradient id="Gradient_1" gradientUnits="userSpaceOnUse" cx="0" cy="0" r="70.8375" fx="-3.5210666569337908e-15" fy="57.50338235294118" gradientTransform="matrix( 0, 0.9999999999999999, -1.3583906829010057, 0, 0,0) " spreadMethod="pad">
<stop  offset="0%" stop-color="#FFFFFF" stop-opacity="0.8"/>

<stop  offset="100%" stop-color="#CCD7FF" stop-opacity="0.8"/>
</radialGradient>

<g id="Body_Parts_Characters_Ice_Cube_Ice_Cube_Side_0_Layer0_0_FILL">
<path fill="url(#Gradient_1)" stroke="none" d="
M 40.1 -68.4
Q 29.5931640625 -69.6521484375 0 -69.65 -30.1505859375 -69.6576171875 -40.1 -68.55 -54.81640625 -66.8818359375 -60.85 -60.85 -66.8818359375 -54.81640625 -68.55 -40.1 -69.6576171875 -30.1505859375 -69.65 0 -69.6521484375 29.9619140625 -68.4 40.35 -66.6693359375 54.96875 -60.55 60.95 -54.4841796875 66.9341796875 -39.85 68.6 -30.0953125 69.6474609375 0 69.65 30.359375 69.6474609375 40.1 68.6 54.8162109375 66.9341796875 60.8 60.95 66.881640625 54.96875 68.55 40.35 69.657421875 30.31015625 69.65 0 69.657421875 -29.7419921875 68.55 -39.7 66.881640625 -54.333984375 60.8 -60.4 54.746484375 -66.59453125 40.1 -68.4 Z"/>
</g>

<path id="Body_Parts_Characters_Ice_Cube_Ice_Cube_Side_0_Layer0_0_1_STROKES" stroke="#8CA9DD" stroke-width="3" stroke-linejoin="round" stroke-linecap="round" fill="none" d="
M 36.08975524902344 -61.559582519531254
Q 49.271501791477206 -59.93467166423798 54.742128753662115 -54.35963134765625 60.193068349361425 -48.9002543091774 61.6945816040039 -35.72975769042969 62.69125453233718 -26.767611438035964 62.68457489013672 0 62.69125453233718 27.27895562648773 61.6945816040039 36.314753723144534 60.193068349361425 49.47153949737549 54.742128753662115 54.85462799072266 49.334255272150045 60.240353184938435 36.08975524902344 61.73958129882812 27.323252201080322 62.682289749383926 0 62.68457489013672 -27.085597562789914 62.682289749383926 -35.86475677490235 61.73958129882812 -49.03542917370797 60.240353184938435 -54.4946304321289 54.85462799072266 -60.00199542641639 49.47153949737549 -61.559582519531254 36.314753723144534 -62.6865084707737 26.965539783239365 -62.68457489013672 0 -62.69143031239509 -27.13534331917763 -61.6945816040039 -36.08975524902344 -60.19324412941933 -49.33443105220795 -54.742128753662115 -54.742128753662115 -49.33443105220795 -60.19324412941933 -36.08975524902344 -61.6945816040039 -27.13534331917763 -62.69143031239509 0 -62.68457489013672 26.633667033910754 -62.6865084707737 36.08975524902344 -61.559582519531254 Z"/>
</defs>

<g transform="matrix( 1, 0, 0, 1, 64.2,64.2) ">
<g transform="matrix( 0.899993896484375, 0, 0, 0.899993896484375, 0,0) ">
<use xlink:href="#Body_Parts_Characters_Ice_Cube_Ice_Cube_Side_0_Layer0_0_FILL"/>

<use xlink:href="#Body_Parts_Characters_Ice_Cube_Ice_Cube_Side_0_Layer0_0_1_STROKES" transform="matrix( 1.111114501953125, 0, 0, 1.111114501953125, 0,0) "/>
</g>
</g>
</svg>
