
<svg xmlns="http://www.w3.org/2000/svg" version="1.1" xmlns:xlink="http://www.w3.org/1999/xlink" preserveAspectRatio="none" x="0px" y="0px" width="59px" height="247px" viewBox="0 0 59 247">
<defs>
<g id="Body_Parts_Characters_Match_Match_Body_0_Layer0_0_FILL">
<path fill="#F1CB7C" stroke="none" d="
M 6.2 118.1
L 6.2 -69
Q 3.1384765625 -68.617578125 -0.15 -68.75
L -0.15 -68.75
Q -8.7162109375 -69.159375 -15.55 -71.65
L -15.55 118.1 6.2 118.1 Z"/>

<path fill="#C4842D" stroke="none" d="
M 21 -74.6
Q 18.5875 -72.7935546875 16.95 -72.05
L 16.95 118.1 6.2 118.1 -15.55 118.1 -15.55 -71.65 -15.6 -71.65
Q -18.24375 -72.6390625 -19.65 -73.35
L -19.3 121.85 20.75 121.7 20.8 -74.05
Q 20.6990234375 -74.24609375 21 -74.5
L 21 -74.6 Z"/>

<path fill="#E2B767" stroke="none" d="
M 16.95 -72.05
Q 11.927734375 -69.6431640625 6.2 -69
L 6.2 118.1 16.95 118.1 16.95 -72.05 Z"/>

<path fill="#C62222" stroke="none" d="
M 21.7 -115.7
Q 16.2853515625 -120.67421875 13.15 -122.45 6.9783203125 -126.0703125 -0.7 -126.1 -12.230859375 -126.0759765625 -20.45 -117.9
L -20.5 -117.9 -20.5 -117.9
Q -28.6103515625 -109.7880859375 -29.45 -94.7 -30.3169921875 -79.021484375 -20.95 -74.1
L -20.9 -74.1
Q -20.78125 -74.009765625 -19.65 -73.35 -18.24375 -72.6390625 -15.6 -71.65
L -15.55 -71.65
Q -8.7162109375 -69.159375 -0.15 -68.75
L -0.15 -68.75
Q 3.1384765625 -68.617578125 6.2 -69 11.927734375 -69.6431640625 16.95 -72.05 18.5875 -72.7935546875 21 -74.6 21.0142578125 -74.5478515625 21 -74.5 31.1515625 -82.326171875 29.2 -96.25 27.1693359375 -110.7171875 21.7 -115.7
M 11.4 -119.4
Q 12.16796875 -118.968359375 12.9 -118.5 18.1341796875 -95.4322265625 4.95 -83.3 1.9259765625 -80.5119140625 -2.1 -78.3 -6.4376953125 -75.880078125 -12 -74.15 -13.1865234375 -74.5056640625 -14.35 -74.95 -14.95703125 -75.1537109375 -15.55 -75.4 -17.4611328125 -76.188671875 -19.25 -77.15
L -19.2 -77.15
Q -19.943359375 -77.579296875 -20.6 -78.1 -26.5662109375 -82.74921875 -25.95 -94.5 -25.1748046875 -108.0775390625 -18 -115.4
L -18 -115.45
Q -10.77890625 -122.551171875 -0.7 -122.55 6.012109375 -122.5583984375 11.4 -119.4 Z"/>

<path fill="#DC3A3A" stroke="none" d="
M 12.9 -118.5
Q 12.16796875 -118.968359375 11.4 -119.4 6.012109375 -122.5583984375 -0.7 -122.55 -10.77890625 -122.551171875 -18 -115.45
L -18 -115.4
Q -25.1748046875 -108.0775390625 -25.95 -94.5 -26.5662109375 -82.74921875 -20.6 -78.1 -19.943359375 -77.579296875 -19.2 -77.15
L -19.25 -77.15
Q -17.4611328125 -76.188671875 -15.55 -75.4 -14.95703125 -75.1537109375 -14.35 -74.95 -13.1865234375 -74.5056640625 -12 -74.15 -6.4376953125 -75.880078125 -2.1 -78.3 1.9259765625 -80.5119140625 4.95 -83.3 18.1341796875 -95.4322265625 12.9 -118.5 Z"/>
</g>
</defs>

<g transform="matrix( 1, 0, 0, 1, 29.5,126.05) ">
<g transform="matrix( 1, 0, 0, 1, 0,0) ">
<use xlink:href="#Body_Parts_Characters_Match_Match_Body_0_Layer0_0_FILL"/>
</g>
</g>
</svg>
