
<svg xmlns="http://www.w3.org/2000/svg" version="1.1" xmlns:xlink="http://www.w3.org/1999/xlink" preserveAspectRatio="none" x="0px" y="0px" width="74px" height="44px" viewBox="0 0 74 44">
<defs>
<g id="Symbol_274_0_Layer0_0_FILL">
<path fill="#FF4255" stroke="none" d="
M -70.45 -17.5
L -43.85 24.85 0.5 65.4 -70.45 -17.5
M -38.85 -17.6
L -0.25 -17.55 -26.9 -41.75 -38.85 -17.6
M -70.45 -17.5
L -70.4 -17.55 -26.9 -41.75 -35.55 -49.1 -63.8 -42.3 -70.45 -17.55 -70.45 -17.5
M 99.15 -17.7
L 89.9 -17.7 39.15 29.5 69 -17.65 10.2 44 0.5 65.4 99.15 -17.7
M 36.7 -49.1
L 0.55 -49.1 27.9 -41.7 36.7 -49.1 Z"/>

<path fill="#C20518" stroke="none" d="
M -11.2 40.7
L -70.45 -17.5 0.5 65.4 -11.2 40.7
M -0.25 -17.55
L -38.85 -17.6 -11.2 40.7 -0.25 -17.55
M -70.45 -17.5
L -70.45 -17.55 -90.15 -17.55 -43.85 24.85 -70.45 -17.5
M 69 -17.65
L 38 -17.65 10.2 44 69 -17.65
M 38 -17.65
L 27.9 -41.7 -0.25 -17.55 38 -17.65
M 36.7 -49.1
L 27.9 -41.7 69 -17.65 67.85 -39.4 36.7 -49.1 Z"/>

<path fill="#FF7F92" stroke="none" d="
M -35.55 -49.1
L -26.9 -41.75 0.55 -49.1 -35.55 -49.1
M -38.85 -17.6
L -26.9 -41.75 -70.4 -17.55 -38.85 -17.6 Z"/>

<path fill="#E00518" stroke="none" d="
M -54.05 -49.1
L -63.8 -42.3 -35.55 -49.1 -54.05 -49.1
M -90.15 -17.55
L -99.2 -17.55 0.5 65.4 -43.85 24.85 -90.15 -17.55
M 0.5 65.4
L 10.2 44 -0.25 -17.55 -11.2 40.7 0.5 65.4 Z"/>

<path fill="#A30518" stroke="none" d="
M -70.4 -17.55
L -70.45 -17.5 -11.2 40.7 -38.85 -17.6 -70.4 -17.55
M -99.2 -17.55
L -90.15 -17.55 -70.45 -17.55 -63.8 -42.3 -99.2 -17.55
M 10.2 44
L 38 -17.65 -0.25 -17.55 10.2 44
M 67.85 -39.4
L 69 -17.65 89.9 -17.7 67.85 -39.4
M 27.9 -41.7
L 38 -17.65 69 -17.65 27.9 -41.7 Z"/>

<path fill="#FF2336" stroke="none" d="
M 89.9 -17.7
L 69 -17.65 39.15 29.5 89.9 -17.7
M 27.9 -41.7
L 0.55 -49.1 -26.9 -41.75 -0.25 -17.55 27.9 -41.7 Z"/>

<path fill="#D98EAD" stroke="none" d="
M 54.15 -49.1
L 36.7 -49.1 67.85 -39.4 89.9 -17.7 99.15 -17.7 54.15 -49.1 Z"/>
</g>

<path id="Symbol_274_0_Layer0_0_1_STROKES" stroke="#660014" stroke-width="3" stroke-linejoin="miter" stroke-linecap="round" stroke-miterlimit="12" fill="none" d="
M 0.55 -49.1
L 36.7 -49.1 54.15 -49.1 99.15 -17.7 0.5 65.4 -99.2 -17.55 -63.8 -42.3 -54.05 -49.1 -35.55 -49.1 0.55 -49.1 Z"/>
</defs>

<g transform="matrix( 0.3648529052734375, 0, 0, 0.3648529052734375, 37.1,19.6) ">
<g transform="matrix( 1, 0, 0, 1, 0,0) ">
<g transform="matrix( 1, 0, 0, 1, 0,0) ">
<use xlink:href="#Symbol_274_0_Layer0_0_FILL"/>

<use xlink:href="#Symbol_274_0_Layer0_0_1_STROKES"/>
</g>
</g>
</g>
</svg>
