
<svg xmlns="http://www.w3.org/2000/svg" version="1.1" xmlns:xlink="http://www.w3.org/1999/xlink" preserveAspectRatio="none" x="0px" y="0px" width="49px" height="270px" viewBox="0 0 49 270">
<defs>
<g id="Body_Parts_Characters_Pencil_Pencil_Body_0_Layer0_0_FILL">
<path fill="#BD8A2B" stroke="none" d="
M -17.4 95.05
L -21.9 95.1 -9.45 118.05 -5.15 118.05 -17.4 95.05
M 17.3 95.05
L 17.2 95.15 4.55 118.05 8.85 118.05 8.85 118.05 21.9 95.05 17.3 95.05 Z"/>

<path fill="#FFBF48" stroke="none" d="
M -11.15 -58
L -18.3 -57.95 -18.3 91.05 -8.75 91.05 -8.75 -58 -11.15 -58 Z"/>

<path fill="#C3C3C3" stroke="none" d="
M -11.15 -58
L -11.15 -90.6 -18.35 -90.6 -22.5 -90.6 -22.6 -57.95 -18.3 -57.95 -11.15 -58 Z"/>

<path fill="#333333" stroke="none" d="
M 8.3 118.95
L 8.85 118.05 4.55 118.05 -5.15 118.05 -9.45 118.05 -0.55 134.45 8.3 118.95 Z"/>

<path fill="#B97800" stroke="none" d="
M 8.3 118.95
L 8.85 118.05 8.85 118.05 8.3 118.95
M 7.1 95.05
L 7.1 91.05
Q -0.8076171875 91.05 -8.75 91.05
L -18.3 91.05 -18.3 -57.95 -22.6 -57.95 -21.9 95.1 -17.4 95.05 7.1 95.05
M 21.95 -58
L 18.65 -58 18.15 91.05 7.15 91.05 7.15 95.05
Q 12.2 95.05 17 95.05
L 17.3 95.05 21.9 95.05 21.95 -58 Z"/>

<path fill="#F3D08F" stroke="none" d="
M 17.2 95.15
L 17.3 95.05 17 95.05 17.2 95.15
M 7.2 95.15
L 7.1 95.05 -17.4 95.05 -5.15 118.05 4.55 118.05 7.2 95.15 Z"/>

<path fill="#FFA909" stroke="none" d="
M 7.1 91.05
L 7.25 90.9 7.25 -58 -8.75 -58 -8.75 91.05
Q -0.8076171875 91.05 7.1 91.05 Z"/>

<path fill="#F0C575" stroke="none" d="
M 7.15 95.05
L 7.2 95.15 4.55 118.05 17.2 95.15 17 95.05
Q 12.2 95.05 7.15 95.05 Z"/>

<path fill="#E47E93" stroke="none" d="
M 7.25 -90.6
L 7.25 -113.85 -10.45 -113.85
Q -16.45 -113.85 -17.95 -109.35 -18.3 -108.35 -18.35 -107.35
L -18.35 -90.6 -11.15 -90.6 7.25 -90.6 Z"/>

<path fill="#B5B5B5" stroke="none" d="
M 7.25 -58
L 18.65 -58 21.95 -58 21.95 -90.6 18.05 -90.6 7.25 -90.6 -11.15 -90.6 -11.15 -58 -8.75 -58 7.25 -58 Z"/>

<path fill="#E89700" stroke="none" d="
M 18.65 -58
L 7.25 -58 7.25 90.9 7.15 91.05 18.15 91.05 18.65 -58 Z"/>

<path fill="#E17389" stroke="none" d="
M 18.05 -105.85
Q 18.05 -113.85 11 -113.85
L 7.25 -113.85 7.25 -90.6 18.05 -90.6 18.05 -105.85 Z"/>

<path fill="#CC536B" stroke="none" d="
M 11 -113.85
Q 18.05 -113.85 18.05 -105.85
L 18.05 -90.6 21.95 -90.6 22 -106.4
Q 21.55 -117.25 11.6 -117.25
L -11.65 -117.25
Q -15.7654296875 -117.008203125 -18.25 -115.2 -21.75 -112.7 -22.3 -108.25
L -22.55 -90.6 -22.5 -90.6 -18.35 -90.6 -18.35 -107.35
Q -18.3 -108.35 -17.95 -109.35 -16.45 -113.85 -10.45 -113.85
L 7.25 -113.85 11 -113.85 Z"/>
</g>

<path id="Body_Parts_Characters_Pencil_Pencil_Body_0_Layer0_0_1_STROKES" stroke="#666666" stroke-width="4" stroke-linejoin="miter" stroke-linecap="round" stroke-miterlimit="5" fill="none" d="
M 18.05 -90.6
L 21.95 -90.6
M -22.55 -90.6
L -22.5 -90.6 -18.35 -90.6
M 7.25 -90.6
L 18.05 -90.6
M 7.25 -57.975
L 18.65 -57.975 21.95 -57.975 21.95 -90.6
M -18.3 -57.95
L -22.575 -57.95
M -11.15 -57.975
L -8.75 -57.975 7.25 -57.975
M -22.575 -57.95
L -22.5 -90.6
M -11.15 -57.975
L -18.3 -57.95
M -18.35 -90.6
L -11.15 -90.6 7.25 -90.6"/>
</defs>

<g transform="matrix( 1, 0, 0, 1, 24.5,135) ">
<g transform="matrix( 1, 0, 0, 1, 0,0) ">
<use xlink:href="#Body_Parts_Characters_Pencil_Pencil_Body_0_Layer0_0_FILL"/>

<use xlink:href="#Body_Parts_Characters_Pencil_Pencil_Body_0_Layer0_0_1_STROKES"/>
</g>
</g>
</svg>
