
<svg xmlns="http://www.w3.org/2000/svg" version="1.1" xmlns:xlink="http://www.w3.org/1999/xlink" preserveAspectRatio="none" x="0px" y="0px" width="42px" height="41px" viewBox="0 0 42 41">
<defs>
<radialGradient id="Gradient_1" gradientUnits="userSpaceOnUse" cx="0" cy="0" r="63.75" fx="-3.1534655078044344e-15" fy="51.5" gradientTransform="matrix( 0, 1, -1.3584313725490198, 0, 0,0) " spreadMethod="pad">
<stop  offset="0%" stop-color="#FFFFFF" stop-opacity="0.8"/>

<stop  offset="100%" stop-color="#CCD7FF" stop-opacity="0.8"/>
</radialGradient>

<g id="Symbol_345_0_Layer0_0_FILL">
<path fill="url(#Gradient_1)" stroke="none" d="
M 36.1 -61.55
L 0 -62.7
Q -27.15 -62.7 -36.1 -61.7 -49.3 -60.2 -54.7 -54.7 -60.2 -49.3 -61.7 -36.1 -62.7 -27.15 -62.7 0 -62.7 26.95 -61.55 36.3 -60 49.45 -54.5 54.85 -49.05 60.25 -35.85 61.75 -27.1 62.7 0 62.7 27.3 62.7 36.1 61.75 49.3 60.25 54.75 54.85 60.2 49.45 61.7 36.3 62.7 27.25 62.7 0 62.7 -26.75 61.7 -35.75 60.2 -48.9 54.75 -54.35 49.25 -59.95 36.1 -61.55 Z"/>
</g>

<path id="Symbol_345_0_Layer0_0_1_STROKES" stroke="#8CA9DD" stroke-width="3" stroke-linejoin="round" stroke-linecap="round" fill="none" d="
M 36.1 -61.55
Q 49.25 -59.95 54.75 -54.35 60.2 -48.9 61.7 -35.75 62.7 -26.75 62.7 0 62.7 27.25 61.7 36.3 60.2 49.45 54.75 54.85 49.3 60.25 36.1 61.75 27.3 62.7 0 62.7 -27.1 62.7 -35.85 61.75 -49.05 60.25 -54.5 54.85 -60 49.45 -61.55 36.3 -62.7 26.95 -62.7 0 -62.7 -27.15 -61.7 -36.1 -60.2 -49.3 -54.7 -54.7 -49.3 -60.2 -36.1 -61.7 -27.15 -62.7 0 -62.7
L 36.1 -61.55 Z"/>
</defs>

<g transform="matrix( 0.319091796875, -0.0054779052734375, 0.009796142578125, 0.3189697265625, 21.15,20.85) ">
<g transform="matrix( 1, 0, 0, 1, 0,0) ">
<use xlink:href="#Symbol_345_0_Layer0_0_FILL"/>

<use xlink:href="#Symbol_345_0_Layer0_0_1_STROKES"/>
</g>
</g>
</svg>
