
<svg xmlns="http://www.w3.org/2000/svg" version="1.1" xmlns:xlink="http://www.w3.org/1999/xlink" preserveAspectRatio="none" x="0px" y="0px" width="160px" height="178px" viewBox="0 0 160 178">
<defs>
<g id="Body_Parts_Characters_Book_Book_Body_0_Layer0_0_FILL">
<path fill="#24B814" stroke="none" d="
M -60.55 85.05
L -37.3 85.05
Q -37.2912109375 37.4271484375 -9.15 -2.2 17.4087890625 -30.0091796875 14.2 -74.5
L -60.55 -74.5 -60.55 85.05
M 17.15 -83.5
L 17.65 -85.05 -47.8 -85.05
Q -54.098828125 -82.5767578125 -58.9 -85.05
L -70.6 -78.5
Q -68.27421875 -79.098828125 -65.65 -79.25
L -57.4 -83.6 17.15 -83.5 Z"/>

<path fill="#2DE418" stroke="none" d="
M -60.55 -74.5
Q -65.6697265625 -76.3716796875 -70.6 -75.9
L -70.55 83.35
Q -66.8412109375 83.1189453125 -60.55 85.05
L -60.55 -74.5 Z"/>

<path fill="#1E9A10" stroke="none" d="
M -70.6 -75.9
Q -73.4732421875 -75.6095703125 -76.3 -74.5
L -76.3 85.05
Q -73.390625 83.571484375 -70.55 83.35
L -70.6 -75.9 Z"/>

<path fill="#FFFFFF" stroke="none" d="
M 15.5 -78.5
L 69.7 -78.5 69.7 78.5 72.35 74.9 74.45 72.1 74.45 -83.45 17.15 -83.5 -57.4 -83.6 -65.65 -79.25
Q -63.2939453125 -79.172265625 -60.55 -78.5
L 15.5 -78.5 Z"/>

<path fill="#139CB9" stroke="none" d="
M 65.7 -74.5
L 14.2 -74.5
Q 17.4087890625 -30.0091796875 -9.15 -2.2 -37.2912109375 37.4271484375 -37.3 85.05
L 65.7 85.05 65.7 -74.5
M 17.65 -85.05
L 17.15 -83.5 74.45 -83.45 74.45 72.1 72.35 74.9 72.7 74.5 76.35 74.5 76.35 -85.05 17.65 -85.05 Z"/>

<path fill="#094E59" stroke="none" d="
M 18.95 -89.05
L 17.65 -85.05 76.35 -85.05 76.35 74.5 72.7 74.5 72.35 74.9 69.7 78.5
Q 69.822265625 78.50078125 69.95 78.5
L 80.35 78.5 80.35 -89.05 18.95 -89.05
M 15.5 -78.5
L 14.2 -74.5 65.7 -74.5 65.7 85.05 -37.3 85.05 -38.6 89.05 69.7 89.05 69.7 78.5 69.7 -78.5 15.5 -78.5 Z"/>

<path fill="#11580A" stroke="none" d="
M 14.2 -74.5
L 15.5 -78.5 -60.55 -78.5
Q -63.2939453125 -79.172265625 -65.65 -79.25 -68.27421875 -79.098828125 -70.6 -78.5
L -58.9 -85.05
Q -54.098828125 -82.5767578125 -47.8 -85.05
L 17.65 -85.05 18.95 -89.05 -47.8 -89.05
Q -54.15546875 -84.851171875 -59.95 -89.05
L -80.3 -77.1 -80.3 89.05
Q -74.651953125 86.4984375 -69.55 86.55 -64.388671875 86.6130859375 -61 89.05
L -38.6 89.05 -37.3 85.05 -60.55 85.05
Q -66.8412109375 83.1189453125 -70.55 83.35 -73.390625 83.571484375 -76.3 85.05
L -76.3 -74.5
Q -73.4732421875 -75.6095703125 -70.6 -75.9 -65.6697265625 -76.3716796875 -60.55 -74.5
L 14.2 -74.5 Z"/>
</g>
</defs>

<g transform="matrix( 1, 0, 0, 1, 80.3,89.05) ">
<g transform="matrix( 1, 0, 0, 1, 0,0) ">
<use xlink:href="#Body_Parts_Characters_Book_Book_Body_0_Layer0_0_FILL"/>
</g>
</g>
</svg>
