
<svg xmlns="http://www.w3.org/2000/svg" version="1.1" xmlns:xlink="http://www.w3.org/1999/xlink" preserveAspectRatio="none" x="0px" y="0px" width="204px" height="136px" viewBox="0 0 204 136">
<defs>
<g id="Body_Parts_Characters_Ruby_Ruby_Body_0_Layer0_0_FILL">
<path fill="#C20518" stroke="none" d="
M -11.25 40.7
L -70.45 -17.55 0.5 65.4 -11.25 40.7
M -0.25 -17.6
L -38.9 -17.6 -11.25 40.7 -0.25 -17.6
M -70.5 -17.55
L -70.5 -17.55 -70.5 -17.6 -90.15 -17.55 -43.85 24.8 -70.5 -17.55
M 68.95 -17.7
L 38 -17.65 10.15 43.95 68.95 -17.7
M 36.65 -49.1
L 27.85 -41.75 68.95 -17.7 67.85 -39.4 36.65 -49.1
M 38 -17.65
L 27.85 -41.75 -0.25 -17.6 38 -17.65 Z"/>

<path fill="#FF7F92" stroke="none" d="
M -35.55 -49.1
L -26.95 -41.75 0.55 -49.1 -35.55 -49.1
M -38.9 -17.6
L -26.9 -41.75 -70.45 -17.6 -38.9 -17.6 Z"/>

<path fill="#FF4255" stroke="none" d="
M -38.9 -17.6
L -0.25 -17.6 -26.9 -41.75 -38.9 -17.6
M -70.45 -17.55
L -70.45 -17.6 -26.9 -41.75 -26.95 -41.75 -35.55 -49.1 -63.8 -42.3 -70.45 -17.6 -70.5 -17.6 -70.5 -17.55 -70.5 -17.55 -43.85 24.8 0.5 65.4 -70.45 -17.55
M 99.1 -17.7
L 89.9 -17.7 39.1 29.5 68.95 -17.7 10.15 43.95 0.5 65.4 99.1 -17.7
M 0.55 -49.1
L 27.85 -41.75 36.65 -49.1 0.55 -49.1 Z"/>

<path fill="#E00518" stroke="none" d="
M -54.1 -49.1
L -63.8 -42.3 -35.55 -49.1 -54.1 -49.1
M -90.15 -17.55
L -99.2 -17.55 0.5 65.4 -43.85 24.8 -90.15 -17.55
M 0.5 65.4
L 10.15 43.95 -0.25 -17.6 -11.25 40.7 0.5 65.4 Z"/>

<path fill="#A30518" stroke="none" d="
M -70.45 -17.6
L -70.45 -17.55 -11.25 40.7 -38.9 -17.6 -70.45 -17.6
M -99.2 -17.55
L -90.15 -17.55 -70.5 -17.6 -70.45 -17.6 -63.8 -42.3 -99.2 -17.55
M 10.15 43.95
L 38 -17.65 -0.25 -17.6 10.15 43.95
M 67.85 -39.4
L 68.95 -17.7 89.9 -17.7 67.85 -39.4
M 27.85 -41.75
L 38 -17.65 68.95 -17.7 27.85 -41.75 Z"/>

<path fill="#FF2336" stroke="none" d="
M 89.9 -17.7
L 68.95 -17.7 39.1 29.5 89.9 -17.7
M 27.85 -41.75
L 0.55 -49.1 -26.95 -41.75 -26.9 -41.75 -0.25 -17.6 27.85 -41.75 Z"/>

<path fill="#D98EAD" stroke="none" d="
M 54.1 -49.1
L 36.65 -49.1 67.85 -39.4 89.9 -17.7 99.1 -17.7 54.1 -49.1 Z"/>
</g>

<path id="Body_Parts_Characters_Ruby_Ruby_Body_0_Layer0_0_1_STROKES" stroke="#660014" stroke-width="3" stroke-linejoin="miter" stroke-linecap="round" stroke-miterlimit="12" fill="none" d="
M 36.675 -49.1
L 0.55 -49.1 -35.55 -49.1
M 36.675 -49.1
L 54.125 -49.1 99.125 -17.7 0.5 65.4 -99.2 -17.55 -63.8 -42.3 -54.075 -49.1 -35.55 -49.1"/>
</defs>

<g transform="matrix( 1, 0, 0, 1, 101.65,68) ">
<g transform="matrix( 1, 0, 0, 1, 0,0) ">
<use xlink:href="#Body_Parts_Characters_Ruby_Ruby_Body_0_Layer0_0_FILL"/>

<use xlink:href="#Body_Parts_Characters_Ruby_Ruby_Body_0_Layer0_0_1_STROKES"/>
</g>
</g>
</svg>
