
<svg xmlns="http://www.w3.org/2000/svg" version="1.1" xmlns:xlink="http://www.w3.org/1999/xlink" preserveAspectRatio="none" x="0px" y="0px" width="197px" height="285px" viewBox="0 0 197 285">
<defs>
<g id="Symbol_2_0_Layer0_0_FILL">
<path fill="#CC0000" stroke="none" d="
M -19.65 -116.5
L -19.65 -139.3 -32.8 -139.3 -32.8 -116.5 -19.65 -116.5
M 68.15 -116.5
L 68.15 -139.3 54 -139.3 54 -116.5 68.15 -116.5 Z"/>

<path fill="#FF3333" stroke="none" d="
M -52.1 -116.5
L -52.1 -139.3 -61.25 -139.3 -61.25 -116.5 -52.1 -116.5
M 32.65 -116.5
L 32.65 -139.3 23.05 -139.3 23.05 -116.5 32.65 -116.5 Z"/>

<path fill="#FF0000" stroke="none" d="
M 18.8 -139.3
L 18.8 -116.5 -19.65 -116.5 -32.8 -116.5 -32.8 -139.3 -52.1 -139.3 -52.1 -116.5 -61.25 -116.5 -61.25 -139.3 -68.95 -139.3 -68.95 -116.5 -95.1 -116.5 -95.1 0 95.1 0 95.1 -116.5 68.15 -116.5 54 -116.5 54 -139.3 32.65 -139.3 32.65 -116.5 23.05 -116.5 23.05 -139.3 18.8 -139.3 Z"/>
</g>

<path id="Symbol_2_0_Layer0_0_1_STROKES" stroke="#660000" stroke-width="6" stroke-linejoin="miter" stroke-linecap="round" stroke-miterlimit="3" fill="none" d="
M -19.65 -116.5
L 18.8 -116.5 18.8 -139.3 23.05 -139.3 32.65 -139.3 54 -139.3 68.15 -139.3 68.15 -116.5 95.1 -116.5 95.1 0 -95.1 0 -95.1 -116.5 -68.95 -116.5 -68.95 -139.3 -61.25 -139.3 -52.1 -139.3 -32.8 -139.3 -19.65 -139.3 -19.65 -116.5 Z"/>
</defs>

<g transform="matrix( 1, 0, 0, 1, 98.1,142.5) ">
<g transform="matrix( 1, 0, 0, 1, 0,0) ">
<use xlink:href="#Symbol_2_0_Layer0_0_FILL"/>

<use xlink:href="#Symbol_2_0_Layer0_0_1_STROKES"/>
</g>
</g>
</svg>
