
<svg xmlns="http://www.w3.org/2000/svg" version="1.1" xmlns:xlink="http://www.w3.org/1999/xlink" preserveAspectRatio="none" x="0px" y="0px" width="76.75px" height="72.75px" viewBox="-40.2 -72.75 76.75 72.75">
<defs>
<g id="Symbol_429_0_Layer0_0_FILL">
<path fill="#808080" stroke="none" d="
M -62.7 -104.65
L -62.75 -100.45
Q -62.55 -96.65 -61.2 -93.15 -60.2 -90.5 -58.8 -88.65 -57.7 -87.2 -56.3 -86.25
L -56.3 -83.7 -58.95 -83.7 -60.25 -84.25
Q -66.4 -87 -68.9 -86.25
L -68.9 -79.75 -66.7 -73.65 -66.7 -71.55
Q -68.4 -71.55 -70.2 -70.2
L -74.1 -68
Q -75.8 -67.6 -76.7 -66.7 -75.4 -64.75 -75.4 -61.95 -75.4 -60.25 -75.8 -58.45
L -77.55 -52.4
Q -77.8 -50.2 -79.4 -47.7
L -81 -45.45 -70.85 -30.55
Q -68.15 -26.25 -66.15 -22.2
L -64.1 -18.15 -63.7 -17.7
Q -62.8 -16.5 -62.7 -11.65
L -62.4 -5.15 -61.1 -0.45 -59.35 2.05 -58.75 3.1
Q -58.1 4.55 -58.05 6.55
L -58.05 6.9
Q -58.05 9 -60.35 11
L -61.05 11.5
Q -64.1 13.7 -64.1 15.35 -64.1 18.1 -61.95 20.15 -59.85 22.2 -59.85 24.2 -59.85 27.85 -68.05 33.1 -76.25 38.4 -76.25 38.55 -76.25 39.95 -72.1 45.35 -67.85 50.85 -67.6 55.05 -67.15 62.8 -67.15 69.75 -67.15 71.05 -65.4 74.95 -64.35 77.2 -64.1 80.6 -63.95 82.4 -62.8 84.95
L -61.15 87.5
Q -60.2 89 -60.2 90.75 -60.2 91.55 -61.1 96.2 -61.25 97.35 -62.7 100.1 -64.1 102.7 -64.1 103.75 -64.1 106.7 -58.05 117 -58.05 119.15 -62.55 124.55
L 182.1 124.55 182.1 -124.55 -58.1 -124.55
Q -60.2 -122.35 -60.2 -120.05 -60.2 -119.25 -57.75 -115.7
L -57.65 -115.55
Q -55.1 -111.75 -54.3 -110
L -54.15 -109.65 -58.75 -109.55 -61.6 -109.15
Q -62.5 -108.5 -62.7 -104.65 Z"/>
</g>

<g id="Mask_Mask_Symbol_429_0_Layer0_0_FILL">
<path fill="#FFFFFF" stroke="none" d="
M -62.7 -104.65
L -62.75 -100.45
Q -62.55 -96.65 -61.2 -93.15 -60.2 -90.5 -58.8 -88.65 -57.7 -87.2 -56.3 -86.25
L -56.3 -83.7 -58.95 -83.7 -60.25 -84.25
Q -66.4 -87 -68.9 -86.25
L -68.9 -79.75 -66.7 -73.65 -66.7 -71.55
Q -68.4 -71.55 -70.2 -70.2
L -74.1 -68
Q -75.8 -67.6 -76.7 -66.7 -75.4 -64.75 -75.4 -61.95 -75.4 -60.25 -75.8 -58.45
L -77.55 -52.4
Q -77.8 -50.2 -79.4 -47.7
L -81 -45.45 -70.85 -30.55
Q -68.15 -26.25 -66.15 -22.2
L -64.1 -18.15 -63.7 -17.7
Q -62.8 -16.5 -62.7 -11.65
L -62.4 -5.15 -61.1 -0.45 -59.35 2.05 -58.75 3.1
Q -58.1 4.55 -58.05 6.55
L -58.05 6.9
Q -58.05 9 -60.35 11
L -61.05 11.5
Q -64.1 13.7 -64.1 15.35 -64.1 18.1 -61.95 20.15 -59.85 22.2 -59.85 24.2 -59.85 27.85 -68.05 33.1 -76.25 38.4 -76.25 38.55 -76.25 39.95 -72.1 45.35 -67.85 50.85 -67.6 55.05 -67.15 62.8 -67.15 69.75 -67.15 71.05 -65.4 74.95 -64.35 77.2 -64.1 80.6 -63.95 82.4 -62.8 84.95
L -61.15 87.5
Q -60.2 89 -60.2 90.75 -60.2 91.55 -61.1 96.2 -61.25 97.35 -62.7 100.1 -64.1 102.7 -64.1 103.75 -64.1 106.7 -58.05 117 -58.05 119.15 -62.55 124.55
L 182.1 124.55 182.1 -124.55 -58.1 -124.55
Q -60.2 -122.35 -60.2 -120.05 -60.2 -119.25 -57.75 -115.7
L -57.65 -115.55
Q -55.1 -111.75 -54.3 -110
L -54.15 -109.65 -58.75 -109.55 -61.6 -109.15
Q -62.5 -108.5 -62.7 -104.65 Z"/>
</g>

<g id="Symbol_466_0_Layer31_0_FILL">
<path fill="#FFFFFF" stroke="none" d="
M -72.35 -9.1
L -66.95 -9.1 -66.95 -13.15 -72.35 -13.15 -72.35 -21.55 -76.85 -21.55 -76.85 -14.2 -76.8 -14.2 -76.8 10.3 -76.5 11.75
Q -76.15 12.95 -75.35 13.6 -74.6 14.3 -73.35 14.5
L -66.95 14.75 -66.95 10.7 -70.7 10.6 -71.75 10.25 -72.25 9.5 -72.35 8.2 -72.35 -9.1
M 22.9 -59.1
L 17.85 -59.1 28.65 -31.35 26.8 -26.6
Q 26.15 -25.35 25.35 -24.75 24.5 -24.1 23.15 -24.1
L 21.8 -24.3 20.55 -24.75 20.55 -20.5 22.05 -20.15 23.65 -20 26.25 -20.4
Q 27.45 -20.85 28.35 -21.75
L 30 -24.05 43.35 -59.1 38.6 -59.1 30.95 -36.3 30.85 -36.3 22.9 -59.1
M -29.7 -13.15
L -33.9 -13.15 -33.9 14.75 -29.45 14.75 -29.45 2.35
Q -29.45 -0.3 -28.95 -2.4 -28.4 -4.5 -27.25 -5.95 -26.1 -7.45 -24.15 -8.2 -22.3 -8.95 -19.6 -8.95
L -19.6 -13.8
Q -23.25 -13.9 -25.6 -12.3 -28 -10.7 -29.55 -7.3
L -29.7 -7.3 -29.7 -13.15
M -62.4 -5.35
L -62.5 -5.1
Q -63.5 -2.4 -63.5 0.7 -63.4 3.9 -62.55 6.6 -61.8 9.1 -60.35 11
L -60.15 11.25
Q -58.55 13.2 -56.1 14.3 -53.7 15.4 -50.45 15.4 -45.8 15.4 -42.8 13 -39.75 10.55 -38.85 5.9
L -43.2 5.9
Q -43.85 8.65 -45.65 10 -47.5 11.35 -50.3 11.35 -52.5 11.35 -54.15 10.6 -55.75 9.85 -56.8 8.6
L -58.05 6.55 -58.4 5.65 -58.75 3.1 -58.75 2.15 -38.4 2.15
Q -38.3 -0.35 -38.85 -3.2 -39.45 -5.95 -40.85 -8.35 -42.3 -10.7 -44.7 -12.3 -47.15 -13.8 -50.75 -13.8 -53.5 -13.8 -55.85 -12.7 -58.2 -11.65 -59.9 -9.7 -61.5 -7.85 -62.4 -5.35
M -58.1 -4.9
Q -57.5 -6.35 -56.55 -7.4
L -54.1 -9.15
Q -52.75 -9.75 -50.95 -9.75
L -47.9 -9.15
Q -46.5 -8.5 -45.45 -7.45 -44.45 -6.4 -43.85 -4.95 -43.25 -3.5 -43.1 -1.9
L -58.75 -1.9
Q -58.7 -3.5 -58.1 -4.9
M -22.85 -55.65
Q -24.55 -53.7 -25.5 -51.05 -26.45 -48.35 -26.45 -45.25 -26.4 -42.05 -25.55 -39.35 -24.7 -36.65 -23.1 -34.7 -21.5 -32.75 -19.05 -31.65 -16.65 -30.55 -13.4 -30.55 -8.75 -30.55 -5.75 -32.95 -2.7 -35.4 -1.8 -40.05
L -6.2 -40.05
Q -6.85 -37.3 -8.6 -35.95 -10.45 -34.6 -13.25 -34.6 -15.45 -34.6 -17.1 -35.35 -18.7 -36.1 -19.8 -37.35 -20.8 -38.65 -21.35 -40.3 -21.8 -41.95 -21.75 -43.8
L -1.35 -43.8
Q -1.25 -46.3 -1.8 -49.15 -2.4 -51.9 -3.8 -54.3 -5.25 -56.65 -7.65 -58.25 -10.1 -59.75 -13.7 -59.75 -16.5 -59.75 -18.8 -58.65 -21.15 -57.6 -22.85 -55.65
M -13.95 -55.7
Q -12.35 -55.7 -10.85 -55.1 -9.45 -54.45 -8.4 -53.4 -7.4 -52.35 -6.8 -50.9 -6.2 -49.45 -6.1 -47.85
L -21.75 -47.85
Q -21.65 -49.45 -21.05 -50.85 -20.45 -52.3 -19.5 -53.35 -18.45 -54.45 -17.05 -55.1 -15.7 -55.7 -13.95 -55.7
M -29.1 -59.1
L -33.75 -59.1 -41.2 -35.85 -41.3 -35.85 -48.9 -59.1 -53.95 -59.1 -43.85 -31.2 -39.05 -31.2 -29.1 -59.1
M -32.95 -90
L -32.95 -94.3 -48.15 -94.3 -48.15 -90 -32.95 -90
M -83 -45.1
Q -83 -42.05 -82.15 -39.4 -81.3 -36.75 -79.65 -34.8 -77.95 -32.8 -75.5 -31.65 -73.45 -30.75 -70.85 -30.55
L -69.8 -30.55
Q -66.6 -30.55 -64.1 -31.65 -61.65 -32.8 -59.95 -34.8 -58.3 -36.75 -57.4 -39.4 -56.6 -42.05 -56.6 -45.1 -56.6 -48.2 -57.4 -50.85 -58.3 -53.55 -59.95 -55.5 -61.65 -57.5 -64.1 -58.6 -66.6 -59.75 -69.8 -59.75 -73.05 -59.75 -75.5 -58.6
L -75.8 -58.45
Q -78.05 -57.4 -79.65 -55.5 -81.3 -53.55 -82.15 -50.85 -83 -48.2 -83 -45.1
M -75.8 -52.95
Q -74.65 -54.3 -73.05 -55
L -69.8 -55.7
Q -68.05 -55.7 -66.45 -55 -64.9 -54.3 -63.8 -52.95 -62.65 -51.6 -62 -49.65 -61.3 -47.65 -61.3 -45.1 -61.3 -42.6 -62 -40.6 -62.65 -38.65 -63.8 -37.3 -64.9 -36 -66.45 -35.3 -68.05 -34.6 -69.8 -34.6 -71.55 -34.6 -73.05 -35.3
L -74.55 -36.15 -75.8 -37.3
Q -76.95 -38.6 -77.55 -40.5
L -77.6 -40.6
Q -78.3 -42.6 -78.25 -45.1 -78.3 -47.65 -77.6 -49.65 -76.95 -51.6 -75.8 -52.95
M -22.3 -105.05
L -26.8 -105.05 -26.8 -66.45 -22.3 -66.45 -22.3 -80.85 -22.2 -80.85
Q -21.5 -79.65 -20.35 -78.8 -19.3 -77.95 -18.1 -77.45 -16.9 -76.9 -15.7 -76.7
L -13.45 -76.5
Q -10.35 -76.5 -8 -77.65 -5.65 -78.8 -4.1 -80.8 -2.55 -82.75 -1.8 -85.4 -1 -88.05 -1 -91 -1 -94 -1.8 -96.65 -2.6 -99.25 -4.15 -101.3 -5.7 -103.35 -8.05 -104.5 -10.4 -105.7 -13.55 -105.7 -16.4 -105.7 -18.75 -104.65 -21.1 -103.6 -22.2 -101.3
L -22.3 -101.3 -22.3 -105.05
M -14.15 -101.65
Q -12.05 -101.65 -10.35 -100.75 -8.8 -99.95 -7.8 -98.45 -6.75 -97 -6.25 -95.15 -5.75 -93.3 -5.75 -91.35 -5.75 -89.3 -6.15 -87.35 -6.6 -85.4 -7.55 -83.9 -8.5 -82.4 -10.05 -81.45 -11.65 -80.55 -13.9 -80.55 -16.2 -80.55 -17.85 -81.45 -19.45 -82.35 -20.5 -83.8 -21.55 -85.25 -22 -87.15 -22.45 -89.05 -22.45 -91.1 -22.45 -93.1 -22 -94.95 -21.6 -96.85 -20.55 -98.3 -19.6 -99.8 -17.95 -100.7 -16.4 -101.65 -14.15 -101.65
M -73.1 -104.55
Q -75.45 -103.4 -77 -101.4 -78.55 -99.4 -79.3 -96.75 -80.1 -94.15 -80.05 -91.2 -80.1 -88.2 -79.3 -85.55 -78.5 -82.9 -76.95 -80.9 -75.4 -78.85 -73.05 -77.7 -70.75 -76.55 -67.7 -76.5
L -67.55 -76.5
Q -64.75 -76.5 -62.35 -77.55 -60 -78.6 -58.85 -80.9
L -58.75 -80.9 -58.75 -77.15 -54.3 -77.15 -54.3 -115.7 -58.75 -115.7 -58.75 -101.35 -58.85 -101.35
Q -59.6 -102.55 -60.65 -103.4
L -62.7 -104.65 -62.95 -104.75 -65.4 -105.5 -67.65 -105.7
Q -70.75 -105.7 -73.1 -104.55
M -67.2 -101.65
Q -64.9 -101.65 -63.25 -100.75
L -62.75 -100.45 -60.55 -98.4
Q -59.55 -96.95 -59.05 -95.05 -58.65 -93.15 -58.6 -91.05
L -59.05 -87.25
Q -59.45 -85.6 -60.25 -84.25
L -60.5 -83.85
Q -61.5 -82.4 -63.05 -81.45 -64.7 -80.55 -66.9 -80.55
L -68.9 -80.75
Q -69.85 -80.95 -70.65 -81.4 -72.3 -82.25 -73.3 -83.75 -74.35 -85.2 -74.85 -87.05 -75.35 -88.9 -75.35 -90.85 -75.35 -92.9 -74.95 -94.85 -74.55 -96.8 -73.55 -98.3 -72.65 -99.8 -71.05 -100.7 -69.5 -101.65 -67.2 -101.65
M 7.3 -59.1
L 3.15 -59.1 3.15 -31.2 7.6 -31.2 7.6 -43.6
Q 7.6 -46.25 8.1 -48.35 8.65 -50.45 9.8 -51.9 10.95 -53.4 12.9 -54.15 14.75 -54.9 17.45 -54.9
L 17.45 -59.75
Q 13.8 -59.85 11.45 -58.25 9.05 -56.65 7.45 -53.25
L 7.3 -53.25 7.3 -59.1
M 16 -105.7
Q 12.7 -105.7 10.3 -104.55 7.85 -103.45 6.15 -101.45 4.5 -99.5 3.6 -96.8 2.75 -94.15 2.8 -91.05 2.75 -88 3.6 -85.35 4.5 -82.7 6.15 -80.75 7.85 -78.75 10.3 -77.6 12.7 -76.5 16 -76.5 19.2 -76.5 21.7 -77.6 24.15 -78.75 25.85 -80.75 27.5 -82.7 28.4 -85.35 29.2 -88 29.2 -91.05 29.2 -94.15 28.4 -96.8 27.5 -99.5 25.85 -101.45 24.15 -103.45 21.7 -104.55 19.2 -105.7 16 -105.7
M 12.75 -100.95
Q 14.25 -101.65 16 -101.65 17.75 -101.65 19.3 -100.95 20.85 -100.25 22 -98.9 23.15 -97.55 23.8 -95.6 24.45 -93.6 24.5 -91.05 24.45 -88.55 23.8 -86.55 23.15 -84.6 22 -83.25 20.85 -81.95 19.3 -81.25 17.75 -80.55 16 -80.55 14.25 -80.55 12.75 -81.25 11.1 -81.95 10 -83.25 8.8 -84.6 8.2 -86.55 7.5 -88.55 7.5 -91.05 7.5 -93.6 8.2 -95.6 8.8 -97.55 10 -98.9 11.1 -100.25 12.75 -100.95
M 36.95 -105.05
L 32 -105.05 40.75 -77.15 45.6 -77.15 51.05 -99.35 51.15 -99.35 56.7 -77.15 61.4 -77.15 70.1 -105.05 65.45 -105.05 59.4 -82.25 59.3 -82.25 53.6 -105.05 48.7 -105.05 43.2 -82.25 43.1 -82.25 36.95 -105.05
M 159.45 -105.7
Q 156.3 -105.7 154 -104.55 151.65 -103.4 150.1 -101.4 148.5 -99.4 147.8 -96.75 147 -94.15 147 -91.2 147 -88.2 147.8 -85.55 148.55 -82.9 150.15 -80.9 151.7 -78.85 154.05 -77.7 156.35 -76.5 159.55 -76.5 162.35 -76.5 164.75 -77.55 167.1 -78.6 168.2 -80.9
L 168.3 -80.9 168.3 -77.15 172.8 -77.15 172.8 -115.7 168.3 -115.7 168.3 -101.35 168.2 -101.35 166.4 -103.4
Q 165.25 -104.25 164.1 -104.75
L 161.7 -105.5 159.45 -105.7
M 156.05 -100.7
Q 157.6 -101.65 159.9 -101.65 162.2 -101.65 163.8 -100.75 165.45 -99.85 166.5 -98.4 167.5 -96.95 168 -95.05 168.45 -93.15 168.45 -91.05 168.45 -89.1 168 -87.25 167.55 -85.35 166.55 -83.85 165.55 -82.4 164 -81.45 162.4 -80.55 160.15 -80.55 158 -80.55 156.4 -81.4 154.8 -82.25 153.8 -83.75 152.75 -85.2 152.2 -87.05 151.7 -88.9 151.75 -90.85 151.75 -92.9 152.15 -94.85 152.55 -96.8 153.55 -98.3 154.45 -99.8 156.05 -100.7
M 131.5 -105.7
Q 128.7 -105.7 126.4 -104.6 124.05 -103.55 122.35 -101.6 120.6 -99.65 119.7 -97 118.75 -94.3 118.75 -91.2 118.8 -88 119.65 -85.3 120.5 -82.6 122.1 -80.65 123.7 -78.7 126.15 -77.6 128.5 -76.5 131.8 -76.5 136.45 -76.5 139.45 -78.9 142.5 -81.35 143.4 -86
L 139 -86
Q 138.35 -83.25 136.6 -81.9 134.7 -80.55 131.95 -80.55 129.75 -80.55 128.1 -81.3 126.45 -82.05 125.4 -83.3 124.4 -84.6 123.85 -86.25 123.4 -87.9 123.45 -89.75
L 143.85 -89.75
Q 143.95 -92.25 143.4 -95.1 142.8 -97.85 141.4 -100.25 139.95 -102.6 137.55 -104.2 135.1 -105.7 131.5 -105.7
M 125.7 -99.3
Q 126.7 -100.4 128.15 -101.05 129.5 -101.65 131.25 -101.65 132.85 -101.65 134.35 -101.05 135.75 -100.4 136.75 -99.35 137.8 -98.3 138.4 -96.85 139 -95.4 139.1 -93.8
L 123.45 -93.8
Q 123.55 -95.4 124.15 -96.8 124.75 -98.25 125.7 -99.3
M 112.25 -100.1
Q 114.15 -100.85 116.85 -100.85
L 116.85 -105.7
Q 113.15 -105.8 110.85 -104.2 108.45 -102.6 106.85 -99.2
L 106.7 -99.2 106.7 -105.05 102.5 -105.05 102.5 -77.15 107 -77.15 107 -89.55
Q 107 -92.2 107.5 -94.3 108 -96.4 109.2 -97.85 110.35 -99.35 112.25 -100.1
M 95.6 -100.25
Q 94.1 -102.6 91.75 -104.2 89.3 -105.7 85.7 -105.7 82.9 -105.7 80.6 -104.6 78.25 -103.55 76.55 -101.6 74.8 -99.65 73.9 -97 72.95 -94.3 72.95 -91.2 73 -88 73.85 -85.3 74.65 -82.6 76.3 -80.65 77.9 -78.7 80.35 -77.6 82.7 -76.5 86 -76.5 90.6 -76.5 93.65 -78.9 96.7 -81.35 97.6 -86
L 93.2 -86
Q 92.55 -83.25 90.75 -81.9 88.9 -80.55 86.15 -80.55 83.95 -80.55 82.3 -81.3 80.65 -82.05 79.6 -83.3 78.55 -84.6 78.05 -86.25 77.6 -87.9 77.65 -89.75
L 98.05 -89.75
Q 98.1 -92.25 97.6 -95.1 97 -97.85 95.6 -100.25
M 88.5 -101.05
Q 89.9 -100.4 90.95 -99.35 91.95 -98.3 92.55 -96.85 93.2 -95.4 93.3 -93.8
L 77.65 -93.8
Q 77.75 -95.4 78.35 -96.8 78.9 -98.25 79.9 -99.3
L 82.35 -101.05
Q 83.7 -101.65 85.45 -101.65 87.05 -101.65 88.5 -101.05 Z"/>
</g>

<g id="Symbol_466_0_Layer29_0_FILL">
<path fill="#26CA2F" stroke="none" d="
M 148.9 76.75
Q 154.9 76.75 159.15 72.5 163.4 68.25 163.4 62.25 163.4 56.25 159.15 52 154.9 47.75 148.9 47.75 142.9 47.75 138.65 52 134.4 56.25 134.4 62.25 134.4 68.25 138.65 72.5 142.9 76.75 148.9 76.75 Z"/>

<path fill="#666666" stroke="none" d="
M 58.55 79.9
L 72.35 79.9 72.35 66.1 58.55 66.1 58.55 79.9
M 58.55 66.1
L 44.8 66.1 44.8 79.9 58.55 79.9 58.55 66.1
M 44.8 52.35
L 44.8 66.1 58.55 66.1 58.55 52.35 44.8 52.35
M 72.35 66.1
L 72.35 52.35 58.55 52.35 58.55 66.1 72.35 66.1
M 113.6 66.1
L 113.6 79.9 127.35 79.9 127.35 66.1 113.6 66.1
M 99.85 79.9
L 113.6 79.9 113.6 66.1 99.85 66.1 99.85 79.9
M 86.1 79.9
L 86.1 66.1 72.35 66.1 72.35 79.9 86.1 79.9
M 99.85 66.1
L 86.1 66.1 86.1 79.9 99.85 79.9 99.85 66.1
M 86.1 66.1
L 86.1 52.35 72.35 52.35 72.35 66.1 86.1 66.1
M 99.85 52.35
L 86.1 52.35 86.1 66.1 99.85 66.1 99.85 52.35
M 113.6 66.1
L 113.6 52.35 99.85 52.35 99.85 66.1 113.6 66.1
M 113.6 52.35
L 113.6 66.1 127.35 66.1 127.35 52.35 113.6 52.35
M 58.55 38.55
L 44.8 38.55 44.8 52.2 58.55 52.2 58.55 38.55
M 58.55 38.55
L 58.55 24.8 44.8 24.8 44.8 38.55 58.55 38.55
M 72.35 38.55
L 58.55 38.55 58.55 52.2 72.35 52.2 72.35 38.55
M 72.35 38.55
L 72.35 24.8 58.55 24.8 58.55 38.55 72.35 38.55
M 86.1 52.2
L 86.1 38.55 72.35 38.55 72.35 52.2 86.1 52.2
M 113.6 52.2
L 127.35 52.2 127.35 38.55 113.6 38.55 113.6 52.2
M 86.1 38.55
L 86.1 24.8 72.35 24.8 72.35 38.55 86.1 38.55
M 99.85 38.55
L 86.1 38.55 86.1 52.2 99.85 52.2 99.85 38.55
M 99.85 38.55
L 99.85 24.8 86.1 24.8 86.1 38.55 99.85 38.55
M 113.6 38.55
L 99.85 38.55 99.85 52.2 113.6 52.2 113.6 38.55
M 113.6 38.55
L 113.6 24.8 99.85 24.8 99.85 38.55 113.6 38.55
M 127.35 38.55
L 127.35 24.8 113.6 24.8 113.6 38.55 127.35 38.55
M 141.1 38.55
L 141.1 24.8 127.35 24.8 127.35 38.55 141.1 38.55
M 154.9 24.8
L 141.1 24.8 141.1 38.55 154.9 38.55 154.9 24.8 Z"/>
</g>

<g id="Symbol_466_0_Layer28_0_FILL">
<path fill="#FFFFFF" stroke="none" d="
M 158.9 57.45
Q 157.35 55.6 154.8 55.6 152.2 55.6 150.7 57.45 149.3 59.1 149.3 61.6 149.3 64.1 150.7 65.75 152.2 67.55 154.8 67.55 157.35 67.55 158.9 65.75 160.25 64.1 160.25 61.6 160.25 59.1 158.9 57.45
M 157.8 58.35
Q 158.75 59.65 158.75 61.6 158.75 63.5 157.8 64.8 156.75 66.3 154.8 66.3 152.85 66.3 151.75 64.8 150.85 63.5 150.85 61.6 150.85 59.65 151.75 58.35 152.85 56.9 154.8 56.9 156.75 56.9 157.8 58.35
M 146 56.5
Q 144.75 55.6 142.8 55.6 140.2 55.6 138.7 57.45 137.35 59.15 137.35 61.8 137.35 64.15 138.8 65.8 140.3 67.55 142.8 67.55 145.15 67.55 146.45 65.9
L 146.85 67.3 147.8 67.3 147.8 61.3 142.8 61.3 142.8 62.55 146.45 62.55
Q 146.5 64.2 145.55 65.2 144.5 66.3 142.8 66.3 140.95 66.3 139.85 64.9 138.85 63.65 138.85 61.75 138.85 59.7 139.8 58.4 140.85 56.9 142.8 56.9 144.1 56.9 145 57.5 145.95 58.15 146.15 59.4
L 147.7 59.4
Q 147.4 57.5 146 56.5 Z"/>
</g>

<g id="Symbol_466_0_Layer27_0_FILL">
<path fill="#FFFFFF" stroke="none" d="
M 52.15 26.9
L 50.8 26.9 47.15 36.2 48.45 36.2 49.45 33.4 53.4 33.4 54.4 36.2 55.75 36.2 52.15 26.9
M 51.45 28.05
L 53 32.35 49.85 32.35 51.45 28.05 Z"/>
</g>

<g id="Symbol_466_0_Layer26_0_FILL">
<path fill="#FFFFFF" stroke="none" d="
M 51.3 40.4
L 50.05 40.4 50.05 49.7 51.3 49.7 51.3 40.4 Z"/>
</g>

<g id="Symbol_466_0_Layer25_0_FILL">
<path fill="#FFFFFF" stroke="none" d="
M 54.75 55.95
Q 53.55 54.45 51.45 54.45 49.35 54.45 48.1 55.95 47 57.3 47 59.3 47 61.35 48.1 62.7 49.35 64.15 51.45 64.15 53.55 64.15 54.75 62.7 55.9 61.35 55.9 59.3 55.9 57.3 54.75 55.95
M 53.9 56.7
Q 54.65 57.75 54.65 59.3 54.65 60.85 53.9 61.95 53.05 63.15 51.45 63.15 49.85 63.15 49 61.95 48.25 60.85 48.25 59.3 48.25 57.75 49 56.7 49.85 55.5 51.45 55.5 53.05 55.5 53.9 56.7 Z"/>
</g>

<g id="Symbol_466_0_Layer24_0_FILL">
<path fill="#FFFFFF" stroke="none" d="
M 54.7 74.1
L 54.7 68.15 53.5 68.15 53.5 74.1
Q 53.5 76.65 51.05 76.65 49.85 76.65 49.15 76 48.5 75.35 48.5 74.1
L 48.5 68.15 47.25 68.15 47.25 74.1
Q 47.25 77.65 51.05 77.65 52.85 77.65 53.75 76.75 54.7 75.85 54.7 74.1 Z"/>
</g>

<g id="Symbol_466_0_Layer23_0_FILL">
<path fill="#FFFFFF" stroke="none" d="
M 68.7 29.2
Q 68.7 27.9 67.6 27.25 67.05 26.9 65.15 26.9
L 61.75 26.9 61.75 36.2 66.25 36.2
Q 67.55 36.2 68.35 35.35 69.05 34.6 69.05 33.55 69.05 32.65 68.6 32.1 68.15 31.5 67.3 31.3
L 67.3 31.25
Q 68.7 30.7 68.7 29.2
M 66.85 28.2
Q 67.45 28.55 67.45 29.45 67.45 30.9 65.45 30.9
L 63 30.9 63 27.95 65.45 27.95
Q 66.45 27.95 66.85 28.2
M 63 35.15
L 63 31.95 65.8 31.95
Q 67.85 31.95 67.85 33.5 67.85 34.25 67.35 34.7 66.9 35.15 66.1 35.15
L 63 35.15 Z"/>
</g>

<g id="Symbol_466_0_Layer22_0_FILL">
<path fill="#FFFFFF" stroke="none" d="
M 67.15 40.4
L 65.9 40.4 65.9 47.2
Q 65.9 48.9 64.4 48.9 63.55 48.9 63.2 48.35 62.9 47.95 62.9 47.05
L 62.9 46.65 61.7 46.65 61.7 47.2
Q 61.7 48.55 62.4 49.25 63.1 49.9 64.4 49.9 65.85 49.9 66.55 49.1 67.15 48.45 67.15 47.4
L 67.15 40.4 Z"/>
</g>

<g id="Symbol_466_0_Layer21_0_FILL">
<path fill="#FFFFFF" stroke="none" d="
M 68.2 55.4
Q 67.45 54.65 66.1 54.65
L 62 54.65 62 63.95 63.25 63.95 63.25 60.15 66.1 60.15
Q 67.45 60.15 68.2 59.45 68.95 58.7 68.95 57.4 68.95 56.1 68.2 55.4
M 63.25 55.7
L 65.65 55.7
Q 67.7 55.7 67.7 57.4 67.7 59.15 65.65 59.1
L 63.25 59.1 63.25 55.7 Z"/>
</g>

<g id="Symbol_466_0_Layer20_0_FILL">
<path fill="#FFFFFF" stroke="none" d="
M 65.45 77.45
L 68.75 68.15 67.5 68.15 64.8 76.2 62.15 68.15 60.8 68.15 64.05 77.45 65.45 77.45 Z"/>
</g>

<g id="Symbol_466_0_Layer19_0_FILL">
<path fill="#FFFFFF" stroke="none" d="
M 82.55 29.7
L 83.75 29.7
Q 83.6 28.3 82.5 27.45 81.45 26.7 79.95 26.7 77.9 26.7 76.7 28.15 75.55 29.45 75.55 31.6 75.55 33.7 76.65 35 77.75 36.4 79.85 36.4 81.6 36.4 82.65 35.45 83.7 34.45 83.85 32.7
L 82.65 32.7
Q 82.55 33.9 81.85 34.6 81.15 35.4 79.95 35.4 78.35 35.4 77.55 34.25 76.8 33.2 76.8 31.5 76.8 29.9 77.55 28.9 78.4 27.75 79.95 27.75 80.95 27.75 81.65 28.25 82.35 28.75 82.55 29.7 Z"/>
</g>

<g id="Symbol_466_0_Layer18_0_FILL">
<path fill="#FFFFFF" stroke="none" d="
M 83.5 40.4
L 81.9 40.4 77.2 45.05 77.2 40.4 75.95 40.4 75.95 49.7 77.2 49.7 77.2 46.45 78.75 45 82.1 49.7 83.65 49.7 79.6 44.15 83.5 40.4 Z"/>
</g>

<g id="Symbol_466_0_Layer17_0_FILL">
<path fill="#FFFFFF" stroke="none" d="
M 83.35 64.75
L 83.95 64 82.75 63
Q 84.15 61.6 84.15 59.3 84.15 57.3 83 55.95 81.8 54.45 79.7 54.45 77.6 54.45 76.35 55.95 75.25 57.3 75.25 59.3 75.25 61.35 76.35 62.7 77.6 64.15 79.7 64.15 81 64.15 81.9 63.6
L 83.35 64.75
M 82.9 59.3
Q 82.9 61.2 81.85 62.3
L 80.6 61.3 79.95 62.05 81 62.85
Q 80.35 63.15 79.7 63.15 78.1 63.15 77.25 61.95 76.5 60.85 76.5 59.3 76.5 57.75 77.25 56.7 78.1 55.5 79.7 55.5 81.3 55.5 82.15 56.7 82.9 57.75 82.9 59.3 Z"/>
</g>

<g id="Symbol_466_0_Layer16_0_FILL">
<path fill="#FFFFFF" stroke="none" d="
M 82.65 77.45
L 85.15 68.15 83.9 68.15 82 75.9 79.95 68.15 78.6 68.15 76.5 75.9 74.65 68.15 73.4 68.15 75.8 77.45 77.05 77.45 79.2 69.65 79.25 69.65 81.35 77.45 82.65 77.45 Z"/>
</g>

<g id="Symbol_466_0_Layer15_0_FILL">
<path fill="#FFFFFF" stroke="none" d="
M 97.55 31.35
Q 97.55 26.9 93.1 26.9
L 89.9 26.9 89.9 36.2 93.1 36.2
Q 97.55 36.2 97.55 31.35
M 91.15 35.15
L 91.15 27.95 93.25 27.95
Q 96.3 27.95 96.3 31.5 96.3 33.7 95.1 34.6 94.35 35.15 93.2 35.15
L 91.15 35.15 Z"/>
</g>

<g id="Symbol_466_0_Layer14_0_FILL">
<path fill="#FFFFFF" stroke="none" d="
M 91.65 40.4
L 90.4 40.4 90.4 49.7 96.55 49.7 96.55 48.65 91.65 48.65 91.65 40.4 Z"/>
</g>

<g id="Symbol_466_0_Layer13_0_FILL">
<path fill="#FFFFFF" stroke="none" d="
M 91.25 60
L 94.25 60
Q 95.05 60 95.45 60.5 95.7 60.85 95.8 61.65 95.85 61.95 95.9 63 95.95 63.75 96.15 63.95
L 97.5 63.95
Q 97.2 63.55 97.1 62.75
L 97 61.4
Q 96.9 60.55 96.65 60.15 96.35 59.6 95.6 59.45 97.2 59 97.2 57.1 97.2 56 96.45 55.3 95.7 54.65 94.4 54.65
L 90 54.65 90 63.95 91.25 63.95 91.25 60
M 93.8 58.95
L 91.25 58.95 91.25 55.7 94.3 55.7
Q 95.95 55.7 95.95 57.3 95.95 58.95 93.8 58.95 Z"/>
</g>

<g id="Symbol_466_0_Layer12_0_FILL">
<path fill="#FFFFFF" stroke="none" d="
M 89.2 68.15
L 92.25 72.7 89.05 77.45 90.45 77.45 93 73.6 95.5 77.45 97 77.45 93.75 72.7 96.8 68.15 95.45 68.15 93 71.8 90.7 68.15 89.2 68.15 Z"/>
</g>

<g id="Symbol_466_0_Layer11_0_FILL">
<path fill="#FFFFFF" stroke="none" d="
M 110.65 27.95
L 110.65 26.9 104.25 26.9 104.25 36.2 110.7 36.2 110.7 35.15 105.5 35.15 105.5 31.95 110.3 31.95 110.3 30.9 105.5 30.9 105.5 27.95 110.65 27.95 Z"/>
</g>

<g id="Symbol_466_0_Layer10_0_FILL">
<path fill="#FFFFFF" stroke="none" d="
M 103.85 40.4
L 102.15 40.4 102.15 49.7 103.3 49.7 103.3 42 103.35 42 106.25 49.7 107.3 49.7 110.2 42 110.2 49.7 111.4 49.7 111.4 40.4 109.7 40.4 106.75 48.2 103.85 40.4 Z"/>
</g>

<g id="Symbol_466_0_Layer9_0_FILL">
<path fill="#FFFFFF" stroke="none" d="
M 109.55 55.15
Q 108.65 54.45 107.15 54.45 105.75 54.45 104.8 55.1 103.75 55.85 103.75 57.15 103.75 58.3 104.7 58.9 105.3 59.3 106.75 59.65 108.35 60 108.8 60.2 109.7 60.6 109.7 61.45 109.7 63.15 107.35 63.15 106.2 63.15 105.5 62.6 104.65 62 104.65 60.9
L 103.5 60.9
Q 103.5 62.5 104.6 63.4 105.65 64.15 107.3 64.15 108.75 64.15 109.75 63.5 110.95 62.75 110.95 61.4 110.95 60.15 110 59.5 109.35 59.05 107.95 58.75 106.25 58.35 105.95 58.2 105 57.8 105 57.1 105 55.5 107.1 55.5 109.2 55.5 109.4 57.4
L 110.55 57.4
Q 110.5 55.9 109.55 55.15 Z"/>
</g>

<g id="Symbol_466_0_Layer8_0_FILL">
<path fill="#FFFFFF" stroke="none" d="
M 110.95 68.15
L 109.55 68.15 106.85 72.6 104.05 68.15 102.6 68.15 106.15 73.65 106.15 77.45 107.4 77.45 107.4 73.65 110.95 68.15 Z"/>
</g>

<g id="Symbol_466_0_Layer7_0_FILL">
<path fill="#FFFFFF" stroke="none" d="
M 124.35 27.95
L 124.35 26.9 118.25 26.9 118.25 36.2 119.5 36.2 119.5 31.95 123.75 31.95 123.75 30.9 119.5 30.9 119.5 27.95 124.35 27.95 Z"/>
</g>

<g id="Symbol_466_0_Layer6_0_FILL">
<path fill="#FFFFFF" stroke="none" d="
M 123.05 47.95
L 123 47.95 118.1 40.4 116.8 40.4 116.8 49.7 117.95 49.7 117.95 42.25 118 42.25 122.85 49.7 124.2 49.7 124.2 40.4 123.05 40.4 123.05 47.95 Z"/>
</g>

<g id="Symbol_466_0_Layer5_0_FILL">
<path fill="#FFFFFF" stroke="none" d="
M 120.35 55.7
L 120.35 63.95 121.6 63.95 121.6 55.7 124.7 55.7 124.7 54.65 117.3 54.65 117.3 55.7 120.35 55.7 Z"/>
</g>

<g id="Symbol_466_0_Layer4_0_FILL">
<path fill="#FFFFFF" stroke="none" d="
M 116.85 76.4
L 116.85 77.45 124.2 77.45 124.2 76.4 118.3 76.4 124.05 69.2 124.05 68.15 117.3 68.15 117.3 69.2 122.6 69.2 116.85 76.4 Z"/>
</g>

<g id="Symbol_466_0_Layer3_0_FILL">
<path fill="#FFFFFF" stroke="none" d="
M 138.1 29.8
Q 137.9 28.2 136.75 27.4 135.75 26.7 134.15 26.7 132.05 26.7 130.8 28.2 129.7 29.6 129.7 31.75 129.7 33.65 130.9 35 132.15 36.4 134.15 36.4 136.05 36.4 137.1 35.05
L 137.45 36.2 138.2 36.2 138.2 31.3 134.15 31.3 134.15 32.35 137.1 32.35
Q 137.15 33.65 136.35 34.5 135.55 35.4 134.15 35.4 132.65 35.4 131.75 34.25 130.95 33.2 130.95 31.65 130.95 30.05 131.7 28.95 132.55 27.75 134.15 27.75 135.2 27.75 135.95 28.25 136.7 28.75 136.9 29.8
L 138.1 29.8 Z"/>
</g>

<g id="Symbol_466_0_Layer2_0_FILL">
<path fill="#FFFFFF" stroke="none" d="
M 151.65 26.9
L 150.45 26.9 150.45 30.9 145.55 30.9 145.55 26.9 144.3 26.9 144.3 36.2 145.55 36.2 145.55 31.95 150.45 31.95 150.45 36.2 151.65 36.2 151.65 26.9 Z"/>
</g>

<g id="Symbol_466_0_Layer1_0_FILL">
<path fill="#FFFFFF" fill-opacity="0.4588235294117647" stroke="none" d="
M 158.6 -35.05
L 157.95 -33.15
Q 157.2 -31.7 156.65 -31.2
L 156.35 -30.85 155.85 -29.85 155.65 -29.25
Q 155.5 -28.7 156.05 -28.5 156.65 -28.3 158 -30.45
L 160 -34.7
Q 160.45 -36.15 159.9 -36.3 159.2 -36.55 158.6 -35.05
M 143.9 -45.75
L 144.1 -46.1 144.3 -46.7
Q 144.35 -47.65 143 -48.05 140 -49.05 137.5 -46.3
L 136 -44.3 135.4 -43.15
Q 134.95 -42.55 134.95 -41.8 134.9 -40.35 137.1 -39.65
L 138.15 -39.45 138.6 -39.85
Q 138.75 -40.3 138.4 -40.6
L 137.55 -41.05 136.75 -41.65
Q 136.45 -42.1 136.7 -42.8
L 137.3 -44.05 137.75 -44.6 138.45 -44.8 140.45 -43.8 141.55 -43.6
Q 142.8 -43.8 143.35 -44.5
L 143.7 -45.1 143.9 -45.75
M 142.85 -46.6
L 142.45 -45.6 142.25 -45.35 142 -45.15 139.45 -45.65 139 -45.9 140.25 -46.7 141.55 -47 142.85 -46.6
M 149 -43.95
Q 148.75 -44.95 147.45 -45.35 145.55 -45.95 143.7 -44.05
L 142.55 -42.6 142.05 -41.75 141.95 -40.9
Q 141.9 -40.05 142.1 -39.25 142.7 -36.95 145.25 -36.1
L 146.85 -35.85
Q 147.55 -35.85 147.7 -36.25 147.95 -36.95 147.15 -37.2
L 144.7 -38
Q 144.15 -38.25 144.1 -38.45
L 144 -39.15 143.1 -40.5 144.3 -39.85
Q 145.75 -39.4 147.4 -40.95
L 148.45 -42.05 148.9 -42.8
Q 149.15 -43.4 149 -43.95
M 146.65 -42.05
Q 145.4 -41 144.3 -41.35
L 144 -41.7 143.8 -42.2 144.9 -43.3 146.4 -44.15 147.6 -43.65 147.65 -43.15 146.65 -42.05
M 114.6 -64.95
L 111.85 -64.95
Q 109.7 -64.8 109.55 -64.3 109.25 -63.7 109.95 -63.45
L 111.35 -63.45 109.4 -57.35 108.5 -55.65 106.7 -53.7 105.55 -51.45
Q 105.4 -50.75 105.95 -50.6 106.55 -50.4 107.4 -51.7
L 108.4 -53.6 109.85 -55.45 110.65 -56.95 110.8 -57.4
Q 111.65 -56.2 111.3 -55.3
L 110.8 -53.5
Q 110.55 -52.2 111.1 -52 111.55 -51.9 111.9 -52.3
L 112.15 -52.95 112.65 -54.95
Q 113.05 -57.1 112.6 -57.85 115.45 -58 116.7 -58.7 117.65 -59.3 118.15 -60.55
L 118.65 -62.1 118.65 -63.05 117.95 -63.8 114.6 -64.95
M 112.7 -63.6
L 112.85 -63.6 114.05 -63.7 117.2 -62.65 116.9 -60.95
Q 116.5 -60 115.4 -59.6
L 113.2 -59.3 111.5 -59.45 112.7 -63.6
M 96.15 -50.1
L 94.4 -49.85
Q 94.3 -49.65 94.35 -49.45
L 94.95 -48.95 106.5 -47.6 111.5 -46.25
Q 114 -45.45 115.85 -44.1
L 121.65 -38.9
Q 123.7 -37.55 126.55 -36.65
L 128.65 -36 131.35 -35.5 138.45 -35.35
Q 140.6 -35.2 143.15 -34.35 144.55 -33.9 146.45 -32.65
L 153.25 -27.9
Q 154.95 -26.8 155.95 -26.5
L 158.05 -26.3
Q 158.65 -26.45 158.85 -26.9 159.05 -27.6 158.45 -27.8
L 158 -27.8 157.9 -27.65 155.35 -28.1 150.9 -31.45
Q 145.95 -34.9 143.75 -35.6
L 138.4 -36.85 131.4 -37 129.2 -37.4 124.25 -38.8
Q 123.2 -39.15 122.05 -40.25
L 119.8 -42.65
Q 118.25 -44.25 116.7 -45.3 114.6 -46.7 112.05 -47.5
L 107 -48.85 96.15 -50.1
M 91.25 -63.05
Q 92.25 -65.6 93.4 -66.95 94.5 -68.35 96.05 -68.75
L 99.5 -68.9 104.1 -67.7
Q 106.15 -67.05 106.25 -64.95
L 106.3 -63.55
Q 106.25 -62.9 106.55 -62.8 107.15 -62.6 108.05 -64.05
L 108.9 -65.75 109.2 -66.6
Q 109.4 -67.45 108.9 -67.6 108.15 -67.85 107.85 -67.1
L 107.65 -66.45 107.55 -65.9 107.5 -65.9 107.45 -66.5 107.2 -67.3
Q 106.4 -68.4 102.9 -69.55
L 99.05 -70.5 95.6 -70.15
Q 92.2 -69 89.95 -63.35 89.45 -62.15 89.45 -61.45 89.45 -60.7 90.05 -59 90.55 -57.55 91.35 -56.3 92.6 -54.4 94.2 -53.9 97.6 -52.8 100.9 -55.35
L 103.3 -57.95 104 -57.2
Q 104.9 -56.45 106.45 -55.95
L 107.65 -55.7 108.15 -56.1
Q 108.3 -56.55 108 -56.8
L 105.7 -57.85
Q 104.8 -58.35 104.2 -59.1
L 104.05 -59.5 103.55 -60.4
Q 102.5 -61.75 100.55 -62.35
L 97.9 -62.7 95.9 -62.45 95.85 -62.1
Q 95.95 -61.75 96.85 -61.4
L 97.8 -61.25 98.25 -61.3 100.1 -61.05 101.85 -60 102.5 -59.1 100.7 -56.9
Q 99.35 -55.95 98.35 -55.5 96.4 -54.65 94.9 -55.15 92.6 -55.85 91.65 -59.2 91.3 -60.45 91.2 -61.65 91.1 -62.75 91.25 -63.05
M 136.15 -53.95
L 136.1 -53.55
Q 136.1 -53.2 136.5 -53.05
L 138.75 -53.25
Q 141.15 -53.4 144.1 -52.45 145 -52.15 145.65 -51.65
L 152.35 -44.25 151.45 -42.6 149.9 -35.25
Q 149.55 -33.35 150.4 -33.05
L 151 -33.15 151.3 -33.5 151.65 -35.65
Q 151.7 -37.3 151.9 -37.9
L 152.7 -42.2 153.3 -43.25
Q 155.45 -41.05 157.2 -40.45
L 156.25 -38.95 156.05 -38.4
Q 155.9 -37.85 156.45 -37.7 157.2 -37.45 158.8 -38.25
L 160.55 -39.15 160.65 -38.25
Q 160.8 -37.45 161.3 -37.3
L 162.7 -35.55
Q 163.25 -35.4 163.6 -35.95
L 163.95 -36.8
Q 164.4 -38.05 164.35 -39.5
L 164.25 -40.45 164.3 -41.05 165.4 -42.1
Q 166.5 -43.15 166.9 -44.05
L 167.2 -44.8
Q 167.3 -45.55 166.5 -45.8
L 163.8 -46.25 163.65 -47.55
Q 163.45 -48.85 163 -49 162.4 -49.2 161.7 -48.25
L 161 -47.15 160.3 -46.7 157.8 -46.55
Q 157.15 -46.45 157 -46.05
L 158.6 -42.55 157.9 -41.45 154.15 -44.65 158 -51.05
Q 158.35 -51.9 157.7 -52.1 157.15 -52.25 154.3 -47.55
L 153.15 -45.6 148.8 -50.15 147.9 -51.55
Q 146.55 -53.1 144.7 -53.7 141.5 -54.75 138.8 -54.7
L 136.95 -54.45 136.15 -53.95
M 165.6 -44.5
Q 165.55 -44.1 165.1 -43.6
L 164.15 -42.85
Q 163.95 -43.85 164.05 -44.75
L 165.6 -44.5
M 159.15 -45.2
L 159.45 -45.3 159.65 -45.25 159.3 -44.4 159.25 -44.4 159.15 -45.2
M 160.45 -43.4
L 160.75 -44.45 161.05 -44.9 162.55 -45.1 162.8 -41.65 162.1 -41.25 161.3 -41
Q 161.05 -42.55 160.6 -43.15
L 160.45 -43.4
M 159.55 -41.5
L 159.9 -41.05 160 -40.35 158.45 -39.65 158.45 -39.7 158.75 -40.5 159.55 -41.5
M 162.9 -40.1
L 162.95 -38.6
Q 162.5 -38.8 162.35 -39.25
L 162.3 -39.6 162.2 -39.9 162.85 -40.1 162.9 -40.1
M 135.8 -59
Q 135.25 -59.15 134.75 -58.2
L 132.65 -52
Q 132 -50.45 130.25 -48.45
L 128.45 -46.3 128.3 -45.85
Q 128.25 -45.4 128.75 -45.2
L 129.85 -46 134.05 -49.8
Q 135.15 -50.5 135.6 -50.35 136.3 -50.1 135.95 -48.8
L 133.6 -44
Q 133.25 -43.2 133.9 -43 134.6 -42.8 135.65 -44.75
L 136.65 -47 137 -47.6 137.45 -49
Q 137.85 -51.1 135.95 -51.7
L 134.8 -51.65 134.6 -51.6 133.75 -51.2 135.4 -55.85
Q 136.3 -58.85 135.8 -59
M 124.7 -58.65
Q 124.3 -58.75 123.65 -57.6
L 120.6 -52.6
Q 119.55 -51.6 118.55 -51.95 117.45 -52.3 117.1 -52.65 116.8 -53 116.95 -53.55
L 119.7 -59.85
Q 120.5 -61.75 119.8 -61.95 119.35 -62.1 117.9 -59
L 116.5 -55.7
Q 115.75 -54.6 115.65 -53.5 115.4 -51.5 118.05 -50.6 120.45 -49.85 122.75 -53.1 123.9 -54.8 124.7 -56.95
L 125 -57.7
Q 125.2 -58.5 124.7 -58.65
M 128.25 -58.4
Q 128.75 -60 128.25 -60.15 127.8 -60.3 127.45 -59.7
L 125.8 -56.1 124.5 -54.05
Q 122.65 -51.8 122.15 -50.65
L 120.3 -45.85
Q 119.75 -44.2 120.25 -44.05 120.65 -43.9 121.15 -44.6
L 124.7 -52.05 125.9 -53.55 125.9 -53.6 127.05 -53.7 129.5 -54.15
Q 133.05 -55 133.6 -56.35 134 -57.45 133.8 -58.45 133.35 -60.45 130.6 -61.35
L 126.6 -61.55
Q 125.9 -61.4 125.4 -61.05 124.95 -60.85 124.85 -60.65
L 124.7 -60.2
Q 124.65 -59.75 125.15 -59.55
L 125.75 -59.7 126.6 -60.15
Q 128.1 -60.7 131.45 -59.65 132.15 -59.4 132.4 -58.25 132.55 -57.35 132.35 -56.85 132.25 -56.6 131.1 -56.2
L 129.1 -55.55
Q 128.1 -55.1 126.8 -55.05
L 126.85 -55.1 128.25 -58.4
M 171.45 -35.4
L 171.55 -36.75
Q 171.4 -38.15 170.15 -38.5 167.35 -39.45 165.2 -37.05 164.1 -35.85 163.45 -34.2
L 163.3 -32.95
Q 163.25 -31.75 163.45 -30.65 163.95 -27.25 166.6 -26.4
L 169.5 -26.7 170.7 -27.3 171.35 -27.85
Q 171.5 -28.55 170.95 -28.75 170.65 -28.85 170.25 -28.55
L 169.45 -28.05 166.4 -27.9
Q 165.55 -28.2 165.05 -30.2 164.6 -31.9 164.65 -33.05
L 169.65 -33.35
Q 170.95 -34.05 171.45 -35.4
M 170.2 -35.75
Q 169.85 -34.95 168.95 -34.6 168.05 -34.2 166.1 -34.1
L 165.25 -34.4 165.6 -35.4 167.2 -36.75
Q 168.45 -37.6 169.25 -37.35 169.95 -37.15 170.15 -36.45
L 170.2 -35.75 Z"/>

<path fill="#FFFF00" fill-opacity="0.6" stroke="none" d="
M 113.05 -43.4
L 112 -43.95
Q 111.2 -44.65 110.6 -44.7
L 109.7 -44.65 108.35 -44.3 106.25 -43.45 104.6 -42.25
Q 104.1 -41.75 103.75 -40.8 103.25 -39.55 103.65 -38.65 104.4 -36.9 108 -35.2 111.2 -33.7 112.85 -33.55
L 113.95 -33.6 114.85 -33.75
Q 115.5 -33.9 116.25 -34.5
L 117.05 -35.55 117.25 -36.85 116.5 -38.65 114.3 -41.6
Q 112.35 -42.6 112.5 -42.9 112.55 -43.15 113.1 -42.9
L 113.45 -42.75 113.05 -43.4
M 113.35 -38.65
Q 112.4 -39.1 112.65 -39.7
L 112.95 -40.2 113.55 -40.3
Q 114.4 -39.9 114.4 -38.75
L 113.35 -38.65
M 105.85 -42.15
L 105.8 -40.8
Q 105.65 -40 106.25 -39.15 107.7 -37.35 111.65 -35.45
L 115.1 -35.35 115.75 -36.15
Q 116 -36.6 116.2 -36.45
L 116.2 -35.95
Q 115.95 -35.25 115.1 -34.75
L 111.45 -34.95
Q 108.8 -36.25 105.95 -38.75 105.65 -39 105.45 -39.75
L 105.25 -40.55 105.5 -41.85
Q 105.65 -42.3 105.85 -42.15
M 108.65 -42.25
L 109.6 -41.1 109.9 -40.05
Q 109.65 -39.55 109 -39.85 107.3 -40.65 107.65 -41.5
L 108.05 -41.95
Q 108.4 -42.35 108.65 -42.25 Z"/>

<path fill="#000000" stroke="none" d="
M 109.6 -41.1
L 108.65 -42.25
Q 108.4 -42.35 108.05 -41.95
L 107.65 -41.5
Q 107.3 -40.65 109 -39.85 109.65 -39.55 109.9 -40.05
L 109.6 -41.1
M 105.8 -40.8
L 105.85 -42.15
Q 105.65 -42.3 105.5 -41.85
L 105.25 -40.55 105.45 -39.75
Q 105.65 -39 105.95 -38.75 108.8 -36.25 111.45 -34.95
L 115.1 -34.75
Q 115.95 -35.25 116.2 -35.95
L 116.2 -36.45
Q 116 -36.6 115.75 -36.15
L 115.1 -35.35 111.65 -35.45
Q 107.7 -37.35 106.25 -39.15 105.65 -40 105.8 -40.8
M 112.65 -39.7
Q 112.4 -39.1 113.35 -38.65
L 114.4 -38.75
Q 114.4 -39.9 113.55 -40.3
L 112.95 -40.2 112.65 -39.7
M 113.05 -43.4
L 113.55 -43.4 113.75 -43.55 113.8 -43.7 113.75 -43.8 112.6 -44.4 110.8 -45.1
Q 109.45 -45.4 108 -44.75
L 105.85 -43.75
Q 104.6 -42.9 104.2 -42.45
L 103.3 -41
Q 102.75 -39.65 103.15 -38.65 103.95 -36.6 107.85 -34.7 111.1 -33.15 112.9 -33
L 115.05 -33.3
Q 116.2 -33.7 116.7 -34.15
L 117.45 -35.45 117.7 -36.7 117.15 -38.5 115 -41.55 113.45 -42.75 113.1 -42.9
Q 112.55 -43.15 112.5 -42.9 112.35 -42.6 114.3 -41.6
L 116.5 -38.65 117.25 -36.85 117.05 -35.55 116.25 -34.5
Q 115.5 -33.9 114.85 -33.75
L 113.95 -33.6 112.85 -33.55
Q 111.2 -33.7 108 -35.2 104.4 -36.9 103.65 -38.65 103.25 -39.55 103.75 -40.8 104.1 -41.75 104.6 -42.25
L 106.25 -43.45 108.35 -44.3 109.7 -44.65 110.6 -44.7
Q 111.2 -44.65 112 -43.95
L 113.05 -43.4 Z"/>

<path fill="#333333" stroke="none" d="
M 154.6 -12.25
L 44.9 -12.25 44.9 7.75 154.6 7.75 154.6 -12.25 Z"/>
</g>

<path id="Symbol_466_0_Layer29_0_1_STROKES" stroke="#333333" stroke-width="2" stroke-linejoin="round" stroke-linecap="round" fill="none" d="
M 44.8 52.2
L 44.8 38.55 44.8 24.8 58.55 24.8 72.35 24.8 86.1 24.8 99.85 24.8 113.6 24.8 127.35 24.8 141.1 24.8 154.9 24.8 154.9 38.55 141.1 38.55 127.35 38.55
M 141.1 38.55
L 141.1 24.8
M 127.35 24.8
L 127.35 38.55 113.6 38.55 113.6 52.2
M 99.85 24.8
L 99.85 38.55 113.6 38.55 113.6 24.8
M 86.1 24.8
L 86.1 38.55 99.85 38.55 99.85 52.2
M 113.6 52.35
L 113.6 66.1 127.35 66.1 127.35 52.35 113.6 52.35 99.85 52.35 99.85 66.1 113.6 66.1 113.6 79.9 127.35 79.9 127.35 66.1
M 99.85 52.35
L 86.1 52.35 86.1 66.1 99.85 66.1 99.85 79.9 113.6 79.9
M 99.85 79.9
L 86.1 79.9 86.1 66.1
M 86.1 79.9
L 72.35 79.9 58.55 79.9 44.8 79.9 44.8 66.1 44.8 52.35 58.55 52.35 72.35 52.35 86.1 52.35
M 86.1 38.55
L 86.1 52.2
M 58.55 24.8
L 58.55 38.55 72.35 38.55 72.35 24.8
M 58.55 52.2
L 58.55 38.55 44.8 38.55
M 72.35 52.35
L 72.35 66.1 86.1 66.1
M 58.55 52.35
L 58.55 66.1 72.35 66.1 72.35 79.9
M 58.55 79.9
L 58.55 66.1 44.8 66.1
M 86.1 38.55
L 72.35 38.55 72.35 52.2"/>

<path id="Symbol_466_0_Layer29_0_2_STROKES" stroke="#136C17" stroke-width="2" stroke-linejoin="round" stroke-linecap="square" fill="none" d="
M 138.65 52
Q 142.9 47.75 148.9 47.75 154.9 47.75 159.15 52 163.4 56.25 163.4 62.25 163.4 68.25 159.15 72.5 154.9 76.75 148.9 76.75 142.9 76.75 138.65 72.5 134.4 68.25 134.4 62.25 134.4 56.25 138.65 52 Z"/>

<path id="Symbol_466_0_Layer29_0_3_STROKES" stroke="#333333" stroke-width="2" stroke-linejoin="round" stroke-linecap="square" fill="none" d="
M 127.35 38.55
L 127.35 52.2"/>

<path id="Symbol_466_0_Layer1_0_1_STROKES" stroke="#121212" stroke-width="2" stroke-linejoin="round" stroke-linecap="square" fill="none" d="
M 154.6 -12.25
L 154.6 7.75 44.9 7.75 44.9 -12.25 154.6 -12.25 Z"/>

<path id="Symbol_463_0_Layer1_0_1_STROKES" stroke="#333333" stroke-width="1" stroke-linejoin="round" stroke-linecap="square" fill="none" d="
M 69.35 -24.45
L 80.55 -35.7
M 43.6 -37.9
L 67.1 -61.45
M 43.1 -42.55
L 62.5 -61.95
M 43.85 -48.15
L 56.9 -61.2
M 54.95 -24.7
L 80.35 -50.1
M 44.9 -34.35
L 70.7 -60.15
M 46.9 -31.5
L 73.75 -58.35
M 49.4 -29.15
L 76.3 -56.1
M 51.8 -26.4
L 78.65 -53.25
M 58.5 -23.65
L 81.4 -46.55
M 63 -23.25
L 81.8 -42.05"/>

<path id="Symbol_463_0_Layer0_0_1_STROKES" stroke="#333333" stroke-width="3" stroke-linejoin="miter" stroke-linecap="square" stroke-miterlimit="3" fill="none" d="
M -64.1 -18.15
L -66.15 -22.2
Q -68.15 -26.25 -70.85 -30.55
L -81 -45.45 -79.4 -47.7
Q -77.8 -50.2 -77.55 -52.4
L -75.8 -58.45
Q -75.4 -60.25 -75.4 -61.95 -75.4 -64.75 -76.7 -66.7 -75.8 -67.6 -74.1 -68
L -70.2 -70.2
Q -68.4 -71.55 -66.7 -71.55
L -66.7 -73.65 -68.9 -79.75 -68.9 -86.25
Q -66.4 -87 -60.25 -84.25
L -58.95 -83.7 -56.3 -83.7 -56.3 -86.25
Q -57.7 -87.2 -58.8 -88.65 -60.2 -90.5 -61.2 -93.15 -62.55 -96.65 -62.75 -100.45
L -62.7 -104.65
Q -62.5 -108.5 -61.6 -109.15
L -58.75 -109.55 -54.15 -109.65 -54.3 -110
Q -55.1 -111.75 -57.65 -115.55
L -57.75 -115.7
Q -60.2 -119.25 -60.2 -120.05 -60.2 -122.35 -58.1 -124.55
L 182.1 -124.55 182.1 124.55 -62.55 124.55
Q -58.05 119.15 -58.05 117 -64.1 106.7 -64.1 103.75 -64.1 102.7 -62.7 100.1 -61.25 97.35 -61.1 96.2 -60.2 91.55 -60.2 90.75 -60.2 89 -61.15 87.5
L -62.8 84.95
Q -63.95 82.4 -64.1 80.6 -64.35 77.2 -65.4 74.95 -67.15 71.05 -67.15 69.75 -67.15 62.8 -67.6 55.05 -67.85 50.85 -72.1 45.35 -76.25 39.95 -76.25 38.55 -76.25 38.4 -68.05 33.1 -59.85 27.85 -59.85 24.2 -59.85 22.2 -61.95 20.15 -64.1 18.1 -64.1 15.35 -64.1 13.7 -61.05 11.5
L -60.35 11
Q -58.05 9 -58.05 6.9
L -58.05 6.55
Q -58.1 4.55 -58.75 3.1
L -59.35 2.05 -61.1 -0.45 -62.4 -5.15 -62.7 -11.65
Q -62.8 -16.5 -63.7 -17.7"/>
</defs>

<g id="charBody" transform="matrix( 0.28814697265625, 0, 0, 0.2882537841796875, -16.35,-36.4) ">
<g transform="matrix( 1, 0, 0, 1, 0,0) ">
<g transform="matrix( 1, 0, 0, 1, 0,0) ">
<use xlink:href="#Symbol_429_0_Layer0_0_FILL"/>
</g>
</g>

<mask id="Mask_Mask_1">
<g transform="matrix( 1, 0, 0, 1, 0,0) ">
<g transform="matrix( 1, 0, 0, 1, 0,0) ">
<use xlink:href="#Mask_Mask_Symbol_429_0_Layer0_0_FILL"/>
</g>
</g>
</mask>

<g mask="url(#Mask_Mask_1)">
<g transform="matrix( 1, 0, 0, 1, 0,0) ">
<use xlink:href="#Symbol_466_0_Layer31_0_FILL"/>
</g>
</g>

<g transform="matrix( 1, 0, 0, 1, 0,0) ">
<use xlink:href="#Symbol_466_0_Layer29_0_FILL"/>

<use xlink:href="#Symbol_466_0_Layer29_0_1_STROKES"/>

<use xlink:href="#Symbol_466_0_Layer29_0_2_STROKES"/>

<use xlink:href="#Symbol_466_0_Layer29_0_3_STROKES"/>
</g>

<g transform="matrix( 1, 0, 0, 1, 0,0) ">
<use xlink:href="#Symbol_466_0_Layer28_0_FILL"/>
</g>

<g transform="matrix( 1, 0, 0, 1, 0,0) ">
<use xlink:href="#Symbol_466_0_Layer27_0_FILL"/>
</g>

<g transform="matrix( 1, 0, 0, 1, 0,0) ">
<use xlink:href="#Symbol_466_0_Layer26_0_FILL"/>
</g>

<g transform="matrix( 1, 0, 0, 1, 0,0) ">
<use xlink:href="#Symbol_466_0_Layer25_0_FILL"/>
</g>

<g transform="matrix( 1, 0, 0, 1, 0,0) ">
<use xlink:href="#Symbol_466_0_Layer24_0_FILL"/>
</g>

<g transform="matrix( 1, 0, 0, 1, 0,0) ">
<use xlink:href="#Symbol_466_0_Layer23_0_FILL"/>
</g>

<g transform="matrix( 1, 0, 0, 1, 0,0) ">
<use xlink:href="#Symbol_466_0_Layer22_0_FILL"/>
</g>

<g transform="matrix( 1, 0, 0, 1, 0,0) ">
<use xlink:href="#Symbol_466_0_Layer21_0_FILL"/>
</g>

<g transform="matrix( 1, 0, 0, 1, 0,0) ">
<use xlink:href="#Symbol_466_0_Layer20_0_FILL"/>
</g>

<g transform="matrix( 1, 0, 0, 1, 0,0) ">
<use xlink:href="#Symbol_466_0_Layer19_0_FILL"/>
</g>

<g transform="matrix( 1, 0, 0, 1, 0,0) ">
<use xlink:href="#Symbol_466_0_Layer18_0_FILL"/>
</g>

<g transform="matrix( 1, 0, 0, 1, 0,0) ">
<use xlink:href="#Symbol_466_0_Layer17_0_FILL"/>
</g>

<g transform="matrix( 1, 0, 0, 1, 0,0) ">
<use xlink:href="#Symbol_466_0_Layer16_0_FILL"/>
</g>

<g transform="matrix( 1, 0, 0, 1, 0,0) ">
<use xlink:href="#Symbol_466_0_Layer15_0_FILL"/>
</g>

<g transform="matrix( 1, 0, 0, 1, 0,0) ">
<use xlink:href="#Symbol_466_0_Layer14_0_FILL"/>
</g>

<g transform="matrix( 1, 0, 0, 1, 0,0) ">
<use xlink:href="#Symbol_466_0_Layer13_0_FILL"/>
</g>

<g transform="matrix( 1, 0, 0, 1, 0,0) ">
<use xlink:href="#Symbol_466_0_Layer12_0_FILL"/>
</g>

<g transform="matrix( 1, 0, 0, 1, 0,0) ">
<use xlink:href="#Symbol_466_0_Layer11_0_FILL"/>
</g>

<g transform="matrix( 1, 0, 0, 1, 0,0) ">
<use xlink:href="#Symbol_466_0_Layer10_0_FILL"/>
</g>

<g transform="matrix( 1, 0, 0, 1, 0,0) ">
<use xlink:href="#Symbol_466_0_Layer9_0_FILL"/>
</g>

<g transform="matrix( 1, 0, 0, 1, 0,0) ">
<use xlink:href="#Symbol_466_0_Layer8_0_FILL"/>
</g>

<g transform="matrix( 1, 0, 0, 1, 0,0) ">
<use xlink:href="#Symbol_466_0_Layer7_0_FILL"/>
</g>

<g transform="matrix( 1, 0, 0, 1, 0,0) ">
<use xlink:href="#Symbol_466_0_Layer6_0_FILL"/>
</g>

<g transform="matrix( 1, 0, 0, 1, 0,0) ">
<use xlink:href="#Symbol_466_0_Layer5_0_FILL"/>
</g>

<g transform="matrix( 1, 0, 0, 1, 0,0) ">
<use xlink:href="#Symbol_466_0_Layer4_0_FILL"/>
</g>

<g transform="matrix( 1, 0, 0, 1, 0,0) ">
<use xlink:href="#Symbol_466_0_Layer3_0_FILL"/>
</g>

<g transform="matrix( 1, 0, 0, 1, 0,0) ">
<use xlink:href="#Symbol_466_0_Layer2_0_FILL"/>
</g>

<g transform="matrix( 1, 0, 0, 1, 0,0) ">
<use xlink:href="#Symbol_466_0_Layer1_0_FILL"/>

<use xlink:href="#Symbol_466_0_Layer1_0_1_STROKES"/>
</g>

<g transform="matrix( 1, 0, 0, 1, 0,0) ">
<g transform="matrix( 1, 0, 0, 1, 0,0) ">
<use xlink:href="#Symbol_463_0_Layer1_0_1_STROKES"/>
</g>

<g transform="matrix( 1, 0, 0, 1, 0,0) ">
<use xlink:href="#Symbol_463_0_Layer0_0_1_STROKES"/>
</g>
</g>
</g>
</svg>
