
<svg xmlns="http://www.w3.org/2000/svg" version="1.1" xmlns:xlink="http://www.w3.org/1999/xlink" preserveAspectRatio="none" x="0px" y="0px" width="37.9px" height="72.7px" viewBox="-18.05 -72.65 37.9 72.7">
<defs>
<g id="Symbol_467_0_Layer0_0_FILL">
<path fill="#808080" stroke="none" d="
M -54.15 -109.65
Q -54.8 -111.35 -57.65 -115.55 -60.2 -119.25 -60.2 -120.05 -60.2 -122.35 -58.1 -124.55
L -182.05 -124.55 -182.05 124.55 -62.55 124.55
Q -58.05 119.15 -58.05 117 -64.1 106.7 -64.1 103.75 -64.1 102.7 -62.7 100.1 -61.25 97.35 -61.1 96.2 -60.2 91.55 -60.2 90.75 -60.2 89 -61.15 87.5
L -62.8 84.95
Q -63.95 82.4 -64.1 80.6 -64.35 77.2 -65.4 74.95 -67.15 71.05 -67.15 69.75 -67.15 62.8 -67.6 55.05 -67.85 50.85 -72.1 45.35 -76.25 39.95 -76.25 38.55 -76.25 38.4 -68.05 33.1 -59.85 27.85 -59.85 24.2 -59.85 22.2 -61.95 20.15 -64.1 18.1 -64.1 15.35 -64.1 13.7 -61.05 11.5 -58.05 9.3 -58.05 6.9 -58.05 3.9 -59.35 2.05
L -61.1 -0.45 -62.4 -5.15 -62.7 -11.65
Q -62.8 -16.5 -63.7 -17.7
L -64.1 -18.15 -66.15 -22.2
Q -68.7 -27.3 -72.35 -32.9
L -81 -45.45 -79.4 -47.7
Q -77.8 -50.2 -77.55 -52.4
L -76.35 -56.45
Q -75.4 -59.3 -75.4 -61.95 -75.4 -64.75 -76.7 -66.7 -75.8 -67.6 -74.1 -68
L -70.2 -70.2
Q -68.4 -71.55 -66.7 -71.55
L -66.7 -73.65 -68.9 -79.75 -68.9 -86.25
Q -66.15 -87.05 -58.95 -83.7
L -56.3 -83.7 -56.3 -86.25
Q -59.45 -88.45 -61.2 -93.15 -62.8 -97.3 -62.8 -101.85 -62.8 -108.3 -61.6 -109.15
L -54.15 -109.65 Z"/>
</g>

<g id="Mask_Mask_Symbol_467_0_Layer0_0_FILL">
<path fill="#FFFFFF" stroke="none" d="
M -54.15 -109.65
Q -54.8 -111.35 -57.65 -115.55 -60.2 -119.25 -60.2 -120.05 -60.2 -122.35 -58.1 -124.55
L -182.05 -124.55 -182.05 124.55 -62.55 124.55
Q -58.05 119.15 -58.05 117 -64.1 106.7 -64.1 103.75 -64.1 102.7 -62.7 100.1 -61.25 97.35 -61.1 96.2 -60.2 91.55 -60.2 90.75 -60.2 89 -61.15 87.5
L -62.8 84.95
Q -63.95 82.4 -64.1 80.6 -64.35 77.2 -65.4 74.95 -67.15 71.05 -67.15 69.75 -67.15 62.8 -67.6 55.05 -67.85 50.85 -72.1 45.35 -76.25 39.95 -76.25 38.55 -76.25 38.4 -68.05 33.1 -59.85 27.85 -59.85 24.2 -59.85 22.2 -61.95 20.15 -64.1 18.1 -64.1 15.35 -64.1 13.7 -61.05 11.5 -58.05 9.3 -58.05 6.9 -58.05 3.9 -59.35 2.05
L -61.1 -0.45 -62.4 -5.15 -62.7 -11.65
Q -62.8 -16.5 -63.7 -17.7
L -64.1 -18.15 -66.15 -22.2
Q -68.7 -27.3 -72.35 -32.9
L -81 -45.45 -79.4 -47.7
Q -77.8 -50.2 -77.55 -52.4
L -76.35 -56.45
Q -75.4 -59.3 -75.4 -61.95 -75.4 -64.75 -76.7 -66.7 -75.8 -67.6 -74.1 -68
L -70.2 -70.2
Q -68.4 -71.55 -66.7 -71.55
L -66.7 -73.65 -68.9 -79.75 -68.9 -86.25
Q -66.15 -87.05 -58.95 -83.7
L -56.3 -83.7 -56.3 -86.25
Q -59.45 -88.45 -61.2 -93.15 -62.8 -97.3 -62.8 -101.85 -62.8 -108.3 -61.6 -109.15
L -54.15 -109.65 Z"/>
</g>

<g id="Symbol_470_0_Layer2_0_FILL">
<path fill="#FFFFFF" stroke="none" d="
M -50.75 -13.8
Q -53.5 -13.8 -55.85 -12.7 -58.2 -11.65 -59.9 -9.7 -61.6 -7.75 -62.5 -5.1 -63.5 -2.4 -63.5 0.7 -63.4 3.9 -62.55 6.6 -61.75 9.3 -60.15 11.25 -58.55 13.2 -56.1 14.3 -53.7 15.4 -50.45 15.4 -45.8 15.4 -42.8 13 -41.6 12.05 -40.75 10.8
L -40.75 5.9 -43.2 5.9
Q -43.85 8.65 -45.65 10 -47.5 11.35 -50.3 11.35 -52.5 11.35 -54.15 10.6 -55.75 9.85 -56.8 8.6 -57.85 7.3 -58.4 5.65 -58.85 4 -58.75 2.15
L -40.75 2.15 -40.75 -8.15 -40.85 -8.35
Q -42.3 -10.7 -44.7 -12.3 -47.15 -13.8 -50.75 -13.8
M -58.1 -4.9
Q -57.5 -6.35 -56.55 -7.4
L -54.1 -9.15
Q -52.75 -9.75 -50.95 -9.75
L -47.9 -9.15
Q -46.5 -8.5 -45.45 -7.45 -44.45 -6.4 -43.85 -4.95 -43.25 -3.5 -43.1 -1.9
L -58.75 -1.9
Q -58.7 -3.5 -58.1 -4.9
M -48.9 -59.1
L -53.95 -59.1 -43.85 -31.2 -40.75 -31.2 -40.75 -37.3 -41.2 -35.85 -41.3 -35.85 -48.9 -59.1
M -40.75 -90
L -40.75 -94.3 -48.15 -94.3 -48.15 -90 -40.75 -90
M -81.5 -13.15
L -81.5 -9.1 -76.85 -9.1 -76.85 8.65
Q -76.85 10.6 -76.5 11.75 -76.15 12.95 -75.35 13.6 -74.6 14.3 -73.35 14.5
L -70.35 14.75 -66.95 14.75 -66.95 10.7 -69 10.7 -70.7 10.6 -71.75 10.25 -72.25 9.5 -72.35 8.2 -72.35 -9.1 -66.95 -9.1 -66.95 -13.15 -72.35 -13.15 -72.35 -21.55 -76.85 -21.55 -76.85 -13.15 -81.5 -13.15
M -103.6 -13.15
L -107.85 -13.15 -107.85 14.75 -103.35 14.75 -103.35 -1
Q -103.4 -2.9 -102.9 -4.45 -102.4 -6.1 -101.35 -7.25 -100.35 -8.45 -98.9 -9.1 -97.4 -9.75 -95.3 -9.75 -92.75 -9.75 -91.25 -8.25 -89.8 -6.7 -89.75 -4.15
L -89.75 14.75 -85.3 14.75 -85.3 -3.6
Q -85.3 -5.85 -85.7 -7.75 -86.2 -9.6 -87.35 -10.95 -88.4 -12.3 -90.2 -13.05 -92 -13.8 -94.7 -13.8 -97.65 -13.8 -99.85 -12.55 -102.1 -11.35 -103.5 -8.75
L -103.6 -8.75 -103.6 -13.15
M -83 -45.1
Q -83 -42.05 -82.15 -39.4 -81.3 -36.75 -79.65 -34.8 -77.95 -32.8 -75.5 -31.65 -73.05 -30.55 -69.8 -30.55 -66.6 -30.55 -64.1 -31.65 -61.65 -32.8 -59.95 -34.8 -58.3 -36.75 -57.4 -39.4 -56.6 -42.05 -56.6 -45.1 -56.6 -48.2 -57.4 -50.85 -58.3 -53.55 -59.95 -55.5 -61.65 -57.5 -64.1 -58.6 -66.6 -59.75 -69.8 -59.75 -73.05 -59.75 -75.5 -58.6 -77.95 -57.5 -79.65 -55.5 -81.3 -53.55 -82.15 -50.85 -83 -48.2 -83 -45.1
M -75.8 -52.95
Q -74.65 -54.3 -73.05 -55
L -69.8 -55.7
Q -68.05 -55.7 -66.45 -55 -64.9 -54.3 -63.8 -52.95 -62.65 -51.6 -62 -49.65 -61.3 -47.65 -61.3 -45.1 -61.3 -42.6 -62 -40.6 -62.65 -38.65 -63.8 -37.3 -64.9 -36 -66.45 -35.3 -68.05 -34.6 -69.8 -34.6 -71.55 -34.6 -73.05 -35.3 -74.65 -36 -75.8 -37.3 -76.95 -38.65 -77.6 -40.6 -78.3 -42.6 -78.25 -45.1 -78.3 -47.65 -77.6 -49.65 -76.95 -51.6 -75.8 -52.95
M -133.95 -9.7
Q -135.7 -7.75 -136.6 -5.1 -137.6 -2.4 -137.6 0.7 -137.5 3.9 -136.65 6.6 -135.85 9.3 -134.2 11.25 -132.6 13.2 -130.15 14.3 -127.8 15.4 -124.5 15.4 -119.9 15.4 -116.85 13 -113.8 10.55 -112.9 5.9
L -117.3 5.9
Q -117.95 8.65 -119.75 10 -121.6 11.35 -124.35 11.35 -126.55 11.35 -128.2 10.6 -129.85 9.85 -130.9 8.6 -131.95 7.3 -132.45 5.65 -132.9 4 -132.85 2.15
L -112.5 2.15
Q -112.4 -0.35 -112.9 -3.2 -113.5 -5.95 -114.9 -8.35 -116.4 -10.7 -118.75 -12.3 -121.2 -13.8 -124.8 -13.8 -127.6 -13.8 -129.95 -12.7 -132.3 -11.65 -133.95 -9.7
M -132.85 -1.9
Q -132.75 -3.5 -132.15 -4.9 -131.6 -6.35 -130.6 -7.4 -129.6 -8.5 -128.15 -9.15 -126.8 -9.75 -125.05 -9.75 -123.45 -9.75 -122 -9.15 -120.6 -8.5 -119.55 -7.45 -118.55 -6.4 -117.95 -4.95 -117.3 -3.5 -117.2 -1.9
L -132.85 -1.9
M -116.85 -54.3
Q -118.35 -56.65 -120.7 -58.25 -123.15 -59.75 -126.75 -59.75 -129.55 -59.75 -131.9 -58.65 -134.25 -57.6 -135.9 -55.65 -137.65 -53.7 -138.55 -51.05 -139.55 -48.35 -139.55 -45.25 -139.45 -42.05 -138.6 -39.35 -137.8 -36.65 -136.15 -34.7 -134.55 -32.75 -132.1 -31.65 -129.75 -30.55 -126.45 -30.55 -121.85 -30.55 -118.8 -32.95 -115.75 -35.4 -114.85 -40.05
L -119.25 -40.05
Q -119.9 -37.3 -121.7 -35.95 -123.55 -34.6 -126.3 -34.6 -128.5 -34.6 -130.15 -35.35 -131.8 -36.1 -132.85 -37.35 -133.9 -38.65 -134.4 -40.3 -134.85 -41.95 -134.8 -43.8
L -114.45 -43.8
Q -114.35 -46.3 -114.85 -49.15 -115.45 -51.9 -116.85 -54.3
M -121.5 -53.4
Q -120.5 -52.35 -119.9 -50.9 -119.25 -49.45 -119.15 -47.85
L -134.8 -47.85
Q -134.7 -49.45 -134.1 -50.85 -133.55 -52.3 -132.55 -53.35
L -130.1 -55.1
Q -128.75 -55.7 -127 -55.7 -125.4 -55.7 -123.95 -55.1 -122.55 -54.45 -121.5 -53.4
M -108.1 -55.4
Q -109.7 -53.35 -110.5 -50.65 -111.3 -47.9 -111.25 -44.8 -111.3 -41.65 -110.45 -39.05 -109.65 -36.4 -108.05 -34.55 -106.45 -32.65 -104.05 -31.6 -101.6 -30.55 -98.55 -30.55 -93.4 -30.55 -90.3 -33.4 -87.3 -36.25 -86.55 -41.4
L -91.15 -41.4
Q -91.55 -38.2 -93.4 -36.4 -95.35 -34.6 -98.6 -34.6 -100.75 -34.6 -102.25 -35.45 -103.7 -36.3 -104.7 -37.75 -105.6 -39.2 -106.1 -41 -106.55 -42.85 -106.55 -44.8 -106.55 -46.9 -106.15 -48.85 -105.7 -50.85 -104.75 -52.35 -103.7 -53.85 -102.1 -54.75 -100.45 -55.7 -98.05 -55.7 -95.3 -55.7 -93.55 -54.25 -91.85 -52.75 -91.35 -50.15
L -86.7 -50.15
Q -86.95 -52.6 -87.9 -54.45 -88.9 -56.25 -90.45 -57.45 -92.05 -58.6 -94.1 -59.2
L -98.4 -59.75
Q -101.65 -59.75 -104.1 -58.6 -106.5 -57.45 -108.1 -55.4
M -103.6 -105.05
L -107.85 -105.05 -107.85 -77.15 -103.35 -77.15 -103.35 -92.9
Q -103.4 -94.8 -102.9 -96.35 -102.4 -98 -101.35 -99.15 -100.35 -100.35 -98.9 -101 -97.4 -101.65 -95.3 -101.65 -92.75 -101.65 -91.25 -100.15 -89.8 -98.6 -89.75 -96.05
L -89.75 -77.15 -85.3 -77.15 -85.3 -95.5
Q -85.3 -97.75 -85.7 -99.65 -86.2 -101.5 -87.35 -102.85 -88.4 -104.2 -90.2 -104.95 -92 -105.7 -94.7 -105.7 -97.65 -105.7 -99.85 -104.45 -102.1 -103.25 -103.5 -100.65
L -103.6 -100.65 -103.6 -105.05
M -132.95 -103.6
Q -134.55 -102.5 -135.5 -100.75 -136.45 -98.95 -136.5 -96.35
L -132.05 -96.35
Q -131.9 -99.45 -130 -100.55 -128.15 -101.65 -125.25 -101.65
L -123.15 -101.5
Q -122.05 -101.35 -121.2 -100.85 -120.35 -100.35 -119.8 -99.45 -119.2 -98.55 -119.2 -97.05 -119.2 -95.75 -120 -95.05 -120.75 -94.4 -121.95 -94
L -124.85 -93.5 -128.35 -92.9 -131.8 -92.1
Q -133.45 -91.55 -134.7 -90.65 -136.05 -89.75 -136.8 -88.2 -137.6 -86.7 -137.6 -84.3 -137.6 -82.2 -136.85 -80.75 -136.15 -79.25 -134.95 -78.3 -133.75 -77.35 -132.05 -76.9
L -128.55 -76.5
Q -125.75 -76.5 -123.3 -77.5 -120.9 -78.55 -119 -80.8 -119 -78.55 -118 -77.5 -117 -76.5 -115.2 -76.5 -113.2 -76.5 -112 -77.25
L -112 -80.8 -113.35 -80.55
Q -114.45 -80.55 -114.6 -81.3
L -114.8 -83.7 -114.8 -98.05
Q -114.8 -100.45 -115.7 -102 -116.65 -103.5 -118.1 -104.35 -119.55 -105.2 -121.35 -105.45
L -125 -105.7 -129.35 -105.25
Q -131.35 -104.75 -132.95 -103.6
M -120.85 -90.85
Q -119.95 -91.1 -119.3 -91.55
L -119.3 -86.9
Q -119.3 -85.9 -119.75 -84.8 -120.25 -83.7 -121.25 -82.75 -122.25 -81.8 -123.8 -81.2 -125.35 -80.55 -127.6 -80.55
L -129.6 -80.75
Q -130.5 -80.95 -131.25 -81.45
L -132.4 -82.75
Q -132.85 -83.55 -132.85 -84.65 -132.85 -85.95 -132.4 -86.85
L -131.25 -88.25
Q -130.45 -88.85 -129.5 -89.15
L -127.4 -89.7 -125.1 -90.05 -122.85 -90.35 -120.85 -90.85
M -65.4 -105.5
L -67.65 -105.7
Q -70.75 -105.7 -73.1 -104.55 -75.45 -103.4 -77 -101.4 -78.55 -99.4 -79.3 -96.75 -80.1 -94.15 -80.05 -91.2 -80.1 -88.2 -79.3 -85.55 -78.5 -82.9 -76.95 -80.9 -75.4 -78.85 -73.05 -77.7 -70.7 -76.5 -67.55 -76.5 -64.75 -76.5 -62.35 -77.55 -60 -78.6 -58.85 -80.9
L -58.75 -80.9 -58.75 -77.15 -54.3 -77.15 -54.3 -115.7 -58.75 -115.7 -58.75 -101.35 -58.85 -101.35
Q -59.6 -102.55 -60.65 -103.4
L -62.95 -104.75 -65.4 -105.5
M -71.05 -100.7
Q -69.5 -101.65 -67.2 -101.65 -64.9 -101.65 -63.25 -100.75 -61.6 -99.85 -60.55 -98.4 -59.55 -96.95 -59.05 -95.05 -58.65 -93.15 -58.6 -91.05 -58.65 -89.1 -59.05 -87.25 -59.5 -85.35 -60.5 -83.85 -61.5 -82.4 -63.05 -81.45 -64.7 -80.55 -66.9 -80.55 -69.05 -80.55 -70.65 -81.4 -72.3 -82.25 -73.3 -83.75 -74.35 -85.2 -74.85 -87.05 -75.35 -88.9 -75.35 -90.85 -75.35 -92.9 -74.95 -94.85 -74.55 -96.8 -73.55 -98.3 -72.65 -99.8 -71.05 -100.7
M -173.4 -31.2
L -168.4 -31.2 -168.4 -47.7 -156.15 -47.7
Q -154.4 -47.7 -153.3 -47.1 -152.15 -46.55 -151.4 -45.6 -150.8 -44.65 -150.45 -43.4
L -149.9 -40.7 -149.6 -37.85 -149.5 -35.15 -149.25 -32.8
Q -149.1 -31.8 -148.55 -31.2
L -143 -31.2
Q -143.8 -32.2 -144.15 -33.45
L -144.75 -36.1 -145 -38.95 -145.2 -41.85 -145.6 -44.55
Q -145.9 -45.85 -146.5 -46.9 -147.15 -47.95 -148.15 -48.7 -149.2 -49.45 -150.85 -49.8
L -150.85 -49.9
Q -147.4 -50.85 -145.85 -53.5 -144.3 -56.15 -144.3 -59.65 -144.35 -64.3 -147.35 -67.05 -150.4 -69.75 -155.7 -69.75
L -173.4 -69.75 -173.4 -31.2
M -168.4 -52
L -168.4 -65.4 -156 -65.4
Q -152.45 -65.4 -150.9 -63.55 -149.35 -61.7 -149.35 -58.85 -149.35 -56.75 -150 -55.45 -150.75 -54.1 -151.9 -53.3 -153.1 -52.55 -154.65 -52.25
L -157.95 -52 -168.4 -52
M -165.1 -23.15
Q -168.45 -21.55 -170.7 -18.8 -172.95 -16 -174.1 -12.35 -175.25 -8.65 -175.25 -4.4 -175.25 -0.2 -174.15 3.45 -173.05 7.15 -170.9 9.85 -168.8 12.55 -165.5 14.1 -162.25 15.65 -157.85 15.65 -150.7 15.65 -146.55 11.55 -142.35 7.45 -141.6 0.2
L -146.6 0.2
Q -146.75 2.6 -147.55 4.65 -148.35 6.7 -149.7 8.2 -151.15 9.7 -153.05 10.5 -155 11.35 -157.45 11.35 -160.85 11.35 -163.2 10.05 -165.65 8.75 -167.2 6.6 -168.8 4.4 -169.45 1.45 -170.25 -1.5 -170.25 -4.8 -170.25 -7.8 -169.45 -10.6 -168.8 -13.45 -167.2 -15.6 -165.65 -17.8 -163.25 -19.1 -160.9 -20.4 -157.45 -20.4
L -153.8 -19.9
Q -152.05 -19.35 -150.65 -18.35 -149.3 -17.3 -148.3 -15.8 -147.4 -14.25 -147 -12.2
L -141.95 -12.2
Q -142.35 -15.3 -143.75 -17.65 -145.15 -20 -147.2 -21.55 -149.25 -23.1 -151.85 -23.9 -154.5 -24.7 -157.4 -24.7 -161.8 -24.7 -165.1 -23.15
M -168.4 -99.15
L -168.4 -115.7 -173.4 -115.7 -173.4 -77.15 -168.4 -77.15 -168.4 -94.8 -148.6 -94.8 -148.6 -77.15 -143.6 -77.15 -143.6 -115.7 -148.6 -115.7 -148.6 -99.15 -168.4 -99.15 Z"/>
</g>

<g id="Symbol_469_0_Layer1_0_FILL">
<path fill="#333333" stroke="none" d="
M -74.7 70.75
L -74.7 64 -168.7 64 -168.7 70.75 -74.7 70.75 Z"/>
</g>

<path id="Symbol_469_0_Layer1_0_1_STROKES" stroke="#121212" stroke-width="2" stroke-linejoin="round" stroke-linecap="square" fill="none" d="
M -74.7 70.75
L -168.7 70.75 -168.7 64 -74.7 64 -74.7 70.75 Z"/>

<path id="Symbol_469_0_Layer0_0_1_STROKES" stroke="#333333" stroke-width="3" stroke-linejoin="miter" stroke-linecap="square" stroke-miterlimit="3" fill="none" d="
M -64.1 -18.15
L -66.15 -22.2
Q -68.7 -27.3 -72.35 -32.9
L -81 -45.45 -79.4 -47.7
Q -77.8 -50.2 -77.55 -52.4
L -76.35 -56.45
Q -75.4 -59.3 -75.4 -61.95 -75.4 -64.75 -76.7 -66.7 -75.8 -67.6 -74.1 -68
L -70.2 -70.2
Q -68.4 -71.55 -66.7 -71.55
L -66.7 -73.65 -68.9 -79.75 -68.9 -86.25
Q -66.15 -87.05 -58.95 -83.7
L -56.3 -83.7 -56.3 -86.25
Q -59.45 -88.45 -61.2 -93.15 -62.8 -97.3 -62.8 -101.85 -62.8 -108.3 -61.6 -109.15
L -54.15 -109.65
Q -54.8 -111.35 -57.65 -115.55 -60.2 -119.25 -60.2 -120.05 -60.2 -122.35 -58.1 -124.55
L -182.05 -124.55 -182.05 124.55 -62.55 124.55
Q -58.05 119.15 -58.05 117 -64.1 106.7 -64.1 103.75 -64.1 102.7 -62.7 100.1 -61.25 97.35 -61.1 96.2 -60.2 91.55 -60.2 90.75 -60.2 89 -61.15 87.5
L -62.8 84.95
Q -63.95 82.4 -64.1 80.6 -64.35 77.2 -65.4 74.95 -67.15 71.05 -67.15 69.75 -67.15 62.8 -67.6 55.05 -67.85 50.85 -72.1 45.35 -76.25 39.95 -76.25 38.55 -76.25 38.4 -68.05 33.1 -59.85 27.85 -59.85 24.2 -59.85 22.2 -61.95 20.15 -64.1 18.1 -64.1 15.35 -64.1 13.7 -61.05 11.5 -58.05 9.3 -58.05 6.9 -58.05 3.9 -59.35 2.05
L -61.1 -0.45 -62.4 -5.15 -62.7 -11.65
Q -62.8 -16.5 -63.7 -17.7"/>
</defs>

<g id="charBody" transform="matrix( 0.288330078125, 0, 0, 0.2882537841796875, 34.85,-36.3) ">
<g transform="matrix( 1, 0, 0, 1, 0,0) ">
<g transform="matrix( 1, 0, 0, 1, 0,0) ">
<use xlink:href="#Symbol_467_0_Layer0_0_FILL"/>
</g>
</g>

<mask id="Mask_Mask_1">
<g transform="matrix( 1, 0, 0, 1, 0,0) ">
<g transform="matrix( 1, 0, 0, 1, 0,0) ">
<use xlink:href="#Mask_Mask_Symbol_467_0_Layer0_0_FILL"/>
</g>
</g>
</mask>

<g mask="url(#Mask_Mask_1)">
<g transform="matrix( 1, 0, 0, 1, 0,0) ">
<use xlink:href="#Symbol_470_0_Layer2_0_FILL"/>
</g>
</g>

<g transform="matrix( 1, 0, 0, 1, 0,0) ">
<g transform="matrix( 1, 0, 0, 1, 0,0) ">
<use xlink:href="#Symbol_469_0_Layer1_0_FILL"/>

<use xlink:href="#Symbol_469_0_Layer1_0_1_STROKES"/>
</g>

<g transform="matrix( 1, 0, 0, 1, 0,0) ">
<use xlink:href="#Symbol_469_0_Layer0_0_1_STROKES"/>
</g>
</g>
</g>
</svg>
