
<svg xmlns="http://www.w3.org/2000/svg" version="1.1" xmlns:xlink="http://www.w3.org/1999/xlink" preserveAspectRatio="none" x="0px" y="0px" width="40px" height="40px" viewBox="-20 -40 40 40">
<defs>
<g id="Layer0_0_FILL">
<path fill="#996633" stroke="none" d="
M -19.5 -39.5
L -19.5 -0.5 19.5 -0.5 19.5 -39.5 -19.5 -39.5
M -10.05 -34.3
L -7.4 -34.3 0.4 -34.3 7.95 -34.3 14.3 -34.3 14.3 -9.95 14.3 -5.7 10.6 -5.7 7.95 -5.7 0.4 -5.7 -7.4 -5.7 -14.25 -5.7 -14.25 -30.55 -14.25 -34.3 -10.05 -34.3 Z"/>

<path fill="#7A5229" stroke="none" d="
M 7.95 -5.7
L 7.95 -8.35 0.4 -15.9 0.4 -5.7 7.95 -5.7
M 7.95 -8.35
L 7.95 -5.7 10.6 -5.7 7.95 -8.35
M 14.3 -34.3
L 7.95 -34.3 7.95 -16.3 14.3 -9.95 14.3 -34.3
M 7.95 -34.3
L 0.4 -34.3 0.4 -23.85 7.95 -16.3 7.95 -34.3
M -7.4 -23.7
L -7.4 -5.7 0.4 -5.7 0.4 -15.9 -7.4 -23.7
M -14.25 -5.7
L -7.4 -5.7 -7.4 -23.7 -14.25 -30.55 -14.25 -5.7
M -7.4 -34.3
L -7.4 -31.65 0.4 -23.85 0.4 -34.3 -7.4 -34.3
M -7.4 -34.3
L -10.05 -34.3 -7.4 -31.65 -7.4 -34.3 Z"/>

<path fill="#8C5E2F" stroke="none" d="
M -14.25 -34.3
L -14.25 -30.55 -7.4 -23.7 0.4 -15.9 7.95 -8.35 10.6 -5.7 14.3 -5.7 14.3 -9.95 7.95 -16.3 0.4 -23.85 -7.4 -31.65 -10.05 -34.3 -14.25 -34.3 Z"/>
</g>

<path id="Layer0_0_1_STROKES" stroke="#53371C" stroke-width="1" stroke-linejoin="round" stroke-linecap="round" fill="none" d="
M -10.05 -34.3
L -7.4 -34.3 0.4 -34.3 7.95 -34.3 14.3 -34.3 14.3 -9.95 14.3 -5.7 10.6 -5.7 7.95 -5.7 0.4 -5.7 -7.4 -5.7 -14.25 -5.7 -14.25 -30.55 -14.25 -34.3 -10.05 -34.3 -7.4 -31.65 -7.4 -34.3
M -7.4 -5.7
L -7.4 -23.7 -14.25 -30.55
M 19.5 -0.5
L -19.5 -0.5 -19.5 -39.5 19.5 -39.5 19.5 -0.5 Z
M 14.3 -9.95
L 7.95 -16.3 0.4 -23.85 -7.4 -31.65
M 7.95 -8.35
L 7.95 -5.7
M 0.4 -5.7
L 0.4 -15.9 -7.4 -23.7
M 0.4 -15.9
L 7.95 -8.35 10.6 -5.7
M 0.4 -34.3
L 0.4 -23.85
M 7.95 -34.3
L 7.95 -16.3"/>
</defs>

<g transform="matrix( 1, 0, 0, 1, 0,0) ">
<use xlink:href="#Layer0_0_FILL"/>

<use xlink:href="#Layer0_0_1_STROKES"/>
</g>
</svg>
