
<svg xmlns="http://www.w3.org/2000/svg" version="1.1" xmlns:xlink="http://www.w3.org/1999/xlink" preserveAspectRatio="none" x="0px" y="0px" width="25px" height="4px" viewBox="0 0 25 4">
<defs>
<g id="Symbol_465_0_Layer0_0_FILL">
<path fill="#9C3870" stroke="none" d="
M 75.95 5.15
L 76.1 5.35 77.6 4.25
Q 78.9 2.95 79.25 1.25 78.9 2.75 77.75 3.9 76.95 4.7 75.95 5.15
M 73.85 -5.45
Q 71.6 -5.45 70 -3.85 68.35 -2.25 68.35 0.05 68.35 2.3 70 3.9 71.6 5.5 73.85 5.55
L 75.95 5.15
Q 76.95 4.7 77.75 3.9 78.9 2.75 79.25 1.25
L 79.35 0.05 79.35 0 79.25 -1.05
Q 78.95 -2.65 77.75 -3.85 76.95 -4.65 75.95 -5.05
L 73.85 -5.45
M 69.6 -4.25
L 70 -3.85
Q 71.6 -5.45 73.85 -5.45
L 75.95 -5.05
Q 76.95 -4.65 77.75 -3.85 78.95 -2.65 79.25 -1.05 78.95 -2.9 77.6 -4.25
L 76.15 -5.35
Q 74.9 -6 73.35 -6
L -0.2 -6
Q -2.7 -6 -4.45 -4.25 -6.2 -2.5 -6.2 0 -6.2 2.5 -4.45 4.25 -2.7 6 -0.2 6
L 47.65 6 69.6 -4.25 Z"/>

<path fill="#8F3466" stroke="none" d="
M 70 -3.85
L 69.6 -4.25 47.65 6 73.35 6
Q 74.85 6 76.1 5.35
L 75.95 5.15 73.85 5.55
Q 71.6 5.5 70 3.9 68.35 2.3 68.35 0.05 68.35 -2.25 70 -3.85 Z"/>
</g>

<path id="Symbol_465_0_Layer0_0_1_STROKES" stroke="#592040" stroke-width="2" stroke-linejoin="round" stroke-linecap="round" fill="none" d="
M 70 -3.85
Q 71.6 -5.45 73.85 -5.45
L 75.95 -5.05
Q 76.95 -4.65 77.75 -3.85 78.95 -2.65 79.25 -1.05 78.95 -2.9 77.6 -4.25
L 76.15 -5.35
Q 74.9 -6 73.35 -6
L -0.2 -6
Q -2.7 -6 -4.45 -4.25 -6.2 -2.5 -6.2 0 -6.2 2.5 -4.45 4.25 -2.7 6 -0.2 6
L 47.65 6 73.35 6
Q 74.85 6 76.1 5.35
M 75.95 5.15
L 73.85 5.55
Q 71.6 5.5 70 3.9 68.35 2.3 68.35 0.05 68.35 -2.25 70 -3.85
M 79.25 1.25
L 79.35 0.05 79.35 0 79.25 -1.05
M 76.1 5.35
L 77.6 4.25
Q 78.9 2.95 79.25 1.25 78.9 2.75 77.75 3.9 76.95 4.7 75.95 5.15"/>
</defs>

<g id="crank" transform="matrix( 0.28814697265625, 0, 0, 0.2882537841796875, 2.05,2) ">
<g transform="matrix( 1, 0, 0, 1, 0,0) ">
<use xlink:href="#Symbol_465_0_Layer0_0_FILL"/>

<use xlink:href="#Symbol_465_0_Layer0_0_1_STROKES"/>
</g>
</g>
</svg>
