
<svg xmlns="http://www.w3.org/2000/svg" version="1.1" xmlns:xlink="http://www.w3.org/1999/xlink" preserveAspectRatio="none" x="0px" y="0px" width="51.8px" height="51.8px" viewBox="-25.95 -50.65 51.8 51.8">
<defs>
<g id="Layer0_0_FILL">
<path fill="#666666" stroke="none" d="
M 17.95 -19.95
L 11.65 -19.95 4.65 -19.95 4.65 -15.15 4.65 -6.95 17.95 -6.95 17.95 -19.95
M 14.35 -12.8
Q 14.9 -12.25 14.9 -11.5 14.9 -10.7 14.35 -10.15 13.85 -9.6 13.05 -9.6 12.25 -9.6 11.7 -10.15 11.2 -10.7 11.2 -11.5 11.2 -12.25 11.7 -12.8 12.25 -13.35 13.05 -13.35 13.85 -13.35 14.35 -12.8
M 19.65 -19.95
L 17.95 -19.95 17.95 -6.95 4.65 -6.95 4.65 -5.8 4.45 -0.4 24.5 -0.4 24.5 -20.6
Q 23.0462890625 -19.786328125 19.65 -19.95
M 4.65 -36.45
L 4.65 -29.4 11.45 -29.4 17.95 -29.4 17.95 -42.85 4.65 -42.85 4.65 -36.45
M 13.05 -36.85
Q 12.25 -36.85 11.7 -37.35 11.2 -37.9 11.2 -38.7 11.2 -39.5 11.7 -40 12.25 -40.55 13.05 -40.55 13.85 -40.55 14.35 -40 14.9 -39.5 14.9 -38.7 14.9 -37.9 14.35 -37.35 13.85 -36.85 13.05 -36.85
M 21.15 -29.4
Q 23.411328125 -29.5740234375 24.5 -28.95
L 24.5 -49.45 3.9 -49.45
Q 4.8224609375 -48.0275390625 4.65 -44.45
L 4.65 -42.85 17.95 -42.85 17.95 -29.4 21.15 -29.4
M -4.8 -15.3
L -4.8 -19.95 -9.65 -19.95 -17.9 -19.95 -17.9 -6.95 -4.8 -6.95 -4.8 -15.3
M -12.35 -12.8
Q -11.8 -12.25 -11.8 -11.5 -11.8 -10.7 -12.35 -10.15 -12.9 -9.6 -13.7 -9.6 -14.45 -9.6 -15 -10.15 -15.55 -10.7 -15.55 -11.5 -15.55 -12.25 -15 -12.8 -14.45 -13.35 -13.7 -13.35 -12.9 -13.35 -12.35 -12.8
M -24.5 -20.15
L -24.5 -0.4 -4.3 -0.4
Q -4.8736328125 -1.853515625 -4.8 -6.35
L -4.8 -6.95 -17.9 -6.95 -17.9 -19.95 -19 -19.95 -24.5 -20.15
M -4.8 -29.4
L -4.8 -36.25 -4.8 -42.85 -17.9 -42.85 -17.9 -29.4 -9.5 -29.4 -4.8 -29.4
M -12.35 -37.15
Q -12.9 -36.6 -13.7 -36.6 -14.45 -36.6 -15 -37.15 -15.55 -37.65 -15.55 -38.45 -15.55 -39.25 -15 -39.8 -14.45 -40.3 -13.7 -40.3 -12.9 -40.3 -12.35 -39.8 -11.8 -39.25 -11.8 -38.45 -11.8 -37.65 -12.35 -37.15
M -4.8 -45.95
Q -4.986328125 -48.373046875 -4.25 -49.45
L -24.5 -49.45 -24.5 -28.85
Q -23.1072265625 -29.4763671875 -18.45 -29.4
L -17.9 -29.4 -17.9 -42.85 -4.8 -42.85 -4.8 -45.95 Z"/>

<path fill="#333333" stroke="none" d="
M 14.9 -11.5
Q 14.9 -12.25 14.35 -12.8 13.85 -13.35 13.05 -13.35 12.25 -13.35 11.7 -12.8 11.2 -12.25 11.2 -11.5 11.2 -10.7 11.7 -10.15 12.25 -9.6 13.05 -9.6 13.85 -9.6 14.35 -10.15 14.9 -10.7 14.9 -11.5
M 11.7 -37.35
Q 12.25 -36.85 13.05 -36.85 13.85 -36.85 14.35 -37.35 14.9 -37.9 14.9 -38.7 14.9 -39.5 14.35 -40 13.85 -40.55 13.05 -40.55 12.25 -40.55 11.7 -40 11.2 -39.5 11.2 -38.7 11.2 -37.9 11.7 -37.35
M -11.8 -11.5
Q -11.8 -12.25 -12.35 -12.8 -12.9 -13.35 -13.7 -13.35 -14.45 -13.35 -15 -12.8 -15.55 -12.25 -15.55 -11.5 -15.55 -10.7 -15 -10.15 -14.45 -9.6 -13.7 -9.6 -12.9 -9.6 -12.35 -10.15 -11.8 -10.7 -11.8 -11.5
M -13.7 -36.6
Q -12.9 -36.6 -12.35 -37.15 -11.8 -37.65 -11.8 -38.45 -11.8 -39.25 -12.35 -39.8 -12.9 -40.3 -13.7 -40.3 -14.45 -40.3 -15 -39.8 -15.55 -39.25 -15.55 -38.45 -15.55 -37.65 -15 -37.15 -14.45 -36.6 -13.7 -36.6 Z"/>

<path fill="#000000" stroke="none" d="
M 17.95 -29.4
L 11.45 -29.4 4.65 -22.6 4.65 -19.95 11.65 -19.95 21.15 -29.4 17.95 -29.4
M 4.65 -44.45
Q 4.8224609375 -48.0275390625 3.9 -49.45 3.7724609375 -49.6775390625 3.6 -49.85 1.9 -50.25 -1 -50.15
L 4.65 -44.45
M -4.8 -6.35
Q -4.8736328125 -1.853515625 -4.3 -0.4 -4.05234375 0.1185546875 -3.75 0.25 -2.7 0.8 2.15 0.6
L -4.8 -6.35
M -4.8 -19.95
L -4.8 -15.3 4.65 -5.8 4.65 -6.95 4.65 -15.15 -4.8 -24.6 -4.8 -19.95
M -4.8 -24.8
L -4.8 -29.4 -9.5 -29.4 -19 -19.95 -17.9 -19.95 -9.65 -19.95 -4.8 -24.8
M -4.8 -45.95
L -4.8 -42.85 -4.8 -36.25 4.65 -26.8 4.65 -29.4 4.65 -36.45 -4.8 -45.95
M 24.5 -20.6
Q 24.823046875 -20.7728515625 25.05 -21 25.45 -22.7 25.35 -25.6
L 19.65 -19.95
Q 23.0462890625 -19.786328125 24.5 -20.6
M -24.5 -28.85
Q -24.931640625 -28.6220703125 -25.05 -28.35 -25.6 -27.3 -25.4 -22.45
L -18.45 -29.4
Q -23.1072265625 -29.4763671875 -24.5 -28.85 Z"/>

<path fill="#FFFF00" stroke="none" d="
M 4.65 -29.4
L 4.65 -26.8 4.65 -22.6 11.45 -29.4 4.65 -29.4
M -4.8 -6.95
L -4.8 -6.35 2.15 0.6
Q 4.05 0.6 4.45 -0.05
L 4.45 -0.4 4.65 -5.8 -4.8 -15.3 -4.8 -6.95
M -4.8 -19.95
L -4.8 -24.6 -4.8 -24.8 -9.65 -19.95 -4.8 -19.95
M -4.8 -29.4
L -4.8 -24.8 -4.8 -24.6 4.65 -15.15 4.65 -19.95 4.65 -22.6 4.65 -26.8 -4.8 -36.25 -4.8 -29.4
M -1 -50.15
Q -3.65 -50.1 -4.1 -49.6 -4.1611328125 -49.528515625 -4.25 -49.45 -4.986328125 -48.373046875 -4.8 -45.95
L 4.65 -36.45 4.65 -42.85 4.65 -44.45 -1 -50.15
M 25.35 -25.6
Q 25.3 -28.25 24.8 -28.7 24.66328125 -28.8171875 24.5 -28.95 23.411328125 -29.5740234375 21.15 -29.4
L 11.65 -19.95 17.95 -19.95 19.65 -19.95 25.35 -25.6
M -17.9 -29.4
L -18.45 -29.4 -25.4 -22.45
Q -25.4 -20.55 -24.75 -20.15
L -24.5 -20.15 -19 -19.95 -9.5 -29.4 -17.9 -29.4 Z"/>
</g>

<path id="Layer0_0_1_STROKES" stroke="#333333" stroke-width="1" stroke-linejoin="round" stroke-linecap="round" fill="none" d="
M 3.925 -49.45
L 24.5 -49.45 24.5 -28.925
M 24.5 -20.6
L 24.5 -0.4 4.475 -0.4
M -4.275 -0.4
L -24.5 -0.4 -24.5 -20.15
M -24.5 -28.825
L -24.5 -49.45 -4.225 -49.45
M -17.9 -29.4
L -17.9 -42.85 -4.8 -42.85
M -4.8 -6.95
L -17.9 -6.95 -17.9 -19.95
M 4.65 -42.85
L 17.95 -42.85 17.95 -29.4
M 17.95 -19.95
L 17.95 -6.95 4.65 -6.95"/>

<path id="Layer0_0_2_STROKES" stroke="#000000" stroke-width="1" stroke-linejoin="round" stroke-linecap="round" fill="none" d="
M -1 -50.15
Q -3.65 -50.1 -4.1 -49.6 -4.1611328125 -49.528515625 -4.225 -49.45 -4.986328125 -48.373046875 -4.8 -45.95
M 4.65 -36.45
L 4.65 -42.85 4.65 -44.45
M -1 -50.15
Q 1.9 -50.25 3.6 -49.85 3.7724609375 -49.6775390625 3.925 -49.45
M 24.5 -28.925
Q 24.66328125 -28.8171875 24.8 -28.7 25.3 -28.25 25.35 -25.6 25.45 -22.7 25.05 -21 24.823046875 -20.7728515625 24.5 -20.6
M 4.475 -0.4
L 4.45 -0.05
Q 4.05 0.6 2.15 0.6 -2.7 0.8 -3.75 0.25 -4.05234375 0.1185546875 -4.275 -0.4
M -24.5 -20.15
L -24.75 -20.15
Q -25.4 -20.55 -25.4 -22.45 -25.6 -27.3 -25.05 -28.35 -24.931640625 -28.6220703125 -24.5 -28.825
M -4.8 -45.95
L -4.8 -42.85 -4.8 -36.25
M 4.65 -26.8
L 4.65 -29.4 4.65 -36.45
M -9.5 -29.4
L -17.9 -29.4 -18.45 -29.4
M -4.8 -29.4
L -4.8 -24.8 -4.8 -24.6
M 4.65 -15.15
L 4.65 -19.95 4.65 -22.6 4.65 -26.8
M -4.8 -36.25
L -4.8 -29.4 -9.5 -29.4
M -19 -19.95
L -17.9 -19.95 -9.65 -19.95
M -4.8 -19.95
L -4.8 -15.3
M 4.65 -5.8
L 4.65 -6.95 4.65 -15.15
M -4.8 -24.6
L -4.8 -19.95 -9.65 -19.95
M -4.8 -6.35
Q -4.8736328125 -1.853515625 -4.275 -0.4
M -4.8 -15.3
L -4.8 -6.95 -4.8 -6.35
M -24.5 -20.15
L -19 -19.95
M -18.45 -29.4
Q -23.1072265625 -29.4763671875 -24.5 -28.825
M 24.5 -28.925
Q 23.411328125 -29.5740234375 21.15 -29.4
M 11.65 -19.95
L 17.95 -19.95 19.65 -19.95
M 4.65 -44.45
Q 4.8224609375 -48.0275390625 3.925 -49.45
M 21.15 -29.4
L 17.95 -29.4 11.45 -29.4 4.65 -29.4
M 4.475 -0.4
L 4.65 -5.8
M 4.65 -19.95
L 11.65 -19.95
M 19.65 -19.95
Q 23.0462890625 -19.786328125 24.5 -20.6"/>
</defs>

<g transform="matrix( 1, 0, 0, 1, 0,0) ">
<use xlink:href="#Layer0_0_FILL"/>

<use xlink:href="#Layer0_0_1_STROKES"/>

<use xlink:href="#Layer0_0_2_STROKES"/>
</g>
</svg>
