
<svg xmlns="http://www.w3.org/2000/svg" version="1.1" xmlns:xlink="http://www.w3.org/1999/xlink" preserveAspectRatio="none" x="0px" y="0px" width="56.7px" height="56.7px" viewBox="-28.25 -53.3 56.7 56.7">
<defs>
<g id="Layer0_0_FILL">
<path fill="#999999" stroke="none" d="
M 23.5 -28.5
L 21.75 -43.2 18.15 -40.15
Q 16.3 -42.35 14.15 -43.95
L 2.55 -53.15 2.15 -48.45 2.1 -48.45
Q -0.75 -48.7 -3.4 -48.3
L -18.15 -46.6 -15.1 -43 -19 -38.95 -20 -37.45 -20.05 -37.5 -28.1 -27.35 -23.4 -26.95
Q -23.7 -24 -23.3 -21.3
L -21.55 -6.7 -17.95 -9.75
Q -16.1 -7.55 -13.95 -5.95
L -2.3 3.25 -1.9 -1.4
Q 0.95 -1.2 3.65 -1.55
L 4.85 -1.75 4.8 -1.7 18.35 -3.3 15.3 -6.9 19.15 -10.9 28.35 -22.55 23.6 -22.9
Q 23.85 -25.8 23.5 -28.5
M 0.5 -29.65
Q 2.45 -29.5 3.7 -28 4.95 -26.55 4.8 -24.55 4.65 -22.6 3.15 -21.35 1.65 -20.1 -0.3 -20.25 -2.25 -20.45 -3.5 -21.9 -4.75 -23.4 -4.6 -25.35 -4.45 -27.35 -2.95 -28.6 -1.45 -29.85 0.5 -29.65
M 19.3 -23.35
Q 19.15 -18.55 17.15 -14.15 17.55 -17.4 16.8 -20.55
L 15.4 -19.05
Q 17.45 -24.5 18.2 -30.2 18.85 -25.9 17.85 -21.4
L 19.3 -23.35
M -16.55 -25.25
Q -16.5 -29.9 -14.8 -33.85 -15.45 -28.2 -14.75 -22.45
L -15.7 -24.15
Q -17.2 -21.3 -17.6 -18.05 -18.5 -22.8 -17.5 -27.5
L -16.55 -25.25
M -1.55 -34.05
Q -4.9 -34.75 -8.25 -34.3 -3.7 -36.3 1.35 -36.45
L -0.65 -35.05
Q 4.05 -36.1 8.55 -35.45 2.6 -34.75 -3 -32.7
L -1.55 -34.05
M -8.95 -15.1
Q -5.55 -15 -2.35 -16
L -3.9 -17.15
Q 1.9 -15.7 7.85 -15.5 3.4 -14.45 -1.35 -15
L 0.8 -13.85
Q -4.25 -13.6 -8.95 -15.1 Z"/>

<path fill="#CCCCCC" stroke="none" d="
M -2.35 -16
Q -5.55 -15 -8.95 -15.1 -4.25 -13.6 0.8 -13.85
L -1.35 -15
Q 3.4 -14.45 7.85 -15.5 1.9 -15.7 -3.9 -17.15
L -2.35 -16
M -8.25 -34.3
Q -4.9 -34.75 -1.55 -34.05
L -3 -32.7
Q 2.6 -34.75 8.55 -35.45 4.05 -36.1 -0.65 -35.05
L 1.35 -36.45
Q -3.7 -36.3 -8.25 -34.3
M -14.8 -33.85
Q -16.5 -29.9 -16.55 -25.25
L -17.5 -27.5
Q -18.5 -22.8 -17.6 -18.05 -17.2 -21.3 -15.7 -24.15
L -14.75 -22.45
Q -15.45 -28.2 -14.8 -33.85
M 17.15 -14.15
Q 19.15 -18.55 19.3 -23.35
L 17.85 -21.4
Q 18.85 -25.9 18.2 -30.2 17.45 -24.5 15.4 -19.05
L 16.8 -20.55
Q 17.55 -17.4 17.15 -14.15 Z"/>

<path fill="#808080" stroke="none" d="
M 3.7 -28
Q 2.45 -29.5 0.5 -29.65 -1.45 -29.85 -2.95 -28.6 -4.45 -27.35 -4.6 -25.35 -4.75 -23.4 -3.5 -21.9 -2.25 -20.45 -0.3 -20.25 1.65 -20.1 3.15 -21.35 4.65 -22.6 4.8 -24.55 4.95 -26.55 3.7 -28
M 0.35 -27.3
Q 1.3 -27.2 1.95 -26.4 2.55 -25.7 2.5 -24.75 2.35 -23.75 1.65 -23.1 0.85 -22.55 -0.05 -22.6 -1.05 -22.7 -1.65 -23.4 -2.3 -24.2 -2.2 -25.15 -2.15 -26.15 -1.4 -26.75 -0.65 -27.35 0.35 -27.3 Z"/>
</g>

<path id="Layer0_0_1_STROKES" stroke="#666666" stroke-width="1" stroke-linejoin="round" stroke-linecap="round" fill="none" d="
M -3.4 -48.3
Q -0.75 -48.7 2.1 -48.45
L 2.15 -48.45 2.55 -53.15 14.15 -43.95
Q 16.3 -42.35 18.15 -40.15
L 21.75 -43.2 23.5 -28.5
Q 23.85 -25.8 23.6 -22.9
L 28.35 -22.55 19.15 -10.9 15.3 -6.9 18.35 -3.3 4.8 -1.7 4.85 -1.75 3.65 -1.55
Q 0.95 -1.2 -1.9 -1.4
L -2.3 3.25 -13.95 -5.95
Q -16.1 -7.55 -17.95 -9.75
L -21.55 -6.7 -23.3 -21.3
Q -23.7 -24 -23.4 -26.95
L -28.1 -27.35 -20.05 -37.5 -20 -37.45 -19 -38.95 -15.1 -43 -18.15 -46.6 -3.4 -48.3 Z
M 0.35 -27.3
Q 1.3 -27.2 1.95 -26.4 2.55 -25.7 2.5 -24.75 2.35 -23.75 1.65 -23.1 0.85 -22.55 -0.05 -22.6 -1.05 -22.7 -1.65 -23.4 -2.3 -24.2 -2.2 -25.15 -2.15 -26.15 -1.4 -26.75 -0.65 -27.35 0.35 -27.3 Z
M 3.7 -28
Q 4.95 -26.55 4.8 -24.55 4.65 -22.6 3.15 -21.35 1.65 -20.1 -0.3 -20.25 -2.25 -20.45 -3.5 -21.9 -4.75 -23.4 -4.6 -25.35 -4.45 -27.35 -2.95 -28.6 -1.45 -29.85 0.5 -29.65 2.45 -29.5 3.7 -28 Z"/>
</defs>

<g transform="matrix( 1, 0, 0, 1, 0,0) ">
<use xlink:href="#Layer0_0_FILL"/>

<use xlink:href="#Layer0_0_1_STROKES"/>
</g>
</svg>
