
<svg xmlns="http://www.w3.org/2000/svg" version="1.1" xmlns:xlink="http://www.w3.org/1999/xlink" preserveAspectRatio="none" x="0px" y="0px" width="56.7px" height="56.7px" viewBox="-28.25 -53.3 56.7 56.7">
<defs>
<g id="Layer0_0_FILL">
<path fill="#999999" stroke="none" d="
M 28.45 -24.95
L 23.75 -24.95
Q 23.75 -27.85 23.15 -30.45
L 20.15 -45 16.85 -41.65 16.8 -41.65
Q 14.8 -43.7 12.5 -45.15
L 0.1 -53.3 0.1 -48.55 -5.55 -47.95 -7.25 -47.5 -7.25 -47.6 -19.95 -45 -16.6 -41.65
Q -18.7 -39.6 -20.15 -37.2
L -28.25 -24.95 -23.55 -24.95
Q -23.55 -22.05 -22.95 -19.45
L -19.95 -4.9 -16.6 -8.2
Q -14.6 -6.2 -12.3 -4.75
L -11.25 -4.15 -11.25 -4.1 0.1 3.4 0.1 -1.3 5.65 -1.9 20.15 -4.9 16.8 -8.2
Q 18.85 -10.3 20.3 -12.55
L 28.45 -24.95
M 3.45 -28.3
Q 4.85 -26.9 4.85 -24.95 4.85 -23.05 3.45 -21.65 2.05 -20.25 0.1 -20.25 -1.85 -20.25 -3.25 -21.65 -4.65 -23.05 -4.65 -24.95 -4.65 -26.9 -3.25 -28.3 -1.85 -29.7 0.1 -29.7 2.05 -29.7 3.45 -28.3
M 2.7 -32.9
L 4.7 -33
Q 2.6 -35.65 -0.25 -37.55 4.5 -36.1 8.45 -32.95
L 6.05 -33.2
Q 10.3 -30.95 13.35 -27.55 8.35 -30.8 2.7 -32.9
M 10.05 -10.8
L 8.05 -10.55
Q 13.15 -13.4 17.35 -17.3 15.1 -13.55 11.45 -10.75
L 13.8 -11.35
Q 10.55 -7.75 6.2 -5.7 8.6 -7.95 10.05 -10.8
M -12.9 -32.6
L -12.55 -34.55
Q -15.5 -33.35 -17.9 -31.1 -15.55 -35.3 -11.7 -38.25
L -12.5 -35.95
Q -9.45 -39.4 -5.55 -41.35 -9.7 -37.45 -12.9 -32.6
M -7.4 -18.3
L -6.5 -16
Q -10.55 -19.05 -13.2 -23.25 -10.65 -20.95 -7.55 -19.65
L -8 -21.55
Q -4.5 -16.7 -0.05 -12.7 -4.15 -14.75 -7.4 -18.3 Z"/>

<path fill="#CCCCCC" stroke="none" d="
M -6.5 -16
L -7.4 -18.3
Q -4.15 -14.75 -0.05 -12.7 -4.5 -16.7 -8 -21.55
L -7.55 -19.65
Q -10.65 -20.95 -13.2 -23.25 -10.55 -19.05 -6.5 -16
M -12.55 -34.55
L -12.9 -32.6
Q -9.7 -37.45 -5.55 -41.35 -9.45 -39.4 -12.5 -35.95
L -11.7 -38.25
Q -15.55 -35.3 -17.9 -31.1 -15.5 -33.35 -12.55 -34.55
M 8.05 -10.55
L 10.05 -10.8
Q 8.6 -7.95 6.2 -5.7 10.55 -7.75 13.8 -11.35
L 11.45 -10.75
Q 15.1 -13.55 17.35 -17.3 13.15 -13.4 8.05 -10.55
M 4.7 -33
L 2.7 -32.9
Q 8.35 -30.8 13.35 -27.55 10.3 -30.95 6.05 -33.2
L 8.45 -32.95
Q 4.5 -36.1 -0.25 -37.55 2.6 -35.65 4.7 -33 Z"/>

<path fill="#808080" stroke="none" d="
M 4.85 -24.95
Q 4.85 -26.9 3.45 -28.3 2.05 -29.7 0.1 -29.7 -1.85 -29.7 -3.25 -28.3 -4.65 -26.9 -4.65 -24.95 -4.65 -23.05 -3.25 -21.65 -1.85 -20.25 0.1 -20.25 2.05 -20.25 3.45 -21.65 4.85 -23.05 4.85 -24.95
M 1.8 -26.6
Q 2.45 -25.9 2.45 -24.9 2.45 -23.95 1.8 -23.25 1.05 -22.6 0.1 -22.55 -0.85 -22.6 -1.55 -23.25 -2.25 -23.95 -2.25 -24.9 -2.25 -25.9 -1.55 -26.6 -0.85 -27.3 0.1 -27.3 1.05 -27.3 1.8 -26.6 Z"/>
</g>

<path id="Layer0_0_1_STROKES" stroke="#666666" stroke-width="1" stroke-linejoin="round" stroke-linecap="round" fill="none" d="
M 12.5 -45.15
Q 14.8 -43.7 16.8 -41.65
L 16.85 -41.65 20.15 -45 23.15 -30.45
Q 23.75 -27.85 23.75 -24.95
L 28.45 -24.95 20.3 -12.55
Q 18.85 -10.3 16.8 -8.2
L 20.15 -4.9 5.65 -1.9 0.1 -1.3 0.1 3.4 -11.25 -4.1 -11.25 -4.15 -12.3 -4.75
Q -14.6 -6.2 -16.6 -8.2
L -19.95 -4.9 -22.95 -19.45
Q -23.55 -22.05 -23.55 -24.95
L -28.25 -24.95 -20.15 -37.2
Q -18.7 -39.6 -16.6 -41.65
L -19.95 -45 -7.25 -47.6 -7.25 -47.5 -5.55 -47.95 0.1 -48.55 0.1 -53.3 12.5 -45.15 Z
M 1.8 -26.6
Q 2.45 -25.9 2.45 -24.9 2.45 -23.95 1.8 -23.25 1.05 -22.6 0.1 -22.55 -0.85 -22.6 -1.55 -23.25 -2.25 -23.95 -2.25 -24.9 -2.25 -25.9 -1.55 -26.6 -0.85 -27.3 0.1 -27.3 1.05 -27.3 1.8 -26.6 Z
M 4.85 -24.95
Q 4.85 -23.05 3.45 -21.65 2.05 -20.25 0.1 -20.25 -1.85 -20.25 -3.25 -21.65 -4.65 -23.05 -4.65 -24.95 -4.65 -26.9 -3.25 -28.3 -1.85 -29.7 0.1 -29.7 2.05 -29.7 3.45 -28.3 4.85 -26.9 4.85 -24.95 Z"/>
</defs>

<g transform="matrix( 1, 0, 0, 1, 0,0) ">
<use xlink:href="#Layer0_0_FILL"/>

<use xlink:href="#Layer0_0_1_STROKES"/>
</g>
</svg>
