
<svg xmlns="http://www.w3.org/2000/svg" version="1.1" xmlns:xlink="http://www.w3.org/1999/xlink" preserveAspectRatio="none" x="0px" y="0px" width="56.7px" height="56.7px" viewBox="-28.25 -53.3 56.7 56.7">
<defs>
<g id="Layer0_0_FILL">
<path fill="#999999" stroke="none" d="
M 27.4 -32.35
L 22.85 -31.1
Q 22.1 -34 20.75 -36.4
L 14.2 -49.5 11.85 -45.4
Q 9.35 -46.85 6.8 -47.65
L -7.3 -52.25 -6.1 -47.7
Q -8.8 -46.95 -11.25 -45.75
L -12.25 -45.1 -12.3 -45.15 -24.45 -39.05 -20.4 -36.7 -22.6 -31.6 -27.2 -17.5 -22.7 -18.8
Q -21.9 -16 -20.65 -13.6
L -14 -0.4 -11.65 -4.5
Q -9.15 -3.05 -6.6 -2.25
L 7.5 2.4 6.25 -2.15 6.25 -2.2
Q 9 -2.95 11.4 -4.15
L 24.65 -10.85 20.55 -13.2 22.85 -18.35 23.25 -20.1 23.35 -20.05 27.4 -32.35
M 2.45 -29.05
Q 4.15 -28.1 4.65 -26.2 5.15 -24.3 4.2 -22.6 3.25 -20.9 1.35 -20.4 -0.55 -19.9 -2.25 -20.85 -3.9 -21.8 -4.4 -23.7 -4.95 -25.6 -4 -27.3 -3.05 -29 -1.1 -29.5 0.8 -30 2.45 -29.05
M 14.4 -37.5
Q 16.8 -33.35 17.45 -28.6
L 15.85 -30.4
Q 17.35 -26 17.1 -21.7 15.8 -27.25 13.15 -32.4
L 14.7 -31.15
Q 15.1 -34.3 14.4 -37.5
M 4.75 -17
Q 8.1 -17.5 11.2 -19 7.55 -15.6 2.85 -13.75
L 4.3 -15.7
Q 0.25 -13.15 -4.25 -12.2 1.1 -14.95 5.7 -18.75
L 4.75 -17
M -1.95 -34.75
L -4.35 -35.15
Q 0.3 -37.15 5.2 -37.3 2 -36.25 -0.7 -34.2
L 1.15 -33.65
Q -4.75 -33.05 -10.4 -31.2 -6.6 -33.65 -1.95 -34.75
M -15.1 -13.85
Q -17.2 -17.6 -17.85 -22.2
L -18.45 -19.85
Q -19.95 -24.45 -19.6 -29.2 -18.85 -26.05 -17.1 -23.4
L -16.3 -25.2
Q -16.35 -19.4 -15.1 -13.85 Z"/>

<path fill="#CCCCCC" stroke="none" d="
M -17.85 -22.2
Q -17.2 -17.6 -15.1 -13.85 -16.35 -19.4 -16.3 -25.2
L -17.1 -23.4
Q -18.85 -26.05 -19.6 -29.2 -19.95 -24.45 -18.45 -19.85
L -17.85 -22.2
M -4.35 -35.15
L -1.95 -34.75
Q -6.6 -33.65 -10.4 -31.2 -4.75 -33.05 1.15 -33.65
L -0.7 -34.2
Q 2 -36.25 5.2 -37.3 0.3 -37.15 -4.35 -35.15
M 11.2 -19
Q 8.1 -17.5 4.75 -17
L 5.7 -18.75
Q 1.1 -14.95 -4.25 -12.2 0.25 -13.15 4.3 -15.7
L 2.85 -13.75
Q 7.55 -15.6 11.2 -19
M 17.45 -28.6
Q 16.8 -33.35 14.4 -37.5 15.1 -34.3 14.7 -31.15
L 13.15 -32.4
Q 15.8 -27.25 17.1 -21.7 17.35 -26 15.85 -30.4
L 17.45 -28.6 Z"/>

<path fill="#808080" stroke="none" d="
M 4.65 -26.2
Q 4.15 -28.1 2.45 -29.05 0.8 -30 -1.1 -29.5 -3.05 -29 -4 -27.3 -4.95 -25.6 -4.4 -23.7 -3.9 -21.8 -2.25 -20.85 -0.55 -19.9 1.35 -20.4 3.25 -20.9 4.2 -22.6 5.15 -24.3 4.65 -26.2
M 1.2 -27
Q 2.1 -26.5 2.3 -25.6 2.65 -24.65 2.15 -23.8 1.65 -22.95 0.65 -22.7 -0.2 -22.4 -1.1 -22.9 -1.9 -23.4 -2.2 -24.35 -2.45 -25.25 -2 -26.15 -1.45 -26.95 -0.55 -27.25 0.4 -27.5 1.2 -27 Z"/>
</g>

<path id="Layer0_0_1_STROKES" stroke="#666666" stroke-width="1" stroke-linejoin="round" stroke-linecap="round" fill="none" d="
M 11.4 -4.15
Q 9 -2.95 6.25 -2.2
L 6.25 -2.15 7.5 2.4 -6.6 -2.25
Q -9.15 -3.05 -11.65 -4.5
L -14 -0.4 -20.65 -13.6
Q -21.9 -16 -22.7 -18.8
L -27.2 -17.5 -22.6 -31.6 -20.4 -36.7 -24.45 -39.05 -12.3 -45.15 -12.25 -45.1 -11.25 -45.75
Q -8.8 -46.95 -6.1 -47.7
L -7.3 -52.25 6.8 -47.65
Q 9.35 -46.85 11.85 -45.4
L 14.2 -49.5 20.75 -36.4
Q 22.1 -34 22.85 -31.1
L 27.4 -32.35 23.35 -20.05 23.25 -20.1 22.85 -18.35 20.55 -13.2 24.65 -10.85 11.4 -4.15 Z
M -2.25 -20.85
Q -3.9 -21.8 -4.4 -23.7 -4.95 -25.6 -4 -27.3 -3.05 -29 -1.1 -29.5 0.8 -30 2.45 -29.05 4.15 -28.1 4.65 -26.2 5.15 -24.3 4.2 -22.6 3.25 -20.9 1.35 -20.4 -0.55 -19.9 -2.25 -20.85 Z
M 0.65 -22.7
Q -0.2 -22.4 -1.1 -22.9 -1.9 -23.4 -2.2 -24.35 -2.45 -25.25 -2 -26.15 -1.45 -26.95 -0.55 -27.25 0.4 -27.5 1.2 -27 2.1 -26.5 2.3 -25.6 2.65 -24.65 2.15 -23.8 1.65 -22.95 0.65 -22.7 Z"/>
</defs>

<g transform="matrix( 1, 0, 0, 1, 0,0) ">
<use xlink:href="#Layer0_0_FILL"/>

<use xlink:href="#Layer0_0_1_STROKES"/>
</g>
</svg>
