
<svg xmlns="http://www.w3.org/2000/svg" version="1.1" xmlns:xlink="http://www.w3.org/1999/xlink" preserveAspectRatio="none" x="0px" y="0px" width="61.05px" height="70.8px" viewBox="-30.6 -70.4 61.05 70.8">
<defs>
<g id="Layer0_0_FILL">
<path fill="#333333" stroke="none" d="
M -18.85 -58
L -10.3 -58
Q -20.15 -63.9 -30.1 -69.7
L -18.85 -58
M 0.1 -58.75
L 4.1 -58.35 -0.3 -69.65 -4 -58.35 0.1 -58.75
M 8 -58
L 17.4 -58 29.6 -70 8 -58 Z"/>
</g>

<g id="Layer0_1_FILL">
<path fill="#333333" stroke="none" d="
M -10.3 -12
L -18.85 -12 -30.1 -0.3
Q -20.15 -6.1 -10.3 -12
M 4.1 -11.65
L 0.1 -11.25 -4 -11.65 -0.3 -0.35 4.1 -11.65
M 17.4 -12
L 8 -12 29.6 0 17.4 -12 Z"/>
</g>

<g id="Layer0_2_FILL">
<path fill="#666666" stroke="none" d="
M -14.9 -14.95
L -14.85 -15 -15 -15 -15.05 -15 -15 -14.95 -14.9 -14.95
M -5 -14.95
L -4.95 -15 -5.05 -15 -5 -14.95
M 5.1 -14.95
L 5.15 -15 4.9 -15 4.95 -14.95 5.1 -14.95
M 14.95 -15
L 14.95 -14.95 15 -15 14.95 -15
M 29.9 -29.95
L 29.9 -30.05 27.4 -32.55 29.9 -29.95
M 29.9 -39.95
L 29.9 -40.15 24.95 -35.05 29.9 -39.95
M 27.75 -57.85
L 29.9 -60 26.8 -60 27.75 -57.85
M 9.35 -50.7
L 10.05 -50 11.5 -51.45
Q 10.4 -51 9.35 -50.7
M 0.05 -50
L 1.2 -51.15
Q -0.85 -52.75 -1.55 -56.5 -1.55 -59.05 -0.35 -60
L -30 -60 -28.5 -58.5 -26.95 -59.95
Q -19.75 -58.85 -19.5 -55.5 -19.55 -53.95 -20.5 -52.5 -21.95 -50.5 -24.5 -50.5 -27 -50.5 -28.25 -51.85
L -30.05 -50 -25 -45.05 -30.05 -40.1 -30.05 -40 -25 -35.05 -30.05 -30 -25 -25.05 -30.05 -20.1 -30.05 -20 -25 -15.05 -30.05 -10.1 -30.05 -10 19.5 -10
Q 15.45 -12.1 15.45 -15.35 15.45 -20.5 20.45 -20.5 24.8 -20.5 27.75 -17.8
L 29.9 -19.95 29.9 -20.15 24.95 -25.05 29.9 -29.95 27.4 -32.55 24.95 -35.05 29.9 -40.15 24.95 -45.05 29.9 -49.95 29.9 -50.05 27.15 -52.85 26 -50.25
Q 23.55 -45.5 20.45 -45.5 14.35 -45.5 15.75 -53.5
L 15.95 -53.85
Q 15.45 -53.55 14.95 -54.95
L 14.95 -15 15 -15 14.95 -14.95 14.95 -15 10.05 -20 5.15 -15 5.1 -14.95 4.95 -14.95 4.9 -15 0.05 -20 -4.95 -15 -5 -14.95 -5.05 -15 -9.65 -19.7
Q -11.2 -17.6 -13.25 -16.65
L -14.85 -15 -14.9 -14.95 -15 -14.95 -15.05 -15 -15 -15 -15 -16.1 -16.5 -16
Q -21.1 -16 -21.5 -21 -21.5 -24.9 -16.85 -28.5
L -20.55 -33.5
Q -23.5 -37.55 -23.5 -39.35 -23.5 -40.95 -22.65 -42.35 -21.3 -44.5 -18.5 -44.5 -16.7 -44.5 -14.95 -43.25
L -14.9 -55 -9.95 -50 -5 -55 0.05 -50 Z"/>

<path fill="#8B5741" stroke="none" d="
M -9.65 -19.7
L -9.95 -20 -13.25 -16.65
Q -11.2 -17.6 -9.65 -19.7
M -14.95 -43.25
Q -16.7 -44.5 -18.5 -44.5 -21.3 -44.5 -22.65 -42.35 -23.5 -40.95 -23.5 -39.35 -23.5 -37.55 -20.55 -33.5
L -16.85 -28.5
Q -21.5 -24.9 -21.5 -21 -21.1 -16 -16.5 -16
L -15 -16.1 -14.95 -43.25
M -28.45 -58.5
L -25 -55.05 -28.25 -51.85
Q -27 -50.5 -24.5 -50.5 -21.95 -50.5 -20.5 -52.5 -19.55 -53.95 -19.5 -55.5 -19.75 -58.85 -26.95 -59.95
L -28.5 -58.5 -28.45 -58.5
M 15.45 -15.35
Q 15.45 -12.1 19.5 -10
L 29.9 -10 29.9 -10.15 24.95 -15.05 27.75 -17.8
Q 24.8 -20.5 20.45 -20.5 15.45 -20.5 15.45 -15.35
M 1.2 -51.15
L 4.95 -55 5.1 -55 9.3 -50.75 9.35 -50.7
Q 10.4 -51 11.5 -51.45
L 14.95 -54.95
Q 15.45 -53.55 15.95 -53.85
L 15.75 -53.5
Q 14.35 -45.5 20.45 -45.5 23.55 -45.5 26 -50.25
L 27.15 -52.85 24.95 -55.05 27.75 -57.85 26.8 -60 -0.35 -60
Q -1.55 -59.05 -1.55 -56.5 -0.85 -52.75 1.2 -51.15 Z"/>
</g>

<path id="Layer0_0_1_STROKES" stroke="#000000" stroke-width="0.7" stroke-linejoin="round" stroke-linecap="round" fill="none" d="
M 8 -58
L 29.6 -70 17.4 -58
M 5.4 -58
L 4.1 -58.35 0.1 -58.75 -4 -58.35 -5.3 -58
M 4.1 -58.35
L -0.3 -69.65 -4 -58.35
M -18.85 -58
L -30.1 -69.7
Q -20.15 -63.9 -10.3 -58"/>

<path id="Layer0_1_1_STROKES" stroke="#000000" stroke-width="0.7" stroke-linejoin="round" stroke-linecap="round" fill="none" d="
M 8 -12
L 29.6 0 17.4 -12
M 5.4 -12
L 4.1 -11.65 -0.3 -0.35 -4 -11.65 -5.3 -12
M 4.1 -11.65
L 0.1 -11.25 -4 -11.65
M -18.85 -12
L -30.1 -0.3
Q -20.15 -6.1 -10.3 -12"/>

<path id="Layer0_2_1_STROKES" stroke="#000000" stroke-width="1" stroke-linejoin="round" stroke-linecap="round" fill="none" d="
M -14.95 -43.25
L -14.9 -55 -9.95 -50 -5 -55 0.05 -50 1.2 -51.15
M -0.35 -60
L -30 -60 -28.5 -58.5
M -28.25 -51.85
L -30.05 -50 -25 -45.05 -30.05 -40.1 -30.05 -40 -25 -35.05 -30.05 -30 -25 -25.05 -30.05 -20.1 -30.05 -20 -25 -15.05 -30.05 -10.1 -30.05 -10 19.5 -10
M 27.75 -17.8
L 29.9 -19.95 29.9 -20.15 24.95 -25.05
M 29.9 -49.95
L 29.9 -50.05 27.15 -52.85
M 14.95 -54.95
L 14.95 -15 15 -15 14.95 -14.95 14.95 -15 10.05 -20 5.15 -15 5.1 -14.95 4.95 -14.95 4.9 -15 0.05 -20 -4.95 -15 -5 -14.95 -5.05 -15 -9.65 -19.7
M -13.25 -16.65
L -14.85 -15 -14.9 -14.95 -15 -14.95 -15.05 -15 -15 -15 -15 -16.1 -14.95 -43.25
M 1.2 -51.15
L 4.95 -55 5.1 -55 9.325 -50.725
M 11.5 -51.45
L 14.95 -54.95
M 9.35 -50.7
L 10.05 -50 11.5 -51.45
M 27.75 -57.85
L 29.9 -60 26.8 -60
M 27.75 -57.85
L 24.95 -55.05 27.15 -52.85
M 29.9 -50.05
L 29.95 -50 29.9 -49.95
M 29.9 -40.15
L 29.95 -40.1 29.95 -40 29.9 -39.95 29.9 -40.15 Z
M 29.9 -30.05
L 29.95 -30 29.9 -29.95 29.9 -30.05 Z
M 4.9 -15
L 5.15 -15
M 29.9 -20.15
L 29.95 -20.1 29.95 -20 29.9 -19.95
M 27.75 -17.8
L 24.95 -15.05 29.9 -10.15 29.9 -10 19.5 -10
M -5.05 -15
L -4.95 -15
M -13.25 -16.65
L -9.95 -20 -9.65 -19.7
M -15 -15
L -14.85 -15
M 26.8 -60
L -0.35 -60"/>

<path id="Layer0_2_2_STROKES" stroke="#000000" stroke-width="1" stroke-linejoin="round" stroke-linecap="square" fill="none" d="
M 24.95 -25.05
L 29.9 -29.95 27.425 -32.55 24.95 -35.05 29.9 -40.15 24.95 -45.05 29.9 -49.95
M -28.25 -51.85
L -25 -55.05 -28.45 -58.5"/>
</defs>

<g transform="matrix( 1, 0, 0, 1, 0,0) ">
<use xlink:href="#Layer0_0_FILL"/>

<use xlink:href="#Layer0_0_1_STROKES"/>
</g>

<g transform="matrix( 1, 0, 0, 1, 0,0) ">
<use xlink:href="#Layer0_1_FILL"/>

<use xlink:href="#Layer0_1_1_STROKES"/>
</g>

<g transform="matrix( 1, 0, 0, 1, 0,0) ">
<use xlink:href="#Layer0_2_FILL"/>

<use xlink:href="#Layer0_2_1_STROKES"/>

<use xlink:href="#Layer0_2_2_STROKES"/>
</g>
</svg>
