
<svg xmlns="http://www.w3.org/2000/svg" version="1.1" xmlns:xlink="http://www.w3.org/1999/xlink" preserveAspectRatio="none" x="0px" y="0px" width="45.5px" height="45.5px" viewBox="-22.75 -45.25 45.5 45.5">
<defs>
<g id="Symbol_489_0_Layer1_0_FILL">
<path fill="#9933CC" stroke="none" d="
M 15 -6.1
L 15 -23.9
Q 15 -30 8.9 -30
L -8.9 -30
Q -15 -30 -15 -23.9
L -15 -6.1
Q -15 0 -8.9 0
L 8.9 0
Q 15 0 15 -6.1 Z"/>
</g>

<g id="Symbol_489_0_Layer0_0_FILL">
<path fill="#FFFFFF" stroke="none" d="
M 6.3 -13.25
Q 3.85 -15.55 2.25 -15.55
L 0.25 -14.7 -2.05 -14.4
Q -6.35 -14.4 -8.1 -13.25 -8.75 -12.6 -9.45 -10.6
L -7.25 -5.2 -7.1 -5.15 -6.2 -9.95
Q -5.8 -12.55 -4.95 -13.9 -3.55 -10.85 -2.15 -6.35 -1.65 -6.6 -1.55 -8.5
L -1.05 -11.65 0 -13.7 2 -8 2.75 -4.7 2.8 -4.7 3.5 -7.8
Q 3.8 -9.45 4.3 -10.1
L 5.6 -12.55 7.25 -4.4 7.35 -4.3
Q 8 -4.55 8.65 -6.7
L 9.55 -8.35 8.65 -6.7
Q 8 -4.55 7.35 -4.3
L 7.25 -4.4 5.6 -12.55 4.3 -10.1
Q 3.8 -9.45 3.5 -7.8
L 2.8 -4.7 2.75 -4.7 2 -8 0 -13.7 -1.05 -11.65 -1.55 -8.5
Q -1.65 -6.6 -2.15 -6.35 -3.55 -10.85 -4.95 -13.9 -5.8 -12.55 -6.2 -9.95
L -7.1 -5.15 -7.25 -5.2 -9.45 -10.6 -9.5 -10.5 -10.25 -7.7
Q -11 -5.6 -11.3 -3.25
L -1.55 -5.9
Q 0.65 -3.55 4.3 -3.55
L 8.15 -4.05
Q 9.35 -4.05 9.65 -3.65
L 11.9 -3.65 11.9 -4.2 11.25 -6.6
Q 11.05 -7.5 10.25 -8.35
L 6.3 -13.25 Z"/>
</g>

<path id="Symbol_489_0_Layer1_0_1_STROKES" stroke="#000000" stroke-width="1" stroke-linejoin="round" stroke-linecap="round" fill="none" d="
M 8.9 -30
L -8.9 -30
Q -15 -30 -15 -23.9
L -15 -6.1
Q -15 0 -8.9 0
L 8.9 0
Q 15 0 15 -6.1
L 15 -23.9
Q 15 -30 8.9 -30 Z"/>

<path id="Symbol_489_0_Layer0_0_1_STROKES" stroke="#000000" stroke-width="1" stroke-linejoin="round" stroke-linecap="round" fill="none" d="
M -9.45 -10.6
L -9.5 -10.5 -10.25 -7.7
Q -11 -5.6 -11.3 -3.25
L -1.55 -5.9
Q 0.65 -3.55 4.3 -3.55
L 8.15 -4.05
Q 9.35 -4.05 9.65 -3.65
L 11.9 -3.65 11.9 -4.2 11.25 -6.6
Q 11.05 -7.5 10.25 -8.35
L 6.3 -13.25
Q 3.85 -15.55 2.25 -15.55
L 0.25 -14.7 -2.05 -14.4
Q -6.35 -14.4 -8.1 -13.25 -8.75 -12.6 -9.45 -10.6
L -7.25 -5.2 -7.1 -5.15 -6.2 -9.95
Q -5.8 -12.55 -4.95 -13.9 -3.55 -10.85 -2.15 -6.35 -1.65 -6.6 -1.55 -8.5
L -1.05 -11.65 0 -13.7 2 -8 2.75 -4.7 2.8 -4.7 3.5 -7.8
Q 3.8 -9.45 4.3 -10.1
L 5.6 -12.55 7.25 -4.4 7.35 -4.3
Q 8 -4.55 8.65 -6.7
L 9.55 -8.35
M 6.75 -22.8
L 6.3 -19.15
M 3.8 -22.65
L 9.1 -25.95
M -6.05 -22.9
L -6.2 -17.75
M -9.35 -26.1
L -3.45 -23.3 -1.8 -22.3"/>
</defs>

<g transform="matrix( 1.466583251953125, 0, 0, 1.466583251953125, 0,-0.5) ">
<g transform="matrix( 1, 0, 0, 1, 0,0) ">
<use xlink:href="#Symbol_489_0_Layer1_0_FILL"/>

<use xlink:href="#Symbol_489_0_Layer1_0_1_STROKES"/>
</g>

<g transform="matrix( 1, 0, 0, 1, 0,0) ">
<use xlink:href="#Symbol_489_0_Layer0_0_FILL"/>

<use xlink:href="#Symbol_489_0_Layer0_0_1_STROKES"/>
</g>
</g>
</svg>
