
<svg xmlns="http://www.w3.org/2000/svg" version="1.1" xmlns:xlink="http://www.w3.org/1999/xlink" preserveAspectRatio="none" x="0px" y="0px" width="56.7px" height="56.7px" viewBox="-28.25 -53.3 56.7 56.7">
<defs>
<g id="Layer0_0_FILL">
<path fill="#999999" stroke="none" d="
M 24.6 -39.2
L 20.55 -36.85 17.25 -41.35 7.4 -52.4 6.2 -47.8
Q 3.4 -48.55 0.7 -48.65
L -14.1 -49.5 -11.7 -45.45
Q -14.2 -44 -16.2 -42.15
L -27.3 -32.3 -22.7 -31.1
Q -23.45 -28.35 -23.55 -25.6
L -24.4 -10.8 -20.3 -13.2 -17 -8.65 -15.75 -7.4 -15.8 -7.3 -7.25 2.4 -6 -2.2
Q -3.15 -1.45 -0.35 -1.35
L 14.3 -0.5 11.9 -4.55
Q 14.4 -6 16.35 -7.85
L 27.45 -17.7 22.9 -18.9
Q 23.65 -21.65 23.75 -24.4
L 23.75 -25.6 23.8 -25.6 24.6 -39.2
M 6.7 -41.9
L 5 -43.65
Q 9.7 -42.65 13.7 -39.9 10.55 -40.85 7.35 -40.65
L 8.6 -39.05
Q 3.6 -42 -1.85 -43.75 2.45 -43.65 6.7 -41.9
M 1.3 -29.55
Q 3.2 -29.05 4.15 -27.35 5.1 -25.65 4.6 -23.75 4.1 -21.85 2.45 -20.9 0.75 -19.9 -1.15 -20.4 -3.05 -20.9 -4 -22.6 -4.95 -24.3 -4.45 -26.2 -3.95 -28.1 -2.25 -29.1 -0.6 -30.05 1.3 -29.55
M 8.25 -14.35
Q 8.9 -17.7 8.5 -21.05
L 7.1 -19.7
Q 9.55 -25.15 10.8 -31 11 -26.45 9.6 -21.85
L 11.15 -23.8
Q 10.55 -18.75 8.25 -14.35
M -11 -28.25
L -10 -26
Q -10.2 -30.8 -8.75 -35.15 -9.1 -29.15 -8.05 -23.25
L -9.15 -24.95
Q -10.4 -21.8 -10.6 -18.4 -11.75 -23.25 -11 -28.25
M -5.5 -8.15
L -3.1 -8.65
Q -7.65 -9.5 -11.25 -11.9 -5.8 -10.25 0 -9.95
L -1.9 -9.25
Q 0.65 -7.3 3.8 -6.35 -1 -6.3 -5.5 -8.15 Z"/>

<path fill="#CCCCCC" stroke="none" d="
M -3.1 -8.65
L -5.5 -8.15
Q -1 -6.3 3.8 -6.35 0.65 -7.3 -1.9 -9.25
L 0 -9.95
Q -5.8 -10.25 -11.25 -11.9 -7.65 -9.5 -3.1 -8.65
M -10 -26
L -11 -28.25
Q -11.75 -23.25 -10.6 -18.4 -10.4 -21.8 -9.15 -24.95
L -8.05 -23.25
Q -9.1 -29.15 -8.75 -35.15 -10.2 -30.8 -10 -26
M 8.5 -21.05
Q 8.9 -17.7 8.25 -14.35 10.55 -18.75 11.15 -23.8
L 9.6 -21.85
Q 11 -26.45 10.8 -31 9.55 -25.15 7.1 -19.7
L 8.5 -21.05
M 5 -43.65
L 6.7 -41.9
Q 2.45 -43.65 -1.85 -43.75 3.6 -42 8.6 -39.05
L 7.35 -40.65
Q 10.55 -40.85 13.7 -39.9 9.7 -42.65 5 -43.65 Z"/>

<path fill="#808080" stroke="none" d="
M 4.15 -27.35
Q 3.2 -29.05 1.3 -29.55 -0.6 -30.05 -2.25 -29.1 -3.95 -28.1 -4.45 -26.2 -4.95 -24.3 -4 -22.6 -3.05 -20.9 -1.15 -20.4 0.75 -19.9 2.45 -20.9 4.1 -21.85 4.6 -23.75 5.1 -25.65 4.15 -27.35
M 0.7 -27.3
Q 1.65 -27.05 2.15 -26.2 2.65 -25.35 2.4 -24.4 2.15 -23.45 1.35 -22.95 0.45 -22.45 -0.45 -22.75 -1.45 -22.95 -1.95 -23.8 -2.45 -24.65 -2.15 -25.65 -1.95 -26.55 -1.05 -27.05 -0.25 -27.55 0.7 -27.3 Z"/>
</g>

<path id="Layer0_0_1_STROKES" stroke="#666666" stroke-width="1" stroke-linejoin="round" stroke-linecap="round" fill="none" d="
M -23.55 -25.6
Q -23.45 -28.35 -22.7 -31.1
L -27.3 -32.3 -16.2 -42.15
Q -14.2 -44 -11.7 -45.45
L -14.1 -49.5 0.7 -48.65
Q 3.4 -48.55 6.2 -47.8
L 7.4 -52.4 17.25 -41.35 20.55 -36.85 24.6 -39.2 23.8 -25.6 23.75 -25.6 23.75 -24.4
Q 23.65 -21.65 22.9 -18.9
L 27.45 -17.7 16.35 -7.85
Q 14.4 -6 11.9 -4.55
L 14.3 -0.5 -0.35 -1.35
Q -3.15 -1.45 -6 -2.2
L -7.25 2.4 -15.8 -7.3 -15.75 -7.4 -17 -8.65 -20.3 -13.2 -24.4 -10.8 -23.55 -25.6 Z
M -2.25 -29.1
Q -0.6 -30.05 1.3 -29.55 3.2 -29.05 4.15 -27.35 5.1 -25.65 4.6 -23.75 4.1 -21.85 2.45 -20.9 0.75 -19.9 -1.15 -20.4 -3.05 -20.9 -4 -22.6 -4.95 -24.3 -4.45 -26.2 -3.95 -28.1 -2.25 -29.1 Z
M -2.15 -25.65
Q -1.95 -26.55 -1.05 -27.05 -0.25 -27.55 0.7 -27.3 1.65 -27.05 2.15 -26.2 2.65 -25.35 2.4 -24.4 2.15 -23.45 1.35 -22.95 0.45 -22.45 -0.45 -22.75 -1.45 -22.95 -1.95 -23.8 -2.45 -24.65 -2.15 -25.65 Z"/>
</defs>

<g transform="matrix( 1, 0, 0, 1, 0,0) ">
<use xlink:href="#Layer0_0_FILL"/>

<use xlink:href="#Layer0_0_1_STROKES"/>
</g>
</svg>
