
<svg xmlns="http://www.w3.org/2000/svg" version="1.1" xmlns:xlink="http://www.w3.org/1999/xlink" preserveAspectRatio="none" x="0px" y="0px" width="43.85px" height="44.55px" viewBox="-21.15 -44.3 43.85 44.55">
<defs>
<g id="Layer0_0_FILL">
<path fill="#333399" stroke="none" d="
M 1.9 -13.35
L 15.75 -5.8 9.7 -20.35 21.2 -31.2 5.45 -30 -1.35 -44.3 -5 -28.95 -20.75 -26.9 -7.25 -18.6 -10.2 -3.1 1.9 -13.35
M 2.65 -20.85
Q 2 -20.25 1.1 -20.25 0.25 -20.3 -0.35 -20.95 -0.95 -21.65 -0.95 -22.5 -0.85 -23.4 -0.2 -24 0.5 -24.6 1.3 -24.55 2.25 -24.5 2.85 -23.8 3.45 -23.15 3.35 -22.3 3.35 -21.45 2.65 -20.85 Z"/>

<path fill="#000000" stroke="none" d="
M 1.1 -20.25
Q 2 -20.25 2.65 -20.85 3.35 -21.45 3.35 -22.3 3.45 -23.15 2.85 -23.8 2.25 -24.5 1.3 -24.55 0.5 -24.6 -0.2 -24 -0.85 -23.4 -0.95 -22.5 -0.95 -21.65 -0.35 -20.95 0.25 -20.3 1.1 -20.25 Z"/>
</g>
</defs>

<g transform="matrix( 1, 0, 0, 1, 0,0) ">
<use xlink:href="#Layer0_0_FILL"/>
</g>
</svg>
