
<svg xmlns="http://www.w3.org/2000/svg" version="1.1" xmlns:xlink="http://www.w3.org/1999/xlink" preserveAspectRatio="none" x="0px" y="0px" width="56.7px" height="56.7px" viewBox="-28.25 -53.3 56.7 56.7">
<defs>
<g id="Layer0_0_FILL">
<path fill="#999999" stroke="none" d="
M 26.45 -35.45
L 22.05 -33.7
Q 20.95 -36.35 19.45 -38.6
L 11.3 -50.95 9.45 -46.65
Q 6.8 -47.8 4.15 -48.3
L -10.35 -51.25 -8.6 -46.9
Q -11.3 -45.8 -13.5 -44.25
L -25.9 -36.15 -21.55 -34.3 -23.2 -28.9 -23.45 -27.15 -23.6 -27.15 -26.2 -14.45 -21.8 -16.2
Q -20.75 -13.5 -19.15 -11.2
L -11.1 1.05 -9.25 -3.25
Q -6.6 -2.1 -3.95 -1.65
L 10.6 1.35 8.85 -3
Q 11.5 -4.1 13.75 -5.6
L 14.7 -6.35 14.75 -6.25 26.1 -13.75 21.8 -15.6 23.45 -20.9 26.45 -35.45
M 17.55 -29.75
L 17.95 -32.15
Q 20 -27.75 20.15 -22.95 19.05 -26.05 17 -28.45
L 16.45 -26.55
Q 15.85 -32.35 13.95 -37.7 16.5 -34.2 17.55 -29.75
M 1.95 -29.3
Q 3.7 -28.55 4.45 -26.7 5.2 -24.9 4.45 -23.1 3.7 -21.3 1.85 -20.6 0 -19.85 -1.75 -20.6 -3.55 -21.35 -4.3 -23.25 -5 -25.05 -4.25 -26.85 -3.5 -28.65 -1.7 -29.35 0.15 -30.05 1.95 -29.3
M 2 -15.85
L 0 -16.2
Q 5.9 -17.45 11.3 -19.95 7.8 -17.05 3.25 -15.4
L 5.7 -15.35
Q 1.3 -12.8 -3.55 -12.05 -0.5 -13.5 2 -15.85
M -3.95 -35.8
L -5.15 -33.65
Q -1.4 -36.65 2.95 -38.15 -2.05 -34.8 -6.15 -30.5
L -5.45 -32.3
Q -8.7 -31.5 -11.6 -29.55 -8.4 -33.4 -3.95 -35.8
M -16.75 -19.35
L -14.95 -17.75
Q -16.9 -21.9 -17.2 -26.25 -15.25 -20.9 -12.05 -16
L -13.7 -17.15
Q -13.75 -13.95 -12.65 -10.85 -15.6 -14.7 -16.75 -19.35 Z"/>

<path fill="#CCCCCC" stroke="none" d="
M -14.95 -17.75
L -16.75 -19.35
Q -15.6 -14.7 -12.65 -10.85 -13.75 -13.95 -13.7 -17.15
L -12.05 -16
Q -15.25 -20.9 -17.2 -26.25 -16.9 -21.9 -14.95 -17.75
M -5.15 -33.65
L -3.95 -35.8
Q -8.4 -33.4 -11.6 -29.55 -8.7 -31.5 -5.45 -32.3
L -6.15 -30.5
Q -2.05 -34.8 2.95 -38.15 -1.4 -36.65 -5.15 -33.65
M 0 -16.2
L 2 -15.85
Q -0.5 -13.5 -3.55 -12.05 1.3 -12.8 5.7 -15.35
L 3.25 -15.4
Q 7.8 -17.05 11.3 -19.95 5.9 -17.45 0 -16.2
M 17.95 -32.15
L 17.55 -29.75
Q 16.5 -34.2 13.95 -37.7 15.85 -32.35 16.45 -26.55
L 17 -28.45
Q 19.05 -26.05 20.15 -22.95 20 -27.75 17.95 -32.15 Z"/>

<path fill="#808080" stroke="none" d="
M 4.45 -26.7
Q 3.7 -28.55 1.95 -29.3 0.15 -30.05 -1.7 -29.35 -3.5 -28.65 -4.25 -26.85 -5 -25.05 -4.3 -23.25 -3.55 -21.35 -1.75 -20.6 0 -19.85 1.85 -20.6 3.7 -21.3 4.45 -23.1 5.2 -24.9 4.45 -26.7
M 1.1 -27.1
Q 1.95 -26.7 2.3 -25.85 2.65 -24.9 2.3 -24 1.85 -23.1 1 -22.8 0.05 -22.4 -0.8 -22.8 -1.75 -23.2 -2.05 -24.1 -2.45 -25 -2.05 -25.9 -1.65 -26.8 -0.75 -27.15 0.15 -27.5 1.1 -27.1 Z"/>
</g>

<path id="Layer0_0_1_STROKES" stroke="#666666" stroke-width="1" stroke-linejoin="round" stroke-linecap="round" fill="none" d="
M -13.5 -44.25
Q -11.3 -45.8 -8.6 -46.9
L -10.35 -51.25 4.15 -48.3
Q 6.8 -47.8 9.45 -46.65
L 11.3 -50.95 19.45 -38.6
Q 20.95 -36.35 22.05 -33.7
L 26.45 -35.45 23.45 -20.9 21.8 -15.6 26.1 -13.75 14.75 -6.25 14.7 -6.35 13.75 -5.6
Q 11.5 -4.1 8.85 -3
L 10.6 1.35 -3.95 -1.65
Q -6.6 -2.1 -9.25 -3.25
L -11.1 1.05 -19.15 -11.2
Q -20.75 -13.5 -21.8 -16.2
L -26.2 -14.45 -23.6 -27.15 -23.45 -27.15 -23.2 -28.9 -21.55 -34.3 -25.9 -36.15 -13.5 -44.25 Z
M 1.95 -29.3
Q 3.7 -28.55 4.45 -26.7 5.2 -24.9 4.45 -23.1 3.7 -21.3 1.85 -20.6 0 -19.85 -1.75 -20.6 -3.55 -21.35 -4.3 -23.25 -5 -25.05 -4.25 -26.85 -3.5 -28.65 -1.7 -29.35 0.15 -30.05 1.95 -29.3 Z
M -0.75 -27.15
Q 0.15 -27.5 1.1 -27.1 1.95 -26.7 2.3 -25.85 2.65 -24.9 2.3 -24 1.85 -23.1 1 -22.8 0.05 -22.4 -0.8 -22.8 -1.75 -23.2 -2.05 -24.1 -2.45 -25 -2.05 -25.9 -1.65 -26.8 -0.75 -27.15 Z"/>
</defs>

<g transform="matrix( 1, 0, 0, 1, 0,0) ">
<use xlink:href="#Layer0_0_FILL"/>

<use xlink:href="#Layer0_0_1_STROKES"/>
</g>
</svg>
