
<svg xmlns="http://www.w3.org/2000/svg" version="1.1" xmlns:xlink="http://www.w3.org/1999/xlink" preserveAspectRatio="none" x="0px" y="0px" width="56.7px" height="56.7px" viewBox="-28.25 -53.3 56.7 56.7">
<defs>
<g id="Layer0_0_FILL">
<path fill="#999999" stroke="none" d="
M 23.65 -27.1
Q 23.4 -29.95 22.55 -32.55
L 18.3 -46.7 15.25 -43.1 10.55 -46.2 8.95 -46.95 9 -47.05 -2.35 -53.15 -1.95 -48.5
Q -4.9 -48.25 -7.5 -47.35
L -21.55 -43.15 -17.95 -40.1
Q -19.8 -37.9 -21.05 -35.55
L -28.05 -22.45 -23.35 -22.9
Q -23.1 -20.05 -22.3 -17.4
L -21.85 -16.3 -21.9 -16.3 -18 -3.3 -15 -6.9 -10.35 -3.8 2.65 3.2 2.25 -1.5
Q 5.1 -1.75 7.75 -2.55
L 21.85 -6.85 18.25 -9.9
Q 20.1 -12.1 21.35 -14.45
L 28.35 -27.5 23.65 -27.1
M 3.2 -28.65
Q 4.7 -27.4 4.85 -25.4 5 -23.5 3.75 -22 2.5 -20.55 0.6 -20.3 -1.35 -20.15 -2.85 -21.4 -4.35 -22.65 -4.5 -24.6 -4.7 -26.55 -3.45 -28 -2.2 -29.5 -0.25 -29.7 1.7 -29.9 3.2 -28.65
M 7.25 -29.4
L 8.8 -28.2
Q 8.9 -31.6 7.95 -34.9 10.65 -30.75 11.65 -25.75
L 10 -27.55
Q 11.8 -23.1 11.95 -18.55 10.2 -24.25 7.25 -29.4
M -9.7 -41.2
Q -5.25 -42.9 -0.4 -42.75
L -2.45 -41.45
Q 2.1 -42.2 6.3 -41.25 0.65 -40.9 -4.9 -39.15
L -3.4 -40.45
Q -6.45 -41.45 -9.7 -41.2
M -9.1 -25.85
L -8.2 -27.55
Q -8.7 -21.6 -7.85 -15.7 -9.6 -19.9 -9.85 -24.7
L -10.65 -22.4
Q -11.8 -27.25 -11.1 -32.2 -10.6 -28.8 -9.1 -25.85
M -1.3 -7.8
L -2.95 -8.9
Q 2.7 -7.8 8.45 -8.1 4.35 -6.7 -0.25 -6.9
L 1.95 -5.85
Q -2.85 -5.15 -7.5 -6.35 -4.25 -6.5 -1.3 -7.8 Z"/>

<path fill="#CCCCCC" stroke="none" d="
M -2.95 -8.9
L -1.3 -7.8
Q -4.25 -6.5 -7.5 -6.35 -2.85 -5.15 1.95 -5.85
L -0.25 -6.9
Q 4.35 -6.7 8.45 -8.1 2.7 -7.8 -2.95 -8.9
M -8.2 -27.55
L -9.1 -25.85
Q -10.6 -28.8 -11.1 -32.2 -11.8 -27.25 -10.65 -22.4
L -9.85 -24.7
Q -9.6 -19.9 -7.85 -15.7 -8.7 -21.6 -8.2 -27.55
M -0.4 -42.75
Q -5.25 -42.9 -9.7 -41.2 -6.45 -41.45 -3.4 -40.45
L -4.9 -39.15
Q 0.65 -40.9 6.3 -41.25 2.1 -42.2 -2.45 -41.45
L -0.4 -42.75
M 8.8 -28.2
L 7.25 -29.4
Q 10.2 -24.25 11.95 -18.55 11.8 -23.1 10 -27.55
L 11.65 -25.75
Q 10.65 -30.75 7.95 -34.9 8.9 -31.6 8.8 -28.2 Z"/>

<path fill="#808080" stroke="none" d="
M 4.85 -25.4
Q 4.7 -27.4 3.2 -28.65 1.7 -29.9 -0.25 -29.7 -2.2 -29.5 -3.45 -28 -4.7 -26.55 -4.5 -24.6 -4.35 -22.65 -2.85 -21.4 -1.35 -20.15 0.6 -20.3 2.5 -20.55 3.75 -22 5 -23.5 4.85 -25.4
M 1.65 -26.8
Q 2.4 -26.2 2.5 -25.2 2.55 -24.25 1.9 -23.45 1.3 -22.75 0.4 -22.65 -0.6 -22.6 -1.4 -23.15 -2.1 -23.8 -2.15 -24.75 -2.3 -25.75 -1.7 -26.45 -1.05 -27.25 -0.05 -27.3 0.9 -27.4 1.65 -26.8 Z"/>
</g>

<path id="Layer0_0_1_STROKES" stroke="#666666" stroke-width="1" stroke-linejoin="round" stroke-linecap="round" fill="none" d="
M 22.55 -32.55
Q 23.4 -29.95 23.65 -27.1
L 28.35 -27.5 21.35 -14.45
Q 20.1 -12.1 18.25 -9.9
L 21.85 -6.85 7.75 -2.55
Q 5.1 -1.75 2.25 -1.5
L 2.65 3.2 -10.35 -3.8 -15 -6.9 -18 -3.3 -21.9 -16.3 -21.85 -16.3 -22.3 -17.4
Q -23.1 -20.05 -23.35 -22.9
L -28.05 -22.45 -21.05 -35.55
Q -19.8 -37.9 -17.95 -40.1
L -21.55 -43.15 -7.5 -47.35
Q -4.9 -48.25 -1.95 -48.5
L -2.35 -53.15 9 -47.05 8.95 -46.95 10.55 -46.2 15.25 -43.1 18.3 -46.7 22.55 -32.55 Z
M 2.5 -25.2
Q 2.55 -24.25 1.9 -23.45 1.3 -22.75 0.4 -22.65 -0.6 -22.6 -1.4 -23.15 -2.1 -23.8 -2.15 -24.75 -2.3 -25.75 -1.7 -26.45 -1.05 -27.25 -0.05 -27.3 0.9 -27.4 1.65 -26.8 2.4 -26.2 2.5 -25.2 Z
M 3.75 -22
Q 2.5 -20.55 0.6 -20.3 -1.35 -20.15 -2.85 -21.4 -4.35 -22.65 -4.5 -24.6 -4.7 -26.55 -3.45 -28 -2.2 -29.5 -0.25 -29.7 1.7 -29.9 3.2 -28.65 4.7 -27.4 4.85 -25.4 5 -23.5 3.75 -22 Z"/>
</defs>

<g transform="matrix( 1, 0, 0, 1, 0,0) ">
<use xlink:href="#Layer0_0_FILL"/>

<use xlink:href="#Layer0_0_1_STROKES"/>
</g>
</svg>
