
<svg xmlns="http://www.w3.org/2000/svg" version="1.1" xmlns:xlink="http://www.w3.org/1999/xlink" preserveAspectRatio="none" x="0px" y="0px" width="56.7px" height="56.7px" viewBox="-28.25 -53.3 56.7 56.7">
<defs>
<g id="Layer0_0_FILL">
<path fill="#999999" stroke="none" d="
M 28.4 -25.75
L 23.65 -25.65
Q 23.6 -28.6 22.9 -31.25
L 19.55 -45.55 16.3 -42.1
Q 14.2 -44.05 11.9 -45.45
L -0.7 -53.25 -0.6 -48.55
Q -3.45 -48.45 -6.05 -47.8
L -7.25 -47.45 -7.25 -47.5 -20.5 -44.4 -17.05 -41.15 -20.45 -36.75 -28.2 -24.15 -23.5 -24.25
Q -23.4 -21.4 -22.75 -18.8
L -19.35 -4.35 -16.1 -7.8
Q -14 -5.85 -11.7 -4.4
L 0.9 3.35 0.75 -1.35
Q 3.65 -1.45 6.25 -2.15
L 20.7 -5.5 17.25 -8.75 20.65 -13.3 21.45 -14.8 21.6 -14.8 28.4 -25.75
M 0 -29.6
Q 1.95 -29.7 3.35 -28.4 4.75 -27.05 4.85 -25.05 4.9 -23.1 3.55 -21.7 2.2 -20.3 0.25 -20.25 -1.75 -20.15 -3.15 -21.5 -4.55 -22.8 -4.6 -24.8 -4.65 -26.8 -3.3 -28.2 -1.95 -29.6 0 -29.6
M 7.95 -35.8
Q 4.55 -35.5 1.5 -34.15
L 3.2 -33.15
Q -2.75 -33.95 -8.7 -33.45 -4.4 -35 0.4 -34.95
L -1.85 -35.9
Q 3.1 -36.75 7.95 -35.8
M 14.55 -29.15
L 15.7 -27.6
Q 16.9 -30.5 16.9 -33.8 18.3 -29.2 17.85 -24.45
L 16.65 -26.55
Q 17.15 -21.95 15.9 -17.8 15.9 -23.5 14.55 -29.15
M 2.8 -16.1
Q 6.15 -15.8 9.5 -16.6 5.2 -14.1 0.15 -13.45
L 2.05 -15
Q -2.55 -13.45 -7.05 -13.55 -1.3 -15 4.05 -17.6
L 2.8 -16.1
M -18.1 -33.7
Q -18.05 -30.45 -16.95 -27.45
L -15.8 -29.05
Q -17.2 -23.4 -17.25 -17.7 -18.45 -21.85 -17.95 -26.45
L -19.15 -24.3
Q -19.55 -29.1 -18.1 -33.7 Z"/>

<path fill="#CCCCCC" stroke="none" d="
M -16.95 -27.45
Q -18.05 -30.45 -18.1 -33.7 -19.55 -29.1 -19.15 -24.3
L -17.95 -26.45
Q -18.45 -21.85 -17.25 -17.7 -17.2 -23.4 -15.8 -29.05
L -16.95 -27.45
M 9.5 -16.6
Q 6.15 -15.8 2.8 -16.1
L 4.05 -17.6
Q -1.3 -15 -7.05 -13.55 -2.55 -13.45 2.05 -15
L 0.15 -13.45
Q 5.2 -14.1 9.5 -16.6
M 15.7 -27.6
L 14.55 -29.15
Q 15.9 -23.5 15.9 -17.8 17.15 -21.95 16.65 -26.55
L 17.85 -24.45
Q 18.3 -29.2 16.9 -33.8 16.9 -30.5 15.7 -27.6
M 1.5 -34.15
Q 4.55 -35.5 7.95 -35.8 3.1 -36.75 -1.85 -35.9
L 0.4 -34.95
Q -4.4 -35 -8.7 -33.45 -2.75 -33.95 3.2 -33.15
L 1.5 -34.15 Z"/>

<path fill="#808080" stroke="none" d="
M 3.35 -28.4
Q 1.95 -29.7 0 -29.6 -1.95 -29.6 -3.3 -28.2 -4.65 -26.8 -4.6 -24.8 -4.55 -22.8 -3.15 -21.5 -1.75 -20.15 0.25 -20.25 2.2 -20.3 3.55 -21.7 4.9 -23.1 4.85 -25.05 4.75 -27.05 3.35 -28.4
M 0.05 -27.3
Q 1 -27.35 1.65 -26.7 2.4 -26 2.45 -25.05 2.45 -24.05 1.8 -23.35 1.15 -22.65 0.15 -22.65 -0.8 -22.6 -1.55 -23.3 -2.2 -23.95 -2.25 -24.9 -2.25 -25.85 -1.65 -26.6 -0.95 -27.25 0.05 -27.3 Z"/>
</g>

<path id="Layer0_0_1_STROKES" stroke="#666666" stroke-width="1" stroke-linejoin="round" stroke-linecap="round" fill="none" d="
M 6.25 -2.15
Q 3.65 -1.45 0.75 -1.35
L 0.9 3.35 -11.7 -4.4
Q -14 -5.85 -16.1 -7.8
L -19.35 -4.35 -22.75 -18.8
Q -23.4 -21.4 -23.5 -24.25
L -28.2 -24.15 -20.45 -36.75 -17.05 -41.15 -20.5 -44.4 -7.25 -47.5 -7.25 -47.45 -6.05 -47.8
Q -3.45 -48.45 -0.6 -48.55
L -0.7 -53.25 11.9 -45.45
Q 14.2 -44.05 16.3 -42.1
L 19.55 -45.55 22.9 -31.25
Q 23.6 -28.6 23.65 -25.65
L 28.4 -25.75 21.6 -14.8 21.45 -14.8 20.65 -13.3 17.25 -8.75 20.7 -5.5 6.25 -2.15 Z
M -3.15 -21.5
Q -4.55 -22.8 -4.6 -24.8 -4.65 -26.8 -3.3 -28.2 -1.95 -29.6 0 -29.6 1.95 -29.7 3.35 -28.4 4.75 -27.05 4.85 -25.05 4.9 -23.1 3.55 -21.7 2.2 -20.3 0.25 -20.25 -1.75 -20.15 -3.15 -21.5 Z
M 0.15 -22.65
Q -0.8 -22.6 -1.55 -23.3 -2.2 -23.95 -2.25 -24.9 -2.25 -25.85 -1.65 -26.6 -0.95 -27.25 0.05 -27.3 1 -27.35 1.65 -26.7 2.4 -26 2.45 -25.05 2.45 -24.05 1.8 -23.35 1.15 -22.65 0.15 -22.65 Z"/>
</defs>

<g transform="matrix( 1, 0, 0, 1, 0,0) ">
<use xlink:href="#Layer0_0_FILL"/>

<use xlink:href="#Layer0_0_1_STROKES"/>
</g>
</svg>
