
<svg xmlns="http://www.w3.org/2000/svg" version="1.1" xmlns:xlink="http://www.w3.org/1999/xlink" preserveAspectRatio="none" x="0px" y="0px" width="56.7px" height="56.7px" viewBox="-28.25 -53.3 56.7 56.7">
<defs>
<g id="Layer0_0_FILL">
<path fill="#999999" stroke="none" d="
M 23 -30.95
L 23.1 -31 21.25 -43.8 17.7 -40.7
Q 15.75 -42.9 13.5 -44.45
L 1.7 -53.25 1.45 -48.55
Q -1.4 -48.7 -4.1 -48.2
L -18.75 -46.1 -15.65 -42.6
Q -17.75 -40.65 -19.35 -38.45
L -20 -37.45 -20.05 -37.5 -28.2 -26.55 -23.5 -26.3 -23.2 -20.75 -21.05 -6.05 -17.55 -9.2
Q -15.6 -7.1 -13.4 -5.5
L -1.5 3.35 -1.25 -1.35
Q 1.6 -1.2 4.3 -1.65
L 18.95 -3.75 15.8 -7.3
Q 17.95 -9.25 19.55 -11.45
L 28.4 -23.35 23.65 -23.6 23.35 -29.25 23 -30.95
M 0.35 -29.65
Q 2.3 -29.55 3.65 -28.1 4.95 -26.65 4.85 -24.7 4.75 -22.75 3.25 -21.4 1.8 -20.15 -0.15 -20.25 -2.05 -20.35 -3.4 -21.8 -4.7 -23.25 -4.6 -25.2 -4.5 -27.15 -3 -28.5 -1.55 -29.75 0.35 -29.65
M 14.05 -36
L 11.75 -36.9
Q 15.1 -33.65 16.8 -29.65 13.15 -34.05 8.45 -37.45
L 10.35 -37
Q 9.35 -40 7.25 -42.55 11.35 -39.95 14.05 -36
M 7.9 -21.9
L 7.85 -19.9
Q 10.65 -21.85 12.65 -24.6 10.95 -19.9 7.55 -16.15
L 8 -18.6
Q 5.5 -14.45 1.95 -11.6 5.5 -16.4 7.9 -21.9
M -4.75 -32.85
L -2.85 -33.2
Q -7.9 -30 -12.15 -25.8 -9.8 -29.75 -6.1 -32.85
L -8.45 -32.05
Q -5.2 -35.95 -0.85 -38.3 -3.3 -35.9 -4.75 -32.85
M -14.55 -15.85
L -14.7 -17.8
Q -12.15 -12.6 -8.55 -8.2 -12.1 -10.6 -14.7 -14.45
L -14.25 -12.05
Q -17.65 -15.5 -19.45 -19.95 -17.4 -17.45 -14.55 -15.85 Z"/>

<path fill="#CCCCCC" stroke="none" d="
M -14.7 -17.8
L -14.55 -15.85
Q -17.4 -17.45 -19.45 -19.95 -17.65 -15.5 -14.25 -12.05
L -14.7 -14.45
Q -12.1 -10.6 -8.55 -8.2 -12.15 -12.6 -14.7 -17.8
M -2.85 -33.2
L -4.75 -32.85
Q -3.3 -35.9 -0.85 -38.3 -5.2 -35.95 -8.45 -32.05
L -6.1 -32.85
Q -9.8 -29.75 -12.15 -25.8 -7.9 -30 -2.85 -33.2
M 7.85 -19.9
L 7.9 -21.9
Q 5.5 -16.4 1.95 -11.6 5.5 -14.45 8 -18.6
L 7.55 -16.15
Q 10.95 -19.9 12.65 -24.6 10.65 -21.85 7.85 -19.9
M 11.75 -36.9
L 14.05 -36
Q 11.35 -39.95 7.25 -42.55 9.35 -40 10.35 -37
L 8.45 -37.45
Q 13.15 -34.05 16.8 -29.65 15.1 -33.65 11.75 -36.9 Z"/>

<path fill="#808080" stroke="none" d="
M 3.65 -28.1
Q 2.3 -29.55 0.35 -29.65 -1.55 -29.75 -3 -28.5 -4.5 -27.15 -4.6 -25.2 -4.7 -23.25 -3.4 -21.8 -2.05 -20.35 -0.15 -20.25 1.8 -20.15 3.25 -21.4 4.75 -22.75 4.85 -24.7 4.95 -26.65 3.65 -28.1
M 0.2 -27.3
Q 1.2 -27.25 1.85 -26.5 2.5 -25.75 2.45 -24.8 2.4 -23.85 1.65 -23.2 0.9 -22.55 -0.1 -22.6 -1.05 -22.65 -1.65 -23.4 -2.3 -24.15 -2.3 -25.1 -2.2 -26.05 -1.45 -26.7 -0.75 -27.35 0.2 -27.3 Z"/>
</g>

<path id="Layer0_0_1_STROKES" stroke="#666666" stroke-width="1" stroke-linejoin="round" stroke-linecap="round" fill="none" d="
M 19.55 -11.45
Q 17.95 -9.25 15.8 -7.3
L 18.95 -3.75 4.3 -1.65
Q 1.6 -1.2 -1.25 -1.35
L -1.5 3.35 -13.4 -5.5
Q -15.6 -7.1 -17.55 -9.2
L -21.05 -6.05 -23.2 -20.75 -23.5 -26.3 -28.2 -26.55 -20.05 -37.5 -20 -37.45 -19.35 -38.45
Q -17.75 -40.65 -15.65 -42.6
L -18.75 -46.1 -4.1 -48.2
Q -1.4 -48.7 1.45 -48.55
L 1.7 -53.25 13.5 -44.45
Q 15.75 -42.9 17.7 -40.7
L 21.25 -43.8 23.1 -31 23 -30.95 23.35 -29.25 23.65 -23.6 28.4 -23.35 19.55 -11.45 Z
M 1.65 -23.2
Q 0.9 -22.55 -0.1 -22.6 -1.05 -22.65 -1.65 -23.4 -2.3 -24.15 -2.3 -25.1 -2.2 -26.05 -1.45 -26.7 -0.75 -27.35 0.2 -27.3 1.2 -27.25 1.85 -26.5 2.5 -25.75 2.45 -24.8 2.4 -23.85 1.65 -23.2 Z
M -0.15 -20.25
Q -2.05 -20.35 -3.4 -21.8 -4.7 -23.25 -4.6 -25.2 -4.5 -27.15 -3 -28.5 -1.55 -29.75 0.35 -29.65 2.3 -29.55 3.65 -28.1 4.95 -26.65 4.85 -24.7 4.75 -22.75 3.25 -21.4 1.8 -20.15 -0.15 -20.25 Z"/>
</defs>

<g transform="matrix( 1, 0, 0, 1, 0,0) ">
<use xlink:href="#Layer0_0_FILL"/>

<use xlink:href="#Layer0_0_1_STROKES"/>
</g>
</svg>
