
<svg xmlns="http://www.w3.org/2000/svg" version="1.1" xmlns:xlink="http://www.w3.org/1999/xlink" preserveAspectRatio="none" x="0px" y="0px" width="56.7px" height="56.7px" viewBox="-28.25 -53.3 56.7 56.7">
<defs>
<g id="Layer0_0_FILL">
<path fill="#999999" stroke="none" d="
M 26.7 -34.7
L 22.3 -33.1
Q 21.3 -35.8 19.8 -38
L 12.05 -50.65 10.05 -46.4
Q 7.45 -47.6 4.8 -48.2
L 3.65 -48.45 3.6 -48.45 -9.6 -51.6 -8 -47.2 -13 -44.75 -25.6 -36.95 -21.35 -35
Q -22.5 -32.35 -23.1 -29.7
L -26.5 -15.3 -22.1 -16.9
Q -21.1 -14.2 -19.65 -11.95
L -11.9 0.65 -9.9 -3.65
Q -7.25 -2.4 -4.6 -1.8
L 9.8 1.6 8.2 -2.85 13.25 -5.3 14.7 -6.35 14.75 -6.25 25.75 -13.05 21.5 -15.05
Q 22.75 -17.75 23.3 -20.45
L 26.7 -34.7
M 4.85 -33.8
L 3.25 -35.65
Q 8.1 -34.2 11.95 -31.15 8.8 -32.4 5.45 -32.6
L 6.55 -30.95
Q 1.6 -34.35 -3.95 -36.55 0.55 -36 4.85 -33.8
M 2.1 -29.25
Q 3.9 -28.4 4.55 -26.6 5.2 -24.75 4.4 -23 3.55 -21.2 1.75 -20.55 -0.05 -19.9 -1.9 -20.7 -3.7 -21.55 -4.35 -23.4 -5 -25.2 -4.2 -26.95 -3.3 -28.75 -1.5 -29.4 0.3 -30.05 2.1 -29.25
M 15.75 -16.55
L 15.65 -19
Q 14 -14.7 11 -11.55 13.6 -16.6 14.9 -22.3
L 15.25 -20.35
Q 17.6 -22.5 19.1 -25.4 18.35 -20.65 15.75 -16.55
M -15.4 -34.45
L -17.4 -33.05
Q -15.65 -37.5 -12.2 -40.95 -13.65 -38.05 -14.05 -34.85
L -12.25 -35.8
Q -16.05 -31.4 -18.65 -26.3 -17.9 -30.55 -15.4 -34.45
M -2.6 -15.2
Q -7.4 -15.9 -11.4 -18 -5.6 -16.7 0.35 -16.65
L -1.45 -15.9
Q 1.4 -14.1 4.75 -13.3 -0.25 -13.05 -5 -14.65
L -2.6 -15.2 Z"/>

<path fill="#CCCCCC" stroke="none" d="
M -11.4 -18
Q -7.4 -15.9 -2.6 -15.2
L -5 -14.65
Q -0.25 -13.05 4.75 -13.3 1.4 -14.1 -1.45 -15.9
L 0.35 -16.65
Q -5.6 -16.7 -11.4 -18
M -17.4 -33.05
L -15.4 -34.45
Q -17.9 -30.55 -18.65 -26.3 -16.05 -31.4 -12.25 -35.8
L -14.05 -34.85
Q -13.65 -38.05 -12.2 -40.95 -15.65 -37.5 -17.4 -33.05
M 15.65 -19
L 15.75 -16.55
Q 18.35 -20.65 19.1 -25.4 17.6 -22.5 15.25 -20.35
L 14.9 -22.3
Q 13.6 -16.6 11 -11.55 14 -14.7 15.65 -19
M 3.25 -35.65
L 4.85 -33.8
Q 0.55 -36 -3.95 -36.55 1.6 -34.35 6.55 -30.95
L 5.45 -32.6
Q 8.8 -32.4 11.95 -31.15 8.1 -34.2 3.25 -35.65 Z"/>

<path fill="#808080" stroke="none" d="
M 4.55 -26.6
Q 3.9 -28.4 2.1 -29.25 0.3 -30.05 -1.5 -29.4 -3.3 -28.75 -4.2 -26.95 -5 -25.2 -4.35 -23.4 -3.7 -21.55 -1.9 -20.7 -0.05 -19.9 1.75 -20.55 3.55 -21.2 4.4 -23 5.2 -24.75 4.55 -26.6
M 1.1 -27.1
Q 1.95 -26.75 2.3 -25.85 2.65 -24.9 2.2 -24 1.8 -23.15 0.9 -22.8 0 -22.45 -0.9 -22.9 -1.75 -23.3 -2.1 -24.25 -2.45 -25.15 -2 -26 -1.6 -26.85 -0.7 -27.25 0.2 -27.55 1.1 -27.1 Z"/>
</g>

<path id="Layer0_0_1_STROKES" stroke="#666666" stroke-width="1" stroke-linejoin="round" stroke-linecap="round" fill="none" d="
M -4.6 -1.8
Q -7.25 -2.4 -9.9 -3.65
L -11.9 0.65 -19.65 -11.95
Q -21.1 -14.2 -22.1 -16.9
L -26.5 -15.3 -23.1 -29.7
Q -22.5 -32.35 -21.35 -35
L -25.6 -36.95 -13 -44.75 -8 -47.2 -9.6 -51.6 3.6 -48.45 3.65 -48.45 4.8 -48.2
Q 7.45 -47.6 10.05 -46.4
L 12.05 -50.65 19.8 -38
Q 21.3 -35.8 22.3 -33.1
L 26.7 -34.7 23.3 -20.45
Q 22.75 -17.75 21.5 -15.05
L 25.75 -13.05 14.75 -6.25 14.7 -6.35 13.25 -5.3 8.2 -2.85 9.8 1.6 -4.6 -1.8 Z
M -4.35 -23.4
Q -5 -25.2 -4.2 -26.95 -3.3 -28.75 -1.5 -29.4 0.3 -30.05 2.1 -29.25 3.9 -28.4 4.55 -26.6 5.2 -24.75 4.4 -23 3.55 -21.2 1.75 -20.55 -0.05 -19.9 -1.9 -20.7 -3.7 -21.55 -4.35 -23.4 Z
M -0.9 -22.9
Q -1.75 -23.3 -2.1 -24.25 -2.45 -25.15 -2 -26 -1.6 -26.85 -0.7 -27.25 0.2 -27.55 1.1 -27.1 1.95 -26.75 2.3 -25.85 2.65 -24.9 2.2 -24 1.8 -23.15 0.9 -22.8 0 -22.45 -0.9 -22.9 Z"/>
</defs>

<g transform="matrix( 1, 0, 0, 1, 0,0) ">
<use xlink:href="#Layer0_0_FILL"/>

<use xlink:href="#Layer0_0_1_STROKES"/>
</g>
</svg>
