
<svg xmlns="http://www.w3.org/2000/svg" version="1.1" xmlns:xlink="http://www.w3.org/1999/xlink" preserveAspectRatio="none" x="0px" y="0px" width="56.7px" height="56.7px" viewBox="-28.25 -53.3 56.7 56.7">
<defs>
<g id="Layer0_0_FILL">
<path fill="#999999" stroke="none" d="
M 23.6 -27.05
L 22.8 -41.85 19 -39 15.2 -43.15 13.8 -44.2 13.85 -44.35 4.2 -52.95 3.55 -48.3
Q 0.6 -48.7 -2.15 -48.5
L -16.8 -47.65 -13.95 -43.9
Q -16.25 -42.2 -18 -40.1
L -27.9 -29.05 -23.25 -28.4
Q -23.65 -25.55 -23.45 -22.8
L -23.3 -21.65 -23.35 -21.65 -22.6 -8.05 -18.85 -10.85 -15.05 -6.8 -4 3.1 -3.35 -1.6
Q -0.5 -1.2 2.25 -1.4
L 17 -2.25 14.15 -6
Q 16.45 -7.7 18.2 -9.8
L 28.1 -20.8 23.45 -21.5
Q 23.85 -24.35 23.6 -27.05
M 1.4 -41.55
Q 6.05 -41.2 9.85 -39.3 4.25 -40.25 -1.55 -39.9
L 0.25 -40.8
Q -2.5 -42.45 -5.65 -43.05 -0.9 -43.65 3.7 -42.3
L 1.4 -41.55
M 0.8 -29.6
Q 2.75 -29.35 3.9 -27.8 5.05 -26.25 4.8 -24.3 4.45 -22.3 2.9 -21.15 1.35 -20 -0.55 -20.35 -2.55 -20.6 -3.7 -22.15 -4.85 -23.7 -4.55 -25.65 -4.25 -27.6 -2.7 -28.75 -1.15 -29.9 0.8 -29.6
M 9.3 -26.1
Q 10.2 -29.3 10 -32.75 11.65 -28.1 11.5 -23
L 10.25 -25.1
Q 10.95 -20.35 10.1 -15.9 9.7 -21.85 8 -27.6
L 9.3 -26.1
M -8.7 -27.9
L -7.4 -29.45
Q -9.25 -23.75 -9.8 -17.8 -10.55 -22.3 -9.75 -27
L -11 -24.9
Q -11 -30 -9.2 -34.6 -9.5 -31.15 -8.7 -27.9
M -5.35 -8.6
L -6.65 -10.05
Q -1.4 -7.65 4.2 -6.6 -0.05 -6.15 -4.5 -7.45
L -2.65 -5.9
Q -7.4 -6.3 -11.7 -8.6 -8.5 -8 -5.35 -8.6 Z"/>

<path fill="#CCCCCC" stroke="none" d="
M -6.65 -10.05
L -5.35 -8.6
Q -8.5 -8 -11.7 -8.6 -7.4 -6.3 -2.65 -5.9
L -4.5 -7.45
Q -0.05 -6.15 4.2 -6.6 -1.4 -7.65 -6.65 -10.05
M -7.4 -29.45
L -8.7 -27.9
Q -9.5 -31.15 -9.2 -34.6 -11 -30 -11 -24.9
L -9.75 -27
Q -10.55 -22.3 -9.8 -17.8 -9.25 -23.75 -7.4 -29.45
M 10 -32.75
Q 10.2 -29.3 9.3 -26.1
L 8 -27.6
Q 9.7 -21.85 10.1 -15.9 10.95 -20.35 10.25 -25.1
L 11.5 -23
Q 11.65 -28.1 10 -32.75
M 9.85 -39.3
Q 6.05 -41.2 1.4 -41.55
L 3.7 -42.3
Q -0.9 -43.65 -5.65 -43.05 -2.5 -42.45 0.25 -40.8
L -1.55 -39.9
Q 4.25 -40.25 9.85 -39.3 Z"/>

<path fill="#808080" stroke="none" d="
M 3.9 -27.8
Q 2.75 -29.35 0.8 -29.6 -1.15 -29.9 -2.7 -28.75 -4.25 -27.6 -4.55 -25.65 -4.85 -23.7 -3.7 -22.15 -2.55 -20.6 -0.55 -20.35 1.35 -20 2.9 -21.15 4.45 -22.3 4.8 -24.3 5.05 -26.25 3.9 -27.8
M 0.4 -27.3
Q 1.4 -27.15 2 -26.35 2.6 -25.55 2.4 -24.6 2.25 -23.6 1.45 -23.05 0.7 -22.45 -0.25 -22.6 -1.2 -22.75 -1.8 -23.5 -2.4 -24.35 -2.25 -25.3 -2.1 -26.25 -1.35 -26.85 -0.55 -27.4 0.4 -27.3 Z"/>
</g>

<path id="Layer0_0_1_STROKES" stroke="#666666" stroke-width="1" stroke-linejoin="round" stroke-linecap="round" fill="none" d="
M 23.6 -27.05
Q 23.85 -24.35 23.45 -21.5
L 28.1 -20.8 18.2 -9.8
Q 16.45 -7.7 14.15 -6
L 17 -2.25 2.25 -1.4
Q -0.5 -1.2 -3.35 -1.6
L -4 3.1 -15.05 -6.8 -18.85 -10.85 -22.6 -8.05 -23.35 -21.65 -23.3 -21.65 -23.45 -22.8
Q -23.65 -25.55 -23.25 -28.4
L -27.9 -29.05 -18 -40.1
Q -16.25 -42.2 -13.95 -43.9
L -16.8 -47.65 -2.15 -48.5
Q 0.6 -48.7 3.55 -48.3
L 4.2 -52.95 13.85 -44.35 13.8 -44.2 15.2 -43.15 19 -39 22.8 -41.85 23.6 -27.05 Z
M 2.4 -24.6
Q 2.25 -23.6 1.45 -23.05 0.7 -22.45 -0.25 -22.6 -1.2 -22.75 -1.8 -23.5 -2.4 -24.35 -2.25 -25.3 -2.1 -26.25 -1.35 -26.85 -0.55 -27.4 0.4 -27.3 1.4 -27.15 2 -26.35 2.6 -25.55 2.4 -24.6 Z
M 2.9 -21.15
Q 1.35 -20 -0.55 -20.35 -2.55 -20.6 -3.7 -22.15 -4.85 -23.7 -4.55 -25.65 -4.25 -27.6 -2.7 -28.75 -1.15 -29.9 0.8 -29.6 2.75 -29.35 3.9 -27.8 5.05 -26.25 4.8 -24.3 4.45 -22.3 2.9 -21.15 Z"/>
</defs>

<g transform="matrix( 1, 0, 0, 1, 0,0) ">
<use xlink:href="#Layer0_0_FILL"/>

<use xlink:href="#Layer0_0_1_STROKES"/>
</g>
</svg>
