
<svg xmlns="http://www.w3.org/2000/svg" version="1.1" xmlns:xlink="http://www.w3.org/1999/xlink" preserveAspectRatio="none" x="0px" y="0px" width="43.85px" height="44.55px" viewBox="-21.15 -44.3 43.85 44.55">
<defs>
<g id="Layer0_0_FILL">
<path fill="#333399" stroke="none" d="
M 22.7 -20.4
L 8.2 -26.75 8.9 -42.6 -1.55 -30.75 -16.4 -36.4 -8.4 -22.65 -18.3 -10.3 -2.8 -13.7 5.9 -0.45 7.4 -16.2 22.7 -20.4
M 2.7 -20.95
Q 2.25 -20.15 1.4 -19.95 0.5 -19.7 -0.25 -20.2 -0.95 -20.6 -1.2 -21.5 -1.4 -22.35 -0.95 -23.15 -0.5 -23.85 0.4 -24.1 1.25 -24.3 2 -23.9 2.75 -23.4 2.95 -22.55 3.2 -21.65 2.7 -20.95 Z"/>

<path fill="#000000" stroke="none" d="
M 1.4 -19.95
Q 2.25 -20.15 2.7 -20.95 3.2 -21.65 2.95 -22.55 2.75 -23.4 2 -23.9 1.25 -24.3 0.4 -24.1 -0.5 -23.85 -0.95 -23.15 -1.4 -22.35 -1.2 -21.5 -0.95 -20.6 -0.25 -20.2 0.5 -19.7 1.4 -19.95 Z"/>
</g>
</defs>

<g transform="matrix( 1, 0, 0, 1, 0,0) ">
<use xlink:href="#Layer0_0_FILL"/>
</g>
</svg>
