
<svg xmlns="http://www.w3.org/2000/svg" version="1.1" xmlns:xlink="http://www.w3.org/1999/xlink" preserveAspectRatio="none" x="0px" y="0px" width="56.7px" height="56.7px" viewBox="-28.25 -53.3 56.7 56.7">
<defs>
<g id="Layer0_0_FILL">
<path fill="#999999" stroke="none" d="
M 28 -29.9
L 23.35 -29.05 21.75 -34.5 21 -36.05 21.1 -36.15 16.35 -48.15 13.65 -44.3
Q 11.25 -46 8.65 -47.05
L -4.85 -52.85 -4 -48.2
Q -6.85 -47.7 -9.3 -46.65
L -23.15 -41.15 -19.25 -38.5
Q -20.9 -36.15 -21.95 -33.65
L -22.35 -32.5 -22.4 -32.55 -27.8 -20 -23.15 -20.85 -21.65 -15.5 -16.15 -1.7 -13.45 -5.6
Q -11.1 -3.95 -8.6 -2.9
L 5.05 2.95 4.2 -1.7
Q 7.05 -2.2 9.5 -3.25
L 23.35 -8.7 19.45 -11.4
Q 21.1 -13.75 22.1 -16.25
L 28 -29.9
M 7.35 -39.05
Q 5.65 -41.75 3 -43.7 7.6 -42.15 11.15 -38.9
L 8.7 -39.2
Q 12.7 -36.8 15.25 -33.4 10.7 -36.75 5.35 -39.1
L 7.35 -39.05
M 2.8 -28.85
Q 4.45 -27.7 4.8 -25.8 5.15 -23.9 4 -22.25 2.85 -20.65 0.9 -20.3 -1 -19.95 -2.55 -21.05 -4.2 -22.25 -4.55 -24.15 -4.9 -26.05 -3.75 -27.65 -2.6 -29.25 -0.7 -29.6 1.25 -29.95 2.8 -28.85
M 9.3 -20.55
Q 7.75 -16 4.95 -12.4 7.35 -17.85 8.35 -23.75
L 8.8 -21.85
Q 11.1 -24.35 12.45 -27.5 11.8 -22.55 9.4 -18.1
L 9.3 -20.55
M -7.75 -31.2
L -9.85 -29.9
Q -7.55 -34.4 -3.9 -37.7 -5.7 -34.8 -6.5 -31.55
L -4.65 -32.3
Q -8.85 -28.05 -12 -22.95 -10.65 -27.35 -7.75 -31.2
M -12.1 -12.75
L -12.65 -14.65
Q -9 -10.15 -4.45 -6.65 -8.5 -8.2 -11.9 -11.35
L -10.85 -9.15
Q -15 -11.65 -17.8 -15.6 -15.2 -13.65 -12.1 -12.75 Z"/>

<path fill="#CCCCCC" stroke="none" d="
M -12.65 -14.65
L -12.1 -12.75
Q -15.2 -13.65 -17.8 -15.6 -15 -11.65 -10.85 -9.15
L -11.9 -11.35
Q -8.5 -8.2 -4.45 -6.65 -9 -10.15 -12.65 -14.65
M -9.85 -29.9
L -7.75 -31.2
Q -10.65 -27.35 -12 -22.95 -8.85 -28.05 -4.65 -32.3
L -6.5 -31.55
Q -5.7 -34.8 -3.9 -37.7 -7.55 -34.4 -9.85 -29.9
M 4.95 -12.4
Q 7.75 -16 9.3 -20.55
L 9.4 -18.1
Q 11.8 -22.55 12.45 -27.5 11.1 -24.35 8.8 -21.85
L 8.35 -23.75
Q 7.35 -17.85 4.95 -12.4
M 3 -43.7
Q 5.65 -41.75 7.35 -39.05
L 5.35 -39.1
Q 10.7 -36.75 15.25 -33.4 12.7 -36.8 8.7 -39.2
L 11.15 -38.9
Q 7.6 -42.15 3 -43.7 Z"/>

<path fill="#808080" stroke="none" d="
M 4.8 -25.8
Q 4.45 -27.7 2.8 -28.85 1.25 -29.95 -0.7 -29.6 -2.6 -29.25 -3.75 -27.65 -4.9 -26.05 -4.55 -24.15 -4.2 -22.25 -2.55 -21.05 -1 -19.95 0.9 -20.3 2.85 -20.65 4 -22.25 5.15 -23.9 4.8 -25.8
M 1.4 -26.9
Q 2.25 -26.3 2.4 -25.35 2.55 -24.4 2 -23.6 1.45 -22.75 0.45 -22.6 -0.5 -22.45 -1.25 -23 -2.05 -23.6 -2.25 -24.55 -2.35 -25.5 -1.85 -26.3 -1.3 -27.15 -0.35 -27.3 0.65 -27.45 1.4 -26.9 Z"/>
</g>

<path id="Layer0_0_1_STROKES" stroke="#666666" stroke-width="1" stroke-linejoin="round" stroke-linecap="round" fill="none" d="
M 22.1 -16.25
Q 21.1 -13.75 19.45 -11.4
L 23.35 -8.7 9.5 -3.25
Q 7.05 -2.2 4.2 -1.7
L 5.05 2.95 -8.6 -2.9
Q -11.1 -3.95 -13.45 -5.6
L -16.15 -1.7 -21.65 -15.5 -23.15 -20.85 -27.8 -20 -22.4 -32.55 -22.35 -32.5 -21.95 -33.65
Q -20.9 -36.15 -19.25 -38.5
L -23.15 -41.15 -9.3 -46.65
Q -6.85 -47.7 -4 -48.2
L -4.85 -52.85 8.65 -47.05
Q 11.25 -46 13.65 -44.3
L 16.35 -48.15 21.1 -36.15 21 -36.05 21.75 -34.5 23.35 -29.05 28 -29.9 22.1 -16.25 Z
M 2 -23.6
Q 1.45 -22.75 0.45 -22.6 -0.5 -22.45 -1.25 -23 -2.05 -23.6 -2.25 -24.55 -2.35 -25.5 -1.85 -26.3 -1.3 -27.15 -0.35 -27.3 0.65 -27.45 1.4 -26.9 2.25 -26.3 2.4 -25.35 2.55 -24.4 2 -23.6 Z
M 0.9 -20.3
Q -1 -19.95 -2.55 -21.05 -4.2 -22.25 -4.55 -24.15 -4.9 -26.05 -3.75 -27.65 -2.6 -29.25 -0.7 -29.6 1.25 -29.95 2.8 -28.85 4.45 -27.7 4.8 -25.8 5.15 -23.9 4 -22.25 2.85 -20.65 0.9 -20.3 Z"/>
</defs>

<g transform="matrix( 1, 0, 0, 1, 0,0) ">
<use xlink:href="#Layer0_0_FILL"/>

<use xlink:href="#Layer0_0_1_STROKES"/>
</g>
</svg>
