
<svg xmlns="http://www.w3.org/2000/svg" version="1.1" xmlns:xlink="http://www.w3.org/1999/xlink" preserveAspectRatio="none" x="0px" y="0px" width="56.7px" height="56.7px" viewBox="-28.25 -53.3 56.7 56.7">
<defs>
<g id="Layer0_0_FILL">
<path fill="#999999" stroke="none" d="
M 22.55 -32.4
L 22.5 -32.4
Q 21.6 -35.15 20.2 -37.4
L 12.8 -50.3 10.7 -46.05 5.4 -48 3.65 -48.3 3.7 -48.5 -8.8 -51.8 -7.3 -47.3
Q -10.1 -46.4 -12.45 -44.95
L -25.2 -37.6 -20.95 -35.5
Q -22.25 -32.95 -22.85 -30.35
L -26.7 -16 -22.2 -17.45
Q -21.3 -14.75 -19.95 -12.45
L -19.3 -11.4 -19.3 -11.45 -12.5 0.4 -10.4 -3.85 -5.2 -1.9 9.1 1.9 7.6 -2.55
Q 10.35 -3.5 12.65 -4.9
L 25.5 -12.3 21.25 -14.4
Q 22.55 -16.95 23.2 -19.55
L 27 -33.9 22.55 -32.4
M 2.25 -29.2
Q 4 -28.35 4.65 -26.45 5.2 -24.6 4.35 -22.85 3.5 -21.15 1.65 -20.5 -0.2 -19.9 -1.95 -20.75 -3.7 -21.6 -4.35 -23.5 -4.9 -25.35 -4.05 -27.05 -3.2 -28.8 -1.35 -29.45 0.5 -30.05 2.25 -29.2
M 6.05 -30.9
L 7.85 -30.05
Q 7.2 -33.4 5.45 -36.35 9.1 -32.95 11.15 -28.35
L 9.15 -29.7
Q 11.95 -25.75 13.1 -21.35 10.1 -26.55 6.05 -30.9
M 0.85 -8.55
Q 6.65 -8.85 12.15 -10.4 8.45 -8.1 3.9 -7.25
L 6.3 -6.7
Q 1.85 -4.9 -3 -5.05 0.15 -5.95 2.7 -7.85
L 0.85 -8.55
M -13.2 -38.5
Q -9.2 -41.2 -4.45 -42.15
L -6.2 -40.35
Q -1.9 -42.1 2.45 -42.15 -3 -40.5 -8.05 -37.55
L -6.85 -39.15
Q -10.05 -39.4 -13.2 -38.5
M -5.5 -14.05
Q -8.2 -17.75 -9.55 -22.35
L -9.75 -19.9
Q -12 -24.4 -12.45 -29.35 -11.25 -26.2 -9 -23.6
L -8.55 -25.5
Q -7.65 -19.6 -5.5 -14.05 Z"/>

<path fill="#CCCCCC" stroke="none" d="
M -9.55 -22.35
Q -8.2 -17.75 -5.5 -14.05 -7.65 -19.6 -8.55 -25.5
L -9 -23.6
Q -11.25 -26.2 -12.45 -29.35 -12 -24.4 -9.75 -19.9
L -9.55 -22.35
M -4.45 -42.15
Q -9.2 -41.2 -13.2 -38.5 -10.05 -39.4 -6.85 -39.15
L -8.05 -37.55
Q -3 -40.5 2.45 -42.15 -1.9 -42.1 -6.2 -40.35
L -4.45 -42.15
M 12.15 -10.4
Q 6.65 -8.85 0.85 -8.55
L 2.7 -7.85
Q 0.15 -5.95 -3 -5.05 1.85 -4.9 6.3 -6.7
L 3.9 -7.25
Q 8.45 -8.1 12.15 -10.4
M 7.85 -30.05
L 6.05 -30.9
Q 10.1 -26.55 13.1 -21.35 11.95 -25.75 9.15 -29.7
L 11.15 -28.35
Q 9.1 -32.95 5.45 -36.35 7.2 -33.4 7.85 -30.05 Z"/>

<path fill="#808080" stroke="none" d="
M 4.65 -26.45
Q 4 -28.35 2.25 -29.2 0.5 -30.05 -1.35 -29.45 -3.2 -28.8 -4.05 -27.05 -4.9 -25.35 -4.35 -23.5 -3.7 -21.6 -1.95 -20.75 -0.2 -19.9 1.65 -20.5 3.5 -21.15 4.35 -22.85 5.2 -24.6 4.65 -26.45
M 1.2 -27.05
Q 2.05 -26.6 2.4 -25.65 2.7 -24.75 2.25 -23.85 1.8 -23 0.9 -22.7 -0.05 -22.4 -0.9 -22.8 -1.75 -23.3 -2.1 -24.2 -2.4 -25.1 -1.95 -25.95 -1.5 -26.85 -0.6 -27.15 0.35 -27.5 1.2 -27.05 Z"/>
</g>

<path id="Layer0_0_1_STROKES" stroke="#666666" stroke-width="1" stroke-linejoin="round" stroke-linecap="round" fill="none" d="
M 20.2 -37.4
Q 21.6 -35.15 22.5 -32.4
L 22.55 -32.4 27 -33.9 23.2 -19.55
Q 22.55 -16.95 21.25 -14.4
L 25.5 -12.3 12.65 -4.9
Q 10.35 -3.5 7.6 -2.55
L 9.1 1.9 -5.2 -1.9 -10.4 -3.85 -12.5 0.4 -19.3 -11.45 -19.3 -11.4 -19.95 -12.45
Q -21.3 -14.75 -22.2 -17.45
L -26.7 -16 -22.85 -30.35
Q -22.25 -32.95 -20.95 -35.5
L -25.2 -37.6 -12.45 -44.95
Q -10.1 -46.4 -7.3 -47.3
L -8.8 -51.8 3.7 -48.5 3.65 -48.3 5.4 -48 10.7 -46.05 12.8 -50.3 20.2 -37.4 Z
M 2.4 -25.65
Q 2.7 -24.75 2.25 -23.85 1.8 -23 0.9 -22.7 -0.05 -22.4 -0.9 -22.8 -1.75 -23.3 -2.1 -24.2 -2.4 -25.1 -1.95 -25.95 -1.5 -26.85 -0.6 -27.15 0.35 -27.5 1.2 -27.05 2.05 -26.6 2.4 -25.65 Z
M 4.35 -22.85
Q 3.5 -21.15 1.65 -20.5 -0.2 -19.9 -1.95 -20.75 -3.7 -21.6 -4.35 -23.5 -4.9 -25.35 -4.05 -27.05 -3.2 -28.8 -1.35 -29.45 0.5 -30.05 2.25 -29.2 4 -28.35 4.65 -26.45 5.2 -24.6 4.35 -22.85 Z"/>
</defs>

<g transform="matrix( 1, 0, 0, 1, 0,0) ">
<use xlink:href="#Layer0_0_FILL"/>

<use xlink:href="#Layer0_0_1_STROKES"/>
</g>
</svg>
