
<svg xmlns="http://www.w3.org/2000/svg" version="1.1" xmlns:xlink="http://www.w3.org/1999/xlink" preserveAspectRatio="none" x="0px" y="0px" width="43.85px" height="44.55px" viewBox="-21.15 -44.3 43.85 44.55">
<defs>
<g id="Layer0_0_FILL">
<path fill="#333399" stroke="none" d="
M 4.1 -13.95
L 19.45 -10 10 -22.65 18.55 -36.05 3.55 -31 -6.55 -43.25 -6.35 -27.5 -21.15 -21.65 -6.05 -16.9 -5.05 -1.05 4.1 -13.95
M 2.5 -24.4
Q 3.25 -23.9 3.4 -23.05 3.6 -22.2 3.1 -21.45 2.6 -20.7 1.7 -20.5 0.85 -20.35 0.1 -20.85 -0.65 -21.35 -0.85 -22.2 -0.95 -23.1 -0.45 -23.85 0.05 -24.6 0.85 -24.75 1.75 -24.9 2.5 -24.4 Z"/>

<path fill="#000000" stroke="none" d="
M 3.4 -23.05
Q 3.25 -23.9 2.5 -24.4 1.75 -24.9 0.85 -24.75 0.05 -24.6 -0.45 -23.85 -0.95 -23.1 -0.85 -22.2 -0.65 -21.35 0.1 -20.85 0.85 -20.35 1.7 -20.5 2.6 -20.7 3.1 -21.45 3.6 -22.2 3.4 -23.05 Z"/>
</g>
</defs>

<g transform="matrix( 1, 0, 0, 1, 0,0) ">
<use xlink:href="#Layer0_0_FILL"/>
</g>
</svg>
