
<svg xmlns="http://www.w3.org/2000/svg" version="1.1" xmlns:xlink="http://www.w3.org/1999/xlink" preserveAspectRatio="none" x="0px" y="0px" width="46.9px" height="46.9px" viewBox="-23.45 -44.95 46.9 46.9">
<defs>
<g id="Layer0_0_FILL">
<path fill="#B0B0B0" stroke="none" d="
M 20 -1.5
L 20 -41.5 -20 -41.5 -20 -1.5 20 -1.5 Z"/>
</g>

<g id="Layer0_2_FILL">
<path fill="#E0E0E0" stroke="none" d="
M -15.6 -17.1
Q -16.2 -19.2 -16.2 -21.55 -16.2 -23.8 -15.65 -25.85
L -21.2 -25.85 -21.2 -17.1 -15.6 -17.1
M -7.2 -7
Q -9.5 -8.15 -11.45 -10.1 -13.4 -12.05 -14.55 -14.3
L -22.95 -14.3 -22.95 1.45 -7.2 1.45 -7.2 -7
M -14.55 -28.7
Q -13.4 -31 -11.45 -32.95 -9.5 -34.9 -7.2 -36.05
L -7.2 -44.45 -22.95 -44.45 -22.95 -28.7 -14.55 -28.7
M 4.4 -0.3
L 4.4 -5.9 -0.05 -5.35 -0.75 -5.35 -4.35 -5.9 -4.35 -0.3 4.4 -0.3
M 14.5 -14.35
Q 13.35 -12.05 11.4 -10.1 9.45 -8.15 7.2 -7
L 7.2 1.4 22.95 1.4 22.95 -14.35 14.5 -14.35
M 16.15 -21.5
Q 16.15 -19.2 15.6 -17.15
L 21.2 -17.15 21.2 -25.9 15.6 -25.9
Q 16.15 -23.85 16.15 -21.5
M 4.35 -37.15
L 4.35 -42.7 -4.4 -42.7 -4.4 -37.1 -0.35 -37.7 0 -37.7 4.35 -37.15
M 22.9 -28.7
L 22.9 -44.45 7.15 -44.45 7.15 -36.05
Q 9.45 -34.9 11.4 -32.95 13.35 -31 14.5 -28.7
L 22.9 -28.7 Z"/>
</g>

<g id="Layer0_3_FILL">
<path fill="#E0E0E0" stroke="none" d="
M 9.9 -21.5
Q 9.85 -25.6 6.95 -28.5 4.05 -31.4 -0.05 -31.4
L -0.35 -31.4 -0.75 -31.35
Q -4.4 -31.15 -7.05 -28.5 -9.95 -25.6 -9.95 -21.5 -9.95 -17.4 -7.05 -14.55 -4.4 -11.85 -0.75 -11.65
L -0.35 -11.6 -0.05 -11.6
Q 4.05 -11.6 6.95 -14.55 9.85 -17.4 9.9 -21.5 Z"/>
</g>

<g id="Layer0_4_FILL">
<path fill="#FF99FF" stroke="none" d="
M 0.15 -14.05
Q 1 -16.65 3.85 -18.7 7.15 -21.2 5.4 -24.7 2.45 -27.85 0.05 -24.25
L -0.05 -24.25 -0.75 -25.15
Q -2.85 -27.4 -5.4 -24.7 -7.15 -21.2 -3.85 -18.7 -1.9 -17.3 -0.75 -15.65
L 0.15 -14.05 Z"/>
</g>

<path id="Layer0_0_1_STROKES" stroke="#666666" stroke-width="1" stroke-linejoin="round" stroke-linecap="round" fill="none" d="
M 20 -1.5
L -20 -1.5 -20 -41.5 20 -41.5 20 -1.5 Z"/>

<path id="Layer0_1_1_STROKES" stroke="#666666" stroke-width="1" stroke-linejoin="round" stroke-linecap="round" fill="none" d="
M -17.75 -21.35
L -0.25 -21.35 -0.25 -38.85
M 17.75 -21.35
L -0.25 -21.35 -0.25 -3.25"/>

<path id="Layer0_2_1_STROKES" stroke="#666666" stroke-width="1" stroke-linejoin="round" stroke-linecap="round" fill="none" d="
M 22.9 -28.7
L 14.5 -28.7
Q 13.35 -31 11.4 -32.95 9.45 -34.9 7.15 -36.05
L 7.15 -44.45 22.9 -44.45 22.9 -28.7 Z
M 0 -37.7
L -0.35 -37.7 -4.4 -37.1 -4.4 -42.7 4.35 -42.7 4.35 -37.15 0 -37.7 Z
M 16.15 -21.5
Q 16.15 -23.85 15.6 -25.9
L 21.2 -25.9 21.2 -17.15 15.6 -17.15
Q 16.15 -19.2 16.15 -21.5 Z
M 14.5 -14.35
L 22.95 -14.35 22.95 1.4 7.2 1.4 7.2 -7
Q 9.45 -8.15 11.4 -10.1 13.35 -12.05 14.5 -14.35 Z
M 4.4 -0.3
L -4.35 -0.3 -4.35 -5.9 -0.75 -5.35 -0.05 -5.35 4.4 -5.9 4.4 -0.3 Z
M -11.45 -32.95
Q -9.5 -34.9 -7.2 -36.05
L -7.2 -44.45 -22.95 -44.45 -22.95 -28.7 -14.55 -28.7
Q -13.4 -31 -11.45 -32.95 Z
M -11.45 -10.1
Q -9.5 -8.15 -7.2 -7
L -7.2 1.45 -22.95 1.45 -22.95 -14.3 -14.55 -14.3
Q -13.4 -12.05 -11.45 -10.1 Z
M -15.6 -17.1
L -21.2 -17.1 -21.2 -25.85 -15.65 -25.85
Q -16.2 -23.8 -16.2 -21.55 -16.2 -19.2 -15.6 -17.1 Z"/>

<path id="Layer0_3_1_STROKES" stroke="#666666" stroke-width="1" stroke-linejoin="round" stroke-linecap="round" fill="none" d="
M 6.95 -14.55
Q 4.05 -11.6 -0.05 -11.6
L -0.35 -11.6 -0.75 -11.65
Q -4.4 -11.85 -7.05 -14.55 -9.95 -17.4 -9.95 -21.5 -9.95 -25.6 -7.05 -28.5 -4.4 -31.15 -0.75 -31.35
L -0.35 -31.4 -0.05 -31.4
Q 4.05 -31.4 6.95 -28.5 9.85 -25.6 9.9 -21.5 9.85 -17.4 6.95 -14.55 Z"/>
</defs>

<g transform="matrix( 1, 0, 0, 1, 0,0) ">
<use xlink:href="#Layer0_0_FILL"/>

<use xlink:href="#Layer0_0_1_STROKES"/>
</g>

<g transform="matrix( 1, 0, 0, 1, 0,0) ">
<use xlink:href="#Layer0_1_1_STROKES"/>
</g>

<g transform="matrix( 1, 0, 0, 1, 0,0) ">
<use xlink:href="#Layer0_2_FILL"/>

<use xlink:href="#Layer0_2_1_STROKES"/>
</g>

<g transform="matrix( 1, 0, 0, 1, 0,0) ">
<use xlink:href="#Layer0_3_FILL"/>

<use xlink:href="#Layer0_3_1_STROKES"/>
</g>

<g transform="matrix( 1, 0, 0, 1, 0,0) ">
<use xlink:href="#Layer0_4_FILL"/>
</g>
</svg>
