
<svg xmlns="http://www.w3.org/2000/svg" version="1.1" xmlns:xlink="http://www.w3.org/1999/xlink" preserveAspectRatio="none" x="0px" y="0px" width="56.7px" height="56.7px" viewBox="-28.25 -53.3 56.7 56.7">
<defs>
<g id="Layer0_0_FILL">
<path fill="#999999" stroke="none" d="
M 21.55 -35
L 20.95 -36.1 21.05 -36.1 15.65 -48.6 13.05 -44.7 8.15 -47.25 -5.65 -52.7 -4.65 -48.05
Q -7.5 -47.5 -9.95 -46.4
L -23.55 -40.5 -19.6 -37.9
Q -21.2 -35.5 -22.15 -33
L -27.65 -19.2 -23 -20.2 -23 -20.15
Q -22.45 -17.35 -21.3 -14.9
L -15.45 -1.3 -12.85 -5.25 -7.8 -2.65 -6.15 -2.15 -6.15 -2 5.8 2.8 4.9 -1.85
Q 7.8 -2.45 10.25 -3.6
L 23.75 -9.4 19.8 -12
Q 21.4 -14.4 22.3 -16.9
L 27.8 -30.7 23.25 -29.75
Q 22.65 -32.55 21.55 -35
M 2.7 -28.9
Q 4.3 -27.85 4.7 -25.85 5.1 -23.95 4.05 -22.35 3 -20.7 1.05 -20.3 -0.9 -19.95 -2.5 -21 -4.1 -22.05 -4.55 -24 -4.9 -25.9 -3.85 -27.55 -2.8 -29.15 -0.9 -29.55 1.1 -29.95 2.7 -28.9
M 10 -26.4
L 10.5 -28.75
Q 12.25 -24.05 12.15 -19.1 11.25 -22.4 9.35 -25.2
L 8.7 -23.35
Q 8.5 -29.3 7 -35.1 9.25 -31.15 10 -26.4
M 2.65 -7.35
L 4.55 -8.9
Q 0.1 -7.7 -4.15 -8.15 1.45 -9.1 6.75 -11.45
L 5.4 -10
Q 8.5 -9.4 11.8 -9.9 7.45 -7.7 2.65 -7.35
M -1.55 -43
L -3.85 -43.8
Q 0.75 -45.05 5.55 -44.35 2.35 -43.8 -0.45 -42.2
L 1.35 -41.3
Q -4.4 -41.75 -10.1 -40.8 -6.15 -42.7 -1.55 -43
M -8.15 -20.75
Q -7.85 -17.35 -6.5 -14.25 -9.65 -18.05 -11.3 -22.9
L -9.4 -21.3
Q -11.7 -25.55 -12.35 -30.05 -9.95 -24.55 -6.45 -19.75
L -8.15 -20.75 Z"/>

<path fill="#CCCCCC" stroke="none" d="
M -6.5 -14.25
Q -7.85 -17.35 -8.15 -20.75
L -6.45 -19.75
Q -9.95 -24.55 -12.35 -30.05 -11.7 -25.55 -9.4 -21.3
L -11.3 -22.9
Q -9.65 -18.05 -6.5 -14.25
M -3.85 -43.8
L -1.55 -43
Q -6.15 -42.7 -10.1 -40.8 -4.4 -41.75 1.35 -41.3
L -0.45 -42.2
Q 2.35 -43.8 5.55 -44.35 0.75 -45.05 -3.85 -43.8
M 4.55 -8.9
L 2.65 -7.35
Q 7.45 -7.7 11.8 -9.9 8.5 -9.4 5.4 -10
L 6.75 -11.45
Q 1.45 -9.1 -4.15 -8.15 0.1 -7.7 4.55 -8.9
M 10.5 -28.75
L 10 -26.4
Q 9.25 -31.15 7 -35.1 8.5 -29.3 8.7 -23.35
L 9.35 -25.2
Q 11.25 -22.4 12.15 -19.1 12.25 -24.05 10.5 -28.75 Z"/>

<path fill="#808080" stroke="none" d="
M 4.7 -25.85
Q 4.3 -27.85 2.7 -28.9 1.1 -29.95 -0.9 -29.55 -2.8 -29.15 -3.85 -27.55 -4.9 -25.9 -4.55 -24 -4.1 -22.05 -2.5 -21 -0.9 -19.95 1.05 -20.3 3 -20.7 4.05 -22.35 5.1 -23.95 4.7 -25.85
M 1.4 -26.95
Q 2.2 -26.35 2.4 -25.45 2.6 -24.5 2.05 -23.7 1.5 -22.85 0.6 -22.7 -0.4 -22.45 -1.2 -23 -2 -23.55 -2.2 -24.5 -2.4 -25.45 -1.85 -26.3 -1.3 -27.1 -0.4 -27.25 0.6 -27.45 1.4 -26.95 Z"/>
</g>

<path id="Layer0_0_1_STROKES" stroke="#666666" stroke-width="1" stroke-linejoin="round" stroke-linecap="round" fill="none" d="
M -21.3 -14.9
Q -22.45 -17.35 -23 -20.15
L -23 -20.2 -27.65 -19.2 -22.15 -33
Q -21.2 -35.5 -19.6 -37.9
L -23.55 -40.5 -9.95 -46.4
Q -7.5 -47.5 -4.65 -48.05
L -5.65 -52.7 8.15 -47.25 13.05 -44.7 15.65 -48.6 21.05 -36.1 20.95 -36.1 21.55 -35
Q 22.65 -32.55 23.25 -29.75
L 27.8 -30.7 22.3 -16.9
Q 21.4 -14.4 19.8 -12
L 23.75 -9.4 10.25 -3.6
Q 7.8 -2.45 4.9 -1.85
L 5.8 2.8 -6.15 -2 -6.15 -2.15 -7.8 -2.65 -12.85 -5.25 -15.45 -1.3 -21.3 -14.9 Z
M -3.85 -27.55
Q -2.8 -29.15 -0.9 -29.55 1.1 -29.95 2.7 -28.9 4.3 -27.85 4.7 -25.85 5.1 -23.95 4.05 -22.35 3 -20.7 1.05 -20.3 -0.9 -19.95 -2.5 -21 -4.1 -22.05 -4.55 -24 -4.9 -25.9 -3.85 -27.55 Z
M -2.2 -24.5
Q -2.4 -25.45 -1.85 -26.3 -1.3 -27.1 -0.4 -27.25 0.6 -27.45 1.4 -26.95 2.2 -26.35 2.4 -25.45 2.6 -24.5 2.05 -23.7 1.5 -22.85 0.6 -22.7 -0.4 -22.45 -1.2 -23 -2 -23.55 -2.2 -24.5 Z"/>
</defs>

<g transform="matrix( 1, 0, 0, 1, 0,0) ">
<use xlink:href="#Layer0_0_FILL"/>

<use xlink:href="#Layer0_0_1_STROKES"/>
</g>
</svg>
