
<svg xmlns="http://www.w3.org/2000/svg" version="1.1" xmlns:xlink="http://www.w3.org/1999/xlink" preserveAspectRatio="none" x="0px" y="0px" width="56.7px" height="56.7px" viewBox="-28.25 -53.3 56.7 56.7">
<defs>
<g id="Layer0_0_FILL">
<path fill="#999999" stroke="none" d="
M 25.45 -37.65
L 21.2 -35.5
Q 19.9 -38.05 18.25 -40.2
L 9.1 -51.8 7.6 -47.35 7.6 -47.3
Q 4.85 -48.25 2.15 -48.5
L -12.6 -50.3 -10.45 -46.05 -15.25 -43 -16.5 -41.85 -16.55 -41.9 -26.75 -33.9 -22.3 -32.4
Q -23.25 -29.6 -23.5 -26.85
L -25.25 -12.25 -21 -14.4
Q -19.7 -11.85 -18 -9.7
L -8.85 1.9 -7.35 -2.55
Q -4.65 -1.65 -1.9 -1.35
L -0.75 -1.3 -0.75 -1.2 12.8 0.4 10.65 -3.8 15.35 -6.8 27 -16 22.55 -17.45
Q 23.4 -20.25 23.7 -22.95
L 25.45 -37.65
M 4.05 -35.85
L 1.7 -35
Q 6.5 -34.85 10.75 -33.15 4.85 -33.9 -1.1 -33.2
L 0.6 -34.15
Q -2.45 -35.6 -5.8 -36.05 -0.95 -36.85 4.05 -35.85
M 1.6 -29.45
Q 3.45 -28.8 4.3 -27.05 5.15 -25.35 4.6 -23.5 3.95 -21.6 2.2 -20.75 0.45 -19.9 -1.4 -20.5 -3.25 -21.15 -4.1 -22.85 -4.95 -24.6 -4.4 -26.45 -3.75 -28.35 -2 -29.2 -0.25 -30.05 1.6 -29.45
M 15.25 -16.75
L 13.65 -15.65
Q 16.9 -20.45 18.95 -25.8 18.6 -21.5 16.55 -17.35
L 18.4 -18.9
Q 17.15 -14.3 14.15 -10.5 15.3 -13.55 15.25 -16.75
M -16.05 -29.15
Q -14.85 -33.6 -12.3 -37.05 -14.25 -31.7 -14.9 -25.95
L -15.5 -27.85
Q -17.6 -25.5 -18.75 -22.4 -18.5 -27.2 -16.4 -31.55
L -16.05 -29.15
M -4.35 -16.8
L -5.6 -18.3
Q -0.3 -15.5 5.45 -13.95 0.85 -13.95 -3.6 -15.65
L -1.8 -14
Q -6.75 -14.9 -11 -17.45 -7.7 -16.6 -4.35 -16.8 Z"/>

<path fill="#CCCCCC" stroke="none" d="
M -5.6 -18.3
L -4.35 -16.8
Q -7.7 -16.6 -11 -17.45 -6.75 -14.9 -1.8 -14
L -3.6 -15.65
Q 0.85 -13.95 5.45 -13.95 -0.3 -15.5 -5.6 -18.3
M -12.3 -37.05
Q -14.85 -33.6 -16.05 -29.15
L -16.4 -31.55
Q -18.5 -27.2 -18.75 -22.4 -17.6 -25.5 -15.5 -27.85
L -14.9 -25.95
Q -14.25 -31.7 -12.3 -37.05
M 13.65 -15.65
L 15.25 -16.75
Q 15.3 -13.55 14.15 -10.5 17.15 -14.3 18.4 -18.9
L 16.55 -17.35
Q 18.6 -21.5 18.95 -25.8 16.9 -20.45 13.65 -15.65
M 1.7 -35
L 4.05 -35.85
Q -0.95 -36.85 -5.8 -36.05 -2.45 -35.6 0.6 -34.15
L -1.1 -33.2
Q 4.85 -33.9 10.75 -33.15 6.5 -34.85 1.7 -35 Z"/>

<path fill="#808080" stroke="none" d="
M 4.3 -27.05
Q 3.45 -28.8 1.6 -29.45 -0.25 -30.05 -2 -29.2 -3.75 -28.35 -4.4 -26.45 -4.95 -24.6 -4.1 -22.85 -3.25 -21.15 -1.4 -20.5 0.45 -19.9 2.2 -20.75 3.95 -21.6 4.6 -23.5 5.15 -25.35 4.3 -27.05
M 0.85 -27.15
Q 1.75 -26.85 2.2 -25.95 2.65 -25.1 2.35 -24.2 2 -23.3 1.15 -22.8 0.3 -22.4 -0.65 -22.7 -1.55 -23 -2 -23.85 -2.45 -24.75 -2.15 -25.65 -1.8 -26.6 -0.95 -27.05 -0.1 -27.5 0.85 -27.15 Z"/>
</g>

<path id="Layer0_0_1_STROKES" stroke="#666666" stroke-width="1" stroke-linejoin="round" stroke-linecap="round" fill="none" d="
M 2.15 -48.5
Q 4.85 -48.25 7.6 -47.3
L 7.6 -47.35 9.1 -51.8 18.25 -40.2
Q 19.9 -38.05 21.2 -35.5
L 25.45 -37.65 23.7 -22.95
Q 23.4 -20.25 22.55 -17.45
L 27 -16 15.35 -6.8 10.65 -3.8 12.8 0.4 -0.75 -1.2 -0.75 -1.3 -1.9 -1.35
Q -4.65 -1.65 -7.35 -2.55
L -8.85 1.9 -18 -9.7
Q -19.7 -11.85 -21 -14.4
L -25.25 -12.25 -23.5 -26.85
Q -23.25 -29.6 -22.3 -32.4
L -26.75 -33.9 -16.55 -41.9 -16.5 -41.85 -15.25 -43 -10.45 -46.05 -12.6 -50.3 2.15 -48.5 Z
M 0.85 -27.15
Q 1.75 -26.85 2.2 -25.95 2.65 -25.1 2.35 -24.2 2 -23.3 1.15 -22.8 0.3 -22.4 -0.65 -22.7 -1.55 -23 -2 -23.85 -2.45 -24.75 -2.15 -25.65 -1.8 -26.6 -0.95 -27.05 -0.1 -27.5 0.85 -27.15 Z
M 4.3 -27.05
Q 5.15 -25.35 4.6 -23.5 3.95 -21.6 2.2 -20.75 0.45 -19.9 -1.4 -20.5 -3.25 -21.15 -4.1 -22.85 -4.95 -24.6 -4.4 -26.45 -3.75 -28.35 -2 -29.2 -0.25 -30.05 1.6 -29.45 3.45 -28.8 4.3 -27.05 Z"/>
</defs>

<g transform="matrix( 1, 0, 0, 1, 0,0) ">
<use xlink:href="#Layer0_0_FILL"/>

<use xlink:href="#Layer0_0_1_STROKES"/>
</g>
</svg>
