
<svg xmlns="http://www.w3.org/2000/svg" version="1.1" xmlns:xlink="http://www.w3.org/1999/xlink" preserveAspectRatio="none" x="0px" y="0px" width="56.7px" height="56.7px" viewBox="-28.25 -53.3 56.7 56.7">
<defs>
<g id="Layer0_0_FILL">
<path fill="#999999" stroke="none" d="
M 23.65 -25.55
L 23.8 -25.55 24.9 -38.45 20.75 -36.2
Q 19.35 -38.8 17.5 -40.85
L 8.05 -52.1 6.7 -47.6
Q 3.95 -48.4 1.25 -48.55
L -13.5 -49.85 -11.3 -45.7
Q -13.8 -44.35 -15.85 -42.55
L -16.7 -41.7 -16.7 -41.8 -27.15 -33 -22.65 -31.7 -23.6 -26.2 -24.9 -11.45 -20.8 -13.7
Q -19.4 -11.15 -17.6 -9.1
L -8.05 2.2 -6.7 -2.3
Q -3.95 -1.5 -1.25 -1.35
L 13.5 -0.05 11.25 -4.2
Q 13.8 -5.55 15.8 -7.35
L 27.15 -16.9 22.6 -18.25 23.65 -23.8 23.65 -25.55
M 1.35 -29.5
Q 3.2 -28.95 4.15 -27.2 5.1 -25.45 4.55 -23.6 4 -21.75 2.25 -20.8 0.5 -19.85 -1.35 -20.4 -3.2 -20.95 -4.1 -22.7 -5.05 -24.45 -4.5 -26.3 -3.95 -28.15 -2.2 -29.1 -0.5 -30.05 1.35 -29.5
M 17.3 -25.75
Q 14.75 -30.8 11 -35.25
L 12.8 -34.3
Q 12.5 -37.5 11 -40.45 14.35 -37 16.1 -32.45
L 14.1 -33.85
Q 16.55 -29.95 17.3 -25.75
M 6.4 -18.25
Q 9.55 -19.5 12.15 -21.7 9.4 -17.6 5.25 -14.7
L 6.2 -16.9
Q 2.85 -13.5 -1.25 -11.55 3.25 -15.4 6.85 -20.2
L 6.4 -18.25
M -4.25 -34.05
L -6.65 -33.85
Q -2.6 -36.85 2.15 -38.15 -0.8 -36.35 -2.95 -33.75
L -0.95 -33.65
Q -6.6 -31.7 -11.7 -28.6 -8.55 -31.9 -4.25 -34.05
M -16.35 -19.45
L -16 -21.45
Q -14.75 -15.8 -12.25 -10.65 -15.15 -13.85 -16.8 -18.15
L -16.9 -15.7
Q -19.45 -19.8 -20.2 -24.6 -18.7 -21.7 -16.35 -19.45 Z"/>

<path fill="#CCCCCC" stroke="none" d="
M -16 -21.45
L -16.35 -19.45
Q -18.7 -21.7 -20.2 -24.6 -19.45 -19.8 -16.9 -15.7
L -16.8 -18.15
Q -15.15 -13.85 -12.25 -10.65 -14.75 -15.8 -16 -21.45
M -6.65 -33.85
L -4.25 -34.05
Q -8.55 -31.9 -11.7 -28.6 -6.6 -31.7 -0.95 -33.65
L -2.95 -33.75
Q -0.8 -36.35 2.15 -38.15 -2.6 -36.85 -6.65 -33.85
M 12.15 -21.7
Q 9.55 -19.5 6.4 -18.25
L 6.85 -20.2
Q 3.25 -15.4 -1.25 -11.55 2.85 -13.5 6.2 -16.9
L 5.25 -14.7
Q 9.4 -17.6 12.15 -21.7
M 11 -35.25
Q 14.75 -30.8 17.3 -25.75 16.55 -29.95 14.1 -33.85
L 16.1 -32.45
Q 14.35 -37 11 -40.45 12.5 -37.5 12.8 -34.3
L 11 -35.25 Z"/>

<path fill="#808080" stroke="none" d="
M 4.15 -27.2
Q 3.2 -28.95 1.35 -29.5 -0.5 -30.05 -2.2 -29.1 -3.95 -28.15 -4.5 -26.3 -5.05 -24.45 -4.1 -22.7 -3.2 -20.95 -1.35 -20.4 0.5 -19.85 2.25 -20.8 4 -21.75 4.55 -23.6 5.1 -25.45 4.15 -27.2
M 0.6 -27.2
Q 1.55 -26.95 2 -26.1 2.55 -25.25 2.25 -24.3 1.95 -23.35 1.05 -22.9 0.25 -22.45 -0.7 -22.7 -1.6 -23 -2.1 -23.85 -2.55 -24.65 -2.3 -25.65 -1.95 -26.55 -1.15 -27.05 -0.3 -27.5 0.6 -27.2 Z"/>
</g>

<path id="Layer0_0_1_STROKES" stroke="#666666" stroke-width="1" stroke-linejoin="round" stroke-linecap="round" fill="none" d="
M 15.8 -7.35
Q 13.8 -5.55 11.25 -4.2
L 13.5 -0.05 -1.25 -1.35
Q -3.95 -1.5 -6.7 -2.3
L -8.05 2.2 -17.6 -9.1
Q -19.4 -11.15 -20.8 -13.7
L -24.9 -11.45 -23.6 -26.2 -22.65 -31.7 -27.15 -33 -16.7 -41.8 -16.7 -41.7 -15.85 -42.55
Q -13.8 -44.35 -11.3 -45.7
L -13.5 -49.85 1.25 -48.55
Q 3.95 -48.4 6.7 -47.6
L 8.05 -52.1 17.5 -40.85
Q 19.35 -38.8 20.75 -36.2
L 24.9 -38.45 23.8 -25.55 23.65 -25.55 23.65 -23.8 22.6 -18.25 27.15 -16.9 15.8 -7.35 Z
M 1.05 -22.9
Q 0.25 -22.45 -0.7 -22.7 -1.6 -23 -2.1 -23.85 -2.55 -24.65 -2.3 -25.65 -1.95 -26.55 -1.15 -27.05 -0.3 -27.5 0.6 -27.2 1.55 -26.95 2 -26.1 2.55 -25.25 2.25 -24.3 1.95 -23.35 1.05 -22.9 Z
M -1.35 -20.4
Q -3.2 -20.95 -4.1 -22.7 -5.05 -24.45 -4.5 -26.3 -3.95 -28.15 -2.2 -29.1 -0.5 -30.05 1.35 -29.5 3.2 -28.95 4.15 -27.2 5.1 -25.45 4.55 -23.6 4 -21.75 2.25 -20.8 0.5 -19.85 -1.35 -20.4 Z"/>
</defs>

<g transform="matrix( 1, 0, 0, 1, 0,0) ">
<use xlink:href="#Layer0_0_FILL"/>

<use xlink:href="#Layer0_0_1_STROKES"/>
</g>
</svg>
