
<svg xmlns="http://www.w3.org/2000/svg" version="1.1" xmlns:xlink="http://www.w3.org/1999/xlink" preserveAspectRatio="none" x="0px" y="0px" width="56.7px" height="56.7px" viewBox="-28.25 -53.3 56.7 56.7">
<defs>
<g id="Layer0_0_FILL">
<path fill="#999999" stroke="none" d="
M 22.75 -31.7
L 20.65 -36.8 13.6 -49.85 11.4 -45.7
Q 8.8 -47.1 6.2 -47.85
L -8 -52.1 -6.65 -47.6
Q -9.4 -46.8 -11.75 -45.45
L -24.8 -38.45 -20.65 -36.25 -20.65 -36.2
Q -22.05 -33.65 -22.75 -31.05
L -27.05 -16.85 -22.5 -18.25 -20.35 -13 -19.4 -11.55 -19.5 -11.45 -13.4 -0.05 -11.15 -4.2
Q -8.55 -2.8 -5.9 -2.05
L 8.2 2.2 6.85 -2.3
Q 9.6 -3.1 11.95 -4.45
L 25 -11.45 20.9 -13.7
Q 22.25 -16.25 23 -18.85
L 23.3 -20.05 23.3 -20 27.25 -33.05 22.75 -31.7
M 2.35 -29.1
Q 4.05 -28.15 4.6 -26.3 5.15 -24.45 4.25 -22.7 3.3 -20.95 1.45 -20.4 -0.4 -19.85 -2.15 -20.8 -3.9 -21.75 -4.45 -23.6 -5 -25.45 -4.05 -27.2 -3.1 -28.95 -1.25 -29.5 0.6 -30.05 2.35 -29.1
M 9.2 -41.9
Q 13.55 -39.9 16.8 -36.3 14 -37.95 10.8 -38.5
L 11.6 -36.65
Q 7.45 -40.7 2.55 -43.65 6.75 -42.6 10.5 -39.85
L 9.2 -41.9
M 5.55 -12.75
Q 7 -15.8 7.35 -19.15
L 5.65 -18.15
Q 9.3 -22.9 11.9 -28.3 11.05 -23.8 8.65 -19.65
L 10.55 -21.15
Q 8.8 -16.45 5.55 -12.75
M -9.95 -30.65
L -9.5 -28.3
Q -8.55 -33 -6.15 -36.9 -7.85 -31.2 -8.25 -25.2
L -8.9 -27.05
Q -10.85 -24.3 -11.85 -21 -11.8 -26 -9.95 -30.65
M -0.65 -5.95
Q -5.35 -7 -9.3 -9.85
L -6.8 -9.75
Q -11.05 -11.75 -14 -14.8 -9.1 -12 -3.5 -10.35
L -5.5 -10.1
Q -3.5 -7.6 -0.65 -5.95 Z"/>

<path fill="#CCCCCC" stroke="none" d="
M -9.3 -9.85
Q -5.35 -7 -0.65 -5.95 -3.5 -7.6 -5.5 -10.1
L -3.5 -10.35
Q -9.1 -12 -14 -14.8 -11.05 -11.75 -6.8 -9.75
L -9.3 -9.85
M -9.5 -28.3
L -9.95 -30.65
Q -11.8 -26 -11.85 -21 -10.85 -24.3 -8.9 -27.05
L -8.25 -25.2
Q -7.85 -31.2 -6.15 -36.9 -8.55 -33 -9.5 -28.3
M 7.35 -19.15
Q 7 -15.8 5.55 -12.75 8.8 -16.45 10.55 -21.15
L 8.65 -19.65
Q 11.05 -23.8 11.9 -28.3 9.3 -22.9 5.65 -18.15
L 7.35 -19.15
M 16.8 -36.3
Q 13.55 -39.9 9.2 -41.9
L 10.5 -39.85
Q 6.75 -42.6 2.55 -43.65 7.45 -40.7 11.6 -36.65
L 10.8 -38.5
Q 14 -37.95 16.8 -36.3 Z"/>

<path fill="#808080" stroke="none" d="
M 4.6 -26.3
Q 4.05 -28.15 2.35 -29.1 0.6 -30.05 -1.25 -29.5 -3.1 -28.95 -4.05 -27.2 -5 -25.45 -4.45 -23.6 -3.9 -21.75 -2.15 -20.8 -0.4 -19.85 1.45 -20.4 3.3 -20.95 4.25 -22.7 5.15 -24.45 4.6 -26.3
M 1.2 -27.05
Q 2.05 -26.55 2.4 -25.65 2.65 -24.65 2.15 -23.85 1.7 -23 0.8 -22.7 -0.15 -22.45 -1 -22.9 -1.85 -23.35 -2.15 -24.3 -2.45 -25.25 -1.95 -26.1 -1.45 -26.95 -0.5 -27.2 0.4 -27.5 1.2 -27.05 Z"/>
</g>

<path id="Layer0_0_1_STROKES" stroke="#666666" stroke-width="1" stroke-linejoin="round" stroke-linecap="round" fill="none" d="
M -22.75 -31.05
Q -22.05 -33.65 -20.65 -36.2
L -20.65 -36.25 -24.8 -38.45 -11.75 -45.45
Q -9.4 -46.8 -6.65 -47.6
L -8 -52.1 6.2 -47.85
Q 8.8 -47.1 11.4 -45.7
L 13.6 -49.85 20.65 -36.8 22.75 -31.7 27.25 -33.05 23.3 -20 23.3 -20.05 23 -18.85
Q 22.25 -16.25 20.9 -13.7
L 25 -11.45 11.95 -4.45
Q 9.6 -3.1 6.85 -2.3
L 8.2 2.2 -5.9 -2.05
Q -8.55 -2.8 -11.15 -4.2
L -13.4 -0.05 -19.5 -11.45 -19.4 -11.55 -20.35 -13 -22.5 -18.25 -27.05 -16.85 -22.75 -31.05 Z
M -1.25 -29.5
Q 0.6 -30.05 2.35 -29.1 4.05 -28.15 4.6 -26.3 5.15 -24.45 4.25 -22.7 3.3 -20.95 1.45 -20.4 -0.4 -19.85 -2.15 -20.8 -3.9 -21.75 -4.45 -23.6 -5 -25.45 -4.05 -27.2 -3.1 -28.95 -1.25 -29.5 Z
M -1.95 -26.1
Q -1.45 -26.95 -0.5 -27.2 0.4 -27.5 1.2 -27.05 2.05 -26.55 2.4 -25.65 2.65 -24.65 2.15 -23.85 1.7 -23 0.8 -22.7 -0.15 -22.45 -1 -22.9 -1.85 -23.35 -2.15 -24.3 -2.45 -25.25 -1.95 -26.1 Z"/>
</defs>

<g transform="matrix( 1, 0, 0, 1, 0,0) ">
<use xlink:href="#Layer0_0_FILL"/>

<use xlink:href="#Layer0_0_1_STROKES"/>
</g>
</svg>
