
<svg xmlns="http://www.w3.org/2000/svg" version="1.1" xmlns:xlink="http://www.w3.org/1999/xlink" preserveAspectRatio="none" x="0px" y="0px" width="43.85px" height="44.55px" viewBox="-21.15 -44.3 43.85 44.55">
<defs>
<g id="Layer0_0_FILL">
<path fill="#333399" stroke="none" d="
M 21.45 -15.1
L 8.85 -24.75 13.35 -40 0.35 -31 -12.75 -40 -8.25 -24.75 -20.85 -15.1 -4.95 -14.7 0.35 0.25 5.55 -14.7 21.45 -15.1
M 2.15 -20.4
Q 1.55 -19.75 0.65 -19.75 -0.25 -19.75 -0.9 -20.4 -1.5 -21 -1.5 -21.9 -1.5 -22.8 -0.9 -23.45 -0.25 -24.05 0.65 -24.05 1.55 -24.05 2.15 -23.45 2.8 -22.8 2.8 -21.9 2.8 -21 2.15 -20.4 Z"/>

<path fill="#000000" stroke="none" d="
M 0.65 -19.75
Q 1.55 -19.75 2.15 -20.4 2.8 -21 2.8 -21.9 2.8 -22.8 2.15 -23.45 1.55 -24.05 0.65 -24.05 -0.25 -24.05 -0.9 -23.45 -1.5 -22.8 -1.5 -21.9 -1.5 -21 -0.9 -20.4 -0.25 -19.75 0.65 -19.75 Z"/>
</g>
</defs>

<g transform="matrix( 1, 0, 0, 1, 0,0) ">
<use xlink:href="#Layer0_0_FILL"/>
</g>
</svg>
