
<svg xmlns="http://www.w3.org/2000/svg" version="1.1" xmlns:xlink="http://www.w3.org/1999/xlink" preserveAspectRatio="none" x="0px" y="0px" width="56.7px" height="56.7px" viewBox="-28.25 -53.3 56.7 56.7">
<defs>
<g id="Layer0_0_FILL">
<path fill="#999999" stroke="none" d="
M 23.6 -27.8
L 22.3 -42.55 18.6 -39.65
Q 16.85 -41.9 14.7 -43.6
L 13.7 -44.3 13.75 -44.35 3.35 -53.1 2.8 -48.45 -2.8 -48.5 -17.55 -47.15 -14.6 -43.45
Q -16.85 -41.65 -18.55 -39.55
L -28.05 -28.2 -23.35 -27.65
Q -23.7 -24.8 -23.45 -22.1
L -22.15 -7.35 -18.4 -10.25
Q -16.65 -8 -14.5 -6.3
L -3.15 3.2 -2.6 -1.5 3.1 -1.45 4.85 -1.7 4.8 -1.6 17.7 -2.75 14.8 -6.45
Q 17.15 -8.3 18.8 -10.45
L 28.25 -21.7 23.55 -22.25
Q 23.9 -25.1 23.6 -27.8
M 0.65 -29.65
Q 2.55 -29.45 3.8 -27.85 5 -26.3 4.8 -24.4 4.6 -22.45 3 -21.2 1.45 -20.05 -0.45 -20.25 -2.35 -20.45 -3.6 -22 -4.8 -23.55 -4.6 -25.5 -4.4 -27.4 -2.8 -28.65 -1.25 -29.85 0.65 -29.65
M 8.3 -29.4
L 8.55 -27.4
Q 5.65 -32.65 1.65 -37.15 5.45 -34.55 8.3 -30.75
L 7.65 -33.1
Q 11.35 -29.6 13.5 -25.15 11.2 -27.7 8.3 -29.4
M 11.55 -14
Q 14.65 -14.85 17.3 -16.8 14.45 -12.85 10.35 -10.4
L 11.35 -12.6
Q 7.9 -9.5 3.9 -8 8.45 -11.45 12.15 -15.85
L 11.55 -14
M -3.75 -44.75
Q -6.4 -42.8 -8.15 -40.15
L -6.15 -40.15
Q -11.55 -37.9 -16.15 -34.5 -13.5 -37.95 -9.55 -40.35
L -11.95 -40
Q -8.35 -43.2 -3.75 -44.75
M -5.35 -17.5
Q -3.6 -14.6 -1 -12.4 -5.5 -14.4 -9.1 -17.95
L -6.75 -17.45
Q -10.7 -20.15 -13.35 -23.85 -8.7 -20.05 -3.4 -17.35
L -5.35 -17.5 Z"/>

<path fill="#CCCCCC" stroke="none" d="
M -1 -12.4
Q -3.6 -14.6 -5.35 -17.5
L -3.4 -17.35
Q -8.7 -20.05 -13.35 -23.85 -10.7 -20.15 -6.75 -17.45
L -9.1 -17.95
Q -5.5 -14.4 -1 -12.4
M -8.15 -40.15
Q -6.4 -42.8 -3.75 -44.75 -8.35 -43.2 -11.95 -40
L -9.55 -40.35
Q -13.5 -37.95 -16.15 -34.5 -11.55 -37.9 -6.15 -40.15
L -8.15 -40.15
M 17.3 -16.8
Q 14.65 -14.85 11.55 -14
L 12.15 -15.85
Q 8.45 -11.45 3.9 -8 7.9 -9.5 11.35 -12.6
L 10.35 -10.4
Q 14.45 -12.85 17.3 -16.8
M 8.55 -27.4
L 8.3 -29.4
Q 11.2 -27.7 13.5 -25.15 11.35 -29.6 7.65 -33.1
L 8.3 -30.75
Q 5.45 -34.55 1.65 -37.15 5.65 -32.65 8.55 -27.4 Z"/>

<path fill="#808080" stroke="none" d="
M 3.8 -27.85
Q 2.55 -29.45 0.65 -29.65 -1.25 -29.85 -2.8 -28.65 -4.4 -27.4 -4.6 -25.5 -4.8 -23.55 -3.6 -22 -2.35 -20.45 -0.45 -20.25 1.45 -20.05 3 -21.2 4.6 -22.45 4.8 -24.4 5 -26.3 3.8 -27.85
M 0.35 -27.35
Q 1.3 -27.2 1.95 -26.4 2.55 -25.7 2.45 -24.75 2.35 -23.75 1.55 -23.1 0.8 -22.5 -0.15 -22.6 -1.1 -22.7 -1.75 -23.5 -2.35 -24.25 -2.25 -25.25 -2.15 -26.2 -1.35 -26.8 -0.6 -27.4 0.35 -27.35 Z"/>
</g>

<path id="Layer0_0_1_STROKES" stroke="#666666" stroke-width="1" stroke-linejoin="round" stroke-linecap="round" fill="none" d="
M -14.5 -6.3
Q -16.65 -8 -18.4 -10.25
L -22.15 -7.35 -23.45 -22.1
Q -23.7 -24.8 -23.35 -27.65
L -28.05 -28.2 -18.55 -39.55
Q -16.85 -41.65 -14.6 -43.45
L -17.55 -47.15 -2.8 -48.5 2.8 -48.45 3.35 -53.1 13.75 -44.35 13.7 -44.3 14.7 -43.6
Q 16.85 -41.9 18.6 -39.65
L 22.3 -42.55 23.6 -27.8
Q 23.9 -25.1 23.55 -22.25
L 28.25 -21.7 18.8 -10.45
Q 17.15 -8.3 14.8 -6.45
L 17.7 -2.75 4.8 -1.6 4.85 -1.7 3.1 -1.45 -2.6 -1.5 -3.15 3.2 -14.5 -6.3 Z
M -1.75 -23.5
Q -2.35 -24.25 -2.25 -25.25 -2.15 -26.2 -1.35 -26.8 -0.6 -27.4 0.35 -27.35 1.3 -27.2 1.95 -26.4 2.55 -25.7 2.45 -24.75 2.35 -23.75 1.55 -23.1 0.8 -22.5 -0.15 -22.6 -1.1 -22.7 -1.75 -23.5 Z
M -4.6 -25.5
Q -4.4 -27.4 -2.8 -28.65 -1.25 -29.85 0.65 -29.65 2.55 -29.45 3.8 -27.85 5 -26.3 4.8 -24.4 4.6 -22.45 3 -21.2 1.45 -20.05 -0.45 -20.25 -2.35 -20.45 -3.6 -22 -4.8 -23.55 -4.6 -25.5 Z"/>
</defs>

<g transform="matrix( 1, 0, 0, 1, 0,0) ">
<use xlink:href="#Layer0_0_FILL"/>

<use xlink:href="#Layer0_0_1_STROKES"/>
</g>
</svg>
