
<svg xmlns="http://www.w3.org/2000/svg" version="1.1" xmlns:xlink="http://www.w3.org/1999/xlink" preserveAspectRatio="none" x="0px" y="0px" width="56.7px" height="56.7px" viewBox="-28.25 -53.3 56.7 56.7">
<defs>
<g id="Layer0_0_FILL">
<path fill="#999999" stroke="none" d="
M 28.25 -28.2
L 23.55 -27.65
Q 23.2 -30.5 22.3 -33.05
L 17.7 -47.15 14.8 -43.45
Q 12.55 -45.2 10.1 -46.4
L 9 -46.9 9 -46.95 -3.15 -53.1 -2.6 -48.45 -8.05 -47.2 -22.15 -42.55 -18.4 -39.65
Q -20.15 -37.35 -21.35 -34.95
L -28.05 -21.7 -23.35 -22.25
Q -23 -19.4 -22.15 -16.85
L -17.55 -2.75 -14.6 -6.45
Q -12.35 -4.7 -9.9 -3.5
L 3.35 3.2 2.8 -1.5 8.3 -2.75 9.95 -3.45 10 -3.3 22.3 -7.35 18.6 -10.25
Q 20.45 -12.6 21.6 -15.05
L 28.25 -28.2
M 7.1 -31.1
L 7.75 -29.2
Q 3.75 -33.7 -1.15 -37.15 3.15 -35.55 6.8 -32.4
L 5.65 -34.6
Q 10.05 -32 13.1 -28.15 10.3 -30.1 7.1 -31.1
M 3 -28.65
Q 4.6 -27.4 4.8 -25.5 5 -23.55 3.8 -22 2.55 -20.45 0.65 -20.25 -1.25 -20.05 -2.8 -21.2 -4.4 -22.45 -4.6 -24.4 -4.8 -26.3 -3.6 -27.85 -2.35 -29.45 -0.45 -29.65 1.45 -29.85 3 -28.65
M 13.35 -13.1
L 13.85 -15.5
Q 11.2 -11.7 7.6 -9.3 11.3 -13.65 13.85 -18.85
L 13.75 -16.9
Q 16.55 -18.4 18.7 -20.9 16.85 -16.5 13.35 -13.1
M -12.75 -37.75
L -15.05 -36.9
Q -12.25 -40.8 -8.15 -43.35 -10.3 -40.9 -11.35 -37.85
L -9.45 -38.35
Q -14.15 -34.9 -17.85 -30.6 -16.1 -34.55 -12.75 -37.75
M -4.85 -16.05
Q -9.3 -17.85 -12.75 -20.85 -7.4 -18.15 -1.6 -16.75
L -3.55 -16.5
Q -1.2 -14 1.9 -12.5 -3 -13.4 -7.3 -16.05
L -4.85 -16.05 Z"/>

<path fill="#CCCCCC" stroke="none" d="
M -12.75 -20.85
Q -9.3 -17.85 -4.85 -16.05
L -7.3 -16.05
Q -3 -13.4 1.9 -12.5 -1.2 -14 -3.55 -16.5
L -1.6 -16.75
Q -7.4 -18.15 -12.75 -20.85
M -15.05 -36.9
L -12.75 -37.75
Q -16.1 -34.55 -17.85 -30.6 -14.15 -34.9 -9.45 -38.35
L -11.35 -37.85
Q -10.3 -40.9 -8.15 -43.35 -12.25 -40.8 -15.05 -36.9
M 13.85 -15.5
L 13.35 -13.1
Q 16.85 -16.5 18.7 -20.9 16.55 -18.4 13.75 -16.9
L 13.85 -18.85
Q 11.3 -13.65 7.6 -9.3 11.2 -11.7 13.85 -15.5
M 7.75 -29.2
L 7.1 -31.1
Q 10.3 -30.1 13.1 -28.15 10.05 -32 5.65 -34.6
L 6.8 -32.4
Q 3.15 -35.55 -1.15 -37.15 3.75 -33.7 7.75 -29.2 Z"/>

<path fill="#808080" stroke="none" d="
M 4.8 -25.5
Q 4.6 -27.4 3 -28.65 1.45 -29.85 -0.45 -29.65 -2.35 -29.45 -3.6 -27.85 -4.8 -26.3 -4.6 -24.4 -4.4 -22.45 -2.8 -21.2 -1.25 -20.05 0.65 -20.25 2.55 -20.45 3.8 -22 5 -23.55 4.8 -25.5
M 1.55 -26.8
Q 2.35 -26.2 2.45 -25.25 2.55 -24.25 1.95 -23.5 1.3 -22.7 0.35 -22.6 -0.6 -22.5 -1.35 -23.1 -2.15 -23.75 -2.25 -24.75 -2.35 -25.7 -1.75 -26.4 -1.1 -27.2 -0.15 -27.35 0.8 -27.4 1.55 -26.8 Z"/>
</g>

<path id="Layer0_0_1_STROKES" stroke="#666666" stroke-width="1" stroke-linejoin="round" stroke-linecap="round" fill="none" d="
M -9.9 -3.5
Q -12.35 -4.7 -14.6 -6.45
L -17.55 -2.75 -22.15 -16.85
Q -23 -19.4 -23.35 -22.25
L -28.05 -21.7 -21.35 -34.95
Q -20.15 -37.35 -18.4 -39.65
L -22.15 -42.55 -8.05 -47.2 -2.6 -48.45 -3.15 -53.1 9 -46.95 9 -46.9 10.1 -46.4
Q 12.55 -45.2 14.8 -43.45
L 17.7 -47.15 22.3 -33.05
Q 23.2 -30.5 23.55 -27.65
L 28.25 -28.2 21.6 -15.05
Q 20.45 -12.6 18.6 -10.25
L 22.3 -7.35 10 -3.3 9.95 -3.45 8.3 -2.75 2.8 -1.5 3.35 3.2 -9.9 -3.5 Z
M -4.6 -24.4
Q -4.8 -26.3 -3.6 -27.85 -2.35 -29.45 -0.45 -29.65 1.45 -29.85 3 -28.65 4.6 -27.4 4.8 -25.5 5 -23.55 3.8 -22 2.55 -20.45 0.65 -20.25 -1.25 -20.05 -2.8 -21.2 -4.4 -22.45 -4.6 -24.4 Z
M -1.35 -23.1
Q -2.15 -23.75 -2.25 -24.75 -2.35 -25.7 -1.75 -26.4 -1.1 -27.2 -0.15 -27.35 0.8 -27.4 1.55 -26.8 2.35 -26.2 2.45 -25.25 2.55 -24.25 1.95 -23.5 1.3 -22.7 0.35 -22.6 -0.6 -22.5 -1.35 -23.1 Z"/>
</defs>

<g transform="matrix( 1, 0, 0, 1, 0,0) ">
<use xlink:href="#Layer0_0_FILL"/>

<use xlink:href="#Layer0_0_1_STROKES"/>
</g>
</svg>
