
<svg xmlns="http://www.w3.org/2000/svg" version="1.1" xmlns:xlink="http://www.w3.org/1999/xlink" preserveAspectRatio="none" x="0px" y="0px" width="56.7px" height="56.7px" viewBox="-28.25 -53.3 56.7 56.7">
<defs>
<g id="Layer0_0_FILL">
<path fill="#999999" stroke="none" d="
M 28.15 -29.1
L 23.45 -28.4
Q 23 -31.25 22.1 -33.8
L 17 -47.7 14.15 -43.9
Q 11.85 -45.6 9.4 -46.7
L -4.05 -53 -3.35 -48.3
Q -6.15 -47.85 -8.65 -46.9
L -22.65 -41.85 -18.85 -39 -21.7 -34.15 -22.3 -32.5 -22.45 -32.55 -27.95 -20.85 -23.25 -21.5
Q -22.8 -18.55 -21.8 -16
L -16.8 -2.2 -13.95 -6
Q -11.65 -4.3 -9.2 -3.2
L 4.25 3.05 3.55 -1.6
Q 6.35 -2.05 8.9 -2.95
L 22.85 -8.05 19.05 -10.85 21.9 -15.65 28.15 -29.1
M 18.2 -25.6
L 19.15 -27.8
Q 20.1 -23.1 19.2 -18.4 18.8 -21.6 17.35 -24.5
L 16.4 -22.75
Q 17.1 -28.5 16.5 -34.2 18.2 -30.2 18.2 -25.6
M 2.9 -28.75
Q 4.45 -27.6 4.75 -25.65 5.05 -23.7 3.9 -22.15 2.75 -20.6 0.75 -20.35 -1.15 -20 -2.7 -21.15 -4.25 -22.3 -4.6 -24.3 -4.85 -26.25 -3.7 -27.8 -2.55 -29.35 -0.6 -29.6 1.35 -29.9 2.9 -28.75
M 9.85 -17.5
Q 5.75 -15.5 0.95 -14.95
L 3.3 -14.3
Q -1.5 -12.9 -6.4 -13.3 -3.1 -13.95 -0.2 -15.7
L -2 -16.45
Q 4 -16.35 9.85 -17.5
M -1.3 -36.4
L -3 -34.6
Q 1.35 -36.65 5.9 -37.1 0.3 -35.05 -4.7 -31.8
L -3.6 -33.45
Q -7 -33.35 -10.2 -32.15 -6.25 -35.1 -1.3 -36.4
M -15.55 -14.15
Q -17.5 -18.55 -17.6 -23.4
L -16.2 -21.4
Q -17.15 -25.9 -16.45 -30.2 -15.75 -24.55 -13.75 -19.1
L -15.15 -20.5
Q -15.95 -17.45 -15.55 -14.15 Z"/>

<path fill="#CCCCCC" stroke="none" d="
M -17.6 -23.4
Q -17.5 -18.55 -15.55 -14.15 -15.95 -17.45 -15.15 -20.5
L -13.75 -19.1
Q -15.75 -24.55 -16.45 -30.2 -17.15 -25.9 -16.2 -21.4
L -17.6 -23.4
M -3 -34.6
L -1.3 -36.4
Q -6.25 -35.1 -10.2 -32.15 -7 -33.35 -3.6 -33.45
L -4.7 -31.8
Q 0.3 -35.05 5.9 -37.1 1.35 -36.65 -3 -34.6
M 0.95 -14.95
Q 5.75 -15.5 9.85 -17.5 4 -16.35 -2 -16.45
L -0.2 -15.7
Q -3.1 -13.95 -6.4 -13.3 -1.5 -12.9 3.3 -14.3
L 0.95 -14.95
M 19.15 -27.8
L 18.2 -25.6
Q 18.2 -30.2 16.5 -34.2 17.1 -28.5 16.4 -22.75
L 17.35 -24.5
Q 18.8 -21.6 19.2 -18.4 20.1 -23.1 19.15 -27.8 Z"/>

<path fill="#808080" stroke="none" d="
M 4.75 -25.65
Q 4.45 -27.6 2.9 -28.75 1.35 -29.9 -0.6 -29.6 -2.55 -29.35 -3.7 -27.8 -4.85 -26.25 -4.6 -24.3 -4.25 -22.3 -2.7 -21.15 -1.15 -20 0.75 -20.35 2.75 -20.6 3.9 -22.15 5.05 -23.7 4.75 -25.65
M 1.55 -26.85
Q 2.3 -26.25 2.45 -25.3 2.6 -24.35 2 -23.5 1.4 -22.75 0.45 -22.6 -0.5 -22.45 -1.25 -23.05 -2.05 -23.6 -2.2 -24.6 -2.4 -25.55 -1.8 -26.35 -1.2 -27.15 -0.2 -27.3 0.75 -27.4 1.55 -26.85 Z"/>
</g>

<path id="Layer0_0_1_STROKES" stroke="#666666" stroke-width="1" stroke-linejoin="round" stroke-linecap="round" fill="none" d="
M -8.65 -46.9
Q -6.15 -47.85 -3.35 -48.3
L -4.05 -53 9.4 -46.7
Q 11.85 -45.6 14.15 -43.9
L 17 -47.7 22.1 -33.8
Q 23 -31.25 23.45 -28.4
L 28.15 -29.1 21.9 -15.65 19.05 -10.85 22.85 -8.05 8.9 -2.95
Q 6.35 -2.05 3.55 -1.6
L 4.25 3.05 -9.2 -3.2
Q -11.65 -4.3 -13.95 -6
L -16.8 -2.2 -21.8 -16
Q -22.8 -18.55 -23.25 -21.5
L -27.95 -20.85 -22.45 -32.55 -22.3 -32.5 -21.7 -34.15 -18.85 -39 -22.65 -41.85 -8.65 -46.9 Z
M 2.9 -28.75
Q 4.45 -27.6 4.75 -25.65 5.05 -23.7 3.9 -22.15 2.75 -20.6 0.75 -20.35 -1.15 -20 -2.7 -21.15 -4.25 -22.3 -4.6 -24.3 -4.85 -26.25 -3.7 -27.8 -2.55 -29.35 -0.6 -29.6 1.35 -29.9 2.9 -28.75 Z
M -0.2 -27.3
Q 0.75 -27.4 1.55 -26.85 2.3 -26.25 2.45 -25.3 2.6 -24.35 2 -23.5 1.4 -22.75 0.45 -22.6 -0.5 -22.45 -1.25 -23.05 -2.05 -23.6 -2.2 -24.6 -2.4 -25.55 -1.8 -26.35 -1.2 -27.15 -0.2 -27.3 Z"/>
</defs>

<g transform="matrix( 1, 0, 0, 1, 0,0) ">
<use xlink:href="#Layer0_0_FILL"/>

<use xlink:href="#Layer0_0_1_STROKES"/>
</g>
</svg>
