
<svg xmlns="http://www.w3.org/2000/svg" version="1.1" xmlns:xlink="http://www.w3.org/1999/xlink" preserveAspectRatio="none" x="0px" y="0px" width="51.3px" height="51.25px" viewBox="-25.65 -50.65 51.3 51.25">
<defs>
<g id="Layer0_0_FILL">
<path fill="#333333" stroke="none" d="
M 8.95 -16.1
Q 7.5 -14.63046875 5.8 -13.75
L 24.65 0 10.6 -18.1
Q 9.896484375 -17.0337890625 8.95 -16.1
M 12.15 -28.55
Q 12.6818359375 -26.8103515625 12.7 -24.9 12.68359375 -23.2185546875 12.25 -21.7
L 24.65 -24.8 12.15 -28.55
M 6.8 -35.6
Q 7.934375 -34.865625 8.95 -33.85 10.3666015625 -32.4333984375 11.25 -30.8
L 25 -49.7 6.8 -35.6
M 0.1 -37.55
Q 1.76484375 -37.55 3.25 -37.2
L 0.15 -49.55 -3.6 -37.05
Q -1.85234375 -37.55 0.1 -37.55
M -3.35 -12.8
L -0.2 -0.4 3.5 -12.8
Q 1.88828125 -12.3173828125 0.1 -12.3 -1.708203125 -12.3171875 -3.35 -12.8
M -6.85 -14.45
Q -7.9 -15.137109375 -8.85 -16.1 -10.290625 -17.540625 -11.15 -19.25
L -25 -0.35 -6.85 -14.45
M -8.85 -33.85
Q -7.4267578125 -35.2732421875 -5.8 -36.15
L -24.75 -50 -10.55 -31.75
Q -9.8373046875 -32.84921875 -8.85 -33.85
M -12.5 -24.9
Q -12.5 -26.694921875 -12.1 -28.3
L -24.55 -25.15 -12.05 -21.4
Q -12.5 -23.0548828125 -12.5 -24.9 Z"/>

<path fill="#666666" stroke="none" d="
M -12.1 -28.3
Q -12.5 -26.694921875 -12.5 -24.9 -12.5 -23.0548828125 -12.05 -21.4 -11.7009765625 -20.26875 -11.15 -19.25 -10.290625 -17.540625 -8.85 -16.1 -7.9 -15.137109375 -6.85 -14.45 -5.2103515625 -13.3021484375 -3.35 -12.8 -1.708203125 -12.3171875 0.1 -12.3 1.88828125 -12.3173828125 3.5 -12.8 4.712890625 -13.1255859375 5.8 -13.75 7.5 -14.63046875 8.95 -16.1 9.896484375 -17.0337890625 10.6 -18.1 11.7583984375 -19.7515625 12.25 -21.7 12.68359375 -23.2185546875 12.7 -24.9 12.6818359375 -26.8103515625 12.15 -28.55 11.828125 -29.7080078125 11.25 -30.8 10.3666015625 -32.4333984375 8.95 -33.85 7.934375 -34.865625 6.8 -35.6 5.15703125 -36.6810546875 3.25 -37.2 1.76484375 -37.55 0.1 -37.55 -1.85234375 -37.55 -3.6 -37.05 -4.7287109375 -36.70390625 -5.8 -36.15 -7.4267578125 -35.2732421875 -8.85 -33.85 -9.8373046875 -32.84921875 -10.55 -31.75 -11.5904296875 -30.1345703125 -12.1 -28.3 Z"/>
</g>

<path id="Layer0_0_1_STROKES" stroke="#000000" stroke-width="1" stroke-linejoin="round" stroke-linecap="round" fill="none" d="
M -12.025 -21.4
Q -12.5 -23.0548828125 -12.5 -24.9 -12.5 -26.694921875 -12.075 -28.3
L -24.55 -25.15 -12.025 -21.4
Q -11.7009765625 -20.26875 -11.15 -19.225 -10.290625 -17.540625 -8.85 -16.1 -7.9 -15.137109375 -6.85 -14.425 -5.2103515625 -13.3021484375 -3.325 -12.775 -1.708203125 -12.3171875 0.1 -12.3 1.88828125 -12.3173828125 3.5 -12.775 4.712890625 -13.1255859375 5.825 -13.725 7.5 -14.63046875 8.95 -16.1 9.896484375 -17.0337890625 10.6 -18.075 11.7583984375 -19.7515625 12.275 -21.7 12.68359375 -23.2185546875 12.7 -24.9 12.6818359375 -26.8103515625 12.175 -28.525 11.828125 -29.7080078125 11.25 -30.8 10.3666015625 -32.4333984375 8.95 -33.85 7.934375 -34.865625 6.8 -35.6 5.15703125 -36.6810546875 3.275 -37.175 1.76484375 -37.55 0.1 -37.55 -1.85234375 -37.55 -3.6 -37.05 -4.7287109375 -36.70390625 -5.775 -36.15 -7.4267578125 -35.2732421875 -8.85 -33.85 -9.8373046875 -32.84921875 -10.55 -31.725 -11.5904296875 -30.1345703125 -12.075 -28.3
M -3.325 -12.775
L -0.2 -0.4 3.5 -12.775
M -11.15 -19.225
L -25 -0.35 -6.85 -14.425
M -5.775 -36.15
L -24.75 -50 -10.55 -31.725
M 12.275 -21.7
L 24.65 -24.8 12.175 -28.525
M 11.25 -30.8
L 25 -49.7 6.8 -35.6
M 3.275 -37.175
L 0.15 -49.55 -3.6 -37.05
M 5.825 -13.725
L 24.65 0 10.6 -18.075"/>
</defs>

<g transform="matrix( 1, 0, 0, 1, 0,0) ">
<use xlink:href="#Layer0_0_FILL"/>

<use xlink:href="#Layer0_0_1_STROKES"/>
</g>
</svg>
