
<svg xmlns="http://www.w3.org/2000/svg" version="1.1" xmlns:xlink="http://www.w3.org/1999/xlink" preserveAspectRatio="none" x="0px" y="0px" width="43.85px" height="44.55px" viewBox="-21.15 -44.3 43.85 44.55">
<defs>
<g id="Layer0_0_FILL">
<path fill="#333399" stroke="none" d="
M 22.55 -25.85
L 6.95 -28.5 3.8 -44.05 -3.45 -30.05 -19.2 -31.85 -8.15 -20.5 -14.75 -6.15 -0.55 -13.2 11.1 -2.45 8.75 -18.1 22.55 -25.85
M 0.05 -24.05
Q 0.85 -24.5 1.65 -24.25 2.55 -23.95 2.95 -23.15 3.35 -22.35 3.1 -21.55 2.85 -20.7 2.05 -20.25 1.25 -19.85 0.4 -20.15 -0.45 -20.35 -0.85 -21.15 -1.25 -21.95 -1.05 -22.85 -0.75 -23.65 0.05 -24.05 Z"/>

<path fill="#000000" stroke="none" d="
M 1.65 -24.25
Q 0.85 -24.5 0.05 -24.05 -0.75 -23.65 -1.05 -22.85 -1.25 -21.95 -0.85 -21.15 -0.45 -20.35 0.4 -20.15 1.25 -19.85 2.05 -20.25 2.85 -20.7 3.1 -21.55 3.35 -22.35 2.95 -23.15 2.55 -23.95 1.65 -24.25 Z"/>
</g>
</defs>

<g transform="matrix( 1, 0, 0, 1, 0,0) ">
<use xlink:href="#Layer0_0_FILL"/>
</g>
</svg>
