
<svg xmlns="http://www.w3.org/2000/svg" version="1.1" xmlns:xlink="http://www.w3.org/1999/xlink" preserveAspectRatio="none" x="0px" y="0px" width="56.7px" height="56.7px" viewBox="-28.25 -53.3 56.7 56.7">
<defs>
<g id="Layer0_0_FILL">
<path fill="#999999" stroke="none" d="
M 23.75 -25.85
L 23.75 -40.55 19.8 -37.95
Q 18.2 -40.35 16.3 -42.25
L 5.8 -52.75 4.85 -48.1
Q 2.05 -48.7 -0.65 -48.65
L -1.85 -48.55 -1.85 -48.65 -15.45 -48.65 -12.9 -44.75 -17.15 -41.2 -27.65 -30.75 -23.05 -29.8
Q -23.6 -26.95 -23.55 -24.25
L -23.55 -9.45 -19.6 -12.05
Q -18 -9.65 -16.1 -7.75
L -5.65 2.75 -4.7 -1.85 -4.7 -1.9
Q -1.85 -1.3 0.8 -1.35
L 15.65 -1.35 13.05 -5.3 17.4 -8.9 18.55 -10.2 18.7 -10.15 27.8 -19.25 23.2 -20.2
Q 23.8 -23.1 23.75 -25.85
M 2.7 -34.65
L 0.7 -36.1
Q 5.75 -35.8 10.25 -33.75 6.85 -34.25 3.55 -33.65
L 5 -32.3
Q -0.6 -34.45 -6.5 -35.35 -1.95 -35.8 2.7 -34.65
M 1.1 -29.6
Q 3 -29.2 4.05 -27.6 5.1 -25.95 4.75 -24.05 4.3 -22.1 2.7 -21.05 1.1 -20 -0.85 -20.35 -2.8 -20.75 -3.85 -22.4 -4.9 -24 -4.5 -25.9 -4.1 -27.9 -2.5 -28.95 -0.9 -30 1.1 -29.6
M 17.25 -20.4
L 16.65 -22.75
Q 16 -18.2 13.85 -14.4 15.15 -19.95 15.15 -25.8
L 15.9 -23.95
Q 17.7 -26.55 18.5 -29.75 18.85 -24.95 17.25 -20.4
M 2.25 -16.9
L 0.7 -15.8
Q 3.85 -14.7 7.3 -14.7 2.55 -13.3 -2.5 -13.75
L -0.3 -14.85
Q -5.1 -14.4 -9.55 -15.6 -3.55 -15.6 2.25 -16.9
M -15.95 -31.35
L -14.4 -32.65
Q -17.1 -27.5 -18.45 -21.95 -18.65 -26.25 -17.15 -30.65
L -18.75 -28.85
Q -18.05 -33.6 -15.55 -37.7 -16.35 -34.55 -15.95 -31.35 Z"/>

<path fill="#CCCCCC" stroke="none" d="
M -14.4 -32.65
L -15.95 -31.35
Q -16.35 -34.55 -15.55 -37.7 -18.05 -33.6 -18.75 -28.85
L -17.15 -30.65
Q -18.65 -26.25 -18.45 -21.95 -17.1 -27.5 -14.4 -32.65
M 0.7 -15.8
L 2.25 -16.9
Q -3.55 -15.6 -9.55 -15.6 -5.1 -14.4 -0.3 -14.85
L -2.5 -13.75
Q 2.55 -13.3 7.3 -14.7 3.85 -14.7 0.7 -15.8
M 16.65 -22.75
L 17.25 -20.4
Q 18.85 -24.95 18.5 -29.75 17.7 -26.55 15.9 -23.95
L 15.15 -25.8
Q 15.15 -19.95 13.85 -14.4 16 -18.2 16.65 -22.75
M 0.7 -36.1
L 2.7 -34.65
Q -1.95 -35.8 -6.5 -35.35 -0.6 -34.45 5 -32.3
L 3.55 -33.65
Q 6.85 -34.25 10.25 -33.75 5.75 -35.8 0.7 -36.1 Z"/>

<path fill="#808080" stroke="none" d="
M 4.05 -27.6
Q 3 -29.2 1.1 -29.6 -0.9 -30 -2.5 -28.95 -4.1 -27.9 -4.5 -25.9 -4.9 -24 -3.85 -22.4 -2.8 -20.75 -0.85 -20.35 1.1 -20 2.7 -21.05 4.3 -22.1 4.75 -24.05 5.1 -25.95 4.05 -27.6
M 0.6 -27.3
Q 1.5 -27.15 2.05 -26.35 2.6 -25.5 2.4 -24.55 2.2 -23.6 1.4 -23.05 0.6 -22.5 -0.4 -22.75 -1.3 -22.9 -1.85 -23.75 -2.4 -24.55 -2.2 -25.5 -2 -26.4 -1.2 -27 -0.4 -27.5 0.6 -27.3 Z"/>
</g>

<path id="Layer0_0_1_STROKES" stroke="#666666" stroke-width="1" stroke-linejoin="round" stroke-linecap="round" fill="none" d="
M 0.8 -1.35
Q -1.85 -1.3 -4.7 -1.9
L -4.7 -1.85 -5.65 2.75 -16.1 -7.75
Q -18 -9.65 -19.6 -12.05
L -23.55 -9.45 -23.55 -24.25
Q -23.6 -26.95 -23.05 -29.8
L -27.65 -30.75 -17.15 -41.2 -12.9 -44.75 -15.45 -48.65 -1.85 -48.65 -1.85 -48.55 -0.65 -48.65
Q 2.05 -48.7 4.85 -48.1
L 5.8 -52.75 16.3 -42.25
Q 18.2 -40.35 19.8 -37.95
L 23.75 -40.55 23.75 -25.85
Q 23.8 -23.1 23.2 -20.2
L 27.8 -19.25 18.7 -10.15 18.55 -10.2 17.4 -8.9 13.05 -5.3 15.65 -1.35 0.8 -1.35 Z
M -3.85 -22.4
Q -4.9 -24 -4.5 -25.9 -4.1 -27.9 -2.5 -28.95 -0.9 -30 1.1 -29.6 3 -29.2 4.05 -27.6 5.1 -25.95 4.75 -24.05 4.3 -22.1 2.7 -21.05 1.1 -20 -0.85 -20.35 -2.8 -20.75 -3.85 -22.4 Z
M -0.4 -22.75
Q -1.3 -22.9 -1.85 -23.75 -2.4 -24.55 -2.2 -25.5 -2 -26.4 -1.2 -27 -0.4 -27.5 0.6 -27.3 1.5 -27.15 2.05 -26.35 2.6 -25.5 2.4 -24.55 2.2 -23.6 1.4 -23.05 0.6 -22.5 -0.4 -22.75 Z"/>
</defs>

<g transform="matrix( 1, 0, 0, 1, 0,0) ">
<use xlink:href="#Layer0_0_FILL"/>

<use xlink:href="#Layer0_0_1_STROKES"/>
</g>
</svg>
