
<svg xmlns="http://www.w3.org/2000/svg" version="1.1" xmlns:xlink="http://www.w3.org/1999/xlink" preserveAspectRatio="none" x="0px" y="0px" width="56.7px" height="56.7px" viewBox="-28.25 -53.3 56.7 56.7">
<defs>
<g id="Layer0_0_FILL">
<path fill="#999999" stroke="none" d="
M 26.15 -36.15
L 21.8 -34.3 19.05 -39.2 17.9 -40.55 18 -40.65 10.65 -51.25 8.85 -46.85
Q 6.1 -48 3.4 -48.35
L -11.05 -50.95 -9.2 -46.6
Q -11.85 -45.45 -14 -43.85
L -26.15 -35.45 -21.8 -33.65
Q -22.85 -31 -23.3 -28.3
L -23.45 -27.15 -23.45 -27.1 -25.85 -13.75 -21.55 -15.6 -18.8 -10.8 -10.3 1.35 -8.6 -3.05
Q -5.9 -1.95 -3.2 -1.5
L 11.35 1.05 9.5 -3.3
Q 12.15 -4.45 14.3 -6
L 26.5 -14.45 22.05 -16.2 22.05 -16.25
Q 23.15 -18.9 23.55 -21.55
L 26.15 -36.15
M 2 -39.85
L 3.95 -40.35
Q 1.7 -42.55 -1.3 -43.9 3.45 -43.4 7.7 -41.05
L 5.25 -40.85
Q 9.65 -39.4 12.95 -36.65 7.7 -38.9 2 -39.85
M 1.95 -29.35
Q 3.75 -28.65 4.5 -26.85 5.25 -25.05 4.55 -23.25 3.8 -21.35 2 -20.6 0.25 -19.85 -1.6 -20.6 -3.4 -21.3 -4.15 -23.1 -4.9 -24.9 -4.2 -26.7 -3.45 -28.55 -1.7 -29.3 0.1 -30.05 1.95 -29.35
M 10.1 -22.75
Q 9.7 -17.95 7.8 -13.85 8.8 -19.7 8.5 -25.7
L 9.3 -23.9
Q 10.95 -26.9 11.55 -30.25 12.1 -25.3 10.8 -20.45
L 10.1 -22.75
M -8.9 -29.2
L -10.65 -27.45
Q -9.45 -32.35 -6.7 -36.45 -7.75 -33.2 -7.7 -29.85
L -6.15 -31
Q -9.25 -25.95 -11.15 -20.25 -10.85 -24.8 -8.9 -29.2
M -9.9 -11.95
Q -5.3 -8.45 -0.1 -6.1 -4.35 -6.7 -8.4 -8.95
L -6.9 -7.05
Q -11.45 -8.55 -15.1 -11.75 -12.1 -10.45 -8.9 -10.25
L -9.9 -11.95 Z"/>

<path fill="#CCCCCC" stroke="none" d="
M -0.1 -6.1
Q -5.3 -8.45 -9.9 -11.95
L -8.9 -10.25
Q -12.1 -10.45 -15.1 -11.75 -11.45 -8.55 -6.9 -7.05
L -8.4 -8.95
Q -4.35 -6.7 -0.1 -6.1
M -10.65 -27.45
L -8.9 -29.2
Q -10.85 -24.8 -11.15 -20.25 -9.25 -25.95 -6.15 -31
L -7.7 -29.85
Q -7.75 -33.2 -6.7 -36.45 -9.45 -32.35 -10.65 -27.45
M 7.8 -13.85
Q 9.7 -17.95 10.1 -22.75
L 10.8 -20.45
Q 12.1 -25.3 11.55 -30.25 10.95 -26.9 9.3 -23.9
L 8.5 -25.7
Q 8.8 -19.7 7.8 -13.85
M 3.95 -40.35
L 2 -39.85
Q 7.7 -38.9 12.95 -36.65 9.65 -39.4 5.25 -40.85
L 7.7 -41.05
Q 3.45 -43.4 -1.3 -43.9 1.7 -42.55 3.95 -40.35 Z"/>

<path fill="#808080" stroke="none" d="
M 4.5 -26.85
Q 3.75 -28.65 1.95 -29.35 0.1 -30.05 -1.7 -29.3 -3.45 -28.55 -4.2 -26.7 -4.9 -24.9 -4.15 -23.1 -3.4 -21.3 -1.6 -20.6 0.25 -19.85 2 -20.6 3.8 -21.35 4.55 -23.25 5.25 -25.05 4.5 -26.85
M 1 -27.1
Q 1.9 -26.8 2.3 -25.9 2.7 -25 2.3 -24.05 2 -23.2 1.05 -22.8 0.2 -22.4 -0.75 -22.75 -1.6 -23.1 -2.05 -24 -2.4 -24.9 -2.05 -25.8 -1.7 -26.7 -0.85 -27.1 0.1 -27.5 1 -27.1 Z"/>
</g>

<path id="Layer0_0_1_STROKES" stroke="#666666" stroke-width="1" stroke-linejoin="round" stroke-linecap="round" fill="none" d="
M 23.55 -21.55
Q 23.15 -18.9 22.05 -16.25
L 22.05 -16.2 26.5 -14.45 14.3 -6
Q 12.15 -4.45 9.5 -3.3
L 11.35 1.05 -3.2 -1.5
Q -5.9 -1.95 -8.6 -3.05
L -10.3 1.35 -18.8 -10.8 -21.55 -15.6 -25.85 -13.75 -23.45 -27.1 -23.45 -27.15 -23.3 -28.3
Q -22.85 -31 -21.8 -33.65
L -26.15 -35.45 -14 -43.85
Q -11.85 -45.45 -9.2 -46.6
L -11.05 -50.95 3.4 -48.35
Q 6.1 -48 8.85 -46.85
L 10.65 -51.25 18 -40.65 17.9 -40.55 19.05 -39.2 21.8 -34.3 26.15 -36.15 23.55 -21.55 Z
M 2.3 -24.05
Q 2 -23.2 1.05 -22.8 0.2 -22.4 -0.75 -22.75 -1.6 -23.1 -2.05 -24 -2.4 -24.9 -2.05 -25.8 -1.7 -26.7 -0.85 -27.1 0.1 -27.5 1 -27.1 1.9 -26.8 2.3 -25.9 2.7 -25 2.3 -24.05 Z
M 2 -20.6
Q 0.25 -19.85 -1.6 -20.6 -3.4 -21.3 -4.15 -23.1 -4.9 -24.9 -4.2 -26.7 -3.45 -28.55 -1.7 -29.3 0.1 -30.05 1.95 -29.35 3.75 -28.65 4.5 -26.85 5.25 -25.05 4.55 -23.25 3.8 -21.35 2 -20.6 Z"/>
</defs>

<g transform="matrix( 1, 0, 0, 1, 0,0) ">
<use xlink:href="#Layer0_0_FILL"/>

<use xlink:href="#Layer0_0_1_STROKES"/>
</g>
</svg>
