
<svg xmlns="http://www.w3.org/2000/svg" version="1.1" xmlns:xlink="http://www.w3.org/1999/xlink" preserveAspectRatio="none" x="0px" y="0px" width="56.7px" height="56.7px" viewBox="-28.25 -53.3 56.7 56.7">
<defs>
<g id="Layer0_0_FILL">
<path fill="#999999" stroke="none" d="
M 23.7 -26.3
L 22.8 -31.75 18.95 -46.15 15.85 -42.6
Q 13.7 -44.5 11.3 -45.8
L -1.5 -53.25 -1.25 -48.55
Q -4.1 -48.4 -6.7 -47.65
L -21.05 -43.85 -17.5 -40.7
Q -19.45 -38.55 -20.75 -36.15
L -28.2 -23.35 -23.45 -23.6 -22.55 -18.05 -22 -16.35 -22.1 -16.3 -18.75 -3.8 -15.6 -7.3
Q -13.45 -5.3 -11 -4.05
L 1.7 3.35 1.45 -1.35
Q 4.3 -1.5 6.9 -2.25
L 21.25 -6.1 17.75 -9.2
Q 19.65 -11.35 21 -13.75
L 28.4 -26.55 23.7 -26.3
M 3.2 -28.5
Q 4.7 -27.15 4.8 -25.2 4.9 -23.25 3.6 -21.8 2.25 -20.35 0.35 -20.25 -1.6 -20.15 -3.05 -21.4 -4.55 -22.75 -4.65 -24.7 -4.75 -26.65 -3.45 -28.1 -2.1 -29.55 -0.15 -29.65 1.75 -29.75 3.2 -28.5
M 18.95 -32.15
Q 16.6 -34.35 13.65 -35.65
L 14 -33.7
Q 10.9 -38.6 6.75 -42.6 10.6 -40.6 13.6 -37.05
L 12.85 -39.4
Q 16.65 -36.4 18.95 -32.15
M 2.55 -11.8
Q 4.7 -14.5 5.85 -17.65
L 3.95 -17.1
Q 8.6 -20.8 12.35 -25.5 10.5 -21.35 7.2 -17.85
L 9.45 -18.85
Q 6.6 -14.65 2.55 -11.8
M -8.4 -32.85
L -8.5 -30.4
Q -6.5 -34.75 -3.25 -38 -6.2 -32.8 -8 -27.1
L -8.15 -29.1
Q -10.75 -26.85 -12.45 -23.9 -11.3 -28.7 -8.4 -32.85
M -6.75 -11.5
L -8.75 -11.8
Q -7.35 -8.9 -5 -6.6 -9.35 -8.75 -12.55 -12.4
L -10.15 -11.75
Q -13.8 -14.6 -16 -18.35 -11.85 -14.45 -6.75 -11.5 Z"/>

<path fill="#CCCCCC" stroke="none" d="
M -8.75 -11.8
L -6.75 -11.5
Q -11.85 -14.45 -16 -18.35 -13.8 -14.6 -10.15 -11.75
L -12.55 -12.4
Q -9.35 -8.75 -5 -6.6 -7.35 -8.9 -8.75 -11.8
M -8.5 -30.4
L -8.4 -32.85
Q -11.3 -28.7 -12.45 -23.9 -10.75 -26.85 -8.15 -29.1
L -8 -27.1
Q -6.2 -32.8 -3.25 -38 -6.5 -34.75 -8.5 -30.4
M 5.85 -17.65
Q 4.7 -14.5 2.55 -11.8 6.6 -14.65 9.45 -18.85
L 7.2 -17.85
Q 10.5 -21.35 12.35 -25.5 8.6 -20.8 3.95 -17.1
L 5.85 -17.65
M 13.65 -35.65
Q 16.6 -34.35 18.95 -32.15 16.65 -36.4 12.85 -39.4
L 13.6 -37.05
Q 10.6 -40.6 6.75 -42.6 10.9 -38.6 14 -33.7
L 13.65 -35.65 Z"/>

<path fill="#808080" stroke="none" d="
M 4.8 -25.2
Q 4.7 -27.15 3.2 -28.5 1.75 -29.75 -0.15 -29.65 -2.1 -29.55 -3.45 -28.1 -4.75 -26.65 -4.65 -24.7 -4.55 -22.75 -3.05 -21.4 -1.6 -20.15 0.35 -20.25 2.25 -20.35 3.6 -21.8 4.9 -23.25 4.8 -25.2
M 0 -27.3
Q 0.95 -27.35 1.65 -26.75 2.4 -26.05 2.5 -25.1 2.5 -24.15 1.85 -23.4 1.25 -22.65 0.3 -22.6 -0.7 -22.55 -1.45 -23.2 -2.2 -23.85 -2.25 -24.8 -2.3 -25.75 -1.65 -26.55 -1 -27.25 0 -27.3 Z"/>
</g>

<path id="Layer0_0_1_STROKES" stroke="#666666" stroke-width="1" stroke-linejoin="round" stroke-linecap="round" fill="none" d="
M -20.75 -36.15
Q -19.45 -38.55 -17.5 -40.7
L -21.05 -43.85 -6.7 -47.65
Q -4.1 -48.4 -1.25 -48.55
L -1.5 -53.25 11.3 -45.8
Q 13.7 -44.5 15.85 -42.6
L 18.95 -46.15 22.8 -31.75 23.7 -26.3 28.4 -26.55 21 -13.75
Q 19.65 -11.35 17.75 -9.2
L 21.25 -6.1 6.9 -2.25
Q 4.3 -1.5 1.45 -1.35
L 1.7 3.35 -11 -4.05
Q -13.45 -5.3 -15.6 -7.3
L -18.75 -3.8 -22.1 -16.3 -22 -16.35 -22.55 -18.05 -23.45 -23.6 -28.2 -23.35 -20.75 -36.15 Z
M -0.15 -29.65
Q 1.75 -29.75 3.2 -28.5 4.7 -27.15 4.8 -25.2 4.9 -23.25 3.6 -21.8 2.25 -20.35 0.35 -20.25 -1.6 -20.15 -3.05 -21.4 -4.55 -22.75 -4.65 -24.7 -4.75 -26.65 -3.45 -28.1 -2.1 -29.55 -0.15 -29.65 Z
M -1.65 -26.55
Q -1 -27.25 0 -27.3 0.95 -27.35 1.65 -26.75 2.4 -26.05 2.5 -25.1 2.5 -24.15 1.85 -23.4 1.25 -22.65 0.3 -22.6 -0.7 -22.55 -1.45 -23.2 -2.2 -23.85 -2.25 -24.8 -2.3 -25.75 -1.65 -26.55 Z"/>
</defs>

<g transform="matrix( 1, 0, 0, 1, 0,0) ">
<use xlink:href="#Layer0_0_FILL"/>

<use xlink:href="#Layer0_0_1_STROKES"/>
</g>
</svg>
