
<svg xmlns="http://www.w3.org/2000/svg" version="1.1" xmlns:xlink="http://www.w3.org/1999/xlink" preserveAspectRatio="none" x="0px" y="0px" width="56.7px" height="56.7px" viewBox="-28.25 -53.3 56.7 56.7">
<defs>
<g id="Layer0_0_FILL">
<path fill="#999999" stroke="none" d="
M 23.75 -25
L 24.2 -39.85 20.25 -37.35 20.2 -37.35
Q 18.7 -39.85 16.8 -41.75
L 6.6 -52.55 5.5 -47.9 -0.05 -48.65 -1.9 -48.55 -1.85 -48.7 -14.8 -49.05 -12.3 -45.05
Q -14.85 -43.45 -16.8 -41.55
L -27.5 -31.45 -22.9 -30.4
Q -23.55 -27.6 -23.55 -24.9
L -24 -10.05 -20 -12.5
Q -18.5 -10.05 -16.6 -8.15
L -15.75 -7.3 -15.75 -7.25 -6.4 2.65 -5.35 -1.95 0.2 -1.3 15 -0.85 12.5 -4.8
Q 15 -6.4 16.9 -8.25
L 27.7 -18.45 23.1 -19.5
Q 23.75 -22.3 23.75 -25
M 1.2 -29.55
Q 3.1 -29.1 4.1 -27.45 5.15 -25.75 4.7 -23.85 4.25 -22 2.6 -20.95 0.9 -19.9 -1 -20.35 -2.9 -20.8 -3.9 -22.45 -4.95 -24.2 -4.5 -26.05 -4.05 -27.95 -2.4 -28.95 -0.7 -30 1.2 -29.55
M 10.1 -30.8
L 7.75 -31.65
Q 11.4 -28.45 13.6 -24.45 9.45 -28.75 4.5 -32.1
L 6.4 -31.7
Q 5 -34.75 2.65 -37.3 6.95 -34.8 10.1 -30.8
M 6.5 -8.9
L 4.55 -9.15
Q 10.1 -10.7 15.1 -13.55 12.1 -10.4 7.85 -8.55
L 10.3 -8.6
Q 6.35 -5.85 1.65 -4.8 4.45 -6.45 6.5 -8.9
M -8.35 -40.6
L -9.65 -38.55
Q -5.85 -41.2 -1.65 -42.2 -6.6 -39.35 -10.8 -35.35
L -10 -37.2
Q -13.15 -36.7 -16 -35.1 -12.7 -38.6 -8.35 -40.6
M -8.55 -23.5
Q -6.3 -17.95 -2.85 -13.05 -6.35 -16 -8.75 -20.2
L -8.4 -17.75
Q -11.6 -21.65 -13.2 -26.35 -11.25 -23.5 -8.55 -21.55
L -8.55 -23.5 Z"/>

<path fill="#CCCCCC" stroke="none" d="
M -2.85 -13.05
Q -6.3 -17.95 -8.55 -23.5
L -8.55 -21.55
Q -11.25 -23.5 -13.2 -26.35 -11.6 -21.65 -8.4 -17.75
L -8.75 -20.2
Q -6.35 -16 -2.85 -13.05
M -9.65 -38.55
L -8.35 -40.6
Q -12.7 -38.6 -16 -35.1 -13.15 -36.7 -10 -37.2
L -10.8 -35.35
Q -6.6 -39.35 -1.65 -42.2 -5.85 -41.2 -9.65 -38.55
M 4.55 -9.15
L 6.5 -8.9
Q 4.45 -6.45 1.65 -4.8 6.35 -5.85 10.3 -8.6
L 7.85 -8.55
Q 12.1 -10.4 15.1 -13.55 10.1 -10.7 4.55 -9.15
M 7.75 -31.65
L 10.1 -30.8
Q 6.95 -34.8 2.65 -37.3 5 -34.75 6.4 -31.7
L 4.5 -32.1
Q 9.45 -28.75 13.6 -24.45 11.4 -28.45 7.75 -31.65 Z"/>

<path fill="#808080" stroke="none" d="
M 4.1 -27.45
Q 3.1 -29.1 1.2 -29.55 -0.7 -30 -2.4 -28.95 -4.05 -27.95 -4.5 -26.05 -4.95 -24.2 -3.9 -22.45 -2.9 -20.8 -1 -20.35 0.9 -19.9 2.6 -20.95 4.25 -22 4.7 -23.85 5.15 -25.75 4.1 -27.45
M 0.65 -27.25
Q 1.6 -27.05 2.15 -26.15 2.6 -25.35 2.4 -24.35 2.15 -23.45 1.35 -22.9 0.5 -22.45 -0.45 -22.6 -1.4 -22.85 -1.9 -23.7 -2.45 -24.55 -2.2 -25.45 -2 -26.45 -1.1 -26.95 -0.3 -27.45 0.65 -27.25 Z"/>
</g>

<path id="Layer0_0_1_STROKES" stroke="#666666" stroke-width="1" stroke-linejoin="round" stroke-linecap="round" fill="none" d="
M 16.8 -41.75
Q 18.7 -39.85 20.2 -37.35
L 20.25 -37.35 24.2 -39.85 23.75 -25
Q 23.75 -22.3 23.1 -19.5
L 27.7 -18.45 16.9 -8.25
Q 15 -6.4 12.5 -4.8
L 15 -0.85 0.2 -1.3 -5.35 -1.95 -6.4 2.65 -15.75 -7.25 -15.75 -7.3 -16.6 -8.15
Q -18.5 -10.05 -20 -12.5
L -24 -10.05 -23.55 -24.9
Q -23.55 -27.6 -22.9 -30.4
L -27.5 -31.45 -16.8 -41.55
Q -14.85 -43.45 -12.3 -45.05
L -14.8 -49.05 -1.85 -48.7 -1.9 -48.55 -0.05 -48.65 5.5 -47.9 6.6 -52.55 16.8 -41.75 Z
M 2.15 -26.15
Q 2.6 -25.35 2.4 -24.35 2.15 -23.45 1.35 -22.9 0.5 -22.45 -0.45 -22.6 -1.4 -22.85 -1.9 -23.7 -2.45 -24.55 -2.2 -25.45 -2 -26.45 -1.1 -26.95 -0.3 -27.45 0.65 -27.25 1.6 -27.05 2.15 -26.15 Z
M 4.7 -23.85
Q 4.25 -22 2.6 -20.95 0.9 -19.9 -1 -20.35 -2.9 -20.8 -3.9 -22.45 -4.95 -24.2 -4.5 -26.05 -4.05 -27.95 -2.4 -28.95 -0.7 -30 1.2 -29.55 3.1 -29.1 4.1 -27.45 5.15 -25.75 4.7 -23.85 Z"/>
</defs>

<g transform="matrix( 1, 0, 0, 1, 0,0) ">
<use xlink:href="#Layer0_0_FILL"/>

<use xlink:href="#Layer0_0_1_STROKES"/>
</g>
</svg>
