
<svg xmlns="http://www.w3.org/2000/svg" version="1.1" xmlns:xlink="http://www.w3.org/1999/xlink" preserveAspectRatio="none" x="0px" y="0px" width="51.85px" height="18.15px" viewBox="-26.35 -11.1 51.85 18.15">
<defs>
<g id="Symbol_508_0_Layer1_0_FILL">
<path fill="#666666" stroke="none" d="
M 25 -0.5
L 25 -9.5 -25 -9.5 -25 -0.5 25 -0.5 Z"/>
</g>

<g id="Symbol_508_0_Layer0_0_FILL">
<path fill="#99FF00" stroke="none" d="
M -25.75 -10.2
L -25.75 -8.85 -25.5 -7.45 -25.85 -5.25 -25.5 -3.6 -25.5 -1.45 -25.25 0.15
Q -25.05 0.5 -25 0.9
L -24.85 1.65
Q -24.15 1.85 -23.9 0.45
L -23.6 -1.85
Q -22.95 -2.95 -22.5 -4.7
L -22.25 -4.85 -22.25 -4.35 -21.6 -4.35 -20.85 -5.6 -19 -3.45
Q -18 -4.1 -18 -5.35
L -16.25 -5.45 -16 -6.6
Q -15.95 -6.85 -15.1 -6.95 -14.65 -7 -14.4 -7.7
L -14.25 -8.45
Q -14.05 -8.95 -12.8 -9.55
L -13.1 -10.1
Q -14.2 -9.9 -15.85 -10.45
L -19.45 -10.6 -22.6 -10.35 -25.75 -10.2
M 17.15 -7.6
L 17.15 -5.35
Q 17.2 -5 17.75 -4.45 18.5 -3.45 18.5 -3
L 18 -0.8
Q 18.4 -0.1 18.4 1.15
L 18.4 3.3 18.4 4.95
Q 18.55 6.55 19.2 6.55 20.1 6.55 20.65 5.4
L 20.9 4.4
Q 21.25 4.3 21.15 3.8
L 21.15 3.5 20.15 1.65
Q 19.65 0.8 19.65 -0.7 19.65 -2.05 20 -3.2
L 20.25 -4.2 20.25 -5.1
Q 20.25 -6.85 20.4 -7.2
L 20.9 -9 20.4 -9.85 18.9 -10.1 16.6 -9.5
Q 16 -9.45 16 -8.9
L 17.15 -7.6
M 3.65 -6.95
L 1.65 -7 2 -4.95 3.35 -3.45
Q 3.95 -3.45 4.15 -4.95
L 5 -6.15
Q 5 -6.6 4.4 -6.7 3.65 -6.7 3.65 -6.95 Z"/>
</g>

<path id="Symbol_508_0_Layer1_0_1_STROKES" stroke="#181818" stroke-width="1" stroke-linejoin="round" stroke-linecap="round" fill="none" d="
M 25 -0.5
L -25 -0.5 -25 -9.5 25 -9.5 25 -0.5 Z"/>

<path id="Symbol_508_0_Layer0_0_1_STROKES" stroke="#599500" stroke-width="1" stroke-linejoin="round" stroke-linecap="round" fill="none" d="
M 1.65 -7
L 2 -4.95 3.35 -3.45
Q 3.95 -3.45 4.15 -4.95
L 5 -6.15
Q 5 -6.6 4.4 -6.7 3.65 -6.7 3.65 -6.95
L 1.65 -7 Z
M 17.15 -5.35
Q 17.2 -5 17.75 -4.45 18.5 -3.45 18.5 -3
L 18 -0.8
Q 18.4 -0.1 18.4 1.15
L 18.4 3.3 18.4 4.95
Q 18.55 6.55 19.2 6.55 20.1 6.55 20.65 5.4
L 20.9 4.4
Q 21.25 4.3 21.15 3.8
L 21.15 3.5 20.15 1.65
Q 19.65 0.8 19.65 -0.7 19.65 -2.05 20 -3.2
L 20.25 -4.2 20.25 -5.1
Q 20.25 -6.85 20.4 -7.2
L 20.9 -9 20.4 -9.85 18.9 -10.1 16.6 -9.5
Q 16 -9.45 16 -8.9
L 17.15 -7.6 17.15 -5.35 Z
M -13.1 -10.1
Q -14.2 -9.9 -15.85 -10.45
L -19.45 -10.6 -22.6 -10.35 -25.75 -10.2 -25.75 -8.85 -25.5 -7.45 -25.85 -5.25 -25.5 -3.6 -25.5 -1.45 -25.25 0.15
Q -25.05 0.5 -25 0.9
L -24.85 1.65
Q -24.15 1.85 -23.9 0.45
L -23.6 -1.85
Q -22.95 -2.95 -22.5 -4.7
L -22.25 -4.85 -22.25 -4.35 -21.6 -4.35 -20.85 -5.6 -19 -3.45
Q -18 -4.1 -18 -5.35
L -16.25 -5.45 -16 -6.6
Q -15.95 -6.85 -15.1 -6.95 -14.65 -7 -14.4 -7.7
L -14.25 -8.45
Q -14.05 -8.95 -12.8 -9.55"/>
</defs>

<g transform="matrix( 1, 0, 0, 1, 0,0) ">
<g transform="matrix( 1, 0, 0, 1, 0,0) ">
<use xlink:href="#Symbol_508_0_Layer1_0_FILL"/>

<use xlink:href="#Symbol_508_0_Layer1_0_1_STROKES"/>
</g>

<g transform="matrix( 1, 0, 0, 1, 0,0) ">
<use xlink:href="#Symbol_508_0_Layer0_0_FILL"/>

<use xlink:href="#Symbol_508_0_Layer0_0_1_STROKES"/>
</g>
</g>
</svg>
