
<svg xmlns="http://www.w3.org/2000/svg" version="1.1" xmlns:xlink="http://www.w3.org/1999/xlink" preserveAspectRatio="none" x="0px" y="0px" width="61px" height="540px" viewBox="-30.6 -540 61 540">
<defs>
<g id="Symbol_512_0_Layer3_0_FILL">
<path fill="#333333" stroke="none" d="
M -20 -160.25
L -20 -170.1 -24.95 -165.1 -20 -160.25
M -20 -179.95
L -24.95 -175.3 -20 -170.25 -20 -179.95
M -20 -180.25
L -20 -190.1 -24.95 -185.1 -20 -180.25
M -24.95 -245.1
L -20 -240.25 -20 -250.1 -24.95 -245.1
M -20 -230.1
L -24.95 -225.1 -20 -220.25 -20 -230.1
M -20 -200.25
L -20 -210.1 -24.95 -205.1 -20 -200.25
M -20 -210.25
L -20 -219.95 -24.95 -215.3 -20 -210.25
M -24.95 -195.3
L -20 -190.25 -20 -199.95 -24.95 -195.3
M -20 -230.25
L -20 -239.95 -24.95 -235.3 -20 -230.25
M -20 -250.25
L -20 -259.95 -24.95 -255.3 -20 -250.25
M -20 -260.25
L -20 -270.1 -24.95 -265.1 -20 -260.25
M -20 -280.25
L -20 -290.1 -24.95 -285.1 -20 -280.25
M -24.95 -275.3
L -20 -270.25 -20 -279.95 -24.95 -275.3
M -24.95 -295.3
L -20 -290.25 -20 -299.95 -24.95 -295.3
M -20 -300.25
L -20 -310.1 -24.95 -305.1 -20 -300.25
M -20 -310.25
L -20 -319.95 -24.95 -315.3 -20 -310.25
M 20 -180
L 20 -170.2 24.95 -175.3 20 -180
M 20 -170.2
L 20 -160.2 24.95 -165.1 20 -170.2
M 20 -190.2
L 24.95 -195.3 20 -200 20 -190.2
M 20 -190.2
L 20 -180.2 24.95 -185.1 20 -190.2
M 20 -210.2
L 20 -200.2 24.95 -205.1 20 -210.2
M 20 -220
L 20 -210.2 24.95 -215.3 20 -220
M 24.95 -225.1
L 20 -230.2 20 -220.2 24.95 -225.1
M 20 -240
L 20 -230.2 24.95 -235.3 20 -240
M 20 -240.2
L 24.95 -245.1 20 -250.2 20 -240.2
M 20 -260
L 20 -250.2 24.95 -255.3 20 -260
M 24.95 -275.3
L 20 -280 20 -270.2 24.95 -275.3
M 20 -270.2
L 20 -260.2 24.95 -265.1 20 -270.2
M 20 -290.2
L 24.95 -295.3 20 -300 20 -290.2
M 20 -290.2
L 20 -280.2 24.95 -285.1 20 -290.2
M 20 -320
L 20 -310.2 24.95 -315.3 20 -320
M 20 -310.2
L 20 -300.2 24.95 -305.1 20 -310.2
M -24.95 -25.1
L -20 -20.25 -20 -30.1 -24.95 -25.1
M -24.95 -45.1
L -20 -40.25 -20 -50.1 -24.95 -45.1
M -20 -0.25
L -20 -10.1 -24.95 -5.1 -20 -0.25
M -20 -10.25
L -20 -19.95 -24.95 -15.3 -20 -10.25
M -20 -30.25
L -20 -39.95 -24.95 -35.3 -20 -30.25
M -20 -60.25
L -20 -70.1 -24.95 -65.1 -20 -60.25
M -20 -50.25
L -20 -59.95 -24.95 -55.3 -20 -50.25
M -20 -79.95
L -24.95 -75.3 -20 -70.25 -20 -79.95
M -20 -80.25
L -20 -90.1 -24.95 -85.1 -20 -80.25
M -24.95 -145.1
L -20 -140.25 -20 -150.1 -24.95 -145.1
M -24.95 -125.1
L -20 -120.25 -20 -130.1 -24.95 -125.1
M -20 -100.25
L -20 -110.1 -24.95 -105.1 -20 -100.25
M -24.95 -95.3
L -20 -90.25 -20 -99.95 -24.95 -95.3
M -20 -110.25
L -20 -119.95 -24.95 -115.3 -20 -110.25
M -20 -130.25
L -20 -139.95 -24.95 -135.3 -20 -130.25
M -20 -150.25
L -20 -159.95 -24.95 -155.3 -20 -150.25
M 20 -10.2
L 20 -0.2 24.95 -5.1 20 -10.2
M 20 -20
L 20 -10.2 24.95 -15.3 20 -20
M 24.95 -25.1
L 20 -30.2 20 -20.2 24.95 -25.1
M 20 -40
L 20 -30.2 24.95 -35.3 20 -40
M 20 -40.2
L 24.95 -45.1 20 -50.2 20 -40.2
M 20 -60
L 20 -50.2 24.95 -55.3 20 -60
M 24.95 -75.3
L 20 -80 20 -70.2 24.95 -75.3
M 20 -70.2
L 20 -60.2 24.95 -65.1 20 -70.2
M 20 -90.2
L 24.95 -95.3 20 -100 20 -90.2
M 20 -90.2
L 20 -80.2 24.95 -85.1 20 -90.2
M 20 -120
L 20 -110.2 24.95 -115.3 20 -120
M 20 -110.2
L 20 -100.2 24.95 -105.1 20 -110.2
M 24.95 -125.1
L 20 -130.2 20 -120.2 24.95 -125.1
M 20 -140
L 20 -130.2 24.95 -135.3 20 -140
M 20 -140.2
L 24.95 -145.1 20 -150.2 20 -140.2
M 20 -150.2
L 24.95 -155.3 20 -160 20 -150.2 Z"/>

<path fill="#43233E" stroke="none" d="
M -20 -180
L -20 -179.95 -19.95 -180 -20 -180
M -20 -220
L -20 -219.95 -19.95 -220 -20 -220
M -20 -199.95
L -19.95 -200 -20 -200 -20 -199.95
M -20 -239.95
L -19.95 -240 -20 -240 -20 -239.95
M -19.95 -260
L -20 -260 -20 -259.95 -19.95 -260
M -20 -280
L -20 -279.95 -19.95 -280 -20 -280
M -19.95 -300
L -20 -300 -20 -299.95 -19.95 -300
M -20 -320
L -20 -319.95 -19.95 -320 -20 -320
M -20 -20
L -20 -19.95 -19.95 -20 -20 -20
M -19.95 -40
L -20 -40 -20 -39.95 -19.95 -40
M -20 -60
L -20 -59.95 -19.95 -60 -20 -60
M -20 -79.95
L -19.95 -80 -20 -80 -20 -79.95
M -20 -99.95
L -19.95 -100 -20 -100 -20 -99.95
M -20 -119.95
L -19.95 -120 -20 -120 -20 -119.95
M -20 -140
L -20 -139.95 -19.95 -140 -20 -140
M -20 -160
L -20 -159.95 -19.95 -160 -20 -160 Z"/>
</g>

<g id="Symbol_512_0_Layer2_0_FILL">
<path fill="#43233E" stroke="none" d="
M 20 0
L 20 -320 -19.95 -320 -20 -319.95 -20 -300 -19.95 -300 -20 -299.95 -20 -280 -19.95 -280 -20 -279.95 -20 -260 -19.95 -260 -20 -259.95 -20 -240 -19.95 -240 -20 -239.95 -20 -220 -19.95 -220 -20 -219.95 -20 -200 -19.95 -200 -20 -199.95 -20 -180 -19.95 -180 -20 -179.95 -20 -160 -19.95 -160 -20 -159.95 -20 -140 -19.95 -140 -20 -139.95 -20 -120 -19.95 -120 -20 -119.95 -20 -100 -19.95 -100 -20 -99.95 -20 -80 -19.95 -80 -20 -79.95 -20 -60 -19.95 -60 -20 -59.95 -20 -40 -19.95 -40 -20 -39.95 -20 -20 -19.95 -20 -20 -19.95 -20 0 20 0 Z"/>
</g>

<g id="Symbol_512_0_Layer1_0_FILL">
<path fill="#383D29" stroke="none" d="
M -10 -319.95
L -10 -300 -9.95 -300 -10 -299.95 -10 -280 -9.95 -280 -10 -279.95 -10 -260 -9.95 -260 -10 -259.95 -10 -240 -9.95 -240 -10 -239.95 -10 -220 -9.95 -220 -10 -219.95 -10 -200 -9.95 -200 -10 -199.95 -10 -180 -9.95 -180 -10 -179.95 -10 -160 -9.95 -160 -10 -159.95 -10 -140 -9.95 -140 -10 -139.95 -10 -120 -9.95 -120 -10 -119.95 -10 -100 -9.95 -100 -10 -99.95 -10 -80 -9.95 -80 -10 -79.95 -10 -60 -9.95 -60 -10 -59.95 -10 -40 -9.95 -40 -10 -39.95 -10 -20 -9.95 -20 -10 -19.95 -10 0 10 0 10 -320 -9.95 -320 -10 -319.95 Z"/>
</g>

<g id="Symbol_512_0_Layer0_0_FILL">
<path fill="#99FFFF" stroke="none" d="
M 1 0
L 1 -320 -1 -320 -1 0 1 0 Z"/>
</g>

<path id="Symbol_512_0_Layer3_0_1_STROKES" stroke="#000000" stroke-width="1" stroke-linejoin="round" stroke-linecap="square" fill="none" d="
M 20 -310.2
L 24.95 -305.1 20 -300.2
M 20 -290.2
L 24.95 -285.1 20 -280.2
M 20 -270.2
L 24.95 -265.1 20 -260.2
M 20 -250.2
L 24.95 -245.1 20 -240.2
M 20 -230.2
L 24.95 -225.1 20 -220.2
M 20 -210.2
L 24.95 -205.1 20 -200.2
M 20 -190.2
L 24.95 -185.1 20 -180.2
M 20 -150.2
L 24.95 -145.1 20 -140.2
M 20 -170.2
L 24.95 -165.1 20 -160.2
M 20 -130.2
L 24.95 -125.1 20 -120.2
M 20 -110.2
L 24.95 -105.1 20 -100.2
M 20 -90.2
L 24.95 -85.1 20 -80.2
M 20 -70.2
L 24.95 -65.1 20 -60.2
M 20 -50.2
L 24.95 -45.1 20 -40.2
M 20 -30.2
L 24.95 -25.1 20 -20.2
M 20 -10.2
L 24.95 -5.1 20 -0.2
M -20 -310.1
L -24.95 -305.1 -20 -300.25
M -20 -290.1
L -24.95 -285.1 -20 -280.25
M -20 -270.1
L -24.95 -265.1 -20 -260.25
M -20 -210.1
L -24.95 -205.1 -20 -200.25
M -20 -230.1
L -24.95 -225.1 -20 -220.25
M -20 -250.1
L -24.95 -245.1 -20 -240.25
M -20 -190.1
L -24.95 -185.1 -20 -180.25
M -20 -170.1
L -24.95 -165.1 -20 -160.25
M -20 -110.1
L -24.95 -105.1 -20 -100.25
M -20 -130.1
L -24.95 -125.1 -20 -120.25
M -20 -150.1
L -24.95 -145.1 -20 -140.25
M -20 -90.1
L -24.95 -85.1 -20 -80.25
M -20 -70.1
L -24.95 -65.1 -20 -60.25
M -20 -10.1
L -24.95 -5.1 -20 -0.25
M -20 -50.1
L -24.95 -45.1 -20 -40.25
M -20 -30.1
L -24.95 -25.1 -20 -20.25"/>

<path id="Symbol_512_0_Layer3_0_2_STROKES" stroke="#000000" stroke-width="1" stroke-linejoin="round" stroke-linecap="round" fill="none" d="
M 20 -320
L 24.95 -315.3 20 -310.2
M 20 -300
L 24.95 -295.3 20 -290.2
M 20 -280
L 24.95 -275.3 20 -270.2
M 20 -260
L 24.95 -255.3 20 -250.2
M 20 -240
L 24.95 -235.3 20 -230.2
M 20 -220
L 24.95 -215.3 20 -210.2
M 20 -200
L 24.95 -195.3 20 -190.2
M 20 -160
L 24.95 -155.3 20 -150.2
M 20 -180
L 24.95 -175.3 20 -170.2
M 20 -140
L 24.95 -135.3 20 -130.2
M 20 -120
L 24.95 -115.3 20 -110.2
M 20 -100
L 24.95 -95.3 20 -90.2
M 20 -80
L 24.95 -75.3 20 -70.2
M 20 -60
L 24.95 -55.3 20 -50.2
M 20 -40
L 24.95 -35.3 20 -30.2
M 20 -20
L 24.95 -15.3 20 -10.2
M -20 -290.25
L -24.95 -295.3 -20 -299.95
M -20 -319.95
L -24.95 -315.3 -20 -310.25
M -20 -250.25
L -24.95 -255.3 -20 -259.95
M -20 -270.25
L -24.95 -275.3 -20 -279.95
M -20 -230.25
L -24.95 -235.3 -20 -239.95
M -20 -190.25
L -24.95 -195.3 -20 -199.95
M -20 -219.95
L -24.95 -215.3 -20 -210.25
M -20 -150.25
L -24.95 -155.3 -20 -159.95
M -20 -170.25
L -24.95 -175.3 -20 -179.95
M -20 -139.95
L -24.95 -135.3 -20 -130.25
M -20 -110.25
L -24.95 -115.3 -20 -119.95
M -20 -90.25
L -24.95 -95.3 -20 -99.95
M -20 -70.25
L -24.95 -75.3 -20 -79.95
M -20 -59.95
L -24.95 -55.3 -20 -50.25
M -20 -30.25
L -24.95 -35.3 -20 -39.95
M -20 -19.95
L -24.95 -15.3 -20 -10.25"/>

<path id="Symbol_512_0_Layer3_0_3_STROKES" stroke="#000000" stroke-width="0.7" stroke-linejoin="round" stroke-linecap="round" fill="none" d="
M -20 -320
L -20 -319.95
M -20 -300
L -20 -299.95
M -20 -280
L -20 -279.95
M -20 -260
L -20 -259.95
M -20 -240
L -20 -239.95
M -20 -200
L -20 -199.95
M -20 -220
L -20 -219.95
M -20 -180
L -20 -179.95
M -20 -160
L -20 -159.95
M -20 -140
L -20 -139.95
M -20 -120
L -20 -119.95
M -20 -100
L -20 -99.95
M -20 -80
L -20 -79.95
M -20 -60
L -20 -59.95
M -20 -40
L -20 -39.95
M -20 -20
L -20 -19.95"/>

<path id="Symbol_512_0_Layer2_0_1_STROKES" stroke="#000000" stroke-width="0.7" stroke-linejoin="round" stroke-linecap="square" fill="none" d="
M 20 -320
L 20 0
M -20 0
L -20 -19.95
M -20 -20
L -20 -39.95
M -20 -40
L -20 -59.95
M -20 -60
L -20 -79.95
M -20 -80
L -20 -99.95
M -20 -100
L -20 -119.95
M -20 -120
L -20 -139.95
M -20 -140
L -20 -159.95
M -20 -160
L -20 -179.95
M -20 -180
L -20 -199.95
M -20 -200
L -20 -219.95
M -20 -220
L -20 -239.95
M -20 -240
L -20 -259.95
M -20 -260
L -20 -279.95
M -20 -280
L -20 -299.95
M -20 -300
L -20 -319.95"/>
</defs>

<g transform="matrix( 1.1963958740234375, 0, 0, 1.6875, -0.15,0) ">
<g transform="matrix( 1, 0, 0, 1, 0,0) ">
<g transform="matrix( 1, 0, 0, 1, 0,0) ">
<use xlink:href="#Symbol_512_0_Layer3_0_FILL"/>

<use xlink:href="#Symbol_512_0_Layer3_0_1_STROKES"/>

<use xlink:href="#Symbol_512_0_Layer3_0_2_STROKES"/>

<use xlink:href="#Symbol_512_0_Layer3_0_3_STROKES"/>
</g>

<g transform="matrix( 1, 0, 0, 1, 0,0) ">
<use xlink:href="#Symbol_512_0_Layer2_0_FILL"/>

<use xlink:href="#Symbol_512_0_Layer2_0_1_STROKES"/>
</g>

<g transform="matrix( 1, 0, 0, 1, 0,0) ">
<use xlink:href="#Symbol_512_0_Layer1_0_FILL"/>
</g>

<g transform="matrix( 1, 0, 0, 1, 0,0) ">
<use xlink:href="#Symbol_512_0_Layer0_0_FILL"/>
</g>
</g>
</g>
</svg>
