
<svg xmlns="http://www.w3.org/2000/svg" version="1.1" xmlns:xlink="http://www.w3.org/1999/xlink" preserveAspectRatio="none" x="0px" y="0px" width="43.85px" height="62.6px" viewBox="-21.75 -45.25 43.85 62.6">
<defs>
<g id="Symbol_506_46_Layer3_0_FILL">
<path fill="#99FF00" stroke="none" d="
M 34.2 18.25
Q 34.35 11.05 33.45 3.85 29.65 -0.4 24.1 0.9
L 22.25 2.15
Q 14.55 -2.7 7.6 3.4
L 5.5 7.25 1.65 11.4
Q -1.6 31.1 1.6 46.95
L 6.1 33.35 9.3 40.2 13.65 31.85
Q 18.35 43.45 18.05 55.9 22.45 45.7 21.9 31.1
L 26.35 36.1 27.5 30.95 34 56 31.5 60 33.6 62.6 34.85 61.8 35.85 60.45 36.2 59.6
Q 37.05 57.55 36.75 55.35 33.75 36.7 34.2 18.25
M 3 30.75
L 4.75 26.25
Q 10.95 21.75 19.2 21.8
L 25.9 22.1
Q 30.8 24.2 30.8 29.2 27.05 25.6 21.75 26.25 16.3 26.1 11.2 28.15 7.1 29.7 3 30.75 Z"/>

<path fill="#000000" stroke="none" d="
M 4.75 26.25
L 3 30.75
Q 7.1 29.7 11.2 28.15 16.3 26.1 21.75 26.25 27.05 25.6 30.8 29.2 30.8 24.2 25.9 22.1
L 19.2 21.8
Q 10.95 21.75 4.75 26.25 Z"/>
</g>

<g id="Symbol_500_0_Layer1_0_FILL">
<path fill="#FFFFFF" stroke="none" d="
M 10.3 10.3
Q 12.05 8.55 12.05 6.05 12.05 3.55 10.3 1.75 8.55 0 6.05 0 3.5 0 1.75 1.75 0 3.55 0 6.05 0 8.55 1.75 10.3 3.5 12.1 6.05 12.1 8.55 12.1 10.3 10.3 Z"/>
</g>

<g id="Symbol_500_0_Layer0_0_FILL">
<path fill="#660000" stroke="none" d="
M 1.1 8.1
Q 2 9 3.25 9 4.5 9 5.35 8.1 6.25 7.25 6.25 6 6.25 4.75 5.35 3.85 4.5 3 3.25 3 2 3 1.1 3.85 0.25 4.75 0.25 6 0.25 7.25 1.1 8.1 Z"/>
</g>

<path id="Symbol_506_46_Layer3_0_1_STROKES" stroke="#599500" stroke-width="1" stroke-linejoin="round" stroke-linecap="round" fill="none" d="
M 34.2 18.25
Q 33.75 36.7 36.75 55.35 37.05 57.55 36.2 59.6
L 35.85 60.45 34.85 61.8 33.6 62.6 31.5 60 34 56 27.5 30.95 26.35 36.1 21.9 31.1
Q 22.45 45.7 18.05 55.9 18.35 43.45 13.65 31.85
L 9.3 40.2 6.1 33.35 1.6 46.95
Q -1.6 31.1 1.65 11.4
L 5.5 7.25 7.6 3.4
Q 14.55 -2.7 22.25 2.15
L 24.1 0.9
Q 29.65 -0.4 33.45 3.85 34.35 11.05 34.2 18.25 Z"/>

<path id="Symbol_500_0_Layer1_0_1_STROKES" stroke="#599500" stroke-width="1" stroke-linejoin="round" stroke-linecap="round" fill="none" d="
M 10.3 10.3
Q 8.55 12.1 6.05 12.1 3.5 12.1 1.75 10.3 0 8.55 0 6.05 0 3.55 1.75 1.75 3.5 0 6.05 0 8.55 0 10.3 1.75 12.05 3.55 12.05 6.05 12.05 8.55 10.3 10.3 Z"/>
</defs>

<g transform="matrix( 1.10809326171875, 0, 0, 0.936279296875, -20.25,-43.25) ">
<g transform="matrix( 1, 0, 0, 1, 0,0) ">
<use xlink:href="#Symbol_506_46_Layer3_0_FILL"/>

<use xlink:href="#Symbol_506_46_Layer3_0_1_STROKES"/>
</g>

<g transform="matrix( 1, 0, 0, 1, 3.55,8.25) ">
<g transform="matrix( 0.105133056640625, -0.993865966796875, 0.993865966796875, 0.105133056640625, -0.6,11.3) ">
<g transform="matrix( 1, 0, 0, 1, 0,0) ">
<g transform="matrix( 1, 0, 0, 1, 0,0) ">
<use xlink:href="#Symbol_500_0_Layer1_0_FILL"/>

<use xlink:href="#Symbol_500_0_Layer1_0_1_STROKES"/>
</g>

<g transform="matrix( 1, 0, 0, 1, 0,0) ">
<use xlink:href="#Symbol_500_0_Layer0_0_FILL"/>
</g>
</g>
</g>
</g>

<g transform="matrix( -1, 0, 0, -1, 30.55,19.85) ">
<g transform="matrix( 0.105133056640625, -0.993865966796875, 0.993865966796875, 0.105133056640625, -0.6,11.3) ">
<g transform="matrix( 1, 0, 0, 1, 0,0) ">
<g transform="matrix( 1, 0, 0, 1, 0,0) ">
<use xlink:href="#Symbol_500_0_Layer1_0_FILL"/>

<use xlink:href="#Symbol_500_0_Layer1_0_1_STROKES"/>
</g>

<g transform="matrix( 1, 0, 0, 1, 0,0) ">
<use xlink:href="#Symbol_500_0_Layer0_0_FILL"/>
</g>
</g>
</g>
</g>
</g>
</svg>
