
<svg xmlns="http://www.w3.org/2000/svg" version="1.1" xmlns:xlink="http://www.w3.org/1999/xlink" preserveAspectRatio="none" x="0px" y="0px" width="30px" height="30px" viewBox="0 0 30 30">
<defs>
<g id="Layer0_0_FILL">
<path fill="#000000" fill-opacity="0.3" stroke="none" d="
M 10 14.05
L 10 16.05 12 16.05 12 14.05 10 14.05
M 30 6
L 30 4 4 4 4 26.1 30 26.1 30 24.1 6 24.1 6 6 30 6 Z"/>

<path fill="#FFFFFF" fill-opacity="0.2" stroke="none" d="
M 30 4
L 30 2 2 2 2 28.1 30 28.1 30 26.1 4 26.1 4 4 30 4
M 30 8.05
L 30 6 6 6 6 24.1 30 24.1 30 22.05 8 22.05 8 16.05 7.95 16.05 7.95 14.05 8 14.05 8 8.05 30 8.05 Z"/>

<path fill="#000000" stroke="none" d="
M 30 2
L 30 0 0 0 0 30.1 30 30.1 30 28.1 2 28.1 2 2 30 2 Z"/>
</g>
</defs>

<g transform="matrix( 1, 0, 0, 1, 0,0) ">
<use xlink:href="#Layer0_0_FILL"/>
</g>
</svg>
