
<svg xmlns="http://www.w3.org/2000/svg" version="1.1" xmlns:xlink="http://www.w3.org/1999/xlink" preserveAspectRatio="none" x="0px" y="0px" width="30px" height="30px" viewBox="0 0 30 30">
<defs>
<g id="Layer0_0_FILL">
<path fill="#000000" fill-opacity="0.14901960784313725" stroke="none" d="
M 24.05 30
L 26.1 30 26.1 4 -0.05 4 -0.05 6 24.05 6 24.05 30 Z"/>

<path fill="#FFFFFF" fill-opacity="0.09803921568627451" stroke="none" d="
M 26.1 30
L 28.1 30 28.1 2 -0.05 2 -0.05 4 26.1 4 26.1 30
M 14 8
L 14 7.95 16.05 7.95 16.05 8 22.05 8 22.05 30 24.05 30 24.05 6 -0.05 6 -0.05 8 14 8 Z"/>

<path fill="#000000" fill-opacity="0.4980392156862745" stroke="none" d="
M 28.1 30
L 30.1 30 30.1 0 -0.05 0 -0.05 2 28.1 2 28.1 30 Z"/>
</g>
</defs>

<g transform="matrix( 1, 0, 0, 1, 0,0) ">
<use xlink:href="#Layer0_0_FILL"/>
</g>
</svg>
