
<svg xmlns="http://www.w3.org/2000/svg" version="1.1" xmlns:xlink="http://www.w3.org/1999/xlink" preserveAspectRatio="none" x="0px" y="0px" width="30px" height="30px" viewBox="0 0 30 30">
<defs>
<g id="Layer0_0_FILL">
<path fill="#000000" fill-opacity="0.3" stroke="none" d="
M 14 10.1
L 14 12.1 16 12.1 16 10.1 14 10.1
M 30 6.05
L 30 4.05 0 4.05 0 6.05 30 6.05 Z"/>

<path fill="#FFFFFF" fill-opacity="0.2" stroke="none" d="
M 30 8.05
L 30 6.05 0 6.05 0 8.05 30 8.05
M 30 4.05
L 30 2 0 2 0 4.05 30 4.05 Z"/>

<path fill="#000000" stroke="none" d="
M 30 2
L 30 0 0 0 0 2 30 2 Z"/>
</g>
</defs>

<g transform="matrix( 1, 0, 0, 1, 0,0) ">
<use xlink:href="#Layer0_0_FILL"/>
</g>
</svg>
