
<svg xmlns="http://www.w3.org/2000/svg" version="1.1" xmlns:xlink="http://www.w3.org/1999/xlink" preserveAspectRatio="none" x="0px" y="0px" width="30px" height="30px" viewBox="0 0 30 30">
<defs>
<g id="Layer0_0_FILL">
<path fill="#000000" fill-opacity="0.3" stroke="none" d="
M 12.05 14
L 10.05 14 10.05 16 12.05 16 12.05 14
M 6.05 0
L 4 0 4 30 6.05 30 6.05 0 Z"/>

<path fill="#000000" stroke="none" d="
M 2 0
L 0 0 0 30 2 30 2 0 Z"/>

<path fill="#FFFFFF" fill-opacity="0.2" stroke="none" d="
M 8.05 0
L 6.05 0 6.05 30 8.05 30 8.05 0
M 4 0
L 2 0 2 30 4 30 4 0 Z"/>
</g>
</defs>

<g transform="matrix( 1, 0, 0, 1, 0,0) ">
<use xlink:href="#Layer0_0_FILL"/>
</g>
</svg>
