
<svg xmlns="http://www.w3.org/2000/svg" version="1.1" xmlns:xlink="http://www.w3.org/1999/xlink" preserveAspectRatio="none" x="0px" y="0px" width="30px" height="30px" viewBox="0 0 30 30">
<defs>
<g id="Layer0_0_FILL">
<path fill="#000000" fill-opacity="0.3" stroke="none" d="
M 10.05 12
L 12.05 12 12.05 10 10.05 10 10.05 12
M 30.15 6
L 30.15 4 4 4 4 30 6.05 30 6.05 6 30.15 6 Z"/>

<path fill="#FFFFFF" fill-opacity="0.2" stroke="none" d="
M 30.15 4
L 30.15 2 2 2 2 30 4 30 4 4 30.15 4
M 30.15 8
L 30.15 6 6.05 6 6.05 30 8.05 30 8.05 8 14.05 8 14.05 7.95 16.1 7.95 16.1 8 30.15 8 Z"/>

<path fill="#000000" stroke="none" d="
M 30.15 2
L 30.15 0 0 0 0 30 2 30 2 2 30.15 2 Z"/>
</g>
</defs>

<g transform="matrix( 1, 0, 0, 1, 0,0) ">
<use xlink:href="#Layer0_0_FILL"/>
</g>
</svg>
