
<svg xmlns="http://www.w3.org/2000/svg" version="1.1" xmlns:xlink="http://www.w3.org/1999/xlink" preserveAspectRatio="none" x="0px" y="0px" width="30px" height="30px" viewBox="0 0 30 30">
<defs>
<g id="Layer0_0_FILL">
<path fill="#000000" fill-opacity="0.3" stroke="none" d="
M 16.05 20
L 16.05 18 14.05 18 14.05 20 16.05 20
M 16.05 12
L 16.05 10 14.05 10 14.05 12 16.05 12
M 30.05 24
L 0.05 24 0.05 26.05 30.05 26.05 30.05 24
M 30.05 6
L 30.05 3.95 0.05 3.95 0.05 6 30.05 6 Z"/>

<path fill="#000000" stroke="none" d="
M 0.05 28.05
L 0.05 30.05 30.05 30.05 30.05 28.05 0.05 28.05
M 30.05 -0.05
L 0.05 -0.05 0.05 1.95 30.05 1.95 30.05 -0.05 Z"/>

<path fill="#FFFFFF" fill-opacity="0.2" stroke="none" d="
M 0.05 26.05
L 0.05 28.05 30.05 28.05 30.05 26.05 0.05 26.05
M 30.05 24
L 30.05 22 0.05 22 0.05 24 30.05 24
M 30.05 8
L 30.05 6 0.05 6 0.05 8 30.05 8
M 30.05 3.95
L 30.05 1.95 0.05 1.95 0.05 3.95 30.05 3.95 Z"/>
</g>
</defs>

<g transform="matrix( 1, 0, 0, 1, 0,0) ">
<use xlink:href="#Layer0_0_FILL"/>
</g>
</svg>
