
<svg xmlns="http://www.w3.org/2000/svg" version="1.1" xmlns:xlink="http://www.w3.org/1999/xlink" preserveAspectRatio="none" x="0px" y="0px" width="30px" height="30px" viewBox="0 0 30 30">
<defs>
<g id="Layer0_0_FILL">
<path fill="#000000" fill-opacity="0.3" stroke="none" d="
M 14 18
L 14 20 16 20 16 18 14 18
M 0 26.05
L 30 26.05 30 24.05 0 24.05 0 26.05 Z"/>

<path fill="#000000" stroke="none" d="
M 0 28.1
L 0 30.1 30 30.1 30 28.1 0 28.1 Z"/>

<path fill="#FFFFFF" fill-opacity="0.2" stroke="none" d="
M 0 26.05
L 0 28.1 30 28.1 30 26.05 0 26.05
M 30 24.05
L 30 22.05 0 22.05 0 24.05 30 24.05 Z"/>
</g>
</defs>

<g transform="matrix( 1, 0, 0, 1, 0,0) ">
<use xlink:href="#Layer0_0_FILL"/>
</g>
</svg>
