
<svg xmlns="http://www.w3.org/2000/svg" version="1.1" xmlns:xlink="http://www.w3.org/1999/xlink" preserveAspectRatio="none" x="0px" y="0px" width="30px" height="30px" viewBox="0 0 30 30">
<defs>
<g id="Layer0_0_FILL">
<path fill="#000000" fill-opacity="0.4980392156862745" stroke="none" d="
M 0 0
L 0 2 28 2 28 28.1 0 28.1 0 30.1 30 30.1 30 0 0 0 Z"/>

<path fill="#FFFFFF" fill-opacity="0.09803921568627451" stroke="none" d="
M 0 2
L 0 4 26 4 26 26.1 0 26.1 0 28.1 28 28.1 28 2 0 2
M 22 16.05
L 22 22.05 0 22.05 0 24.1 24 24.1 24 6 0 6 0 8.05 22 8.05 22 14.05 22.05 14.05 22.05 16.05 22 16.05 Z"/>

<path fill="#000000" fill-opacity="0.14901960784313725" stroke="none" d="
M 24 6
L 24 24.1 0 24.1 0 26.1 26 26.1 26 4 0 4 0 6 24 6 Z"/>
</g>
</defs>

<g transform="matrix( 1, 0, 0, 1, 0,0) ">
<use xlink:href="#Layer0_0_FILL"/>
</g>
</svg>
