
<svg xmlns="http://www.w3.org/2000/svg" version="1.1" xmlns:xlink="http://www.w3.org/1999/xlink" preserveAspectRatio="none" x="0px" y="0px" width="30px" height="30px" viewBox="0 0 30 30">
<defs>
<g id="Layer0_0_FILL">
<path fill="#000000" fill-opacity="0.3" stroke="none" d="
M 16.1 18
L 14.05 18 14.05 20 16.1 20 16.1 18
M 24.1 0
L 24.1 24 6.05 24 6.05 0 4 0 4 26 26.15 26 26.15 0 24.1 0 Z"/>

<path fill="#FFFFFF" fill-opacity="0.2" stroke="none" d="
M 28.15 0
L 26.15 0 26.15 26 4 26 4 0 2 0 2 28 28.15 28 28.15 0
M 24.1 0
L 22.1 0 22.1 22 16.1 22 16.1 22.05 14.05 22.05 14.05 22 8.05 22 8.05 0 6.05 0 6.05 24 24.1 24 24.1 0 Z"/>

<path fill="#000000" stroke="none" d="
M 30.15 0
L 28.15 0 28.15 28 2 28 2 0 0 0 0 30 30.15 30 30.15 0 Z"/>
</g>
</defs>

<g transform="matrix( 1, 0, 0, 1, 0,0) ">
<use xlink:href="#Layer0_0_FILL"/>
</g>
</svg>
