
<svg xmlns="http://www.w3.org/2000/svg" version="1.1" xmlns:xlink="http://www.w3.org/1999/xlink" preserveAspectRatio="none" x="0px" y="0px" width="30px" height="30px" viewBox="0 0 30 30">
<defs>
<g id="Layer0_0_FILL">
<path fill="#000000" fill-opacity="0.3" stroke="none" d="
M 14.05 12
L 16.1 12 16.1 10 14.05 10 14.05 12
M 4 30
L 6.05 30 6.05 6 24.1 6 24.1 30 26.15 30 26.15 4 4 4 4 30 Z"/>

<path fill="#FFFFFF" fill-opacity="0.2" stroke="none" d="
M 2 30
L 4 30 4 4 26.15 4 26.15 30 28.15 30 28.15 2 2 2 2 30
M 16.1 7.95
L 16.1 8 22.1 8 22.1 30 24.1 30 24.1 6 6.05 6 6.05 30 8.05 30 8.05 8 14.05 8 14.05 7.95 16.1 7.95 Z"/>

<path fill="#000000" stroke="none" d="
M 0 30
L 2 30 2 2 28.15 2 28.15 30 30.15 30 30.15 0 0 0 0 30 Z"/>
</g>
</defs>

<g transform="matrix( 1, 0, 0, 1, 0,0) ">
<use xlink:href="#Layer0_0_FILL"/>
</g>
</svg>
