
<svg xmlns="http://www.w3.org/2000/svg" version="1.1" xmlns:xlink="http://www.w3.org/1999/xlink" preserveAspectRatio="none" x="0px" y="0px" width="33px" height="45px" viewBox="0 0 33 45">
<defs>
<g id="Layer0_0_FILL">
<path fill="#000000" stroke="none" d="
M 28.85 17.7
L 28.1 17.7 28.1 19.95
Q 27.85 19.65 27.65 19.5 27.3 19.3 26.8 19.3 25.9 19.3 25.4 20 24.9 20.75 24.9 21.7 24.9 22.75 25.45 23.4 25.95 24 26.7 24 27.2 24 27.55 23.8 27.9 23.65 28.15 23.25
L 28.15 23.85 28.85 23.85 28.85 17.7
M 25.7 21.65
Q 25.7 20.8 26.05 20.4 26.4 19.95 26.95 19.95 27.45 19.95 27.8 20.35 28.15 20.75 28.15 21.6 28.15 22.45 27.8 22.9 27.45 23.35 26.95 23.35 26.3 23.35 26 22.85 25.7 22.4 25.7 21.65
M 23.35 20.95
Q 23.25 21.1 23 21.15
L 21.8 21.3
Q 21.15 21.35 20.8 21.7 20.4 22.05 20.4 22.7 20.4 23.25 20.8 23.6 21.2 24 21.8 24 22.3 24 22.75 23.8 23.2 23.55 23.4 23.25 23.45 23.5 23.55 23.65 23.7 23.95 24.1 23.95
L 24.35 23.95 24.6 23.85 24.6 23.3 24.5 23.35 24.4 23.35
Q 24.2 23.35 24.2 23.25 24.15 23.2 24.15 23.1
L 24.15 20.5
Q 24.15 19.85 23.65 19.55 23.15 19.25 22.35 19.25 21.7 19.25 21.15 19.6 20.65 19.9 20.65 20.75
L 21.35 20.75
Q 21.35 20.4 21.5 20.2 21.75 19.9 22.35 19.9 22.85 19.9 23.1 20.1 23.4 20.25 23.4 20.65 23.4 20.85 23.35 20.95
M 21.55 22.05
Q 21.75 21.9 22.15 21.85
L 22.6 21.8 23 21.7
Q 23.25 21.65 23.35 21.6
L 23.35 22.2
Q 23.35 22.85 22.75 23.2 22.4 23.35 22 23.35 21.65 23.35 21.4 23.15 21.2 23 21.2 22.65 21.2 22.25 21.55 22.05
M 19.75 20.85
Q 19.65 20.4 19.45 20.1 19.2 19.7 18.75 19.5 18.3 19.3 17.85 19.3 16.9 19.3 16.35 19.95 15.75 20.6 15.75 21.7 15.75 22.8 16.3 23.4 16.9 24 17.75 24 18.05 24 18.35 23.95 18.85 23.8 19.2 23.5 19.4 23.3 19.55 23 19.7 22.7 19.75 22.45
L 19 22.45
Q 18.95 22.75 18.75 22.95 18.4 23.35 17.8 23.35 17.15 23.35 16.85 22.95 16.55 22.55 16.55 21.85
L 19.8 21.85
Q 19.8 21.2 19.75 20.85
M 17.8 19.95
Q 18.5 19.95 18.8 20.45 19 20.75 19.05 21.25
L 16.55 21.25
Q 16.6 20.7 16.95 20.3 17.3 19.95 17.8 19.95
M 15.05 17.7
L 14.3 17.7 14.3 19.95
Q 14.05 19.65 13.85 19.5 13.5 19.3 13 19.3 12.1 19.3 11.6 20 11.1 20.75 11.1 21.7 11.1 22.75 11.65 23.4 12.15 24 12.9 24 13.4 24 13.75 23.8 14.1 23.65 14.35 23.25
L 14.35 23.85 15.05 23.85 15.05 17.7
M 14 20.35
Q 14.35 20.75 14.35 21.6 14.35 22.45 14 22.9 13.65 23.35 13.15 23.35 12.5 23.35 12.2 22.85 11.9 22.4 11.9 21.65 11.9 20.8 12.25 20.4 12.6 19.95 13.15 19.95 13.65 19.95 14 20.35
M 7.65 20.65
L 8.35 20.65
Q 8.35 20.25 8.1 19.85 7.65 19.25 6.6 19.25 5.85 19.25 5.35 19.65 4.9 20.05 4.9 20.7 4.9 21.2 5.4 21.5 5.65 21.7 6.25 21.85
L 6.85 22
Q 7.35 22.1 7.5 22.2 7.75 22.35 7.75 22.65 7.75 23 7.45 23.2 7.1 23.4 6.7 23.4 6 23.4 5.7 23 5.55 22.8 5.5 22.45
L 4.8 22.45
Q 4.8 23.1 5.25 23.55 5.65 24 6.65 24 7.6 24 8.05 23.6 8.5 23.15 8.5 22.55 8.5 21.95 8.1 21.65 7.8 21.45 6.95 21.25
L 6.45 21.15
Q 6.15 21.05 5.95 20.95 5.65 20.8 5.65 20.5 5.65 20.25 5.9 20.05 6.1 19.9 6.55 19.9 7.2 19.9 7.45 20.2 7.65 20.4 7.65 20.65
M 3.3 23.85
L 4.05 23.85 4.05 19.4 3.3 19.4 3.3 23.85
M 3.3 17.7
L 3.3 18.55 4.05 18.55 4.05 17.7 3.3 17.7
M 27.2 8.6
Q 26.25 8.6 25.7 9.25 25.1 9.9 25.1 11 25.1 12.1 25.65 12.7 26.25 13.3 27.1 13.3 27.4 13.3 27.7 13.25 28.2 13.1 28.55 12.8 28.75 12.6 28.9 12.3 29.05 12 29.1 11.75
L 28.35 11.75
Q 28.3 12.05 28.1 12.25 27.75 12.65 27.15 12.65 26.5 12.65 26.2 12.25 25.9 11.85 25.9 11.15
L 29.15 11.15
Q 29.15 10.5 29.1 10.15 29 9.7 28.8 9.4 28.55 9 28.1 8.8 27.65 8.6 27.2 8.6
M 25.9 10.55
Q 25.95 10 26.3 9.6 26.65 9.25 27.15 9.25 27.85 9.25 28.15 9.75 28.35 10.05 28.4 10.55
L 25.9 10.55
M 24.2 9.25
Q 23.9 8.6 22.95 8.6 22.5 8.6 22.15 8.75 21.8 8.9 21.45 9.3
L 21.45 8.7 20.75 8.7 20.75 13.15 21.5 13.15 21.5 10.8
Q 21.5 10.35 21.55 10.15 21.6 9.9 21.8 9.65 22.05 9.4 22.35 9.3 22.5 9.25 22.8 9.25 23.3 9.25 23.5 9.65 23.65 9.9 23.65 10.35
L 23.65 13.15 24.4 13.15 24.4 10.3
Q 24.4 9.6 24.2 9.25
M 19.4 9.1
Q 18.8 8.55 17.95 8.55 17 8.55 16.4 9.2 15.85 9.9 15.85 11 15.85 12.05 16.4 12.7 16.9 13.3 17.85 13.3 18.95 13.3 19.45 12.6 20 11.9 20 10.8 20 9.7 19.4 9.1
M 16.6 11
Q 16.6 10.25 16.95 9.75 17.25 9.2 17.9 9.2 18.7 9.2 19 9.8 19.2 10.2 19.2 10.85 19.2 11.55 18.9 12.1 18.65 12.65 17.9 12.65 17.25 12.65 16.95 12.2 16.6 11.7 16.6 11
M 12.55 9.1
Q 11.95 8.55 11.1 8.55 10.15 8.55 9.55 9.2 9 9.9 9 11 9 12.05 9.55 12.7 10.05 13.3 11 13.3 12.1 13.3 12.6 12.6 13.15 11.9 13.15 10.8 13.15 9.7 12.55 9.1
M 12.35 10.85
Q 12.35 11.55 12.05 12.1 11.8 12.65 11.05 12.65 10.4 12.65 10.1 12.2 9.75 11.7 9.75 11 9.75 10.25 10.1 9.75 10.4 9.2 11.05 9.2 11.85 9.2 12.15 9.8 12.35 10.2 12.35 10.85
M 4.4 7
L 3.4 7 3.4 13.15 4.2 13.15 4.2 8.2 7.3 13.15 8.25 13.15 8.25 7 7.45 7 7.45 11.95 4.4 7 Z"/>
</g>
</defs>

<g transform="matrix( 1, 0, 0, 1, 0,0) ">
<use xlink:href="#Layer0_0_FILL"/>
</g>
</svg>
