
<svg xmlns="http://www.w3.org/2000/svg" version="1.1" xmlns:xlink="http://www.w3.org/1999/xlink" preserveAspectRatio="none" x="0px" y="0px" width="33px" height="45px" viewBox="0 0 33 45">
<defs>
<g id="Layer1_0_FILL">
<path fill="#FFFFFF" fill-opacity="0.4980392156862745" stroke="none" d="
M 33 16.5
Q 33 9.65 28.15 4.8 23.35 0 16.5 0 9.65 0 4.8 4.8 0 9.65 0 16.5 0 23.35 4.8 28.15 7.75 31.1 11.5 32.3
L 12.7 32.6 12.8 32.6 13 32.65 16.5 45.5 20.05 32.65 20.2 32.6 20.35 32.6 21.5 32.3
Q 25.2 31.1 28.15 28.15 33 23.35 33 16.5 Z"/>
</g>

<g id="Layer0_0_FILL">
<path fill="#000000" fill-opacity="0.7019607843137254" stroke="none" d="
M 25.7 17.55
L 20.05 17.55 20.05 4.8 12.95 4.8 12.95 17.55 7.4 17.55 16.55 29.2 25.7 17.55 Z"/>
</g>
</defs>

<g transform="matrix( 1, 0, 0, 1, 0,0) ">
<use xlink:href="#Layer1_0_FILL"/>
</g>

<g transform="matrix( 1, 0, 0, 1, 0,0) ">
<use xlink:href="#Layer0_0_FILL"/>
</g>
</svg>
