
<svg xmlns="http://www.w3.org/2000/svg" version="1.1" xmlns:xlink="http://www.w3.org/1999/xlink" preserveAspectRatio="none" x="0px" y="0px" width="33px" height="88px" viewBox="0 0 33 88">
<defs>
<g id="Symbol_519_0_Layer0_0_FILL">
<path fill="#FFFFFF" fill-opacity="0.4980392156862745" stroke="none" d="
M 11.65 -17.55
Q 16.5 -22.4 16.5 -29.25 16.5 -36.15 11.65 -41 6.8 -45.85 -0.1 -45.85 -7 -45.85 -11.8 -41 -16.65 -36.15 -16.65 -29.3 -16.65 -22.4 -11.8 -17.55 -7 -12.7 -0.1 -12.7 6.8 -12.7 11.65 -17.55 Z"/>
</g>

<g id="Symbol_521_0_Layer0_0_FILL">
<path fill="#FFFFFF" fill-opacity="0.4980392156862745" stroke="none" d="
M -0.05 -8.8
L -13.4 0 13.35 0 -0.05 -8.8 Z"/>
</g>

<path id="Symbol_522_0_Layer0_0_1_STROKES" stroke="#FF0000" stroke-width="2" stroke-linejoin="miter" stroke-linecap="square" stroke-miterlimit="3" fill="none" d="
M 3.25 -9.7
L 6.3 -6.1
M -1.9 -12.95
Q -6.5 -9.05 -7.15 -7.6"/>

<path id="Symbol_522_0_Layer0_0_2_STROKES" stroke="#009900" stroke-width="2" stroke-linejoin="miter" stroke-linecap="square" stroke-miterlimit="3" fill="none" d="
M -7.15 -70.6
Q -6.05 -69.95 -5.5 -69.95
L -4.8 -68.75 -3.6 -67.1 -3.55 -67.1 -2.85 -68.6
Q -1.95 -70.35 -0.25 -72.2
L 4.1 -76.5"/>

<path id="Symbol_522_0_Layer0_0_3_STROKES" stroke="#FF0000" stroke-width="2" stroke-linejoin="miter" stroke-linecap="round" stroke-miterlimit="3" fill="none" d="
M -2.95 -17.95
L -0.3 -14.25
Q 1.6 -11.6 3.25 -9.7"/>

<path id="Symbol_522_0_Layer0_0_4_STROKES" stroke="#FF0000" stroke-width="2" stroke-linejoin="miter" stroke-linecap="square" stroke-miterlimit="3" fill="none" d="
M 4.15 -17.95
L -0.3 -14.25 -1.9 -12.95"/>
</defs>

<g transform="matrix( 1, 0, 0, 1, 16.65,73.2) ">
<g transform="matrix( 1, 0, 0, 1, 0,0) ">
<use xlink:href="#Symbol_519_0_Layer0_0_FILL"/>
</g>
</g>

<g transform="matrix( 1, 0, 0, 2.5113525390625, 16.6,22.1) ">
<g transform="matrix( 1, 0, 0, 1, 0,0) ">
<use xlink:href="#Symbol_521_0_Layer0_0_FILL"/>
</g>
</g>

<g transform="matrix( -1, 0, 0, -2.5113525390625, 16.6,66) ">
<g transform="matrix( 1, 0, 0, 1, 0,0) ">
<use xlink:href="#Symbol_521_0_Layer0_0_FILL"/>
</g>
</g>

<g transform="matrix( 1, 0, 0, 1, 16.6,87.2) ">
<g transform="matrix( 1, 0, 0, 1, 0,0) ">
<use xlink:href="#Symbol_522_0_Layer0_0_1_STROKES"/>

<use xlink:href="#Symbol_522_0_Layer0_0_2_STROKES"/>

<use xlink:href="#Symbol_522_0_Layer0_0_3_STROKES"/>

<use xlink:href="#Symbol_522_0_Layer0_0_4_STROKES"/>
</g>
</g>
</svg>
