
<svg xmlns="http://www.w3.org/2000/svg" version="1.1" xmlns:xlink="http://www.w3.org/1999/xlink" preserveAspectRatio="none" x="0px" y="0px" width="30px" height="30px" viewBox="0 0 30 30">
<defs>
<g id="Layer1_0_FILL">
<path fill="#00FFFF" fill-opacity="0.5019607843137255" stroke="none" d="
M 0 0
L 0 30 30 30 30 0 0 0 Z"/>
</g>

<g id="Layer0_0_FILL">
<path fill="#000000" stroke="none" d="
M 26.7 12.2
Q 26.7 11.25 26.2 10.55 25.75 9.8 24.95 9.5 24.2 9.2 22.45 9.2
L 17.9 9.2 17.9 19.95 20.05 19.95 20.05 15.45 20.5 15.45
Q 21.25 15.45 21.6 15.6 21.95 15.7 22.25 16.05 22.55 16.35 23.4 17.6
L 24.95 19.95 27.55 19.95 26.25 17.85
Q 25.45 16.6 25 16.1 24.55 15.6 23.85 15.2 25.25 15 25.95 14.2 26.7 13.45 26.7 12.2
M 23.35 11.05
Q 23.85 11.15 24.15 11.5 24.45 11.8 24.45 12.35 24.45 12.85 24.25 13.15 24 13.5 23.6 13.6 23.25 13.75 21.65 13.75
L 20.05 13.75 20.05 11.05 23.35 11.05
M 15.85 9.2
L 13.7 9.2 13.7 19.95 15.85 19.95 15.85 9.2
M 8.3 9.2
L 6.05 9.2 1.85 19.95 4.15 19.95 5.05 17.5 9.35 17.5 10.25 19.95 12.6 19.95 8.3 9.2
M 8.65 15.7
L 5.7 15.7 7.15 11.7 8.65 15.7 Z"/>
</g>
</defs>

<g transform="matrix( 1, 0, 0, 1, 0,0) ">
<use xlink:href="#Layer1_0_FILL"/>
</g>

<g transform="matrix( 1, 0, 0, 1, 0,0) ">
<use xlink:href="#Layer0_0_FILL"/>
</g>
</svg>
