
<svg xmlns="http://www.w3.org/2000/svg" version="1.1" xmlns:xlink="http://www.w3.org/1999/xlink" preserveAspectRatio="none" x="0px" y="0px" width="30px" height="30px" viewBox="0 0 30 30">
<defs>
<g id="Layer1_0_FILL">
<path fill="#00FFFF" fill-opacity="0.5019607843137255" stroke="none" d="
M 0 0
L 0 30 30 30 30 0 0 0 Z"/>
</g>

<g id="Layer0_0_FILL">
<path fill="#000000" stroke="none" d="
M 20.5 17.75
Q 20.9 16.6 20.9 15.05 20.9 13.2 20.5 12 20.05 10.75 19.25 9.9 18.45 9.05 17.3 8.7
L 14.85 8.45 10.1 8.45 10.1 21.35 15 21.35 17.3 21.1
Q 18.45 20.7 19.15 20.05 20 19.2 20.5 17.75
M 12.7 10.65
L 16 10.75
Q 16.75 10.95 17.2 11.35
L 17.95 12.6 18.2 14.9 17.95 17.3 17.25 18.5 16.2 19.05 12.7 19.2 12.7 10.65
M 3.8 6.75
L 3.8 23.3 8.15 23.3 8.15 21.35 6.15 21.35 6.15 8.7 8.15 8.7 8.15 6.75 3.8 6.75
M 26.2 23.3
L 26.2 6.75 21.85 6.75 21.85 8.7 23.85 8.7 23.85 21.35 21.85 21.35 21.85 23.3 26.2 23.3 Z"/>
</g>
</defs>

<g transform="matrix( 1, 0, 0, 1, 0,0) ">
<use xlink:href="#Layer1_0_FILL"/>
</g>

<g transform="matrix( 1, 0, 0, 1, 0,0) ">
<use xlink:href="#Layer0_0_FILL"/>
</g>
</svg>
