
<svg xmlns="http://www.w3.org/2000/svg" version="1.1" xmlns:xlink="http://www.w3.org/1999/xlink" preserveAspectRatio="none" x="0px" y="0px" width="165px" height="214px" viewBox="-76.85 -184 165 214">
<defs>
<g id="Layer0_0_FILL">
<path fill="#181818" stroke="none" d="
M 59.4 -165.5
L 53.75 -163.65 49.4 -163.25 52.15 -166.4 48.65 -168.65 45.9 -171.75 45.4 -171.5 36.65 -171.5 29 -162.15 30.15 -159.4 28.65 -157.25 23.65 -157.9 21.75 -159.9 15.5 -159.9 15.5 -160.4 16.25 -162.9 14.9 -164.65 20.5 -164.65 17.75 -169.9 14.25 -169.9 19.75 -174.5 17.15 -180.4 15.15 -178.5 10.9 -180.75 8.25 -176 5.25 -180.25 6.5 -182.75 3.5 -182.75 2.6 -184 0.75 -182.65 -5.85 -182.65 -4.6 -177.4 -11.25 -176.5 -13.6 -179.9 -18.85 -176.15 -24.6 -174.9 -25.25 -163.9 -22.35 -165.15 -16.85 -162.5 -13.6 -162.5 -13.6 -157.75 -15.85 -156.65 -14 -154.4 -19.85 -154.4 -20.75 -151.65 -25.25 -151.65 -25.25 -147.25 -24.1 -144.25 -27.6 -145.5 -26.5 -151.75 -37.5 -153.25 -39.85 -158.9 -43.75 -155.4 -47.6 -155.4 -47.6 -151.4 -49.1 -148.1 -45.85 -146.65 -45.85 -143.25 -49.5 -143.9 -51.5 -147 -56.25 -146.5 -58.1 -143.15 -61.5 -140.65 -57.6 -138.65 -60.35 -134.9 -58.35 -132.9 -54.35 -133.65 -53.25 -131.4 -57.35 -128.9 -51.85 -127.5 -48.1 -122.5 -45.5 -121.25 -41.25 -123.65 -40.6 -120.5 -44.5 -118 -56 -120.65 -60.25 -117.25 -62.5 -111.25 -58.6 -109 -56.5 -108.5 -60 -104 -63.85 -106.5 -67.35 -106.5 -70.25 -103 -68.5 -101 -71.5 -98.9 -72.25 -95.15 -68.85 -91.65 -71.25 -91.65 -73.85 -94.4 -76.85 -91.9 -76.85 -88.4 -74.1 -86.15 -71.2 -85.7 -69.75 -84.15 -68.5 -85.65 -66.6 -83 -70.75 -79.25 -68.5 -76.4 -53.1 -80.25 -48.5 -85.65 -44 -86.4 -42.6 -84 -45.35 -80.5 -49.75 -80.5 -47.75 -74.25 -50.5 -73.25 -51.25 -75.4 -53.35 -74.15 -50.5 -69.9 -52.3 -67.4 -47.1 -68.5 -42.35 -67.25 -37.25 -71 -39 -74.15 -34.6 -75.9 -37.6 -79.75 -35.35 -80.4 -30.75 -76.75 -30.25 -73.45 -30.75 -73.4 -34 -71.5 -29.85 -69.5 -26.1 -63.75 -23.5 -67.65 -19.5 -67.65 -21.35 -69.75 -17.25 -69.75 -16.35 -67.4 -13 -65.9 -12.25 -62.9 -16.1 -61.4 -16.1 -58.75 -22 -58.75 -21.6 -54.5 -28 -52.05 -25.75 -47.5 -22.6 -47.9 -23.75 -45 -21.1 -45.65 -22.1 -41.65 -15.1 -44.5 -13.35 -47.65 -11.85 -44.25 -8.25 -44.25 -4.75 -41.65 -0.35 -43.9 -0.35 -46.65 -3.25 -48.15 -3.75 -50 -1.75 -50.65 -0.25 -49.25 1.75 -49.25 2.65 -52.75 5.25 -53.9 9.75 -42 11 -37.25
Q 14.55 -2.7 10.9 30
L 22.5 30
Q 18.95 8.3 20.4 -17
L 21.5 -36.15 25 -37.9 42.5 -37.9 47.4 -42.25
Q 49.9 -41.1 52.4 -40
L 60.15 -40 62.9 -41.65 64.75 -40 67.65 -43.9 66.25 -46.15 60.75 -44.4 59.15 -46.9 59.75 -46.9 64.25 -49.65 64.25 -53.4 62 -55.15 59.5 -58 62.4 -60.75 64.5 -58.4 67.15 -58.9 71 -54.15 71.9 -57.75 75 -57.25 75 -62.15 79.9 -64.5 82.5 -68.5 87.75 -71.15 83.65 -75.9 81.4 -74.4 78.5 -76.4 74.75 -76.4 79.25 -78.5 77.75 -82.5 77.75 -85.9 74.15 -84.15 69.75 -82.9 68.65 -84.25 66.65 -81.25 64.9 -81.25 64.9 -87.15 68 -87.75 71.25 -86.15 74.65 -88.9 82 -89.5 85.75 -92.65 84.75 -95.4 81.15 -94.15 81.15 -97.5 79 -99.25 75.9 -98.65 72.75 -101.15 71.15 -100.25 69.15 -102 66.65 -101.25 66.15 -101.65 66.15 -104.5 62.75 -103.9 59.4 -101.65 56.75 -104.4 53.4 -104.4 50.5 -102.65 49.4 -104.5 54 -108 60 -104.9 64.25 -107.9 66.25 -107.9 69.4 -106.25 73 -106.65 77.65 -113.25 76.15 -116.5 74.15 -116.5 74.15 -118.9 78.5 -120.15 77.65 -121.75 74.75 -124.9 77.4 -127.15 79.4 -127.75 78.4 -130.15 73.65 -131.65 70.5 -131.65 67.75 -129.75 64.9 -130.9 62.4 -130.9 59.75 -129.75 56 -130.15 55.5 -132.9 58.55 -135.1 56.65 -136.25 54.65 -136.25 54.65 -138 55.4 -139.65 52.75 -142.15 53.5 -145.15 56.15 -145.15 58 -143.65 61.65 -148.25 59.65 -151.9 56.5 -151.25 51.75 -152.9 56.15 -156.5 60.5 -157.65 57.4 -158.75 61.4 -163.4 59.4 -165.5
M 0.4 -103.9
L 2.4 -99.5 -2.2 -102.9 0.4 -103.9
M 29.75 -146.5
L 26 -147.75 27.5 -149.5 29.75 -146.5
M 38 -52.15
L 38 -55.75 41.65 -55 38 -52.15
M 9 -58.65
L 12.65 -60.15 12.4 -45.4 9 -58.65
M 23.25 -48.5
L 23.65 -43 20.9 -43.4 20.3 -50.85 23.25 -48.5
M 46.25 -44.25
L 44 -43.5 41.7 -49.65 46.25 -44.25
M -17.35 -82.25
L -15.25 -86 -10.75 -86 -7.25 -82.4 -11 -79.65 -13.75 -72.75 -17 -75.75 -14 -78.4 -13.6 -81 -17.35 -82.25
M -23.5 -94
L -24.85 -97.15 -21.1 -96.9 -19.75 -94.4 -23.5 -94 Z"/>
</g>

<g id="Symbol_15_0_Layer0_0_FILL">
<path fill="#181818" stroke="none" d="
M 12.75 -17.3
L 12.75 -23.95 -7.1 -23.95 -7.1 -32.75 14.15 -32.75 14.15 -39.45 -14.95 -39.45 -14.95 0.05 14.95 0.05 14.95 -6.65 -7.1 -6.65 -7.1 -17.3 12.75 -17.3 Z"/>
</g>

<path id="Symbol_17_0_Layer0_0_1_STROKES" stroke="#181818" stroke-width="1" stroke-linejoin="round" stroke-linecap="round" fill="none" d="
M -3.4 0
Q -0.65 30.15 -0.65 33.5
L 1.1 57.55
Q 2.25 57.85 2.65 59.5
L 3.35 62.25 3.35 64.75 1.85 64.75 1.1 64.45
Q 0.65 64.2 0.35 63.5"/>
</defs>

<g transform="matrix( 1, 0, 0, 1, 0,0) ">
<use xlink:href="#Layer0_0_FILL"/>
</g>

<g transform="matrix( 1, 0, 0, 1, -35.25,-94.5) ">
<g transform="matrix( 0.97479248046875, 0.216766357421875, -0.216766357421875, 0.97479248046875, -0.05,2.5) ">
<g transform="matrix( 0.9659271240234375, -0.258819580078125, 0.258819580078125, 0.9659271240234375, 5.1,95.3) ">
<g transform="matrix( 1, 0, 0, 1, 0,0) ">
<use xlink:href="#Symbol_15_0_Layer0_0_FILL"/>
</g>
</g>

<g transform="matrix( 1, 0, 0, 1, -8.35,0) ">
<g transform="matrix( 1, 0, 0, 1, 0,0) ">
<use xlink:href="#Symbol_17_0_Layer0_0_1_STROKES"/>
</g>
</g>
</g>
</g>
</svg>
