
<svg xmlns="http://www.w3.org/2000/svg" version="1.1" xmlns:xlink="http://www.w3.org/1999/xlink" preserveAspectRatio="none" x="0px" y="0px" width="30px" height="30px" viewBox="0 0 30 30">
<defs>
<g id="Layer1_0_FILL">
<path fill="#505050" stroke="none" d="
M 0 10
L 0 30 30 30 30 10 0 10 Z"/>
</g>

<g id="Layer0_0_FILL">
<path fill="#000000" stroke="none" d="
M 0 15
L 3.05 15 0 12 0 15
M 0 0
L 0 3.05 3.05 0 0 0
M 30 12
L 25.55 7.5 30 3.05 30 0 25.55 0 18.05 7.5 25.55 15 30 15 30 12 Z"/>

<path fill="#333333" stroke="none" d="
M 0 3.05
L 0 12 3.05 15 10.55 15 3.05 7.5 10.55 0 3.05 0 0 3.05
M 18.05 0
L 10.55 7.5 18.05 15 25.55 15 18.05 7.5 25.55 0 18.05 0
M 30 12
L 30 3.05 25.55 7.5 30 12 Z"/>

<path fill="#666666" stroke="none" d="
M 10.55 7.5
L 18.05 0 10.55 0 3.05 7.5 10.55 15 18.05 15 10.55 7.5 Z"/>
</g>
</defs>

<g transform="matrix( 1, 0, 0, 1, 0,0) ">
<use xlink:href="#Layer1_0_FILL"/>
</g>

<g transform="matrix( 1, 0, 0, 1, 0,0) ">
<use xlink:href="#Layer0_0_FILL"/>
</g>
</svg>
