
<svg xmlns="http://www.w3.org/2000/svg" version="1.1" xmlns:xlink="http://www.w3.org/1999/xlink" preserveAspectRatio="none" x="0px" y="0px" width="30px" height="30px" viewBox="0 0 30 30">
<defs>
<g id="Layer0_0_MEMBER_0_MEMBER_0_MEMBER_0_FILL">
<path fill="#007700" stroke="none" d="
M 25.95 5.25
Q 23.7 3.05 21.1 2.2 18.05 1.15 13.3 1.3 7.7 1.6 3.85 5.45 0 9.3 0 15.2 0 20.95 3.95 24.9 6.25 27.2 8.75 28 11.85 29.05 16.75 28.65 22.25 28 26.15 24.25 29.95 20.6 29.95 14.65 29.95 9.35 25.95 5.25
M 21.75 3.35
Q 23.8 4.35 25.05 5.6 26.1 6.75 26.55 7.35
L 27.15 8.15
Q 29.1 11.25 29.1 14.7 29.1 17.45 28.3 19.55
L 27.9 20.45
Q 27.1 22.25 25.55 23.7 22.7 26.55 19.65 27.4 21.5 26.7 23.3 24.9 25.15 23.1 26.1 20.9
L 26.3 20.5 26.5 19.95
Q 27.3 17.85 27.3 15.2 27.3 11.4 25.45 8.3
L 24.9 7.45
Q 24.25 6.5 23.3 5.55 22.2 4.55 20.8 3.6 19.15 2.55 17.95 2.15 19.9 2.45 21.75 3.35
M 20.5 4.35
Q 21.7 5.1 22.7 6.1 26.5 9.9 26.5 15.2 26.5 20.55 22.7 24.35 19.55 27.5 15 27.95
L 13.65 28
Q 12.15 28 10.8 27.7 7.7 27.05 5.2 24.95
L 3.55 23.25
Q 2.6 22.05 2 20.8 0.8 18.25 0.8 15.2 0.8 9.85 4.35 6.2 7.15 3.5 10.75 2.65 12.1 2.35 13.65 2.35
L 14.95 2.4 16.45 2.65
Q 17.8 2.95 18.8 3.4
L 19.65 3.8 20.5 4.35 Z"/>
</g>

<g id="Layer0_0_MEMBER_0_MEMBER_0_MEMBER_1_FILL">
<path fill="#009F00" stroke="none" d="
M 19.65 3.8
L 18.8 3.4 3.55 23.25 4.3 24.1 19.65 3.8
M 14.95 2.4
L 13.65 2.35
Q 12.1 2.35 10.75 2.65 7.15 3.5 4.35 6.2 0.8 9.85 0.8 15.2 0.8 18.25 2 20.8
L 16.45 2.65 14.95 2.4
M 27.9 20.45
L 28.05 20.1 26.3 20.5 26.1 20.9 27.9 20.45
M 27.15 8.15
L 25.45 8.3
Q 27.3 11.4 27.3 15.2 27.3 17.85 26.5 19.95
L 28.3 19.55
Q 29.1 17.45 29.1 14.7 29.1 11.25 27.15 8.15
M 22.7 6.1
Q 21.7 5.1 20.5 4.35
L 5.2 24.95
Q 7.7 27.05 10.8 27.7 12.15 28 13.65 28
L 15 27.95
Q 19.55 27.5 22.7 24.35 26.5 20.55 26.5 15.2 26.5 9.9 22.7 6.1
M 25.2 7.9
L 26.85 7.75 26.55 7.35 24.9 7.45 25.2 7.9 Z"/>
</g>

<g id="Layer0_0_MEMBER_0_MEMBER_0_MEMBER_2_FILL">
<path fill="#00AD04" stroke="none" d="
M 19.65 3.8
L 4.3 24.1 5.2 24.95 20.5 4.35 19.65 3.8
M 18.8 3.4
Q 17.8 2.95 16.45 2.65
L 2 20.8
Q 2.6 22.05 3.55 23.25
L 18.8 3.4
M 25.45 8.3
L 27.15 8.15 26.85 7.75 25.2 7.9 25.45 8.3
M 20.8 3.6
Q 22.2 4.55 23.3 5.55 24.25 6.5 24.9 7.45
L 26.55 7.35
Q 26.1 6.75 25.05 5.6 23.8 4.35 21.75 3.35 19.9 2.45 17.95 2.15 19.15 2.55 20.8 3.6 Z"/>
</g>

<g id="Layer0_0_MEMBER_0_MEMBER_0_MEMBER_3_FILL">
<path fill="#009800" stroke="none" d="
M 26.5 19.95
L 26.3 20.5 28.05 20.1 28.3 19.55 26.5 19.95
M 25.55 23.7
Q 27.1 22.25 27.9 20.45
L 26.1 20.9
Q 25.15 23.1 23.3 24.9 21.5 26.7 19.65 27.4 22.7 26.55 25.55 23.7 Z"/>
</g>

<g id="Layer0_1_MEMBER_0_MEMBER_0_MEMBER_0_FILL">
<path fill="#007700" stroke="none" d="
M 14.6 9.5
L 13.45 9.5
Q 12.5 9.5 12.5 9.95
L 12.6 10.2 12.9 10.4 13.25 10.7
Q 13.35 10.85 13.35 11.2 13.35 12.55 12.8 14.45
L 11.85 17.2 10.7 14.2
Q 10 11.85 10 10.95
L 10.1 10.6 10.6 10.2 10.65 10
Q 10.65 9.5 10.05 9.5
L 7.65 9.5
Q 6.95 9.5 6.95 9.95
L 7 10.1 7.1 10.25 7.25 10.35
Q 7.65 10.6 7.65 11.5 7.65 13 7.3 14.25 6.95 15.8 6.35 17.15
L 5.45 14.15
Q 4.9 11.95 4.9 10.95
L 4.95 10.6 5.25 10.4
Q 5.55 10.25 5.55 10 5.55 9.5 4.9 9.5
L 2.75 9.5
Q 1.8 9.5 1.8 9.95 1.8 10.25 2.1 10.45
L 2.35 10.7 2.4 11.15 2.6 12.1
Q 3.3 15.8 4.3 18.3
L 4.65 19.05
Q 4.8 19.25 5.05 19.35 5.35 19.5 5.75 19.5 6.45 19.5 6.7 19.1 7 18.65 7.35 17.65
L 8.35 14.4 9.4 17.5 10.05 18.85
Q 10.35 19.3 10.55 19.35 10.85 19.5 11.25 19.5 12 19.5 12.2 19.2
L 13.25 16.7 14.6 11.05
Q 14.7 10.7 15.05 10.35 15.3 10.15 15.3 9.95 15.3 9.5 14.6 9.5
M 20.9 11.25
L 21 10.65
Q 21.1 10.5 21.45 10.5 22 10.5 22.4 10.7
L 23.05 11.25
Q 23.4 11.6 23.6 11.6 24.1 11.6 24.1 11.1
L 24.05 10.7
Q 24 9.9 23.7 9.6 23.6 9.5 23.15 9.5
L 16.3 9.5
Q 15.9 9.5 15.7 9.6 15.5 9.8 15.35 10.7
L 15.3 11.1
Q 15.3 11.6 15.8 11.6 16.05 11.6 16.35 11.25
L 16.95 10.7
Q 17.45 10.5 17.95 10.5 18.35 10.5 18.4 10.65
L 18.5 11.25 18.5 17.6
Q 18.5 18.25 18.25 18.35
L 18.1 18.4 17.85 18.6 17.8 18.85
Q 17.8 19.3 18.45 19.3
L 21 19.3
Q 21.6 19.3 21.6 18.85 21.6 18.65 21.3 18.4
L 21.15 18.35
Q 20.9 18.2 20.9 17.6
L 20.9 11.25 Z"/>
</g>

<g id="Layer0_2_MEMBER_0_MEMBER_0_MEMBER_0_FILL">
<path fill="#00D205" stroke="none" d="
M 12 11.15
Q 12 10.65 11.4 10.65
L 9 10.65
Q 8.3 10.65 8.3 11.1
L 8.35 11.25 8.45 11.4 8.6 11.5
Q 9 11.75 9 12.65 9 14.15 8.65 15.4 8.3 16.95 7.7 18.3
L 6.8 15.3
Q 6.25 13.1 6.25 12.1
L 6.3 11.75 6.6 11.55
Q 6.9 11.4 6.9 11.15 6.9 10.65 6.25 10.65
L 4.1 10.65
Q 3.15 10.65 3.15 11.1 3.15 11.4 3.45 11.6
L 3.7 11.85 3.75 12.3 3.95 13.25
Q 4.65 16.95 5.65 19.45
L 6 20.2
Q 6.15 20.4 6.4 20.5 6.7 20.65 7.1 20.65 7.75 20.65 8.05 20.25 8.35 19.8 8.7 18.8
L 9.7 15.55 10.75 18.65 11.4 20
Q 11.75 20.45 11.9 20.5 12.2 20.65 12.6 20.65 13.35 20.65 13.55 20.35
L 14.6 17.85 15.95 12.2
Q 16.05 11.85 16.4 11.5 16.65 11.3 16.65 11.1 16.65 10.65 15.95 10.65
L 14.8 10.65
Q 13.85 10.65 13.85 11.1
L 13.95 11.35 14.25 11.55 14.6 11.85
Q 14.7 12 14.7 12.35 14.7 13.7 14.15 15.6
L 13.2 18.35 12.05 15.35
Q 11.35 13 11.35 12.1
L 11.45 11.75 11.95 11.35 12 11.15
M 25.4 11.85
Q 25.35 11.05 25.05 10.75 24.95 10.65 24.5 10.65
L 17.65 10.65
Q 17.25 10.65 17.05 10.75 16.85 10.95 16.7 11.85
L 16.65 12.25
Q 16.65 12.75 17.15 12.75 17.4 12.75 17.7 12.4
L 18.3 11.85
Q 18.8 11.65 19.3 11.65 19.7 11.65 19.75 11.8
L 19.85 12.4 19.85 18.75
Q 19.85 19.35 19.6 19.5
L 19.45 19.55 19.2 19.75 19.15 20
Q 19.15 20.45 19.8 20.45
L 22.35 20.45
Q 22.95 20.45 22.95 20 22.95 19.8 22.65 19.55
L 22.5 19.5
Q 22.25 19.35 22.25 18.75
L 22.25 12.4 22.35 11.8
Q 22.45 11.65 22.8 11.65 23.35 11.65 23.75 11.85
L 24.4 12.4
Q 24.75 12.75 24.95 12.75 25.45 12.75 25.45 12.25
L 25.4 11.85 Z"/>
</g>
</defs>

<g transform="matrix( 0.9333343505859375, 0, 0, 0.9333343505859375, 1,1) ">
<use xlink:href="#Layer0_0_MEMBER_0_MEMBER_0_MEMBER_0_FILL"/>
</g>

<g transform="matrix( 0.9333343505859375, 0, 0, 0.9333343505859375, 1,1) ">
<use xlink:href="#Layer0_0_MEMBER_0_MEMBER_0_MEMBER_1_FILL"/>
</g>

<g transform="matrix( 0.9333343505859375, 0, 0, 0.9333343505859375, 1,1) ">
<use xlink:href="#Layer0_0_MEMBER_0_MEMBER_0_MEMBER_2_FILL"/>
</g>

<g transform="matrix( 0.9333343505859375, 0, 0, 0.9333343505859375, 1,1) ">
<use xlink:href="#Layer0_0_MEMBER_0_MEMBER_0_MEMBER_3_FILL"/>
</g>

<g transform="matrix( 0.9333343505859375, 0, 0, 0.9333343505859375, 1,1) ">
<use xlink:href="#Layer0_1_MEMBER_0_MEMBER_0_MEMBER_0_FILL"/>
</g>

<g transform="matrix( 0.9333343505859375, 0, 0, 0.9333343505859375, 1,1) ">
<use xlink:href="#Layer0_2_MEMBER_0_MEMBER_0_MEMBER_0_FILL"/>
</g>
</svg>
