
<svg xmlns="http://www.w3.org/2000/svg" version="1.1" xmlns:xlink="http://www.w3.org/1999/xlink" preserveAspectRatio="none" x="0px" y="0px" width="30px" height="30px" viewBox="0 0 30 30">
<defs>
<filter id="Filter_1" x="-20%" y="-20%" width="140%" height="140%" color-interpolation-filters="sRGB">
<feColorMatrix in="SourceGraphic" type="matrix" values="0.4 0 0 0 0.6 0 0.4 0 0 0.47843137254901963 0 0 0.4 0 0 0 0 0 1 0" result="result1"/>
</filter>

<g id="Layer1_0_FILL">
<path fill="#505050" stroke="none" d="
M 0 0
L 0 30 30 30 30 0 0 0 Z"/>
</g>

<g id="Symbol_244_0_Layer0_0_FILL">
<path fill="#FF3300" stroke="none" d="
M 1 24
Q 0.6 24 0.3 24.3 -0.05 24.55 0 24.95
L 0 25
Q -0.05 25.4 0.3 25.7 0.6 25.95 1 26
L 10.95 26 11.7 25.7 12 25 12 24.95 11.7 24.3 10.95 24 1 24
M 0 20.95
L 0 21
Q -0.05 21.4 0.3 21.7 0.6 21.95 1 22
L 10.95 22 11.7 21.7 12 21 12 20.95 11.7 20.3 10.95 20 1 20
Q 0.6 20 0.3 20.3 -0.05 20.55 0 20.95
M 0 16.95
L 0 17
Q -0.05 17.4 0.3 17.7 0.6 17.95 1 18
L 10.95 18 11.7 17.7 12 17 12 16.95 11.7 16.3 10.95 16 1 16
Q 0.6 16 0.3 16.3 -0.05 16.55 0 16.95
M 11.7 12.3
L 10.95 12 1 12
Q 0.6 12 0.3 12.3 -0.05 12.55 0 12.95
L 0 13
Q -0.05 13.4 0.3 13.7 0.6 13.95 1 14
L 10.95 14 11.7 13.7 12 13 12 12.95 11.7 12.3
M 12 8.95
L 11.7 8.3 10.95 8 1 8
Q 0.6 8 0.3 8.3 -0.05 8.55 0 8.95
L 0 9
Q -0.05 9.4 0.3 9.7 0.6 9.95 1 10
L 10.95 10 11.7 9.7 12 9 12 8.95
M 10.95 6
L 11.7 5.7 12 5 12 4.95 11.7 4.3 10.95 4 1 4
Q 0.6 4 0.3 4.3 -0.05 4.55 0 4.95
L 0 5
Q -0.05 5.4 0.3 5.7 0.6 5.95 1 6
L 10.95 6
M 12 1
L 12 0.95 11.7 0.3 10.95 0 1 0
Q 0.6 0 0.3 0.3 -0.05 0.55 0 0.95
L 0 1
Q -0.05 1.4 0.3 1.7 0.6 1.95 1 2
L 10.95 2 11.7 1.7 12 1
M 25.7 24.3
L 24.95 24 15 24
Q 14.6 24 14.3 24.3 13.95 24.55 14 24.95
L 14 25 14.3 25.7
Q 14.6 25.95 15 26
L 24.95 26 25.7 25.7 26 25 26 24.95 25.7 24.3
M 26 20.95
L 25.7 20.3 24.95 20 15 20
Q 14.6 20 14.3 20.3 13.95 20.55 14 20.95
L 14 21 14.3 21.7
Q 14.6 21.95 15 22
L 24.95 22 25.7 21.7 26 21 26 20.95
M 25.7 17.7
L 26 17 26 16.95 25.7 16.3 24.95 16 15 16
Q 14.6 16 14.3 16.3 13.95 16.55 14 16.95
L 14 17 14.3 17.7
Q 14.6 17.95 15 18
L 24.95 18 25.7 17.7
M 25.7 12.3
L 24.95 12 15 12
Q 14.6 12 14.3 12.3 13.95 12.55 14 12.95
L 14 13 14.3 13.7
Q 14.6 13.95 15 14
L 24.95 14 25.7 13.7 26 13 26 12.95 25.7 12.3
M 26 8.95
L 25.7 8.3 24.95 8 15 8
Q 14.6 8 14.3 8.3 13.95 8.55 14 8.95
L 14 9 14.3 9.7
Q 14.6 9.95 15 10
L 24.95 10 25.7 9.7 26 9 26 8.95
M 26 5
L 26 4.95 25.7 4.3 24.95 4 15 4
Q 14.6 4 14.3 4.3 13.95 4.55 14 4.95
L 14 5 14.3 5.7
Q 14.6 5.95 15 6
L 24.95 6 25.7 5.7 26 5
M 25.7 1.7
L 26 1 26 0.95 25.7 0.3 24.95 0 15 0
Q 14.6 0 14.3 0.3 13.95 0.55 14 0.95
L 14 1 14.3 1.7
Q 14.6 1.95 15 2
L 24.95 2 25.7 1.7 Z"/>
</g>
</defs>

<g transform="matrix( 1, 0, 0, 1, 0,0) ">
<use xlink:href="#Layer1_0_FILL"/>
</g>

<g transform="matrix( 1, 0, 0, 1, 2,2) ">
<g transform="matrix( 1, 0, 0, 1, 0,0) ">
<g transform="matrix( 1, 0, 0, 1, 0,0) ">
<use filter="url(#Filter_1)" xlink:href="#Symbol_244_0_Layer0_0_FILL"/>
</g>
</g>
</g>
</svg>
