
<svg xmlns="http://www.w3.org/2000/svg" version="1.1" xmlns:xlink="http://www.w3.org/1999/xlink" preserveAspectRatio="none" x="0px" y="0px" width="30px" height="30px" viewBox="0 0 30 30">
<defs>
<g id="Layer1_0_FILL">
<path fill="#505050" stroke="none" d="
M 0 10
L 0 30 30 30 30 10 0 10 Z"/>
</g>

<g id="Layer0_0_FILL">
<path fill="#666666" stroke="none" d="
M 5.55 7.5
L 13.05 15 20.55 15 13.05 7.5 20.55 0 13.05 0 5.55 7.5 Z"/>

<path fill="#000000" stroke="none" d="
M 0 15
L 5.55 15 0 9.45 0 15
M 0 5.55
L 5.55 0 0 0 0 5.55
M 28.05 0
L 20.55 7.5 28.05 15 30 15 30 9.45 28.05 7.5 30 5.55 30 0 28.05 0 Z"/>

<path fill="#333333" stroke="none" d="
M 5.55 0
L 0 5.55 0 9.45 5.55 15 13.05 15 5.55 7.5 13.05 0 5.55 0
M 30 5.55
L 28.05 7.5 30 9.45 30 5.55
M 28.05 0
L 20.55 0 13.05 7.5 20.55 15 28.05 15 20.55 7.5 28.05 0 Z"/>
</g>
</defs>

<g transform="matrix( 1, 0, 0, 1, 0,0) ">
<use xlink:href="#Layer1_0_FILL"/>
</g>

<g transform="matrix( 1, 0, 0, 1, 0,0) ">
<use xlink:href="#Layer0_0_FILL"/>
</g>
</svg>
