
<svg xmlns="http://www.w3.org/2000/svg" version="1.1" xmlns:xlink="http://www.w3.org/1999/xlink" preserveAspectRatio="none" x="0px" y="0px" width="30px" height="30px" viewBox="0 0 30 30">
<defs>
<g id="Layer1_0_FILL">
<path fill="#505050" stroke="none" d="
M 0 10
L 0 30 30 30 30 10 0 10 Z"/>
</g>

<g id="Layer0_0_FILL">
<path fill="#333333" stroke="none" d="
M 9.45 0
L 16.95 7.5 9.45 15 16.95 15 24.45 7.5 16.95 0 9.45 0
M 1.95 7.5
L 0 9.45 0 15 1.95 15 9.45 7.5 1.95 0 0 0 0 5.55 1.95 7.5
M 24.45 15
L 30 15 30 9.45 24.45 15
M 30 5.55
L 30 0 24.45 0 30 5.55 Z"/>

<path fill="#666666" stroke="none" d="
M 9.45 0
L 1.95 0 9.45 7.5 1.95 15 9.45 15 16.95 7.5 9.45 0 Z"/>

<path fill="#000000" stroke="none" d="
M 0 9.45
L 1.95 7.5 0 5.55 0 9.45
M 30 9.45
L 30 5.55 24.45 0 16.95 0 24.45 7.5 16.95 15 24.45 15 30 9.45 Z"/>
</g>
</defs>

<g transform="matrix( 1, 0, 0, 1, 0,0) ">
<use xlink:href="#Layer1_0_FILL"/>
</g>

<g transform="matrix( 1, 0, 0, 1, 0,0) ">
<use xlink:href="#Layer0_0_FILL"/>
</g>
</svg>
