
<svg xmlns="http://www.w3.org/2000/svg" version="1.1" xmlns:xlink="http://www.w3.org/1999/xlink" preserveAspectRatio="none" x="0px" y="0px" width="30px" height="30px" viewBox="0 0 30 30">
<defs>
<g id="Layer0_0_FILL">
<path fill="#305A25" stroke="none" d="
M 5 30
L 0 25 0 30 5 30
M 5 0
L 0 0 30 30 30 25 5 0
M 0 5
L 0 10 20 30 25 30 0 5
M 0 15
L 0 20 10 30 15 30 0 15
M 30 10
L 30 5 25 0 20 0 30 10
M 30 20
L 30 15 15 0 10 0 30 20 Z"/>

<path fill="#203D19" stroke="none" d="
M 5 30
L 10 30 0 20 0 25 5 30
M 0 0
L 0 5 25 30 30 30 0 0
M 10 0
L 5 0 30 25 30 20 10 0
M 0 10
L 0 15 15 30 20 30 0 10
M 30 5
L 30 0 25 0 30 5
M 30 15
L 30 10 20 0 15 0 30 15 Z"/>
</g>
</defs>

<g transform="matrix( 1, 0, 0, 1, 0,0) ">
<use xlink:href="#Layer0_0_FILL"/>
</g>
</svg>
