
<svg xmlns="http://www.w3.org/2000/svg" version="1.1" xmlns:xlink="http://www.w3.org/1999/xlink" preserveAspectRatio="none" x="0px" y="0px" width="30px" height="30px" viewBox="0 0 30 30">
<path fill="#333333" stroke="none" d="
M 26.85 8.35
L 23.2 4.7 17.5 10.35 17.5 0 12.5 0 12.5 10.9 6.05 4.45 2.4 8.15 12.5 18.25 12.5 30 17.5 30 17.5 17.7 26.85 8.35 Z"/>
<path fill="#000000" stroke="none" d="
M 18.75 30
L 18.75 29.9 22.5 0 15 0 18.7 29.9 18.75 30
M 15 0
L 7.5 0 11.2 29.9 11.25 30 11.25 29.9 15 0
M 7.5 0
L 0 0 3.7 29.9 3.75 30 3.75 29.9 7.5 0
M 30 0
L 22.5 0 26.2 29.9 26.25 30 26.25 29.9 30 0 Z"/>
</svg>
