
<svg xmlns="http://www.w3.org/2000/svg" version="1.1" xmlns:xlink="http://www.w3.org/1999/xlink" preserveAspectRatio="none" x="0px" y="0px" width="30px" height="30px" viewBox="0 0 30 30">
<defs>
<g id="Symbol_220_0_Layer1_0_FILL">
<path fill="#203D19" stroke="none" d="
M 0 25
L 5 30 10 30 0 20 0 25
M 0 10
L 0 15 15 30 20 30 0 10
M 0 0
L 0 5 25 30 30 30 0 0
M 10 0
L 5 0 30 25 30 20 10 0
M 30 15
L 30 10 20 0 15 0 30 15
M 30 0
L 25 0 30 5 30 0 Z"/>

<path fill="#305A25" stroke="none" d="
M 5 30
L 0 25 0 30 5 30
M 0 15
L 0 20 10 30 15 30 0 15
M 0 5
L 0 10 20 30 25 30 0 5
M 5 0
L 0 0 30 30 30 25 5 0
M 30 20
L 30 15 15 0 10 0 30 20
M 30 10
L 30 5 25 0 20 0 30 10 Z"/>
</g>

<g id="Symbol_220_0_Layer0_0_FILL">
<path fill="#FFFFFF" fill-opacity="0.4980392156862745" stroke="none" d="
M 30 3
L 0 3 0 9.95 30 9.95 30 3
M 30 -0.05
L 0 -0.05 0 0 30 0 30 -0.05 Z"/>

<path fill="#FFFFFF" stroke="none" d="
M 30 0
L 0 0 0 3 30 3 30 0 Z"/>
</g>
</defs>

<g transform="matrix( 1, 0, 0, 1, 0,0) ">
<g transform="matrix( 1, 0, 0, 1, 0,0) ">
<use xlink:href="#Symbol_220_0_Layer1_0_FILL"/>
</g>

<g transform="matrix( 1, 0, 0, 1, 0,0) ">
<use xlink:href="#Symbol_220_0_Layer0_0_FILL"/>
</g>
</g>
</svg>
