
<svg xmlns="http://www.w3.org/2000/svg" version="1.1" xmlns:xlink="http://www.w3.org/1999/xlink" preserveAspectRatio="none" x="0px" y="0px" width="32px" height="32px" viewBox="-1 -1 32 32">
<path stroke="#FFCC00" stroke-width="1" stroke-linejoin="round" stroke-linecap="round" fill="none" d="
M 25.45 0.4
L 22.45 0.4
M 29.6 9.5
L 29.6 6.5
M 29.6 16.5
L 29.6 13.5
M 29.6 23.5
L 29.6 20.5
M 29.6 5
Q 29.55 3.3 28.85 2.25
M 11.45 0.4
L 8.45 0.4
M 4.5 0.4
Q 2.8 0.55 1.8 1.45
M 0.4 19.15
L 0.4 22.15
M 18.45 0.4
L 15.45 0.4
M 0.4 5.15
L 0.4 8.15
M 0.4 12.15
L 0.4 15.15
M 0.5 26.15
Q 0.85 27.8 2 28.7
M 5.85 29.6
L 8.85 29.6
M 12.85 29.6
L 15.85 29.6
M 26.85 29.3
Q 28.4 28.8 29.1 27.4
M 19.85 29.6
L 22.85 29.6"/>
</svg>
