
<svg xmlns="http://www.w3.org/2000/svg" version="1.1" xmlns:xlink="http://www.w3.org/1999/xlink" preserveAspectRatio="none" x="0px" y="0px" width="30px" height="30px" viewBox="0 0 30 30">
<defs>
<g id="Symbol_203_0_Layer1_0_FILL">
<path fill="#FFCC00" stroke="none" d="
M 13 13
L 13 -13 -13 -13 -13 13 13 13 Z"/>
</g>

<g id="Symbol_203_0_Layer0_0_FILL">
<path fill="#FFD942" stroke="none" d="
M 4.65 -4.7
Q 2.75 -6.6 0 -6.6 -2.75 -6.6 -4.7 -4.7 -6.6 -2.75 -6.6 0 -6.6 2.75 -4.7 4.65 -2.75 6.6 0 6.6 2.75 6.6 4.65 4.65 6.6 2.75 6.6 0 6.6 -2.75 4.65 -4.7
M 0 -3.55
Q 1.5 -3.55 2.5 -2.5 3.55 -1.5 3.55 0 3.55 1.5 2.5 2.5 1.5 3.55 0 3.55 -1.5 3.55 -2.5 2.5 -3.55 1.5 -3.55 0 -3.55 -1.5 -2.5 -2.5 -1.5 -3.55 0 -3.55 Z"/>

<path fill="#FFE26F" stroke="none" d="
M 2.5 -2.5
Q 1.5 -3.55 0 -3.55 -1.5 -3.55 -2.5 -2.5 -3.55 -1.5 -3.55 0 -3.55 1.5 -2.5 2.5 -1.5 3.55 0 3.55 1.5 3.55 2.5 2.5 3.55 1.5 3.55 0 3.55 -1.5 2.5 -2.5 Z"/>
</g>

<g id="Layer1_0_FILL">
<path fill="#FFFFFF" fill-opacity="0.30196078431372547" stroke="none" d="
M 0 0
L 0 30 30 30 30 0 0 0 Z"/>
</g>

<g id="Layer0_0_FILL">
<path fill="#663300" stroke="none" d="
M 0 0
L 0 30 30 30 30 0 0 0
M 28.75 19.25
L 28 20 28 28 20 28 19.15 28.85 20 28 9.8 28 10.65 28.85 9.8 28 2 28 2 20.2 1.05 19.25 2 20.2 2 9.95 1.05 10.9 2 9.95 2 2 9.95 2 10.65 1.3 9.95 2 19.85 2 19.15 1.3 19.85 2 28 2 28 10.15 28.75 10.9 28 10.15 28 20 28.75 19.25 Z"/>
</g>

<path id="Layer0_0_1_STROKES" stroke="#663300" stroke-width="2" stroke-linejoin="round" stroke-linecap="round" fill="none" d="
M 28.75 19.25
L 28 20
M 19.15 28.85
L 20 28 28 20
M 10.65 28.85
L 9.8 28
M 28.75 10.9
L 28 10.15 19.85 2
M 2 9.95
L 9.95 2
M 9.8 28
L 2 20.2 1.05 19.25
M 19.15 1.3
L 19.85 2
M 9.95 2
L 10.65 1.3
M 1.05 10.9
L 2 9.95"/>
</defs>

<g transform="matrix( 1, 0, 0, 1, 15,15) ">
<g transform="matrix( 1, 0, 0, 1, 0,0) ">
<use xlink:href="#Symbol_203_0_Layer1_0_FILL"/>
</g>

<g transform="matrix( 1, 0, 0, 1, 0,0) ">
<use xlink:href="#Symbol_203_0_Layer0_0_FILL"/>
</g>
</g>

<g transform="matrix( 1, 0, 0, 1, 0,0) ">
<use xlink:href="#Layer1_0_FILL"/>
</g>

<g transform="matrix( 1, 0, 0, 1, 0,0) ">
<use xlink:href="#Layer0_0_FILL"/>

<use xlink:href="#Layer0_0_1_STROKES"/>
</g>
</svg>
