
<svg xmlns="http://www.w3.org/2000/svg" version="1.1" xmlns:xlink="http://www.w3.org/1999/xlink" preserveAspectRatio="none" x="0px" y="0px" width="30px" height="30px" viewBox="0 0 30 30">
<path fill="#CCCCCC" fill-opacity="0.37" stroke="none" d="
M 5.35 13.65
L 2.5 18.55 4.95 30 9.9 30 5.35 13.65
M 19 13.35
L 13.6 15.15 12.4 24.5 14.1 30 15.05 30 19.05 13.45 19.1 13.3 19 13.35 Z"/>
<path fill="#999999" fill-opacity="0.37" stroke="none" d="
M 9.7 15.85
L 5.35 13.65 9.9 30 14.1 30 12.4 24.5 9.7 15.85
M 24.5 21.05
L 23.05 21.05 18.85 26.15
Q 20.05 21.75 21.1 15.85
L 19.05 13.45 15.05 30 18.55 30 24.5 21.05 Z"/>
<path fill="#666666" fill-opacity="0.37" stroke="none" d="
M 27.6 24
L 25 21.05 24.5 21.05 18.55 30 22.3 30 27.6 24 Z"/>
<path fill="#333333" stroke="none" d="
M 26.25 30.1
Q 27 30.1 27.55 29.55 28.1 29.05 28.15 28.4 28.1 27.7 27.55 27.15 27 26.65 26.25 26.65 25.45 26.65 24.9 27.15 24.35 27.7 24.35 28.4
L 24.4 28.8 24.15 28.75
Q 23.85 28.7 23.6 28.95
L 23.4 29.65 23.6 30.25 24.15 30.55 24.6 30.25 24.9 29.65 24.9 29.55
Q 25.45 30.1 26.25 30.1
M 4.25 29.85
L 4.6 29.1 4.25 28.2
Q 3.95 27.9 3.45 27.9 2.95 27.9 2.6 28.2 2.3 28.6 2.3 29.1 2.3 29.55 2.6 29.85 2.95 30.25 3.45 30.25 3.95 30.25 4.25 29.85
M 16.7 30.05
Q 17.1 29.6 16.95 28.95 16.9 28.3 16.35 27.75 15.8 27.2 15.05 27.05 14.5 27 14.1 27.4 13.65 27.8 13.7 28.45 13.85 29.1 14.45 29.7 14.95 30.2 15.55 30.3 16.3 30.45 16.7 30.05 Z"/>
</svg>
