
<svg xmlns="http://www.w3.org/2000/svg" version="1.1" xmlns:xlink="http://www.w3.org/1999/xlink" preserveAspectRatio="none" x="0px" y="0px" width="165px" height="214px" viewBox="-49.35 -184 165 214">
<defs>
<g id="Layer0_0_FILL">
<path fill="#181818" stroke="none" d="
M 86 -151.4
L 86 -155.4 82.15 -155.4 78.25 -158.9 75.9 -153.25 64.9 -151.75 66 -145.5 62.5 -144.25 63.65 -147.25 63.65 -151.65 59.15 -151.65 58.25 -154.4 52.4 -154.4 54.25 -156.65 52 -157.75 52 -162.5 55.25 -162.5 60.75 -165.15 63.65 -163.9 63 -174.9 57.25 -176.15 52 -179.9 49.65 -176.5 43 -177.4 44.25 -182.65 37.65 -182.65 35.8 -184 34.9 -182.75 31.9 -182.75 33.15 -180.25 30.15 -176 27.5 -180.75 23.25 -178.5 21.25 -180.4 18.65 -174.5 24.15 -169.9 20.65 -169.9 17.9 -164.65 23.5 -164.65 22.15 -162.9 22.9 -160.4 22.9 -159.9 16.65 -159.9 14.75 -157.9 9.75 -157.25 8.25 -159.4 9.4 -162.15 1.75 -171.5 -7 -171.5 -7.5 -171.75 -10.25 -168.65 -13.75 -166.4 -11 -163.25 -15.35 -163.65 -21 -165.5 -23 -163.4 -19 -158.75 -22.1 -157.65 -17.75 -156.5 -13.35 -152.9 -18.1 -151.25 -21.25 -151.9 -23.25 -148.25 -19.6 -143.65 -17.75 -145.15 -15.1 -145.15 -14.35 -142.15 -17 -139.65 -16.25 -138 -16.25 -136.25 -18.25 -136.25 -20.15 -135.1 -17.1 -132.9 -17.6 -130.15 -21.35 -129.75 -24 -130.9 -26.5 -130.9 -29.35 -129.75 -32.1 -131.65 -35.25 -131.65 -40 -130.15 -41 -127.75 -39 -127.15 -36.35 -124.9 -39.25 -121.75 -40.1 -120.15 -35.75 -118.9 -35.75 -116.5 -37.75 -116.5 -39.25 -113.25 -34.6 -106.65 -31 -106.25 -27.85 -107.9 -25.85 -107.9 -21.6 -104.9 -15.6 -108 -11 -104.5 -12.1 -102.65 -15 -104.4 -18.35 -104.4 -21 -101.65 -24.35 -103.9 -27.75 -104.5 -27.75 -101.65 -28.25 -101.25 -30.75 -102 -32.75 -100.25 -34.35 -101.15 -37.5 -98.65 -40.6 -99.25 -42.75 -97.5 -42.75 -94.15 -46.35 -95.4 -47.35 -92.65 -43.6 -89.5 -36.25 -88.9 -32.85 -86.15 -29.6 -87.75 -26.5 -87.15 -26.5 -81.25 -28.25 -81.25 -30.25 -84.25 -31.35 -82.9 -35.75 -84.15 -39.35 -85.9 -39.35 -82.5 -40.85 -78.5 -36.35 -76.4 -40.1 -76.4 -43 -74.4 -45.25 -75.9 -49.35 -71.15 -44.1 -68.5 -41.5 -64.5 -36.6 -62.15 -36.6 -57.25 -33.5 -57.75 -32.6 -54.15 -28.75 -58.9 -26.1 -58.4 -24 -60.75 -21.1 -58 -23.6 -55.15 -25.85 -53.4 -25.85 -49.65 -21.35 -46.9 -20.75 -46.9 -22.35 -44.4 -27.85 -46.15 -29.25 -43.9 -26.35 -40 -24.5 -41.65 -21.75 -40 -14 -40
Q -11.5 -41.1 -9 -42.25
L -4.1 -37.9 13.4 -37.9 16.9 -36.15 18 -17
Q 19.45 8.3 15.9 30
L 27.5 30
Q 23.85 -2.7 27.4 -37.25
L 28.65 -42 33.15 -53.9 35.75 -52.75 36.65 -49.25 38.65 -49.25 40.15 -50.65 42.15 -50 41.65 -48.15 38.75 -46.65 38.75 -43.9 43.15 -41.65 46.65 -44.25 50.25 -44.25 51.75 -47.65 53.5 -44.5 60.5 -41.65 59.5 -45.65 62.15 -45 61 -47.9 64.15 -47.5 66.4 -52.05 60 -54.5 60.4 -58.75 54.5 -58.75 54.5 -61.4 50.65 -62.9 51.4 -65.9 54.75 -67.4 55.65 -69.75 59.75 -69.75 57.9 -67.65 61.9 -67.65 64.5 -63.75 68.25 -69.5 72.4 -71.5 69.15 -73.4 68.65 -73.45 69.15 -76.75 73.75 -80.4 76 -79.75 73 -75.9 77.4 -74.15 75.65 -71 80.75 -67.25 85.5 -68.5 90.7 -67.4 88.9 -69.9 91.75 -74.15 89.65 -75.4 88.9 -73.25 86.15 -74.25 88.15 -80.5 83.75 -80.5 81 -84 82.4 -86.4 86.9 -85.65 91.5 -80.25 106.9 -76.4 109.15 -79.25 105 -83 106.9 -85.65 108.15 -84.15 109.6 -85.7 112.5 -86.15 115.25 -88.4 115.25 -91.9 112.25 -94.4 109.65 -91.65 107.25 -91.65 110.65 -95.15 109.9 -98.9 106.9 -101 108.65 -103 105.75 -106.5 102.25 -106.5 98.4 -104 94.9 -108.5 97 -109 100.9 -111.25 98.65 -117.25 94.4 -120.65 82.9 -118 79 -120.5 79.65 -123.65 83.9 -121.25 86.5 -122.5 90.25 -127.5 95.75 -128.9 91.65 -131.4 92.75 -133.65 96.75 -132.9 98.75 -134.9 96 -138.65 99.9 -140.65 96.5 -143.15 94.65 -146.5 89.9 -147 87.9 -143.9 84.25 -143.25 84.25 -146.65 87.5 -148.1 86 -151.4
M 36 -99.5
L 38 -103.9 40.6 -102.9 36 -99.5
M 12.4 -147.75
L 8.65 -146.5 10.9 -149.5 12.4 -147.75
M 63.25 -97.15
L 61.9 -94 58.15 -94.4 59.5 -96.9 63.25 -97.15
M 49.15 -86
L 53.65 -86 55.75 -82.25 52 -81 52.4 -78.4 55.4 -75.75 52.15 -72.75 49.4 -79.65 45.65 -82.4 49.15 -86
M 25.75 -60.15
L 29.4 -58.65 26 -45.4 25.75 -60.15
M 0.4 -55.75
L 0.4 -52.15 -3.25 -55 0.4 -55.75
M 14.75 -43
L 15.15 -48.5 18.1 -50.85 17.5 -43.4 14.75 -43
M -5.6 -43.5
L -7.85 -44.25 -3.3 -49.65 -5.6 -43.5 Z"/>
</g>

<g id="Symbol_182_0_Layer0_0_FILL">
<path fill="#181818" stroke="none" d="
M 20.55 -17.45
L 16.25 -24.85 -10.8 -18.95 -10.85 -19.1 7.8 -39.5 3.55 -46.85 -22.9 -17.55 -18.2 -9.5 20.55 -17.45 Z"/>
</g>

<path id="Symbol_184_0_Layer0_0_1_STROKES" stroke="#181818" stroke-width="1" stroke-linejoin="round" stroke-linecap="round" fill="none" d="
M 1 57.5
Q 0 57.6 0 58.55
L 0.15 59.35
M 4.5 61
L 5.5 63 6 64.8
Q 6 65.15 4.75 65.35
M -3.4 0
Q -0.65 30.15 -0.65 33.5
L 1.1 57.25"/>
</defs>

<g transform="matrix( 1, 0, 0, 1, 0,0) ">
<use xlink:href="#Layer0_0_FILL"/>
</g>

<g transform="matrix( -1, 0, 0, 1, 73.65,-94.5) ">
<g transform="matrix( 0.974517822265625, 0.2210693359375, -0.2210693359375, 0.974517822265625, -0.05,2.5) ">
<g transform="matrix( 0.9659271240234375, -0.258819580078125, 0.258819580078125, 0.9659271240234375, 5.1,95.3) ">
<g transform="matrix( 1, 0, 0, 1, 0,0) ">
<use xlink:href="#Symbol_182_0_Layer0_0_FILL"/>
</g>
</g>

<g transform="matrix( 1, 0, 0, 1, -8.35,0) ">
<g transform="matrix( 1, 0, 0, 1, 0,0) ">
<use xlink:href="#Symbol_184_0_Layer0_0_1_STROKES"/>
</g>
</g>
</g>
</g>
</svg>
