
<svg xmlns="http://www.w3.org/2000/svg" version="1.1" xmlns:xlink="http://www.w3.org/1999/xlink" preserveAspectRatio="none" x="0px" y="0px" width="32px" height="32px" viewBox="-1 -1 32 32">
<path id="Layer2_0_1_STROKES" stroke="#1AB01A" stroke-width="1" stroke-linejoin="round" stroke-linecap="round" fill="none" d="
M 24.05 0.4
L 21.05 0.4
M 29.45 3.7
Q 29.05 2 27.8 1.15
M 29.6 24.6
L 29.6 21.6
M 29.6 17.6
L 29.6 14.6
M 29.6 10.6
L 29.6 7.6
M 3.15 0.7
Q 1.6 1.25 0.9 2.65
M 0.4 6.55
L 0.4 9.55
M 17.05 0.4
L 14.05 0.4
M 10.05 0.4
L 7.05 0.4
M 0.4 20.55
L 0.4 23.55
M 0.4 13.55
L 0.4 16.55
M 0.4 25.05
Q 0.45 26.8 1.2 27.9
M 5 29.6
L 7.75 29.6
M 11.75 29.6
L 14.75 29.6
M 25.75 29.55
Q 27.5 29.35 28.45 28.3
M 18.75 29.6
L 21.75 29.6"/>
</svg>
