
<svg xmlns="http://www.w3.org/2000/svg" version="1.1" xmlns:xlink="http://www.w3.org/1999/xlink" preserveAspectRatio="none" x="0px" y="0px" width="30px" height="30px" viewBox="0 0 30 30">
<defs>
<g id="Layer1_0_FILL">
<path fill="#000000" stroke="none" d="
M 30 0
L 0 0 0 30 30 30 30 0 Z"/>
</g>

<g id="Layer0_0_FILL">
<path fill="#FFFFFF" stroke="none" d="
M 30 8.05
L 30 10 30.2 10 30.2 8.05 30 8.05
M 6 -0.05
L 4 -0.05 4 1 2 1 2 3 4 3 4 1.95 6 1.95 6 -0.05
M 8 22.8
L 6 22.8 6 24.8 8 24.8 8 22.8
M 0 7.9
L 0 9.85 2 9.85 2 7.9 0 7.9
M 26 15.9
L 26 18 28 18 28 15.9 26 15.9
M 22 3.05
L 22 1.1 20 1.1 20 0 18 0 18 2 20 2 20 3.05 22 3.05
M 11 26.9
L 11 24.95 9 24.95 9 26.9 11 26.9
M 19 25.95
L 19 27.9 21 27.9 21 25.95 19 25.95
M 13 20.95
L 15 20.95 15 18.95 13 18.95 13 20.95
M 7 8.05
L 9 8.05 9 6.05 7 6.05 7 8.05
M 18 22.9
L 16 22.9 16 24.85 18 24.85 18 22.9
M 24 9.9
L 24 7.9 22 7.9 22 9.9 24 9.9
M 13 24.9
L 13 26.9 15 26.9 15 24.9 13 24.9
M 3 25.9
L 3 27.9 5 27.9 5 25.9 3 25.9
M 9 18.95
L 9 20.9 11 20.9 11 18.95 9 18.95
M 15 8
L 17 8 17 6 15 6 15 8 Z"/>
</g>
</defs>

<g transform="matrix( 1, 0, 0, 1, 0,0) ">
<use xlink:href="#Layer1_0_FILL"/>
</g>

<g transform="matrix( 1, 0, 0, 1, 0,0) ">
<use xlink:href="#Layer0_0_FILL"/>
</g>
</svg>
