
<svg xmlns="http://www.w3.org/2000/svg" version="1.1" xmlns:xlink="http://www.w3.org/1999/xlink" preserveAspectRatio="none" x="0px" y="0px" width="30px" height="30px" viewBox="0 0 30 30">
<defs>
<g id="Layer1_0_FILL">
<path fill="#000000" stroke="none" d="
M 30 0
L 0 0 0 30 30 30 30 0 Z"/>
</g>

<g id="Layer0_0_FILL">
<path fill="#FFFFFF" stroke="none" d="
M 30.2 18
L 30.2 16 29 16 29 18 30.2 18
M 1 17.85
L 1 15.85 -0.3 15.85 -0.3 17.85 1 17.85
M 0 9.95
L 0 7.95 -0.3 7.95 -0.3 9.95 0 9.95
M 9 -0.05
L 7 -0.05 7 1.95 8 1.95 8 3 10 3 10 1 9 1 9 -0.05
M 11 22.8
L 9 22.8 9 24.8 11 24.8 11 22.8
M 3 7.85
L 3 9.85 5 9.85 5 7.85 3 7.85
M 15 18.95
L 15 20.9 16 20.9 16 20.95 18 20.95 18 18.95 15 18.95
M 26 2.05
L 26 0.05 24 0.05 24 1.1 23 1.1 23 3.05 25 3.05 25 2.05 26 2.05
M 24 27.9
L 24 25.95 22 25.95 22 27.9 24 27.9
M 14 24.95
L 12 24.95 12 26.9 14 26.9 14 24.95
M 12 8.05
L 12 6.05 10 6.05 10 8.05 12 8.05
M 24 22.95
L 22 22.95 22 24.9 24 24.9 24 22.95
M 28 9.95
L 30 9.95 30 7.95 28 7.95 28 9.95
M 19 24.9
L 19 26.9 21 26.9 21 24.9 19 24.9
M 9 25.9
L 9 27.9 11 27.9 11 25.9 9 25.9
M 4 15.95
L 2 15.95 2 17.95 4 17.95 4 15.95
M 21 6
L 21 7.95 23 7.95 23 6 21 6 Z"/>
</g>
</defs>

<g transform="matrix( 1, 0, 0, 1, 0,0) ">
<use xlink:href="#Layer1_0_FILL"/>
</g>

<g transform="matrix( 1, 0, 0, 1, 0,0) ">
<use xlink:href="#Layer0_0_FILL"/>
</g>
</svg>
