
<svg xmlns="http://www.w3.org/2000/svg" version="1.1" xmlns:xlink="http://www.w3.org/1999/xlink" preserveAspectRatio="none" x="0px" y="0px" width="30px" height="30px" viewBox="0 0 30 30">
<defs>
<g id="Layer1_0_FILL">
<path fill="#000000" stroke="none" d="
M 30 0
L 0 0 0 30 30 30 30 0 Z"/>
</g>

<g id="Layer0_0_FILL">
<path fill="#FFFFFF" stroke="none" d="
M 30.2 18
L 30.2 16 30 16 30 18 30.2 18
M 30.2 9.95
L 30.2 7.95 30 7.95 30 9.95 30.2 9.95
M 10 -0.05
L 8 -0.05 8 1.95 10 1.95 10 3 12 3 12 1 10 1 10 -0.05
M 12 22.8
L 10 22.8 10 24.8 12 24.8 12 22.8
M 2 17.85
L 2 15.85 0 15.85 0 17.85 2 17.85
M 4 7.85
L 4 9.85 6 9.85 6 7.85 4 7.85
M 23 25.95
L 23 24.9 21 24.9 21 26.9 23 26.9 23 27.9 25 27.9 25 25.95 23 25.95
M 15 24.95
L 13 24.95 13 25.9 11 25.9 11 27.9 13 27.9 13 26.95 15 26.95 15 24.95
M 17 18.95
L 17 20.95 19 20.95 19 18.95 17 18.95
M 26 0.05
L 26 1.05 24 1.05 24 3.05 26 3.05 26 2.05 28 2.05 28 0.05 26 0.05
M 11 8.05
L 13 8.05 13 6.05 11 6.05 11 8.05
M 26 22.95
L 24 22.95 24 24.95 26 24.95 26 22.95
M 4 15.95
L 4 17.95 6 17.95 6 15.95 4 15.95
M 2 7.95
L 0 7.95 0 9.95 2 9.95 2 7.95
M 23 6
L 23 7.95 25 7.95 25 6 23 6 Z"/>
</g>
</defs>

<g transform="matrix( 1, 0, 0, 1, 0,0) ">
<use xlink:href="#Layer1_0_FILL"/>
</g>

<g transform="matrix( 1, 0, 0, 1, 0,0) ">
<use xlink:href="#Layer0_0_FILL"/>
</g>
</svg>
