
<svg xmlns="http://www.w3.org/2000/svg" version="1.1" xmlns:xlink="http://www.w3.org/1999/xlink" preserveAspectRatio="none" x="0px" y="0px" width="30px" height="30px" viewBox="0 0 30 30">
<path fill="#305A25" stroke="none" d="
M 0 30
L 30 30 30 0 0 0 Z"/>
<path fill="#000000" fill-opacity="0.3215686274509804" stroke="none" d="
M 5 30
L 10 30 0 20 0 25 5 30
M 0 10
L 0 15 15 30 20 30 0 10
M 10 0
L 5 0 30 25 30 20 10 0
M 0 0
L 0 5 25 30 30 30 0 0
M 30 0
L 25 0 30 5 30 0
M 30 15
L 30 10 20 0 15 0 30 15 Z"/>
<path fill="#FFFFFF" fill-opacity="0.4980392156862745" stroke="none" d="
M 10.05 0
L 0.05 0 0.05 30 10.05 30 10.05 0 Z"/>
<path fill="#FFFFFF" stroke="none" d="
M 3.1 0
L 0.1 0 0.1 30 3.1 30 3.1 0 Z"/>
</svg>
