
<svg xmlns="http://www.w3.org/2000/svg" version="1.1" xmlns:xlink="http://www.w3.org/1999/xlink" preserveAspectRatio="none" x="0px" y="0px" width="30px" height="30px" viewBox="0 0 30 30">
<defs>
<g id="Layer1_0_FILL">
<path fill="#000000" stroke="none" d="
M 30 0
L 0 0 0 30 30 30 30 0 Z"/>
</g>

<g id="Layer0_0_FILL">
<path fill="#FFFFFF" stroke="none" d="
M 30 18.95
L 30 20.9 30.2 20.9 30.2 18.95 30 18.95
M 30.2 17.95
L 30.2 15.95 30 15.95 30 17.95 30.2 17.95
M 6 27.9
L 9 27.9 9 25.9 6 25.9 6 27.9
M 9 3
L 9 1 6 1 6 3 9 3
M 21 8
L 21 6 19 6 19 7.95 17 7.95 17 9.95 19 9.95 19 8 21 8
M 24 2.05
L 24 0.05 21 0.05 21 2.05 24 2.05
M 15 17.95
L 15 15.95 13 15.95 13 17.95 15 17.95
M 0 20.95
L 2 20.95 2 18.95 0 18.95 0 20.95
M 25 22.95
L 23 22.95 23 24.9 25 24.9 25 22.95
M 26 8
L 26 9.95 28 9.95 28 7.95 26 7.95 26 6 24 6 24 8 26 8
M 28 26.9
L 28 24.9 26 24.9 26 26.9 28 26.9
M 20 22.95
L 20 24.9 22 24.9 22 22.95 20 22.95
M 17 24.9
L 17 26.9 19 26.9 19 24.9 17 24.9
M 13 20.9
L 15 20.9 15 18.95 13 18.95 13 20.9
M 0 17.95
L 2 17.95 2 15.95 0 15.95 0 17.95 Z"/>
</g>
</defs>

<g transform="matrix( 1, 0, 0, 1, 0,0) ">
<use xlink:href="#Layer1_0_FILL"/>
</g>

<g transform="matrix( 1, 0, 0, 1, 0,0) ">
<use xlink:href="#Layer0_0_FILL"/>
</g>
</svg>
