
<svg xmlns="http://www.w3.org/2000/svg" version="1.1" xmlns:xlink="http://www.w3.org/1999/xlink" preserveAspectRatio="none" x="0px" y="0px" width="30px" height="30px" viewBox="0 0 30 30">
<defs>
<g id="Layer1_0_FILL">
<path fill="#000000" stroke="none" d="
M 30 0
L 0 0 0 30 30 30 30 0 Z"/>
</g>

<g id="Layer0_0_FILL">
<path fill="#FFFFFF" stroke="none" d="
M 29 8.05
L 29 10.05 30.2 10.05 30.2 8.05 29 8.05
M 30.2 2.95
L 30.2 0.95 30 0.95 30 2.95 30.2 2.95
M 1 9.85
L 1 7.9 -0.3 7.9 -0.3 9.85 1 9.85
M 7 22.8
L 5 22.8 5 24.8 7 24.8 7 22.8
M 5 -0.05
L 3 -0.05 3 1.95 5 1.95 5 -0.05
M 27 16
L 26 16 26 15.9 24 15.9 24 17.9 25 17.9 25 17.95 27 17.95 27 16
M 10 26.9
L 10 24.95 8 24.95 8 26.9 10 26.9
M 20 25.9
L 18 25.9 18 27.9 20 27.9 20 25.9
M 12 20.95
L 14 20.95 14 18.95 12 18.95 12 20.95
M 6 8.05
L 8 8.05 8 6.05 6 6.05 6 8.05
M 21 3.05
L 21 1.1 19 1.1 19 3.05 21 3.05
M 16 22.85
L 14 22.85 14 24.85 16 24.85 16 22.85
M 18 2
L 18 0 16 0 16 2 18 2
M 22 9.9
L 22 7.9 20 7.9 20 9.9 22 9.9
M 11 24.9
L 11 26.9 13 26.9 13 24.9 11 24.9
M 1 25.9
L 1 27.9 3 27.9 3 25.9 1 25.9
M 7 20.9
L 9 20.9 9 18.95 7 18.95 7 20.9
M 0 3
L 2 3 2 1 0 1 0 3
M 13 8
L 15 8 15 6 13 6 13 8 Z"/>
</g>
</defs>

<g transform="matrix( 1, 0, 0, 1, 0,0) ">
<use xlink:href="#Layer1_0_FILL"/>
</g>

<g transform="matrix( 1, 0, 0, 1, 0,0) ">
<use xlink:href="#Layer0_0_FILL"/>
</g>
</svg>
