
<svg xmlns="http://www.w3.org/2000/svg" version="1.1" xmlns:xlink="http://www.w3.org/1999/xlink" preserveAspectRatio="none" x="0px" y="0px" width="30px" height="60px" viewBox="0 -15 30 60">
<defs>
<path id="Symbol_144_7_Layer1_0_1_STROKES" stroke="#FFFF00" stroke-width="1" stroke-linejoin="round" stroke-linecap="round" fill="none" d="
M 7.1 -9.75
L 10.95 -6.85 9.7 -3.1 12.6 -0.5
M -4.15 -3.85
L 4.6 -7.75 9.7 -3.1
M -8.25 -17.8
L -13.1 -18.2
M -3.9 -10.65
L -9.35 -15.35 -7.1 -18.7
M -6.4 -8.85
L -3.05 0.15 -8.3 3.15 -9.9 4 -6.95 6.9 -6.65 6.65
M -12.4 -3.5
L -14.6 -1.3 -13.3 3.4
M -6.95 6.9
L -3.4 10.4 -2.15 17.4
M -5.85 18.75
L -2.35 23.8
M -3.1 14.45
L -7.5 20.35
M -6.95 6.9
L -12.8 11.75 -16.9 13.75
M 11.1 5.4
L 9 6.5 4.9 8.6 7.75 14.15 8.7 16
M -5.65 2.15
L 3.6 9.25 4.9 8.6
M 9 6.5
L 3.6 1.4
M 7.75 14.15
L 4.9 18.85 16.5 25.45
M 10.75 22.65
L 5.75 25.9
M -8.3 3.15
L -12.15 -3.5
M -14.6 -1.3
L -16.9 1
M -1.8 -12.25
L -3.9 -10.65 -6.4 -8.85"/>

<path id="Symbol_148_7_Layer0_0_1_STROKES" stroke="#00FFFF" stroke-width="6" stroke-linejoin="round" stroke-linecap="butt" fill="none" d="
M -1.6 -12.5
Q -0.25 -4.45 -1.6 2.4 -3.3 10.1 -1.6 17.25"/>

<path id="Symbol_152_7_Layer0_0_1_STROKES" stroke="#FFFFFF" stroke-width="3" stroke-linejoin="round" stroke-linecap="butt" fill="none" d="
M -1.6 -12.5
Q -0.25 -4.45 -1.6 2.4 -3.3 10.1 -1.6 17.25"/>
</defs>

<g transform="matrix( 0.606292724609375, 0, 0, 0.9954681396484375, 15.9,14) ">
<g transform="matrix( 1, 0, 0, 1, 0,0) ">
<use xlink:href="#Symbol_144_7_Layer1_0_1_STROKES"/>
</g>
</g>

<g transform="matrix( 1, 0, 0, 1, 16.8,12.75) ">
<g transform="matrix( 1, 0, 0, 1, 0,0) ">
<use xlink:href="#Symbol_148_7_Layer0_0_1_STROKES"/>
</g>
</g>

<g transform="matrix( 1, 0, 0, 1, 16.8,12.75) ">
<g transform="matrix( 1, 0, 0, 1, 0,0) ">
<use xlink:href="#Symbol_152_7_Layer0_0_1_STROKES"/>
</g>
</g>
</svg>
