
<svg xmlns="http://www.w3.org/2000/svg" version="1.1" xmlns:xlink="http://www.w3.org/1999/xlink" preserveAspectRatio="none" x="0px" y="0px" width="30px" height="60px" viewBox="0 -15 30 60">
<defs>
<path id="Symbol_144_10_Layer1_0_1_STROKES" stroke="#FFFF00" stroke-width="1" stroke-linejoin="round" stroke-linecap="round" fill="none" d="
M 6.95 -17.8
L 11.8 -18.2
M 2.65 -10.65
L 8.05 -15.35 5.8 -18.7
M 5.1 -8.85
L 1.75 0.15 7.05 3.15 10.85 -3.5
M 11.1 -3.5
L 13.3 -1.3 15.6 1
M 0.85 17.4
L 2.1 10.4 5.65 6.9 5.35 6.65
M 7.05 3.15
L 8.6 4 5.65 6.9 11.5 11.75 15.6 13.75
M 1.8 14.45
L 6.35 16.6 10.95 18.75
M 6.35 16.6
Q -1.25 19.95 1.05 23.8
M 13.3 -1.3
L 12 3.4
M -13.9 -0.5
L -11 -3.1 -12.25 -6.85 -8.4 -9.75
M 2.85 -3.85
L -5.9 -7.75 -11 -3.1
M 4.35 2.15
L -4.9 9.25 -6.2 8.6 -9.05 14.15 -6.2 18.85 -11.55 19.8 -14.8 25.9
M -12.4 5.4
L -10.3 6.5 -4.9 1.4
M -11.55 19.8
L -16.95 20.75
M -9.05 14.15
L -10 16
M -10.3 6.5
L -6.2 8.6
M 5.1 -8.85
L 2.65 -10.65 0.5 -12.25"/>

<path id="Symbol_148_10_Layer0_0_1_STROKES" stroke="#00FFFF" stroke-width="6" stroke-linejoin="round" stroke-linecap="butt" fill="none" d="
M -1.5 17.25
Q -5.7 10.1 -1.5 2.4 1.9 -4.45 -1.5 -12.5"/>

<path id="Symbol_152_10_Layer0_0_1_STROKES" stroke="#FFFFFF" stroke-width="3" stroke-linejoin="round" stroke-linecap="butt" fill="none" d="
M -1.5 17.25
Q -5.7 10.1 -1.5 2.4 1.9 -4.45 -1.5 -12.5"/>
</defs>

<g transform="matrix( 0.606292724609375, 0, 0, 0.9954681396484375, 15.9,14) ">
<g transform="matrix( 1, 0, 0, 1, 0,0) ">
<use xlink:href="#Symbol_144_10_Layer1_0_1_STROKES"/>
</g>
</g>

<g transform="matrix( 1, 0, 0, 1, 16.8,12.75) ">
<g transform="matrix( 1, 0, 0, 1, 0,0) ">
<use xlink:href="#Symbol_148_10_Layer0_0_1_STROKES"/>
</g>
</g>

<g transform="matrix( 1, 0, 0, 1, 16.8,12.75) ">
<g transform="matrix( 1, 0, 0, 1, 0,0) ">
<use xlink:href="#Symbol_152_10_Layer0_0_1_STROKES"/>
</g>
</g>
</svg>
