
<svg xmlns="http://www.w3.org/2000/svg" version="1.1" xmlns:xlink="http://www.w3.org/1999/xlink" preserveAspectRatio="none" x="0px" y="0px" width="30px" height="30px" viewBox="0 0 30 30">
<defs>
<g id="Layer1_0_FILL">
<path fill="#000000" stroke="none" d="
M 30 0
L 0 0 0 30 30 30 30 0 Z"/>
</g>

<g id="Layer0_0_FILL">
<path fill="#FFFFFF" stroke="none" d="
M 0 17.95
L 0 15.95 -0.3 15.95 -0.3 17.95 0 17.95
M 7 -0.05
L 5 -0.05 5 1 4 1 4 3 6 3 6 1.95 7 1.95 7 -0.05
M 9 22.8
L 7 22.8 7 24.8 9 24.8 9 22.8
M 1 7.9
L 1 9.85 3 9.85 3 7.9 1 7.9
M 27 16
L 27 18 29 18 29 17.95 30 17.95 30 15.95 28 15.95 28 16 27 16
M 23 3.05
L 23 1.1 22 1.1 22 0.05 20 0.05 20 2.05 21 2.05 21 3.05 23 3.05
M 12 26.9
L 12 24.95 10 24.95 10 26.9 12 26.9
M 20 25.95
L 20 27.9 22 27.9 22 25.95 20 25.95
M 14 18.95
L 14 20.95 16 20.95 16 18.95 14 18.95
M 8 8.05
L 10 8.05 10 6.05 8 6.05 8 8.05
M 20 22.95
L 18 22.95 18 24.9 20 24.9 20 22.95
M 26 9.95
L 26 7.95 24 7.95 24 9.95 26 9.95
M 15 24.9
L 15 26.9 17 26.9 17 24.9 15 24.9
M 5 25.9
L 5 27.9 7 27.9 7 25.9 5 25.9
M 11 20.9
L 13 20.9 13 18.95 11 18.95 11 20.9
M 17 8
L 19 8 19 6 17 6 17 8 Z"/>
</g>
</defs>

<g transform="matrix( 1, 0, 0, 1, 0,0) ">
<use xlink:href="#Layer1_0_FILL"/>
</g>

<g transform="matrix( 1, 0, 0, 1, 0,0) ">
<use xlink:href="#Layer0_0_FILL"/>
</g>
</svg>
