
<svg xmlns="http://www.w3.org/2000/svg" version="1.1" xmlns:xlink="http://www.w3.org/1999/xlink" preserveAspectRatio="none" x="0px" y="0px" width="30px" height="30px" viewBox="0 0 30 30">
<defs>
<g id="Layer1_0_FILL">
<path fill="#000000" stroke="none" d="
M 30 0
L 0 0 0 30 30 30 30 0 Z"/>
</g>

<g id="Layer0_0_FILL">
<path fill="#FFFFFF" stroke="none" d="
M 30.2 3
L 30.2 1 29 1 29 3 30.2 3
M 0 27.85
L 0 25.85 -0.3 25.85 -0.3 27.85 0 27.85
M 1 2.95
L 1 0.95 -0.3 0.95 -0.3 2.95 1 2.95
M 12 9.9
L 12 7.9 9 7.9 9 9.9 12 9.9
M 17 22.85
L 15 22.85 15 24.85 17 24.85 17 22.85
M 7 17.9
L 7 15.9 5 15.9 5 17.9 7 17.9
M 15 0
L 13 0 13 2 15 2 15 0
M 30 27.9
L 30 25.9 28 25.9 28 27.9 30 27.9
M 20 24.9
L 18 24.9 18 26.9 20 26.9 20 24.9
M 16 8
L 18 8 18 6 16 6 16 8
M 24 20.9
L 24 18.9 22 18.9 22 20.9 24 20.9
M 21 25.85
L 21 27.85 23 27.85 23 25.85 21 25.85
M 14 15.9
L 14 17.9 16 17.9 16 15.9 14 15.9
M 6 22.85
L 4 22.85 4 24.85 6 24.85 6 22.85
M 6 2
L 8 2 8 0 6 0 6 2
M 27 20.9
L 29 20.9 29 18.9 27 18.9 27 20.9
M 22 2.95
L 22 0.95 20 0.95 20 2.95 22 2.95
M 3 8
L 5 8 5 6 3 6 3 8
M 1 24.9
L 1 26.9 3 26.9 3 24.9 1 24.9 Z"/>
</g>
</defs>

<g transform="matrix( 1, 0, 0, 1, 0,0) ">
<use xlink:href="#Layer1_0_FILL"/>
</g>

<g transform="matrix( 1, 0, 0, 1, 0,0) ">
<use xlink:href="#Layer0_0_FILL"/>
</g>
</svg>
