
<svg xmlns="http://www.w3.org/2000/svg" version="1.1" xmlns:xlink="http://www.w3.org/1999/xlink" preserveAspectRatio="none" x="0px" y="0px" width="30px" height="30px" viewBox="0 0 30 30">
<defs>
<g id="Layer1_0_FILL">
<path fill="#000000" stroke="none" d="
M 30 0
L 0 0 0 30 30 30 30 0 Z"/>
</g>

<g id="Layer0_0_FILL">
<path fill="#FFFFFF" stroke="none" d="
M 30 0.05
L 30 2 30.2 2 30.2 0.05 30 0.05
M 0 24.9
L 0 22.9 -0.3 22.9 -0.3 24.9 0 24.9
M 4 7.95
L 4 9.95 6 9.95 6 9.85 8 9.85 8 7.85 6 7.85 6 7.95 4 7.95
M 14 22.8
L 12 22.8 12 24.8 14 24.8 14 22.8
M 4 17.85
L 4 15.85 2 15.85 2 17.85 4 17.85
M 12 -0.05
L 10 -0.05 10 1.95 12 1.95 12 -0.05
M 27 27.9
L 27 24.9 25 24.9 25 27.9 27 27.9
M 17 27.9
L 17 24.95 15 24.95 15 27.9 17 27.9
M 21 20.95
L 21 20.9 23 20.9 23 18.95 19 18.95 19 20.95 21 20.95
M 13 8.05
L 15 8.05 15 6.05 13 6.05 13 8.05
M 28 3.05
L 28 1.05 26 1.05 26 3.05 28 3.05
M 30 22.95
L 28 22.95 28 24.95 30 24.95 30 22.95
M 8 15.95
L 8 17.95 10 17.95 10 15.95 8 15.95
M 2 0.05
L 0 0.05 0 2.05 2 2.05 2 0.05
M 14 1
L 14 3 16 3 16 1 14 1
M 27 6
L 27 7.95 29 7.95 29 6 27 6 Z"/>
</g>
</defs>

<g transform="matrix( 1, 0, 0, 1, 0,0) ">
<use xlink:href="#Layer1_0_FILL"/>
</g>

<g transform="matrix( 1, 0, 0, 1, 0,0) ">
<use xlink:href="#Layer0_0_FILL"/>
</g>
</svg>
