
<svg xmlns="http://www.w3.org/2000/svg" version="1.1" xmlns:xlink="http://www.w3.org/1999/xlink" preserveAspectRatio="none" x="0px" y="0px" width="30px" height="30px" viewBox="0 0 30 30">
<defs>
<g id="Layer1_0_FILL">
<path fill="#000000" stroke="none" d="
M 30 0
L 0 0 0 30 30 30 30 0 Z"/>
</g>

<g id="Layer0_0_FILL">
<path fill="#FFFFFF" stroke="none" d="
M 29 25.85
L 29 27.85 30.2 27.85 30.2 25.85 29 25.85
M 1 27.95
L 1 25.95 -0.3 25.95 -0.3 27.95 1 27.95
M 0 3.05
L 0 1.05 -0.3 1.05 -0.3 3.05 0 3.05
M 13 6.05
L 11 6.05 11 8.05 13 8.05 13 9.95 15 9.95 15 7.95 13 7.95 13 6.05
M 21 24.9
L 21 22.9 19 22.9 19 24.9 21 24.9
M 4 27.9
L 4 25.9 2 25.9 2 27.9 4 27.9
M 9 15.95
L 9 17.95 11 17.95 11 15.95 9 15.95
M 3 3
L 5 3 5 1 3 1 3 3
M 19 0.05
L 17 0.05 17 2.05 19 2.05 19 0.05
M 22 8.05
L 22 6.05 20 6.05 20 7.9 18 7.9 18 9.9 20 9.9 20 8.05 22 8.05
M 24 26.95
L 24 24.95 22 24.95 22 26.95 24 26.95
M 28 20.95
L 28 19 26 19 26 20.95 28 20.95
M 14 22.85
L 12 22.85 12 24.85 14 24.85 14 22.85
M 16 2
L 16 0 14 0 14 2 16 2
M 22 15.9
L 22 17.9 24 17.9 24 15.9 22 15.9
M 28 0.95
L 28 2.95 30 2.95 30 0.95 28 0.95
M 9 24.95
L 9 26.95 11 26.95 11 24.95 9 24.95
M 5 20.95
L 7 20.95 7 19 5 19 5 20.95 Z"/>
</g>
</defs>

<g transform="matrix( 1, 0, 0, 1, 0,0) ">
<use xlink:href="#Layer1_0_FILL"/>
</g>

<g transform="matrix( 1, 0, 0, 1, 0,0) ">
<use xlink:href="#Layer0_0_FILL"/>
</g>
</svg>
