
<svg xmlns="http://www.w3.org/2000/svg" version="1.1" xmlns:xlink="http://www.w3.org/1999/xlink" preserveAspectRatio="none" x="0px" y="0px" width="30px" height="30px" viewBox="0 0 30 30">
<defs>
<g id="Layer1_0_FILL">
<path fill="#000000" stroke="none" d="
M 30 0
L 0 0 0 30 30 30 30 0 Z"/>
</g>

<g id="Layer0_0_FILL">
<path fill="#FFFFFF" stroke="none" d="
M 0 9.95
L 0 7.95 -0.3 7.95 -0.3 9.95 0 9.95
M 11 25.9
L 7 25.9 7 27.9 11 27.9 11 25.9
M 26 22.95
L 22 22.95 22 24.9 26 24.9 26 22.95
M 26 2.05
L 26 0.05 22 0.05 22 2.05 26 2.05
M 16 17.95
L 16 15.95 14 15.95 14 17.95 16 17.95
M 1 20.95
L 3 20.95 3 18.95 1 18.95 1 20.95
M 8 3
L 10 3 10 1 8 1 8 3
M 18 7.95
L 18 9.95 20 9.95 20 7.95 18 7.95
M 29 24.9
L 27 24.9 27 26.9 29 26.9 29 24.9
M 27 7.95
L 27 6 25 6 25 7.95 27 7.95
M 28 9.95
L 30 9.95 30 7.95 28 7.95 28 9.95
M 19 24.9
L 19 26.9 21 26.9 21 24.9 19 24.9
M 15 20.9
L 17 20.9 17 18.95 15 18.95 15 20.9
M 4 15.95
L 2 15.95 2 17.95 4 17.95 4 15.95
M 21 6
L 21 7.95 23 7.95 23 6 21 6 Z"/>
</g>
</defs>

<g transform="matrix( 1, 0, 0, 1, 0,0) ">
<use xlink:href="#Layer1_0_FILL"/>
</g>

<g transform="matrix( 1, 0, 0, 1, 0,0) ">
<use xlink:href="#Layer0_0_FILL"/>
</g>
</svg>
