
<svg xmlns="http://www.w3.org/2000/svg" version="1.1" xmlns:xlink="http://www.w3.org/1999/xlink" preserveAspectRatio="none" x="0px" y="0px" width="30px" height="30px" viewBox="0 0 30 30">
<defs>
<g id="Layer1_0_FILL">
<path fill="#000000" stroke="none" d="
M 30 0
L 0 0 0 30 30 30 30 0 Z"/>
</g>

<g id="Layer0_0_FILL">
<path fill="#FFFFFF" stroke="none" d="
M 0 2.05
L 0 0.05 -0.3 0.05 -0.3 2.05 0 2.05
M 13 22.8
L 11 22.8 11 24.8 13 24.8 13 22.8
M 3 17.85
L 3 15.85 1 15.85 1 17.85 3 17.85
M 5 7.85
L 5 9.85 7 9.85 7 7.85 5 7.85
M 11 -0.05
L 9 -0.05 9 1.95 11 1.95 11 -0.05
M 26 27.9
L 26 25.95 25 25.95 25 24.9 23 24.9 23 26.9 24 26.9 24 27.9 26 27.9
M 16 26.95
L 16 24.95 14 24.95 14 25.9 13 25.9 13 27.9 15 27.9 15 26.95 16 26.95
M 21 20.9
L 21 18.95 18 18.95 18 20.95 20 20.95 20 20.9 21 20.9
M 12 8.05
L 14 8.05 14 6.05 12 6.05 12 8.05
M 27 3.05
L 27 1.05 25 1.05 25 3.05 27 3.05
M 28 22.95
L 26 22.95 26 24.95 28 24.95 28 22.95
M 30 2.05
L 30 0.05 28 0.05 28 2.05 30 2.05
M 6 15.95
L 6 17.95 8 17.95 8 15.95 6 15.95
M 2 9.95
L 4 9.95 4 7.95 2 7.95 2 9.95
M 12 3
L 14 3 14 1 12 1 12 3
M 25 6
L 25 7.95 27 7.95 27 6 25 6 Z"/>
</g>
</defs>

<g transform="matrix( 1, 0, 0, 1, 0,0) ">
<use xlink:href="#Layer1_0_FILL"/>
</g>

<g transform="matrix( 1, 0, 0, 1, 0,0) ">
<use xlink:href="#Layer0_0_FILL"/>
</g>
</svg>
