
<svg xmlns="http://www.w3.org/2000/svg" version="1.1" xmlns:xlink="http://www.w3.org/1999/xlink" preserveAspectRatio="none" x="0px" y="0px" width="30px" height="30px" viewBox="0 0 30 30">
<defs>
<g id="Layer1_0_FILL">
<path fill="#000000" stroke="none" d="
M 30 0
L 0 0 0 30 30 30 30 0 Z"/>
</g>

<g id="Layer0_0_FILL">
<path fill="#FFFFFF" stroke="none" d="
M 0 20.95
L 0 18.95 -0.3 18.95 -0.3 20.95 0 20.95
M 6 27.9
L 6 25.9 3 25.9 3 27.9 6 27.9
M 17 9.95
L 17 6 15 6 15 9.95 17 9.95
M 21 2.05
L 21 0.05 20 0.05 20 0 18 0 18 2 19 2 19 2.05 21 2.05
M 13 17.95
L 13 15.95 11 15.95 11 17.95 13 17.95
M 5 3
L 7 3 7 1 5 1 5 3
M 23 22.95
L 21 22.95 21 24.9 23 24.9 23 22.95
M 24 6
L 22 6 22 9.9 24 9.9 24 6
M 26 26.9
L 26 24.9 24 24.9 24 26.9 26 26.9
M 30 20.9
L 30 18.95 28 18.95 28 20.9 30 20.9
M 18 22.9
L 16 22.9 16 24.85 18 24.85 18 22.9
M 28 15.9
L 26 15.9 26 17.9 28 17.9 28 15.9
M 13 24.9
L 13 26.9 15 26.9 15 24.9 13 24.9
M 9 18.95
L 9 20.9 11 20.9 11 18.95 9 18.95
M 2 3
L 4 3 4 1 2 1 2 3 Z"/>
</g>
</defs>

<g transform="matrix( 1, 0, 0, 1, 0,0) ">
<use xlink:href="#Layer1_0_FILL"/>
</g>

<g transform="matrix( 1, 0, 0, 1, 0,0) ">
<use xlink:href="#Layer0_0_FILL"/>
</g>
</svg>
