
<svg xmlns="http://www.w3.org/2000/svg" version="1.1" xmlns:xlink="http://www.w3.org/1999/xlink" preserveAspectRatio="none" x="0px" y="0px" width="30px" height="30px" viewBox="0 0 30 30">
<defs>
<g id="Layer1_0_FILL">
<path fill="#000000" stroke="none" d="
M 30 0
L 0 0 0 30 30 30 30 0 Z"/>
</g>

<g id="Layer0_0_FILL">
<path fill="#FFFFFF" stroke="none" d="
M 30.2 27.95
L 30.2 25.95 29 25.95 29 27.95 30.2 27.95
M 30.2 20.9
L 30.2 18.9 29 18.9 29 20.9 30.2 20.9
M 30.2 3.05
L 30.2 1.05 30 1.05 30 3.05 30.2 3.05
M 1 27.9
L 1 25.9 -0.3 25.9 -0.3 27.9 1 27.9
M 1 20.95
L 1 18.95 -0.3 18.95 -0.3 20.95 1 20.95
M 12 7.9
L 12 7.95 10 7.95 10 9.95 12 9.95 12 9.9 14 9.9 14 7.9 12 7.9
M 18 22.9
L 16 22.9 16 24.9 18 24.9 18 22.9
M 8 17.95
L 8 15.95 6 15.95 6 17.95 8 17.95
M 0 3
L 2 3 2 1 0 1 0 3
M 16 2.05
L 16 0.05 14 0.05 14 2.05 16 2.05
M 19 24.95
L 19 26.95 21 26.95 21 24.95 19 24.95
M 17 8.05
L 19 8.05 19 6.05 17 6.05 17 8.05
M 25 20.95
L 25 18.95 23 18.95 23 20.95 25 20.95
M 23 25.85
L 23 27.85 25 27.85 25 25.85 23 25.85
M 16 15.9
L 16 17.9 18 17.9 18 15.9 16 15.9
M 8 22.85
L 6 22.85 6 24.85 8 24.85 8 22.85
M 10 0
L 8 0 8 2 10 2 10 0
M 22 0.95
L 22 2.95 24 2.95 24 0.95 22 0.95
M 5 24.95
L 3 24.95 3 26.95 5 26.95 5 24.95
M 5 6.05
L 5 8.05 7 8.05 7 6.05 5 6.05 Z"/>
</g>
</defs>

<g transform="matrix( 1, 0, 0, 1, 0,0) ">
<use xlink:href="#Layer1_0_FILL"/>
</g>

<g transform="matrix( 1, 0, 0, 1, 0,0) ">
<use xlink:href="#Layer0_0_FILL"/>
</g>
</svg>
