
<svg xmlns="http://www.w3.org/2000/svg" version="1.1" xmlns:xlink="http://www.w3.org/1999/xlink" preserveAspectRatio="none" x="0px" y="0px" width="30px" height="30px" viewBox="0 0 30 30">
<defs>
<g id="Layer1_0_FILL">
<path fill="#000000" stroke="none" d="
M 30 0
L 0 0 0 30 30 30 30 0 Z"/>
</g>

<g id="Layer0_0_FILL">
<path fill="#FFFFFF" stroke="none" d="
M 30.2 27.85
L 30.2 25.85 29 25.85 29 27.85 30.2 27.85
M 1 27.95
L 1 25.95 -0.3 25.95 -0.3 27.95 1 27.95
M 0 3.05
L 0 1.05 -0.3 1.05 -0.3 3.05 0 3.05
M 0 9.85
L 0 7.9 -0.3 7.9 -0.3 9.85 0 9.85
M 6 22.8
L 4 22.8 4 24.8 6 24.8 6 22.8
M 4 -0.05
L 2 -0.05 2 1.95 4 1.95 4 -0.05
M 11 26.95
L 11 24.95 7 24.95 7 26.9 9 26.9 9 26.95 11 26.95
M 26 17.95
L 26 16 24 16 24 15.9 22 15.9 22 17.9 24 17.9 24 17.95 26 17.95
M 19 27.9
L 19 25.9 17 25.9 17 27.9 19 27.9
M 11 20.95
L 13 20.95 13 18.95 11 18.95 11 20.95
M 5 8.05
L 7 8.05 7 6.05 5 6.05 5 8.05
M 18 3.05
L 20 3.05 20 1.1 18 1.1 18 3.05
M 28 8.05
L 28 10.05 30 10.05 30 8.05 28 8.05
M 14 22.85
L 12 22.85 12 24.85 14 24.85 14 22.85
M 18 9.9
L 20 9.9 20 7.9 18 7.9 18 9.9
M 16 2
L 16 0 14 0 14 2 16 2
M 28 0.95
L 28 2.95 30 2.95 30 0.95 28 0.95
M 5 20.95
L 7 20.95 7 19 5 19 5 20.95
M 11 8.05
L 13 8.05 13 6.05 11 6.05 11 8.05 Z"/>
</g>
</defs>

<g transform="matrix( 1, 0, 0, 1, 0,0) ">
<use xlink:href="#Layer1_0_FILL"/>
</g>

<g transform="matrix( 1, 0, 0, 1, 0,0) ">
<use xlink:href="#Layer0_0_FILL"/>
</g>
</svg>
