
<svg xmlns="http://www.w3.org/2000/svg" version="1.1" xmlns:xlink="http://www.w3.org/1999/xlink" preserveAspectRatio="none" x="0px" y="0px" width="30px" height="30px" viewBox="0 0 30 30">
<defs>
<g id="Layer1_0_FILL">
<path fill="#000000" stroke="none" d="
M 30 0
L 0 0 0 30 30 30 30 0 Z"/>
</g>

<g id="Layer0_0_FILL">
<path fill="#FFFFFF" stroke="none" d="
M 29 18.95
L 29 20.9 30.2 20.9 30.2 18.95 29 18.95
M 0 17.95
L 0 15.95 -0.3 15.95 -0.3 17.95 0 17.95
M 1 20.95
L 1 18.95 -0.3 18.95 -0.3 20.95 1 20.95
M 4 3
L 8 3 8 1 4 1 4 3
M 19 6
L 17 6 17 7.95 16 7.95 16 9.95 18 9.95 18 8 19 8 19 6
M 7 25.9
L 5 25.9 5 27.9 7 27.9 7 25.9
M 14 15.95
L 12 15.95 12 17.95 14 17.95 14 15.95
M 24 22.95
L 22 22.95 22 24.9 24 24.9 24 22.95
M 22 2.05
L 22 0.05 20 0.05 20 2.05 22 2.05
M 25 6
L 23 6 23 8 24 8 24 9.95 26 9.95 26 7.95 25 7.95 25 6
M 27 26.9
L 27 24.9 25 24.9 25 26.9 27 26.9
M 20 22.95
L 18 22.95 18 24.9 20 24.9 20 22.95
M 30 15.95
L 28 15.95 28 17.95 30 17.95 30 15.95
M 15 24.9
L 15 26.9 17 26.9 17 24.9 15 24.9
M 11 20.9
L 13 20.9 13 18.95 11 18.95 11 20.9 Z"/>
</g>
</defs>

<g transform="matrix( 1, 0, 0, 1, 0,0) ">
<use xlink:href="#Layer1_0_FILL"/>
</g>

<g transform="matrix( 1, 0, 0, 1, 0,0) ">
<use xlink:href="#Layer0_0_FILL"/>
</g>
</svg>
