
<svg xmlns="http://www.w3.org/2000/svg" version="1.1" xmlns:xlink="http://www.w3.org/1999/xlink" preserveAspectRatio="none" x="0px" y="0px" width="30px" height="30px" viewBox="0 0 30 30">
<defs>
<g id="Layer1_0_FILL">
<path fill="#000000" stroke="none" d="
M 30 0
L 0 0 0 30 30 30 30 0 Z"/>
</g>

<g id="Layer0_0_FILL">
<path fill="#FFFFFF" stroke="none" d="
M 30.2 27.95
L 30.2 25.95 30 25.95 30 27.95 30.2 27.95
M 0 25.9
L 0 27.9 2 27.9 2 25.9 0 25.9
M 19 22.9
L 17 22.9 17 24.9 19 24.9 19 22.9
M 9 15.95
L 7 15.95 7 17.95 9 17.95 9 15.95
M 3 3
L 3 1 1 1 1 3 3 3
M 11 7.95
L 11 9.95 13 9.95 13 7.95 11 7.95
M 17 2.05
L 17 0.05 15 0.05 15 2.05 17 2.05
M 20 24.95
L 20 26.95 22 26.95 22 24.95 20 24.95
M 20 6.05
L 18 6.05 18 8.05 20 8.05 20 6.05
M 26 20.95
L 26 19 24 19 24 20.95 26 20.95
M 25 25.85
L 25 27.85 27 27.85 27 25.85 25 25.85
M 18 15.9
L 18 17.9 20 17.9 20 15.9 18 15.9
M 10 22.85
L 8 22.85 8 24.85 10 24.85 10 22.85
M 16 9.9
L 16 7.9 14 7.9 14 9.9 16 9.9
M 12 2
L 12 0 10 0 10 2 12 2
M 24 0.95
L 24 2.95 26 2.95 26 0.95 24 0.95
M 5 24.95
L 5 26.95 7 26.95 7 24.95 5 24.95
M 1 18.95
L 1 20.95 3 20.95 3 18.95 1 18.95
M 7 6.05
L 7 8.05 9 8.05 9 6.05 7 6.05 Z"/>
</g>
</defs>

<g transform="matrix( 1, 0, 0, 1, 0,0) ">
<use xlink:href="#Layer1_0_FILL"/>
</g>

<g transform="matrix( 1, 0, 0, 1, 0,0) ">
<use xlink:href="#Layer0_0_FILL"/>
</g>
</svg>
