
<svg xmlns="http://www.w3.org/2000/svg" version="1.1" xmlns:xlink="http://www.w3.org/1999/xlink" preserveAspectRatio="none" x="0px" y="0px" width="30px" height="30px" viewBox="0 0 30 30">
<path fill="#9900FF" stroke="none" d="
M 0 0
L 0 30 30 30 30 0 0 0 Z"/>
<path fill="#000000" fill-opacity="0.3215686274509804" stroke="none" d="
M 10 5
L 10 0 0 0 0 5 10 5
M 30 10
L 30 0 25 0 25 5 15 5 15 10 5 10 5 15 0 15 0 20 10 20 10 15 20 15 20 10 30 10
M 25 15
L 25 20 15 20 15 25 5 25 5 30 20 30 20 25 30 25 30 15 25 15 Z"/>
</svg>
