
<svg xmlns="http://www.w3.org/2000/svg" version="1.1" xmlns:xlink="http://www.w3.org/1999/xlink" preserveAspectRatio="none" x="0px" y="0px" width="30px" height="30px" viewBox="0 0 30 30">
<defs>
<g id="Layer1_0_FILL">
<path fill="#000000" stroke="none" d="
M 30 0
L 0 0 0 30 30 30 30 0 Z"/>
</g>

<g id="Layer0_0_FILL">
<path fill="#FFFFFF" stroke="none" d="
M 3 25.9
L 1 25.9 1 27.9 3 27.9 3 25.9
M 20 22.9
L 18 22.9 18 24.9 20 24.9 20 22.9
M 10 17.95
L 10 15.95 8 15.95 8 17.95 10 17.95
M 2 3
L 4 3 4 1 2 1 2 3
M 12 7.95
L 12 9.95 14 9.95 14 7.95 12 7.95
M 18 0.05
L 16 0.05 16 2.05 18 2.05 18 0.05
M 23 26.95
L 23 24.95 21 24.95 21 26.95 23 26.95
M 27 20.95
L 27 19 25 19 25 20.95 27 20.95
M 21 8.05
L 21 6.05 19 6.05 19 8.05 21 8.05
M 27 25.85
L 27 27.85 29 27.85 29 25.85 27 25.85
M 12 22.85
L 10 22.85 10 24.85 12 24.85 12 22.85
M 16 9.9
L 18 9.9 18 7.9 16 7.9 16 9.9
M 14 2
L 14 0 12 0 12 2 14 2
M 22 17.9
L 22 15.9 20 15.9 20 17.9 22 17.9
M 26 0.95
L 26 2.95 28 2.95 28 0.95 26 0.95
M 7 24.95
L 7 26.95 9 26.95 9 24.95 7 24.95
M 3 19
L 3 20.95 5 20.95 5 19 3 19
M 11 8.05
L 11 6.05 9 6.05 9 8.05 11 8.05 Z"/>
</g>
</defs>

<g transform="matrix( 1, 0, 0, 1, 0,0) ">
<use xlink:href="#Layer1_0_FILL"/>
</g>

<g transform="matrix( 1, 0, 0, 1, 0,0) ">
<use xlink:href="#Layer0_0_FILL"/>
</g>
</svg>
