
<svg xmlns="http://www.w3.org/2000/svg" version="1.1" xmlns:xlink="http://www.w3.org/1999/xlink" preserveAspectRatio="none" x="0px" y="0px" width="30px" height="30px" viewBox="0 0 30 30">
<defs>
<g id="Layer1_0_FILL">
<path fill="#000000" stroke="none" d="
M 30 0
L 0 0 0 30 30 30 30 0 Z"/>
</g>

<g id="Layer0_0_FILL">
<path fill="#FFFFFF" stroke="none" d="
M 30.2 20.9
L 30.2 18.9 29 18.9 29 20.9 30.2 20.9
M 30.2 2.15
L 30.2 0.15 29 0.15 29 2.15 30.2 2.15
M 1 20.95
L 1 18.95 -0.3 18.95 -0.3 20.95 1 20.95
M 1 2
L 1 0 -0.3 0 -0.3 2 1 2
M 3 22.85
L 1 22.85 1 24.85 3 24.85 3 22.85
M 6 26.9
L 6 24.9 4 24.9 4 24.95 3 24.95 3 26.95 5 26.95 5 26.9 6 26.9
M 16 27.9
L 16 25.9 14 25.9 14 27.9 16 27.9
M 8 20.95
L 10 20.95 10 18.95 8 18.95 8 20.95
M 4 6.05
L 2 6.05 2 8.05 4 8.05 4 6.05
M 15 3.1
L 17 3.1 17 1.1 15 1.1 15 3.1
M 23 16
L 21 16 21 17.95 23 17.95 23 16
M 25 8.05
L 25 10.05 27 10.05 27 8.05 25 8.05
M 23 25.85
L 23 27.85 25 27.85 25 25.85 23 25.85
M 16 15.9
L 16 17.9 18 17.9 18 15.9 16 15.9
M 8 22.85
L 6 22.85 6 24.85 8 24.85 8 22.85
M 10 0
L 8 0 8 2 10 2 10 0
M 12 9.9
L 14 9.9 14 7.9 12 7.9 12 9.9
M 22 0.95
L 22 2.95 24 2.95 24 0.95 22 0.95
M 5 6.05
L 5 8.05 7 8.05 7 6.05 5 6.05 Z"/>
</g>
</defs>

<g transform="matrix( 1, 0, 0, 1, 0,0) ">
<use xlink:href="#Layer1_0_FILL"/>
</g>

<g transform="matrix( 1, 0, 0, 1, 0,0) ">
<use xlink:href="#Layer0_0_FILL"/>
</g>
</svg>
