
<svg xmlns="http://www.w3.org/2000/svg" version="1.1" xmlns:xlink="http://www.w3.org/1999/xlink" preserveAspectRatio="none" x="0px" y="0px" width="30px" height="30px" viewBox="0 0 30 30">
<defs>
<g id="Layer1_0_FILL">
<path fill="#000000" stroke="none" d="
M 30 0
L 0 0 0 30 30 30 30 0 Z"/>
</g>

<g id="Layer0_0_FILL">
<path fill="#FFFFFF" stroke="none" d="
M 30.2 2.95
L 30.2 0.95 30 0.95 30 2.95 30.2 2.95
M 1 27.9
L 5 27.9 5 25.9 1 25.9 1 27.9
M 15 6
L 13 6 13 8 14 8 14 9.95 16 9.95 16 7.95 15 7.95 15 6
M 18 2
L 18 2.05 20 2.05 20 0.05 18 0.05 18 0 16 0 16 2 18 2
M 22 24.9
L 22 22.9 20 22.9 20 24.9 22 24.9
M 10 15.95
L 10 17.95 12 17.95 12 15.95 10 15.95
M 4 3
L 6 3 6 1 4 1 4 3
M 23 6
L 21 6 21 7.9 20 7.9 20 9.9 22 9.9 22 8 23 8 23 6
M 25 26.9
L 25 24.9 23 24.9 23 26.9 25 26.9
M 29 20.9
L 29 18.95 27 18.95 27 20.9 29 20.9
M 16 22.85
L 14 22.85 14 24.85 16 24.85 16 22.85
M 24 15.9
L 24 17.9 26 17.9 26 15.9 24 15.9
M 11 24.9
L 11 26.9 13 26.9 13 24.9 11 24.9
M 7 20.9
L 9 20.9 9 18.95 7 18.95 7 20.9
M 0 3
L 2 3 2 1 0 1 0 3 Z"/>
</g>
</defs>

<g transform="matrix( 1, 0, 0, 1, 0,0) ">
<use xlink:href="#Layer1_0_FILL"/>
</g>

<g transform="matrix( 1, 0, 0, 1, 0,0) ">
<use xlink:href="#Layer0_0_FILL"/>
</g>
</svg>
