
<svg xmlns="http://www.w3.org/2000/svg" version="1.1" xmlns:xlink="http://www.w3.org/1999/xlink" preserveAspectRatio="none" x="0px" y="0px" width="30px" height="60px" viewBox="0 -15 30 60">
<defs>
<path id="Symbol_144_1_Layer1_0_1_STROKES" stroke="#FFFF00" stroke-width="1" stroke-linejoin="round" stroke-linecap="round" fill="none" d="
M 4.65 1.8
L 5.6 4.6 0.35 5.75
M -2.05 -12.5
L -5.55 -5.75 -4.7 -5.15 -2.55 -3.65 -4.05 0.75 3.7 -1 4.65 1.8
M 0.35 5.75
L -2.4 6.35 -2.35 6.55 -0.9 12.6 -1.9 17.55
M 9.1 -2.75
L 9.1 -3.2 4.65 1.8
M 0.35 5.75
L 4.25 10.2 5.7 11.85
M 9.1 -8.4
L 9.1 -7 9.1 -3.2 10.85 -5.15 12.7 -4
M 9.1 -7
L 4.75 -9.75 8.15 -14.3 5.65 -21.8
M 4.25 10.2
L 3.45 14.75
M 7.1 -0.15
L 12.35 5.6
M -15 -14.25
L -9.7 -13.7 -5.9 -16.2
M -16.65 -6.4
L -15.45 -7.05 -13.7 -4.95 -11.75 -8.7
M -4.7 -5.15
L -10.55 -1.25 -13.7 -4.95
M -3.75 -10.15
L -9.7 -13.7
M -2.35 6.55
L -9.65 5.85 -14.15 9.35 -12.9 14.1
M -14.15 9.35
L -16.9 11.5
M -0.3 -0.5
L 4.6 -6.5"/>

<path id="Symbol_148_13_Layer0_0_1_STROKES" stroke="#00FFFF" stroke-width="6" stroke-linejoin="round" stroke-linecap="butt" fill="none" d="
M -1.6 -12.5
Q -0.25 -4.45 -1.6 2.4 -3.3 10.1 -1.6 17.25"/>

<path id="Symbol_152_13_Layer0_0_1_STROKES" stroke="#FFFFFF" stroke-width="3" stroke-linejoin="round" stroke-linecap="butt" fill="none" d="
M -1.6 -12.5
Q -0.25 -4.45 -1.6 2.4 -3.3 10.1 -1.6 17.25"/>
</defs>

<g transform="matrix( 0.606292724609375, 0, 0, 0.9954681396484375, 15.9,14) ">
<g transform="matrix( 1, 0, 0, 1, 0,0) ">
<use xlink:href="#Symbol_144_1_Layer1_0_1_STROKES"/>
</g>
</g>

<g transform="matrix( 1, 0, 0, 1, 16.8,12.75) ">
<g transform="matrix( 1, 0, 0, 1, 0,0) ">
<use xlink:href="#Symbol_148_13_Layer0_0_1_STROKES"/>
</g>
</g>

<g transform="matrix( 1, 0, 0, 1, 16.8,12.75) ">
<g transform="matrix( 1, 0, 0, 1, 0,0) ">
<use xlink:href="#Symbol_152_13_Layer0_0_1_STROKES"/>
</g>
</g>
</svg>
