
<svg xmlns="http://www.w3.org/2000/svg" version="1.1" xmlns:xlink="http://www.w3.org/1999/xlink" preserveAspectRatio="none" x="0px" y="0px" width="30px" height="60px" viewBox="0 -15 30 60">
<defs>
<path id="Symbol_144_2_Layer1_0_1_STROKES" stroke="#FFFF00" stroke-width="1" stroke-linejoin="round" stroke-linecap="round" fill="none" d="
M 10.85 -6.5
L 7.7 -6.5 7.7 -3.25 0.85 -4.05 1.85 -1 -2.8 -3.75 1.9 7 6.6 10.95 9.2 13.15
M 7.7 -8.6
L 7.7 -6.5
M 0.85 -4.05
L -0.35 -7.6 -7.9 -6.6 -11.55 -10.5
M -0.35 -7.6
L -1.15 -9.8 -2.05 -12.5
M -10.05 6.9
L -9.75 7.25 -5.05 7.2 -7.65 -1.1
M -11.65 1.65
L -11.85 1.25 -13.3 1.25
M -5.8 13.15
L -10.1 14.85 -13.55 16.15
M -7.3 1.25
L -11.85 1.25 -15.1 -5.35
M -10.1 14.85
L -15.4 8.9
M -9.75 7.25
L -1.95 17.6
M 6.6 10.95
L 5.7 15.4
M 1.9 7
L 1.95 7.15 -5.05 7.2
M 5.9 -16.3
L 9.5 -14.7 10.4 -15.65
M -1.15 -9.8
L 7.25 -12.35 9.5 -14.7
M -9.5 -8.75
L -5.75 -11.55 -10.85 -17.4"/>

<path id="Symbol_148_2_Layer0_0_1_STROKES" stroke="#00FFFF" stroke-width="6" stroke-linejoin="round" stroke-linecap="butt" fill="none" d="
M -1.8 -12.5
Q -3.85 -4.45 -1.8 2.4 0.7 10.1 -1.8 17.25"/>

<path id="Symbol_152_2_Layer0_0_1_STROKES" stroke="#FFFFFF" stroke-width="3" stroke-linejoin="round" stroke-linecap="butt" fill="none" d="
M -1.8 -12.5
Q -3.85 -4.45 -1.8 2.4 0.7 10.1 -1.8 17.25"/>
</defs>

<g transform="matrix( 0.606292724609375, 0, 0, 0.9954681396484375, 15.9,14) ">
<g transform="matrix( 1, 0, 0, 1, 0,0) ">
<use xlink:href="#Symbol_144_2_Layer1_0_1_STROKES"/>
</g>
</g>

<g transform="matrix( 1, 0, 0, 1, 16.8,12.75) ">
<g transform="matrix( 1, 0, 0, 1, 0,0) ">
<use xlink:href="#Symbol_148_2_Layer0_0_1_STROKES"/>
</g>
</g>

<g transform="matrix( 1, 0, 0, 1, 16.8,12.75) ">
<g transform="matrix( 1, 0, 0, 1, 0,0) ">
<use xlink:href="#Symbol_152_2_Layer0_0_1_STROKES"/>
</g>
</g>
</svg>
