
<svg xmlns="http://www.w3.org/2000/svg" version="1.1" xmlns:xlink="http://www.w3.org/1999/xlink" preserveAspectRatio="none" x="0px" y="0px" width="30px" height="30px" viewBox="0 0 30 30">
<defs>
<g id="Layer1_0_FILL">
<path fill="#000000" stroke="none" d="
M 30 0
L 0 0 0 30 30 30 30 0 Z"/>
</g>

<g id="Layer0_0_FILL">
<path fill="#FFFFFF" stroke="none" d="
M 30.2 17.95
L 30.2 15.95 30 15.95 30 16 28 16 28 18 30 18 30 17.95 30.2 17.95
M 0 17.85
L 0 17.95 2 17.95 2 15.95 0 15.95 0 15.85 -0.3 15.85 -0.3 17.85 0 17.85
M 8 -0.05
L 6 -0.05 6 3 8 3 8 -0.05
M 10 22.8
L 8 22.8 8 24.8 10 24.8 10 22.8
M 2 9.85
L 4 9.85 4 7.9 2 7.9 2 9.85
M 17 18.95
L 13 18.95 13 20.9 15 20.9 15 20.95 17 20.95 17 18.95
M 24 3.05
L 24 0.05 22 0.05 22 3.05 24 3.05
M 23 25.95
L 21 25.95 21 27.9 23 27.9 23 25.95
M 13 26.9
L 13 24.95 11 24.95 11 26.9 13 26.9
M 11 8.05
L 11 6.05 9 6.05 9 8.05 11 8.05
M 20 22.95
L 20 24.9 22 24.9 22 22.95 20 22.95
M 28 7.95
L 26 7.95 26 9.95 28 9.95 28 7.95
M 17 24.9
L 17 26.9 19 26.9 19 24.9 17 24.9
M 7 25.9
L 7 27.9 9 27.9 9 25.9 7 25.9
M 21 8
L 21 6 19 6 19 8 21 8 Z"/>
</g>
</defs>

<g transform="matrix( 1, 0, 0, 1, 0,0) ">
<use xlink:href="#Layer1_0_FILL"/>
</g>

<g transform="matrix( 1, 0, 0, 1, 0,0) ">
<use xlink:href="#Layer0_0_FILL"/>
</g>
</svg>
