
<svg xmlns="http://www.w3.org/2000/svg" version="1.1" xmlns:xlink="http://www.w3.org/1999/xlink" preserveAspectRatio="none" x="0px" y="0px" width="30px" height="30px" viewBox="0 0 30 30">
<defs>
<g id="Layer1_0_FILL">
<path fill="#000000" stroke="none" d="
M 30 0
L 0 0 0 30 30 30 30 0 Z"/>
</g>

<g id="Layer0_0_FILL">
<path fill="#FFFFFF" stroke="none" d="
M 30.2 22.95
L 30 22.95 30 24.95 30.2 24.95 30.2 22.95
M 30.2 7.95
L 30.2 6 29 6 29 7.95 30.2 7.95
M 7 7.85
L 7 7.95 6 7.95 6 9.95 8 9.95 8 9.85 9 9.85 9 7.85 7 7.85
M 15 22.8
L 13 22.8 13 24.8 15 24.8 15 22.8
M 5 17.85
L 5 15.85 3 15.85 3 17.85 5 17.85
M 13 -0.05
L 11 -0.05 11 1.95 13 1.95 13 -0.05
M 28 26.9
L 29 26.9 29 24.9 27 24.9 27 25.95 26 25.95 26 27.9 28 27.9 28 26.9
M 18 25.9
L 18 24.95 16 24.95 16 26.95 17 26.95 17 27.9 19 27.9 19 25.9 18 25.9
M 14 8.05
L 16 8.05 16 6.05 14 6.05 14 8.05
M 22 20.95
L 22 18.95 20 18.95 20 20.95 22 20.95
M 27 3.05
L 29 3.05 29 1.05 27 1.05 27 3.05
M 2 22.9
L 0 22.9 0 24.9 2 24.9 2 22.9
M 10 15.95
L 10 17.95 12 17.95 12 15.95 10 15.95
M 4 0.05
L 2 0.05 2 2.05 4 2.05 4 0.05
M 16 1
L 16 3 18 3 18 1 16 1
M 23 18.95
L 23 20.9 25 20.9 25 18.95 23 18.95 Z"/>
</g>
</defs>

<g transform="matrix( 1, 0, 0, 1, 0,0) ">
<use xlink:href="#Layer1_0_FILL"/>
</g>

<g transform="matrix( 1, 0, 0, 1, 0,0) ">
<use xlink:href="#Layer0_0_FILL"/>
</g>
</svg>
