
<svg xmlns="http://www.w3.org/2000/svg" version="1.1" xmlns:xlink="http://www.w3.org/1999/xlink" preserveAspectRatio="none" x="0px" y="0px" width="30px" height="30px" viewBox="0 0 30 30">
<defs>
<g id="Layer1_0_FILL">
<path fill="#000000" stroke="none" d="
M 30 0
L 0 0 0 30 30 30 30 0 Z"/>
</g>

<g id="Layer0_0_FILL">
<path fill="#FFFFFF" stroke="none" d="
M 30.2 9.95
L 30.2 7.95 30 7.95 30 9.95 30.2 9.95
M 0 26.9
L 0 24.95 -0.3 24.95 -0.3 26.9 0 26.9
M 12 3
L 12 1 9 1 9 2.95 10 2.95 10 3 12 3
M 27 22.95
L 24 22.95 24 24.95 27 24.95 27 22.95
M 10 25.9
L 8 25.9 8 27.9 10 27.9 10 25.9
M 17 17.95
L 17 15.95 15 15.95 15 17.95 17 17.95
M 2 20.95
L 4 20.95 4 18.95 2 18.95 2 20.95
M 21 9.95
L 21 7.95 19 7.95 19 9.95 21 9.95
M 25 0.05
L 23 0.05 23 2.05 25 2.05 25 0.05
M 28 26.9
L 30 26.9 30 24.9 28 24.9 28 26.9
M 28 6
L 26 6 26 7.95 28 7.95 28 6
M 26 0.05
L 26 2.05 28 2.05 28 0.05 26 0.05
M 21 24.9
L 21 26.9 23 26.9 23 24.9 21 24.9
M 11 25.9
L 11 27.9 13 27.9 13 25.9 11 25.9
M 17 20.9
L 19 20.9 19 18.95 17 18.95 17 20.9
M 4 15.95
L 4 17.95 6 17.95 6 15.95 4 15.95
M 2 7.95
L 0 7.95 0 9.95 2 9.95 2 7.95
M 23 6
L 23 7.95 25 7.95 25 6 23 6 Z"/>
</g>
</defs>

<g transform="matrix( 1, 0, 0, 1, 0,0) ">
<use xlink:href="#Layer1_0_FILL"/>
</g>

<g transform="matrix( 1, 0, 0, 1, 0,0) ">
<use xlink:href="#Layer0_0_FILL"/>
</g>
</svg>
