
<svg xmlns="http://www.w3.org/2000/svg" version="1.1" xmlns:xlink="http://www.w3.org/1999/xlink" preserveAspectRatio="none" x="0px" y="0px" width="30px" height="30px" viewBox="0 0 30 30">
<defs>
<g id="Layer1_0_FILL">
<path fill="#000000" stroke="none" d="
M 30 0
L 0 0 0 30 30 30 30 0 Z"/>
</g>

<g id="Layer0_0_FILL">
<path fill="#FFFFFF" stroke="none" d="
M 5 22.85
L 3 22.85 3 24.85 5 24.85 5 22.85
M 1 0
L 1 2 3 2 3 0 1 0
M 9 26.95
L 9 24.95 6 24.95 6 26.9 7 26.9 7 26.95 9 26.95
M 18 27.9
L 18 25.9 16 25.9 16 27.9 18 27.9
M 10 18.95
L 10 20.95 12 20.95 12 18.95 10 18.95
M 4 8.05
L 6 8.05 6 6.05 4 6.05 4 8.05
M 17 3.05
L 19 3.05 19 1.1 17 1.1 17 3.05
M 25 16
L 23 16 23 17.95 25 17.95 25 16
M 27 8.05
L 27 10.05 29 10.05 29 8.05 27 8.05
M 27 25.85
L 27 27.85 29 27.85 29 25.85 27 25.85
M 12 22.85
L 10 22.85 10 24.85 12 24.85 12 22.85
M 16 9.9
L 18 9.9 18 7.9 16 7.9 16 9.9
M 14 2
L 14 0 12 0 12 2 14 2
M 22 17.9
L 22 15.9 20 15.9 20 17.9 22 17.9
M 26 0.95
L 26 2.95 28 2.95 28 0.95 26 0.95
M 3 19
L 3 20.95 5 20.95 5 19 3 19
M 11 8.05
L 11 6.05 9 6.05 9 8.05 11 8.05 Z"/>
</g>
</defs>

<g transform="matrix( 1, 0, 0, 1, 0,0) ">
<use xlink:href="#Layer1_0_FILL"/>
</g>

<g transform="matrix( 1, 0, 0, 1, 0,0) ">
<use xlink:href="#Layer0_0_FILL"/>
</g>
</svg>
