
<svg xmlns="http://www.w3.org/2000/svg" version="1.1" xmlns:xlink="http://www.w3.org/1999/xlink" preserveAspectRatio="none" x="0px" y="0px" width="30px" height="30px" viewBox="0 0 30 30">
<defs>
<g id="Layer1_0_FILL">
<path fill="#000000" stroke="none" d="
M 30 0
L 0 0 0 30 30 30 30 0 Z"/>
</g>

<g id="Layer0_0_FILL">
<path fill="#FFFFFF" stroke="none" d="
M 30.2 2.15
L 30.2 0.15 30 0.15 30 2.15 30.2 2.15
M 4 22.85
L 2 22.85 2 24.85 4 24.85 4 22.85
M 2 0
L 0 0 0 2 2 2 2 0
M 7 26.95
L 7 24.95 5 24.95 5 26.95 7 26.95
M 17 27.9
L 17 25.9 15 25.9 15 27.9 17 27.9
M 9 18.95
L 9 20.95 11 20.95 11 18.95 9 18.95
M 5 6.05
L 3 6.05 3 8.05 5 8.05 5 6.05
M 18 3.05
L 18 1.1 16 1.1 16 3.05 18 3.05
M 24 16
L 22 16 22 17.95 24 17.95 24 16
M 26 10.05
L 28 10.05 28 8.05 26 8.05 26 10.05
M 25 25.85
L 25 27.85 27 27.85 27 25.85 25 25.85
M 18 15.9
L 18 17.9 20 17.9 20 15.9 18 15.9
M 10 22.85
L 8 22.85 8 24.85 10 24.85 10 22.85
M 16 9.9
L 16 7.9 14 7.9 14 9.9 16 9.9
M 12 2
L 12 0 10 0 10 2 12 2
M 24 0.95
L 24 2.95 26 2.95 26 0.95 24 0.95
M 1 18.95
L 1 20.95 3 20.95 3 18.95 1 18.95
M 7 6.05
L 7 8.05 9 8.05 9 6.05 7 6.05 Z"/>
</g>
</defs>

<g transform="matrix( 1, 0, 0, 1, 0,0) ">
<use xlink:href="#Layer1_0_FILL"/>
</g>

<g transform="matrix( 1, 0, 0, 1, 0,0) ">
<use xlink:href="#Layer0_0_FILL"/>
</g>
</svg>
