
<svg xmlns="http://www.w3.org/2000/svg" version="1.1" xmlns:xlink="http://www.w3.org/1999/xlink" preserveAspectRatio="none" x="0px" y="0px" width="30px" height="30px" viewBox="0 0 30 30">
<defs>
<g id="Layer1_0_FILL">
<path fill="#000000" stroke="none" d="
M 30 0
L 0 0 0 30 30 30 30 0 Z"/>
</g>

<g id="Layer0_0_FILL">
<path fill="#FFFFFF" stroke="none" d="
M 30.2 26.9
L 30.2 24.9 29 24.9 29 26.9 30.2 26.9
M 1 26.9
L 1 24.95 -0.3 24.95 -0.3 26.9 1 26.9
M 0 2.05
L 0 0.05 -0.3 0.05 -0.3 2.05 0 2.05
M 12 2.95
L 12 3 14 3 14 1 10 1 10 2.95 12 2.95
M 11 27.9
L 11 25.9 9 25.9 9 27.9 11 27.9
M 18 17.95
L 18 15.95 16 15.95 16 17.95 18 17.95
M 3 20.95
L 5 20.95 5 18.95 3 18.95 3 20.95
M 28 22.95
L 26 22.95 26 24.95 28 24.95 28 22.95
M 22 9.95
L 22 7.95 20 7.95 20 9.95 22 9.95
M 26 2.05
L 26 0.05 24 0.05 24 2.05 26 2.05
M 25 7.95
L 29 7.95 29 6 25 6 25 7.95
M 30 2.05
L 30 0.05 28 0.05 28 2.05 30 2.05
M 23 24.9
L 23 26.9 25 26.9 25 24.9 23 24.9
M 13 25.9
L 13 27.9 15 27.9 15 25.9 13 25.9
M 6 15.95
L 6 17.95 8 17.95 8 15.95 6 15.95
M 2 9.95
L 4 9.95 4 7.95 2 7.95 2 9.95
M 21 20.9
L 21 18.95 19 18.95 19 20.9 21 20.9 Z"/>
</g>
</defs>

<g transform="matrix( 1, 0, 0, 1, 0,0) ">
<use xlink:href="#Layer1_0_FILL"/>
</g>

<g transform="matrix( 1, 0, 0, 1, 0,0) ">
<use xlink:href="#Layer0_0_FILL"/>
</g>
</svg>
