
<svg xmlns="http://www.w3.org/2000/svg" version="1.1" xmlns:xlink="http://www.w3.org/1999/xlink" preserveAspectRatio="none" x="0px" y="0px" width="30px" height="30px" viewBox="0 0 30 30">
<defs>
<g id="Layer1_0_FILL">
<path fill="#000000" stroke="none" d="
M 30 0
L 0 0 0 30 30 30 30 0 Z"/>
</g>

<g id="Layer0_0_FILL">
<path fill="#FFFFFF" stroke="none" d="
M 30.2 22.95
L 28 22.95 28 24.9 27 24.9 27 26.9 29 26.9 29 24.95 30.2 24.95 30.2 22.95
M 30.2 6
L 29 6 29 7.95 30.2 7.95 30.2 6
M 1 7.95
L 1 5.95 -0.3 5.95 -0.3 7.95 1 7.95
M 3 26.95
L 3 24.95 1 24.95 1 26.95 3 26.95
M 13 27.9
L 13 25.95 11 25.95 11 27.9 13 27.9
M 20 17.95
L 20 15.95 18 15.95 18 17.95 20 17.95
M 5 20.95
L 7 20.95 7 18.95 5 18.95 5 20.95
M 12 2.95
L 14 2.95 14 0.95 12 0.95 12 2.95
M 22 7.95
L 22 9.95 24 9.95 24 7.95 22 7.95
M 28 0.05
L 26 0.05 26 2 28 2 28 0.05
M 17 25.9
L 17 27.9 19 27.9 19 25.9 17 25.9
M 2 22.9
L 0 22.9 0 24.9 2 24.9 2 22.9
M 10 15.95
L 10 17.95 12 17.95 12 15.95 10 15.95
M 6 9.95
L 8 9.95 8 7.95 6 7.95 6 9.95
M 4 0.05
L 2 0.05 2 2.05 4 2.05 4 0.05
M 16 1
L 16 3 18 3 18 1 16 1
M 23 18.95
L 23 20.9 25 20.9 25 18.95 23 18.95 Z"/>
</g>
</defs>

<g transform="matrix( 1, 0, 0, 1, 0,0) ">
<use xlink:href="#Layer1_0_FILL"/>
</g>

<g transform="matrix( 1, 0, 0, 1, 0,0) ">
<use xlink:href="#Layer0_0_FILL"/>
</g>
</svg>
