
<svg xmlns="http://www.w3.org/2000/svg" version="1.1" xmlns:xlink="http://www.w3.org/1999/xlink" preserveAspectRatio="none" x="0px" y="0px" width="30px" height="30px" viewBox="0 0 30 30">
<defs>
<g id="Layer1_0_FILL">
<path fill="#000000" stroke="none" d="
M 30 0
L 0 0 0 30 30 30 30 0 Z"/>
</g>

<g id="Layer0_0_FILL">
<path fill="#FFFFFF" stroke="none" d="
M 30.2 26.9
L 30.2 24.9 29 24.9 29 25.95 27 25.95 27 27.95 29 27.95 29 26.9 30.2 26.9
M 0 2.9
L 0 0.9 -0.3 0.9 -0.3 2.9 0 2.9
M 10 7.85
L 8 7.85 8 9.95 10 9.95 10 7.85
M 16 22.8
L 14 22.8 14 24.8 16 24.8 16 22.8
M 6 17.85
L 6 15.85 4 15.85 4 17.85 6 17.85
M 14 -0.05
L 12 -0.05 12 1.95 14 1.95 14 -0.05
M 19 25.9
L 19 24.95 17 24.95 17 26.95 19 26.95 19 27.9 21 27.9 21 25.9 19 25.9
M 15 8.05
L 17 8.05 17 6.05 15 6.05 15 8.05
M 21 20.95
L 23 20.95 23 18.95 21 18.95 21 20.95
M 28 3.05
L 30 3.05 30 1.05 28 1.05 28 3.05
M 12 15.95
L 12 17.95 14 17.95 14 15.95 12 15.95
M 4 22.9
L 2 22.9 2 24.9 4 24.9 4 22.9
M 6 0.05
L 4 0.05 4 2.05 6 2.05 6 0.05
M 18 1
L 18 3 20 3 20 1 18 1
M 25 18.95
L 25 20.95 27 20.95 27 18.95 25 18.95 Z"/>
</g>
</defs>

<g transform="matrix( 1, 0, 0, 1, 0,0) ">
<use xlink:href="#Layer1_0_FILL"/>
</g>

<g transform="matrix( 1, 0, 0, 1, 0,0) ">
<use xlink:href="#Layer0_0_FILL"/>
</g>
</svg>
