
<svg xmlns="http://www.w3.org/2000/svg" version="1.1" xmlns:xlink="http://www.w3.org/1999/xlink" preserveAspectRatio="none" x="0px" y="0px" width="30px" height="30px" viewBox="0 0 30 30">
<defs>
<g id="Layer1_0_FILL">
<path fill="#000000" stroke="none" d="
M 30 0
L 0 0 0 30 30 30 30 0 Z"/>
</g>

<g id="Layer0_0_FILL">
<path fill="#FFFFFF" stroke="none" d="
M 4 26.95
L 4 24.95 2 24.95 2 26.95 4 26.95
M 19 25.9
L 19 27.9 21 27.9 21 25.9 19 25.9
M 14 25.95
L 12 25.95 12 27.95 14 27.95 14 25.95
M 12 15.95
L 12 17.95 14 17.95 14 15.95 12 15.95
M 6 20.95
L 8 20.95 8 18.95 6 18.95 6 20.95
M 4 22.9
L 2 22.9 2 24.9 4 24.9 4 22.9
M 10 9.95
L 10 7.95 8 7.95 8 9.95 10 9.95
M 2 5.95
L 0 5.95 0 7.95 2 7.95 2 5.95
M 6 2.05
L 6 0.05 4 0.05 4 2.05 6 2.05
M 18 1
L 18 3 20 3 20 1 18 1
M 15 2.95
L 15 0.95 13 0.95 13 2.95 15 2.95
M 30.2 22.95
L 29 22.95 29 26.9 30.2 26.9 30.2 22.95
M 21 17.95
L 21 15.95 19 15.95 19 17.95 21 17.95
M 25 20.95
L 27 20.95 27 18.95 25 18.95 25 20.95
M 23 7.95
L 23 9.95 25 9.95 25 7.95 23 7.95
M 27 0
L 27 2 29 2 29 0 27 0
M 30.2 6
L 30 6 30 7.95 30.2 7.95 30.2 6 Z"/>
</g>
</defs>

<g transform="matrix( 1, 0, 0, 1, 0,0) ">
<use xlink:href="#Layer1_0_FILL"/>
</g>

<g transform="matrix( 1, 0, 0, 1, 0,0) ">
<use xlink:href="#Layer0_0_FILL"/>
</g>
</svg>
