
<svg xmlns="http://www.w3.org/2000/svg" version="1.1" xmlns:xlink="http://www.w3.org/1999/xlink" preserveAspectRatio="none" x="0px" y="0px" width="30px" height="30px" viewBox="0 0 30 30">
<defs>
<g id="Symbol_132_0_Layer0_0_FILL">
<path fill="#000000" stroke="none" d="
M 30 0
L 0 0 0 30 30 30 30 0 Z"/>
</g>

<g id="Mask_Mask_Symbol_132_0_Layer0_0_FILL">
<path fill="#FFFFFF" stroke="none" d="
M 30 0
L 0 0 0 30 30 30 30 0 Z"/>
</g>

<g id="Symbol_134_0_Layer0_0_FILL">
<path fill="#FFFFFF" stroke="none" d="
M -15.5 9
L -15.5 11 -13.5 11 -13.5 9 -15.5 9
M -5.5 2
L -5.5 4 -3.5 4 -3.5 2 -5.5 2
M -7.5 -4
L -7.5 -6 -9.5 -6 -9.5 -4 -7.5 -4
M -11.5 -13.95
L -13.5 -13.95 -13.5 -11.95 -11.5 -11.95 -11.5 -13.95
M 3.5 12
L 1.5 12 1.5 14 3.5 14 3.5 12
M 7.5 7
L 9.5 7 9.5 5 7.5 5 7.5 7
M 13.5 11
L 11.5 11 11.5 13 13.5 13 13.5 11
M 0.5 -11
L 2.5 -11 2.5 -13 0.5 -13 0.5 -11
M 13.5 -6
L 15.5 -6 15.5 -8 13.5 -8 13.5 -6 Z"/>
</g>
</defs>

<g transform="matrix( 1, 0, 0, 1, 0,0) ">
<g transform="matrix( 1, 0, 0, 1, 0,0) ">
<use xlink:href="#Symbol_132_0_Layer0_0_FILL"/>
</g>
</g>

<g transform="matrix( 1, 0, 0, 1, 0,0) ">
<mask id="Mask_Mask_1">
<g transform="matrix( 1, 0, 0, 1, 0,0) ">
<g transform="matrix( 1, 0, 0, 1, 0,0) ">
<use xlink:href="#Mask_Mask_Symbol_132_0_Layer0_0_FILL"/>
</g>
</g>
</mask>

<g mask="url(#Mask_Mask_1)">
<g transform="matrix( 1, 0, 0, 1, 2,-1.95) ">
<g transform="matrix( 1, 0, 0, 0.996429443359375, 15.5,15.9) ">
<g transform="matrix( 1, 0, 0, 1, 0,0) ">
<use xlink:href="#Symbol_134_0_Layer0_0_FILL"/>
</g>
</g>

<g transform="matrix( 1, 0, 0, 0.99822998046875, 45.5,15.9) ">
<g transform="matrix( 1, 0, 0, 1, 0,0) ">
<use xlink:href="#Symbol_134_0_Layer0_0_FILL"/>
</g>
</g>
</g>
</g>

<g mask="url(#Mask_Mask_1)">
<g transform="matrix( -1, 0, 0, 1, 61,-1.95) ">
<g transform="matrix( 1, 0, 0, 0.996429443359375, 15.5,15.9) ">
<g transform="matrix( 1, 0, 0, 1, 0,0) ">
<use xlink:href="#Symbol_134_0_Layer0_0_FILL"/>
</g>
</g>

<g transform="matrix( 1, 0, 0, 0.99822998046875, 45.5,15.9) ">
<g transform="matrix( 1, 0, 0, 1, 0,0) ">
<use xlink:href="#Symbol_134_0_Layer0_0_FILL"/>
</g>
</g>
</g>
</g>
</g>
</svg>
