
<svg xmlns="http://www.w3.org/2000/svg" version="1.1" xmlns:xlink="http://www.w3.org/1999/xlink" preserveAspectRatio="none" x="0px" y="0px" width="30px" height="30px" viewBox="0 0 30 30">
<defs>
<g id="Layer1_0_FILL">
<path fill="#000000" stroke="none" d="
M 30 0
L 0 0 0 30 30 30 30 0 Z"/>
</g>

<g id="Layer0_0_FILL">
<path fill="#FFFFFF" stroke="none" d="
M 30.2 22.95
L 30 22.95 30 24.9 30.2 24.9 30.2 22.95
M 0 2
L 0 0 -0.3 0 -0.3 2 0 2
M 2 22.85
L 0 22.85 0 24.85 2 24.85 2 22.85
M 5 24.9
L 1 24.9 1 26.9 5 26.9 5 24.9
M 3 6.05
L 1 6.05 1 8.05 3 8.05 3 8 5 8 5 6 3 6 3 6.05
M 15 27.9
L 15 25.9 13 25.9 13 27.9 15 27.9
M 7 20.95
L 9 20.95 9 18.95 7 18.95 7 20.95
M 14 3.1
L 16 3.1 16 1.1 14 1.1 14 3.1
M 22 17.95
L 22 16 20 16 20 17.95 22 17.95
M 24 8.05
L 24 10.05 26 10.05 26 8.05 24 8.05
M 30 0.15
L 28 0.15 28 2.15 30 2.15 30 0.15
M 21 25.85
L 21 27.85 23 27.85 23 25.85 21 25.85
M 14 15.9
L 14 17.9 16 17.9 16 15.9 14 15.9
M 6 22.85
L 4 22.85 4 24.85 6 24.85 6 22.85
M 6 2
L 8 2 8 0 6 0 6 2
M 12 9.9
L 12 7.9 10 7.9 10 9.9 12 9.9
M 27 20.9
L 29 20.9 29 18.9 27 18.9 27 20.9
M 22 2.95
L 22 0.95 20 0.95 20 2.95 22 2.95 Z"/>
</g>
</defs>

<g transform="matrix( 1, 0, 0, 1, 0,0) ">
<use xlink:href="#Layer1_0_FILL"/>
</g>

<g transform="matrix( 1, 0, 0, 1, 0,0) ">
<use xlink:href="#Layer0_0_FILL"/>
</g>
</svg>
