
<svg xmlns="http://www.w3.org/2000/svg" version="1.1" xmlns:xlink="http://www.w3.org/1999/xlink" preserveAspectRatio="none" x="0px" y="0px" width="30px" height="30px" viewBox="0 0 30 30">
<defs>
<g id="Layer1_0_FILL">
<path fill="#000000" stroke="none" d="
M 30 0
L 0 0 0 30 30 30 30 0 Z"/>
</g>

<g id="Layer0_0_FILL">
<path fill="#FFFFFF" stroke="none" d="
M 30 22.95
L 27 22.95 27 24.9 25 24.9 25 26.9 27 26.9 27 24.95 30 24.95 30 26.9 30.2 26.9 30.2 24.9 30 24.9 30 22.95
M 30.2 2
L 30.2 0.05 30 0.05 30 2 30.2 2
M 0 24.9
L 0 22.9 -0.3 22.9 -0.3 24.9 0 24.9
M 0 7.95
L 0 5.95 -0.3 5.95 -0.3 7.95 0 7.95
M 2 26.9
L 2 24.95 0 24.95 0 26.9 2 26.9
M 12 27.9
L 12 25.95 10 25.95 10 27.9 12 27.9
M 19 17.95
L 19 15.95 17 15.95 17 17.95 19 17.95
M 4 20.95
L 6 20.95 6 18.95 4 18.95 4 20.95
M 11 2.95
L 13 2.95 13 1 11 1 11 2.95
M 21 9.95
L 23 9.95 23 7.95 21 7.95 21 9.95
M 27 2
L 27 0.05 25 0.05 25 2 27 2
M 30 6
L 27 6 27 7.95 30 7.95 30 6
M 15 25.9
L 15 27.9 17 27.9 17 25.9 15 25.9
M 8 15.95
L 8 17.95 10 17.95 10 15.95 8 15.95
M 4 9.95
L 6 9.95 6 7.95 4 7.95 4 9.95
M 2 0.05
L 0 0.05 0 2.05 2 2.05 2 0.05
M 14 1
L 14 3 16 3 16 1 14 1
M 21 18.95
L 21 20.9 23 20.9 23 18.95 21 18.95 Z"/>
</g>
</defs>

<g transform="matrix( 1, 0, 0, 1, 0,0) ">
<use xlink:href="#Layer1_0_FILL"/>
</g>

<g transform="matrix( 1, 0, 0, 1, 0,0) ">
<use xlink:href="#Layer0_0_FILL"/>
</g>
</svg>
