
<svg xmlns="http://www.w3.org/2000/svg" version="1.1" xmlns:xlink="http://www.w3.org/1999/xlink" preserveAspectRatio="none" x="0px" y="0px" width="30px" height="30px" viewBox="0 0 30 30">
<defs>
<g id="Layer1_0_FILL">
<path fill="#000000" fill-opacity="0.4980392156862745" stroke="none" d="
M 5.55 7.5
L 13.05 15 20.55 15 13.05 7.5 20.55 0 13.05 0 5.55 7.5 Z"/>

<path fill="#666666" fill-opacity="0.4980392156862745" stroke="none" d="
M 0 15
L 5.55 15 0 9.45 0 15
M 0 0
L 0 5.55 5.55 0 0 0
M 30 9.45
L 28.05 7.5 30 5.55 30 0 28.05 0 20.55 7.5 28.05 15 30 15 30 9.45 Z"/>

<path fill="#333333" fill-opacity="0.4980392156862745" stroke="none" d="
M 0 5.55
L 0 9.45 5.55 15 13.05 15 5.55 7.5 13.05 0 5.55 0 0 5.55
M 30 9.45
L 30 5.55 28.05 7.5 30 9.45
M 28.05 0
L 20.55 0 13.05 7.5 20.55 15 28.05 15 20.55 7.5 28.05 0 Z"/>
</g>

<g id="Layer0_0_FILL">
<path fill="#FFFFFF" fill-opacity="0.4980392156862745" stroke="none" d="
M 30 3
L 30 0 0 0 0 3 30 3 Z"/>
</g>
</defs>

<g transform="matrix( 1, 0, 0, 1, 0,0) ">
<use xlink:href="#Layer1_0_FILL"/>
</g>

<g transform="matrix( 1, 0, 0, 1, 0,0) ">
<use xlink:href="#Layer0_0_FILL"/>
</g>
</svg>
