
<svg xmlns="http://www.w3.org/2000/svg" version="1.1" xmlns:xlink="http://www.w3.org/1999/xlink" preserveAspectRatio="none" x="0px" y="0px" width="30px" height="30px" viewBox="0 0 30 30">
<defs>
<g id="Layer1_0_FILL">
<path fill="#666666" fill-opacity="0.4980392156862745" stroke="none" d="
M 14.4 7.5
L 6.9 15 14.4 15 21.9 7.5 14.4 0 6.9 0 14.4 7.5 Z"/>

<path fill="#000000" fill-opacity="0.4980392156862745" stroke="none" d="
M 6.9 7.5
L 0 0.6 0 14.4 6.9 7.5
M 30 0.6
L 29.4 0 21.9 0 29.4 7.5 21.9 15 29.4 15 30 14.4 30 0.6 Z"/>

<path fill="#333333" fill-opacity="0.4980392156862745" stroke="none" d="
M 6.9 0
L 0 0 0 0.6 6.9 7.5 0 14.4 0 15 6.9 15 14.4 7.5 6.9 0
M 29.4 15
L 30 15 30 14.4 29.4 15
M 29.4 7.5
L 21.9 0 14.4 0 21.9 7.5 14.4 15 21.9 15 29.4 7.5
M 29.4 0
L 30 0.6 30 0 29.4 0 Z"/>
</g>

<g id="Layer0_0_FILL">
<path fill="#FFFFFF" fill-opacity="0.4980392156862745" stroke="none" d="
M 0 0
L 0 3 30 3 30 0 0 0 Z"/>
</g>
</defs>

<g transform="matrix( 1, 0, 0, 1, 0,0) ">
<use xlink:href="#Layer1_0_FILL"/>
</g>

<g transform="matrix( 1, 0, 0, 1, 0,0) ">
<use xlink:href="#Layer0_0_FILL"/>
</g>
</svg>
