
<svg xmlns="http://www.w3.org/2000/svg" version="1.1" xmlns:xlink="http://www.w3.org/1999/xlink" preserveAspectRatio="none" x="0px" y="0px" width="30px" height="30px" viewBox="0 0 30 30">
<defs>
<g id="Layer1_0_FILL">
<path fill="#333333" fill-opacity="0.4980392156862745" stroke="none" d="
M 0 15
L 3.1 15 0 11.9 0 15
M 0 0
L 0 3.1 3.1 0 0 0
M 30 3.1
L 30 0 25.6 0 18.1 7.5 25.6 15 30 15 30 11.9 25.6 7.5 30 3.1
M 18.1 0
L 10.6 0 3.1 7.5 10.6 15 18.1 15 10.6 7.5 18.1 0 Z"/>

<path fill="#000000" fill-opacity="0.4980392156862745" stroke="none" d="
M 0 3.1
L 0 11.9 3.1 15 10.6 15 3.1 7.5 10.6 0 3.1 0 0 3.1
M 30 11.9
L 30 3.1 25.6 7.5 30 11.9 Z"/>

<path fill="#666666" fill-opacity="0.4980392156862745" stroke="none" d="
M 18.1 0
L 10.6 7.5 18.1 15 25.6 15 18.1 7.5 25.6 0 18.1 0 Z"/>
</g>

<g id="Layer0_0_FILL">
<path fill="#FFFFFF" fill-opacity="0.4980392156862745" stroke="none" d="
M 30 3
L 30 0 0 0 0 3 30 3 Z"/>
</g>
</defs>

<g transform="matrix( 1, 0, 0, 1, 0,0) ">
<use xlink:href="#Layer1_0_FILL"/>
</g>

<g transform="matrix( 1, 0, 0, 1, 0,0) ">
<use xlink:href="#Layer0_0_FILL"/>
</g>
</svg>
