
<svg xmlns="http://www.w3.org/2000/svg" version="1.1" xmlns:xlink="http://www.w3.org/1999/xlink" preserveAspectRatio="none" x="0px" y="0px" width="30px" height="30px" viewBox="0 0 30 30">
<defs>
<g id="Layer0_0_FILL">
<path fill="#532F68" stroke="none" d="
M 5.05 25
L 0 25 0 30 0.05 30 5.05 25
M 10 10
L 0 10 0 15 5 15 5 20 10.05 20 15.05 15 10 15 10 10
M 15 5
L 15 10 20.05 10 25.05 5 20 5 20 0 5 0 5 5 15 5 Z"/>

<path fill="#381F46" stroke="none" d="
M 5 15
L 0 15 0 25 5.05 25 10.05 20 5 20 5 15
M 15 10
L 15 5 5 5 5 0 0 0 0 10 10 10 10 15 15.05 15 20.05 10 15 10
M 30 0.05
L 30 0 20 0 20 5 25.05 5 30 0.05 Z"/>
</g>
</defs>

<g transform="matrix( 1, 0, 0, 1, 0,0) ">
<use xlink:href="#Layer0_0_FILL"/>
</g>
</svg>
