
<svg xmlns="http://www.w3.org/2000/svg" version="1.1" xmlns:xlink="http://www.w3.org/1999/xlink" preserveAspectRatio="none" x="0px" y="0px" width="90px" height="78.25px" viewBox="-60 -48.25 90 78.25">
<defs>
<g id="Symbol_67_0_Layer1_0_FILL">
<path fill="#000000" stroke="none" d="
M -13.1 -44
Q -12.35 -44.7 -12.35 -45.7 -12.35 -46.7 -13.1 -47.45 -13.8 -48.15 -14.8 -48.15 -15.8 -48.15 -16.55 -47.45 -17.25 -46.7 -17.25 -45.7 -17.25 -44.7 -16.55 -44 -15.8 -43.25 -14.8 -43.25 -13.8 -43.25 -13.1 -44 Z"/>
</g>

<g id="Symbol_68_0_Layer3_0_FILL">
<path fill="#000000" stroke="none" d="
M 67.75 72.25
L 68.1 72.25 68.75 70.85 68.7 70.1 68.6 70.3
Q 67.6 70.3 67.6 71.6 67.6 72.85 67.75 72.25 Z"/>
</g>

<g id="Symbol_68_0_Layer2_0_FILL">
<path fill="#AACE73" stroke="none" d="
M 156.5 51.05
L 156.5 50.75
Q 156.5 50.7 158.15 50
L 148.75 52 155.1 52.05 162.5 51.35 156.5 51.05
M 114.3 40.15
Q 114.2 40.25 114.05 40.3
L 128 38.7 121.25 38.5 114.3 40.15
M 108.25 35.25
L 103.1 36.4 107.4 36.5 117.25 35.25 108.25 35.25
M 67.7 34.85
L 67.3 34.9 67.4 34.9 67.7 34.85
M 69.8 34.65
L 70.05 34.85
Q 72.5 34.85 76.35 33.65
L 69.8 34.65
M 129.2 18.85
L 131.25 18.75 132.05 18.85 132.25 19.25
Q 132.25 19.75 128.3 20.2
L 123.75 20.85 131.85 21.25 131.25 20.3
Q 133.55 18.55 134 18
L 131.65 17.4 131.65 17.55
Q 130.9369140625 18.583984375 129.2 18.85
M 129.25 23.3
L 128.25 23.5 128.25 23.55 129.3 23.3 129.25 23.3
M 149.85 50.65
L 151.5 50.5 151.5 50.4
Q 150.4 50.15 149.85 50.65
M 197.85 55.5
L 200.75 55.35 198.15 55.35 197.85 55.5
M 123.15 -8.25
L 130.45 -8.45 134.75 -10.1 142.6 -12.65 143.8 -13 138.55 -13.25 135.9 -12.3 129.5 -10.75 131.85 -11.05 135.6 -10.9 123.8 -8.4 123.15 -8.25
M 132.5 -14
L 133.65 -14.1 133.55 -14.2
Q 133.5 -14.5 132.9 -14.5
L 130.2 -13.75 132.5 -14
M 117.5 -4.8
L 116.5 -4.75 116 -4.6
Q 118.65 -4.9 117.5 -4.8
M 7.2 -13.25
L 5.85 -13.3 7.2 -13 7.2 69.8 229.35 69.8 229.35 53.7
Q 226.2 55.5 221 55.5 218.4 55.5 217.05 54.75
L 216.1 53.85
Q 214.9 52.5 211.35 53.3 208 54.05 207.5 53.25 208 52.55 207.35 52.55
L 206.1 52.55 199.25 53.3 197.1 53.3
Q 198.25 53.35 198.25 54.3
L 208.25 54.3 208.55 54.4 208.75 54.8
Q 208 55.6 202.55 56.35
L 194 57 191.75 56.8 191.85 56.3 196.75 55.8 196.55 55.75 193.25 55.7 196.25 55.55 196 55.3 190.5 55.1 188.6 54.65 195.8 54.3
Q 195.9 53.35 196.95 53.3
L 186.5 53.2
Q 185.9 52.75 180.65 52.1
L 179.5 52 176.05 52.8 176 52.5
Q 176 52.1 177.8 51.85
L 165.3 51.35 163.05 51.35
Q 163.5 51.4 163.5 51.8 158.85 53.3 156.25 54.5 169.05 54.5 170.75 54.3
L 174.2 54.4 174.5 55.05
Q 172.8 56.35 170.4 57
L 166 58 181.25 56.5 180 56.55 177.05 56.25 187.85 55.9 186.45 56 183.7 56.3 184.1 56.35 166.25 59 163.5 59
Q 163.3 59 163.3 58.4 163.3 57.2 165.65 56.7
L 172 55.4 172.5 55.3 155.5 55.35 154.75 55
Q 155.15 53.2 158 52.75
L 158.25 52.65 151.25 53 146.8 52.5 148.55 51 147.75 49.8
Q 147.75 48.55 149 48.55 149.65 48.55 150 49.05 150.4 49.55 151 49.55
L 157.5 49.35 158.55 49.5 158.7 49.75 167.5 46.15 160 45.4 145.85 49 157.25 45.65 157.5 45.6 136.25 46.85
Q 137.25 45.45 141.75 44.8
L 148 44.05 148.3 44 138 44.9 132.25 44.5
Q 132.1 44.75 132.1 44.1 132.1 41.75 135.5 41.75 135.9 41.75 136.75 42.4
L 138.8 41.9 136.05 44.1 151.75 43
Q 153.25 43 153.35 43.3 144 44.75 136.9 46.65
L 142.15 46.75
Q 153.85 45.05 157.75 45.05
L 157.9 45.05
Q 154.75 44.45 154.5 43.25 154.1 41.45 150.45 40.95
L 144.85 40 138.25 38.8 137.95 39.3 137.4 40 132.85 39.85 130.6 40.4
Q 126.3 41.4 123.85 42.3
L 123.8 42
Q 123.8 41.15 131.6 39.4
L 131.4 39.35
Q 120.95 41.1 115.5 41.1
L 112.6 41.05 112.55 40.2
Q 112.55 39.05 119.05 37.6
L 119.5 37.5 118.75 36 107 36.9 102.05 36.65
Q 102.9 36.1 106.5 35.25
L 98.75 35.25
Q 98.15 35.25 98.1 34.7
L 95.4 34.85 89.75 34.5 90.05 34.3 78.1 35.3
Q 77.35 35.3 77.35 35.1
L 91.05 33.7 91.15 33.65 76.25 34.7 70.6 36.8 70.55 37.25
Q 70.6 37.55 71.4 37.65
L 76.25 37.85
Q 77.4 36.8 81.4 36.3
L 93.25 35.35 93.25 35.3 96.8 35.3 96.9 35.8
Q 85.85 36.5 79.7 37.9
L 82.35 37.9 82.6 38.3 81.65 38.45 84.65 38.5 101.6 36.55 101.75 36.75
Q 93.8 39.4 81.25 39.4
L 75.9 39.05
Q 75.8 39.4 75.8 38.75
L 75.8 38.6 74 38.6 62.85 40.9
Q 53.4 42.9 50 42.9
L 49.6 42.85 49.65 43.25
Q 49.5 43.35 49.3 43.4
L 48.5 43.05
Q 48.4 43.4 48.4 42.75 48.4 41.8 65.65 39
L 66.15 38.85 56.3 39.85 53.5 40.75
Q 52.8 40.75 52.5 40.3
L 52 39.8 42 41.05
Q 41.35 41.05 41.35 40.85
L 49 39.9
Q 52.35 39.8 52.55 39 52.75 38.25 53.5 38.25 54.85 38.25 54.9 39.05
L 55.45 39.05 59.75 38.15 69 37.4
Q 69.85 37.4 69.3 37.65
L 70.1 37.8
Q 69.85 37.5 69.85 37.05 69.85 36.25 71.05 35.6
L 62.15 37.25 62 36.9
Q 62.4 36.25 67.4 35.25
L 66.15 35 65.3 35 64.9 34.8 65.25 34.65 65.1 34.5 65.25 34.35 65.7 34.5
Q 67.4 33.9 70.85 33.35
L 61.6 34.35 51.5 36.55 51.35 36.4 61.35 34 82.35 31.65 81.35 31.35 85.5 31.5
Q 84.05 32.2 79.45 33.1
L 78 33.7 87 33 94.6 32.9 94.8 33.15 91.35 34.15 98.4 33.8
Q 99.7 32.45 105.65 30.4 111.55 28.4 114.6 27.8
L 135.3 24.25 132.9 22.25
Q 129.05 24.5 127.75 24.5
L 126.15 24.4 126.05 23.8
Q 126.05 23.1 127.6 22.75
L 129.5 22.25 123.05 22.15
Q 120.85 23.15 116.45 23.85
L 111.15 24.6 100.55 26.9 104.9 27 108.1 26.35 114.9 25.8 116.8 25.9 116.9 26.3
Q 116.9 26.7 111 27.5
L 95.65 29.8 101.1 29.55 92.7 30.55 87.6 32.05 91.8 30.45 91.1 30.55 90.9 30.35
Q 92.05 29.9 94.45 29.3
L 75.15 30.15 65 31.55 59.4 31.3 59.4 31 80.55 29.1 80.2 28.95
Q 78.8 28.35 74.7 28.35 70.05 28.35 68.95 28.9
L 66 30.05
Q 65.4 29.85 65.4 29.45 65.4 28.35 69.25 27.65
L 74.75 27.15
Q 81.3 27.15 82.75 28.9
L 82.75 29 94.85 29.2 99.85 28.05 100.25 28
Q 99.2 27.8 98.8 27.4 98.6 26.25 101.75 25.55
L 106.25 24.65 107 24.35 104.75 24 107.4 23.25 106.9 23.55 106.75 23.6 121.65 21.65 121.9 21.65 121.55 21.6 121.55 21.2 120 21.55
Q 119.6 21.85 119.6 21.25 119.6 20.95 121.15 20.35
L 121.5 20.25 119.4 20.15
Q 119.3 20.2 119.3 19.55 119.3 19.05 120.7 18.7
L 123.25 18.25 117.8 18.1
Q 117.65 18.3 117.65 17.7 117.65 17 126.9 16.6
L 115.6 16.1 122.95 16.05 121.75 15.9
Q 113.45 14.9 112.5 14.05 110.85 12.55 107.05 12.05
L 105.9 12.05
Q 107.95 12.1 112.75 14.25
L 111.25 14.5 104.85 13 92.9 11.3 92.9 11 96.5 10.95 94.5 11.05 101.6 10.95
Q 101 10.55 101 9.9 101 8.95 103.65 7.6 95.5 9.15 90.5 9.15
L 86.35 8.65 88.25 8.8 100.8 7.8 104.65 7.1 106 6.5 99.4 7.1 94.4 7.9 93.15 7.8
Q 93.05 8.15 93.05 7.5
L 93.1 7.1 112.5 3.65 112.8 3.85 117.2 1.95 117.1 1.75 110.3 1.75 102.75 2.65
Q 102.1 2.6 102.05 2.4
L 117 -0.5 109.5 1.35 109.25 1.4 117.3 1.3 117.35 1.9 119.5 0.75 119.55 0.4
Q 118.8 -0.25 118.8 -0.8 118.8 -1.55 119.35 -2.3
L 114.5 -1.3 118.5 -1 117.2 -0.55 105.05 -0.3
Q 104.85 -0.05 104.85 -0.65
L 105 -1.05
Q 117.1 -2.1 118.5 -2.75
L 112.25 -2.55 109.25 -2.05 107.6 -2.3 112.5 -2.75 120.15 -3.25
Q 120.6 -3.7 121.3 -4.15 120.55 -4.75 120 -4.75 117.65 -4 114.75 -4
L 112.25 -4.25 121.5 -6.5
Q 121.95 -6.5 122.75 -5.75
L 124.15 -5.8
Q 125.8 -6.65 128.75 -7.8
L 125.9 -7.9 118 -7.25 117.25 -7.5 133.1 -10.55 133.55 -10.75
Q 130.55 -10 126.25 -10 125.1 -10 125 -10.25 127.9 -10.8 135.85 -13.05
L 136.75 -13.4 124.05 -12.05 123.9 -12.5
Q 123.9 -12.75 125.3 -13
L 124.5 -13 124.65 -13.7
Q 124.6 -14 123.65 -14 119.05 -12.3 118.75 -12.3 118.75 -13.25 118.25 -13.25 115.95 -12.5 112.75 -12.5
L 110.15 -12.8 109.4 -13.1
Q 103.05 -10.75 100.9 -10.75
L 100 -10.85
Q 99.9 -12.75 98.15 -12.9
L 94 -13.35
Q 91.35 -14.2 88.65 -12.8 85.75 -14.05 85.55 -15.6 82.15 -15.1 81.6 -16 79.95 -14.8 75.1 -13.15 68.25 -10.75 62.3 -10.75
L 59.35 -10.75 59.3 -11.6 54.6 -12.35 54.8 -13.5
Q 54.4 -13.95 50.9 -14.05
L 51 -14.1 51.65 -15.3 51.4 -16.75 50.05 -16.75 43.5 -13.85
Q 36.95 -11.55 29.65 -11.55
L 20.8 -12.1 18.5 -14 7.65 -13.25 7.2 -13.25
M 122.55 47.25
L 123.5 46.8
Q 124.8 46.8 124.8 47.75 124.8 49.3 123.5 49.3 122.35 49.3 122.4 49
L 122.75 48.4
Q 122.75 48.05 121.5 47.95
L 122.55 47.25
M 122.8 43.15
L 122.9 43.75
Q 122.9 44.3 116.9 45.25
L 103.5 46.35 102.4 46.3 99.9 46.9
Q 101.35 46.95 101.5 47.3
L 111.65 47.2 112.15 47.1 112.4 47.15 113.8 47.1 113.85 47.35 113.1 47.4 113.15 47.8
Q 113.15 48.35 107.65 51.15
L 107.1 51.5 109.65 51.55 121.15 50 121.6 50.1
Q 115.55 52.25 110.9 52.85
L 118.6 53.6 109.65 53 107.75 53.05
Q 105.35 53.05 105.05 52.25 101.1 51.45 99.85 50.35
L 95.75 50.5 94.4 50.35 94.3 49.7
Q 94.3 49.2 96.4 48.4
L 96.6 48.35 94.5 48.8
Q 94.35 50.1 89.05 52
L 88.25 52.3 95.5 51.3 97.25 51.3
Q 98.4 51.4 98.4 52.25 98.4 53.4 91.25 54.7
L 91.35 54.85 86.9 55.45 85.6 55.75 95 55.05 100.1 55.25 100.25 55.55 100.2 56.05 100.45 56
Q 102.45 55.85 104.3 56
L 101.3 56.85
Q 99.1 57.5 99.6 58.3
L 98.25 58.55 97.4 58.35 91.5 59.6 92.25 59.55 95.55 59.75 95.65 60.1 85.6 61.1 85.5 61.15 85.45 61.15 67.1 62.8 66.65 62.6 73.65 61.15 50.75 63.85 50.1 63.65 85.7 59.8
Q 86.15 59.5 86.9 59.3
L 90.9 58.4 76.25 58.4 76.25 58.55
Q 76.25 59.3 74.7 59.85
L 72.25 60.3
Q 71.5 60.3 71.25 59.95
L 71 59.6 64.1 60.35 64.1 60.15
Q 67.7 59.8 70.4 58.5 71.05 58.15 71.75 57.95
L 70.55 57.7 58.7 59.3 54.35 60.4 54.3 60.25 56.15 59.65 54.25 59.85 53.15 59.6
Q 56.6 58.3 64.85 57
L 69.3 55.75 69.55 55.65 68.55 55.75 68.55 55.85 56 56.55 50.8 56.3
Q 50.7 56.5 50.65 56.15
L 49.5 56.15
Q 44.35 56.15 44.35 55.2 44.35 54.65 45.35 53.95 46.35 53.25 47.15 53.3
L 47.6 53.15 26.5 54.9 19.5 54.8
Q 19.4 55.15 19.4 54.5 19.4 52.9 26.35 51.5
L 41.6 48.9 41.6 48.8 28.1 48
Q 34.1 45.05 52.75 45.05
L 60.85 45.6
Q 60.7 45.85 58.85 46.1
L 68 46.35
Q 68.55 46 69.5 45.6 71.25 44.85 72.45 44.65
L 72.45 44.55
Q 60.1 44.55 58.4 42.85 59.75 41.45 68 40.75
L 68 40.65 71.05 40.75 71.25 41.25
Q 71.25 41.85 71.05 41.75
L 60.9 42.8 65.05 42.9 65.1 43.4 64.55 43.45 81.95 42.8 98.5 41 98.5 40.9 104.05 40.9 104.15 41.15 105.55 41.4
Q 103.3 42.95 98.15 44.2
L 98.7 44.1 112.5 42.65 117.4 42.75 117.55 43.15
Q 116.75 44.1 108.65 44.9
L 108.4 44.95 108.25 45 121.25 43 122.8 43.15
M 105.1 61.85
L 93.25 64.1 78.75 66.55
Q 77.8 66.55 77.6 66.05 77.4 65.4 76.65 65.25
L 71.15 64.6
Q 70.35 64.6 70.35 64.4
L 77.05 65
Q 77.6 65 78.75 64.05
L 79.45 64.45 80.85 64.8 105.1 61.85
M 135.6 53.6
Q 131.6 54.85 126.45 54.85
L 126.1 54.65 135.6 53.6
M 51.75 29.3
Q 52.65 29.3 53.5 30.1 54.25 30.8 54.25 31.3 54.25 32.1 53.9 32.45
L 58.25 31.8 61.65 32.15 62.3 32.75 60.25 32.6
Q 57.7 32.6 53.3 33.55
L 47.85 34.5 47.4 34.3
Q 48.95 33.45 52.85 32.7 52.05 32.3 51.35 32.05
L 51.75 31.65 51.75 31.3 50.25 31.3 33.75 32.5 32.4 32.5 32.25 31.8
Q 37.35 29.8 41.35 28.75
L 28.25 29.9 26.25 29.6
Q 28.15 28.8 33.65 27.75
L 41.75 26.3 42.15 26.8
Q 42.15 27.15 40.75 27.35
L 40 27.5 46.35 28.05 43.65 28.45 40.3 30 44.05 30.1 51.75 29.3
M 53.35 34.1
L 54.3 34.4 53.2 35.05
Q 45.2 37 42.75 37 41.9 37 41.6 36.4
L 41.55 36.15 40.35 36.15 40 35.75
Q 40.8 35.2 41.75 34.8 42.1 34.25 43 34.25
L 43.4 34.3 46.85 34.05 44.45 34.6 44.55 34.65 44.15 35.35 45.05 35.4 53.35 34.1
M 17.9 36.05
L 17.9 35.75 28.45 34.45 35.45 34 37.5 33.5 38.25 33.65 38.4 34.05
Q 31.15 36.75 24.85 36.75
L 17.9 36.05
M 27.25 65.3
L 26.75 65
Q 27.7 63.5 31.55 63.1
L 35.25 63 41.8 63.25 41.9 63.6 27.25 65.3
M 41.5 35.75
L 41.55 35.35 40.9 35.5 40.6 35.65 41.5 35.75
M 80.4 57.4
L 76.25 57.25 75.9 57.35 80.4 57.4
M 81.6 51.6
L 88.95 50.55 92.6 49.15
Q 73.05 53.05 69.75 53.05
L 69.25 52.75
Q 71.7 51.7 74.1 50.9
L 58.15 51.5 55.7 52.85
Q 56.35 52.15 57.8 51.5
L 54.5 51.5 48.5 51.05 58 50.35 58 50.05
Q 58 49.1 61.6 49
L 62 48.85
Q 61.4 48.7 61.4 48.15
L 65.5 47.25 66 47.15
Q 46.75 47.05 44.55 46.75
L 52 46.05 59.25 45.8 48 45.55
Q 40.1 45.55 28.35 47.9
L 42 48.4 42.15 48.8
Q 29.65 51.75 21.4 54.1
L 26.5 54.15 54.3 51.75 54.55 52.25
Q 54.55 52.7 51.4 53.55
L 46.35 54.85 51.7 54.85 51.9 54.75 55.35 53.85 55.5 54.05 53.3 54.8 59.85 54.65
Q 64.05 54.65 66.3 54.8
L 75.8 53.9 65.5 54.15 57.3 53.85
Q 56.9 53.5 55.35 53.3
L 55.6 52.95 55.6 53.3 59.75 53.55
Q 70.3 53.55 81.6 51.6
M 100.1 56.05
Q 100.2 55.85 99.65 55.85
L 82.75 56.8
Q 82.5 57.3 80.75 57.55 91.75 57.65 97 57.35
L 97 57.3
Q 97 56.25 100.1 56.05
M 93.6 52.8
L 92.9 52.8 86.25 54.1 93.6 52.8
M 101.6 50.2
Q 102.9 51.15 105.05 51.8 105.2 51.25 105.95 50.5 107.05 49.45 108.7 49.05
L 101.6 50.2
M 103.7 41.85
L 103.35 42.05 104 41.85 103.7 41.85
M 101.05 48.3
L 100.25 48.65 106.05 47.95 101.05 48.3
M 94.55 46.75
L 94.75 47.15 96.75 46.9 96.85 46.9
Q 97.95 46.2 100.9 45.65
L 101 45.4 97.45 45.45 88.6 46.65 94.55 46.75
M 86.4 43.15
L 86.55 43.15 86.65 43.55 76.6 44.9
Q 71.15 45.55 69.2 46.4
L 73.6 46.5
Q 76.25 46.5 76.05 47.1
L 82.05 47.25 82.3 47.75 82.3 47.8 87.1 47.55 86.75 47.35 86.65 46.8
Q 86.65 46.4 87.95 46
L 84.5 46.25 79.1 45.9 92.95 44.35 99 42.25 99.55 42.1 96.25 42.25 92.35 43.05 93.75 42.4 86.4 43.15 Z"/>

<path fill="#82A5A8" stroke="none" d="
M 118.75 36
L 119.5 37.5 132.5 34.8 118.75 36
M 98.1 34.7
Q 98.15 35.25 98.75 35.25
L 106.5 35.25 115.5 33.5 98.1 34.7
M 106 6.5
L 104.65 7.1 107.15 6.55 106 6.5
M 131.4 39.35
L 131.6 39.4 134 38.9 131.4 39.35
M 153.15 23.25
L 153.8 22.6 151.05 23.4 153.15 23.25
M 150.25 10
L 151.5 10.25 151.5 10 151.75 9.55
Q 150.65 9.8 150.25 10
M 177.55 29.25
L 176.15 29.25
Q 168.85 30.85 166 31.8
L 166 31.9 167.4 32.1
Q 171.1 30.9 177.55 29.25
M 180.1 18.15
L 173.4 18.1 169.6 19.05 180.1 18.15
M 174.6 19.35
L 174 19.3 163.25 20.5
Q 159.45 21.45 155.3 23.1
L 167.95 22.05
Q 170.8 21.6 174.6 19.35
M 173.5 21
L 173.3 21.05 184.3 19.3 181.05 19.25
Q 176.75 19.9 173.5 21
M 175.05 24
L 173.6 24.35 179.75 23.85 181 23.75 178.55 23.75 175.05 24
M 168.25 23.25
L 167.8 23.3
Q 175.45 23.15 176.35 22.4
L 172.85 22.4 168.25 23.25
M 195.75 23.75
L 182.8 24.5 170 25.4 169.5 25.4
Q 165.05 26.55 161.5 27.75
L 175.2 27.9 177.05 27.45 195.75 23.75
M 195.8 13.25
L 194.95 13.1 175.9 12.75
Q 173.5 12.6 173.5 11.85 173.5 11.05 174.6 11
L 168.3 11 171.05 11.05
Q 171.65 11.1 172.25 11.75 168.4 13.4 163.4 14.65 158.05 16 154 17.6
L 154 17.75 159.5 18 167 17.7 167 17.35
Q 167 14.95 195.8 13.25
M 194.05 22.3
L 196.2 21.6 180.5 22.75 194.05 22.3
M 183.8 20.9
L 183.25 21 194.55 20.15 195.65 20.05 194.5 20.05 183.8 20.9
M 194.95 11.9
Q 195.4 11.45 196.3 11
L 177.25 11.85 194.95 11.9
M 207.5 30.1
L 207.65 30.05 171.5 33.25 169.95 33.25
Q 162.95 35.45 161.75 36.25
L 161.75 36.4 170.35 36.8 183.5 36.05 183.6 36.1
Q 188 34.55 192.9 33.4
L 207.5 30.1
M 206.75 8
L 222.5 5.6
Q 208.6 5.75 202.3 5.5
L 202.4 5.7 198.5 5.5
Q 188.9 5.25 165.35 7.65
L 155.3 9.3 154.35 9.6 199.75 9.65
Q 202.5 8.8 206.75 8
M 213.75 15.4
L 213.9 15.7 213.75 16.3 185.8 18.4 186 19
Q 186 19.45 185.6 19.65
L 185.5 19.75 189.65 19.4 199.9 19 208.55 19.15
Q 220.85 16.75 225.15 14.6 224.15 13.9 222.5 13.9
L 205.65 13.7 170.25 16.85 192.7 16.15 209.25 15.1 213.75 15.4
M 179.5 -0.35
L 175.6 -0.35 193.75 1.15
Q 193.9 0.8 193.9 1.45 193.9 2.1 192.4 2.1
L 180.65 1.15 153.85 0.15 142.6 0.5 196.7 4.8
Q 196.15 4.5 196.15 4.05 196.15 1.3 207.8 -0.05
L 208.55 -0.25 206.3 -0.55
Q 207.35 -1.65 210.85 -2.4
L 213.7 -3.05 212.15 -3.05 181.25 -4.3 169.35 -5.55 167.3 -5.5
Q 171.7 -4.35 180.95 -3.55 191.8 -2.6 202.4 -0.5
L 202.25 -0.1 185.5 0 179.5 -0.35
M 128.75 -7.8
Q 125.8 -6.65 124.15 -5.8 127.05 -6.15 132.25 -7.75
L 128.75 -7.8
M 121.3 -4.15
Q 120.6 -3.7 120.15 -3.25
L 120.6 -3.25 120.8 -2.6 119.35 -2.3
Q 118.8 -1.55 118.8 -0.8 118.8 -0.25 119.55 0.4
L 119.5 0.75 117.35 1.9 117.25 2.05 117.2 1.95 112.8 3.85 113.1 4.05 108.3 5.6 108.25 5.65 108.8 5.85 109 6.25
Q 108.75 6.65 108.1 6.65
L 103.65 7.6
Q 101 8.95 101 9.9 101 10.55 101.6 10.95
L 109.55 11 109.75 11.5
Q 109.75 12.1 109.55 12
L 107.05 12.05
Q 110.85 12.55 112.5 14.05 113.45 14.9 121.75 15.9
L 122.95 16.05 126 16.05 127.75 15.7
Q 128.35 15.5 129.1 16.9
L 131.55 17.05 131.65 17.4 134 18
Q 133.55 18.55 131.25 20.3
L 131.85 21.25 133.3 21.3 133.4 21.9 132.9 22.25 135.3 24.25 114.6 27.8
Q 111.55 28.4 105.65 30.4 99.7 32.45 98.4 33.8
L 113.75 32.6 113.75 32.55 122.8 32.55 122.9 33.05 108.25 35.25 117.25 35.25 133.35 34.25 133.6 34.5 133.65 34.75
Q 133.65 35.5 125.9 37.4
L 121.25 38.5 128 38.7 136.5 37.8 138.3 38 138.8 37.9 132.85 39.85 137.4 40 137.95 39.3 138.25 38.8 144.85 40 150.45 40.95
Q 154.1 41.45 154.5 43.25 154.75 44.45 157.9 45.05
L 160.25 45.3 160 45.4 167.5 46.15 158.7 49.75 158.75 49.85 158.15 50
Q 156.5 50.7 156.5 50.75
L 156.5 51.05 162.5 51.35 162.65 51.3 163.05 51.35 165.3 51.35 177.8 51.85 198.75 50.75 206.4 51.1 191.3 51.25 179.5 52 180.65 52.1
Q 185.9 52.75 186.5 53.2
L 196.95 53.3 197.1 53.3 199.25 53.3 206.1 52.55 207.35 52.55
Q 208 52.55 207.5 53.25 208 54.05 211.35 53.3 214.9 52.5 216.1 53.85
L 217.05 54.75
Q 218.4 55.5 221 55.5 226.2 55.5 229.35 53.7
L 230.85 52.55
Q 233.25 50.4 233.25 47.65 232.9 43.9 233 42.25 233.2 40.1 233.65 39 234 38.15 234 36.5 232.75 27.15 232.75 25.3
L 233 19.55
Q 233 18.5 232.15 16.4 231.25 14.35 231.25 13.55
L 231.1 5.1 212.4 8.25 205.4 9.65 218.15 10.45 218 11.05 200.55 10.95 197.65 11.9
Q 216.3 11.95 217 12.1
L 217.8 12.65 216.15 12.8 222.85 13.1
Q 226.3 13.4 226.3 14.6 226.3 16.5 221.7 17.8
L 215.05 19.3 217.3 19.4 217.45 19.7
Q 220.9 20 220.9 21 220.9 23.3 212.3 25.35
L 200.05 27.65
Q 217.75 28.05 217.75 30 217.75 31.5 210 32.8 202.6 34.1 195.25 34.1
L 192.85 33.85
Q 211 32.1 216.5 30.15
L 216.55 30 214.2 29.6
Q 214.5 29.35 214.2 29.3 213.05 29 195 28.75
L 194.75 28.4
Q 198 27.1 206.7 25.3 214.85 23.6 219.5 21.5
L 212.1 20.9 206.5 21.15 200.1 22.1 196.75 22.8 197.3 22.8 197.5 23.5
Q 197.5 24.75 185.85 27.15
L 181.6 28.05 182.5 28.15 182.6 28.45
Q 182.6 29.35 173.55 32.1
L 189.6 30.75 206.75 29.35 210.15 29.8 194.3 33.4
Q 188.85 34.65 183.8 36.3
L 184 36.55 181.55 37 178.05 38.25 194.9 36.45 207.75 34.3 208.25 34.8 198.15 37.95
Q 190.4 40.2 183.25 43.25 193.25 43.75 203.4 41.75 205.5 41.75 205.5 42.6 205.5 43.7 204.75 44.3
L 204.75 45.4 206.7 45.5 212.9 44.85 213 45.05 210.5 45.95 206 46.6
Q 204.1 46.6 203.75 45.85
L 203.75 45
Q 203.75 44.1 204.5 42.85
L 201.6 42.75
Q 192.9 44.15 186 44.15
L 182.3 43.75 182.3 43.3
Q 182.3 41.35 188.35 39.5 191.95 38.4 201.75 36.05 186.15 38.8 182.5 38.8
L 177.55 38.4 180.6 37.2 178.45 37.5 165.9 38.15
Q 160.05 38.15 160.05 36.5 160.05 34.7 165.4 32.75 164.5 32.45 164.5 32.05 164.5 30.8 170.45 29.1 159.6 28.75 159.6 28 159.6 27 162.85 26
L 167 24.85 167 24.75 167.05 24.6 159.65 24.8 153.1 24.4 153.05 24.1 149.75 24.05
Q 149.55 24.1 149.55 23.5 149.55 22.2 158.15 20.7 161.85 19.5 164.5 19.1
L 164.8 19.05 153.95 18.7
Q 154.05 18.45 152.55 18.1 155.4 15.6 162.15 13.9
L 170.5 11.8 152.6 11.25
Q 149.3 11 149.3 9.95 149.3 9 152 8.15
L 128 8 124.35 7.6 160.75 6.8 163.8 6.9 163.85 6.95 166.45 6.65 185.5 5.1 186.1 5.05 152.45 2.75
Q 138.1 1.65 138.1 0.4 138.1 -1.5 169.4 -1.5
L 189.75 -1
Q 165 -2.85 165 -6.15
L 165 -6.6 167.25 -6.75 206.15 -4.1 207 -4.1 182.9 -6.55 154.35 -8.8 165.5 -9.25 190.3 -6.6
Q 207.4 -5 215.4 -3.6
L 217.5 -4.55 217.75 -4.75 202.4 -5.8 213.75 -6.1 217.65 -5.75
Q 218.75 -5.6 218.75 -4.95 218.75 -2.8 209.4 -1.1
L 223.5 -2.3 226.3 -2 226.25 -1.6
Q 205.3 0.9 197.55 3.75 198.55 4.25 231.1 4.5
L 231 1.55
Q 231 0.15 231.75 -2.85 232.5 -5.8 232.5 -7.4 232.5 -9.3 232.15 -10
L 230.9 -11.4
Q 230 -12.25 229.9 -12.8 229.75 -13.85 230.65 -16.35 230.7 -17.4 229.35 -17.85
L 226.25 -18.25 223.25 -18.05 214.75 -17.5 210.15 -18 204.9 -17 193.4 -17.5 184.95 -16.5 177.75 -15.5 172.95 -16.6
Q 168.45 -17.75 164.75 -17.75 156.85 -17.75 153.75 -16.1 148.95 -14.95 147 -14
L 143.8 -13 142.6 -12.65 134.75 -10.1 130.45 -8.45 131.85 -8.55
Q 133.35 -8.55 133.35 -8
L 133.25 -7.55 123.6 -5.1 121.5 -4 121.3 -4.15
M 226.55 54.3
L 226.65 54.6 225.6 54.3 226.55 54.3 Z"/>

<path fill="#91A95C" stroke="none" d="
M 107.05 12.05
L 109.55 12
Q 109.75 12.1 109.75 11.5
L 109.55 11 101.6 10.95 94.5 11.05 96.5 10.95 92.9 11 92.9 11.3 104.85 13 111.25 14.5 112.75 14.25
Q 107.95 12.1 105.9 12.05
L 107.05 12.05
M 112.8 3.85
L 112.5 3.65 93.1 7.1 93.05 7.5
Q 93.05 8.15 93.15 7.8
L 94.4 7.9 99.4 7.1 106 6.5 107.15 6.55 104.65 7.1 100.8 7.8 88.25 8.8 86.35 8.65 90.5 9.15
Q 95.5 9.15 103.65 7.6
L 108.1 6.65
Q 108.75 6.65 109 6.25
L 108.8 5.85 108.25 5.65 108.3 5.6 113.1 4.05 112.8 3.85
M 117.1 1.75
L 117.2 1.95 117.25 2.05 117.35 1.9 117.3 1.3 109.25 1.4 109.5 1.35 117 -0.5 102.05 2.4
Q 102.1 2.6 102.75 2.65
L 110.3 1.75 117.1 1.75
M 138.8 41.9
L 136.75 42.4
Q 135.9 41.75 135.5 41.75 132.1 41.75 132.1 44.1 132.1 44.75 132.25 44.5
L 138 44.9 148.3 44 148 44.05 141.75 44.8
Q 137.25 45.45 136.25 46.85
L 157.5 45.6 157.25 45.65 145.85 49 160 45.4 160.25 45.3 157.9 45.05 157.75 45.05
Q 153.85 45.05 142.15 46.75
L 136.9 46.65
Q 144 44.75 153.35 43.3 153.25 43 151.75 43
L 136.05 44.1 138.8 41.9
M 133.6 34.5
L 133.35 34.25 117.25 35.25 107.4 36.5 103.1 36.4 108.25 35.25 122.9 33.05 122.8 32.55 113.75 32.55 113.75 32.6 98.4 33.8 91.35 34.15 94.8 33.15 94.6 32.9 87 33 78 33.7 79.45 33.1
Q 84.05 32.2 85.5 31.5
L 81.35 31.35 82.35 31.65 61.35 34 51.35 36.4 51.5 36.55 61.6 34.35 70.85 33.35
Q 67.4 33.9 65.7 34.5
L 65.25 34.35 65.1 34.5 65.25 34.65 64.9 34.8 65.3 35 66.15 35 67.4 35.25
Q 62.4 36.25 62 36.9
L 62.15 37.25 71.05 35.6
Q 69.85 36.25 69.85 37.05 69.85 37.5 70.1 37.8
L 69.3 37.65
Q 69.85 37.4 69 37.4
L 59.75 38.15 55.45 39.05 54.9 39.05
Q 54.85 38.25 53.5 38.25 52.75 38.25 52.55 39 52.35 39.8 49 39.9
L 41.35 40.85
Q 41.35 41.05 42 41.05
L 52 39.8 52.5 40.3
Q 52.8 40.75 53.5 40.75
L 56.3 39.85 66.15 38.85 65.65 39
Q 48.4 41.8 48.4 42.75 48.4 43.4 48.5 43.05
L 49.3 43.4
Q 49.5 43.35 49.65 43.25
L 49.6 42.85 50 42.9
Q 53.4 42.9 62.85 40.9
L 74 38.6 75.8 38.6 75.8 38.75
Q 75.8 39.4 75.9 39.05
L 81.25 39.4
Q 93.8 39.4 101.75 36.75
L 101.6 36.55 84.65 38.5 81.65 38.45 82.6 38.3 82.35 37.9 79.7 37.9
Q 85.85 36.5 96.9 35.8
L 96.8 35.3 93.25 35.3 93.25 35.35 81.4 36.3
Q 77.4 36.8 76.25 37.85
L 71.4 37.65
Q 70.6 37.55 70.55 37.25
L 70.6 36.8 76.25 34.7 91.15 33.65 91.05 33.7 77.35 35.1
Q 77.35 35.3 78.1 35.3
L 90.05 34.3 89.75 34.5 95.4 34.85 98.1 34.7 115.5 33.5 106.5 35.25
Q 102.9 36.1 102.05 36.65
L 107 36.9 118.75 36 132.5 34.8 119.5 37.5 119.05 37.6
Q 112.55 39.05 112.55 40.2
L 112.6 41.05 115.5 41.1
Q 120.95 41.1 131.4 39.35
L 134 38.9 131.6 39.4
Q 123.8 41.15 123.8 42
L 123.85 42.3
Q 126.3 41.4 130.6 40.4
L 132.85 39.85 138.8 37.9 138.3 38 136.5 37.8 128 38.7 114.05 40.3
Q 114.2 40.25 114.3 40.15
L 121.25 38.5 125.9 37.4
Q 133.65 35.5 133.65 34.75
L 133.6 34.5
M 70.05 34.85
L 69.8 34.65 76.35 33.65
Q 72.5 34.85 70.05 34.85
M 67.3 34.9
L 67.7 34.85 67.4 34.9 67.3 34.9
M 131.55 17.05
L 129.1 16.9
Q 128.35 15.5 127.75 15.7
L 126 16.05 122.95 16.05 115.6 16.1 126.9 16.6
Q 117.65 17 117.65 17.7 117.65 18.3 117.8 18.1
L 123.25 18.25 120.7 18.7
Q 119.3 19.05 119.3 19.55 119.3 20.2 119.4 20.15
L 121.5 20.25 121.15 20.35
Q 119.6 20.95 119.6 21.25 119.6 21.85 120 21.55
L 121.55 21.2 121.55 21.6 121.9 21.65 121.65 21.65 106.75 23.6 106.9 23.55 107.4 23.25 104.75 24 107 24.35 106.25 24.65 101.75 25.55
Q 98.6 26.25 98.8 27.4 99.2 27.8 100.25 28
L 99.85 28.05 94.85 29.2 82.75 29 82.75 28.9
Q 81.3 27.15 74.75 27.15
L 69.25 27.65
Q 65.4 28.35 65.4 29.45 65.4 29.85 66 30.05
L 68.95 28.9
Q 70.05 28.35 74.7 28.35 78.8 28.35 80.2 28.95
L 80.55 29.1 59.4 31 59.4 31.3 65 31.55 75.15 30.15 94.45 29.3
Q 92.05 29.9 90.9 30.35
L 91.1 30.55 91.8 30.45 87.6 32.05 92.7 30.55 101.1 29.55 95.65 29.8 111 27.5
Q 116.9 26.7 116.9 26.3
L 116.8 25.9 114.9 25.8 108.1 26.35 104.9 27 100.55 26.9 111.15 24.6 116.45 23.85
Q 120.85 23.15 123.05 22.15
L 129.5 22.25 127.6 22.75
Q 126.05 23.1 126.05 23.8
L 126.15 24.4 127.75 24.5
Q 129.05 24.5 132.9 22.25
L 133.4 21.9 133.3 21.3 131.85 21.25 123.75 20.85 128.3 20.2
Q 132.25 19.75 132.25 19.25
L 132.05 18.85 131.25 18.75 129.2 18.85
Q 130.9369140625 18.583984375 131.65 17.55
L 131.65 17.4 131.55 17.05
M 128.25 23.5
L 129.25 23.3 129.3 23.3 128.25 23.55 128.25 23.5
M 177.8 51.85
Q 176 52.1 176 52.5
L 176.05 52.8 179.5 52 191.3 51.25 206.4 51.1 198.75 50.75 177.8 51.85
M 184.1 56.35
L 183.7 56.3 186.45 56 187.85 55.9 177.05 56.25 180 56.55 181.25 56.5 166 58 170.4 57
Q 172.8 56.35 174.5 55.05
L 174.2 54.4 170.75 54.3
Q 169.05 54.5 156.25 54.5 158.85 53.3 163.5 51.8 163.5 51.4 163.05 51.35
L 162.65 51.3 162.5 51.35 155.1 52.05 148.75 52 158.15 50 158.75 49.85 158.7 49.75 158.55 49.5 157.5 49.35 151 49.55
Q 150.4 49.55 150 49.05 149.65 48.55 149 48.55 147.75 48.55 147.75 49.8
L 148.55 51 146.8 52.5 151.25 53 158.25 52.65 158 52.75
Q 155.15 53.2 154.75 55
L 155.5 55.35 172.5 55.3 172 55.4 165.65 56.7
Q 163.3 57.2 163.3 58.4 163.3 59 163.5 59
L 166.25 59 184.1 56.35
M 151.5 50.5
L 149.85 50.65
Q 150.4 50.15 151.5 50.4
L 151.5 50.5
M 196.95 53.3
Q 195.9 53.35 195.8 54.3
L 188.6 54.65 190.5 55.1 196 55.3 196.25 55.55 193.25 55.7 196.55 55.75 196.75 55.8 191.85 56.3 191.75 56.8 194 57 202.55 56.35
Q 208 55.6 208.75 54.8
L 208.55 54.4 208.25 54.3 198.25 54.3
Q 198.25 53.35 197.1 53.3
L 196.95 53.3
M 200.75 55.35
L 197.85 55.5 198.15 55.35 200.75 55.35
M 226.65 54.6
L 226.55 54.3 225.6 54.3 226.65 54.6
M 117.25 -7.5
L 118 -7.25 125.9 -7.9 128.75 -7.8 132.25 -7.75
Q 127.05 -6.15 124.15 -5.8
L 122.75 -5.75
Q 121.95 -6.5 121.5 -6.5
L 112.25 -4.25 114.75 -4
Q 117.65 -4 120 -4.75 120.55 -4.75 121.3 -4.15
L 121.5 -4 123.6 -5.1 133.25 -7.55 133.35 -8
Q 133.35 -8.55 131.85 -8.55
L 130.45 -8.45 123.15 -8.25 123.8 -8.4 135.6 -10.9 131.85 -11.05 129.5 -10.75 135.9 -12.3 138.55 -13.25 139.85 -13.65 141.75 -14 146 -14.5 143.25 -14.8 133.65 -14.1 132.5 -14 130.2 -13.75 125.3 -13
Q 123.9 -12.75 123.9 -12.5
L 124.05 -12.05 136.75 -13.4 135.85 -13.05
Q 127.9 -10.8 125 -10.25 125.1 -10 126.25 -10 130.55 -10 133.55 -10.75
L 133.1 -10.55 117.25 -7.5
M 116.5 -4.75
L 117.5 -4.8
Q 118.65 -4.9 116 -4.6
L 116.5 -4.75
M 107.6 -2.3
L 109.25 -2.05 112.25 -2.55 118.5 -2.75
Q 117.1 -2.1 105 -1.05
L 104.85 -0.65
Q 104.85 -0.05 105.05 -0.3
L 117.2 -0.55 118.5 -1 114.5 -1.3 119.35 -2.3 120.8 -2.6 120.6 -3.25 120.15 -3.25 112.5 -2.75 107.6 -2.3
M 26.75 65
L 27.25 65.3 41.9 63.6 41.8 63.25 35.25 63 31.55 63.1
Q 27.7 63.5 26.75 65
M 17.9 35.75
L 17.9 36.05 24.85 36.75
Q 31.15 36.75 38.4 34.05
L 38.25 33.65 37.5 33.5 35.45 34 28.45 34.45 17.9 35.75
M 54.3 34.4
L 53.35 34.1 45.05 35.4 44.15 35.35 44.55 34.65 44.45 34.6 46.85 34.05 43.4 34.3 43 34.25
Q 42.1 34.25 41.75 34.8 40.8 35.2 40 35.75
L 40.35 36.15 41.55 36.15 41.6 36.4
Q 41.9 37 42.75 37 45.2 37 53.2 35.05
L 54.3 34.4
M 41.55 35.35
L 41.5 35.75 40.6 35.65 40.9 35.5 41.55 35.35
M 53.5 30.1
Q 52.65 29.3 51.75 29.3
L 44.05 30.1 40.3 30 43.65 28.45 46.35 28.05 40 27.5 40.75 27.35
Q 42.15 27.15 42.15 26.8
L 41.75 26.3 33.65 27.75
Q 28.15 28.8 26.25 29.6
L 28.25 29.9 41.35 28.75
Q 37.35 29.8 32.25 31.8
L 32.4 32.5 33.75 32.5 50.25 31.3 51.75 31.3 51.75 31.65 51.35 32.05
Q 52.05 32.3 52.85 32.7 48.95 33.45 47.4 34.3
L 47.85 34.5 53.3 33.55
Q 57.7 32.6 60.25 32.6
L 62.3 32.75 61.65 32.15 58.25 31.8 53.9 32.45
Q 54.25 32.1 54.25 31.3 54.25 30.8 53.5 30.1
M 126.45 54.85
Q 131.6 54.85 135.6 53.6
L 126.1 54.65 126.45 54.85
M 93.25 64.1
L 105.1 61.85 80.85 64.8 79.45 64.45 78.75 64.05
Q 77.6 65 77.05 65
L 70.35 64.4
Q 70.35 64.6 71.15 64.6
L 76.65 65.25
Q 77.4 65.4 77.6 66.05 77.8 66.55 78.75 66.55
L 93.25 64.1
M 122.9 43.75
L 122.8 43.15 121.25 43 108.25 45 108.4 44.95 108.65 44.9
Q 116.75 44.1 117.55 43.15
L 117.4 42.75 112.5 42.65 98.7 44.1 98.15 44.2
Q 103.3 42.95 105.55 41.4
L 104.15 41.15 104.05 40.9 98.5 40.9 98.5 41 81.95 42.8 64.55 43.45 65.1 43.4 65.05 42.9 60.9 42.8 71.05 41.75
Q 71.25 41.85 71.25 41.25
L 71.05 40.75 68 40.65 68 40.75
Q 59.75 41.45 58.4 42.85 60.1 44.55 72.45 44.55
L 72.45 44.65
Q 71.25 44.85 69.5 45.6 68.55 46 68 46.35
L 58.85 46.1
Q 60.7 45.85 60.85 45.6
L 52.75 45.05
Q 34.1 45.05 28.1 48
L 41.6 48.8 41.6 48.9 26.35 51.5
Q 19.4 52.9 19.4 54.5 19.4 55.15 19.5 54.8
L 26.5 54.9 47.6 53.15 47.15 53.3
Q 46.35 53.25 45.35 53.95 44.35 54.65 44.35 55.2 44.35 56.15 49.5 56.15
L 50.65 56.15
Q 50.7 56.5 50.8 56.3
L 56 56.55 68.55 55.85 68.55 55.75 69.55 55.65 69.3 55.75 64.85 57
Q 56.6 58.3 53.15 59.6
L 54.25 59.85 56.15 59.65 54.3 60.25 54.35 60.4 58.7 59.3 70.55 57.7 71.75 57.95
Q 71.05 58.15 70.4 58.5 67.7 59.8 64.1 60.15
L 64.1 60.35 71 59.6 71.25 59.95
Q 71.5 60.3 72.25 60.3
L 74.7 59.85
Q 76.25 59.3 76.25 58.55
L 76.25 58.4 90.9 58.4 86.9 59.3
Q 86.15 59.5 85.7 59.8
L 50.1 63.65 50.75 63.85 73.65 61.15 66.65 62.6 67.1 62.8 85.45 61.15 85.5 61.15 85.6 61.1 95.65 60.1 95.55 59.75 92.25 59.55 91.5 59.6 97.4 58.35 98.25 58.55 99.6 58.3
Q 99.1 57.5 101.3 56.85
L 104.3 56
Q 102.45 55.85 100.45 56
L 100.2 56.05 100.25 55.55 100.1 55.25 95 55.05 85.6 55.75 86.9 55.45 91.35 54.85 91.25 54.7
Q 98.4 53.4 98.4 52.25 98.4 51.4 97.25 51.3
L 95.5 51.3 88.25 52.3 89.05 52
Q 94.35 50.1 94.5 48.8
L 96.6 48.35 96.4 48.4
Q 94.3 49.2 94.3 49.7
L 94.4 50.35 95.75 50.5 99.85 50.35
Q 101.1 51.45 105.05 52.25 105.35 53.05 107.75 53.05
L 109.65 53 118.6 53.6 110.9 52.85
Q 115.55 52.25 121.6 50.1
L 121.15 50 109.65 51.55 107.1 51.5 107.65 51.15
Q 113.15 48.35 113.15 47.8
L 113.1 47.4 113.85 47.35 113.8 47.1 112.4 47.15 112.15 47.1 111.65 47.2 101.5 47.3
Q 101.35 46.95 99.9 46.9
L 102.4 46.3 103.5 46.35 116.9 45.25
Q 122.9 44.3 122.9 43.75
M 86.55 43.15
L 86.4 43.15 93.75 42.4 92.35 43.05 96.25 42.25 99.55 42.1 99 42.25 92.95 44.35 79.1 45.9 84.5 46.25 87.95 46
Q 86.65 46.4 86.65 46.8
L 86.75 47.35 87.1 47.55 82.3 47.8 82.3 47.75 82.05 47.25 76.05 47.1
Q 76.25 46.5 73.6 46.5
L 69.2 46.4
Q 71.15 45.55 76.6 44.9
L 86.65 43.55 86.55 43.15
M 94.75 47.15
L 94.55 46.75 88.6 46.65 97.45 45.45 101 45.4 100.9 45.65
Q 97.95 46.2 96.85 46.9
L 96.75 46.9 94.75 47.15
M 100.25 48.65
L 101.05 48.3 106.05 47.95 100.25 48.65
M 103.35 42.05
L 103.7 41.85 104 41.85 103.35 42.05
M 105.05 51.8
Q 102.9 51.15 101.6 50.2
L 108.7 49.05
Q 107.05 49.45 105.95 50.5 105.2 51.25 105.05 51.8
M 92.9 52.8
L 93.6 52.8 86.25 54.1 92.9 52.8
M 99.65 55.85
Q 100.2 55.85 100.1 56.05 97 56.25 97 57.3
L 97 57.35
Q 91.75 57.65 80.75 57.55 82.5 57.3 82.75 56.8
L 99.65 55.85
M 88.95 50.55
L 81.6 51.6
Q 70.3 53.55 59.75 53.55
L 55.6 53.3 55.6 52.95 55.35 53.3
Q 56.9 53.5 57.3 53.85
L 65.5 54.15 75.8 53.9 66.3 54.8
Q 64.05 54.65 59.85 54.65
L 53.3 54.8 55.5 54.05 55.35 53.85 51.9 54.75 51.7 54.85 46.35 54.85 51.4 53.55
Q 54.55 52.7 54.55 52.25
L 54.3 51.75 26.5 54.15 21.4 54.1
Q 29.65 51.75 42.15 48.8
L 42 48.4 28.35 47.9
Q 40.1 45.55 48 45.55
L 59.25 45.8 52 46.05 44.55 46.75
Q 46.75 47.05 66 47.15
L 65.5 47.25 61.4 48.15
Q 61.4 48.7 62 48.85
L 61.6 49
Q 58 49.1 58 50.05
L 58 50.35 48.5 51.05 54.5 51.5 57.8 51.5
Q 56.35 52.15 55.7 52.85
L 58.15 51.5 74.1 50.9
Q 71.7 51.7 69.25 52.75
L 69.75 53.05
Q 73.05 53.05 92.6 49.15
L 88.95 50.55
M 76.25 57.25
L 80.4 57.4 75.9 57.35 76.25 57.25
M 123.5 46.8
L 122.55 47.25 121.5 47.95
Q 122.75 48.05 122.75 48.4
L 122.4 49
Q 122.35 49.3 123.5 49.3 124.8 49.3 124.8 47.75 124.8 46.8 123.5 46.8 Z"/>

<path fill="#6F8D97" stroke="none" d="
M 165 -6.6
L 165 -6.15
Q 165 -2.85 189.75 -1
L 169.4 -1.5
Q 138.1 -1.5 138.1 0.4 138.1 1.65 152.45 2.75
L 186.1 5.05 185.5 5.1 166.45 6.65 163.85 6.95 163.8 6.9 160.75 6.8 124.35 7.6 128 8 152 8.15
Q 149.3 9 149.3 9.95 149.3 11 152.6 11.25
L 170.5 11.8 162.15 13.9
Q 155.4 15.6 152.55 18.1 154.05 18.45 153.95 18.7
L 164.8 19.05 164.5 19.1
Q 161.85 19.5 158.15 20.7 149.55 22.2 149.55 23.5 149.55 24.1 149.75 24.05
L 153.05 24.1 153.1 24.4 159.65 24.8 167.05 24.6 167 24.75 167 24.85 162.85 26
Q 159.6 27 159.6 28 159.6 28.75 170.45 29.1 164.5 30.8 164.5 32.05 164.5 32.45 165.4 32.75 160.05 34.7 160.05 36.5 160.05 38.15 165.9 38.15
L 178.45 37.5 180.6 37.2 177.55 38.4 182.5 38.8
Q 186.15 38.8 201.75 36.05 191.95 38.4 188.35 39.5 182.3 41.35 182.3 43.3
L 182.3 43.75 186 44.15
Q 192.9 44.15 201.6 42.75
L 204.5 42.85
Q 203.75 44.1 203.75 45
L 203.75 45.85
Q 204.1 46.6 206 46.6
L 210.5 45.95 213 45.05 212.9 44.85 206.7 45.5 204.75 45.4 204.75 44.3
Q 205.5 43.7 205.5 42.6 205.5 41.75 203.4 41.75 193.25 43.75 183.25 43.25 190.4 40.2 198.15 37.95
L 208.25 34.8 207.75 34.3 194.9 36.45 178.05 38.25 181.55 37 184 36.55 183.8 36.3
Q 188.85 34.65 194.3 33.4
L 210.15 29.8 206.75 29.35 189.6 30.75 173.55 32.1
Q 182.6 29.35 182.6 28.45
L 182.5 28.15 181.6 28.05 185.85 27.15
Q 197.5 24.75 197.5 23.5
L 197.3 22.8 196.75 22.8 200.1 22.1 206.5 21.15 212.1 20.9 219.5 21.5
Q 214.85 23.6 206.7 25.3 198 27.1 194.75 28.4
L 195 28.75
Q 213.05 29 214.2 29.3 214.5 29.35 214.2 29.6
L 216.55 30 216.5 30.15
Q 211 32.1 192.85 33.85
L 195.25 34.1
Q 202.6 34.1 210 32.8 217.75 31.5 217.75 30 217.75 28.05 200.05 27.65
L 212.3 25.35
Q 220.9 23.3 220.9 21 220.9 20 217.45 19.7
L 217.3 19.4 215.05 19.3 221.7 17.8
Q 226.3 16.5 226.3 14.6 226.3 13.4 222.85 13.1
L 216.15 12.8 217.8 12.65 217 12.1
Q 216.3 11.95 197.65 11.9
L 200.55 10.95 218 11.05 218.15 10.45 205.4 9.65 212.4 8.25 231.1 5.1 231.75 5 231.55 4.5 231.1 4.5
Q 198.55 4.25 197.55 3.75 205.3 0.9 226.25 -1.6
L 226.3 -2 223.5 -2.3 209.4 -1.1
Q 218.75 -2.8 218.75 -4.95 218.75 -5.6 217.65 -5.75
L 213.75 -6.1 202.4 -5.8 217.75 -4.75 217.5 -4.55 215.4 -3.6
Q 207.4 -5 190.3 -6.6
L 165.5 -9.25 154.35 -8.8 182.9 -6.55 207 -4.1 206.15 -4.1 167.25 -6.75 165 -6.6
M 175.6 -0.35
L 179.5 -0.35 185.5 0 202.25 -0.1 202.4 -0.5
Q 191.8 -2.6 180.95 -3.55 171.7 -4.35 167.3 -5.5
L 169.35 -5.55 181.25 -4.3 212.15 -3.05 213.7 -3.05 210.85 -2.4
Q 207.35 -1.65 206.3 -0.55
L 208.55 -0.25 207.8 -0.05
Q 196.15 1.3 196.15 4.05 196.15 4.5 196.7 4.8
L 142.6 0.5 153.85 0.15 180.65 1.15 192.4 2.1
Q 193.9 2.1 193.9 1.45 193.9 0.8 193.75 1.15
L 175.6 -0.35
M 213.9 15.7
L 213.75 15.4 209.25 15.1 192.7 16.15 170.25 16.85 205.65 13.7 222.5 13.9
Q 224.15 13.9 225.15 14.6 220.85 16.75 208.55 19.15
L 199.9 19 189.65 19.4 185.5 19.75 185.6 19.65
Q 186 19.45 186 19
L 185.8 18.4 213.75 16.3 213.9 15.7
M 222.5 5.6
L 206.75 8
Q 202.5 8.8 199.75 9.65
L 154.35 9.6 155.3 9.3 165.35 7.65
Q 188.9 5.25 198.5 5.5
L 202.4 5.7 202.3 5.5
Q 208.6 5.75 222.5 5.6
M 207.65 30.05
L 207.5 30.1 192.9 33.4
Q 188 34.55 183.6 36.1
L 183.5 36.05 170.35 36.8 161.75 36.4 161.75 36.25
Q 162.95 35.45 169.95 33.25
L 171.5 33.25 207.65 30.05
M 196.3 11
Q 195.4 11.45 194.95 11.9
L 177.25 11.85 196.3 11
M 183.25 21
L 183.8 20.9 194.5 20.05 195.65 20.05 194.55 20.15 183.25 21
M 196.2 21.6
L 194.05 22.3 180.5 22.75 196.2 21.6
M 194.95 13.1
L 195.8 13.25
Q 167 14.95 167 17.35
L 167 17.7 159.5 18 154 17.75 154 17.6
Q 158.05 16 163.4 14.65 168.4 13.4 172.25 11.75 171.65 11.1 171.05 11.05
L 168.3 11 174.6 11
Q 173.5 11.05 173.5 11.85 173.5 12.6 175.9 12.75
L 194.95 13.1
M 182.8 24.5
L 195.75 23.75 177.05 27.45 175.2 27.9 161.5 27.75
Q 165.05 26.55 169.5 25.4
L 170 25.4 182.8 24.5
M 167.8 23.3
L 168.25 23.25 172.85 22.4 176.35 22.4
Q 175.45 23.15 167.8 23.3
M 173.6 24.35
L 175.05 24 178.55 23.75 181 23.75 179.75 23.85 173.6 24.35
M 173.3 21.05
L 173.5 21
Q 176.75 19.9 181.05 19.25
L 184.3 19.3 173.3 21.05
M 174 19.3
L 174.6 19.35
Q 170.8 21.6 167.95 22.05
L 155.3 23.1
Q 159.45 21.45 163.25 20.5
L 174 19.3
M 173.4 18.1
L 180.1 18.15 169.6 19.05 173.4 18.1
M 176.15 29.25
L 177.55 29.25
Q 171.1 30.9 167.4 32.1
L 166 31.9 166 31.8
Q 168.85 30.85 176.15 29.25
M 151.5 10.25
L 150.25 10
Q 150.65 9.8 151.75 9.55
L 151.5 10 151.5 10.25
M 153.8 22.6
L 153.15 23.25 151.05 23.4 153.8 22.6 Z"/>

<path fill="#CAE3E2" stroke="none" d="
M 7.2 -13.25
L 7.65 -13.25 18.5 -14 20.8 -12.1 29.65 -11.55
Q 36.95 -11.55 43.5 -13.85
L 50.05 -16.75 51.4 -16.75 51.65 -15.3 51 -14.1 50.9 -14.05
Q 54.4 -13.95 54.8 -13.5
L 54.6 -12.35 59.3 -11.6 59.35 -10.75 62.3 -10.75
Q 68.25 -10.75 75.1 -13.15 79.95 -14.8 81.6 -16 82.15 -15.1 85.55 -15.6 85.75 -14.05 88.65 -12.8 91.35 -14.2 94 -13.35
L 98.15 -12.9
Q 99.9 -12.75 100 -10.85
L 100.9 -10.75
Q 103.05 -10.75 109.4 -13.1
L 110.15 -12.8 112.75 -12.5
Q 115.95 -12.5 118.25 -13.25 118.75 -13.25 118.75 -12.3 119.05 -12.3 123.65 -14 124.6 -14 124.65 -13.7
L 124.5 -13 125.3 -13 130.2 -13.75 132.9 -14.5
Q 133.5 -14.5 133.55 -14.2
L 133.65 -14.1 143.25 -14.8 146 -14.5 141.75 -14 139.85 -13.65 138.55 -13.25 143.8 -13 147 -14
Q 148.95 -14.95 153.75 -16.1 156.85 -17.75 164.75 -17.75 168.45 -17.75 172.95 -16.6
L 177.75 -15.5 184.95 -16.5 193.4 -17.5 204.9 -17 210.15 -18 214.75 -17.5 223.25 -18.05 226.25 -18.25 229.35 -17.85 229.35 -69.7 7.2 -69.7 7.2 -13.25 Z"/>
</g>

<g id="Symbol_68_0_Layer1_0_FILL">
<path fill="#000000" stroke="none" d="
M 64.2 5.65
L 62.4 4.55 63.55 6.2
Q 66.1 9.8 62.5 11.15 58.85 12.5 59.9 13.2 60.95 13.9 60.45 14.15
L 53.75 17.75
Q 50.25 19.8 49.6 19.3 48.9 18.7 47.3 19.95 45.7 21.15 44.35 21.3 43 21.4 41.25 25.05 39.45 28.7 40.95 30.7 43.05 27.25 43.7 26.4 46.85 22.55 52.1 20.9
L 59.35 18.75
Q 63.6 17.2 64.35 15.4
L 66.2 11.75
Q 66.85 10.3 66.85 8.5 66.85 6.95 64.2 5.65
M 45.45 -51.15
Q 46 -52 48.05 -52 50.85 -52 55.05 -48.55 56.5 -48.15 56.65 -46.8 56.6 -45.25 56.8 -44.75
L 57.4 -44.65 57.9 -44.7 57.05 -44.1 56.6 -43.75 55.35 -44.8 55.15 -44.8 55.1 -44.75 55.05 -44
Q 55.05 -43.35 55.2 -42.8
L 53.6 -41.9 52.4 -42.55
Q 51.35 -44.25 49.9 -44.25 49.4 -44.25 49.15 -43.75
L 41.8 -45.5
Q 36.2 -46.6 32.8 -49.5 29.75 -52.15 29.85 -54.75
L 29.65 -54.75 29.6 -53.65
Q 29.6 -51.65 32.95 -49.05 36.65 -46.2 41.8 -45 42.7 -44.8 43.95 -44.1 45.5 -43.6 48.95 -43.3 48.7 -42.6 48.7 -41.4
L 48.7 -40.75 45.45 -38.95
Q 41.05 -36.5 40.15 -35.15
L 34.65 -28.05
Q 32.25 -27.3 30.45 -27.3 29.35 -27.3 29.35 -26.75 29.35 -26 31.8 -26 33.6 -26 37.2 -27.35 37.7 -26.9 38.65 -26.9 39.95 -26.9 42.5 -28.05 45.05 -29.25 47.45 -29.25 49.65 -29.25 50.05 -26.65
L 50.05 -25.65
Q 48.85 -25.25 48.85 -23.55
L 49.05 -22.95 48.55 -22.7 47 -21.85 46.55 -22.05 45.8 -21.2 44.55 -20.6
Q 44.05 -20.6 43.4 -21.4 42.7 -22.25 40.3 -22.25 37.45 -22.25 37.45 -21 37.45 -20.4 38.05 -20
L 38.35 -20.1 38.45 -20.7 40.3 -21
Q 42.3 -21 43.05 -20.15 43.8 -19.35 44.4 -19.35
L 44.85 -19.55
Q 44.4 -18.45 44.4 -17.15 44.45 -16.25 44.9 -15.45 45.75 -13.85 47.8 -13.85
L 49.8 -13.95
Q 49.05 -12.8 48.2 -10.85 46.7 -9.95 45.3 -9.4
L 45.45 -10.35 45.35 -10.85 44.4 -10.8
Q 44.65 -9.95 44.25 -9.1
L 41.65 -8.75
Q 40.1 -10.6 38.4 -10.6
L 35.4 -10.3 35.35 -9.9 35.45 -9.6
Q 36.6 -9.5 41.9 -7.25
L 42.55 -7.25 40.55 -5.55
Q 39.7 -4.85 39.65 -3.2
L 39.3 -3.1
Q 30.95 2.05 27.05 2.05 25.55 2.05 23.55 1 22.95 1 23 1.3 23.15 2.35 23.65 2.7
L 24.75 3.15 24.55 3.95
Q 25.65 6.6 29.5 4 33.3 1.4 38.3 0.15
L 39.85 -0.3 39.85 0
Q 39.85 3.45 41.05 3.65
L 41.45 3.3 41.25 -0.7
Q 44.2 -1.65 46.2 -2.75
L 46.4 -2.9
Q 46.95 -2.1 48.05 -2.1
L 49 -2.15
Q 48.3 -0.65 48.3 1.05 48.8 2.35 48.55 3.1 48.05 4.55 44.25 4.55
L 40.05 4 39.8 4.35
Q 42.15 5.9 45.55 5.9 50.3 5.9 50.45 3.35
L 50.15 -0.85
Q 51.65 -5.1 55.2 -7.4
L 56.85 -8.35 56.65 -7.3
Q 56.65 -6.15 57.9 -5.25 59.05 -4.4 59.15 -3.3 58.3 -2.4 58.35 -1.6
L 55.9 0.4
Q 56.25 0.75 56.8 0.75 58.35 0.75 59.25 0.05
L 61.4 3.15 60.9 3.5
Q 60.9 4.1 61.3 3.8 66.3 2.8 68.35 1.15 69.75 3.15 73.8 4.1
L 75.35 4.5 75.85 7.75
Q 76.6 11.95 76.6 13.75
L 73.65 24.05 73.85 29.65
Q 73.55 32 74.4 33.3 75.4 34.75 75.4 35.3 75.4 38.25 74.4 42.25 72.85 47.8 70.85 49.25 70.85 49.9 71.05 49.6
L 71.5 49.75 72.05 49.65
Q 72.1 50.05 72.35 49.8 74.4 48.65 77.55 45.55 77.8 49.1 83.75 53.35 84.95 53.35 85.2 47.75
L 85.7 47.8 86.35 48.8 86.65 48.6 86.1 47.8
Q 86.9 47.75 87.15 47.25 86.1 46.5 85.5 46.5
L 85.3 46.55 82.8 41.5
Q 79.45 38.4 79.45 34.05
L 80.2 28
Q 78.95 21.8 78.95 20.85 81.65 9 81.85 -2.45 83.65 -2.3 83.9 -1.5 84.85 1.4 85.85 2.8 86.2 3.25 86 4.35
L 85.65 6.25
Q 85.5 8.55 88.75 8.55 92.9 8.55 92.9 6.9 92.9 6.7 92.35 6.4
L 90.65 6.9 87.45 6.8 87.5 3.95
Q 87.4 2.4 86.45 1.35 85.9 0.75 85.95 -0.2
L 86 -1.75
Q 85.75 -3.3 81.85 -3.35
L 81.85 -4.25
Q 81.85 -5.4 79.7 -11.45
L 79.95 -11.6 80.65 -9.8
Q 81.75 -8 83.85 -8 84.25 -8 84.35 -8.5 81.2 -10.5 81.2 -11.6
L 81.5 -12.4 81.55 -12.45 81.75 -12.55 83.35 -13.2
Q 82.55 -12.4 82.55 -11.75 82.55 -11.05 84.8 -11.05
L 85.2 -10.95
Q 86.85 -10.65 87.6 -8
L 88.85 -5.15 89.05 -4.35
Q 89.4 -3.2 90.2 -2.35
L 92.6 2.4
Q 95 6.15 97.6 6.15
L 98.1 6.05 98.15 5.65
Q 95.25 3.25 92.65 0.65 92.1 0.15 91.65 -1.3 93.5 -0.35 96.6 -0.35 97.1 -0.35 97.15 -1
L 93.15 -2.8
Q 91.15 -3.75 90.5 -5.8 92.45 -5.25 95.75 -5.25
L 99.65 -5.75 99.65 -5.85 101 -4.35
Q 103.5 -1.85 105.3 -1.85
L 106.65 -2.1
Q 105.25 -2.75 103.65 -4.5
L 100.7 -7.85 99.9 -8.65 98.65 -11.3
Q 99.8 -10.7 101.15 -10.45
L 101.6 -9.85 102.1 -10.1 102.15 -10.3 103.05 -10.3 106.7 -10.7 107.35 -11.25 102.1 -11.7
Q 101.85 -12.95 101.05 -14.05
L 104.55 -12.25 104.7 -12.55 101.2 -15.65 98.85 -16.95
Q 98.55 -17.6 98.55 -18.15
L 98.85 -19.75 99.05 -19.75
Q 102 -19.75 103.35 -16.85 104.7 -14 106.8 -14
L 110.1 -14.85
Q 105.55 -15 104.45 -17.15 102.75 -20.3 101.05 -21.25
L 99.2 -21.05 99.55 -23.9 99.35 -26.2 100.2 -26.25
Q 105 -26.25 107.75 -25
L 110.3 -23.75
Q 110.9 -23.75 110.85 -24.05
L 111.05 -23.8
Q 112.55 -22.05 113.5 -21.6 115.55 -20.6 120.3 -20.6
L 126.9 -21.1
Q 118 -20.75 113.6 -23.75
L 114.2 -23.75 115.15 -23.85
Q 111.9 -25.25 107.65 -28.5
L 104.05 -31.5
Q 103.15 -31.5 99.9 -29.5
L 97.55 -28.3 97.45 -28.4 98.85 -29.3
Q 103.2 -32.1 103.2 -33.85
L 102.4 -35.55 103.95 -35.15
Q 107.85 -34.2 107.95 -32.5 107.6 -30.75 107.95 -29.95 108.6 -28.45 112.7 -28.05 112.7 -27.3 113.05 -26.9 114.6 -26.9 114.6 -28.3 114.6 -29.4 112.25 -29.8 109.85 -30.2 109.6 -32.75 109.2 -37.05 101.7 -37.05
L 99.7 -41.25 102.4 -44.1
Q 105.15 -46.9 105.8 -46.9 106.8 -46.9 109.55 -43.6
L 109.05 -43.3 110.05 -43 111.45 -41.2
Q 115.8 -35.5 118.95 -35.5 121.8 -35.5 121.8 -36.15
L 119.45 -36.55
Q 116.65 -36.85 115.1 -39.15
L 112.3 -42.3 111.4 -43.5 114.65 -46.5
Q 115.5 -47 116 -48.5 116.85 -49.75 119.9 -49.75 120.55 -49.75 120.85 -47.9
L 123.45 -41.9
Q 123.8 -41.9 124.55 -42.5 123.7 -43.2 122.25 -47.3 121.1 -50.65 118.8 -50.65 118 -50.65 113.95 -47.25
L 112.4 -45.9 110.8 -46.05 110.4 -46 110.4 -45.55 111.6 -45.3 110.6 -44.45
Q 107.2 -48.5 104.8 -48.5 102.35 -48.5 101.9 -47.35
L 101.05 -45.15
Q 97.95 -42.15 97.95 -41.15 97.95 -40.15 98.5 -39.6
L 99.95 -37.25 100.2 -35.3
Q 100.35 -34.1 101.55 -33.3 101.05 -32.45 97.1 -30.3
L 97.15 -30.75
Q 95.7 -33.8 94.25 -35.45
L 95.1 -35
Q 95.85 -35.05 95.85 -36
L 94.85 -37.55 94.7 -37.7 94.9 -38.8 95.35 -41.7 96.05 -42.3
Q 98.85 -44.6 98.85 -45.8 98.85 -47.05 96.8 -47.75
L 97.95 -49.65 97.9 -49.8
Q 96.1 -49.2 95.05 -48.25 93.1 -48.85 93.1 -49.5 93.1 -51.4 98.7 -54.5 103.65 -57.3 107.9 -58.5
L 107.3 -58.8 106.3 -58.9
Q 102.85 -58.05 99.45 -56.2
L 99.4 -56.3 99.55 -57
Q 96.7 -59.5 94.1 -59.5 92.95 -59.5 91.6 -56.5 90.4 -54 90.4 -53.35 90.4 -52.35 90.8 -51.6 91.2 -50.9 91.2 -50.15 91.2 -49.45 88.4 -47.25 88.4 -47.6 89.15 -49.1 89.15 -49.55 85.25 -49.85 80.35 -50.25 77.05 -52.55 74.75 -54.2 72.9 -55
L 73.85 -55.05
Q 78.8 -55.05 79.1 -55.6 79.6 -56.55 82.35 -57
L 82.4 -56.8 82.4 -55.15
Q 82.45 -54.2 83.85 -53.4 84.6 -53 84.9 -51.65 85.2 -50.35 85.85 -50.05 86.6 -50.35 86.6 -51.65 86.6 -53.55 84.45 -54.8 83.95 -55.1 83.95 -56.95 83.95 -58.4 82 -58.4 80.2 -58.4 77.9 -56.75
L 75.35 -56.85
Q 72.8 -57.05 71.35 -56
L 71.05 -55.65 69.85 -55.8 68.35 -55.65
Q 62.9 -61.5 59.65 -61.5 58.35 -61.5 56.7 -59.95 54.7 -58.1 54.2 -57.9 46.65 -56.15 46.65 -54.75 46.65 -53.8 47.55 -53.8 50.8 -53.8 54.95 -56.5
L 59.8 -59.8
Q 62.6 -59.15 63.65 -57.85 64.45 -56.3 65.35 -55.55
L 67.95 -53.3 69.95 -51.85
Q 68.95 -50.9 68.95 -50
L 69.15 -48.8 68.6 -48.75 68.3 -48.75
Q 68.5 -49.6 67.7 -50.65 66.5 -52.25 63.55 -52.25
L 62.9 -52.05 62.8 -51.55
Q 62.8 -51.15 64.15 -51 65.75 -50.8 66.7 -49.3
L 66.65 -48
Q 66.65 -47 67.95 -47
L 69.1 -47.15 69.2 -47.5 69.3 -47.55 69.95 -42.6 68.95 -42.05 70.05 -41.8 70.45 -38.8 69.1 -38.7 69.4 -39.5
Q 69.4 -39.95 67.8 -40.4 66.2 -40.85 66.1 -42.8
L 66.5 -44.95
Q 66.25 -46.5 62.8 -46.5
L 59.95 -45.85 58.8 -45.9 57.85 -45.75
Q 57.85 -48.7 53.55 -51.25 49.9 -53.4 47.55 -53.4 46.15 -53.4 44.9 -52.15 43.7 -51 43.7 -50
L 43.85 -49.75
Q 44.65 -50 45.45 -51.15
M 71.35 -53.75
L 71.35 -53.5 70.9 -52.75 69.65 -54.25 71.35 -53.75
M 72.3 -53.45
L 75.35 -52.4 77.85 -50.3
Q 79.4 -48.9 83.1 -49.3 86.85 -49.7 88.05 -48.65 86.35 -47.05 86.35 -46.25
L 86.4 -45.85 83.5 -46.15 82.3 -45.6 81.65 -45.55
Q 82.4 -47.15 81.8 -48 80.75 -49.5 73.85 -49.5
L 70.2 -49.1 70.1 -49.95
Q 70.1 -50.55 70.9 -51.4
L 71.05 -51.4 71.6 -51.9 71.5 -52.05
Q 72.1 -52.75 72.3 -53.45
M 39.55 -28.05
L 38.95 -28.05
Q 41.35 -29.15 42.15 -30.25 42.8 -31.2 47.4 -33.35 51.55 -35.25 51.55 -36.3
L 50.3 -40 50.35 -41.55 50.55 -41.85 51.05 -41
Q 51.8 -39.9 52.65 -39.9
L 53.5 -40.1
Q 56.3 -37.35 57.8 -36.55
L 58.1 -33.5 58.1 -33.2 57.45 -32.65 54.4 -30.05
Q 52.35 -31.25 50.15 -31.25 48.95 -31.25 48.95 -30.55 48.95 -30.45 54.55 -28.15 55.5 -28.15 56.3 -29
L 57.85 -30.9 58.15 -31.15 58.2 -30.1
Q 58.5 -27.75 60.05 -27.75
L 60.6 -27.9 60.65 -28.25 59.85 -29.4 59.65 -32.35
Q 60.7 -33 62.1 -33.3
L 63.25 -32.55 65 -30.6
Q 65.1 -29.5 65.35 -28.8
L 64.65 -28.8 64.7 -29.4 64.3 -29.9 63.45 -28.8
Q 61.25 -28.65 58.6 -25.75 55.85 -22.75 52.85 -22.75
L 51.7 -22.95 54.85 -24.5
Q 54.55 -24.85 53.55 -24.85 52.85 -24.85 50.7 -23.8
L 50.65 -24.25 50.6 -25.15 51.1 -25.75 50.6 -25.75 50.2 -28.35
Q 49.45 -30.25 46.3 -30.25 44.9 -30.25 43.55 -29.6 41.45 -28.6 39.55 -28.05
M 36.75 -29
L 36.7 -28.75 36.4 -28.65 36.75 -29
M 38.85 -29.4
L 37.85 -29.1 37.8 -29.35
Q 37.8 -30.55 43.1 -34 42.35 -34.25 40.3 -33.1
L 40.9 -34
Q 41.45 -34.8 45.9 -37.85
L 48.75 -39.95
Q 48.9 -37.55 49.55 -36.4 41.7 -32.65 40.8 -30.75 40.4 -29.95 38.85 -29.4
M 76.6 -48
Q 79.8 -48 80.35 -46.2
L 80.9 -45
Q 77.7 -43.5 77.25 -42.65 76.55 -43.05 75.85 -43.05
L 70.7 -42.8 70.6 -44.45 70.35 -47.75 76.6 -48
M 73.45 -37.4
L 73.8 -37.4
Q 75.4 -37.25 76.45 -36.45
L 76.1 -35.4
Q 74.25 -35.75 73.8 -36.25
L 73.45 -37.4
M 71.1 -41.1
L 70.9 -41.65 75.3 -41.4 77.1 -40.75 77.05 -38.15 76.85 -37.65 75.05 -38.4 71.6 -38.8
Q 71.6 -40 71.1 -41.1
M 78.15 -37.8
L 78.15 -38.45 78.55 -39.4
Q 79.35 -38.3 79.55 -36.55 79.45 -35.75 79.5 -34.95
L 78.7 -35.05 78.7 -35.1 78.2 -36.3 78.15 -37.8
M 79.25 -40.75
L 79.35 -41 78.95 -41.15 78.35 -41.8
Q 79.4 -44.4 83.2 -44.4
L 84.3 -44.35 84.1 -44.25 84.2 -44 85 -43.8 86.05 -43.95
Q 87.35 -43.35 87.55 -42.05
L 87.35 -41.85 83 -37.25 82.4 -44 82.2 -44
Q 81.9 -41.65 81.9 -38.35 81.9 -37.05 82.25 -36.05
L 81.55 -34.75
Q 81.2 -35.65 81.15 -36.8 81.1 -38.05 79.55 -40.3
L 79.25 -40.75
M 66.95 -38.35
L 66.25 -38.2
Q 63.35 -37.55 59.6 -40.15
L 60.7 -41 59.8 -41.3 58.5 -41 57.55 -42.5
Q 60.9 -44.8 64.3 -44.8
L 65.2 -42.15
Q 66.25 -39.4 67.35 -39
L 66.95 -38.35
M 68.65 -37.4
L 69.4 -37.35
Q 69.4 -36.75 69.8 -36.5
L 68.85 -35.35 67.95 -34.35 67.9 -34.65
Q 67.9 -35.3 68.65 -37.4
M 62.85 -37.85
L 66.6 -37.5 66.3 -36.3 65.95 -35.75 65.6 -35 65.5 -35.05 65.1 -36.5 64.9 -36.5 65.2 -35.1 63.05 -35.25 62.15 -35.15
Q 60.7 -36.7 60.7 -38.25
L 62.85 -37.85
M 68.3 -33.05
L 70.85 -36.05 71.35 -36.85 72.35 -37.15
Q 72.9 -35.3 75.8 -34.45
L 75.75 -34.4 75.5 -34.4
Q 74.85 -34.4 74.2 -33.95
L 73.1 -34.4 72.65 -34.25 73.25 -33.1 72.05 -31.4 71.35 -30.05 70.5 -30.45 69.3 -31.9
Q 68.65 -32.4 68.3 -33.05
M 65.05 -32.95
L 64.1 -33.55 64.05 -33.6 65.1 -33.65 65.15 -33.65 65.05 -32.95
M 64 -27.2
L 65.1 -27.35 65.75 -27.4 65.8 -26.3 65.8 -24.95 65 -23.6
Q 63.95 -21.85 64.1 -21
L 64.3 -19.7 61.65 -18.85
Q 59.95 -20.75 58.4 -20.75
L 56.35 -18.4
Q 54.35 -18.7 53.1 -19.45
L 52.9 -19.75
Q 55.85 -21 58.55 -22.6 62.6 -25 64 -27.2
M 70.25 -28.6
L 70.4 -28.25 70.7 -28.3 70.65 -28.05 70.75 -27.55 70.35 -27.75 69.8 -28.3 70.25 -28.6
M 66.65 -30.55
L 67 -30 66.25 -30.75 66.65 -30.55
M 66.55 -29
L 66.45 -28.8 66.4 -29.2 66.55 -29
M 67.15 -25.5
L 66.9 -25.5 67.8 -27.7 67.85 -27.7 69.15 -26.5 68.65 -25.55 67.15 -25.5
M 66.85 -25.25
L 68.35 -25 66.2 -20.3 66.05 -20.25
Q 66.85 -22.75 66.85 -24.45
L 66.85 -25.25
M 77.4 -35.2
L 77.15 -35.25 77.2 -35.55 77.4 -35.2
M 76.95 -34.25
L 77.6 -34.15 77.85 -30.15 77.95 -29.2 77.15 -30.25
Q 77.15 -30.9 77.6 -31.25
L 76.9 -33.3 76.9 -33.65 76.95 -33.75 76.95 -34.1 76.95 -34.25
M 78.8 -34
L 79.7 -33.9 79.85 -33.35
Q 80.35 -32.1 81.4 -31.4
L 81.25 -27.3
Q 80.5 -27.1 79.65 -26.55 78.9 -28 78.85 -29.65
L 78.85 -30.25
Q 79.2 -30.3 79.4 -30.9 79.05 -31.85 78.8 -34
M 73.45 -29.2
L 74.6 -29.25 74.7 -28.9 74.4 -28.8 73.45 -29.2
M 74.2 -30.6
L 74.3 -30.15 73.3 -30 74.2 -30.6
M 72.1 -25.85
L 72.55 -25.45 72.55 -23.75 71.95 -22 72.1 -22.15 71.8 -21.5
Q 71.4 -22.75 71.25 -24.85
L 71.15 -25.6 71.55 -25.95 71.9 -26.05 72.1 -25.85
M 73.7 -27.45
L 73.55 -26.3 73.35 -26.4
Q 72.1 -27 72.05 -28.05
L 73.7 -27.45
M 74.55 -27.05
L 74.6 -27.2 75.2 -26.85 75.35 -26.35 74.6 -26 74.55 -27.05
M 76.45 -29.25
L 76.4 -29.5 78.1 -28.65
Q 78.45 -27.6 79.15 -26.3
L 78.8 -26.3 76.45 -29.25
M 76.9 -27.3
L 77.55 -26.45 77.05 -26.5 76.9 -27.3
M 77.35 -24.9
L 77.7 -24.95 77.4 -24.6 77.35 -24.9
M 79.6 -25
L 79.55 -25.1 79.85 -25.15 80.25 -24.5 80.1 -24.25 79.6 -25
M 80.5 -25.25
L 80.6 -25.25 80.55 -25.2 80.5 -25.25
M 57.7 -37.6
Q 56.5 -38.4 55.8 -39.25
L 54.75 -40.7 55.8 -41.3
Q 56.4 -40.3 57.6 -39.55
L 57.55 -39.15 57.7 -37.6
M 59.1 -38.8
L 59.9 -38.5
Q 59.6 -37.7 59.6 -35.9 59.6 -35.4 60.4 -34.65
L 59.5 -34.2 59.3 -36.3 59.55 -36.5
Q 59.4 -36.55 59.3 -36.65
L 59.1 -38.8
M 50.35 -41.75
L 50.35 -42.25 50.55 -41.9 50.35 -41.75
M 52.85 -21.3
L 51.6 -20.85 51.2 -21.6 52.85 -21.3
M 51.25 -19.15
L 51.6 -18.75 52.6 -18.25 53.55 -16.25 53.95 -15.8 53.85 -15.7 51.9 -15.75
Q 51.15 -15.75 50.3 -14.6 46.95 -14.95 46.05 -15.9 45.45 -16.5 45.65 -17.5 48.55 -18.2 51.25 -19.15
M 54.9 -16.8
L 54.25 -17.4 54 -17.9 55.65 -17.6 54.9 -16.8
M 51.6 -14.5
L 51.4 -14.5
Q 52.1 -15.05 53.3 -15.15
L 52.9 -14.75 50 -12.15 50.4 -13 51.15 -14.3 51.6 -14.5
M 53.1 -13
L 55.05 -14.9
Q 56.9 -13.8 59.9 -13.8
L 63.05 -14.15 60.85 -12.75 59.45 -11.65
Q 51.7 -8.85 49.7 -7.35 49.25 -7 47.4 -6.2 47.85 -7.7 49.05 -9.75
L 53.1 -13
M 57.3 -17.4
L 59.05 -17.25 60.4 -17.55 62.2 -15.35 61.3 -15.25 59.9 -15.3 59.85 -15.1
Q 57.65 -15.3 56.1 -16.05
L 57.3 -17.4
M 59.55 -18.25
L 59.3 -18.25 57.95 -18.25 58.35 -18.8
Q 58.85 -18.8 59.55 -18.25
M 50.05 -22.1
L 50.15 -22.05 50.4 -20.4 46.05 -19 46.05 -19.1 46.65 -20.45 50.05 -22.1
M 44.6 -6.8
L 44.9 -7.75 47.35 -8.75 46.25 -5.7 41.2 -3.75
Q 41.3 -4.85 42.5 -5.6
L 44.6 -6.8
M 49.25 -2.65
Q 48 -3.05 47.45 -3.6 49.15 -4.65 52.6 -6.4 50.3 -4.65 49.25 -2.65
M 59.15 -5.55
Q 57.9 -6.95 57.9 -7.3 57.9 -8.25 58.75 -9.4
L 61.15 -10.5 65.45 -12.3 65.45 -11.95
Q 65.45 -11.2 64.5 -10.5 63.2 -9.55 62.45 -8.35
L 62.6 -8.25
Q 64.35 -8.35 65.6 -9.7
L 65.75 -9.85 65.55 -7.65 65.55 -7.15
Q 61.95 -5.55 60.15 -4.15
L 59.15 -5.55
M 76.6 -19.65
L 76.8 -19.85 76.85 -19.7 76.7 -19.55 76.6 -19.65
M 76.7 -20.4
L 76.2 -20.1 75.75 -20.75 76.35 -21.85 76.7 -20.4
M 79.7 -23.55
L 78.5 -21.6 78.35 -21.75 77.85 -21.3 77.5 -23.75 78.65 -25 79.7 -23.55
M 75.15 -22.1
Q 74.8 -23.1 74.7 -24.5
L 75.75 -24.7 75.8 -24.5
Q 75.65 -23.25 75.15 -22.1
M 73.3 -24.75
L 73.15 -24.55 73.15 -24.9 73.3 -24.75
M 72.5 -18.65
L 72.5 -19.45 74 -21.05 74.05 -20.9 74.15 -20.45 72.5 -18.45 72.5 -18.65
M 74 -17.5
L 74.35 -17.5 75.55 -17.55 75.85 -17.5 76.6 -17.75 77.35 -18 78.2 -15.85 78 -15.55 76.55 -15.45
Q 76.1 -15.8 75.05 -15.9
L 74.6 -17.05 73.4 -17 74 -17.5
M 74.8 -18.5
L 74.7 -18.5 74.8 -18.6 74.8 -18.5
M 71.2 -17
L 71.25 -16.9 71.3 -16.85 71.35 -16.8 71.4 -16.65 70.8 -16.5 68.95 -16.2
Q 69.95 -16.7 70.95 -17.7
L 71.2 -17
M 79.85 -16.75
L 79.8 -16.75 81.75 -19.45 82.4 -20.05
Q 82.6 -18.75 83.25 -17.75
L 81.15 -15.6 81.1 -15.6
Q 80.8 -16.75 79.85 -16.75
M 78.9 -17.9
L 78.6 -17.4 78.25 -18.05 78.9 -17.9
M 76.7 -12.8
L 76.55 -12.5 76.45 -12.35 76.25 -11.9 76.35 -12.85 76.7 -12.8
M 79.8 -12.8
L 80.25 -12.9 79.4 -12.35 79.8 -12.8
M 79.2 -14.25
L 79.6 -14.25 79.85 -14.25 79.9 -14.25 79.75 -14.05 79.15 -14.15 79.2 -14.25
M 79 -18.05
L 78.2 -18.45
Q 79.95 -19.5 81.05 -21.7
L 81.4 -21.2 81.15 -20.35 79 -18.05
M 69.65 -24.05
L 69.7 -22.4 68.35 -21 67.5 -20.7 69.65 -24.05
M 67.2 -20.1
L 67.7 -20.3 66.95 -19.5 67.2 -20.1
M 68.85 -19.5
Q 69.6 -19.5 70.25 -19.9
L 70.35 -19.6 69.45 -18.8 67.95 -18 69.15 -19.25 67.55 -18.45
Q 68.55 -19.5 68.85 -19.5
M 64.95 -20.5
L 65.75 -22.9 65.35 -20 64.95 -19.9 64.95 -20.5
M 64.95 -19.2
L 65.2 -19.3 64.9 -18.35 64.95 -19.2
M 64.05 -16.7
L 63.65 -16.2 62.2 -18.15 64.3 -18.95 64.05 -16.7
M 63.95 -13.45
L 64.05 -13.55 64.05 -13.5 63.95 -13.45
M 66.4 -12.6
L 69.85 -13.2 68.85 -12.05
Q 67.3 -10.15 66.55 -8.7
L 66.65 -12 66.6 -12 66.4 -12.6
M 68.55 -15.1
L 67.05 -14.65 66.3 -14.85 66.85 -15.2 68.55 -15.1
M 65.4 -18.5
L 65.8 -19.55 65.9 -19.55 65.4 -18.5
M 67.7 -8.05
L 69.3 -10.4
Q 69.35 -9.6 69.7 -8.8
L 67.7 -8.05
M 70.35 -7.05
L 70.55 -7.2
Q 71.15 -6.4 72.05 -5.55 73.2 -4.55 75.85 -2.85 75.7 0.15 75.1 2
L 75.25 3.7 72.8 3.15
Q 70.4 2.35 68.95 0.55 69.7 -0.3 69.7 -1.35 69.7 -2.8 68.45 -4.3 67.35 -5.55 67.2 -6.25
L 70.35 -7.05
M 62.8 -4.3
Q 63 -4.95 65.7 -5.8 66.1 -3 67.7 0.05
L 64.7 1.7
Q 62.45 2.55 61.55 3.05 61.6 -0.8 62.8 -4.3
M 68.2 -0.5
Q 67.25 -2.1 66.85 -4.25
L 67.2 -3.95
Q 68.45 -2.85 68.45 -1.3
L 68.2 -0.5
M 71.6 -12.1
Q 71.8 -11.3 71.35 -9.85 71.9 -10.75 74.1 -10.75 75.8 -10.75 75.85 -4.95
L 75 -5.6
Q 72.2 -7.6 71.1 -9.05
L 71.15 -9.35 70.95 -9.25
Q 70.5 -9.85 70.4 -10.35 71.1 -10.2 71.3 -10.75
L 70.35 -11.7 71 -12.5 71.6 -12.1
M 61.95 -26.7
Q 60.7 -25.05 58.65 -23.85
L 59.4 -25
Q 60.1 -26.05 61.95 -26.7
M 98.85 -56.05
L 99.15 -56.05 96.8 -54.65
Q 93.45 -52.45 92.5 -50.75
L 92.55 -51.1
Q 92.55 -51.85 92.2 -52.2 91.8 -52.55 91.8 -53.4
L 92.6 -55.7
Q 93.6 -57.9 94.55 -57.9
L 98.85 -56.05
M 104.05 -30.3
L 106 -27.9 100.85 -28.3 100.55 -28.3 104.05 -30.3
M 96.4 -46.85
Q 97.85 -46.4 97.85 -45.8 97.85 -44.7 95.55 -43.25
L 95.65 -44.2 96.4 -46.85
M 92 -44.3
L 93.65 -45.6 93.6 -45.05 93.95 -42.95
Q 93.55 -43.8 92.1 -44.3
L 92 -44.3
M 92.1 -49.45
Q 92.1 -48 94.3 -47.35
L 93.9 -46.65 93.5 -46.75
Q 92.7 -46.75 89.8 -44.15
L 89.05 -44 88.2 -45.15
Q 89.15 -45.9 90.15 -47.15
L 92.2 -49.95 92.1 -49.45
M 93.85 -40.75
L 94.1 -40.9 93.9 -39.5 93.9 -39.4 93.8 -40.05 93.85 -40.75
M 92.4 -43
L 92.35 -41.55 90.05 -40.55 89.85 -40.9
Q 89.3 -40.55 89.3 -40.25
L 89.4 -40 90.35 -39.75 92.3 -40.05 92.2 -39
Q 92.15 -37.65 92.9 -36.6 91.9 -37.3 90.85 -37.3
L 90.45 -37 92.3 -35.4 91.55 -34.1
Q 91.2 -35.1 90.15 -35.95 88.6 -37.2 88.6 -40
L 88.8 -41.9 90.2 -42.9 92.4 -43
M 86.9 -40.5
L 87.35 -40.8 87.05 -39
Q 86.7 -36.35 88.25 -35.35 89.6 -34.45 89.9 -33.45
L 88.8 -33.6
Q 84.8 -33.85 83.55 -35.8
L 83.95 -36.4
Q 83.85 -36.75 83.15 -36.75 84.15 -38.5 86.9 -40.5
M 90 -32
L 89.45 -31.45 86.7 -29.1 86.05 -29.25 85.9 -30.55 86.15 -31.25 85.35 -31.8 85.2 -32.1
Q 84.3 -33.65 82.9 -33.95
L 82.95 -34.55 83 -34.7
Q 84.2 -33.25 86.85 -33.25
L 89.95 -33.05 89.95 -33 90 -32
M 82.5 -27.15
L 82.6 -28.15
Q 83.25 -24.6 87.45 -24.5 85.7 -24 83.65 -22.45
L 83.55 -23.2
Q 83.2 -26.4 82.5 -27.15
M 84.05 -30.45
L 84.6 -28.75
Q 84.65 -27.3 86.6 -27.1
L 88.9 -27 89.8 -26.05
Q 88.45 -25.5 86.45 -25.5 83.1 -25.5 82.75 -29.5
L 82.7 -30.75 84.05 -30.45
M 90.85 -27.25
Q 90.2 -28.15 88.3 -28.7 90.6 -30.3 92.1 -32.2
L 92.4 -30.65
Q 92.45 -28.2 91.15 -26.9
L 90.85 -27.25
M 92.35 -32.55
L 93.5 -34.35
Q 96.05 -31.95 96.05 -30.9 96.05 -30.45 93.05 -28.1
L 93.05 -28.5 93.3 -30.5
Q 93.3 -31.8 92.35 -32.55
M 94.25 -26.35
L 95.1 -26.3 92.05 -24.45 91.55 -24.05 91.35 -24.05 91.65 -24.35 92.25 -24.9 94.25 -26.35
M 98.15 -23.8
L 97.45 -20.75 95.1 -20.3 92.45 -19.6 91.4 -20.25
Q 90.95 -20.6 90.65 -21.6
L 92.6 -23.35
Q 95.1 -25.35 97.75 -25.95 98.15 -25.2 98.15 -23.8
M 93.6 -18.95
L 93.8 -19.05 97.3 -19.7 97.15 -18 97.2 -17.45 95.8 -17.7 94.75 -18.35 93.6 -18.95
M 93.5 -17.65
L 93.1 -17.65 91.85 -17.8 92.6 -17.95 93.45 -17.7 93.5 -17.65
M 91.85 -18.25
L 92.15 -18.1 91.6 -18.1 91.85 -18.25
M 92.7 -16.1
L 92.65 -16.5
Q 93.5 -16.4 95 -14.8 95.15 -13.3 96.25 -11.1 94.1 -12.05 91.75 -12.05
L 90.35 -12 89.45 -12.05 89.3 -12.45 89.3 -12.5
Q 91.05 -13.8 92.7 -16.1
M 97.8 -13.75
L 96.9 -15.35 96.85 -15.55 97.7 -15.3 98.4 -14.05 99.8 -12.25
Q 98.65 -12.75 97.8 -13.75
M 90.65 -23.25
L 90.35 -22.95 90.3 -23.05 90.5 -23.25 90.65 -23.25
M 88.05 -22.75
L 88 -22.35 86.4 -20.85 84.15 -18.65 83.8 -21.05 83.85 -21.1
Q 85.65 -22.2 88.05 -22.75
M 87.15 -19.75
L 88.25 -20.95 88.7 -20.45 88.6 -19.8
Q 88.6 -18.85 88.95 -18.45
L 89.75 -17.8
Q 86.85 -17.7 84.65 -16.6
L 84.45 -17.25 87.15 -19.75
M 90.05 -19.25
Q 89.6 -19.55 89.6 -19.85
L 89.6 -19.9 90.05 -19.25
M 88.9 -21.6
L 89 -21.25 88.8 -20.8 88.6 -21.3 88.9 -21.6
M 82.35 -22.3
L 82.1 -22.4 81.75 -23.45 82.4 -26.3 82.35 -22.3
M 84.05 -16.85
L 84.45 -16.5 83 -15.6 82.7 -15.6 84.05 -16.85
M 84.35 -13.55
L 84.35 -13.5
Q 83.8 -12.95 83.8 -12.55
L 83.8 -12.3 83.7 -12.3 83.65 -12.6 84.05 -13.45 84.35 -13.55
M 85.25 -15.25
L 85.1 -15.35
Q 87.9 -16.5 92.45 -16.5
L 89.75 -14.55 88.75 -13.95
Q 88 -15.5 87.1 -15.5
L 85.25 -15.25
M 90.15 -7.6
L 90.15 -7.85 89.7 -11
Q 94 -11.2 96 -9.9 97.35 -9 98.6 -7
L 99.05 -6.5
Q 92.9 -6.6 90.15 -7.6 Z"/>
</g>

<g id="Symbol_68_0_Layer0_0_FILL">
<path fill="#663300" stroke="none" d="
M 236.55 -74.25
L 0 -74.25 0 74.3 236.55 74.3 236.55 -74.25
M 11.95 -62.7
L 224.6 -62.7 224.6 62.5 11.95 62.5 11.95 -62.7 Z"/>
</g>

<path id="Symbol_67_0_Layer0_0_1_STROKES" stroke="#000000" stroke-opacity="0.4980392156862745" stroke-width="1" stroke-linejoin="round" stroke-linecap="round" fill="none" d="
M -60 -30
L -14.75 -48.25 30 -30"/>
</defs>

<g transform="matrix( 1, 0, 0, 1, 0,0) ">
<g transform="matrix( 1, 0, 0, 1, 0,0) ">
<use xlink:href="#Symbol_67_0_Layer1_0_FILL"/>
</g>

<g transform="matrix( 1, 0, 0, 1, 0,0) ">
<use xlink:href="#Symbol_67_0_Layer0_0_1_STROKES"/>
</g>
</g>

<g transform="matrix( 0.38043212890625, 0, 0, 0.404022216796875, -60,0) ">
<g transform="matrix( 1, 0, 0, 1, 0,0) ">
<g transform="matrix( 1, 0, 0, 1, 0,0) ">
<use xlink:href="#Symbol_68_0_Layer3_0_FILL"/>
</g>

<g transform="matrix( 1, 0, 0, 1, 0,0) ">
<use xlink:href="#Symbol_68_0_Layer2_0_FILL"/>
</g>

<g transform="matrix( 1, 0, 0, 1, 0,0) ">
<use xlink:href="#Symbol_68_0_Layer1_0_FILL"/>
</g>

<g transform="matrix( 1, 0, 0, 1, 0,0) ">
<use xlink:href="#Symbol_68_0_Layer0_0_FILL"/>
</g>
</g>
</g>
</svg>
