
<svg xmlns="http://www.w3.org/2000/svg" version="1.1" xmlns:xlink="http://www.w3.org/1999/xlink" preserveAspectRatio="none" x="0px" y="0px" width="168.85px" height="188.95px" viewBox="-171.9 -221.55 168.85 188.95">
<defs>
<g id="Layer0_0_FILL">
<path fill="#000000" stroke="none" d="
M -4.9 -32.8
L -4.9 -34.3 -6.4 -34.3 -6.4 -32.8 -4.9 -32.8
M -18.5 -38.75
Q -18.35 -38.35 -18.35 -37.55
L -18.35 -32.8 -17.05 -32.8 -17.05 -37.6
Q -17.05 -38.5 -17.1 -38.85 -17.25 -39.45 -17.5 -39.85 -17.8 -40.25 -18.4 -40.5 -19 -40.75 -19.7 -40.75 -21.3 -40.75 -22.15 -39.45
L -22.15 -40.6 -23.35 -40.6 -23.35 -32.8 -22.05 -32.8 -22.05 -37.05
Q -22.05 -38.55 -21.45 -39.1 -20.8 -39.6 -20 -39.6 -19.45 -39.6 -19.05 -39.35 -18.65 -39.15 -18.5 -38.75
M -10.1 -43.55
L -10.1 -39.7
Q -10.45 -40.15 -11 -40.45 -11.55 -40.75 -12.25 -40.75 -13.2 -40.75 -14 -40.25 -14.75 -39.75 -15.15 -38.8 -15.55 -37.85 -15.55 -36.7 -15.55 -35.5 -15.1 -34.55 -14.7 -33.65 -13.9 -33.15 -13.1 -32.6 -12.2 -32.6 -10.75 -32.6 -10 -33.8
L -10 -32.8 -8.8 -32.8 -8.8 -43.55 -10.1 -43.55
M -13.6 -38.95
Q -13 -39.65 -12.1 -39.65 -11.2 -39.65 -10.6 -38.9 -10 -38.15 -10 -36.55 -10 -35.1 -10.6 -34.4 -11.2 -33.7 -12.05 -33.7 -12.9 -33.7 -13.55 -34.45 -14.2 -35.2 -14.2 -36.7 -14.2 -38.25 -13.6 -38.95
M -28.35 -40.75
Q -29.4 -40.75 -30.15 -40.5 -30.9 -40.2 -31.3 -39.7 -31.7 -39.2 -31.9 -38.35
L -30.6 -38.2
Q -30.4 -39 -29.95 -39.35 -29.5 -39.65 -28.55 -39.65 -27.55 -39.65 -27.05 -39.2 -26.7 -38.9 -26.7 -38.1
L -26.7 -37.75
Q -27.45 -37.45 -29.05 -37.3
L -30.2 -37.1
Q -30.75 -36.95 -31.15 -36.65 -31.6 -36.35 -31.85 -35.9 -32.1 -35.4 -32.1 -34.85 -32.1 -33.9 -31.4 -33.25 -30.75 -32.6 -29.45 -32.6 -28.65 -32.6 -28 -32.9 -27.3 -33.15 -26.6 -33.75 -26.55 -33.2 -26.3 -32.8
L -24.95 -32.8
Q -25.2 -33.25 -25.25 -33.75 -25.35 -34.2 -25.35 -36.05
L -25.35 -37.8
Q -25.35 -38.7 -25.45 -39.05 -25.55 -39.55 -25.85 -39.95 -26.15 -40.3 -26.75 -40.5 -27.4 -40.75 -28.35 -40.75
M -30.7 -34.9
Q -30.7 -35.25 -30.5 -35.5 -30.35 -35.8 -30 -35.95 -29.65 -36.1 -28.85 -36.2 -27.4 -36.4 -26.7 -36.7
L -26.7 -36.2
Q -26.7 -35.35 -26.9 -34.9 -27.2 -34.3 -27.8 -34 -28.35 -33.65 -29.15 -33.65 -29.9 -33.65 -30.3 -34 -30.7 -34.35 -30.7 -34.9
M -35.55 -42.5
L -35.55 -40.6 -36.55 -40.6 -36.55 -39.55 -35.55 -39.55 -35.55 -35.1
Q -35.55 -33.9 -35.4 -33.5 -35.25 -33.15 -34.85 -32.9 -34.45 -32.7 -33.75 -32.7 -33.3 -32.7 -32.75 -32.8
L -32.95 -34 -33.5 -33.95
Q -33.8 -33.95 -33.95 -34 -34.1 -34.1 -34.2 -34.3 -34.25 -34.45 -34.25 -35
L -34.25 -39.55 -32.95 -39.55 -32.95 -40.6 -34.25 -40.6 -34.25 -43.3 -35.55 -42.5
M -68.2 -40.5
Q -68.8 -40.75 -69.5 -40.75 -71.1 -40.75 -71.95 -39.45
L -71.95 -40.6 -73.15 -40.6 -73.15 -32.8 -71.85 -32.8 -71.85 -37.05
Q -71.85 -38.55 -71.25 -39.1 -70.6 -39.6 -69.8 -39.6 -69.25 -39.6 -68.85 -39.35 -68.45 -39.15 -68.3 -38.75 -68.15 -38.35 -68.15 -37.55
L -68.15 -32.8 -66.85 -32.8 -66.85 -37.6
Q -66.85 -38.5 -66.9 -38.85 -67.05 -39.45 -67.3 -39.85 -67.6 -40.25 -68.2 -40.5
M -50.8 -39.7
Q -51.8 -40.75 -53.35 -40.75 -55 -40.75 -56 -39.65 -57 -38.6 -57 -36.6 -57 -34.75 -56 -33.65 -55 -32.6 -53.3 -32.6 -51.95 -32.6 -51.05 -33.3 -50.2 -33.95 -49.85 -35.15
L -51.25 -35.3
Q -51.55 -34.45 -52.05 -34.1 -52.55 -33.7 -53.3 -33.7 -54.25 -33.7 -54.9 -34.4 -55.55 -35.05 -55.65 -36.35
L -49.85 -36.35 -49.85 -36.7
Q -49.85 -38.65 -50.8 -39.7
M -54.9 -39.05
Q -54.25 -39.65 -53.35 -39.65 -52.35 -39.65 -51.7 -38.9 -51.3 -38.4 -51.2 -37.45
L -55.55 -37.45
Q -55.5 -38.45 -54.9 -39.05
M -58.6 -43.55
L -59.9 -43.55 -59.9 -39.7
Q -60.25 -40.15 -60.8 -40.45 -61.35 -40.75 -62.05 -40.75 -63 -40.75 -63.8 -40.25 -64.55 -39.75 -64.95 -38.8 -65.35 -37.85 -65.35 -36.7 -65.35 -35.5 -64.9 -34.55 -64.5 -33.65 -63.7 -33.15 -62.9 -32.6 -62 -32.6 -60.55 -32.6 -59.8 -33.8
L -59.8 -32.8 -58.6 -32.8 -58.6 -43.55
M -59.8 -36.55
Q -59.8 -35.1 -60.4 -34.4 -61 -33.7 -61.85 -33.7 -62.7 -33.7 -63.35 -34.45 -64 -35.2 -64 -36.7 -64 -38.25 -63.4 -38.95 -62.8 -39.65 -61.9 -39.65 -61 -39.65 -60.4 -38.9 -59.8 -38.15 -59.8 -36.55
M -40.75 -40.75
Q -41.35 -40.75 -41.9 -40.6 -42.4 -40.45 -42.75 -40.2 -43.15 -39.9 -43.4 -39.45 -43.6 -39.05 -43.6 -38.5 -43.6 -37.95 -43.35 -37.45 -43.05 -37 -42.5 -36.75 -41.9 -36.45 -40.45 -36.1 -39.4 -35.8 -39.1 -35.65 -38.75 -35.4 -38.75 -34.95 -38.75 -34.45 -39.15 -34.05 -39.6 -33.7 -40.5 -33.7 -41.4 -33.7 -41.9 -34.15 -42.4 -34.55 -42.55 -35.35
L -43.85 -35.1
Q -43.6 -33.9 -42.8 -33.25 -42.05 -32.6 -40.5 -32.6 -39.6 -32.6 -38.85 -32.95 -38.15 -33.25 -37.75 -33.85 -37.4 -34.45 -37.4 -35.1 -37.4 -35.75 -37.7 -36.2 -38 -36.65 -38.55 -36.9 -39.1 -37.15 -40.5 -37.5
L -41.7 -37.85
Q -42 -38 -42.2 -38.2 -42.35 -38.4 -42.35 -38.65 -42.35 -39.05 -41.95 -39.35 -41.55 -39.65 -40.65 -39.65 -39.9 -39.65 -39.45 -39.35 -39.05 -39 -38.95 -38.4
L -37.65 -38.55
Q -37.8 -39.35 -38.15 -39.75 -38.45 -40.25 -39.15 -40.5 -39.85 -40.75 -40.75 -40.75
M -47.1 -40.6
L -48.3 -40.6 -48.3 -32.8 -46.95 -32.8 -46.95 -36.85
Q -46.95 -37.7 -46.75 -38.4 -46.6 -38.85 -46.25 -39.15 -45.9 -39.4 -45.45 -39.4 -45 -39.4 -44.5 -39.1
L -44.05 -40.35
Q -44.75 -40.75 -45.4 -40.75 -45.85 -40.75 -46.25 -40.5 -46.65 -40.25 -47.1 -39.4
L -47.1 -40.6
M -90.9 -32.8
L -90.9 -43.55 -92.25 -43.55 -92.25 -32.8 -90.9 -32.8
M -81.5 -35.75
Q -81.5 -34.9 -81.4 -34.55 -81.3 -33.95 -81 -33.55 -80.7 -33.15 -80.1 -32.9 -79.5 -32.6 -78.85 -32.6 -77.25 -32.6 -76.35 -33.95
L -76.35 -32.8 -75.2 -32.8 -75.2 -40.6 -76.5 -40.6 -76.5 -36.4
Q -76.5 -35.4 -76.7 -34.9 -76.95 -34.35 -77.45 -34.05 -77.95 -33.75 -78.55 -33.75 -79.15 -33.75 -79.55 -34.05 -79.95 -34.35 -80.1 -34.85 -80.15 -35.25 -80.15 -36.25
L -80.15 -40.6 -81.5 -40.6 -81.5 -35.75
M -87.6 -43.55
L -88.95 -43.55 -88.95 -32.8 -87.6 -32.8 -87.6 -43.55
M -99.45 -38.2
Q -99.25 -39 -98.8 -39.35 -98.35 -39.65 -97.4 -39.65 -96.4 -39.65 -95.9 -39.2 -95.55 -38.9 -95.55 -38.1
L -95.55 -37.75
Q -96.3 -37.45 -97.9 -37.3
L -99.05 -37.1
Q -99.6 -36.95 -100 -36.65 -100.45 -36.35 -100.7 -35.9 -100.95 -35.4 -100.95 -34.85 -100.95 -33.9 -100.25 -33.25 -99.6 -32.6 -98.3 -32.6 -97.5 -32.6 -96.85 -32.9 -96.15 -33.15 -95.45 -33.75 -95.4 -33.2 -95.15 -32.8
L -93.8 -32.8
Q -94.05 -33.25 -94.1 -33.75 -94.2 -34.2 -94.2 -36.05
L -94.2 -37.8
Q -94.2 -38.7 -94.3 -39.05 -94.4 -39.55 -94.7 -39.95 -95 -40.3 -95.6 -40.5 -96.25 -40.75 -97.2 -40.75 -98.25 -40.75 -99 -40.5 -99.75 -40.2 -100.15 -39.7 -100.55 -39.2 -100.75 -38.35
L -99.45 -38.2
M -95.55 -36.7
L -95.55 -36.2
Q -95.55 -35.35 -95.75 -34.9 -96.05 -34.3 -96.65 -34 -97.2 -33.65 -98 -33.65 -98.75 -33.65 -99.15 -34 -99.55 -34.35 -99.55 -34.9 -99.55 -35.25 -99.35 -35.5 -99.2 -35.8 -98.85 -35.95 -98.5 -36.1 -97.7 -36.2 -96.25 -36.4 -95.55 -36.7
M -111.05 -39.1
Q -110.4 -39.6 -109.6 -39.6 -109.05 -39.6 -108.65 -39.35 -108.25 -39.15 -108.1 -38.75 -107.95 -38.35 -107.95 -37.55
L -107.95 -32.8 -106.65 -32.8 -106.65 -37.6
Q -106.65 -38.5 -106.7 -38.85 -106.85 -39.45 -107.1 -39.85 -107.4 -40.25 -108 -40.5 -108.6 -40.75 -109.3 -40.75 -110.9 -40.75 -111.75 -39.45
L -111.75 -40.6 -112.95 -40.6 -112.95 -32.8 -111.65 -32.8 -111.65 -37.05
Q -111.65 -38.55 -111.05 -39.1
M -118.15 -39.65
Q -117.15 -39.65 -116.65 -39.2 -116.3 -38.9 -116.3 -38.1
L -116.3 -37.75
Q -117.05 -37.45 -118.65 -37.3
L -119.8 -37.1
Q -120.35 -36.95 -120.75 -36.65 -121.2 -36.35 -121.45 -35.9 -121.7 -35.4 -121.7 -34.85 -121.7 -33.9 -121 -33.25 -120.35 -32.6 -119.05 -32.6 -118.25 -32.6 -117.6 -32.9 -116.9 -33.15 -116.2 -33.75 -116.15 -33.2 -115.9 -32.8
L -114.55 -32.8
Q -114.8 -33.25 -114.85 -33.75 -114.95 -34.2 -114.95 -36.05
L -114.95 -37.8
Q -114.95 -38.7 -115.05 -39.05 -115.15 -39.55 -115.45 -39.95 -115.75 -40.3 -116.35 -40.5 -117 -40.75 -117.95 -40.75 -119 -40.75 -119.75 -40.5 -120.5 -40.2 -120.9 -39.7 -121.3 -39.2 -121.5 -38.35
L -120.2 -38.2
Q -120 -39 -119.55 -39.35 -119.1 -39.65 -118.15 -39.65
M -116.3 -36.7
L -116.3 -36.2
Q -116.3 -35.35 -116.5 -34.9 -116.8 -34.3 -117.4 -34 -117.95 -33.65 -118.75 -33.65 -119.5 -33.65 -119.9 -34 -120.3 -34.35 -120.3 -34.9 -120.3 -35.25 -120.1 -35.5 -119.95 -35.8 -119.6 -35.95 -119.25 -36.1 -118.45 -36.2 -117 -36.4 -116.3 -36.7
M -7.4 -58.55
Q -9.05 -58.55 -10.05 -57.45 -11.05 -56.4 -11.05 -54.4 -11.05 -52.55 -10.05 -51.45 -9.05 -50.4 -7.35 -50.4 -6 -50.4 -5.1 -51.1 -4.25 -51.75 -3.9 -52.95
L -5.3 -53.1
Q -5.6 -52.25 -6.1 -51.9 -6.6 -51.5 -7.35 -51.5 -8.3 -51.5 -8.95 -52.2 -9.6 -52.85 -9.7 -54.15
L -3.9 -54.15 -3.9 -54.5
Q -3.9 -56.45 -4.85 -57.5 -5.85 -58.55 -7.4 -58.55
M -7.4 -57.45
Q -6.4 -57.45 -5.75 -56.7 -5.35 -56.2 -5.25 -55.25
L -9.6 -55.25
Q -9.55 -56.25 -8.95 -56.85 -8.3 -57.45 -7.4 -57.45
M -12.55 -56.6
Q -12.95 -57.55 -13.7 -58.05 -14.45 -58.55 -15.45 -58.55 -16.2 -58.55 -16.75 -58.25 -17.3 -57.95 -17.7 -57.35
L -17.7 -58.4 -18.9 -58.4 -18.9 -47.6 -17.6 -47.6 -17.6 -51.4
Q -17.25 -51 -16.75 -50.7 -16.2 -50.4 -15.55 -50.4 -14.65 -50.4 -13.85 -50.95 -13 -51.45 -12.6 -52.4 -12.15 -53.35 -12.15 -54.55 -12.15 -55.65 -12.55 -56.6
M -17.05 -56.75
Q -16.4 -57.5 -15.6 -57.5 -14.75 -57.5 -14.1 -56.8 -13.5 -56.05 -13.5 -54.55 -13.5 -53 -14.15 -52.25 -14.75 -51.5 -15.65 -51.5 -16.5 -51.5 -17.1 -52.25 -17.7 -52.95 -17.7 -54.45 -17.7 -55.95 -17.05 -56.75
M -21.45 -57.5
Q -22.45 -58.55 -24.05 -58.55 -25.5 -58.55 -26.5 -57.7 -27.7 -56.65 -27.7 -54.5 -27.7 -52.5 -26.7 -51.45 -25.7 -50.4 -24.05 -50.4 -23.05 -50.4 -22.15 -50.9 -21.3 -51.4 -20.85 -52.25 -20.4 -53.1 -20.4 -54.6 -20.4 -56.45 -21.45 -57.5
M -24.05 -57.45
Q -23.1 -57.45 -22.4 -56.7 -21.75 -56 -21.75 -54.55 -21.75 -53 -22.4 -52.25 -23.05 -51.5 -24.05 -51.5 -25.05 -51.5 -25.7 -52.25 -26.35 -53 -26.35 -54.5 -26.35 -56 -25.7 -56.7 -25.05 -57.45 -24.05 -57.45
M -146.9 -40.6
L -148.25 -40.6 -149.9 -34.4 -151.6 -40.6 -152.95 -40.6 -150.6 -32.8 -149.2 -32.8 -147.6 -38.8 -146.1 -32.8 -144.7 -32.8 -142.3 -40.6 -143.55 -40.6 -145.35 -34.6 -146.9 -40.6
M -138 -40.75
Q -139.65 -40.75 -140.65 -39.65 -141.65 -38.6 -141.65 -36.6 -141.65 -34.75 -140.65 -33.65 -139.65 -32.6 -137.95 -32.6 -136.6 -32.6 -135.7 -33.3 -134.85 -33.95 -134.5 -35.15
L -135.9 -35.3
Q -136.2 -34.45 -136.7 -34.1 -137.2 -33.7 -137.95 -33.7 -138.9 -33.7 -139.55 -34.4 -140.2 -35.05 -140.3 -36.35
L -134.5 -36.35 -134.5 -36.7
Q -134.5 -38.65 -135.45 -39.7 -136.45 -40.75 -138 -40.75
M -140.2 -37.45
Q -140.15 -38.45 -139.55 -39.05 -138.9 -39.65 -138 -39.65 -137 -39.65 -136.35 -38.9 -135.95 -38.4 -135.85 -37.45
L -140.2 -37.45
M -127.2 -38.95
Q -126.55 -39.65 -125.55 -39.65 -124.9 -39.65 -124.45 -39.25 -124 -38.9 -123.8 -38.1
L -122.5 -38.3
Q -122.75 -39.45 -123.55 -40.1 -124.35 -40.75 -125.6 -40.75 -126.6 -40.75 -127.45 -40.3 -128.35 -39.8 -128.75 -38.85 -129.15 -37.9 -129.15 -36.65 -129.15 -34.7 -128.2 -33.65 -127.2 -32.6 -125.65 -32.6 -124.35 -32.6 -123.45 -33.4 -122.6 -34.15 -122.4 -35.5
L -123.7 -35.65
Q -123.8 -34.65 -124.35 -34.2 -124.85 -33.7 -125.65 -33.7 -126.6 -33.7 -127.2 -34.4 -127.8 -35.15 -127.8 -36.7 -127.8 -38.25 -127.2 -38.95
M -42 -50.6
L -42 -61.35 -43.4 -61.35 -43.4 -50.6 -42 -50.6
M -51.8 -61.35
L -51.4 -53.25 -50.55 -53.25 -50.2 -61.35 -51.8 -61.35
M -51.75 -52.1
L -51.75 -50.6 -50.25 -50.6 -50.25 -52.1 -51.75 -52.1
M -55.55 -53.25
L -54.7 -53.25 -54.35 -61.35 -55.95 -61.35 -55.55 -53.25
M -60.05 -52.1
L -60.05 -50.6 -58.55 -50.6 -58.55 -52.1 -60.05 -52.1
M -55.9 -52.1
L -55.9 -50.6 -54.4 -50.6 -54.4 -52.1 -55.9 -52.1
M -58.5 -61.35
L -60.1 -61.35 -59.7 -53.25 -58.85 -53.25 -58.5 -61.35
M -61.55 -58.4
L -62.85 -58.4 -64.5 -53.85
Q -64.85 -53 -65.05 -52.05 -65.3 -53 -65.6 -53.85
L -67.25 -58.4 -68.65 -58.4 -65.7 -50.6 -65.8 -50.25 -66.25 -49.3
Q -66.4 -49 -66.65 -48.85 -66.9 -48.7 -67.35 -48.7 -67.7 -48.7 -68.1 -48.85
L -67.95 -47.6
Q -67.5 -47.45 -67.1 -47.45 -66.5 -47.45 -66.05 -47.75 -65.6 -48.05 -65.25 -48.7 -64.95 -49.2 -64.5 -50.45
L -61.55 -58.4
M -75.8 -56.95
Q -75.45 -57.2 -75 -57.2 -74.55 -57.2 -74.05 -56.9
L -73.6 -58.15
Q -74.3 -58.55 -74.95 -58.55 -75.4 -58.55 -75.8 -58.3 -76.2 -58.05 -76.65 -57.2
L -76.65 -58.4 -77.85 -58.4 -77.85 -50.6 -76.5 -50.6 -76.5 -54.65
Q -76.5 -55.5 -76.3 -56.2 -76.15 -56.65 -75.8 -56.95
M -71.7 -58.4
L -72.9 -58.4 -72.9 -50.6 -71.55 -50.6 -71.55 -54.65
Q -71.55 -55.5 -71.35 -56.2 -71.2 -56.65 -70.85 -56.95 -70.5 -57.2 -70.05 -57.2 -69.6 -57.2 -69.1 -56.9
L -68.65 -58.15
Q -69.35 -58.55 -70 -58.55 -70.45 -58.55 -70.85 -58.3 -71.25 -58.05 -71.7 -57.2
L -71.7 -58.4
M -33.95 -56.3
Q -33.75 -56.8 -33.25 -57.1 -32.7 -57.4 -32.15 -57.4 -31.35 -57.4 -30.9 -56.95 -30.5 -56.5 -30.5 -55.55
L -30.5 -50.6 -29.2 -50.6 -29.2 -55.55
Q -29.2 -56.65 -29.45 -57.25 -29.75 -57.85 -30.35 -58.2 -31 -58.55 -31.85 -58.55 -33.25 -58.55 -34.2 -57.5
L -34.2 -61.35 -35.5 -61.35 -35.5 -50.6 -34.2 -50.6 -34.2 -54.85
Q -34.2 -55.75 -33.95 -56.3
M -82.95 -58.55
Q -84.4 -58.55 -85.4 -57.7 -86.6 -56.65 -86.6 -54.5 -86.6 -52.5 -85.6 -51.45 -84.6 -50.4 -82.95 -50.4 -81.95 -50.4 -81.05 -50.9 -80.2 -51.4 -79.75 -52.25 -79.3 -53.1 -79.3 -54.6 -79.3 -56.45 -80.35 -57.5 -81.35 -58.55 -82.95 -58.55
M -82.95 -57.45
Q -82 -57.45 -81.3 -56.7 -80.65 -56 -80.65 -54.55 -80.65 -53 -81.3 -52.25 -81.95 -51.5 -82.95 -51.5 -83.95 -51.5 -84.6 -52.25 -85.25 -53 -85.25 -54.5 -85.25 -56 -84.6 -56.7 -83.95 -57.45 -82.95 -57.45
M -93.7 -57.25
Q -93.9 -56.85 -93.9 -56.3 -93.9 -55.75 -93.65 -55.25 -93.35 -54.8 -92.8 -54.55 -92.2 -54.25 -90.75 -53.9 -89.7 -53.6 -89.4 -53.45 -89.05 -53.2 -89.05 -52.75 -89.05 -52.25 -89.45 -51.85 -89.9 -51.5 -90.8 -51.5 -91.7 -51.5 -92.2 -51.95 -92.7 -52.35 -92.85 -53.15
L -94.15 -52.9
Q -93.9 -51.7 -93.1 -51.05 -92.35 -50.4 -90.8 -50.4 -89.9 -50.4 -89.15 -50.75 -88.45 -51.05 -88.05 -51.65 -87.7 -52.25 -87.7 -52.9 -87.7 -53.55 -88 -54 -88.3 -54.45 -88.85 -54.7 -89.4 -54.95 -90.8 -55.3
L -92 -55.65
Q -92.3 -55.8 -92.5 -56 -92.65 -56.2 -92.65 -56.45 -92.65 -56.85 -92.25 -57.15 -91.85 -57.45 -90.95 -57.45 -90.2 -57.45 -89.75 -57.15 -89.35 -56.8 -89.25 -56.2
L -87.95 -56.35
Q -88.1 -57.15 -88.45 -57.55 -88.75 -58.05 -89.45 -58.3 -90.15 -58.55 -91.05 -58.55 -91.65 -58.55 -92.2 -58.4 -92.7 -58.25 -93.05 -58 -93.45 -57.7 -93.7 -57.25
M -107.25 -61.35
L -108.6 -61.35 -108.6 -50.6 -107.25 -50.6 -107.25 -61.35
M -104.6 -58.4
L -106 -58.4 -103.05 -50.6 -103.15 -50.25 -103.6 -49.3
Q -103.75 -49 -104 -48.85 -104.25 -48.7 -104.7 -48.7 -105.05 -48.7 -105.45 -48.85
L -105.3 -47.6
Q -104.85 -47.45 -104.45 -47.45 -103.85 -47.45 -103.4 -47.75 -102.95 -48.05 -102.6 -48.7 -102.3 -49.2 -101.85 -50.45
L -98.9 -58.4 -100.2 -58.4 -101.85 -53.85
Q -102.2 -53 -102.4 -52.05 -102.65 -53 -102.95 -53.85
L -104.6 -58.4
M -111.9 -61.35
L -111.9 -50.6 -110.55 -50.6 -110.55 -61.35 -111.9 -61.35
M -115.55 -57
Q -115.2 -56.7 -115.2 -55.9
L -115.2 -55.55
Q -115.95 -55.25 -117.55 -55.1
L -118.7 -54.9
Q -119.25 -54.75 -119.65 -54.45 -120.1 -54.15 -120.35 -53.7 -120.6 -53.2 -120.6 -52.65 -120.6 -51.7 -119.9 -51.05 -119.25 -50.4 -117.95 -50.4 -117.15 -50.4 -116.5 -50.7 -115.8 -50.95 -115.1 -51.55 -115.05 -51 -114.8 -50.6
L -113.45 -50.6
Q -113.7 -51.05 -113.75 -51.55 -113.85 -52 -113.85 -53.85
L -113.85 -55.6
Q -113.85 -56.5 -113.95 -56.85 -114.05 -57.35 -114.35 -57.75 -114.65 -58.1 -115.25 -58.3 -115.9 -58.55 -116.85 -58.55 -117.9 -58.55 -118.65 -58.3 -119.4 -58 -119.8 -57.5 -120.2 -57 -120.4 -56.15
L -119.1 -56
Q -118.9 -56.8 -118.45 -57.15 -118 -57.45 -117.05 -57.45 -116.05 -57.45 -115.55 -57
M -118.5 -53.75
Q -118.15 -53.9 -117.35 -54 -115.9 -54.2 -115.2 -54.5
L -115.2 -54
Q -115.2 -53.15 -115.4 -52.7 -115.7 -52.1 -116.3 -51.8 -116.85 -51.45 -117.65 -51.45 -118.4 -51.45 -118.8 -51.8 -119.2 -52.15 -119.2 -52.7 -119.2 -53.05 -119 -53.3 -118.85 -53.6 -118.5 -53.75
M -6.45 -68.4
L -4.95 -68.4 -4.95 -69.9 -6.45 -69.9 -6.45 -68.4
M -25.15 -75.3
Q -26.15 -76.35 -27.7 -76.35 -29.35 -76.35 -30.35 -75.25 -31.35 -74.2 -31.35 -72.2 -31.35 -70.35 -30.35 -69.25 -29.35 -68.2 -27.65 -68.2 -26.3 -68.2 -25.4 -68.9 -24.55 -69.55 -24.2 -70.75
L -25.6 -70.9
Q -25.9 -70.05 -26.4 -69.7 -26.9 -69.3 -27.65 -69.3 -28.6 -69.3 -29.25 -70 -29.9 -70.65 -30 -71.95
L -24.2 -71.95 -24.2 -72.3
Q -24.2 -74.25 -25.15 -75.3
M -27.7 -75.25
Q -26.7 -75.25 -26.05 -74.5 -25.65 -74 -25.55 -73.05
L -29.9 -73.05
Q -29.85 -74.05 -29.25 -74.65 -28.6 -75.25 -27.7 -75.25
M -32 -76.2
L -33.25 -76.2 -35.05 -70.2 -36.6 -76.2 -37.95 -76.2 -39.6 -70 -41.3 -76.2 -42.65 -76.2 -40.3 -68.4 -38.9 -68.4 -37.3 -74.4 -35.8 -68.4 -34.4 -68.4 -32 -76.2
M -13 -79.15
L -14.3 -79.15 -14.3 -68.4 -13 -68.4 -13 -71.5 -12.05 -72.4 -9.5 -68.4 -7.85 -68.4 -11.15 -73.3 -8.15 -76.2 -9.85 -76.2 -13 -73 -13 -79.15
M -16.85 -75.3
Q -17.85 -76.35 -19.4 -76.35 -21.05 -76.35 -22.05 -75.25 -23.05 -74.2 -23.05 -72.2 -23.05 -70.35 -22.05 -69.25 -21.05 -68.2 -19.35 -68.2 -18 -68.2 -17.1 -68.9 -16.25 -69.55 -15.9 -70.75
L -17.3 -70.9
Q -17.6 -70.05 -18.1 -69.7 -18.6 -69.3 -19.35 -69.3 -20.3 -69.3 -20.95 -70 -21.6 -70.65 -21.7 -71.95
L -15.9 -71.95 -15.9 -72.3
Q -15.9 -74.25 -16.85 -75.3
M -19.4 -75.25
Q -18.4 -75.25 -17.75 -74.5 -17.35 -74 -17.25 -73.05
L -21.6 -73.05
Q -21.55 -74.05 -20.95 -74.65 -20.3 -75.25 -19.4 -75.25
M -122.7 -57.5
Q -123.7 -58.55 -125.25 -58.55 -126.9 -58.55 -127.9 -57.45 -128.9 -56.4 -128.9 -54.4 -128.9 -52.55 -127.9 -51.45 -126.9 -50.4 -125.2 -50.4 -123.85 -50.4 -122.95 -51.1 -122.1 -51.75 -121.75 -52.95
L -123.15 -53.1
Q -123.45 -52.25 -123.95 -51.9 -124.45 -51.5 -125.2 -51.5 -126.15 -51.5 -126.8 -52.2 -127.45 -52.85 -127.55 -54.15
L -121.75 -54.15 -121.75 -54.5
Q -121.75 -56.45 -122.7 -57.5
M -125.25 -57.45
Q -124.25 -57.45 -123.6 -56.7 -123.2 -56.2 -123.1 -55.25
L -127.45 -55.25
Q -127.4 -56.25 -126.8 -56.85 -126.15 -57.45 -125.25 -57.45
M -132.25 -58.4
L -133.45 -58.4 -133.45 -50.6 -132.1 -50.6 -132.1 -54.65
Q -132.1 -55.5 -131.9 -56.2 -131.75 -56.65 -131.4 -56.95 -131.05 -57.2 -130.6 -57.2 -130.15 -57.2 -129.65 -56.9
L -129.2 -58.15
Q -129.9 -58.55 -130.55 -58.55 -131 -58.55 -131.4 -58.3 -131.8 -58.05 -132.25 -57.2
L -132.25 -58.4
M -145.05 -58.2
Q -145.6 -58.55 -146.45 -58.55 -147.25 -58.55 -147.85 -58.2 -148.45 -57.85 -148.85 -57.3
L -148.85 -58.4 -150 -58.4 -150 -50.6 -148.7 -50.6 -148.7 -54.65
Q -148.7 -55.7 -148.5 -56.25 -148.25 -56.85 -147.8 -57.1 -147.3 -57.4 -146.75 -57.4 -146.05 -57.4 -145.7 -56.95 -145.4 -56.55 -145.4 -55.65
L -145.4 -50.6 -144.05 -50.6 -144.05 -55.1
Q -144.05 -56.3 -143.55 -56.85 -143 -57.4 -142.15 -57.4 -141.7 -57.4 -141.4 -57.2 -141.05 -57 -140.9 -56.65 -140.8 -56.3 -140.8 -55.5
L -140.8 -50.6 -139.45 -50.6 -139.45 -55.95
Q -139.45 -57.25 -140.1 -57.9 -140.7 -58.55 -141.85 -58.55 -143.35 -58.55 -144.3 -57.2 -144.5 -57.85 -145.05 -58.2
M -153.2 -61.35
L -153.2 -59.55 -152.85 -57.55 -152.05 -57.55 -151.7 -59.55 -151.7 -61.35 -153.2 -61.35
M -155.2 -50.6
L -155.2 -61.35 -156.6 -61.35 -156.6 -50.6 -155.2 -50.6
M -50.85 -76.35
Q -51.9 -76.35 -52.65 -76.1 -53.4 -75.8 -53.8 -75.3 -54.2 -74.8 -54.4 -73.95
L -53.1 -73.8
Q -52.9 -74.6 -52.45 -74.95 -52 -75.25 -51.05 -75.25 -50.05 -75.25 -49.55 -74.8 -49.2 -74.5 -49.2 -73.7
L -49.2 -73.35
Q -49.95 -73.05 -51.55 -72.9
L -52.7 -72.7
Q -53.25 -72.55 -53.65 -72.25 -54.1 -71.95 -54.35 -71.5 -54.6 -71 -54.6 -70.45 -54.6 -69.5 -53.9 -68.85 -53.25 -68.2 -51.95 -68.2 -51.15 -68.2 -50.5 -68.5 -49.8 -68.75 -49.1 -69.35 -49.05 -68.8 -48.8 -68.4
L -47.45 -68.4
Q -47.7 -68.85 -47.75 -69.35 -47.85 -69.8 -47.85 -71.65
L -47.85 -73.4
Q -47.85 -74.3 -47.95 -74.65 -48.05 -75.15 -48.35 -75.55 -48.65 -75.9 -49.25 -76.1 -49.9 -76.35 -50.85 -76.35
M -49.2 -72.3
L -49.2 -71.8
Q -49.2 -70.95 -49.4 -70.5 -49.7 -69.9 -50.3 -69.6 -50.85 -69.25 -51.65 -69.25 -52.4 -69.25 -52.8 -69.6 -53.2 -69.95 -53.2 -70.5 -53.2 -70.85 -53 -71.1 -52.85 -71.4 -52.5 -71.55 -52.15 -71.7 -51.35 -71.8 -49.9 -72 -49.2 -72.3
M -68.6 -76.2
L -69.9 -76.2 -69.9 -68.4 -68.6 -68.4 -68.6 -76.2
M -68.6 -77.6
L -68.6 -79.15 -69.9 -79.15 -69.9 -77.6 -68.6 -77.6
M -77.85 -76.2
L -79.05 -76.2 -79.05 -68.4 -77.7 -68.4 -77.7 -72.45
Q -77.7 -73.3 -77.5 -74 -77.35 -74.45 -77 -74.75 -76.65 -75 -76.2 -75 -75.75 -75 -75.25 -74.7
L -74.8 -75.95
Q -75.5 -76.35 -76.15 -76.35 -76.6 -76.35 -77 -76.1 -77.4 -75.85 -77.85 -75
L -77.85 -76.2
M -60.35 -74.45
Q -60.5 -75.05 -60.75 -75.45 -61.05 -75.85 -61.65 -76.1 -62.25 -76.35 -62.95 -76.35 -64.55 -76.35 -65.4 -75.05
L -65.4 -76.2 -66.6 -76.2 -66.6 -68.4 -65.3 -68.4 -65.3 -72.65
Q -65.3 -74.15 -64.7 -74.7 -64.05 -75.2 -63.25 -75.2 -62.7 -75.2 -62.3 -74.95 -61.9 -74.75 -61.75 -74.35 -61.6 -73.95 -61.6 -73.15
L -61.6 -68.4 -60.3 -68.4 -60.3 -73.2
Q -60.3 -74.1 -60.35 -74.45
M -95.25 -69.9
L -95.25 -68.4 -94.5 -68.4
Q -94.55 -67.75 -94.75 -67.35 -94.95 -67 -95.35 -66.85
L -95 -66.3
Q -94.35 -66.55 -94.05 -67.05 -93.75 -67.55 -93.75 -68.4
L -93.75 -69.9 -95.25 -69.9
M -108.15 -75.3
Q -109.15 -76.35 -110.75 -76.35 -112.2 -76.35 -113.2 -75.5 -114.4 -74.45 -114.4 -72.3 -114.4 -70.3 -113.4 -69.25 -112.4 -68.2 -110.75 -68.2 -109.75 -68.2 -108.85 -68.7 -108 -69.2 -107.55 -70.05 -107.1 -70.9 -107.1 -72.4 -107.1 -74.25 -108.15 -75.3
M -110.75 -75.25
Q -109.8 -75.25 -109.1 -74.5 -108.45 -73.8 -108.45 -72.35 -108.45 -70.8 -109.1 -70.05 -109.75 -69.3 -110.75 -69.3 -111.75 -69.3 -112.4 -70.05 -113.05 -70.8 -113.05 -72.3 -113.05 -73.8 -112.4 -74.5 -111.75 -75.25 -110.75 -75.25
M -117.7 -76.2
L -118.9 -76.2 -118.9 -68.4 -117.55 -68.4 -117.55 -72.45
Q -117.55 -73.3 -117.35 -74 -117.2 -74.45 -116.85 -74.75 -116.5 -75 -116.05 -75 -115.6 -75 -115.1 -74.7
L -114.65 -75.95
Q -115.35 -76.35 -116 -76.35 -116.45 -76.35 -116.85 -76.1 -117.25 -75.85 -117.7 -75
L -117.7 -76.2
M -81.55 -75.3
Q -82.55 -76.35 -84.15 -76.35 -85.6 -76.35 -86.6 -75.5 -87.8 -74.45 -87.8 -72.3 -87.8 -70.3 -86.8 -69.25 -85.8 -68.2 -84.15 -68.2 -83.15 -68.2 -82.25 -68.7 -81.4 -69.2 -80.95 -70.05 -80.5 -70.9 -80.5 -72.4 -80.5 -74.25 -81.55 -75.3
M -85.8 -74.5
Q -85.15 -75.25 -84.15 -75.25 -83.2 -75.25 -82.5 -74.5 -81.85 -73.8 -81.85 -72.35 -81.85 -70.8 -82.5 -70.05 -83.15 -69.3 -84.15 -69.3 -85.15 -69.3 -85.8 -70.05 -86.45 -70.8 -86.45 -72.3 -86.45 -73.8 -85.8 -74.5
M -95.9 -76.2
L -97.15 -76.2 -98.95 -70.2 -100.5 -76.2 -101.85 -76.2 -103.5 -70 -105.2 -76.2 -106.55 -76.2 -104.2 -68.4 -102.8 -68.4 -101.2 -74.4 -99.7 -68.4 -98.3 -68.4 -95.9 -76.2
M -16.95 -93.1
Q -17.95 -94.15 -19.55 -94.15 -21 -94.15 -22 -93.3 -23.2 -92.25 -23.2 -90.1 -23.2 -88.1 -22.2 -87.05 -21.2 -86 -19.55 -86 -18.55 -86 -17.65 -86.5 -16.8 -87 -16.35 -87.85 -15.9 -88.7 -15.9 -90.2 -15.9 -92.05 -16.95 -93.1
M -17.9 -87.85
Q -18.55 -87.1 -19.55 -87.1 -20.55 -87.1 -21.2 -87.85 -21.85 -88.6 -21.85 -90.1 -21.85 -91.6 -21.2 -92.3 -20.55 -93.05 -19.55 -93.05 -18.6 -93.05 -17.9 -92.3 -17.25 -91.6 -17.25 -90.15 -17.25 -88.6 -17.9 -87.85
M -8.15 -94
L -9.45 -94 -9.45 -89.8
Q -9.45 -88.8 -9.65 -88.3 -9.9 -87.75 -10.4 -87.45 -10.9 -87.15 -11.5 -87.15 -12.1 -87.15 -12.5 -87.45 -12.9 -87.75 -13.05 -88.25 -13.1 -88.65 -13.1 -89.65
L -13.1 -94 -14.45 -94 -14.45 -89.15
Q -14.45 -88.3 -14.35 -87.95 -14.25 -87.35 -13.95 -86.95 -13.65 -86.55 -13.05 -86.3 -12.45 -86 -11.8 -86 -10.2 -86 -9.3 -87.35
L -9.3 -86.2 -8.15 -86.2 -8.15 -94
M -4.55 -94
L -4.55 -96.7 -5.85 -95.9 -5.85 -94 -6.85 -94 -6.85 -92.95 -5.85 -92.95 -5.85 -88.5
Q -5.85 -87.3 -5.7 -86.9 -5.55 -86.55 -5.15 -86.3 -4.75 -86.1 -4.05 -86.1 -3.6 -86.1 -3.05 -86.2
L -3.25 -87.4 -3.8 -87.35
Q -4.1 -87.35 -4.25 -87.4 -4.4 -87.5 -4.5 -87.7 -4.55 -87.85 -4.55 -88.4
L -4.55 -92.95 -3.25 -92.95 -3.25 -94 -4.55 -94
M -147.1 -75.3
Q -148.1 -76.35 -149.7 -76.35 -151.15 -76.35 -152.15 -75.5 -153.35 -74.45 -153.35 -72.3 -153.35 -70.3 -152.35 -69.25 -151.35 -68.2 -149.7 -68.2 -148.7 -68.2 -147.8 -68.7 -146.95 -69.2 -146.5 -70.05 -146.05 -70.9 -146.05 -72.4 -146.05 -74.25 -147.1 -75.3
M -149.7 -75.25
Q -148.75 -75.25 -148.05 -74.5 -147.4 -73.8 -147.4 -72.35 -147.4 -70.8 -148.05 -70.05 -148.7 -69.3 -149.7 -69.3 -150.7 -69.3 -151.35 -70.05 -152 -70.8 -152 -72.3 -152 -73.8 -151.35 -74.5 -150.7 -75.25 -149.7 -75.25
M -157.75 -76.2
L -157.75 -75.15 -156.75 -75.15 -156.75 -70.7
Q -156.75 -69.5 -156.6 -69.1 -156.45 -68.75 -156.05 -68.5 -155.65 -68.3 -154.95 -68.3 -154.5 -68.3 -153.95 -68.4
L -154.15 -69.6 -154.7 -69.55
Q -155 -69.55 -155.15 -69.6 -155.3 -69.7 -155.4 -69.9 -155.45 -70.05 -155.45 -70.6
L -155.45 -75.15 -154.15 -75.15 -154.15 -76.2 -155.45 -76.2 -155.45 -78.9 -156.75 -78.1 -156.75 -76.2 -157.75 -76.2
M -126.35 -75.3
Q -127.35 -76.35 -128.95 -76.35 -130.4 -76.35 -131.4 -75.5 -132.6 -74.45 -132.6 -72.3 -132.6 -70.3 -131.6 -69.25 -130.6 -68.2 -128.95 -68.2 -127.95 -68.2 -127.05 -68.7 -126.2 -69.2 -125.75 -70.05 -125.3 -70.9 -125.3 -72.4 -125.3 -74.25 -126.35 -75.3
M -128.95 -75.25
Q -128 -75.25 -127.3 -74.5 -126.65 -73.8 -126.65 -72.35 -126.65 -70.8 -127.3 -70.05 -127.95 -69.3 -128.95 -69.3 -129.95 -69.3 -130.6 -70.05 -131.25 -70.8 -131.25 -72.3 -131.25 -73.8 -130.6 -74.5 -129.95 -75.25 -128.95 -75.25
M -141.3 -75.2
Q -140.6 -75.2 -140.25 -74.75 -139.95 -74.35 -139.95 -73.45
L -139.95 -68.4 -138.6 -68.4 -138.6 -72.9
Q -138.6 -74.1 -138.1 -74.65 -137.55 -75.2 -136.7 -75.2 -136.25 -75.2 -135.95 -75 -135.6 -74.8 -135.45 -74.45 -135.35 -74.1 -135.35 -73.3
L -135.35 -68.4 -134 -68.4 -134 -73.75
Q -134 -75.05 -134.65 -75.7 -135.25 -76.35 -136.4 -76.35 -137.9 -76.35 -138.85 -75 -139.05 -75.65 -139.6 -76 -140.15 -76.35 -141 -76.35 -141.8 -76.35 -142.4 -76 -143 -75.65 -143.4 -75.1
L -143.4 -76.2 -144.55 -76.2 -144.55 -68.4 -143.25 -68.4 -143.25 -72.45
Q -143.25 -73.5 -143.05 -74.05 -142.8 -74.65 -142.35 -74.9 -141.85 -75.2 -141.3 -75.2
M -121 -75
Q -120.55 -75 -120.05 -74.7
L -119.6 -75.95
Q -120.3 -76.35 -120.95 -76.35 -121.4 -76.35 -121.8 -76.1 -122.2 -75.85 -122.65 -75
L -122.65 -76.2 -123.85 -76.2 -123.85 -68.4 -122.5 -68.4 -122.5 -72.45
Q -122.5 -73.3 -122.3 -74 -122.15 -74.45 -121.8 -74.75 -121.45 -75 -121 -75
M -28.45 -88.55
L -29.85 -88.7
Q -30.15 -87.85 -30.65 -87.5 -31.15 -87.1 -31.9 -87.1 -32.85 -87.1 -33.5 -87.8 -34.15 -88.45 -34.25 -89.75
L -28.45 -89.75 -28.45 -90.1
Q -28.45 -92.05 -29.4 -93.1 -30.4 -94.15 -31.95 -94.15 -33.6 -94.15 -34.6 -93.05 -35.6 -92 -35.6 -90 -35.6 -88.15 -34.6 -87.05 -33.6 -86 -31.9 -86 -30.55 -86 -29.65 -86.7 -28.8 -87.35 -28.45 -88.55
M -30.3 -92.3
Q -29.9 -91.8 -29.8 -90.85
L -34.15 -90.85
Q -34.1 -91.85 -33.5 -92.45 -32.85 -93.05 -31.95 -93.05 -30.95 -93.05 -30.3 -92.3
M -69.45 -87.85
Q -69 -88.7 -69 -90.2 -69 -92.05 -70.05 -93.1 -71.05 -94.15 -72.65 -94.15 -74.1 -94.15 -75.1 -93.3 -76.3 -92.25 -76.3 -90.1 -76.3 -88.1 -75.3 -87.05 -74.3 -86 -72.65 -86 -71.65 -86 -70.75 -86.5 -69.9 -87 -69.45 -87.85
M -71 -87.85
Q -71.65 -87.1 -72.65 -87.1 -73.65 -87.1 -74.3 -87.85 -74.95 -88.6 -74.95 -90.1 -74.95 -91.6 -74.3 -92.3 -73.65 -93.05 -72.65 -93.05 -71.7 -93.05 -71 -92.3 -70.35 -91.6 -70.35 -90.15 -70.35 -88.6 -71 -87.85
M -61.25 -94
L -62.55 -94 -62.55 -89.8
Q -62.55 -88.8 -62.75 -88.3 -63 -87.75 -63.5 -87.45 -64 -87.15 -64.6 -87.15 -65.2 -87.15 -65.6 -87.45 -66 -87.75 -66.15 -88.25 -66.2 -88.65 -66.2 -89.65
L -66.2 -94 -67.55 -94 -67.55 -89.15
Q -67.55 -88.3 -67.45 -87.95 -67.35 -87.35 -67.05 -86.95 -66.75 -86.55 -66.15 -86.3 -65.55 -86 -64.9 -86 -63.3 -86 -62.4 -87.35
L -62.4 -86.2 -61.25 -86.2 -61.25 -94
M -57.9 -96.95
L -59.25 -96.95 -59.25 -86.2 -57.9 -86.2 -57.9 -96.95
M -53.1 -94.15
Q -54.05 -94.15 -54.85 -93.65 -55.6 -93.15 -56 -92.2 -56.4 -91.25 -56.4 -90.1 -56.4 -88.9 -55.95 -87.95 -55.55 -87.05 -54.75 -86.55 -53.95 -86 -53.05 -86 -51.6 -86 -50.85 -87.2
L -50.85 -86.2 -49.65 -86.2 -49.65 -96.95 -50.95 -96.95 -50.95 -93.1
Q -51.3 -93.55 -51.85 -93.85 -52.4 -94.15 -53.1 -94.15
M -50.85 -89.95
Q -50.85 -88.5 -51.45 -87.8 -52.05 -87.1 -52.9 -87.1 -53.75 -87.1 -54.4 -87.85 -55.05 -88.6 -55.05 -90.1 -55.05 -91.65 -54.45 -92.35 -53.85 -93.05 -52.95 -93.05 -52.05 -93.05 -51.45 -92.3 -50.85 -91.55 -50.85 -89.95
M -37.6 -93.05
Q -38 -93.6 -38.65 -93.85 -39.3 -94.15 -40 -94.15 -41.3 -94.15 -42.15 -93.1
L -42.15 -96.95 -43.45 -96.95 -43.45 -86.2 -42.25 -86.2 -42.25 -87.15
Q -41.45 -86 -40.1 -86 -38.7 -86 -37.7 -87.1 -36.7 -88.2 -36.7 -90.2 -36.7 -91.05 -36.95 -91.8 -37.2 -92.55 -37.6 -93.05
M -38.65 -92.35
Q -38.05 -91.6 -38.05 -90.1 -38.05 -88.6 -38.7 -87.85 -39.35 -87.1 -40.2 -87.1 -41.25 -87.1 -41.9 -88.15 -42.25 -88.75 -42.25 -90.15 -42.25 -91.55 -41.65 -92.3 -41 -93.05 -40.15 -93.05 -39.3 -93.05 -38.65 -92.35
M -110.15 -87.85
Q -109.7 -88.7 -109.7 -90.2 -109.7 -92.05 -110.75 -93.1 -111.75 -94.15 -113.35 -94.15 -114.8 -94.15 -115.8 -93.3 -117 -92.25 -117 -90.1 -117 -88.1 -116 -87.05 -115 -86 -113.35 -86 -112.35 -86 -111.45 -86.5 -110.6 -87 -110.15 -87.85
M -115.65 -90.1
Q -115.65 -91.6 -115 -92.3 -114.35 -93.05 -113.35 -93.05 -112.4 -93.05 -111.7 -92.3 -111.05 -91.6 -111.05 -90.15 -111.05 -88.6 -111.7 -87.85 -112.35 -87.1 -113.35 -87.1 -114.35 -87.1 -115 -87.85 -115.65 -88.6 -115.65 -90.1
M -98.3 -93.5
Q -98.9 -94.15 -100.05 -94.15 -101.55 -94.15 -102.5 -92.8 -102.7 -93.45 -103.25 -93.8 -103.8 -94.15 -104.65 -94.15 -105.45 -94.15 -106.05 -93.8 -106.65 -93.45 -107.05 -92.9
L -107.05 -94 -108.2 -94 -108.2 -86.2 -106.9 -86.2 -106.9 -90.25
Q -106.9 -91.3 -106.7 -91.85 -106.45 -92.45 -106 -92.7 -105.5 -93 -104.95 -93 -104.25 -93 -103.9 -92.55 -103.6 -92.15 -103.6 -91.25
L -103.6 -86.2 -102.25 -86.2 -102.25 -90.7
Q -102.25 -91.9 -101.75 -92.45 -101.2 -93 -100.35 -93 -99.9 -93 -99.6 -92.8 -99.25 -92.6 -99.1 -92.25 -99 -91.9 -99 -91.1
L -99 -86.2 -97.65 -86.2 -97.65 -91.55
Q -97.65 -92.85 -98.3 -93.5
M -83.3 -92.25
Q -83.7 -91.3 -83.7 -90.05 -83.7 -88.1 -82.75 -87.05 -81.75 -86 -80.2 -86 -78.9 -86 -78 -86.8 -77.15 -87.55 -76.95 -88.9
L -78.25 -89.05
Q -78.35 -88.05 -78.9 -87.6 -79.4 -87.1 -80.2 -87.1 -81.15 -87.1 -81.75 -87.8 -82.35 -88.55 -82.35 -90.1 -82.35 -91.65 -81.75 -92.35 -81.1 -93.05 -80.1 -93.05 -79.45 -93.05 -79 -92.65 -78.55 -92.3 -78.35 -91.5
L -77.05 -91.7
Q -77.3 -92.85 -78.1 -93.5 -78.9 -94.15 -80.15 -94.15 -81.15 -94.15 -82 -93.7 -82.9 -93.2 -83.3 -92.25
M -89.05 -88.55
L -90.45 -88.7
Q -90.75 -87.85 -91.25 -87.5 -91.75 -87.1 -92.5 -87.1 -93.45 -87.1 -94.1 -87.8 -94.75 -88.45 -94.85 -89.75
L -89.05 -89.75 -89.05 -90.1
Q -89.05 -92.05 -90 -93.1 -91 -94.15 -92.55 -94.15 -94.2 -94.15 -95.2 -93.05 -96.2 -92 -96.2 -90 -96.2 -88.15 -95.2 -87.05 -94.2 -86 -92.5 -86 -91.15 -86 -90.25 -86.7 -89.4 -87.35 -89.05 -88.55
M -90.9 -92.3
Q -90.5 -91.8 -90.4 -90.85
L -94.75 -90.85
Q -94.7 -91.85 -94.1 -92.45 -93.45 -93.05 -92.55 -93.05 -91.55 -93.05 -90.9 -92.3
M -119.85 -93.9
Q -120.55 -94.15 -121.45 -94.15 -122.05 -94.15 -122.6 -94 -123.1 -93.85 -123.45 -93.6 -123.85 -93.3 -124.1 -92.85 -124.3 -92.45 -124.3 -91.9 -124.3 -91.35 -124.05 -90.85 -123.75 -90.4 -123.2 -90.15 -122.6 -89.85 -121.15 -89.5 -120.1 -89.2 -119.8 -89.05 -119.45 -88.8 -119.45 -88.35 -119.45 -87.85 -119.85 -87.45 -120.3 -87.1 -121.2 -87.1 -122.1 -87.1 -122.6 -87.55 -123.1 -87.95 -123.25 -88.75
L -124.55 -88.5
Q -124.3 -87.3 -123.5 -86.65 -122.75 -86 -121.2 -86 -120.3 -86 -119.55 -86.35 -118.85 -86.65 -118.45 -87.25 -118.1 -87.85 -118.1 -88.5 -118.1 -89.15 -118.4 -89.6 -118.7 -90.05 -119.25 -90.3 -119.8 -90.55 -121.2 -90.9
L -122.4 -91.25
Q -122.7 -91.4 -122.9 -91.6 -123.05 -91.8 -123.05 -92.05 -123.05 -92.45 -122.65 -92.75 -122.25 -93.05 -121.35 -93.05 -120.6 -93.05 -120.15 -92.75 -119.75 -92.4 -119.65 -91.8
L -118.35 -91.95
Q -118.5 -92.75 -118.85 -93.15 -119.15 -93.65 -119.85 -93.9
M -3.75 -105.65
Q -3.3 -106.5 -3.3 -108 -3.3 -109.85 -4.35 -110.9 -5.35 -111.95 -6.95 -111.95 -8.4 -111.95 -9.4 -111.1 -10.6 -110.05 -10.6 -107.9 -10.6 -105.9 -9.6 -104.85 -8.6 -103.8 -6.95 -103.8 -5.95 -103.8 -5.05 -104.3 -4.2 -104.8 -3.75 -105.65
M -9.25 -107.9
Q -9.25 -109.4 -8.6 -110.1 -7.95 -110.85 -6.95 -110.85 -6 -110.85 -5.3 -110.1 -4.65 -109.4 -4.65 -107.95 -4.65 -106.4 -5.3 -105.65 -5.95 -104.9 -6.95 -104.9 -7.95 -104.9 -8.6 -105.65 -9.25 -106.4 -9.25 -107.9
M -16.2 -111.8
Q -16.7 -111.65 -17.05 -111.4 -17.45 -111.1 -17.7 -110.65 -17.9 -110.25 -17.9 -109.7 -17.9 -109.15 -17.65 -108.65 -17.35 -108.2 -16.8 -107.95 -16.2 -107.65 -14.75 -107.3 -13.7 -107 -13.4 -106.85 -13.05 -106.6 -13.05 -106.15 -13.05 -105.65 -13.45 -105.25 -13.9 -104.9 -14.8 -104.9 -15.7 -104.9 -16.2 -105.35 -16.7 -105.75 -16.85 -106.55
L -18.15 -106.3
Q -17.9 -105.1 -17.1 -104.45 -16.35 -103.8 -14.8 -103.8 -13.9 -103.8 -13.15 -104.15 -12.45 -104.45 -12.05 -105.05 -11.7 -105.65 -11.7 -106.3 -11.7 -106.95 -12 -107.4 -12.3 -107.85 -12.85 -108.1 -13.4 -108.35 -14.8 -108.7
L -16 -109.05
Q -16.3 -109.2 -16.5 -109.4 -16.65 -109.6 -16.65 -109.85 -16.65 -110.25 -16.25 -110.55 -15.85 -110.85 -14.95 -110.85 -14.2 -110.85 -13.75 -110.55 -13.35 -110.2 -13.25 -109.6
L -11.95 -109.75
Q -12.1 -110.55 -12.45 -110.95 -12.75 -111.45 -13.45 -111.7 -14.15 -111.95 -15.05 -111.95 -15.65 -111.95 -16.2 -111.8
M -24.8 -104
Q -24.85 -103.35 -25.05 -102.95 -25.25 -102.6 -25.65 -102.45
L -25.3 -101.9
Q -24.65 -102.15 -24.35 -102.65 -24.05 -103.15 -24.05 -104
L -24.05 -105.5 -25.55 -105.5 -25.55 -104 -24.8 -104
M -33.4 -111.6
Q -33.95 -111.95 -34.8 -111.95 -35.6 -111.95 -36.2 -111.6 -36.8 -111.25 -37.2 -110.7
L -37.2 -111.8 -38.35 -111.8 -38.35 -104 -37.05 -104 -37.05 -108.05
Q -37.05 -109.1 -36.85 -109.65 -36.6 -110.25 -36.15 -110.5 -35.65 -110.8 -35.1 -110.8 -34.4 -110.8 -34.05 -110.35 -33.75 -109.95 -33.75 -109.05
L -33.75 -104 -32.4 -104 -32.4 -108.5
Q -32.4 -109.7 -31.9 -110.25 -31.35 -110.8 -30.5 -110.8 -30.05 -110.8 -29.75 -110.6 -29.4 -110.4 -29.25 -110.05 -29.15 -109.7 -29.15 -108.9
L -29.15 -104 -27.8 -104 -27.8 -109.35
Q -27.8 -110.65 -28.45 -111.3 -29.05 -111.95 -30.2 -111.95 -31.7 -111.95 -32.65 -110.6 -32.85 -111.25 -33.4 -111.6
M -41.35 -106.5
Q -41.65 -105.65 -42.15 -105.3 -42.65 -104.9 -43.4 -104.9 -44.35 -104.9 -45 -105.6 -45.65 -106.25 -45.75 -107.55
L -39.95 -107.55 -39.95 -107.9
Q -39.95 -109.85 -40.9 -110.9 -41.9 -111.95 -43.45 -111.95 -45.1 -111.95 -46.1 -110.85 -47.1 -109.8 -47.1 -107.8 -47.1 -105.95 -46.1 -104.85 -45.1 -103.8 -43.4 -103.8 -42.05 -103.8 -41.15 -104.5 -40.3 -105.15 -39.95 -106.35
L -41.35 -106.5
M -41.8 -110.1
Q -41.4 -109.6 -41.3 -108.65
L -45.65 -108.65
Q -45.6 -109.65 -45 -110.25 -44.35 -110.85 -43.45 -110.85 -42.45 -110.85 -41.8 -110.1
M -53.65 -114.75
L -54.95 -114.75 -54.95 -104 -53.65 -104 -53.65 -108.25
Q -53.65 -109.15 -53.4 -109.7 -53.2 -110.2 -52.7 -110.5 -52.15 -110.8 -51.6 -110.8 -50.8 -110.8 -50.35 -110.35 -49.95 -109.9 -49.95 -108.95
L -49.95 -104 -48.65 -104 -48.65 -108.95
Q -48.65 -110.05 -48.9 -110.65 -49.2 -111.25 -49.8 -111.6 -50.45 -111.95 -51.3 -111.95 -52.7 -111.95 -53.65 -110.9
L -53.65 -114.75
M -56.25 -111.8
L -57.55 -111.8 -57.55 -114.5 -58.85 -113.7 -58.85 -111.8 -59.85 -111.8 -59.85 -110.75 -58.85 -110.75 -58.85 -106.3
Q -58.85 -105.1 -58.7 -104.7 -58.55 -104.35 -58.15 -104.1 -57.75 -103.9 -57.05 -103.9 -56.6 -103.9 -56.05 -104
L -56.25 -105.2 -56.8 -105.15
Q -57.1 -105.15 -57.25 -105.2 -57.4 -105.3 -57.5 -105.5 -57.55 -105.65 -57.55 -106.2
L -57.55 -110.75 -56.25 -110.75 -56.25 -111.8
M -71 -110.85
Q -72 -109.8 -72 -107.8 -72 -105.95 -71 -104.85 -70 -103.8 -68.3 -103.8 -66.95 -103.8 -66.05 -104.5 -65.2 -105.15 -64.85 -106.35
L -66.25 -106.5
Q -66.55 -105.65 -67.05 -105.3 -67.55 -104.9 -68.3 -104.9 -69.25 -104.9 -69.9 -105.6 -70.55 -106.25 -70.65 -107.55
L -64.85 -107.55 -64.85 -107.9
Q -64.85 -109.85 -65.8 -110.9 -66.8 -111.95 -68.35 -111.95 -70 -111.95 -71 -110.85
M -70.55 -108.65
Q -70.5 -109.65 -69.9 -110.25 -69.25 -110.85 -68.35 -110.85 -67.35 -110.85 -66.7 -110.1 -66.3 -109.6 -66.2 -108.65
L -70.55 -108.65
M -72.85 -111.8
L -74.15 -111.8 -74.15 -114.5 -75.45 -113.7 -75.45 -111.8 -76.45 -111.8 -76.45 -110.75 -75.45 -110.75 -75.45 -106.3
Q -75.45 -105.1 -75.3 -104.7 -75.15 -104.35 -74.75 -104.1 -74.35 -103.9 -73.65 -103.9 -73.2 -103.9 -72.65 -104
L -72.85 -105.2 -73.4 -105.15
Q -73.7 -105.15 -73.85 -105.2 -74 -105.3 -74.1 -105.5 -74.15 -105.65 -74.15 -106.2
L -74.15 -110.75 -72.85 -110.75 -72.85 -111.8
M -79.1 -111.7
Q -79.75 -111.95 -80.7 -111.95 -81.75 -111.95 -82.5 -111.7 -83.25 -111.4 -83.65 -110.9 -84.05 -110.4 -84.25 -109.55
L -82.95 -109.4
Q -82.75 -110.2 -82.3 -110.55 -81.85 -110.85 -80.9 -110.85 -79.9 -110.85 -79.4 -110.4 -79.05 -110.1 -79.05 -109.3
L -79.05 -108.95
Q -79.8 -108.65 -81.4 -108.5
L -82.55 -108.3
Q -83.1 -108.15 -83.5 -107.85 -83.95 -107.55 -84.2 -107.1 -84.45 -106.6 -84.45 -106.05 -84.45 -105.1 -83.75 -104.45 -83.1 -103.8 -81.8 -103.8 -81 -103.8 -80.35 -104.1 -79.65 -104.35 -78.95 -104.95 -78.9 -104.4 -78.65 -104
L -77.3 -104
Q -77.55 -104.45 -77.6 -104.95 -77.7 -105.4 -77.7 -107.25
L -77.7 -109
Q -77.7 -109.9 -77.8 -110.25 -77.9 -110.75 -78.2 -111.15 -78.5 -111.5 -79.1 -111.7
M -79.05 -107.4
Q -79.05 -106.55 -79.25 -106.1 -79.55 -105.5 -80.15 -105.2 -80.7 -104.85 -81.5 -104.85 -82.25 -104.85 -82.65 -105.2 -83.05 -105.55 -83.05 -106.1 -83.05 -106.45 -82.85 -106.7 -82.7 -107 -82.35 -107.15 -82 -107.3 -81.2 -107.4 -79.75 -107.6 -79.05 -107.9
L -79.05 -107.4
M -91.75 -110.85
Q -92.75 -109.8 -92.75 -107.8 -92.75 -105.95 -91.75 -104.85 -90.75 -103.8 -89.05 -103.8 -87.7 -103.8 -86.8 -104.5 -85.95 -105.15 -85.6 -106.35
L -87 -106.5
Q -87.3 -105.65 -87.8 -105.3 -88.3 -104.9 -89.05 -104.9 -90 -104.9 -90.65 -105.6 -91.3 -106.25 -91.4 -107.55
L -85.6 -107.55 -85.6 -107.9
Q -85.6 -109.85 -86.55 -110.9 -87.55 -111.95 -89.1 -111.95 -90.75 -111.95 -91.75 -110.85
M -87.45 -110.1
Q -87.05 -109.6 -86.95 -108.65
L -91.3 -108.65
Q -91.25 -109.65 -90.65 -110.25 -90 -110.85 -89.1 -110.85 -88.1 -110.85 -87.45 -110.1
M -96.1 -111.8
L -97.3 -111.8 -97.3 -104 -95.95 -104 -95.95 -108.05
Q -95.95 -108.9 -95.75 -109.6 -95.6 -110.05 -95.25 -110.35 -94.9 -110.6 -94.45 -110.6 -94 -110.6 -93.5 -110.3
L -93.05 -111.55
Q -93.75 -111.95 -94.4 -111.95 -94.85 -111.95 -95.25 -111.7 -95.65 -111.45 -96.1 -110.6
L -96.1 -111.8
M -111.25 -104
L -111.25 -114.75 -112.65 -114.75 -112.65 -104 -111.25 -104
M -101.6 -111.95
Q -102.6 -111.95 -103.45 -111.5 -104.35 -111 -104.75 -110.05 -105.15 -109.1 -105.15 -107.85 -105.15 -105.9 -104.2 -104.85 -103.2 -103.8 -101.65 -103.8 -100.35 -103.8 -99.45 -104.6 -98.6 -105.35 -98.4 -106.7
L -99.7 -106.85
Q -99.8 -105.85 -100.35 -105.4 -100.85 -104.9 -101.65 -104.9 -102.6 -104.9 -103.2 -105.6 -103.8 -106.35 -103.8 -107.9 -103.8 -109.45 -103.2 -110.15 -102.55 -110.85 -101.55 -110.85 -100.9 -110.85 -100.45 -110.45 -100 -110.1 -99.8 -109.3
L -98.5 -109.5
Q -98.75 -110.65 -99.55 -111.3 -100.35 -111.95 -101.6 -111.95
M -123.3 -111.8
Q -123.8 -111.65 -124.15 -111.4 -124.55 -111.1 -124.8 -110.65 -125 -110.25 -125 -109.7 -125 -109.15 -124.75 -108.65 -124.45 -108.2 -123.9 -107.95 -123.3 -107.65 -121.85 -107.3 -120.8 -107 -120.5 -106.85 -120.15 -106.6 -120.15 -106.15 -120.15 -105.65 -120.55 -105.25 -121 -104.9 -121.9 -104.9 -122.8 -104.9 -123.3 -105.35 -123.8 -105.75 -123.95 -106.55
L -125.25 -106.3
Q -125 -105.1 -124.2 -104.45 -123.45 -103.8 -121.9 -103.8 -121 -103.8 -120.25 -104.15 -119.55 -104.45 -119.15 -105.05 -118.8 -105.65 -118.8 -106.3 -118.8 -106.95 -119.1 -107.4 -119.4 -107.85 -119.95 -108.1 -120.5 -108.35 -121.9 -108.7
L -123.1 -109.05
Q -123.4 -109.2 -123.6 -109.4 -123.75 -109.6 -123.75 -109.85 -123.75 -110.25 -123.35 -110.55 -122.95 -110.85 -122.05 -110.85 -121.3 -110.85 -120.85 -110.55 -120.45 -110.2 -120.35 -109.6
L -119.05 -109.75
Q -119.2 -110.55 -119.55 -110.95 -119.85 -111.45 -120.55 -111.7 -121.25 -111.95 -122.15 -111.95 -122.75 -111.95 -123.3 -111.8
M -129.7 -111.95
Q -130.75 -111.95 -131.5 -111.7 -132.25 -111.4 -132.65 -110.9 -133.05 -110.4 -133.25 -109.55
L -131.95 -109.4
Q -131.75 -110.2 -131.3 -110.55 -130.85 -110.85 -129.9 -110.85 -128.9 -110.85 -128.4 -110.4 -128.05 -110.1 -128.05 -109.3
L -128.05 -108.95
Q -128.8 -108.65 -130.4 -108.5
L -131.55 -108.3
Q -132.1 -108.15 -132.5 -107.85 -132.95 -107.55 -133.2 -107.1 -133.45 -106.6 -133.45 -106.05 -133.45 -105.1 -132.75 -104.45 -132.1 -103.8 -130.8 -103.8 -130 -103.8 -129.35 -104.1 -128.65 -104.35 -127.95 -104.95 -127.9 -104.4 -127.65 -104
L -126.3 -104
Q -126.55 -104.45 -126.6 -104.95 -126.7 -105.4 -126.7 -107.25
L -126.7 -109
Q -126.7 -109.9 -126.8 -110.25 -126.9 -110.75 -127.2 -111.15 -127.5 -111.5 -128.1 -111.7 -128.75 -111.95 -129.7 -111.95
M -132.05 -106.1
Q -132.05 -106.45 -131.85 -106.7 -131.7 -107 -131.35 -107.15 -131 -107.3 -130.2 -107.4 -128.75 -107.6 -128.05 -107.9
L -128.05 -107.4
Q -128.05 -106.55 -128.25 -106.1 -128.55 -105.5 -129.15 -105.2 -129.7 -104.85 -130.5 -104.85 -131.25 -104.85 -131.65 -105.2 -132.05 -105.55 -132.05 -106.1
M -26.8 -128.9
Q -28 -127.85 -28 -125.7 -28 -123.7 -27 -122.65 -26 -121.6 -24.35 -121.6 -23.35 -121.6 -22.45 -122.1 -21.6 -122.6 -21.15 -123.45 -20.7 -124.3 -20.7 -125.8 -20.7 -127.65 -21.75 -128.7 -22.75 -129.75 -24.35 -129.75 -25.8 -129.75 -26.8 -128.9
M -26.65 -125.7
Q -26.65 -127.2 -26 -127.9 -25.35 -128.65 -24.35 -128.65 -23.4 -128.65 -22.7 -127.9 -22.05 -127.2 -22.05 -125.75 -22.05 -124.2 -22.7 -123.45 -23.35 -122.7 -24.35 -122.7 -25.35 -122.7 -26 -123.45 -26.65 -124.2 -26.65 -125.7
M -9.7 -128.45
L -9.7 -129.6 -10.9 -129.6 -10.9 -121.8 -9.6 -121.8 -9.6 -126.05
Q -9.6 -127.55 -9 -128.1 -8.35 -128.6 -7.55 -128.6 -7 -128.6 -6.6 -128.35 -6.2 -128.15 -6.05 -127.75 -5.9 -127.35 -5.9 -126.55
L -5.9 -121.8 -4.6 -121.8 -4.6 -126.6
Q -4.6 -127.5 -4.65 -127.85 -4.8 -128.45 -5.05 -128.85 -5.35 -129.25 -5.95 -129.5 -6.55 -129.75 -7.25 -129.75 -8.85 -129.75 -9.7 -128.45
M -18.5 -128.9
Q -19.7 -127.85 -19.7 -125.7 -19.7 -123.7 -18.7 -122.65 -17.7 -121.6 -16.05 -121.6 -15.05 -121.6 -14.15 -122.1 -13.3 -122.6 -12.85 -123.45 -12.4 -124.3 -12.4 -125.8 -12.4 -127.65 -13.45 -128.7 -14.45 -129.75 -16.05 -129.75 -17.5 -129.75 -18.5 -128.9
M -17.7 -127.9
Q -17.05 -128.65 -16.05 -128.65 -15.1 -128.65 -14.4 -127.9 -13.75 -127.2 -13.75 -125.75 -13.75 -124.2 -14.4 -123.45 -15.05 -122.7 -16.05 -122.7 -17.05 -122.7 -17.7 -123.45 -18.35 -124.2 -18.35 -125.7 -18.35 -127.2 -17.7 -127.9
M -30.85 -129.5
Q -31.55 -129.75 -32.45 -129.75 -33.05 -129.75 -33.6 -129.6 -34.1 -129.45 -34.45 -129.2 -34.85 -128.9 -35.1 -128.45 -35.3 -128.05 -35.3 -127.5 -35.3 -126.95 -35.05 -126.45 -34.75 -126 -34.2 -125.75 -33.6 -125.45 -32.15 -125.1 -31.1 -124.8 -30.8 -124.65 -30.45 -124.4 -30.45 -123.95 -30.45 -123.45 -30.85 -123.05 -31.3 -122.7 -32.2 -122.7 -33.1 -122.7 -33.6 -123.15 -34.1 -123.55 -34.25 -124.35
L -35.55 -124.1
Q -35.3 -122.9 -34.5 -122.25 -33.75 -121.6 -32.2 -121.6 -31.3 -121.6 -30.55 -121.95 -29.85 -122.25 -29.45 -122.85 -29.1 -123.45 -29.1 -124.1 -29.1 -124.75 -29.4 -125.2 -29.7 -125.65 -30.25 -125.9 -30.8 -126.15 -32.2 -126.5
L -33.4 -126.85
Q -33.7 -127 -33.9 -127.2 -34.05 -127.4 -34.05 -127.65 -34.05 -128.05 -33.65 -128.35 -33.25 -128.65 -32.35 -128.65 -31.6 -128.65 -31.15 -128.35 -30.75 -128 -30.65 -127.4
L -29.35 -127.55
Q -29.5 -128.35 -29.85 -128.75 -30.15 -129.25 -30.85 -129.5
M -46.1 -129.2
Q -46.5 -128.9 -46.75 -128.45 -46.95 -128.05 -46.95 -127.5 -46.95 -126.95 -46.7 -126.45 -46.4 -126 -45.85 -125.75 -45.25 -125.45 -43.8 -125.1 -42.75 -124.8 -42.45 -124.65 -42.1 -124.4 -42.1 -123.95 -42.1 -123.45 -42.5 -123.05 -42.95 -122.7 -43.85 -122.7 -44.75 -122.7 -45.25 -123.15 -45.75 -123.55 -45.9 -124.35
L -47.2 -124.1
Q -46.95 -122.9 -46.15 -122.25 -45.4 -121.6 -43.85 -121.6 -42.95 -121.6 -42.2 -121.95 -41.5 -122.25 -41.1 -122.85 -40.75 -123.45 -40.75 -124.1 -40.75 -124.75 -41.05 -125.2 -41.35 -125.65 -41.9 -125.9 -42.45 -126.15 -43.85 -126.5
L -45.05 -126.85
Q -45.35 -127 -45.55 -127.2 -45.7 -127.4 -45.7 -127.65 -45.7 -128.05 -45.3 -128.35 -44.9 -128.65 -44 -128.65 -43.25 -128.65 -42.8 -128.35 -42.4 -128 -42.3 -127.4
L -41 -127.55
Q -41.15 -128.35 -41.5 -128.75 -41.8 -129.25 -42.5 -129.5 -43.2 -129.75 -44.1 -129.75 -44.7 -129.75 -45.25 -129.6 -45.75 -129.45 -46.1 -129.2
M -53.9 -127.2
Q -53.7 -128 -53.25 -128.35 -52.8 -128.65 -51.85 -128.65 -50.85 -128.65 -50.35 -128.2 -50 -127.9 -50 -127.1
L -50 -126.75
Q -50.75 -126.45 -52.35 -126.3
L -53.5 -126.1
Q -54.05 -125.95 -54.45 -125.65 -54.9 -125.35 -55.15 -124.9 -55.4 -124.4 -55.4 -123.85 -55.4 -122.9 -54.7 -122.25 -54.05 -121.6 -52.75 -121.6 -51.95 -121.6 -51.3 -121.9 -50.6 -122.15 -49.9 -122.75 -49.85 -122.2 -49.6 -121.8
L -48.25 -121.8
Q -48.5 -122.25 -48.55 -122.75 -48.65 -123.2 -48.65 -125.05
L -48.65 -126.8
Q -48.65 -127.7 -48.75 -128.05 -48.85 -128.55 -49.15 -128.95 -49.45 -129.3 -50.05 -129.5 -50.7 -129.75 -51.65 -129.75 -52.7 -129.75 -53.45 -129.5 -54.2 -129.2 -54.6 -128.7 -55 -128.2 -55.2 -127.35
L -53.9 -127.2
M -53.8 -124.5
Q -53.65 -124.8 -53.3 -124.95 -52.95 -125.1 -52.15 -125.2 -50.7 -125.4 -50 -125.7
L -50 -125.2
Q -50 -124.35 -50.2 -123.9 -50.5 -123.3 -51.1 -123 -51.65 -122.65 -52.45 -122.65 -53.2 -122.65 -53.6 -123 -54 -123.35 -54 -123.9 -54 -124.25 -53.8 -124.5
M -86.85 -132.55
L -88.15 -132.55 -88.15 -121.8 -86.85 -121.8 -86.85 -126.05
Q -86.85 -126.95 -86.6 -127.5 -86.4 -128 -85.9 -128.3 -85.35 -128.6 -84.8 -128.6 -84 -128.6 -83.55 -128.15 -83.15 -127.7 -83.15 -126.75
L -83.15 -121.8 -81.85 -121.8 -81.85 -126.75
Q -81.85 -127.85 -82.1 -128.45 -82.4 -129.05 -83 -129.4 -83.65 -129.75 -84.5 -129.75 -85.9 -129.75 -86.85 -128.7
L -86.85 -132.55
M -66.6 -129.4
Q -67.15 -129.75 -68 -129.75 -68.8 -129.75 -69.4 -129.4 -70 -129.05 -70.4 -128.5
L -70.4 -129.6 -71.55 -129.6 -71.55 -121.8 -70.25 -121.8 -70.25 -125.85
Q -70.25 -126.9 -70.05 -127.45 -69.8 -128.05 -69.35 -128.3 -68.85 -128.6 -68.3 -128.6 -67.6 -128.6 -67.25 -128.15 -66.95 -127.75 -66.95 -126.85
L -66.95 -121.8 -65.6 -121.8 -65.6 -126.3
Q -65.6 -127.5 -65.1 -128.05 -64.55 -128.6 -63.7 -128.6 -63.25 -128.6 -62.95 -128.4 -62.6 -128.2 -62.45 -127.85 -62.35 -127.5 -62.35 -126.7
L -62.35 -121.8 -61 -121.8 -61 -127.15
Q -61 -128.45 -61.65 -129.1 -62.25 -129.75 -63.4 -129.75 -64.9 -129.75 -65.85 -128.4 -66.05 -129.05 -66.6 -129.4
M -76.65 -129.75
Q -78.3 -129.75 -79.3 -128.65 -80.3 -127.6 -80.3 -125.6 -80.3 -123.75 -79.3 -122.65 -78.3 -121.6 -76.6 -121.6 -75.25 -121.6 -74.35 -122.3 -73.5 -122.95 -73.15 -124.15
L -74.55 -124.3
Q -74.85 -123.45 -75.35 -123.1 -75.85 -122.7 -76.6 -122.7 -77.55 -122.7 -78.2 -123.4 -78.85 -124.05 -78.95 -125.35
L -73.15 -125.35 -73.15 -125.7
Q -73.15 -127.65 -74.1 -128.7 -75.1 -129.75 -76.65 -129.75
M -78.85 -126.45
Q -78.8 -127.45 -78.2 -128.05 -77.55 -128.65 -76.65 -128.65 -75.65 -128.65 -75 -127.9 -74.6 -127.4 -74.5 -126.45
L -78.85 -126.45
M -93.05 -129.6
L -93.05 -128.55 -92.05 -128.55 -92.05 -124.1
Q -92.05 -122.9 -91.9 -122.5 -91.75 -122.15 -91.35 -121.9 -90.95 -121.7 -90.25 -121.7 -89.8 -121.7 -89.25 -121.8
L -89.45 -123 -90 -122.95
Q -90.3 -122.95 -90.45 -123 -90.6 -123.1 -90.7 -123.3 -90.75 -123.45 -90.75 -124
L -90.75 -128.55 -89.45 -128.55 -89.45 -129.6 -90.75 -129.6 -90.75 -132.3 -92.05 -131.5 -92.05 -129.6 -93.05 -129.6
M -99.8 -128.7
Q -100.15 -129.15 -100.7 -129.45 -101.25 -129.75 -101.95 -129.75 -102.9 -129.75 -103.7 -129.25 -104.45 -128.75 -104.85 -127.8 -105.25 -126.85 -105.25 -125.7 -105.25 -124.5 -104.8 -123.55 -104.4 -122.65 -103.6 -122.15 -102.8 -121.6 -101.9 -121.6 -100.45 -121.6 -99.7 -122.8
L -99.7 -121.8 -98.5 -121.8 -98.5 -132.55 -99.8 -132.55 -99.8 -128.7
M -100.3 -127.9
Q -99.7 -127.15 -99.7 -125.55 -99.7 -124.1 -100.3 -123.4 -100.9 -122.7 -101.75 -122.7 -102.6 -122.7 -103.25 -123.45 -103.9 -124.2 -103.9 -125.7 -103.9 -127.25 -103.3 -127.95 -102.7 -128.65 -101.8 -128.65 -100.9 -128.65 -100.3 -127.9
M -112.7 -128.7
Q -113.1 -128.2 -113.3 -127.35
L -112 -127.2
Q -111.8 -128 -111.35 -128.35 -110.9 -128.65 -109.95 -128.65 -108.95 -128.65 -108.45 -128.2 -108.1 -127.9 -108.1 -127.1
L -108.1 -126.75
Q -108.85 -126.45 -110.45 -126.3
L -111.6 -126.1
Q -112.15 -125.95 -112.55 -125.65 -113 -125.35 -113.25 -124.9 -113.5 -124.4 -113.5 -123.85 -113.5 -122.9 -112.8 -122.25 -112.15 -121.6 -110.85 -121.6 -110.05 -121.6 -109.4 -121.9 -108.7 -122.15 -108 -122.75 -107.95 -122.2 -107.7 -121.8
L -106.35 -121.8
Q -106.6 -122.25 -106.65 -122.75 -106.75 -123.2 -106.75 -125.05
L -106.75 -126.8
Q -106.75 -127.7 -106.85 -128.05 -106.95 -128.55 -107.25 -128.95 -107.55 -129.3 -108.15 -129.5 -108.8 -129.75 -109.75 -129.75 -110.8 -129.75 -111.55 -129.5 -112.3 -129.2 -112.7 -128.7
M -112.1 -123.9
Q -112.1 -124.25 -111.9 -124.5 -111.75 -124.8 -111.4 -124.95 -111.05 -125.1 -110.25 -125.2 -108.8 -125.4 -108.1 -125.7
L -108.1 -125.2
Q -108.1 -124.35 -108.3 -123.9 -108.6 -123.3 -109.2 -123 -109.75 -122.65 -110.55 -122.65 -111.3 -122.65 -111.7 -123 -112.1 -123.35 -112.1 -123.9
M -118.2 -129.75
Q -119.65 -129.75 -120.65 -128.9 -121.85 -127.85 -121.85 -125.7 -121.85 -123.7 -120.85 -122.65 -119.85 -121.6 -118.2 -121.6 -117.2 -121.6 -116.3 -122.1 -115.45 -122.6 -115 -123.45 -114.55 -124.3 -114.55 -125.8 -114.55 -127.65 -115.6 -128.7 -116.6 -129.75 -118.2 -129.75
M -118.2 -128.65
Q -117.25 -128.65 -116.55 -127.9 -115.9 -127.2 -115.9 -125.75 -115.9 -124.2 -116.55 -123.45 -117.2 -122.7 -118.2 -122.7 -119.2 -122.7 -119.85 -123.45 -120.5 -124.2 -120.5 -125.7 -120.5 -127.2 -119.85 -127.9 -119.2 -128.65 -118.2 -128.65
M -150.7 -132.55
L -152.05 -132.55 -152.05 -121.8 -150.7 -121.8 -150.7 -132.55
M -147.4 -132.55
L -148.75 -132.55 -148.75 -121.8 -147.4 -121.8 -147.4 -132.55
M -157.2 -132.55
L -158.6 -132.55 -158.6 -121.8 -157.2 -121.8 -157.2 -132.55
M -154.85 -128.75
L -154.05 -128.75 -153.7 -130.75 -153.7 -132.55 -155.2 -132.55 -155.2 -130.75 -154.85 -128.75
M -123.35 -132.55
L -124.7 -132.55 -124.7 -121.8 -123.35 -121.8 -123.35 -132.55
M -131.75 -128.55
L -131.75 -129.6 -132.95 -129.6 -132.95 -118.8 -131.65 -118.8 -131.65 -122.6
Q -131.3 -122.2 -130.8 -121.9 -130.25 -121.6 -129.6 -121.6 -128.7 -121.6 -127.9 -122.15 -127.05 -122.65 -126.65 -123.6 -126.2 -124.55 -126.2 -125.75 -126.2 -126.85 -126.6 -127.8 -127 -128.75 -127.75 -129.25 -128.5 -129.75 -129.5 -129.75 -130.25 -129.75 -130.8 -129.45 -131.35 -129.15 -131.75 -128.55
M -129.65 -128.7
Q -128.8 -128.7 -128.15 -128 -127.55 -127.25 -127.55 -125.75 -127.55 -124.2 -128.2 -123.45 -128.8 -122.7 -129.7 -122.7 -130.55 -122.7 -131.15 -123.45 -131.75 -124.15 -131.75 -125.65 -131.75 -127.15 -131.1 -127.95 -130.45 -128.7 -129.65 -128.7
M -139.9 -123.85
Q -139.95 -124.25 -139.95 -125.25
L -139.95 -129.6 -141.3 -129.6 -141.3 -124.75
Q -141.3 -123.9 -141.2 -123.55 -141.1 -122.95 -140.8 -122.55 -140.5 -122.15 -139.9 -121.9 -139.3 -121.6 -138.65 -121.6 -137.05 -121.6 -136.15 -122.95
L -136.15 -121.8 -135 -121.8 -135 -129.6 -136.3 -129.6 -136.3 -125.4
Q -136.3 -124.4 -136.5 -123.9 -136.75 -123.35 -137.25 -123.05 -137.75 -122.75 -138.35 -122.75 -138.95 -122.75 -139.35 -123.05 -139.75 -123.35 -139.9 -123.85
M -25.95 -146.5
Q -26.95 -147.55 -28.55 -147.55 -30 -147.55 -31 -146.7 -32.2 -145.65 -32.2 -143.5 -32.2 -141.5 -31.2 -140.45 -30.2 -139.4 -28.55 -139.4 -27.55 -139.4 -26.65 -139.9 -25.8 -140.4 -25.35 -141.25 -24.9 -142.1 -24.9 -143.6 -24.9 -145.45 -25.95 -146.5
M -30.2 -145.7
Q -29.55 -146.45 -28.55 -146.45 -27.6 -146.45 -26.9 -145.7 -26.25 -145 -26.25 -143.55 -26.25 -142 -26.9 -141.25 -27.55 -140.5 -28.55 -140.5 -29.55 -140.5 -30.2 -141.25 -30.85 -142 -30.85 -143.5 -30.85 -145 -30.2 -145.7
M -16.6 -143.6
Q -16.6 -145.45 -17.65 -146.5 -18.65 -147.55 -20.25 -147.55 -21.7 -147.55 -22.7 -146.7 -23.9 -145.65 -23.9 -143.5 -23.9 -141.5 -22.9 -140.45 -21.9 -139.4 -20.25 -139.4 -19.25 -139.4 -18.35 -139.9 -17.5 -140.4 -17.05 -141.25 -16.6 -142.1 -16.6 -143.6
M -18.6 -145.7
Q -17.95 -145 -17.95 -143.55 -17.95 -142 -18.6 -141.25 -19.25 -140.5 -20.25 -140.5 -21.25 -140.5 -21.9 -141.25 -22.55 -142 -22.55 -143.5 -22.55 -145 -21.9 -145.7 -21.25 -146.45 -20.25 -146.45 -19.3 -146.45 -18.6 -145.7
M -6.45 -141.1
L -6.45 -139.6 -4.95 -139.6 -4.95 -141.1 -6.45 -141.1
M -8.85 -145.65
Q -9 -146.25 -9.25 -146.65 -9.55 -147.05 -10.15 -147.3 -10.75 -147.55 -11.45 -147.55 -13.05 -147.55 -13.9 -146.25
L -13.9 -147.4 -15.1 -147.4 -15.1 -139.6 -13.8 -139.6 -13.8 -143.85
Q -13.8 -145.35 -13.2 -145.9 -12.55 -146.4 -11.75 -146.4 -11.2 -146.4 -10.8 -146.15 -10.4 -145.95 -10.25 -145.55 -10.1 -145.15 -10.1 -144.35
L -10.1 -139.6 -8.8 -139.6 -8.8 -144.4
Q -8.8 -145.3 -8.85 -145.65
M -88.35 -147.55
Q -89.35 -147.55 -90.2 -147.1 -91.1 -146.6 -91.5 -145.65 -91.9 -144.7 -91.9 -143.45 -91.9 -141.5 -90.95 -140.45 -89.95 -139.4 -88.4 -139.4 -87.1 -139.4 -86.2 -140.2 -85.35 -140.95 -85.15 -142.3
L -86.45 -142.45
Q -86.55 -141.45 -87.1 -141 -87.6 -140.5 -88.4 -140.5 -89.35 -140.5 -89.95 -141.2 -90.55 -141.95 -90.55 -143.5 -90.55 -145.05 -89.95 -145.75 -89.3 -146.45 -88.3 -146.45 -87.65 -146.45 -87.2 -146.05 -86.75 -145.7 -86.55 -144.9
L -85.25 -145.1
Q -85.5 -146.25 -86.3 -146.9 -87.1 -147.55 -88.35 -147.55
M -34.05 -146.55
Q -34.35 -147.05 -35.05 -147.3 -35.75 -147.55 -36.65 -147.55 -37.25 -147.55 -37.8 -147.4 -38.3 -147.25 -38.65 -147 -39.05 -146.7 -39.3 -146.25 -39.5 -145.85 -39.5 -145.3 -39.5 -144.75 -39.25 -144.25 -38.95 -143.8 -38.4 -143.55 -37.8 -143.25 -36.35 -142.9 -35.3 -142.6 -35 -142.45 -34.65 -142.2 -34.65 -141.75 -34.65 -141.25 -35.05 -140.85 -35.5 -140.5 -36.4 -140.5 -37.3 -140.5 -37.8 -140.95 -38.3 -141.35 -38.45 -142.15
L -39.75 -141.9
Q -39.5 -140.7 -38.7 -140.05 -37.95 -139.4 -36.4 -139.4 -35.5 -139.4 -34.75 -139.75 -34.05 -140.05 -33.65 -140.65 -33.3 -141.25 -33.3 -141.9 -33.3 -142.55 -33.6 -143 -33.9 -143.45 -34.45 -143.7 -35 -143.95 -36.4 -144.3
L -37.6 -144.65
Q -37.9 -144.8 -38.1 -145 -38.25 -145.2 -38.25 -145.45 -38.25 -145.85 -37.85 -146.15 -37.45 -146.45 -36.55 -146.45 -35.8 -146.45 -35.35 -146.15 -34.95 -145.8 -34.85 -145.2
L -33.55 -145.35
Q -33.7 -146.15 -34.05 -146.55
M -78.25 -146.5
Q -79.25 -147.55 -80.85 -147.55 -82.3 -147.55 -83.3 -146.7 -84.5 -145.65 -84.5 -143.5 -84.5 -141.5 -83.5 -140.45 -82.5 -139.4 -80.85 -139.4 -79.85 -139.4 -78.95 -139.9 -78.1 -140.4 -77.65 -141.25 -77.2 -142.1 -77.2 -143.6 -77.2 -145.45 -78.25 -146.5
M -79.2 -145.7
Q -78.55 -145 -78.55 -143.55 -78.55 -142 -79.2 -141.25 -79.85 -140.5 -80.85 -140.5 -81.85 -140.5 -82.5 -141.25 -83.15 -142 -83.15 -143.5 -83.15 -145 -82.5 -145.7 -81.85 -146.45 -80.85 -146.45 -79.9 -146.45 -79.2 -145.7
M -61.95 -147.4
L -63.25 -147.4 -63.25 -139.6 -61.95 -139.6 -61.95 -147.4
M -65.15 -144.95
Q -65.15 -146.25 -65.8 -146.9 -66.4 -147.55 -67.55 -147.55 -69.05 -147.55 -70 -146.2 -70.2 -146.85 -70.75 -147.2 -71.3 -147.55 -72.15 -147.55 -72.95 -147.55 -73.55 -147.2 -74.15 -146.85 -74.55 -146.3
L -74.55 -147.4 -75.7 -147.4 -75.7 -139.6 -74.4 -139.6 -74.4 -143.65
Q -74.4 -144.7 -74.2 -145.25 -73.95 -145.85 -73.5 -146.1 -73 -146.4 -72.45 -146.4 -71.75 -146.4 -71.4 -145.95 -71.1 -145.55 -71.1 -144.65
L -71.1 -139.6 -69.75 -139.6 -69.75 -144.1
Q -69.75 -145.3 -69.25 -145.85 -68.7 -146.4 -67.85 -146.4 -67.4 -146.4 -67.1 -146.2 -66.75 -146 -66.6 -145.65 -66.5 -145.3 -66.5 -144.5
L -66.5 -139.6 -65.15 -139.6 -65.15 -144.95
M -55.1 -145.55
Q -54.95 -145.15 -54.95 -144.35
L -54.95 -139.6 -53.65 -139.6 -53.65 -144.4
Q -53.65 -145.3 -53.7 -145.65 -53.85 -146.25 -54.1 -146.65 -54.4 -147.05 -55 -147.3 -55.6 -147.55 -56.3 -147.55 -57.9 -147.55 -58.75 -146.25
L -58.75 -147.4 -59.95 -147.4 -59.95 -139.6 -58.65 -139.6 -58.65 -143.85
Q -58.65 -145.35 -58.05 -145.9 -57.4 -146.4 -56.6 -146.4 -56.05 -146.4 -55.65 -146.15 -55.25 -145.95 -55.1 -145.55
M -46.55 -147.4
L -46.55 -146.45
Q -47.4 -147.55 -48.8 -147.55 -49.85 -147.55 -50.6 -147.05 -51.35 -146.55 -51.75 -145.6 -52.15 -144.65 -52.15 -143.55 -52.15 -141.9 -51.3 -140.75 -50.4 -139.6 -48.8 -139.6 -47.5 -139.6 -46.65 -140.6 -46.65 -139.35 -46.75 -138.95 -46.9 -138.25 -47.4 -137.9 -47.9 -137.55 -48.85 -137.55 -49.7 -137.55 -50.15 -137.9 -50.55 -138.15 -50.6 -138.75
L -51.9 -138.95
Q -51.95 -137.7 -51.1 -137.05 -50.2 -136.45 -48.85 -136.45 -47.65 -136.45 -46.85 -136.9 -46.05 -137.3 -45.7 -138.1 -45.3 -138.85 -45.3 -140.65
L -45.3 -147.4 -46.55 -147.4
M -47.15 -145.75
Q -46.55 -145 -46.55 -143.6 -46.55 -142.1 -47.15 -141.4 -47.75 -140.7 -48.7 -140.7 -49.6 -140.7 -50.2 -141.4 -50.8 -142.1 -50.8 -143.65 -50.8 -145.05 -50.2 -145.75 -49.6 -146.45 -48.7 -146.45 -47.8 -146.45 -47.15 -145.75
M -61.95 -148.8
L -61.95 -150.35 -63.25 -150.35 -63.25 -148.8 -61.95 -148.8
M -108.05 -143.5
Q -108.05 -145.45 -109 -146.5 -110 -147.55 -111.55 -147.55 -113.2 -147.55 -114.2 -146.45 -115.2 -145.4 -115.2 -143.4 -115.2 -141.55 -114.2 -140.45 -113.2 -139.4 -111.5 -139.4 -110.15 -139.4 -109.25 -140.1 -108.4 -140.75 -108.05 -141.95
L -109.45 -142.1
Q -109.75 -141.25 -110.25 -140.9 -110.75 -140.5 -111.5 -140.5 -112.45 -140.5 -113.1 -141.2 -113.75 -141.85 -113.85 -143.15
L -108.05 -143.15 -108.05 -143.5
M -109.9 -145.7
Q -109.5 -145.2 -109.4 -144.25
L -113.75 -144.25
Q -113.7 -145.25 -113.1 -145.85 -112.45 -146.45 -111.55 -146.45 -110.55 -146.45 -109.9 -145.7
M -100.5 -146.45
Q -99.75 -146.45 -99.3 -146.15 -98.9 -145.8 -98.8 -145.2
L -97.5 -145.35
Q -97.65 -146.15 -98 -146.55 -98.3 -147.05 -99 -147.3 -99.7 -147.55 -100.6 -147.55 -101.2 -147.55 -101.75 -147.4 -102.25 -147.25 -102.6 -147 -103 -146.7 -103.25 -146.25 -103.45 -145.85 -103.45 -145.3 -103.45 -144.75 -103.2 -144.25 -102.9 -143.8 -102.35 -143.55 -101.75 -143.25 -100.3 -142.9 -99.25 -142.6 -98.95 -142.45 -98.6 -142.2 -98.6 -141.75 -98.6 -141.25 -99 -140.85 -99.45 -140.5 -100.35 -140.5 -101.25 -140.5 -101.75 -140.95 -102.25 -141.35 -102.4 -142.15
L -103.7 -141.9
Q -103.45 -140.7 -102.65 -140.05 -101.9 -139.4 -100.35 -139.4 -99.45 -139.4 -98.7 -139.75 -98 -140.05 -97.6 -140.65 -97.25 -141.25 -97.25 -141.9 -97.25 -142.55 -97.55 -143 -97.85 -143.45 -98.4 -143.7 -98.95 -143.95 -100.35 -144.3
L -101.55 -144.65
Q -101.85 -144.8 -102.05 -145 -102.2 -145.2 -102.2 -145.45 -102.2 -145.85 -101.8 -146.15 -101.4 -146.45 -100.5 -146.45
M -152.75 -143.6
Q -152.75 -145.45 -153.8 -146.5 -154.8 -147.55 -156.4 -147.55 -157.85 -147.55 -158.85 -146.7 -160.05 -145.65 -160.05 -143.5 -160.05 -141.5 -159.05 -140.45 -158.05 -139.4 -156.4 -139.4 -155.4 -139.4 -154.5 -139.9 -153.65 -140.4 -153.2 -141.25 -152.75 -142.1 -152.75 -143.6
M -154.75 -145.7
Q -154.1 -145 -154.1 -143.55 -154.1 -142 -154.75 -141.25 -155.4 -140.5 -156.4 -140.5 -157.4 -140.5 -158.05 -141.25 -158.7 -142 -158.7 -143.5 -158.7 -145 -158.05 -145.7 -157.4 -146.45 -156.4 -146.45 -155.45 -146.45 -154.75 -145.7
M -148.4 -147.55
Q -148.85 -147.55 -149.25 -147.3 -149.65 -147.05 -150.1 -146.2
L -150.1 -147.4 -151.3 -147.4 -151.3 -139.6 -149.95 -139.6 -149.95 -143.65
Q -149.95 -144.5 -149.75 -145.2 -149.6 -145.65 -149.25 -145.95 -148.9 -146.2 -148.45 -146.2 -148 -146.2 -147.5 -145.9
L -147.05 -147.15
Q -147.75 -147.55 -148.4 -147.55
M -139.6 -143.5
Q -139.6 -145.45 -140.55 -146.5 -141.55 -147.55 -143.1 -147.55 -144.75 -147.55 -145.75 -146.45 -146.75 -145.4 -146.75 -143.4 -146.75 -141.55 -145.75 -140.45 -144.75 -139.4 -143.05 -139.4 -141.7 -139.4 -140.8 -140.1 -139.95 -140.75 -139.6 -141.95
L -141 -142.1
Q -141.3 -141.25 -141.8 -140.9 -142.3 -140.5 -143.05 -140.5 -144 -140.5 -144.65 -141.2 -145.3 -141.85 -145.4 -143.15
L -139.6 -143.15 -139.6 -143.5
M -141.45 -145.7
Q -141.05 -145.2 -140.95 -144.25
L -145.3 -144.25
Q -145.25 -145.25 -144.65 -145.85 -144 -146.45 -143.1 -146.45 -142.1 -146.45 -141.45 -145.7
M -123.85 -143.5
Q -123.85 -145.45 -124.8 -146.5 -125.8 -147.55 -127.35 -147.55 -129 -147.55 -130 -146.45 -131 -145.4 -131 -143.4 -131 -141.55 -130 -140.45 -129 -139.4 -127.3 -139.4 -125.95 -139.4 -125.05 -140.1 -124.2 -140.75 -123.85 -141.95
L -125.25 -142.1
Q -125.55 -141.25 -126.05 -140.9 -126.55 -140.5 -127.3 -140.5 -128.25 -140.5 -128.9 -141.2 -129.55 -141.85 -129.65 -143.15
L -123.85 -143.15 -123.85 -143.5
M -125.7 -145.7
Q -125.3 -145.2 -125.2 -144.25
L -129.55 -144.25
Q -129.5 -145.25 -128.9 -145.85 -128.25 -146.45 -127.35 -146.45 -126.35 -146.45 -125.7 -145.7
M -121.65 -147.4
L -123.05 -147.4 -120.1 -139.6 -118.85 -139.6 -115.95 -147.4 -117.3 -147.4 -119.5 -141.15 -121.65 -147.4
M -132.55 -150.35
L -133.9 -150.35 -133.9 -139.6 -132.55 -139.6 -132.55 -150.35
M -105.15 -150.35
L -106.5 -150.35 -106.5 -139.6 -105.15 -139.6 -105.15 -150.35
M -10.85 -158.9
L -10.85 -157.4 -9.35 -157.4 -9.35 -158.9 -10.85 -158.9
M -9.35 -163.7
L -9.35 -165.2 -10.85 -165.2 -10.85 -163.7 -9.35 -163.7
M -6.6 -164.65
Q -7.15 -163.05 -7.15 -161.3 -7.15 -159.3 -6.4 -157.45 -5.65 -155.6 -4.55 -154.25
L -3.6 -154.25
Q -5.8 -157.75 -5.8 -161.3 -5.8 -162.65 -5.45 -164.05 -5.2 -165.15 -4.75 -166.15 -4.5 -166.8 -3.6 -168.3
L -4.55 -168.3
Q -5.9 -166.5 -6.6 -164.65
M -23.3 -157.4
L -21.8 -157.4 -21.8 -158.9 -23.3 -158.9 -23.3 -157.4
M -169.75 -150.35
L -171.9 -150.35 -171.9 -139.6 -170.5 -139.6 -170.5 -148.75 -167.4 -139.6 -166.15 -139.6 -163 -148.6 -163 -139.6 -161.65 -139.6 -161.65 -150.35 -163.55 -150.35 -166.7 -141.15 -169.75 -150.35
M -86.4 -165.2
L -87.6 -165.2 -87.6 -157.4 -86.25 -157.4 -86.25 -161.45
Q -86.25 -162.3 -86.05 -163 -85.9 -163.45 -85.55 -163.75 -85.2 -164 -84.75 -164 -84.3 -164 -83.8 -163.7
L -83.35 -164.95
Q -84.05 -165.35 -84.7 -165.35 -85.15 -165.35 -85.55 -165.1 -85.95 -164.85 -86.4 -164
L -86.4 -165.2
M -89.55 -162.35
Q -89.55 -163.45 -89.8 -164.05 -90.1 -164.65 -90.7 -165 -91.35 -165.35 -92.2 -165.35 -93.6 -165.35 -94.55 -164.3
L -94.55 -168.15 -95.85 -168.15 -95.85 -157.4 -94.55 -157.4 -94.55 -161.65
Q -94.55 -162.55 -94.3 -163.1 -94.1 -163.6 -93.6 -163.9 -93.05 -164.2 -92.5 -164.2 -91.7 -164.2 -91.25 -163.75 -90.85 -163.3 -90.85 -162.35
L -90.85 -157.4 -89.55 -157.4 -89.55 -162.35
M -58 -164.25
Q -59 -163.2 -59 -161.2 -59 -159.35 -58 -158.25 -57 -157.2 -55.3 -157.2 -53.95 -157.2 -53.05 -157.9 -52.2 -158.55 -51.85 -159.75
L -53.25 -159.9
Q -53.55 -159.05 -54.05 -158.7 -54.55 -158.3 -55.3 -158.3 -56.25 -158.3 -56.9 -159 -57.55 -159.65 -57.65 -160.95
L -51.85 -160.95 -51.85 -161.3
Q -51.85 -163.25 -52.8 -164.3 -53.8 -165.35 -55.35 -165.35 -57 -165.35 -58 -164.25
M -57.55 -162.05
Q -57.5 -163.05 -56.9 -163.65 -56.25 -164.25 -55.35 -164.25 -54.35 -164.25 -53.7 -163.5 -53.3 -163 -53.2 -162.05
L -57.55 -162.05
M -43.95 -165.2
L -45.3 -165.2 -47.5 -158.95 -49.65 -165.2 -51.05 -165.2 -48.1 -157.4 -46.85 -157.4 -43.95 -165.2
M -61.9 -168.15
L -61.9 -157.4 -60.55 -157.4 -60.55 -168.15 -61.9 -168.15
M -76.85 -164.3
Q -77.85 -165.35 -79.4 -165.35 -81.05 -165.35 -82.05 -164.25 -83.05 -163.2 -83.05 -161.2 -83.05 -159.35 -82.05 -158.25 -81.05 -157.2 -79.35 -157.2 -78 -157.2 -77.1 -157.9 -76.25 -158.55 -75.9 -159.75
L -77.3 -159.9
Q -77.6 -159.05 -78.1 -158.7 -78.6 -158.3 -79.35 -158.3 -80.3 -158.3 -80.95 -159 -81.6 -159.65 -81.7 -160.95
L -75.9 -160.95 -75.9 -161.3
Q -75.9 -163.25 -76.85 -164.3
M -77.75 -163.5
Q -77.35 -163 -77.25 -162.05
L -81.6 -162.05
Q -81.55 -163.05 -80.95 -163.65 -80.3 -164.25 -79.4 -164.25 -78.4 -164.25 -77.75 -163.5
M -67.6 -161.3
Q -67.6 -163.25 -68.55 -164.3 -69.55 -165.35 -71.1 -165.35 -72.75 -165.35 -73.75 -164.25 -74.75 -163.2 -74.75 -161.2 -74.75 -159.35 -73.75 -158.25 -72.75 -157.2 -71.05 -157.2 -69.7 -157.2 -68.8 -157.9 -67.95 -158.55 -67.6 -159.75
L -69 -159.9
Q -69.3 -159.05 -69.8 -158.7 -70.3 -158.3 -71.05 -158.3 -72 -158.3 -72.65 -159 -73.3 -159.65 -73.4 -160.95
L -67.6 -160.95 -67.6 -161.3
M -69.45 -163.5
Q -69.05 -163 -68.95 -162.05
L -73.3 -162.05
Q -73.25 -163.05 -72.65 -163.65 -72 -164.25 -71.1 -164.25 -70.1 -164.25 -69.45 -163.5
M -36.05 -160.95
L -36.05 -161.3
Q -36.05 -163.25 -37 -164.3 -38 -165.35 -39.55 -165.35 -41.2 -165.35 -42.2 -164.25 -43.2 -163.2 -43.2 -161.2 -43.2 -159.35 -42.2 -158.25 -41.2 -157.2 -39.5 -157.2 -38.15 -157.2 -37.25 -157.9 -36.4 -158.55 -36.05 -159.75
L -37.45 -159.9
Q -37.75 -159.05 -38.25 -158.7 -38.75 -158.3 -39.5 -158.3 -40.45 -158.3 -41.1 -159 -41.75 -159.65 -41.85 -160.95
L -36.05 -160.95
M -39.55 -164.25
Q -38.55 -164.25 -37.9 -163.5 -37.5 -163 -37.4 -162.05
L -41.75 -162.05
Q -41.7 -163.05 -41.1 -163.65 -40.45 -164.25 -39.55 -164.25
M -33.15 -168.15
L -34.5 -168.15 -34.5 -157.4 -33.15 -157.4 -33.15 -168.15
M -26 -164.35
Q -26.3 -164.85 -27 -165.1 -27.7 -165.35 -28.6 -165.35 -29.2 -165.35 -29.75 -165.2 -30.25 -165.05 -30.6 -164.8 -31 -164.5 -31.25 -164.05 -31.45 -163.65 -31.45 -163.1 -31.45 -162.55 -31.2 -162.05 -30.9 -161.6 -30.35 -161.35 -29.75 -161.05 -28.3 -160.7 -27.25 -160.4 -26.95 -160.25 -26.6 -160 -26.6 -159.55 -26.6 -159.05 -27 -158.65 -27.45 -158.3 -28.35 -158.3 -29.25 -158.3 -29.75 -158.75 -30.25 -159.15 -30.4 -159.95
L -31.7 -159.7
Q -31.45 -158.5 -30.65 -157.85 -29.9 -157.2 -28.35 -157.2 -27.45 -157.2 -26.7 -157.55 -26 -157.85 -25.6 -158.45 -25.25 -159.05 -25.25 -159.7 -25.25 -160.35 -25.55 -160.8 -25.85 -161.25 -26.4 -161.5 -26.95 -161.75 -28.35 -162.1
L -29.55 -162.45
Q -29.85 -162.6 -30.05 -162.8 -30.2 -163 -30.2 -163.25 -30.2 -163.65 -29.8 -163.95 -29.4 -164.25 -28.5 -164.25 -27.75 -164.25 -27.3 -163.95 -26.9 -163.6 -26.8 -163
L -25.5 -163.15
Q -25.65 -163.95 -26 -164.35
M -98.45 -167.9
L -99.75 -167.1 -99.75 -165.2 -100.75 -165.2 -100.75 -164.15 -99.75 -164.15 -99.75 -159.7
Q -99.75 -158.5 -99.6 -158.1 -99.45 -157.75 -99.05 -157.5 -98.65 -157.3 -97.95 -157.3 -97.5 -157.3 -96.95 -157.4
L -97.15 -158.6 -97.7 -158.55
Q -98 -158.55 -98.15 -158.6 -98.3 -158.7 -98.4 -158.9 -98.45 -159.05 -98.45 -159.6
L -98.45 -164.15 -97.15 -164.15 -97.15 -165.2 -98.45 -165.2 -98.45 -167.9
M -11.4 -179
Q -11.4 -177.15 -10.4 -176.05 -9.4 -175 -7.7 -175 -6.35 -175 -5.45 -175.7 -4.6 -176.35 -4.25 -177.55
L -5.65 -177.7
Q -5.95 -176.85 -6.45 -176.5 -6.95 -176.1 -7.7 -176.1 -8.65 -176.1 -9.3 -176.8 -9.95 -177.45 -10.05 -178.75
L -4.25 -178.75 -4.25 -179.1
Q -4.25 -181.05 -5.2 -182.1 -6.2 -183.15 -7.75 -183.15 -9.4 -183.15 -10.4 -182.05 -11.4 -181 -11.4 -179
M -9.95 -179.85
Q -9.9 -180.85 -9.3 -181.45 -8.65 -182.05 -7.75 -182.05 -6.75 -182.05 -6.1 -181.3 -5.7 -180.8 -5.6 -179.85
L -9.95 -179.85
M -14.85 -184.9
L -14.85 -183 -15.85 -183 -15.85 -181.95 -14.85 -181.95 -14.85 -177.5
Q -14.85 -176.3 -14.7 -175.9 -14.55 -175.55 -14.15 -175.3 -13.75 -175.1 -13.05 -175.1 -12.6 -175.1 -12.05 -175.2
L -12.25 -176.4 -12.8 -176.35
Q -13.1 -176.35 -13.25 -176.4 -13.4 -176.5 -13.5 -176.7 -13.55 -176.85 -13.55 -177.4
L -13.55 -181.95 -12.25 -181.95 -12.25 -183 -13.55 -183 -13.55 -185.7 -14.85 -184.9
M -18.45 -180.5
L -18.45 -180.15
Q -19.2 -179.85 -20.8 -179.7
L -21.95 -179.5
Q -22.5 -179.35 -22.9 -179.05 -23.35 -178.75 -23.6 -178.3 -23.85 -177.8 -23.85 -177.25 -23.85 -176.3 -23.15 -175.65 -22.5 -175 -21.2 -175 -20.4 -175 -19.75 -175.3 -19.05 -175.55 -18.35 -176.15 -18.3 -175.6 -18.05 -175.2
L -16.7 -175.2
Q -16.95 -175.65 -17 -176.15 -17.1 -176.6 -17.1 -178.45
L -17.1 -180.2
Q -17.1 -181.1 -17.2 -181.45 -17.3 -181.95 -17.6 -182.35 -17.9 -182.7 -18.5 -182.9 -19.15 -183.15 -20.1 -183.15 -21.15 -183.15 -21.9 -182.9 -22.65 -182.6 -23.05 -182.1 -23.45 -181.6 -23.65 -180.75
L -22.35 -180.6
Q -22.15 -181.4 -21.7 -181.75 -21.25 -182.05 -20.3 -182.05 -19.3 -182.05 -18.8 -181.6 -18.45 -181.3 -18.45 -180.5
M -18.45 -178.6
Q -18.45 -177.75 -18.65 -177.3 -18.95 -176.7 -19.55 -176.4 -20.1 -176.05 -20.9 -176.05 -21.65 -176.05 -22.05 -176.4 -22.45 -176.75 -22.45 -177.3 -22.45 -177.65 -22.25 -177.9 -22.1 -178.2 -21.75 -178.35 -21.4 -178.5 -20.6 -178.6 -19.15 -178.8 -18.45 -179.1
L -18.45 -178.6
M -71.55 -176.8
Q -72.2 -177.45 -72.3 -178.75
L -66.5 -178.75 -66.5 -179.1
Q -66.5 -181.05 -67.45 -182.1 -68.45 -183.15 -70 -183.15 -71.65 -183.15 -72.65 -182.05 -73.65 -181 -73.65 -179 -73.65 -177.15 -72.65 -176.05 -71.65 -175 -69.95 -175 -68.6 -175 -67.7 -175.7 -66.85 -176.35 -66.5 -177.55
L -67.9 -177.7
Q -68.2 -176.85 -68.7 -176.5 -69.2 -176.1 -69.95 -176.1 -70.9 -176.1 -71.55 -176.8
M -72.2 -179.85
Q -72.15 -180.85 -71.55 -181.45 -70.9 -182.05 -70 -182.05 -69 -182.05 -68.35 -181.3 -67.95 -180.8 -67.85 -179.85
L -72.2 -179.85
M -75.2 -185.95
L -76.55 -185.95 -76.55 -175.2 -75.2 -175.2 -75.2 -185.95
M -60.5 -184.9
L -60.5 -183 -61.5 -183 -61.5 -181.95 -60.5 -181.95 -60.5 -177.5
Q -60.5 -176.3 -60.35 -175.9 -60.2 -175.55 -59.8 -175.3 -59.4 -175.1 -58.7 -175.1 -58.25 -175.1 -57.7 -175.2
L -57.9 -176.4 -58.45 -176.35
Q -58.75 -176.35 -58.9 -176.4 -59.05 -176.5 -59.15 -176.7 -59.2 -176.85 -59.2 -177.4
L -59.2 -181.95 -57.9 -181.95 -57.9 -183 -59.2 -183 -59.2 -185.7 -60.5 -184.9
M -50.85 -182.1
Q -51.85 -183.15 -53.45 -183.15 -54.9 -183.15 -55.9 -182.3 -57.1 -181.25 -57.1 -179.1 -57.1 -177.1 -56.1 -176.05 -55.1 -175 -53.45 -175 -52.45 -175 -51.55 -175.5 -50.7 -176 -50.25 -176.85 -49.8 -177.7 -49.8 -179.2 -49.8 -181.05 -50.85 -182.1
M -53.45 -182.05
Q -52.5 -182.05 -51.8 -181.3 -51.15 -180.6 -51.15 -179.15 -51.15 -177.6 -51.8 -176.85 -52.45 -176.1 -53.45 -176.1 -54.45 -176.1 -55.1 -176.85 -55.75 -177.6 -55.75 -179.1 -55.75 -180.6 -55.1 -181.3 -54.45 -182.05 -53.45 -182.05
M -32.15 -179
Q -32.15 -177.15 -31.15 -176.05 -30.15 -175 -28.45 -175 -27.1 -175 -26.2 -175.7 -25.35 -176.35 -25 -177.55
L -26.4 -177.7
Q -26.7 -176.85 -27.2 -176.5 -27.7 -176.1 -28.45 -176.1 -29.4 -176.1 -30.05 -176.8 -30.7 -177.45 -30.8 -178.75
L -25 -178.75 -25 -179.1
Q -25 -181.05 -25.95 -182.1 -26.95 -183.15 -28.5 -183.15 -30.15 -183.15 -31.15 -182.05 -32.15 -181 -32.15 -179
M -26.85 -181.3
Q -26.45 -180.8 -26.35 -179.85
L -30.7 -179.85
Q -30.65 -180.85 -30.05 -181.45 -29.4 -182.05 -28.5 -182.05 -27.5 -182.05 -26.85 -181.3
M -37.9 -180.7
Q -38.15 -181.85 -38.95 -182.5 -39.75 -183.15 -41 -183.15 -42 -183.15 -42.85 -182.7 -43.75 -182.2 -44.15 -181.25 -44.55 -180.3 -44.55 -179.05 -44.55 -177.1 -43.6 -176.05 -42.6 -175 -41.05 -175 -39.75 -175 -38.85 -175.8 -38 -176.55 -37.8 -177.9
L -39.1 -178.05
Q -39.2 -177.05 -39.75 -176.6 -40.25 -176.1 -41.05 -176.1 -42 -176.1 -42.6 -176.8 -43.2 -177.55 -43.2 -179.1 -43.2 -180.65 -42.6 -181.35 -41.95 -182.05 -40.95 -182.05 -40.3 -182.05 -39.85 -181.65 -39.4 -181.3 -39.2 -180.5
L -37.9 -180.7
M -33.8 -183.15
Q -34.25 -183.15 -34.65 -182.9 -35.05 -182.65 -35.5 -181.8
L -35.5 -183 -36.7 -183 -36.7 -175.2 -35.35 -175.2 -35.35 -179.25
Q -35.35 -180.1 -35.15 -180.8 -35 -181.25 -34.65 -181.55 -34.3 -181.8 -33.85 -181.8 -33.4 -181.8 -32.9 -181.5
L -32.45 -182.75
Q -33.15 -183.15 -33.8 -183.15
M -78.95 -182.05
Q -79.35 -182.6 -80 -182.85 -80.65 -183.15 -81.35 -183.15 -82.65 -183.15 -83.5 -182.1
L -83.5 -185.95 -84.8 -185.95 -84.8 -175.2 -83.6 -175.2 -83.6 -176.15
Q -82.8 -175 -81.45 -175 -80.05 -175 -79.05 -176.1 -78.05 -177.2 -78.05 -179.2 -78.05 -180.05 -78.3 -180.8 -78.55 -181.55 -78.95 -182.05
M -79.4 -179.1
Q -79.4 -177.6 -80.05 -176.85 -80.7 -176.1 -81.55 -176.1 -82.6 -176.1 -83.25 -177.15 -83.6 -177.75 -83.6 -179.15 -83.6 -180.55 -83 -181.3 -82.35 -182.05 -81.5 -182.05 -80.65 -182.05 -80 -181.35 -79.4 -180.6 -79.4 -179.1
M -92.05 -180.6
Q -91.85 -181.4 -91.4 -181.75 -90.95 -182.05 -90 -182.05 -89 -182.05 -88.5 -181.6 -88.15 -181.3 -88.15 -180.5
L -88.15 -180.15
Q -88.9 -179.85 -90.5 -179.7
L -91.65 -179.5
Q -92.2 -179.35 -92.6 -179.05 -93.05 -178.75 -93.3 -178.3 -93.55 -177.8 -93.55 -177.25 -93.55 -176.3 -92.85 -175.65 -92.2 -175 -90.9 -175 -90.1 -175 -89.45 -175.3 -88.75 -175.55 -88.05 -176.15 -88 -175.6 -87.75 -175.2
L -86.4 -175.2
Q -86.65 -175.65 -86.7 -176.15 -86.8 -176.6 -86.8 -178.45
L -86.8 -180.2
Q -86.8 -181.1 -86.9 -181.45 -87 -181.95 -87.3 -182.35 -87.6 -182.7 -88.2 -182.9 -88.85 -183.15 -89.8 -183.15 -90.85 -183.15 -91.6 -182.9 -92.35 -182.6 -92.75 -182.1 -93.15 -181.6 -93.35 -180.75
L -92.05 -180.6
M -92.15 -177.3
Q -92.15 -177.65 -91.95 -177.9 -91.8 -178.2 -91.45 -178.35 -91.1 -178.5 -90.3 -178.6 -88.85 -178.8 -88.15 -179.1
L -88.15 -178.6
Q -88.15 -177.75 -88.35 -177.3 -88.65 -176.7 -89.25 -176.4 -89.8 -176.05 -90.6 -176.05 -91.35 -176.05 -91.75 -176.4 -92.15 -176.75 -92.15 -177.3
M -144.1 -185.95
L -145.45 -185.95 -145.45 -175.2 -144.1 -175.2 -144.1 -185.95
M -139.25 -176.65
Q -139.5 -177.6 -139.8 -178.45
L -141.45 -183 -142.85 -183 -139.9 -175.2 -140 -174.85 -140.45 -173.9
Q -140.6 -173.6 -140.85 -173.45 -141.1 -173.3 -141.55 -173.3 -141.9 -173.3 -142.3 -173.45
L -142.15 -172.2
Q -141.7 -172.05 -141.3 -172.05 -140.7 -172.05 -140.25 -172.35 -139.8 -172.65 -139.45 -173.3 -139.15 -173.8 -138.7 -175.05
L -135.75 -183 -137.05 -183 -138.7 -178.45
Q -139.05 -177.6 -139.25 -176.65
M -129.15 -185.95
L -130.45 -185.95 -130.45 -175.2 -129.25 -175.2 -129.25 -176.15
Q -128.45 -175 -127.1 -175 -125.7 -175 -124.7 -176.1 -123.7 -177.2 -123.7 -179.2 -123.7 -180.05 -123.95 -180.8 -124.2 -181.55 -124.6 -182.05 -125 -182.6 -125.65 -182.85 -126.3 -183.15 -127 -183.15 -128.3 -183.15 -129.15 -182.1
L -129.15 -185.95
M -128.65 -181.3
Q -128 -182.05 -127.15 -182.05 -126.3 -182.05 -125.65 -181.35 -125.05 -180.6 -125.05 -179.1 -125.05 -177.6 -125.7 -176.85 -126.35 -176.1 -127.2 -176.1 -128.25 -176.1 -128.9 -177.15 -129.25 -177.75 -129.25 -179.15 -129.25 -180.55 -128.65 -181.3
M -112.2 -176.8
Q -112.85 -177.45 -112.95 -178.75
L -107.15 -178.75 -107.15 -179.1
Q -107.15 -181.05 -108.1 -182.1 -109.1 -183.15 -110.65 -183.15 -112.3 -183.15 -113.3 -182.05 -114.3 -181 -114.3 -179 -114.3 -177.15 -113.3 -176.05 -112.3 -175 -110.6 -175 -109.25 -175 -108.35 -175.7 -107.5 -176.35 -107.15 -177.55
L -108.55 -177.7
Q -108.85 -176.85 -109.35 -176.5 -109.85 -176.1 -110.6 -176.1 -111.55 -176.1 -112.2 -176.8
M -112.85 -179.85
Q -112.8 -180.85 -112.2 -181.45 -111.55 -182.05 -110.65 -182.05 -109.65 -182.05 -109 -181.3 -108.6 -180.8 -108.5 -179.85
L -112.85 -179.85
M -118.9 -176.1
Q -119.85 -176.1 -120.5 -176.8 -121.15 -177.45 -121.25 -178.75
L -115.45 -178.75 -115.45 -179.1
Q -115.45 -181.05 -116.4 -182.1 -117.4 -183.15 -118.95 -183.15 -120.6 -183.15 -121.6 -182.05 -122.6 -181 -122.6 -179 -122.6 -177.15 -121.6 -176.05 -120.6 -175 -118.9 -175 -117.55 -175 -116.65 -175.7 -115.8 -176.35 -115.45 -177.55
L -116.85 -177.7
Q -117.15 -176.85 -117.65 -176.5 -118.15 -176.1 -118.9 -176.1
M -121.15 -179.85
Q -121.1 -180.85 -120.5 -181.45 -119.85 -182.05 -118.95 -182.05 -117.95 -182.05 -117.3 -181.3 -116.9 -180.8 -116.8 -179.85
L -121.15 -179.85
M -99.7 -182.25
Q -100 -182.65 -100.6 -182.9 -101.2 -183.15 -101.9 -183.15 -103.5 -183.15 -104.35 -181.85
L -104.35 -183 -105.55 -183 -105.55 -175.2 -104.25 -175.2 -104.25 -179.45
Q -104.25 -180.95 -103.65 -181.5 -103 -182 -102.2 -182 -101.65 -182 -101.25 -181.75 -100.85 -181.55 -100.7 -181.15 -100.55 -180.75 -100.55 -179.95
L -100.55 -175.2 -99.25 -175.2 -99.25 -180
Q -99.25 -180.9 -99.3 -181.25 -99.45 -181.85 -99.7 -182.25
M -158.85 -183.15
Q -160.3 -183.15 -161.3 -182.3 -162.5 -181.25 -162.5 -179.1 -162.5 -177.1 -161.5 -176.05 -160.5 -175 -158.85 -175 -157.85 -175 -156.95 -175.5 -156.1 -176 -155.65 -176.85 -155.2 -177.7 -155.2 -179.2 -155.2 -181.05 -156.25 -182.1 -157.25 -183.15 -158.85 -183.15
M -160.5 -181.3
Q -159.85 -182.05 -158.85 -182.05 -157.9 -182.05 -157.2 -181.3 -156.55 -180.6 -156.55 -179.15 -156.55 -177.6 -157.2 -176.85 -157.85 -176.1 -158.85 -176.1 -159.85 -176.1 -160.5 -176.85 -161.15 -177.6 -161.15 -179.1 -161.15 -180.6 -160.5 -181.3
M -152.5 -183
L -153.7 -183 -153.7 -175.2 -152.4 -175.2 -152.4 -179.45
Q -152.4 -180.95 -151.8 -181.5 -151.15 -182 -150.35 -182 -149.8 -182 -149.4 -181.75 -149 -181.55 -148.85 -181.15 -148.7 -180.75 -148.7 -179.95
L -148.7 -175.2 -147.4 -175.2 -147.4 -180
Q -147.4 -180.9 -147.45 -181.25 -147.6 -181.85 -147.85 -182.25 -148.15 -182.65 -148.75 -182.9 -149.35 -183.15 -150.05 -183.15 -151.65 -183.15 -152.5 -181.85
L -152.5 -183
M -53.4 -193
L -52.65 -193
Q -52.7 -192.35 -52.9 -191.95 -53.1 -191.6 -53.5 -191.45
L -53.15 -190.9
Q -52.5 -191.15 -52.2 -191.65 -51.9 -192.15 -51.9 -193
L -51.9 -194.5 -53.4 -194.5 -53.4 -193
M -5.25 -199.9
Q -6.25 -200.95 -7.8 -200.95 -9.45 -200.95 -10.45 -199.85 -11.45 -198.8 -11.45 -196.8 -11.45 -194.95 -10.45 -193.85 -9.45 -192.8 -7.75 -192.8 -6.4 -192.8 -5.5 -193.5 -4.65 -194.15 -4.3 -195.35
L -5.7 -195.5
Q -6 -194.65 -6.5 -194.3 -7 -193.9 -7.75 -193.9 -8.7 -193.9 -9.35 -194.6 -10 -195.25 -10.1 -196.55
L -4.3 -196.55 -4.3 -196.9
Q -4.3 -198.85 -5.25 -199.9
M -9.35 -199.25
Q -8.7 -199.85 -7.8 -199.85 -6.8 -199.85 -6.15 -199.1 -5.75 -198.6 -5.65 -197.65
L -10 -197.65
Q -9.95 -198.65 -9.35 -199.25
M -12.2 -200.8
L -13.55 -200.8 -15.75 -194.55 -17.9 -200.8 -19.3 -200.8 -16.35 -193 -15.1 -193 -12.2 -200.8
M -23.7 -203.75
L -25.1 -203.75 -25.1 -193 -23.7 -193 -23.7 -203.75
M -21.35 -199.95
L -20.55 -199.95 -20.2 -201.95 -20.2 -203.75 -21.7 -203.75 -21.7 -201.95 -21.35 -199.95
M -32.2 -199.9
Q -33.2 -200.95 -34.8 -200.95 -36.25 -200.95 -37.25 -200.1 -38.45 -199.05 -38.45 -196.9 -38.45 -194.9 -37.45 -193.85 -36.45 -192.8 -34.8 -192.8 -33.8 -192.8 -32.9 -193.3 -32.05 -193.8 -31.6 -194.65 -31.15 -195.5 -31.15 -197 -31.15 -198.85 -32.2 -199.9
M -36.45 -199.1
Q -35.8 -199.85 -34.8 -199.85 -33.85 -199.85 -33.15 -199.1 -32.5 -198.4 -32.5 -196.95 -32.5 -195.4 -33.15 -194.65 -33.8 -193.9 -34.8 -193.9 -35.8 -193.9 -36.45 -194.65 -37.1 -195.4 -37.1 -196.9 -37.1 -198.4 -36.45 -199.1
M -43.85 -198.05
Q -44.15 -198.2 -44.35 -198.4 -44.5 -198.6 -44.5 -198.85 -44.5 -199.25 -44.1 -199.55 -43.7 -199.85 -42.8 -199.85 -42.05 -199.85 -41.6 -199.55 -41.2 -199.2 -41.1 -198.6
L -39.8 -198.75
Q -39.95 -199.55 -40.3 -199.95 -40.6 -200.45 -41.3 -200.7 -42 -200.95 -42.9 -200.95 -43.5 -200.95 -44.05 -200.8 -44.55 -200.65 -44.9 -200.4 -45.3 -200.1 -45.55 -199.65 -45.75 -199.25 -45.75 -198.7 -45.75 -198.15 -45.5 -197.65 -45.2 -197.2 -44.65 -196.95 -44.05 -196.65 -42.6 -196.3 -41.55 -196 -41.25 -195.85 -40.9 -195.6 -40.9 -195.15 -40.9 -194.65 -41.3 -194.25 -41.75 -193.9 -42.65 -193.9 -43.55 -193.9 -44.05 -194.35 -44.55 -194.75 -44.7 -195.55
L -46 -195.3
Q -45.75 -194.1 -44.95 -193.45 -44.2 -192.8 -42.65 -192.8 -41.75 -192.8 -41 -193.15 -40.3 -193.45 -39.9 -194.05 -39.55 -194.65 -39.55 -195.3 -39.55 -195.95 -39.85 -196.4 -40.15 -196.85 -40.7 -197.1 -41.25 -197.35 -42.65 -197.7
L -43.85 -198.05
M -53.75 -200.8
L -55.05 -200.8 -56.7 -196.25
Q -57.05 -195.4 -57.25 -194.45 -57.5 -195.4 -57.8 -196.25
L -59.45 -200.8 -60.85 -200.8 -57.9 -193 -58 -192.65 -58.45 -191.7
Q -58.6 -191.4 -58.85 -191.25 -59.1 -191.1 -59.55 -191.1 -59.9 -191.1 -60.3 -191.25
L -60.15 -190
Q -59.7 -189.85 -59.3 -189.85 -58.7 -189.85 -58.25 -190.15 -57.8 -190.45 -57.45 -191.1 -57.15 -191.6 -56.7 -192.85
L -53.75 -200.8
M -62.1 -203.75
L -63.45 -203.75 -63.45 -193 -62.1 -193 -62.1 -203.75
M -65.95 -199.9
Q -66.95 -200.95 -68.5 -200.95 -70.15 -200.95 -71.15 -199.85 -72.15 -198.8 -72.15 -196.8 -72.15 -194.95 -71.15 -193.85 -70.15 -192.8 -68.45 -192.8 -67.1 -192.8 -66.2 -193.5 -65.35 -194.15 -65 -195.35
L -66.4 -195.5
Q -66.7 -194.65 -67.2 -194.3 -67.7 -193.9 -68.45 -193.9 -69.4 -193.9 -70.05 -194.6 -70.7 -195.25 -70.8 -196.55
L -65 -196.55 -65 -196.9
Q -65 -198.85 -65.95 -199.9
M -68.5 -199.85
Q -67.5 -199.85 -66.85 -199.1 -66.45 -198.6 -66.35 -197.65
L -70.7 -197.65
Q -70.65 -198.65 -70.05 -199.25 -69.4 -199.85 -68.5 -199.85
M -76.6 -200.8
L -76.6 -199.75 -75.6 -199.75 -75.6 -195.3
Q -75.6 -194.1 -75.45 -193.7 -75.3 -193.35 -74.9 -193.1 -74.5 -192.9 -73.8 -192.9 -73.35 -192.9 -72.8 -193
L -73 -194.2 -73.55 -194.15
Q -73.85 -194.15 -74 -194.2 -74.15 -194.3 -74.25 -194.5 -74.3 -194.65 -74.3 -195.2
L -74.3 -199.75 -73 -199.75 -73 -200.8 -74.3 -200.8 -74.3 -203.5 -75.6 -202.7 -75.6 -200.8 -76.6 -200.8
M -82.45 -199.55
Q -82 -199.85 -81.05 -199.85 -80.05 -199.85 -79.55 -199.4 -79.2 -199.1 -79.2 -198.3
L -79.2 -197.95
Q -79.95 -197.65 -81.55 -197.5
L -82.7 -197.3
Q -83.25 -197.15 -83.65 -196.85 -84.1 -196.55 -84.35 -196.1 -84.6 -195.6 -84.6 -195.05 -84.6 -194.1 -83.9 -193.45 -83.25 -192.8 -81.95 -192.8 -81.15 -192.8 -80.5 -193.1 -79.8 -193.35 -79.1 -193.95 -79.05 -193.4 -78.8 -193
L -77.45 -193
Q -77.7 -193.45 -77.75 -193.95 -77.85 -194.4 -77.85 -196.25
L -77.85 -198
Q -77.85 -198.9 -77.95 -199.25 -78.05 -199.75 -78.35 -200.15 -78.65 -200.5 -79.25 -200.7 -79.9 -200.95 -80.85 -200.95 -81.9 -200.95 -82.65 -200.7 -83.4 -200.4 -83.8 -199.9 -84.2 -199.4 -84.4 -198.55
L -83.1 -198.4
Q -82.9 -199.2 -82.45 -199.55
M -79.2 -196.9
L -79.2 -196.4
Q -79.2 -195.55 -79.4 -195.1 -79.7 -194.5 -80.3 -194.2 -80.85 -193.85 -81.65 -193.85 -82.4 -193.85 -82.8 -194.2 -83.2 -194.55 -83.2 -195.1 -83.2 -195.45 -83 -195.7 -82.85 -196 -82.5 -196.15 -82.15 -196.3 -81.35 -196.4 -79.9 -196.6 -79.2 -196.9
M -86.15 -203.75
L -87.5 -203.75 -87.5 -193 -86.15 -193 -86.15 -203.75
M -92.75 -200.8
L -94.05 -200.8 -95.7 -196.25
Q -96.05 -195.4 -96.25 -194.45 -96.5 -195.4 -96.8 -196.25
L -98.45 -200.8 -99.85 -200.8 -96.9 -193 -97 -192.65 -97.45 -191.7
Q -97.6 -191.4 -97.85 -191.25 -98.1 -191.1 -98.55 -191.1 -98.9 -191.1 -99.3 -191.25
L -99.15 -190
Q -98.7 -189.85 -98.3 -189.85 -97.7 -189.85 -97.25 -190.15 -96.8 -190.45 -96.45 -191.1 -96.15 -191.6 -95.7 -192.85
L -92.75 -200.8
M -106.7 -199.65
Q -106.9 -199.25 -106.9 -198.7 -106.9 -198.15 -106.65 -197.65 -106.35 -197.2 -105.8 -196.95 -105.2 -196.65 -103.75 -196.3 -102.7 -196 -102.4 -195.85 -102.05 -195.6 -102.05 -195.15 -102.05 -194.65 -102.45 -194.25 -102.9 -193.9 -103.8 -193.9 -104.7 -193.9 -105.2 -194.35 -105.7 -194.75 -105.85 -195.55
L -107.15 -195.3
Q -106.9 -194.1 -106.1 -193.45 -105.35 -192.8 -103.8 -192.8 -102.9 -192.8 -102.15 -193.15 -101.45 -193.45 -101.05 -194.05 -100.7 -194.65 -100.7 -195.3 -100.7 -195.95 -101 -196.4 -101.3 -196.85 -101.85 -197.1 -102.4 -197.35 -103.8 -197.7
L -105 -198.05
Q -105.3 -198.2 -105.5 -198.4 -105.65 -198.6 -105.65 -198.85 -105.65 -199.25 -105.25 -199.55 -104.85 -199.85 -103.95 -199.85 -103.2 -199.85 -102.75 -199.55 -102.35 -199.2 -102.25 -198.6
L -100.95 -198.75
Q -101.1 -199.55 -101.45 -199.95 -101.75 -200.45 -102.45 -200.7 -103.15 -200.95 -104.05 -200.95 -104.65 -200.95 -105.2 -200.8 -105.7 -200.65 -106.05 -200.4 -106.45 -200.1 -106.7 -199.65
M -113.6 -200.8
L -114.95 -200.8 -114.95 -195.95
Q -114.95 -195.1 -114.85 -194.75 -114.75 -194.15 -114.45 -193.75 -114.15 -193.35 -113.55 -193.1 -112.95 -192.8 -112.3 -192.8 -110.7 -192.8 -109.8 -194.15
L -109.8 -193 -108.65 -193 -108.65 -200.8 -109.95 -200.8 -109.95 -196.6
Q -109.95 -195.6 -110.15 -195.1 -110.4 -194.55 -110.9 -194.25 -111.4 -193.95 -112 -193.95 -112.6 -193.95 -113 -194.25 -113.4 -194.55 -113.55 -195.05 -113.6 -195.45 -113.6 -196.45
L -113.6 -200.8
M -121.9 -199.9
L -121.9 -203.75 -123.2 -203.75 -123.2 -193 -122 -193 -122 -193.95
Q -121.2 -192.8 -119.85 -192.8 -118.45 -192.8 -117.45 -193.9 -116.45 -195 -116.45 -197 -116.45 -197.85 -116.7 -198.6 -116.95 -199.35 -117.35 -199.85 -117.75 -200.4 -118.4 -200.65 -119.05 -200.95 -119.75 -200.95 -121.05 -200.95 -121.9 -199.9
M -121.4 -199.1
Q -120.75 -199.85 -119.9 -199.85 -119.05 -199.85 -118.4 -199.15 -117.8 -198.4 -117.8 -196.9 -117.8 -195.4 -118.45 -194.65 -119.1 -193.9 -119.95 -193.9 -121 -193.9 -121.65 -194.95 -122 -195.55 -122 -196.95 -122 -198.35 -121.4 -199.1
M -134.2 -200.8
L -135.6 -200.8 -132.65 -193 -132.75 -192.65 -133.2 -191.7
Q -133.35 -191.4 -133.6 -191.25 -133.85 -191.1 -134.3 -191.1 -134.65 -191.1 -135.05 -191.25
L -134.9 -190
Q -134.45 -189.85 -134.05 -189.85 -133.45 -189.85 -133 -190.15 -132.55 -190.45 -132.2 -191.1 -131.9 -191.6 -131.45 -192.85
L -128.5 -200.8 -129.8 -200.8 -131.45 -196.25
Q -131.8 -195.4 -132 -194.45 -132.25 -195.4 -132.55 -196.25
L -134.2 -200.8
M -136.85 -203.75
L -138.2 -203.75 -138.2 -193 -136.85 -193 -136.85 -203.75
M -140.15 -203.75
L -141.5 -203.75 -141.5 -193 -140.15 -193 -140.15 -203.75
M -148.25 -200.7
Q -149 -200.4 -149.4 -199.9 -149.8 -199.4 -150 -198.55
L -148.7 -198.4
Q -148.5 -199.2 -148.05 -199.55 -147.6 -199.85 -146.65 -199.85 -145.65 -199.85 -145.15 -199.4 -144.8 -199.1 -144.8 -198.3
L -144.8 -197.95
Q -145.55 -197.65 -147.15 -197.5
L -148.3 -197.3
Q -148.85 -197.15 -149.25 -196.85 -149.7 -196.55 -149.95 -196.1 -150.2 -195.6 -150.2 -195.05 -150.2 -194.1 -149.5 -193.45 -148.85 -192.8 -147.55 -192.8 -146.75 -192.8 -146.1 -193.1 -145.4 -193.35 -144.7 -193.95 -144.65 -193.4 -144.4 -193
L -143.05 -193
Q -143.3 -193.45 -143.35 -193.95 -143.45 -194.4 -143.45 -196.25
L -143.45 -198
Q -143.45 -198.9 -143.55 -199.25 -143.65 -199.75 -143.95 -200.15 -144.25 -200.5 -144.85 -200.7 -145.5 -200.95 -146.45 -200.95 -147.5 -200.95 -148.25 -200.7
M -144.8 -196.4
Q -144.8 -195.55 -145 -195.1 -145.3 -194.5 -145.9 -194.2 -146.45 -193.85 -147.25 -193.85 -148 -193.85 -148.4 -194.2 -148.8 -194.55 -148.8 -195.1 -148.8 -195.45 -148.6 -195.7 -148.45 -196 -148.1 -196.15 -147.75 -196.3 -146.95 -196.4 -145.5 -196.6 -144.8 -196.9
L -144.8 -196.4
M -4.4 -216.85
Q -4.55 -217.45 -4.8 -217.85 -5.1 -218.25 -5.7 -218.5 -6.3 -218.75 -7 -218.75 -8.6 -218.75 -9.45 -217.45
L -9.45 -218.6 -10.65 -218.6 -10.65 -210.8 -9.35 -210.8 -9.35 -215.05
Q -9.35 -216.55 -8.75 -217.1 -8.1 -217.6 -7.3 -217.6 -6.75 -217.6 -6.35 -217.35 -5.95 -217.15 -5.8 -216.75 -5.65 -216.35 -5.65 -215.55
L -5.65 -210.8 -4.35 -210.8 -4.35 -215.6
Q -4.35 -216.5 -4.4 -216.85
M -152.3 -199.9
Q -153.3 -200.95 -154.85 -200.95 -156.5 -200.95 -157.5 -199.85 -158.5 -198.8 -158.5 -196.8 -158.5 -194.95 -157.5 -193.85 -156.5 -192.8 -154.8 -192.8 -153.45 -192.8 -152.55 -193.5 -151.7 -194.15 -151.35 -195.35
L -152.75 -195.5
Q -153.05 -194.65 -153.55 -194.3 -154.05 -193.9 -154.8 -193.9 -155.75 -193.9 -156.4 -194.6 -157.05 -195.25 -157.15 -196.55
L -151.35 -196.55 -151.35 -196.9
Q -151.35 -198.85 -152.3 -199.9
M -156.4 -199.25
Q -155.75 -199.85 -154.85 -199.85 -153.85 -199.85 -153.2 -199.1 -152.8 -198.6 -152.7 -197.65
L -157.05 -197.65
Q -157 -198.65 -156.4 -199.25
M -161.85 -199.6
L -161.85 -200.8 -163.05 -200.8 -163.05 -193 -161.7 -193 -161.7 -197.05
Q -161.7 -197.9 -161.5 -198.6 -161.35 -199.05 -161 -199.35 -160.65 -199.6 -160.2 -199.6 -159.75 -199.6 -159.25 -199.3
L -158.8 -200.55
Q -159.5 -200.95 -160.15 -200.95 -160.6 -200.95 -161 -200.7 -161.4 -200.45 -161.85 -199.6
M -15.75 -218.75
Q -17.4 -218.75 -18.4 -217.65 -19.4 -216.6 -19.4 -214.6 -19.4 -212.75 -18.4 -211.65 -17.4 -210.6 -15.7 -210.6 -14.35 -210.6 -13.45 -211.3 -12.6 -211.95 -12.25 -213.15
L -13.65 -213.3
Q -13.95 -212.45 -14.45 -212.1 -14.95 -211.7 -15.7 -211.7 -16.65 -211.7 -17.3 -212.4 -17.95 -213.05 -18.05 -214.35
L -12.25 -214.35 -12.25 -214.7
Q -12.25 -216.65 -13.2 -217.7 -14.2 -218.75 -15.75 -218.75
M -17.3 -217.05
Q -16.65 -217.65 -15.75 -217.65 -14.75 -217.65 -14.1 -216.9 -13.7 -216.4 -13.6 -215.45
L -17.95 -215.45
Q -17.9 -216.45 -17.3 -217.05
M -21.5 -217.7
Q -22.5 -218.75 -24.05 -218.75 -25.7 -218.75 -26.7 -217.65 -27.7 -216.6 -27.7 -214.6 -27.7 -212.75 -26.7 -211.65 -25.7 -210.6 -24 -210.6 -22.65 -210.6 -21.75 -211.3 -20.9 -211.95 -20.55 -213.15
L -21.95 -213.3
Q -22.25 -212.45 -22.75 -212.1 -23.25 -211.7 -24 -211.7 -24.95 -211.7 -25.6 -212.4 -26.25 -213.05 -26.35 -214.35
L -20.55 -214.35 -20.55 -214.7
Q -20.55 -216.65 -21.5 -217.7
M -24.05 -217.65
Q -23.05 -217.65 -22.4 -216.9 -22 -216.4 -21.9 -215.45
L -26.25 -215.45
Q -26.2 -216.45 -25.6 -217.05 -24.95 -217.65 -24.05 -217.65
M -29.05 -216.4
Q -29.3 -217.15 -29.7 -217.65 -30.1 -218.2 -30.75 -218.45 -31.4 -218.75 -32.1 -218.75 -33.4 -218.75 -34.25 -217.7
L -34.25 -221.55 -35.55 -221.55 -35.55 -210.8 -34.35 -210.8 -34.35 -211.75
Q -33.55 -210.6 -32.2 -210.6 -30.8 -210.6 -29.8 -211.7 -28.8 -212.8 -28.8 -214.8 -28.8 -215.65 -29.05 -216.4
M -32.25 -217.65
Q -31.4 -217.65 -30.75 -216.95 -30.15 -216.2 -30.15 -214.7 -30.15 -213.2 -30.8 -212.45 -31.45 -211.7 -32.3 -211.7 -33.35 -211.7 -34 -212.75 -34.35 -213.35 -34.35 -214.75 -34.35 -216.15 -33.75 -216.9 -33.1 -217.65 -32.25 -217.65
M -42.25 -217.7
Q -43.25 -218.75 -44.8 -218.75 -46.45 -218.75 -47.45 -217.65 -48.45 -216.6 -48.45 -214.6 -48.45 -212.75 -47.45 -211.65 -46.45 -210.6 -44.75 -210.6 -43.4 -210.6 -42.5 -211.3 -41.65 -211.95 -41.3 -213.15
L -42.7 -213.3
Q -43 -212.45 -43.5 -212.1 -44 -211.7 -44.75 -211.7 -45.7 -211.7 -46.35 -212.4 -47 -213.05 -47.1 -214.35
L -41.3 -214.35 -41.3 -214.7
Q -41.3 -216.65 -42.25 -217.7
M -44.8 -217.65
Q -43.8 -217.65 -43.15 -216.9 -42.75 -216.4 -42.65 -215.45
L -47 -215.45
Q -46.95 -216.45 -46.35 -217.05 -45.7 -217.65 -44.8 -217.65
M -49.2 -218.6
L -50.55 -218.6 -52.75 -212.35 -54.9 -218.6 -56.3 -218.6 -53.35 -210.8 -52.1 -210.8 -49.2 -218.6
M -58.35 -217.75
L -57.55 -217.75 -57.2 -219.75 -57.2 -221.55 -58.7 -221.55 -58.7 -219.75 -58.35 -217.75
M -62.1 -221.55
L -62.1 -210.8 -60.7 -210.8 -60.7 -221.55 -62.1 -221.55
M -74.6 -210.8
L -73.1 -210.8 -73.1 -212.3 -74.6 -212.3 -74.6 -210.8
M -83.7 -214.6
Q -83.7 -212.75 -82.7 -211.65 -81.7 -210.6 -80 -210.6 -78.65 -210.6 -77.75 -211.3 -76.9 -211.95 -76.55 -213.15
L -77.95 -213.3
Q -78.25 -212.45 -78.75 -212.1 -79.25 -211.7 -80 -211.7 -80.95 -211.7 -81.6 -212.4 -82.25 -213.05 -82.35 -214.35
L -76.55 -214.35 -76.55 -214.7
Q -76.55 -216.65 -77.5 -217.7 -78.5 -218.75 -80.05 -218.75 -81.7 -218.75 -82.7 -217.65 -83.7 -216.6 -83.7 -214.6
M -82.25 -215.45
Q -82.2 -216.45 -81.6 -217.05 -80.95 -217.65 -80.05 -217.65 -79.05 -217.65 -78.4 -216.9 -78 -216.4 -77.9 -215.45
L -82.25 -215.45
M -86.6 -210.8
L -85.25 -210.8 -85.25 -221.55 -86.6 -221.55 -86.6 -210.8
M -88.5 -216.8
Q -88.9 -217.75 -89.65 -218.25 -90.4 -218.75 -91.4 -218.75 -92.15 -218.75 -92.7 -218.45 -93.25 -218.15 -93.65 -217.55
L -93.65 -218.6 -94.85 -218.6 -94.85 -207.8 -93.55 -207.8 -93.55 -211.6
Q -93.2 -211.2 -92.7 -210.9 -92.15 -210.6 -91.5 -210.6 -90.6 -210.6 -89.8 -211.15 -88.95 -211.65 -88.55 -212.6 -88.1 -213.55 -88.1 -214.75 -88.1 -215.85 -88.5 -216.8
M -89.45 -214.75
Q -89.45 -213.2 -90.1 -212.45 -90.7 -211.7 -91.6 -211.7 -92.45 -211.7 -93.05 -212.45 -93.65 -213.15 -93.65 -214.65 -93.65 -216.15 -93 -216.95 -92.35 -217.7 -91.55 -217.7 -90.7 -217.7 -90.05 -217 -89.45 -216.25 -89.45 -214.75
M -103.65 -214.7
Q -103.65 -212.7 -102.65 -211.65 -101.65 -210.6 -100 -210.6 -99 -210.6 -98.1 -211.1 -97.25 -211.6 -96.8 -212.45 -96.35 -213.3 -96.35 -214.8 -96.35 -216.65 -97.4 -217.7 -98.4 -218.75 -100 -218.75 -101.45 -218.75 -102.45 -217.9 -103.65 -216.85 -103.65 -214.7
M -101.65 -212.45
Q -102.3 -213.2 -102.3 -214.7 -102.3 -216.2 -101.65 -216.9 -101 -217.65 -100 -217.65 -99.05 -217.65 -98.35 -216.9 -97.7 -216.2 -97.7 -214.75 -97.7 -213.2 -98.35 -212.45 -99 -211.7 -100 -211.7 -101 -211.7 -101.65 -212.45
M -108.25 -218.75
Q -109.9 -218.75 -110.9 -217.65 -111.9 -216.6 -111.9 -214.6 -111.9 -212.75 -110.9 -211.65 -109.9 -210.6 -108.2 -210.6 -106.85 -210.6 -105.95 -211.3 -105.1 -211.95 -104.75 -213.15
L -106.15 -213.3
Q -106.45 -212.45 -106.95 -212.1 -107.45 -211.7 -108.2 -211.7 -109.15 -211.7 -109.8 -212.4 -110.45 -213.05 -110.55 -214.35
L -104.75 -214.35 -104.75 -214.7
Q -104.75 -216.65 -105.7 -217.7 -106.7 -218.75 -108.25 -218.75
M -108.25 -217.65
Q -107.25 -217.65 -106.6 -216.9 -106.2 -216.4 -106.1 -215.45
L -110.45 -215.45
Q -110.4 -216.45 -109.8 -217.05 -109.15 -217.65 -108.25 -217.65
M -113.4 -216.8
Q -113.8 -217.75 -114.55 -218.25 -115.3 -218.75 -116.3 -218.75 -117.05 -218.75 -117.6 -218.45 -118.15 -218.15 -118.55 -217.55
L -118.55 -218.6 -119.75 -218.6 -119.75 -207.8 -118.45 -207.8 -118.45 -211.6
Q -118.1 -211.2 -117.6 -210.9 -117.05 -210.6 -116.4 -210.6 -115.5 -210.6 -114.7 -211.15 -113.85 -211.65 -113.45 -212.6 -113 -213.55 -113 -214.75 -113 -215.85 -113.4 -216.8
M -117.9 -216.95
Q -117.25 -217.7 -116.45 -217.7 -115.6 -217.7 -114.95 -217 -114.35 -216.25 -114.35 -214.75 -114.35 -213.2 -115 -212.45 -115.6 -211.7 -116.5 -211.7 -117.35 -211.7 -117.95 -212.45 -118.55 -213.15 -118.55 -214.65 -118.55 -216.15 -117.9 -216.95
M -127.2 -210.8
L -125.9 -210.8 -125.9 -218.6 -127.2 -218.6 -127.2 -210.8
M -125.9 -220
L -125.9 -221.55 -127.2 -221.55 -127.2 -220 -125.9 -220
M -130.8 -221.55
L -130.8 -217.15 -136.4 -217.15 -136.4 -221.55 -137.8 -221.55 -137.8 -210.8 -136.4 -210.8 -136.4 -215.85 -130.8 -215.85 -130.8 -210.8 -129.4 -210.8 -129.4 -221.55 -130.8 -221.55 Z"/>
</g>
</defs>

<g transform="matrix( 1, 0, 0, 1, 0,0) ">
<use xlink:href="#Layer0_0_FILL"/>
</g>
</svg>
