
<svg xmlns="http://www.w3.org/2000/svg" version="1.1" xmlns:xlink="http://www.w3.org/1999/xlink" preserveAspectRatio="none" x="0px" y="0px" width="30px" height="30px" viewBox="0 0 30 30">
<path fill="#EBD554" stroke="none" d="
M 0 0
L 0 30 30 30 30 0 Z"/>
<path fill="#9F9039" stroke="none" d="
M 30 1.95
L 30 0 0 0 0 1.95 1.95 1.95 1.95 4.95 0 4.95 0 6.95 1.95 6.95 2 7 2 6.95 6.95 6.95 6.95 9.95 0 9.95 0 11.95 1.95 11.95 1.95 14.95 0 14.95 0 16.95 1.95 16.95 2 17 2 16.95 6.95 16.95 6.95 19.95 0 19.95 0 21.95 1.95 21.95 1.95 24.95 0 24.95 0 26.95 6.95 26.95 6.95 29.95 2 29.95 2 29.9 1.95 29.95 0 29.95 0 30 30 30 30 29.95 28.9 29.95 28.9 26.95 30 26.95 30 24.95 23.9 24.95 23.9 21.95 30 21.95 30 19.95 28.9 19.95 28.9 16.95 30 16.95 30 14.95 23.9 14.95 23.9 11.95 30 11.95 30 9.95 28.9 9.95 28.9 6.95 30 6.95 30 4.95 23.9 4.95 23.9 1.95 30 1.95
M 21.95 1.95
L 21.95 4.95 13.9 4.95 13.9 1.95 21.95 1.95
M 26.95 6.95
L 26.95 9.95 18.9 9.95 18.9 6.95 26.95 6.95
M 26.95 16.95
L 26.95 19.95 18.9 19.95 18.9 16.95 26.95 16.95
M 21.95 11.95
L 21.95 14.95 13.9 14.95 13.9 11.95 21.95 11.95
M 16.95 6.95
L 16.95 9.95 8.95 9.95 8.95 6.95 16.95 6.95
M 11.95 1.95
L 11.95 4.95 3.95 4.95 3.95 1.95 11.95 1.95
M 8.95 19.95
L 8.95 16.95 16.95 16.95 16.95 19.95 8.95 19.95
M 11.95 11.95
L 11.95 14.95 3.95 14.95 3.95 11.95 11.95 11.95
M 3.95 21.95
L 11.95 21.95 11.95 24.95 3.95 24.95 3.95 21.95
M 18.9 29.95
L 18.9 26.95 26.95 26.95 26.95 29.95 18.9 29.95
M 16.95 26.95
L 16.95 29.95 8.95 29.95 8.95 26.95 16.95 26.95
M 13.9 24.95
L 13.9 21.95 21.95 21.95 21.95 24.95 13.9 24.95 Z"/>
</svg>
