
<svg xmlns="http://www.w3.org/2000/svg" version="1.1" xmlns:xlink="http://www.w3.org/1999/xlink" preserveAspectRatio="none" x="0px" y="0px" width="30px" height="36px" viewBox="0 -6 30 36">
<path fill="#9933FF" stroke="none" d="
M 28.5 -4.9
L 1.5 -4.9 1.5 -1.65 4 -1.65 4 13.85 26 13.85 26 -1.65 28.5 -1.65 28.5 -4.9 Z"/>
<path stroke="#480091" stroke-width="1" stroke-linejoin="round" stroke-linecap="round" fill="none" d="
M 4 13.85
L 4 -1.65 1.5 -1.65 1.5 -4.9 28.5 -4.9 28.5 -1.65 26 -1.65 26 13.85"/>
<path fill="#666666" stroke="none" d="
M 0.5 29.55
L 29.5 29.55 29.5 6 0.5 6 0.5 29.55 Z"/>
<path id="Layer1_0_1_STROKES" stroke="#333333" stroke-width="1" stroke-linejoin="miter" stroke-linecap="square" stroke-miterlimit="3" fill="none" d="
M 0.5 29.55
L 29.5 29.55 29.5 6 0.5 6 0.5 29.55 Z"/>
<path fill="#333333" stroke="none" d="
M 27.5 27.5
L 27.5 25.5 25.5 25.5 25.5 27.5 27.5 27.5
M 4.45 25.5
L 2.45 25.5 2.45 27.5 4.45 27.5 4.45 25.5
M 4.45 9.95
L 4.45 7.95 2.45 7.95 2.45 9.95 4.45 9.95
M 25.5 7.95
L 25.5 9.95 27.5 9.95 27.5 7.95 25.5 7.95 Z"/>
</svg>
