
<svg xmlns="http://www.w3.org/2000/svg" version="1.1" xmlns:xlink="http://www.w3.org/1999/xlink" preserveAspectRatio="none" x="0px" y="0px" width="32px" height="32px" viewBox="-1 -1 32 32">
<path stroke="#7728DD" stroke-width="1" stroke-linejoin="round" stroke-linecap="round" fill="none" d="
M 29.6 18.3
L 29.6 15.3
M 29.6 11.3
L 29.6 8.3
M 29.55 4.35
Q 29.35 2.65 28.45 1.7
M 24.75 0.4
L 21.75 0.4
M 17.75 0.4
L 14.75 0.4
M 10.75 0.4
L 7.75 0.4
M 0.4 19.85
L 0.4 22.85
M 0.4 12.85
L 0.4 15.85
M 0.4 5.85
L 0.4 8.85
M 3.8 0.5
Q 2.2 0.85 1.35 2
M 13.55 29.6
L 16.55 29.6
M 6.55 29.6
L 9.55 29.6
M 0.7 26.85
Q 1.2 28.45 2.65 29.1
M 20.55 29.6
L 23.55 29.6
M 25.05 29.6
Q 26.8 29.55 27.9 28.8
M 29.6 25.05
L 29.6 22.3"/>
</svg>
