
<svg xmlns="http://www.w3.org/2000/svg" version="1.1" xmlns:xlink="http://www.w3.org/1999/xlink" preserveAspectRatio="none" x="0px" y="0px" width="162px" height="210px" viewBox="0 0 162 210">
<defs>
<g id="Body_Parts_Characters_Firey_Firey_Flame_12_Layer1_0_FILL">
<path fill="#FF9900" stroke="none" d="
M -14.6 -64.15
Q -45.0849609375 -5.05625 -61.85 -76.3 -61.35 -50.75 -67.4 -31.75 -75.3 -6.6 -77.15 32.1
L -77.2 32.1
Q -77.2787109375 34.0064453125 -77.25 35.95 -76.8798828125 61.2640625 -53.25 74.65 -29.563671875 88.0458984375 2.35 87.6 34.2599609375 87.2078125 56.75 70.15 79.1763671875 53.231640625 78.6 32.1
L 78.65 32.1
Q 79.15 10.65 75.1 -9.05 73.4 -17.5 67.85 -35.8 60.7 -59.4 60.4 -85.45 49.45 -5.8 23.8 -59.5 -3.5001953125 -0.8603515625 -14.6 -64.15 Z"/>
</g>

<g id="Body_Parts_Characters_Firey_Firey_Flame_12_Layer0_0_FILL">
<path fill="#FFCC00" stroke="none" d="
M 32 -2.45
Q 22.25 -2.2 18.45 -14.7 17.15 -10.8 12.15 -5.85 6.35 -0.05 0.45 -0.25 -10.35 -0.75 -14.8 -14.15 -19.5 -2.55 -31.15 -3.2 -36.2 -3.5 -39.85 -7.3 -43.15 -10.75 -44.7 -15.45 -45.45 -12.7 -46.4 -8 -47.9 -1.5 -48.2 4 -49.05 20.55 -46.6 31.6 -39.4 64.05 -1.2 64.4 39.25 64.75 47.25 35.55 51.4 20.6 50.35 8.3 48.6 -14 45.95 -20.75 45.1 -15.85 41.6 -9.9 37.25 -2.6 32 -2.45 Z"/>
</g>

<path id="Body_Parts_Characters_Firey_Firey_Flame_12_Layer1_0_1_STROKES" stroke="#C47500" stroke-width="3" stroke-linejoin="miter" stroke-linecap="round" stroke-miterlimit="12" fill="none" d="
M 78.625 32.1
Q 79.1763671875 53.231640625 56.775 70.175 34.2599609375 87.2078125 2.35 87.625 -29.563671875 88.0458984375 -53.225 74.65 -76.8798828125 61.2640625 -77.25 35.95 -77.2787109375 34.0064453125 -77.175 32.1
M -77.15 32.1
Q -75.3 -6.6 -67.4 -31.725 -61.35 -50.75 -61.85 -76.3 -45.0849609375 -5.05625 -14.6 -64.15 -3.5001953125 -0.8603515625 23.8 -59.5 49.45 -5.8 60.4 -85.45 60.7 -59.4 67.85 -35.8 73.4 -17.5 75.1 -9.05 79.15 10.65 78.65 32.1"/>
</defs>

<g transform="matrix( 1, 0, 0, 1, 81,105) ">
<g transform="matrix( 1, 0, 0, 1, 0,0) ">
<use xlink:href="#Body_Parts_Characters_Firey_Firey_Flame_12_Layer1_0_FILL"/>

<use xlink:href="#Body_Parts_Characters_Firey_Firey_Flame_12_Layer1_0_1_STROKES"/>
</g>

<g transform="matrix( 1, 0, 0, 1, 0,0) ">
<use xlink:href="#Body_Parts_Characters_Firey_Firey_Flame_12_Layer0_0_FILL"/>
</g>
</g>
</svg>
