
<svg xmlns="http://www.w3.org/2000/svg" version="1.1" xmlns:xlink="http://www.w3.org/1999/xlink" preserveAspectRatio="none" x="0px" y="0px" width="162px" height="210px" viewBox="0 0 162 210">
<defs>
<g id="Body_Parts_Characters_Firey_Firey_Flame_15_Layer1_0_FILL">
<path fill="#FF9900" stroke="none" d="
M -14.9 -66.35
Q -31.1 -37.5 -42.35 -40.2 -53.3 -42.85 -60.75 -75.8 -60.2 -51.8 -67.1 -29.1 -76.4 1.8 -77.15 32.1
L -77.2 32.1
Q -77.2787109375 34.0064453125 -77.25 35.95 -76.8798828125 61.2640625 -53.25 74.65 -29.563671875 88.0458984375 2.35 87.6 34.2599609375 87.2078125 56.75 70.15 79.1763671875 53.231640625 78.6 32.1
L 78.65 32.1
Q 78.2 14.8 74.95 -0.8 71.3 -18.8 67.45 -32.5 61 -55.5 60.8 -85.6 54.55 -46.7 44.45 -41.35 35.15 -36.4 23.55 -60.45 10.95 -33.7 1.6 -34.75 -8.05 -35.85 -14.9 -66.35 Z"/>
</g>

<g id="Body_Parts_Characters_Firey_Firey_Flame_15_Layer0_0_FILL">
<path fill="#FFCC00" stroke="none" d="
M 11.75 -6.4
Q 6.25 -0.4 0.2 -0.6 -5.2 -0.85 -9.6 -4.45 -14.25 -8.25 -16.45 -14.9 -19 -8.65 -22.2 -6.05 -25.8 -3.15 -31.3 -3.95 -35.35 -4.55 -39.6 -9.25 -43 -13.1 -44 -16.05 -45.3 -11.45 -46.25 -6.15 -47.75 2.3 -47.85 4.25 -48.8 22.45 -46.7 31.75 -39.55 64 -1.2 64.4 39.5 64.8 47.5 35.6 51.4 21.75 50.2 7.7 49.05 -6.95 44.6 -18 44 -14.2 40.95 -9.45 37.1 -3.35 32.55 -2.85 27.45 -2.25 23.15 -6.1 19.1 -9.7 17.2 -15.9 15.4 -10.35 11.75 -6.4 Z"/>
</g>

<path id="Body_Parts_Characters_Firey_Firey_Flame_15_Layer1_0_1_STROKES" stroke="#C47500" stroke-width="3" stroke-linejoin="miter" stroke-linecap="round" stroke-miterlimit="12" fill="none" d="
M 78.625 32.1
Q 79.1763671875 53.231640625 56.775 70.175 34.2599609375 87.2078125 2.35 87.625 -29.563671875 88.0458984375 -53.225 74.65 -76.8798828125 61.2640625 -77.25 35.95 -77.2787109375 34.0064453125 -77.175 32.1
M -77.15 32.1
Q -76.4 1.8 -67.075 -29.1 -60.2 -51.8 -60.75 -75.8 -53.3 -42.85 -42.35 -40.2 -31.1 -37.5 -14.9 -66.35 -8.05 -35.85 1.6 -34.75 10.95 -33.7 23.55 -60.45 35.15 -36.4 44.45 -41.35 54.55 -46.7 60.8 -85.6 61 -55.5 67.45 -32.5 71.3 -18.8 74.95 -0.8 78.2 14.8 78.65 32.1"/>
</defs>

<g transform="matrix( 1, 0, 0, 1, 81,105) ">
<g transform="matrix( 1, 0, 0, 1, 0,0) ">
<use xlink:href="#Body_Parts_Characters_Firey_Firey_Flame_15_Layer1_0_FILL"/>

<use xlink:href="#Body_Parts_Characters_Firey_Firey_Flame_15_Layer1_0_1_STROKES"/>
</g>

<g transform="matrix( 1, 0, 0, 1, 0,0) ">
<use xlink:href="#Body_Parts_Characters_Firey_Firey_Flame_15_Layer0_0_FILL"/>
</g>
</g>
</svg>
