
<svg xmlns="http://www.w3.org/2000/svg" version="1.1" xmlns:xlink="http://www.w3.org/1999/xlink" preserveAspectRatio="none" x="0px" y="0px" width="162px" height="210px" viewBox="0 0 162 210">
<defs>
<g id="Body_Parts_Characters_Firey_Firey_Flame_4_Layer1_0_FILL">
<path fill="#FF9900" stroke="none" d="
M -62.35 -73.85
Q -63.65 -45.15 -68.65 -26.85 -76.4 2 -77.15 32.1
L -77.2 32.1
Q -77.2787109375 34.0064453125 -77.25 35.95 -76.8798828125 61.2640625 -53.25 74.65 -29.563671875 88.0458984375 2.35 87.6 34.2599609375 87.2078125 56.75 70.15 79.1763671875 53.231640625 78.6 32.1
L 78.65 32.1
Q 78.65 15.3 75.4 0.75 73.8 -6.5 68.65 -22.3 64.15 -35.9 62.7 -45.4 60.5 -59.55 62.05 -76.85 53.55 -39.95 42.85 -38.55 33.5 -37.35 22 -63.2 12.4 -33.8 2.1 -33.85 -8.2 -33.85 -15.6 -63 -34.15 -32.7 -46 -35.55 -57.8 -38.35 -62.35 -73.85 Z"/>
</g>

<g id="Body_Parts_Characters_Firey_Firey_Flame_4_Layer0_0_FILL">
<path fill="#FFCC00" stroke="none" d="
M 30.95 -0.6
Q 25.2 -0.65 19.75 -7.6 15.8 -12.65 14.55 -16.85 8.8 0 -2.7 -0.6 -7.6 -0.85 -12.25 -5.55 -16.15 -9.45 -17.5 -13.5 -18.55 -10.6 -22.5 -7.3 -27.3 -3.25 -32.15 -3.2 -40.45 -3.1 -47.45 -14.8 -52.85 7.05 -47.4 31.9 -40.25 64.15 -1.2 64.4 20.6 64.6 33.6 56.15 45.1 48.7 48.45 35.55 51.8 22.7 50.25 9.3 48.2 -9.1 45.05 -17.05 44.45 -13.65 40.55 -7.9 35.65 -0.55 30.95 -0.6 Z"/>
</g>

<path id="Body_Parts_Characters_Firey_Firey_Flame_4_Layer1_0_1_STROKES" stroke="#C47500" stroke-width="3" stroke-linejoin="miter" stroke-linecap="round" stroke-miterlimit="12" fill="none" d="
M -77.175 32.1
Q -77.2787109375 34.0064453125 -77.25 35.95 -76.8798828125 61.2640625 -53.225 74.65 -29.563671875 88.0458984375 2.35 87.625 34.2599609375 87.2078125 56.775 70.175 79.1763671875 53.231640625 78.625 32.1
M 78.65 32.1
Q 78.65 15.3 75.4 0.75 73.8 -6.5 68.65 -22.3 64.15 -35.9 62.7 -45.4 60.5 -59.55 62.05 -76.85 53.55 -39.95 42.85 -38.55 33.5 -37.35 22 -63.2 12.4 -33.8 2.1 -33.85 -8.2 -33.85 -15.6 -63 -34.15 -32.7 -46 -35.55 -57.8 -38.35 -62.35 -73.825 -63.65 -45.15 -68.625 -26.85 -76.4 2 -77.15 32.1"/>
</defs>

<g transform="matrix( 1, 0, 0, 1, 81,105) ">
<g transform="matrix( 1, 0, 0, 1, 0,0) ">
<use xlink:href="#Body_Parts_Characters_Firey_Firey_Flame_4_Layer1_0_FILL"/>

<use xlink:href="#Body_Parts_Characters_Firey_Firey_Flame_4_Layer1_0_1_STROKES"/>
</g>

<g transform="matrix( 1, 0, 0, 1, 0,0) ">
<use xlink:href="#Body_Parts_Characters_Firey_Firey_Flame_4_Layer0_0_FILL"/>
</g>
</g>
</svg>
