
<svg xmlns="http://www.w3.org/2000/svg" version="1.1" xmlns:xlink="http://www.w3.org/1999/xlink" preserveAspectRatio="none" x="0px" y="0px" width="162px" height="210px" viewBox="0 0 162 210">
<defs>
<g id="Body_Parts_Characters_Firey_Firey_Flame_5_Layer1_0_FILL">
<path fill="#FF9900" stroke="none" d="
M -15.7 -62.4
Q -34.55 -31.25 -45.7 -33.9 -56.85 -36.55 -62.45 -73.4 -63.15 -45.3 -69.1 -25.7 -77.3 2 -77.15 32.1
L -77.2 32.1
Q -77.2787109375 34.0064453125 -77.25 35.95 -76.8798828125 61.2640625 -53.25 74.65 -29.563671875 88.0458984375 2.35 87.6 34.2599609375 87.2078125 56.75 70.15 79.1763671875 53.231640625 78.6 32.1
L 78.65 32.1
Q 78.4 3.55 69.05 -25.15 64 -40.5 62.4 -51.8 60.7 -63.65 61.95 -76.3 53.7 -39.05 43.3 -37.35 33.85 -35.8 21.35 -63.6 13.85 -32.6 4.1 -32.3 -5.7 -32.05 -15.7 -62.4 Z"/>
</g>

<g id="Body_Parts_Characters_Firey_Firey_Flame_5_Layer0_0_FILL">
<path fill="#FFCC00" stroke="none" d="
M 20.3 -6.8
Q 15.6 -12.7 14.4 -16.8 11.85 -9 7.4 -4.35 2.9 0.25 -2.2 0.4 -6 0.5 -10.75 -4.45 -14.95 -8.8 -16.2 -12.6 -17.4 -9.4 -21.75 -6.05 -26.95 -2.1 -32.25 -2.3 -40.6 -2.55 -47.4 -14 -52.5 10.25 -47.8 31.6 -40.65 64 -1.2 64.4 40.45 64.8 48.45 35.55 51.45 24.65 50.15 7.25 49 -8.25 45.8 -16.4 45.2 -12.8 41.45 -7.15 36.6 0.15 31.45 0.45 26.3 0.75 20.3 -6.8 Z"/>
</g>

<path id="Body_Parts_Characters_Firey_Firey_Flame_5_Layer1_0_1_STROKES" stroke="#C47500" stroke-width="3" stroke-linejoin="miter" stroke-linecap="round" stroke-miterlimit="12" fill="none" d="
M 78.625 32.1
Q 79.1763671875 53.231640625 56.775 70.175 34.2599609375 87.2078125 2.35 87.625 -29.563671875 88.0458984375 -53.225 74.65 -76.8798828125 61.2640625 -77.25 35.95 -77.2787109375 34.0064453125 -77.175 32.1
M -77.15 32.1
Q -77.3 2 -69.075 -25.7 -63.15 -45.3 -62.45 -73.4 -56.85 -36.55 -45.7 -33.9 -34.55 -31.25 -15.7 -62.4 -5.7 -32.05 4.1 -32.3 13.85 -32.6 21.35 -63.6 33.85 -35.8 43.3 -37.35 53.7 -39.05 61.95 -76.3 60.7 -63.65 62.4 -51.8 64 -40.5 69.05 -25.125 78.4 3.55 78.65 32.1"/>
</defs>

<g transform="matrix( 1, 0, 0, 1, 81,105) ">
<g transform="matrix( 1, 0, 0, 1, 0,0) ">
<use xlink:href="#Body_Parts_Characters_Firey_Firey_Flame_5_Layer1_0_FILL"/>

<use xlink:href="#Body_Parts_Characters_Firey_Firey_Flame_5_Layer1_0_1_STROKES"/>
</g>

<g transform="matrix( 1, 0, 0, 1, 0,0) ">
<use xlink:href="#Body_Parts_Characters_Firey_Firey_Flame_5_Layer0_0_FILL"/>
</g>
</g>
</svg>
