
<svg xmlns="http://www.w3.org/2000/svg" version="1.1" xmlns:xlink="http://www.w3.org/1999/xlink" preserveAspectRatio="none" x="0px" y="0px" width="162px" height="210px" viewBox="0 0 162 210">
<defs>
<g id="Body_Parts_Characters_Firey_Firey_Flame_3_Layer1_0_FILL">
<path fill="#FF9900" stroke="none" d="
M -62.7 -76.8
Q -62.8 -72.85 -63.95 -59.3 -65.35 -42.55 -66.7 -36.15 -69.827734375 -21.1052734375 -73.5 -5.3 -77.1212890625 10.55703125 -77.15 32.1
L -77.2 32.1
Q -77.2787109375 34.0064453125 -77.25 35.95 -76.8798828125 61.2640625 -53.25 74.65 -29.563671875 88.0458984375 2.35 87.6 34.2599609375 87.2078125 56.75 70.15 79.1763671875 53.231640625 78.6 32.1
L 78.65 32.1
Q 78.25 10.65 71.75 -13.25 71.2 -15.25 66.6 -30.8 64.1 -39.3 63.55 -43.35 61.9 -55.15 61.6 -62 61.25 -70.85 61.8 -78.4 57.6 -60.45 53.15 -51.35 49 -42.85 43.65 -40.1 34.25 -35.25 22.6 -62.75 16.15 -48.7 9.7 -41.1 3.3 -33.6 -1.3 -34.45 -9.5 -35.95 -15.45 -63.5 -33.7 -33.85 -47.1 -38.3 -53 -40.3 -56.6 -49.2 -60.15 -58 -62.7 -76.8 Z"/>
</g>

<g id="Body_Parts_Characters_Firey_Firey_Flame_3_Layer0_0_FILL">
<path fill="#FFCC00" stroke="none" d="
M 40.35 -8.7
Q 36 -1.85 31.05 -1.65 24.5 -1.7 19.45 -8.15 16.1 -12.35 14.75 -16.95 9.4 -1 -2.6 -1.2 -6.35 -1.3 -10.9 -4.05 -16.6 -7.5 -18.75 -14 -20.35 -9.65 -25.1 -6.25 -28.85 -3.55 -32.65 -3.9 -40.75 -4.65 -47.4 -15.85 -53.1 4.5 -47.1 31.8 -40 64 -1.2 64.4 39.2 64.8 48.45 35.55 52 24.45 50.25 9.3 48.45 -6.65 44.2 -17.5 43.55 -13.85 40.35 -8.7 Z"/>
</g>

<path id="Body_Parts_Characters_Firey_Firey_Flame_3_Layer1_0_1_STROKES" stroke="#C47500" stroke-width="3" stroke-linejoin="miter" stroke-linecap="round" stroke-miterlimit="12" fill="none" d="
M 78.625 32.1
Q 79.1763671875 53.231640625 56.775 70.175 34.2599609375 87.2078125 2.35 87.625 -29.563671875 88.0458984375 -53.225 74.65 -76.8798828125 61.2640625 -77.25 35.95 -77.2787109375 34.0064453125 -77.175 32.1
M -77.15 32.1
Q -77.1212890625 10.55703125 -73.475 -5.275 -69.827734375 -21.1052734375 -66.7 -36.125 -65.35 -42.55 -63.95 -59.3 -62.8 -72.85 -62.7 -76.8 -60.15 -58 -56.6 -49.2 -53 -40.3 -47.1 -38.3 -33.7 -33.85 -15.45 -63.5 -9.5 -35.95 -1.3 -34.45 3.3 -33.6 9.7 -41.1 16.15 -48.7 22.6 -62.75 34.25 -35.25 43.65 -40.1 49 -42.85 53.15 -51.35 57.6 -60.45 61.8 -78.4 61.25 -70.85 61.6 -62 61.9 -55.15 63.55 -43.35 64.1 -39.3 66.6 -30.8 71.2 -15.25 71.75 -13.25 78.25 10.65 78.65 32.1"/>
</defs>

<g transform="matrix( 1, 0, 0, 1, 81,105) ">
<g transform="matrix( 1, 0, 0, 1, 0,0) ">
<use xlink:href="#Body_Parts_Characters_Firey_Firey_Flame_3_Layer1_0_FILL"/>

<use xlink:href="#Body_Parts_Characters_Firey_Firey_Flame_3_Layer1_0_1_STROKES"/>
</g>

<g transform="matrix( 1, 0, 0, 1, 0,0) ">
<use xlink:href="#Body_Parts_Characters_Firey_Firey_Flame_3_Layer0_0_FILL"/>
</g>
</g>
</svg>
