
<svg xmlns="http://www.w3.org/2000/svg" version="1.1" xmlns:xlink="http://www.w3.org/1999/xlink" preserveAspectRatio="none" x="0px" y="0px" width="162px" height="210px" viewBox="0 0 162 210">
<defs>
<g id="Body_Parts_Characters_Firey_Firey_Flame_16_Layer1_0_FILL">
<path fill="#FF9900" stroke="none" d="
M -15 -66.75
Q -30.1 -38.25 -42.3 -40.85 -52.4 -43 -61.35 -75.7 -60.8 -49.55 -66.95 -29 -76.4 2.2 -77.15 32.1
L -77.2 32.1
Q -77.2787109375 34.0064453125 -77.25 35.95 -76.8798828125 61.2640625 -53.25 74.65 -29.563671875 88.0458984375 2.35 87.6 34.2599609375 87.2078125 56.75 70.15 79.1763671875 53.231640625 78.6 32.1
L 78.65 32.1
Q 78.15 13.75 74.85 -0.9 71.5 -15.4 66.85 -32.15 63.8 -43.1 62.55 -55.2 61.45 -65.7 61.1 -84.25 57.65 -64.85 53.75 -54.9 50.05 -45.45 44.9 -42 40.05 -38.7 34.15 -44.05 28.5 -49.15 23.25 -61 10.7 -34.3 1.4 -35.35 -8.25 -36.45 -15 -66.75 Z"/>
</g>

<g id="Body_Parts_Characters_Firey_Firey_Flame_16_Layer0_0_FILL">
<path fill="#FFCC00" stroke="none" d="
M 32.55 -2.85
Q 26.95 -2.2 22.9 -5.8 19 -9.3 16.85 -16.35 14.55 -9.3 12.1 -6.65 6.35 -0.35 0.2 -0.6 -5.4 -0.85 -9.65 -4.3 -15.3 -8.95 -17.2 -14.8 -19.9 -8.2 -22.3 -6.25 -25.95 -3.3 -31.25 -4.1 -34.9 -4.65 -39.35 -9.55 -42.95 -13.6 -43.8 -16.2 -45.6 -9.8 -46.25 -6.15 -47.65 1.85 -47.85 4.25 -49.05 20.1 -46.7 31.75 -43.5 47.7 -31.65 56.05 -20.05 64.2 -1.2 64.4 18.5 64.6 30.9 57.4 43.55 50.1 47.5 35.65 51.15 22.75 49.85 7.8 48.85 -5.4 44.1 -17.2 43.5 -13.35 40.95 -9.45 37.1 -3.35 32.55 -2.85 Z"/>
</g>

<path id="Body_Parts_Characters_Firey_Firey_Flame_16_Layer1_0_1_STROKES" stroke="#C47500" stroke-width="3" stroke-linejoin="miter" stroke-linecap="round" stroke-miterlimit="12" fill="none" d="
M 78.625 32.1
Q 79.1763671875 53.231640625 56.775 70.175 34.2599609375 87.2078125 2.35 87.625 -29.563671875 88.0458984375 -53.225 74.65 -76.8798828125 61.2640625 -77.25 35.95 -77.2787109375 34.0064453125 -77.175 32.1
M -77.15 32.1
Q -76.4 2.2 -66.95 -29 -60.8 -49.55 -61.35 -75.7 -52.4 -43 -42.3 -40.85 -30.1 -38.25 -15 -66.75 -8.25 -36.45 1.4 -35.35 10.7 -34.3 23.25 -61 28.5 -49.15 34.15 -44.05 40.05 -38.7 44.9 -42 50.05 -45.45 53.75 -54.9 57.65 -64.85 61.1 -84.25 61.45 -65.7 62.55 -55.2 63.8 -43.1 66.85 -32.15 71.5 -15.4 74.85 -0.9 78.15 13.75 78.65 32.1"/>
</defs>

<g transform="matrix( 1, 0, 0, 1, 81,105) ">
<g transform="matrix( 1, 0, 0, 1, 0,0) ">
<use xlink:href="#Body_Parts_Characters_Firey_Firey_Flame_16_Layer1_0_FILL"/>

<use xlink:href="#Body_Parts_Characters_Firey_Firey_Flame_16_Layer1_0_1_STROKES"/>
</g>

<g transform="matrix( 1, 0, 0, 1, 0,0) ">
<use xlink:href="#Body_Parts_Characters_Firey_Firey_Flame_16_Layer0_0_FILL"/>
</g>
</g>
</svg>
