
<svg xmlns="http://www.w3.org/2000/svg" version="1.1" xmlns:xlink="http://www.w3.org/1999/xlink" preserveAspectRatio="none" x="0px" y="0px" width="162px" height="210px" viewBox="0 0 162 210">
<defs>
<g id="Body_Parts_Characters_Firey_Firey_Flame_2_Layer1_0_FILL">
<path fill="#FF9900" stroke="none" d="
M -15.2 -64.1
Q -32.8 -36.65 -45.25 -40.05 -58.15 -43.65 -63 -79.8 -66.25 -37.5 -69.2 -24.35 -72.8599609375 -7.7 -75.4 8.45 -77.8966796875 24.6 -77.15 32.1
L -77.2 32.1
Q -77.2787109375 34.0064453125 -77.25 35.95 -76.8798828125 61.2640625 -53.25 74.65 -29.563671875 88.0458984375 2.35 87.6 34.2599609375 87.2078125 56.75 70.15 79.1763671875 53.231640625 78.6 32.1
L 78.65 32.1
Q 78.2 16.5 75.75 4.9 73.4 -6 65.8 -32.8 62.4 -44.9 61.6 -56.25 60.95 -65.6 61.85 -80.05 54.2 -45.3 43.4 -40.8 32.85 -36.45 23.25 -62.25 11.35 -34.65 0.15 -35.35 -10.95 -36.1 -15.2 -64.1 Z"/>
</g>

<g id="Body_Parts_Characters_Firey_Firey_Flame_2_Layer0_0_FILL">
<path fill="#FFCC00" stroke="none" d="
M 39.45 -8.4
Q 35.4 -2.4 31.1 -2.35 25.75 -2.3 20.65 -7.7 16.4 -12.2 15 -17 9.6 -0.95 -2.6 -1.2 -6.35 -1.3 -10.9 -4.05 -17.1 -7.8 -19.2 -14.2 -21.1 -9.1 -25.1 -6.25 -28.85 -3.55 -32.65 -3.9 -39.9 -4.55 -46.8 -16.2 -52.75 4.9 -46.8 31.75 -39.65 64.05 -1.2 64.4 39.2 64.8 48.45 35.55 52.15 24.05 50.4 9.2 49.05 -2.9 43.4 -17.2 42.75 -13.3 39.45 -8.4 Z"/>
</g>

<path id="Body_Parts_Characters_Firey_Firey_Flame_2_Layer1_0_1_STROKES" stroke="#C47500" stroke-width="3" stroke-linejoin="miter" stroke-linecap="round" stroke-miterlimit="12" fill="none" d="
M 78.625 32.1
Q 79.1763671875 53.231640625 56.775 70.175 34.2599609375 87.2078125 2.35 87.625 -29.563671875 88.0458984375 -53.225 74.65 -76.8798828125 61.2640625 -77.25 35.95 -77.2787109375 34.0064453125 -77.175 32.1
M -77.15 32.1
Q -77.8966796875 24.6 -75.375 8.45 -72.8599609375 -7.7 -69.175 -24.35 -66.25 -37.5 -63 -79.8 -58.15 -43.65 -45.25 -40.05 -32.8 -36.65 -15.2 -64.1 -10.95 -36.1 0.15 -35.35 11.35 -34.65 23.25 -62.25 32.85 -36.45 43.4 -40.8 54.2 -45.3 61.85 -80.05 60.95 -65.6 61.6 -56.25 62.4 -44.9 65.8 -32.8 73.4 -6 75.75 4.9 78.2 16.5 78.65 32.1"/>
</defs>

<g transform="matrix( 1, 0, 0, 1, 81,105) ">
<g transform="matrix( 1, 0, 0, 1, 0,0) ">
<use xlink:href="#Body_Parts_Characters_Firey_Firey_Flame_2_Layer1_0_FILL"/>

<use xlink:href="#Body_Parts_Characters_Firey_Firey_Flame_2_Layer1_0_1_STROKES"/>
</g>

<g transform="matrix( 1, 0, 0, 1, 0,0) ">
<use xlink:href="#Body_Parts_Characters_Firey_Firey_Flame_2_Layer0_0_FILL"/>
</g>
</g>
</svg>
