
<svg xmlns="http://www.w3.org/2000/svg" version="1.1" xmlns:xlink="http://www.w3.org/1999/xlink" preserveAspectRatio="none" x="0px" y="0px" width="162px" height="210px" viewBox="0 0 162 210">
<defs>
<g id="Body_Parts_Characters_Firey_Firey_Flame_8_Layer1_0_FILL">
<path fill="#FF9900" stroke="none" d="
M -66 -43.95
Q -69.0298828125 -25.85 -73 -8.9 -76.9712890625 8.1 -77.15 32.1
L -77.2 32.1
Q -77.2787109375 34.0064453125 -77.25 35.95 -76.8798828125 61.2640625 -53.25 74.65 -29.563671875 88.0458984375 2.35 87.6 34.2599609375 87.2078125 56.75 70.15 79.1763671875 53.231640625 78.6 32.1
L 78.65 32.1
Q 78.8521484375 11.0537109375 76.35 -2.9 73.5 -19.1 67.35 -35.15 59.5 -55.6 61.05 -76.9 54.9 -40.8 45.35 -36.85 35.7 -32.85 21.55 -61.65 10.25 -31 1.25 -31.55 -7.65 -32.05 -15.15 -63.15 -31.45 -33.55 -43.3 -35.9 -55.05 -38.25 -63.2 -72.3 -63.95 -59.55 -66 -43.95 Z"/>
</g>

<g id="Body_Parts_Characters_Firey_Firey_Flame_8_Layer0_0_FILL">
<path fill="#FFCC00" stroke="none" d="
M 21.05 -5.6
Q 18.2 -9.2 16.4 -15.25 15.1 -11.15 10.25 -5.2 5.55 0.6 0.4 1.2 -6 1.9 -11.15 -4.45 -13.95 -8 -15.5 -12.4 -16.6 -9.5 -20.6 -6.2 -25.5 -2 -31.5 -1.45 -36.05 -1 -40.9 -5 -43.85 -7.45 -47.1 -14.2 -48.45 -8.05 -48.5 -1.8 -48.65 6.55 -48.65 8.2 -48.9 22.7 -46.95 31.5 -39.8 64.05 -1.2 64.4 39.85 64.75 47.95 35.2 51.7 21.7 50.45 7.3 49.1 -9.3 45.7 -17.95 45.05 -13.8 41.5 -8.05 36.8 -0.25 31.75 0.25 26.2 0.8 21.05 -5.6 Z"/>
</g>

<path id="Body_Parts_Characters_Firey_Firey_Flame_8_Layer1_0_1_STROKES" stroke="#C47500" stroke-width="3" stroke-linejoin="miter" stroke-linecap="round" stroke-miterlimit="12" fill="none" d="
M 78.625 32.1
Q 79.1763671875 53.231640625 56.775 70.175 34.2599609375 87.2078125 2.35 87.625 -29.563671875 88.0458984375 -53.225 74.65 -76.8798828125 61.2640625 -77.25 35.95 -77.2787109375 34.0064453125 -77.175 32.1
M -77.15 32.1
Q -76.9712890625 8.1 -73 -8.875 -69.0298828125 -25.85 -66 -43.95 -63.95 -59.55 -63.2 -72.3 -55.05 -38.25 -43.3 -35.9 -31.45 -33.55 -15.15 -63.15 -7.65 -32.05 1.25 -31.55 10.25 -31 21.55 -61.65 35.7 -32.85 45.35 -36.85 54.9 -40.8 61.05 -76.9 59.5 -55.6 67.35 -35.15 73.5 -19.1 76.35 -2.9 78.8521484375 11.0537109375 78.65 32.1"/>
</defs>

<g transform="matrix( 1, 0, 0, 1, 81,105) ">
<g transform="matrix( 1, 0, 0, 1, 0,0) ">
<use xlink:href="#Body_Parts_Characters_Firey_Firey_Flame_8_Layer1_0_FILL"/>

<use xlink:href="#Body_Parts_Characters_Firey_Firey_Flame_8_Layer1_0_1_STROKES"/>
</g>

<g transform="matrix( 1, 0, 0, 1, 0,0) ">
<use xlink:href="#Body_Parts_Characters_Firey_Firey_Flame_8_Layer0_0_FILL"/>
</g>
</g>
</svg>
