
<svg xmlns="http://www.w3.org/2000/svg" version="1.1" xmlns:xlink="http://www.w3.org/1999/xlink" preserveAspectRatio="none" x="0px" y="0px" width="162px" height="210px" viewBox="0 0 162 210">
<defs>
<g id="Body_Parts_Characters_Firey_Firey_Flame_11_Layer1_0_FILL">
<path fill="#FF9900" stroke="none" d="
M -14.8 -63.75
Q -45.3 -5.4 -62.55 -76 -61.19765625 -55.496875 -68.75 -28.8 -76.25234375 -2.053125 -77.15 32.1
L -77.2 32.1
Q -77.2787109375 34.0064453125 -77.25 35.95 -76.8798828125 61.2640625 -53.25 74.65 -29.563671875 88.0458984375 2.35 87.6 34.2599609375 87.2078125 56.75 70.15 79.1763671875 53.231640625 78.6 32.1
L 78.65 32.1
Q 79.4 9.85 75.55 -9.15 73.65 -18.5 67.55 -37.55 63.9 -49 62.4 -59.95 61.35 -67.35 60.4 -84.1 55.4 -42.95 45.4 -37.85 36.15 -33.15 23.7 -59.4 -4.15 0.05 -14.8 -63.75 Z"/>
</g>

<g id="Body_Parts_Characters_Firey_Firey_Flame_11_Layer0_0_FILL">
<path fill="#FFCC00" stroke="none" d="
M 18.4 -14.4
Q 17.05 -10.3 12.3 -5.65 6.35 0.25 0.4 0 -10.45 -0.5 -14.8 -13.6 -19.45 -2.15 -31.2 -2.8 -36.05 -3.1 -39.95 -7.15 -43.25 -10.6 -44.8 -15.4 -45.95 -11.25 -46.7 -8 -48.1 -1.9 -48.4 4 -49.2 19.85 -46.6 31.6 -39.4 64.05 -1.2 64.4 39.25 64.75 47.25 35.55 51.15 21.55 50 8.4 48.25 -13.5 45.8 -19.8 45.15 -15.9 41.6 -9.9 36.9 -1.95 32 -1.8 22.3 -1.55 18.4 -14.4 Z"/>
</g>

<path id="Body_Parts_Characters_Firey_Firey_Flame_11_Layer1_0_1_STROKES" stroke="#C47500" stroke-width="3" stroke-linejoin="miter" stroke-linecap="round" stroke-miterlimit="12" fill="none" d="
M 78.625 32.1
Q 79.1763671875 53.231640625 56.775 70.175 34.2599609375 87.2078125 2.35 87.625 -29.563671875 88.0458984375 -53.225 74.65 -76.8798828125 61.2640625 -77.25 35.95 -77.2787109375 34.0064453125 -77.175 32.1
M -77.15 32.1
Q -76.25234375 -2.053125 -68.725 -28.775 -61.19765625 -55.496875 -62.55 -76 -45.3 -5.4 -14.8 -63.75 -4.15 0.05 23.7 -59.4 36.15 -33.15 45.4 -37.85 55.4 -42.95 60.4 -84.1 61.35 -67.35 62.4 -59.95 63.9 -49 67.575 -37.525 73.65 -18.5 75.55 -9.15 79.4 9.85 78.65 32.1"/>
</defs>

<g transform="matrix( 1, 0, 0, 1, 81,105) ">
<g transform="matrix( 1, 0, 0, 1, 0,0) ">
<use xlink:href="#Body_Parts_Characters_Firey_Firey_Flame_11_Layer1_0_FILL"/>

<use xlink:href="#Body_Parts_Characters_Firey_Firey_Flame_11_Layer1_0_1_STROKES"/>
</g>

<g transform="matrix( 1, 0, 0, 1, 0,0) ">
<use xlink:href="#Body_Parts_Characters_Firey_Firey_Flame_11_Layer0_0_FILL"/>
</g>
</g>
</svg>
