
<svg xmlns="http://www.w3.org/2000/svg" version="1.1" xmlns:xlink="http://www.w3.org/1999/xlink" preserveAspectRatio="none" x="0px" y="0px" width="162px" height="210px" viewBox="0 0 162 210">
<defs>
<g id="Body_Parts_Characters_Firey_Firey_Flame_13_Layer1_0_FILL">
<path fill="#FF9900" stroke="none" d="
M -14.9 -65
Q -31.35 -34.8 -43.65 -39.7 -54.75 -44.15 -61.15 -76.6 -59.8515625 -56.3 -67.8 -29.5 -75.7484375 -2.65 -77.15 32.1
L -77.2 32.1
Q -77.2787109375 34.0064453125 -77.25 35.95 -76.8798828125 61.2640625 -53.25 74.65 -29.563671875 88.0458984375 2.35 87.6 34.2599609375 87.2078125 56.75 70.15 79.1763671875 53.231640625 78.6 32.1
L 78.65 32.1
Q 79.17734375 11.2671875 74.25 -9.1 69.3169921875 -29.412890625 65.45 -45 61.45 -61.35 60.5 -88.05 54.7 -48.4 45.1 -40.75 35.4 -33.05 24.05 -59.9 11.45 -32.2 1.25 -33.45 -9 -34.7 -14.9 -65 Z"/>
</g>

<g id="Body_Parts_Characters_Firey_Firey_Flame_13_Layer0_0_FILL">
<path fill="#FFCC00" stroke="none" d="
M 32.8 -3.3
Q 22.25 -3.05 18.6 -15 17.4 -11.3 12.2 -6.2 6.35 -0.35 0.2 -0.6 -10.25 -1.1 -14.8 -14.8 -19.6 -3 -31.25 -3.65 -36.1 -3.95 -40 -8 -43.2 -11.35 -44.6 -15.6 -45.25 -13.2 -46.5 -6.15 -47.85 1.5 -48 4.2 -48.9 21.3 -46.6 31.6 -39.4 64.05 -1.2 64.4 39.25 64.75 47.25 35.55 51.8 19.25 50.8 7.8 49.1 -14.1 46.2 -21.4 45.35 -16.4 42.4 -11.4 37.7 -3.45 32.8 -3.3 Z"/>
</g>

<path id="Body_Parts_Characters_Firey_Firey_Flame_13_Layer1_0_1_STROKES" stroke="#C47500" stroke-width="3" stroke-linejoin="miter" stroke-linecap="round" stroke-miterlimit="12" fill="none" d="
M 78.625 32.1
Q 79.1763671875 53.231640625 56.775 70.175 34.2599609375 87.2078125 2.35 87.625 -29.563671875 88.0458984375 -53.225 74.65 -76.8798828125 61.2640625 -77.25 35.95 -77.2787109375 34.0064453125 -77.175 32.1
M -77.15 32.1
Q -75.7484375 -2.65 -67.8 -29.475 -59.8515625 -56.3 -61.15 -76.6 -54.75 -44.15 -43.65 -39.7 -31.35 -34.8 -14.9 -65 -9 -34.7 1.25 -33.45 11.45 -32.2 24.05 -59.9 35.4 -33.05 45.1 -40.75 54.7 -48.4 60.5 -88.05 61.45 -61.35 65.45 -44.975 69.3169921875 -29.412890625 74.25 -9.075 79.17734375 11.2671875 78.65 32.1"/>
</defs>

<g transform="matrix( 1, 0, 0, 1, 81,105) ">
<g transform="matrix( 1, 0, 0, 1, 0,0) ">
<use xlink:href="#Body_Parts_Characters_Firey_Firey_Flame_13_Layer1_0_FILL"/>

<use xlink:href="#Body_Parts_Characters_Firey_Firey_Flame_13_Layer1_0_1_STROKES"/>
</g>

<g transform="matrix( 1, 0, 0, 1, 0,0) ">
<use xlink:href="#Body_Parts_Characters_Firey_Firey_Flame_13_Layer0_0_FILL"/>
</g>
</g>
</svg>
