
<svg xmlns="http://www.w3.org/2000/svg" version="1.1" xmlns:xlink="http://www.w3.org/1999/xlink" preserveAspectRatio="none" x="0px" y="0px" width="162px" height="210px" viewBox="0 0 162 210">
<defs>
<g id="Body_Parts_Characters_Firey_Firey_Flame_0_Layer1_0_FILL">
<path fill="#FF9900" stroke="none" d="
M -63.15 -43.6
Q -64.35 -34.15 -67.65 -22.55 -71.95 -7.65 -73.15 -1.8 -75.85 11.15 -77.15 32.1
L -77.2 32.1
Q -77.2787109375 34.0064453125 -77.25 35.95 -76.8798828125 61.2640625 -53.25 74.65 -29.563671875 88.0458984375 2.35 87.6 34.2599609375 87.2078125 56.75 70.15 79.1763671875 53.231640625 78.6 32.1
L 78.65 32.1
Q 78.1 16.05 75.3 3.4 74.45 -0.45 69.15 -18.85 65.2 -32.5 63.6 -45 61.5 -61.6 62.05 -81.9 44.9 -11.25 24.55 -61.4 -3.7431640625 -9.01171875 -14.95 -65.15 -29.65 -39.7 -40.15 -41.6 -51.25 -43.65 -62.2 -76.4 -61.45 -57.15 -63.15 -43.6 Z"/>
</g>

<g id="Body_Parts_Characters_Firey_Firey_Flame_0_Layer0_0_FILL">
<path fill="#FFCC00" stroke="none" d="
M 22.65 -5.15
Q 18.3 -8.9 16 -16.8 10.55 -0.5 -0.7 -0.75 -5.55 -0.9 -10.2 -4.4 -14.8 -7.95 -18 -14 -22 -3.4 -29.25 -4.1 -36.5 -4.75 -43.4 -16.4 -51.3 11.5 -46.8 31.75 -39.65 64.05 -1.2 64.4 38.45 64.8 47.65 35.7 51.3 24.2 49.6 9.35 48.15 -3.45 43.2 -16 42.3 -10.45 38.8 -6.6 35.45 -2.9 31.1 -2.35 26.5 -1.8 22.65 -5.15 Z"/>
</g>

<path id="Body_Parts_Characters_Firey_Firey_Flame_0_Layer1_0_1_STROKES" stroke="#C47500" stroke-width="3" stroke-linejoin="miter" stroke-linecap="round" stroke-miterlimit="12" fill="none" d="
M 78.625 32.1
Q 79.1763671875 53.231640625 56.775 70.175 34.2599609375 87.2078125 2.35 87.625 -29.563671875 88.0458984375 -53.225 74.65 -76.8798828125 61.2640625 -77.25 35.95 -77.2787109375 34.0064453125 -77.175 32.1
M -77.15 32.1
Q -75.85 11.15 -73.15 -1.8 -71.95 -7.65 -67.65 -22.55 -64.35 -34.15 -63.15 -43.6 -61.45 -57.15 -62.2 -76.4 -51.25 -43.65 -40.15 -41.6 -29.65 -39.7 -14.95 -65.15 -3.7431640625 -9.01171875 24.55 -61.4 44.9 -11.25 62.05 -81.9 61.5 -61.6 63.6 -45 65.2 -32.5 69.15 -18.85 74.45 -0.45 75.3 3.4 78.1 16.05 78.65 32.1"/>
</defs>

<g transform="matrix( 1, 0, 0, 1, 81,105) ">
<g transform="matrix( 1, 0, 0, 1, 0,0) ">
<use xlink:href="#Body_Parts_Characters_Firey_Firey_Flame_0_Layer1_0_FILL"/>

<use xlink:href="#Body_Parts_Characters_Firey_Firey_Flame_0_Layer1_0_1_STROKES"/>
</g>

<g transform="matrix( 1, 0, 0, 1, 0,0) ">
<use xlink:href="#Body_Parts_Characters_Firey_Firey_Flame_0_Layer0_0_FILL"/>
</g>
</g>
</svg>
