
<svg xmlns="http://www.w3.org/2000/svg" version="1.1" xmlns:xlink="http://www.w3.org/1999/xlink" preserveAspectRatio="none" x="0px" y="0px" width="162px" height="210px" viewBox="0 0 162 210">
<defs>
<g id="Body_Parts_Characters_Firey_Firey_Flame_9_Layer1_0_FILL">
<path fill="#FF9900" stroke="none" d="
M -14.8 -63.25
Q -46.6 -5.15 -63.05 -73.4 -63.9939453125 -48.6712890625 -70.1 -23.1 -76.2060546875 2.4712890625 -77.15 32.1
L -77.2 32.1
Q -77.2787109375 34.0064453125 -77.25 35.95 -76.8798828125 61.2640625 -53.25 74.65 -29.563671875 88.0458984375 2.35 87.6 34.2599609375 87.2078125 56.75 70.15 79.1763671875 53.231640625 78.6 32.1
L 78.65 32.1
Q 80 -3.3 69 -32.3 64.15 -45.2 62.25 -55 60.2 -65.5 60.45 -78 48.55 -5 23.2 -60.25 -5.355859375 -0.6978515625 -14.8 -63.25 Z"/>
</g>

<g id="Body_Parts_Characters_Firey_Firey_Flame_9_Layer0_0_FILL">
<path fill="#FFCC00" stroke="none" d="
M 31.2 -0.4
Q 22.3 -0.2 17.8 -15 15.95 -9.4 10.7 -4.3 4.75 1.5 -0.8 1.2 -10.55 0.7 -15 -12.6 -16.15 -9.6 -20.6 -5.9 -26.15 -1.3 -31.5 -1.45 -36.65 -1.6 -40.95 -7.05 -41.7 -7.95 -46 -15.2 -47.05 -10.25 -47.75 4 -48.65 22.35 -46.6 31.6 -39.4 64.05 -1.2 64.4 39.25 64.75 47.25 35.55 51.05 21.85 49.8 7.4 48.35 -10.6 45.2 -18.6 44.55 -14.6 40.95 -8.5 36.25 -0.5 31.2 -0.4 Z"/>
</g>

<path id="Body_Parts_Characters_Firey_Firey_Flame_9_Layer1_0_1_STROKES" stroke="#C47500" stroke-width="3" stroke-linejoin="miter" stroke-linecap="round" stroke-miterlimit="12" fill="none" d="
M 78.625 32.1
Q 79.1763671875 53.231640625 56.775 70.175 34.2599609375 87.2078125 2.35 87.625 -29.563671875 88.0458984375 -53.225 74.65 -76.8798828125 61.2640625 -77.25 35.95 -77.2787109375 34.0064453125 -77.175 32.1
M -77.15 32.1
Q -76.2060546875 2.4712890625 -70.1 -23.1 -63.9939453125 -48.6712890625 -63.05 -73.4 -46.6 -5.15 -14.8 -63.25 -5.355859375 -0.6978515625 23.2 -60.25 48.55 -5 60.45 -78 60.2 -65.5 62.25 -55 64.15 -45.2 69 -32.3 80 -3.3 78.65 32.1"/>
</defs>

<g transform="matrix( 1, 0, 0, 1, 81,105) ">
<g transform="matrix( 1, 0, 0, 1, 0,0) ">
<use xlink:href="#Body_Parts_Characters_Firey_Firey_Flame_9_Layer1_0_FILL"/>

<use xlink:href="#Body_Parts_Characters_Firey_Firey_Flame_9_Layer1_0_1_STROKES"/>
</g>

<g transform="matrix( 1, 0, 0, 1, 0,0) ">
<use xlink:href="#Body_Parts_Characters_Firey_Firey_Flame_9_Layer0_0_FILL"/>
</g>
</g>
</svg>
