
<svg xmlns="http://www.w3.org/2000/svg" version="1.1" xmlns:xlink="http://www.w3.org/1999/xlink" preserveAspectRatio="none" x="0px" y="0px" width="162px" height="210px" viewBox="0 0 162 210">
<defs>
<g id="Body_Parts_Characters_Firey_Firey_Flame_10_Layer1_0_FILL">
<path fill="#FF9900" stroke="none" d="
M -14.75 -63.5
Q -30.45 -34.3 -42.95 -37.5 -55.25 -40.65 -62.7 -74.65 -62.586328125 -56.4 -69.55 -26.9 -76.513671875 2.6 -77.15 32.1
L -77.2 32.1
Q -77.2787109375 34.0064453125 -77.25 35.95 -76.8798828125 61.2640625 -53.25 74.65 -29.563671875 88.0458984375 2.35 87.6 34.2599609375 87.2078125 56.75 70.15 79.1763671875 53.231640625 78.6 32.1
L 78.65 32.1
Q 80.05 -2.7 67.95 -35.85 59.5 -59.15 60.45 -80.6 54.85 -41.5 44.85 -37.2 35.5 -33.15 23.35 -59.8 -4.603515625 -0.6326171875 -14.75 -63.5 Z"/>
</g>

<g id="Body_Parts_Characters_Firey_Firey_Flame_10_Layer0_0_FILL">
<path fill="#FFCC00" stroke="none" d="
M 31.3 -1.1
Q 22.35 -0.85 18.15 -14.6 16.65 -10.05 10.7 -4.3 5.35 0.9 -0.55 0.6 -10.55 0.05 -14.9 -13 -16.2 -9.55 -20.6 -5.9 -25.35 -2 -31.35 -2.15 -36.8 -2.3 -40.75 -7.35 -42.95 -10 -45.4 -15.3 -47.65 -4.75 -48.05 4 -48.9 21.15 -46.6 31.6 -39.4 64.05 -1.2 64.4 39.25 64.75 47.25 35.55 51.05 21.85 49.8 7.4 48.25 -12.3 45.5 -19.3 44.8 -15.3 40.8 -8.5 36.5 -1.2 31.3 -1.1 Z"/>
</g>

<path id="Body_Parts_Characters_Firey_Firey_Flame_10_Layer1_0_1_STROKES" stroke="#C47500" stroke-width="3" stroke-linejoin="miter" stroke-linecap="round" stroke-miterlimit="12" fill="none" d="
M 78.625 32.1
Q 79.1763671875 53.231640625 56.775 70.175 34.2599609375 87.2078125 2.35 87.625 -29.563671875 88.0458984375 -53.225 74.65 -76.8798828125 61.2640625 -77.25 35.95 -77.2787109375 34.0064453125 -77.175 32.1
M -77.15 32.1
Q -76.513671875 2.6 -69.55 -26.9 -62.586328125 -56.4 -62.7 -74.65 -55.25 -40.65 -42.95 -37.5 -30.45 -34.3 -14.75 -63.5 -4.603515625 -0.6326171875 23.35 -59.8 35.5 -33.15 44.85 -37.2 54.85 -41.5 60.45 -80.6 59.5 -59.15 67.95 -35.85 80.05 -2.7 78.65 32.1"/>
</defs>

<g transform="matrix( 1, 0, 0, 1, 81,105) ">
<g transform="matrix( 1, 0, 0, 1, 0,0) ">
<use xlink:href="#Body_Parts_Characters_Firey_Firey_Flame_10_Layer1_0_FILL"/>

<use xlink:href="#Body_Parts_Characters_Firey_Firey_Flame_10_Layer1_0_1_STROKES"/>
</g>

<g transform="matrix( 1, 0, 0, 1, 0,0) ">
<use xlink:href="#Body_Parts_Characters_Firey_Firey_Flame_10_Layer0_0_FILL"/>
</g>
</g>
</svg>
