
<svg xmlns="http://www.w3.org/2000/svg" version="1.1" xmlns:xlink="http://www.w3.org/1999/xlink" preserveAspectRatio="none" x="0px" y="0px" width="162px" height="210px" viewBox="0 0 162 210">
<defs>
<g id="Body_Parts_Characters_Firey_Firey_Flame_6_Layer1_0_FILL">
<path fill="#FF9900" stroke="none" d="
M -15.6 -62.7
Q -33.55 -32.3 -45.2 -34.7 -56.85 -37.05 -62.9 -72.45 -62.0779296875 -47.8244140625 -69.7 -24.45 -77.3158203125 -1.076953125 -77.15 32.1
L -77.2 32.1
Q -77.2787109375 34.0064453125 -77.25 35.95 -76.8798828125 61.2640625 -53.25 74.65 -29.563671875 88.0458984375 2.35 87.6 34.2599609375 87.2078125 56.75 70.15 79.1763671875 53.231640625 78.6 32.1
L 78.65 32.1
Q 79.05 4.3 68.9 -27.4 64.25 -41.9 62.7 -52.6 61.05 -63.65 61.95 -75.9 48.1 -3.8 20.75 -64.1 12.8 -32.15 3.4 -32.1 -5.8 -32.1 -15.6 -62.7 Z"/>
</g>

<g id="Body_Parts_Characters_Firey_Firey_Flame_6_Layer0_0_FILL">
<path fill="#FFCC00" stroke="none" d="
M 20.1 -6.55
Q 16 -11.65 14.7 -16.2 12.35 -9.05 7.85 -4.3 2.95 0.7 -1.95 0.85 -5.95 0.95 -10.9 -4.25 -14.5 -8 -16 -12.45 -17.1 -9.45 -21.8 -5.8 -27.3 -1.55 -32.75 -1.8 -41.45 -2.05 -47.8 -13.6 -51.9 11.75 -47.55 31.5 -40.4 64.05 -1.2 64.4 40.45 64.8 48.45 35.55 51.75 23.6 50.55 7.2 49.45 -8.2 46 -16.9 45.35 -13 41.45 -7.15 36.3 0.55 31.35 0.85 26.2 1.15 20.1 -6.55 Z"/>
</g>

<path id="Body_Parts_Characters_Firey_Firey_Flame_6_Layer1_0_1_STROKES" stroke="#C47500" stroke-width="3" stroke-linejoin="miter" stroke-linecap="round" stroke-miterlimit="12" fill="none" d="
M 78.625 32.1
Q 79.1763671875 53.231640625 56.775 70.175 34.2599609375 87.2078125 2.35 87.625 -29.563671875 88.0458984375 -53.225 74.65 -76.8798828125 61.2640625 -77.25 35.95 -77.2787109375 34.0064453125 -77.175 32.1
M -77.15 32.1
Q -77.3158203125 -1.076953125 -69.7 -24.45 -62.0779296875 -47.8244140625 -62.9 -72.45 -56.85 -37.05 -45.2 -34.7 -33.55 -32.3 -15.6 -62.7 -5.8 -32.1 3.4 -32.1 12.8 -32.15 20.75 -64.1 48.1 -3.8 61.95 -75.9 61.05 -63.65 62.7 -52.6 64.25 -41.9 68.9 -27.4 79.05 4.3 78.65 32.1"/>
</defs>

<g transform="matrix( 1, 0, 0, 1, 81,105) ">
<g transform="matrix( 1, 0, 0, 1, 0,0) ">
<use xlink:href="#Body_Parts_Characters_Firey_Firey_Flame_6_Layer1_0_FILL"/>

<use xlink:href="#Body_Parts_Characters_Firey_Firey_Flame_6_Layer1_0_1_STROKES"/>
</g>

<g transform="matrix( 1, 0, 0, 1, 0,0) ">
<use xlink:href="#Body_Parts_Characters_Firey_Firey_Flame_6_Layer0_0_FILL"/>
</g>
</g>
</svg>
