
<svg xmlns="http://www.w3.org/2000/svg" version="1.1" xmlns:xlink="http://www.w3.org/1999/xlink" preserveAspectRatio="none" x="0px" y="0px" width="162px" height="210px" viewBox="0 0 162 210">
<defs>
<g id="Body_Parts_Characters_Firey_Firey_Flame_1_Layer1_0_FILL">
<path fill="#FF9900" stroke="none" d="
M -63.15 -79.9
Q -63.75 -63.6 -64.3 -55.15 -65.25 -40.5 -67.65 -28.95 -71.95 -10.65 -73.9 -0.7 -77.25 16.8 -77.15 32.1
L -77.2 32.1
Q -77.2787109375 34.0064453125 -77.25 35.95 -76.8798828125 61.2640625 -53.25 74.65 -29.563671875 88.0458984375 2.35 87.6 34.2599609375 87.2078125 56.75 70.15 79.1763671875 53.231640625 78.6 32.1
L 78.65 32.1
Q 78.7 19.95 75.45 4.5 73.15 -6.3 67.7 -25.05 63.4 -39.75 62.15 -53.55 61 -65.85 62 -82.25 55.5 -48.6 44.7 -41.8 33.4 -34.7 23.8 -61.85 18.8 -49.75 12.7 -42.9 6.7 -36.2 1 -36.05 -4.9 -35.85 -9.05 -42.8 -13.5 -50.25 -15.15 -64.75 -22.05 -52.2 -29.35 -46.2 -36.6 -40.15 -43.1 -41.6 -57.45 -44.75 -63.15 -79.9 Z"/>
</g>

<g id="Body_Parts_Characters_Firey_Firey_Flame_1_Layer0_0_FILL">
<path fill="#FFCC00" stroke="none" d="
M 39.6 -8.35
Q 35.7 -2.9 31.1 -2.35 25.3 -1.7 20.6 -7.3 17.1 -11.45 15.5 -16.95 9.85 -0.15 -3.55 -1.2 -12.05 -1.85 -18.55 -14.1 -20.45 -9 -24.25 -6.3 -27.8 -3.75 -31.6 -4.1 -38.45 -4.75 -45.3 -16.3 -52.1 7.85 -46.8 31.75 -39.65 64.05 -1.2 64.4 38.8 64.8 47.95 35.9 51.7 24.1 50 9.3 48.6 -3.2 43.35 -16.5 42.75 -12.75 39.6 -8.35 Z"/>
</g>

<path id="Body_Parts_Characters_Firey_Firey_Flame_1_Layer1_0_1_STROKES" stroke="#C47500" stroke-width="3" stroke-linejoin="miter" stroke-linecap="round" stroke-miterlimit="12" fill="none" d="
M 78.625 32.1
Q 79.1763671875 53.231640625 56.775 70.175 34.2599609375 87.2078125 2.35 87.625 -29.563671875 88.0458984375 -53.225 74.65 -76.8798828125 61.2640625 -77.25 35.95 -77.2787109375 34.0064453125 -77.175 32.1
M -77.15 32.1
Q -77.25 16.8 -73.9 -0.7 -71.95 -10.65 -67.65 -28.95 -65.25 -40.5 -64.3 -55.15 -63.75 -63.6 -63.15 -79.9 -57.45 -44.75 -43.1 -41.6 -36.6 -40.15 -29.35 -46.2 -22.05 -52.2 -15.15 -64.75 -13.5 -50.25 -9.05 -42.8 -4.9 -35.85 1 -36.05 6.7 -36.2 12.7 -42.9 18.8 -49.75 23.8 -61.85 33.4 -34.7 44.7 -41.8 55.5 -48.6 62 -82.25 61 -65.85 62.15 -53.55 63.4 -39.75 67.7 -25.05 73.15 -6.3 75.45 4.5 78.7 19.95 78.65 32.1"/>
</defs>

<g transform="matrix( 1, 0, 0, 1, 81,105) ">
<g transform="matrix( 1, 0, 0, 1, 0,0) ">
<use xlink:href="#Body_Parts_Characters_Firey_Firey_Flame_1_Layer1_0_FILL"/>

<use xlink:href="#Body_Parts_Characters_Firey_Firey_Flame_1_Layer1_0_1_STROKES"/>
</g>

<g transform="matrix( 1, 0, 0, 1, 0,0) ">
<use xlink:href="#Body_Parts_Characters_Firey_Firey_Flame_1_Layer0_0_FILL"/>
</g>
</g>
</svg>
