
<svg xmlns="http://www.w3.org/2000/svg" version="1.1" xmlns:xlink="http://www.w3.org/1999/xlink" preserveAspectRatio="none" x="0px" y="0px" width="162px" height="210px" viewBox="0 0 162 210">
<defs>
<g id="Body_Parts_Characters_Firey_Firey_Flame_14_Layer1_0_FILL">
<path fill="#FF9900" stroke="none" d="
M -14.9 -65.7
Q -48.1869140625 -7.6751953125 -59.95 -76 -59.7935546875 -55.2501953125 -67.65 -28.35 -75.4568359375 -1.45078125 -77.15 32.1
L -77.2 32.1
Q -77.2787109375 34.0064453125 -77.25 35.95 -76.8798828125 61.2640625 -53.25 74.65 -29.563671875 88.0458984375 2.35 87.6 34.2599609375 87.2078125 56.75 70.15 79.1763671875 53.231640625 78.6 32.1
L 78.65 32.1
Q 77.9 4.05 68.7 -30.65 63.9 -48.75 62.45 -57.9 60.5 -70.15 60.45 -86.95 54.4 -47 44.55 -41.05 35.35 -35.5 23.8 -60 -1.8767578125 -4.716015625 -14.9 -65.7 Z"/>
</g>

<g id="Body_Parts_Characters_Firey_Firey_Flame_14_Layer0_0_FILL">
<path fill="#FFCC00" stroke="none" d="
M 32.45 -3.05
Q 21.8 -2.8 17.9 -15.45 16.55 -11.35 12.15 -6.5 6.55 -0.35 0.2 -0.6 -11.15 -1.15 -15.7 -14.8 -20.45 -3.15 -31.4 -3.8 -35.35 -4.05 -39.65 -8.5 -43.05 -12.05 -44.3 -15.85 -45.35 -12.1 -46.45 -6.05 -47.8 1.55 -47.95 4.45 -48.85 21.8 -46.65 31.6 -39.45 64.05 -1.2 64.4 39.3 64.8 47.35 35.6 51.6 20.4 50.55 7.85 49.15 -10.1 45.35 -19.5 44.7 -15.6 42.35 -11.55 37.4 -3.2 32.45 -3.05 Z"/>
</g>

<path id="Body_Parts_Characters_Firey_Firey_Flame_14_Layer1_0_1_STROKES" stroke="#C47500" stroke-width="3" stroke-linejoin="miter" stroke-linecap="round" stroke-miterlimit="12" fill="none" d="
M 78.625 32.1
Q 79.1763671875 53.231640625 56.775 70.175 34.2599609375 87.2078125 2.35 87.625 -29.563671875 88.0458984375 -53.225 74.65 -76.8798828125 61.2640625 -77.25 35.95 -77.2787109375 34.0064453125 -77.175 32.1
M -77.15 32.1
Q -75.4568359375 -1.45078125 -67.625 -28.35 -59.7935546875 -55.2501953125 -59.95 -76 -48.1869140625 -7.6751953125 -14.9 -65.7 -1.8767578125 -4.716015625 23.8 -60 35.35 -35.5 44.55 -41.05 54.4 -47 60.45 -86.95 60.5 -70.15 62.45 -57.9 63.9 -48.75 68.7 -30.65 77.9 4.05 78.65 32.1"/>
</defs>

<g transform="matrix( 1, 0, 0, 1, 81,105) ">
<g transform="matrix( 1, 0, 0, 1, 0,0) ">
<use xlink:href="#Body_Parts_Characters_Firey_Firey_Flame_14_Layer1_0_FILL"/>

<use xlink:href="#Body_Parts_Characters_Firey_Firey_Flame_14_Layer1_0_1_STROKES"/>
</g>

<g transform="matrix( 1, 0, 0, 1, 0,0) ">
<use xlink:href="#Body_Parts_Characters_Firey_Firey_Flame_14_Layer0_0_FILL"/>
</g>
</g>
</svg>
