
<svg xmlns="http://www.w3.org/2000/svg" version="1.1" xmlns:xlink="http://www.w3.org/1999/xlink" preserveAspectRatio="none" x="0px" y="0px" width="162px" height="210px" viewBox="0 0 162 210">
<defs>
<g id="Body_Parts_Characters_Firey_Firey_Flame_7_Layer1_0_FILL">
<path fill="#FF9900" stroke="none" d="
M -15.45 -63.15
Q -47.7310546875 -2.5015625 -63.3 -71.55 -62.6220703125 -50.502734375 -69.55 -24.75 -76.4779296875 1.002734375 -77.15 32.1
L -77.2 32.1
Q -77.2787109375 34.0064453125 -77.25 35.95 -76.8798828125 61.2640625 -53.25 74.65 -29.563671875 88.0458984375 2.35 87.6 34.2599609375 87.2078125 56.75 70.15 79.1763671875 53.231640625 78.6 32.1
L 78.65 32.1
Q 78.85 15.6 76 -1.45 73.55 -16.1 69.65 -26.9 64.4 -41.35 62.6 -50.8 60.3 -62.95 61.5 -76.35 54.95 -39.15 45.15 -36.5 35.4 -33.85 20.25 -64.45 4.601171875 0.6685546875 -15.45 -63.15 Z"/>
</g>

<g id="Body_Parts_Characters_Firey_Firey_Flame_7_Layer0_0_FILL">
<path fill="#FFCC00" stroke="none" d="
M 15 -15.6
Q 13.25 -10.25 9.15 -5.15 3.9 1.4 -1.4 1.4 -6.55 1.4 -11.3 -4.45 -14.55 -8.5 -15.8 -12.2 -16.75 -9.65 -20.7 -6.35 -25.8 -2 -31.5 -1.45 -37.45 -0.85 -41.4 -4.15 -44.15 -6.45 -48.2 -13.2 -49.25 -8.3 -49.35 -1.75 -49.45 1.9 -49.4 8.2 -49.65 20.5 -47.2 31.6 -40.05 64.05 -1.2 64.4 40.45 64.8 48.45 35.55 52.25 21.85 51 7.4 49.7 -8.2 46.2 -17.2 45.65 -13.9 41.85 -7.65 36.85 0.7 31.6 1.2 26.2 1.75 20.75 -5.1 16.6 -10.35 15 -15.6 Z"/>
</g>

<path id="Body_Parts_Characters_Firey_Firey_Flame_7_Layer1_0_1_STROKES" stroke="#C47500" stroke-width="3" stroke-linejoin="miter" stroke-linecap="round" stroke-miterlimit="12" fill="none" d="
M 78.625 32.1
Q 79.1763671875 53.231640625 56.775 70.175 34.2599609375 87.2078125 2.35 87.625 -29.563671875 88.0458984375 -53.225 74.65 -76.8798828125 61.2640625 -77.25 35.95 -77.2787109375 34.0064453125 -77.175 32.1
M -77.15 32.1
Q -76.4779296875 1.002734375 -69.55 -24.75 -62.6220703125 -50.502734375 -63.3 -71.55 -47.7310546875 -2.5015625 -15.45 -63.15 4.601171875 0.6685546875 20.25 -64.45 35.4 -33.85 45.15 -36.5 54.95 -39.15 61.5 -76.35 60.3 -62.95 62.6 -50.8 64.4 -41.35 69.65 -26.9 73.55 -16.1 76 -1.45 78.85 15.6 78.65 32.1"/>
</defs>

<g transform="matrix( 1, 0, 0, 1, 81,105) ">
<g transform="matrix( 1, 0, 0, 1, 0,0) ">
<use xlink:href="#Body_Parts_Characters_Firey_Firey_Flame_7_Layer1_0_FILL"/>

<use xlink:href="#Body_Parts_Characters_Firey_Firey_Flame_7_Layer1_0_1_STROKES"/>
</g>

<g transform="matrix( 1, 0, 0, 1, 0,0) ">
<use xlink:href="#Body_Parts_Characters_Firey_Firey_Flame_7_Layer0_0_FILL"/>
</g>
</g>
</svg>
