
<svg xmlns="http://www.w3.org/2000/svg" version="1.1" xmlns:xlink="http://www.w3.org/1999/xlink" preserveAspectRatio="none" x="0px" y="0px" width="162px" height="210px" viewBox="0 0 162 210">
<defs>
<g id="Body_Parts_Characters_Firey_Firey_Flame_17_Layer1_0_FILL">
<path fill="#FF9900" stroke="none" d="
M -63.1 -48.65
Q -64.3912109375 -36.544921875 -66.3 -30.6 -68.2087890625 -24.6052734375 -70.2 -17.25 -72.20078125 -9.85390625 -74.35 1.25 -76.4962890625 12.3560546875 -77.15 32.1
L -77.2 32.1
Q -77.2787109375 34.0064453125 -77.25 35.95 -76.8798828125 61.2640625 -53.25 74.65 -29.563671875 88.0458984375 2.35 87.6 34.2599609375 87.2078125 56.75 70.15 79.1763671875 53.231640625 78.6 32.1
L 78.65 32.1
Q 78.276953125 14.6166015625 75.55 2.1 73.4087890625 -5.35 70.55 -15.65 67.7408203125 -25.907421875 66 -32.8 64.306640625 -39.6359375 63.15 -52.15 61.8 -67.05 61.4 -83 54.8 -45.45 43.6 -41.25 33.45 -37.45 23.9 -61.25 9.8 -33.2 0.2 -35.9 -8.5 -38.35 -15.1 -67 -30.15 -38.7 -41.55 -41.45 -52.45 -44.05 -61.9 -75.6 -61.753125 -60.7482421875 -63.1 -48.65 Z"/>
</g>

<g id="Body_Parts_Characters_Firey_Firey_Flame_17_Layer0_0_FILL">
<path fill="#FFCC00" stroke="none" d="
M 11.75 -7
Q 7.15 -1.4 1.6 -0.85 -4.75 -0.2 -9.75 -4.25 -16.05 -9.45 -17.65 -14.5 -20.25 -8.2 -22.25 -6.55 -26.2 -3.4 -31.15 -4.3 -34.75 -5 -39.15 -9.8 -42.95 -14.1 -43.65 -16.25 -45.3 -10.35 -46.15 -5.8 -47.65 2.55 -47.8 4.35 -49 20.25 -46.7 31.75 -43.45 47.8 -31.55 56.15 -20.15 64.2 -1.2 64.4 18.9 64.65 30.9 57.4 43.8 49.6 47.8 35 51 23.7 49.65 7.75 48.8 -3.6 43.6 -16.6 42.95 -12.5 40.95 -9.45 37.05 -3.25 31.95 -2.65 26.7 -2 22.7 -5.55 18.75 -9.1 16.45 -16.6 14.3 -10.1 11.75 -7 Z"/>
</g>

<path id="Body_Parts_Characters_Firey_Firey_Flame_17_Layer1_0_1_STROKES" stroke="#C47500" stroke-width="3" stroke-linejoin="miter" stroke-linecap="round" stroke-miterlimit="12" fill="none" d="
M 78.625 32.1
Q 79.1763671875 53.231640625 56.775 70.175 34.2599609375 87.2078125 2.35 87.625 -29.563671875 88.0458984375 -53.225 74.65 -76.8798828125 61.2640625 -77.25 35.95 -77.2787109375 34.0064453125 -77.175 32.1
M -77.15 32.1
Q -76.4962890625 12.3560546875 -74.35 1.25 -72.20078125 -9.85390625 -70.2 -17.225 -68.2087890625 -24.6052734375 -66.3 -30.575 -64.3912109375 -36.544921875 -63.075 -48.65 -61.753125 -60.7482421875 -61.9 -75.6 -52.45 -44.05 -41.55 -41.45 -30.15 -38.7 -15.1 -67 -8.5 -38.35 0.2 -35.9 9.8 -33.2 23.9 -61.25 33.45 -37.45 43.6 -41.25 54.8 -45.45 61.4 -83 61.8 -67.05 63.15 -52.15 64.306640625 -39.6359375 66.025 -32.775 67.7408203125 -25.907421875 70.575 -15.625 73.4087890625 -5.35 75.55 2.1 78.276953125 14.6166015625 78.65 32.1"/>
</defs>

<g transform="matrix( 1, 0, 0, 1, 81,105) ">
<g transform="matrix( 1, 0, 0, 1, 0,0) ">
<use xlink:href="#Body_Parts_Characters_Firey_Firey_Flame_17_Layer1_0_FILL"/>

<use xlink:href="#Body_Parts_Characters_Firey_Firey_Flame_17_Layer1_0_1_STROKES"/>
</g>

<g transform="matrix( 1, 0, 0, 1, 0,0) ">
<use xlink:href="#Body_Parts_Characters_Firey_Firey_Flame_17_Layer0_0_FILL"/>
</g>
</g>
</svg>
