
<svg xmlns="http://www.w3.org/2000/svg" version="1.1" xmlns:xlink="http://www.w3.org/1999/xlink" preserveAspectRatio="none" x="0px" y="0px" width="92px" height="91px" viewBox="0 0 92 91">
<defs>
<g id="Symbol_352_1_Layer1_0_FILL">
<path fill="#4A4EB5" stroke="none" d="
M 9.45 45.05
Q 10.1 45.05 10.1 44.15 10.35 43.2 9.45 43.2 8.7 43.2 8.7 44.15
L 8.7 44.6
Q 8.85 45.05 9.45 45.05
M 9.75 35.4
Q 9.15 35.4 9 36.4
L 9 38.55
Q 9.15 39.6 9.75 39.6 10.65 39.6 10.4 37.5 10.65 35.4 9.75 35.4
M 29.25 15.55
Q 29.5 13.35 28.5 13.35 27.75 13.35 27.75 15.55
L 27.75 16.7
Q 27.9 17.85 28.6 17.85 29.25 17.85 29.25 15.55
M 17.2 -7.1
L 10.15 -8.25
Q 5.95 -8.6 1.05 -10.8
L -6.65 -9.3 -21.15 -8
Q -22.2 -7.8 -22.3 -7.5
L -22.25 -6.8
Q -22.25 -5.2 -19.7 -4.25 -20.6 -3.75 -20.5 -2.6 -28 -1.35 -38.9 -0.9 -45.95 -0.6 -45.95 0.4
L -45.95 0.8 -45.9 0.85 -45.65 1.3 -45 1.45
Q -43.55 2.7 -43.55 4.8 -44.2 8.85 -42.5 8.85 -41.6 8.85 -41.65 7.25
L -41.85 5.25
Q -41.9 3.6 -41.3 2.7
L -40.7 1.7 -33.65 1.95
Q -32.1 3.35 -32.1 4.85
L -32.55 10.1
Q -33.15 13.8 -30.9 13.8 -29.1 13.8 -29.1 11.55 -29.85 10 -29.85 7.4 -29.85 4.65 -28.3 2.15
L -11.05 3.05 -10.4 4.05 -10.4 5.05
Q -10.3 5.7 -9.4 5.7 -8.55 5.7 -8.25 4.85
L -8.05 3.2 4.25 3.65 5.3 4.35
Q 6.9 5.85 6.9 8.4
L 5.45 16.45
Q 5.45 18.4 6 19.75 6.75 21.6 7.1 24 7.3 25.2 6.95 28.7 6.95 31.65 9.15 31.65 11.3 31.65 10.95 24.9 10.95 22.9 10.6 21.75 10.25 20.65 10.25 19.8
L 10.95 14.8 10.65 10.8
Q 11.4 8.05 11.45 6.65
L 12.65 3.15 23.7 2.85 24.45 3.6 25.1 6.2
Q 26.2 11.4 28.2 11.4 28.95 11.4 28.95 10.55 28.35 8.9 28.35 7.95
L 29.55 5.9
Q 30.65 4.15 30.75 2.2 33.55 1.45 32.95 -0.45 36.4 -0.5 36.4 -2.5 36.4 -3.35 35.15 -3.75 33.3 -4.45 32.2 -5.45 30.65 -7 25.05 -7.1 18.95 -6.95 17.2 -7.1 Z"/>
</g>
</defs>

<g id="fire" transform="matrix( 0.9999847412109375, 0, 0, 1, 46,45.5) ">
<g transform="matrix( 1, 0, 0, 1, 0,0) ">
<use xlink:href="#Symbol_352_1_Layer1_0_FILL"/>
</g>
</g>
</svg>
