
<svg xmlns="http://www.w3.org/2000/svg" version="1.1" xmlns:xlink="http://www.w3.org/1999/xlink" preserveAspectRatio="none" x="0px" y="0px" width="40px" height="40px" viewBox="0 0 40 40">
<defs>
<g id="Layer0_0_FILL">
<path fill="#FFFFFF" stroke="none" d="
M 28.9 21.15
L 26.8 21.15 26.8 32 28.8 32 28.8 24.9 33.2 32 35.4 32 35.4 21.15 33.35 21.15 33.35 28.4 28.9 21.15
M 24.65 21.15
L 21.35 21.15 19.4 28.55 17.4 21.15 14.15 21.15 14.15 32 16.15 32 16.15 23.45 18.3 32 20.45 32 22.6 23.45 22.6 32 24.65 32 24.65 21.15
M 5.35 21.15
L 3.15 21.15 3.15 26.95
Q 3.15 28.75 3.35 29.7 3.5 30.3 3.95 30.9 4.45 31.45 5.25 31.85 6.05 32.2 7.6 32.2 8.9 32.2 9.7 31.85 10.5 31.55 11 30.95 11.45 30.4 11.65 29.6 11.8 28.8 11.8 26.85
L 11.8 21.15 9.6 21.15 9.6 27.15
Q 9.6 28.45 9.5 29 9.45 29.55 8.95 29.95 8.5 30.3 7.55 30.3 6.6 30.3 6.1 29.9 5.55 29.5 5.4 28.85 5.35 28.4 5.35 27
L 5.35 21.15
M 29.8 8.2
L 27.6 8.2 27.6 19 35.25 19 35.25 17.15 29.8 17.15 29.8 8.2
M 24.4 9.45
Q 23 7.95 20.55 7.95 19.25 7.95 18.25 8.35 17.45 8.7 16.8 9.35 16.2 10 15.8 10.85 15.3 11.95 15.3 13.65 15.3 16.25 16.75 17.7 18.15 19.2 20.6 19.2 23 19.2 24.45 17.7 25.85 16.2 25.85 13.6 25.85 10.9 24.4 9.45
M 20.6 9.8
Q 21.95 9.8 22.8 10.75 23.6 11.65 23.6 13.55 23.6 15.4 22.75 16.35 21.9 17.3 20.6 17.3 19.3 17.3 18.45 16.35 17.55 15.4 17.55 13.55 17.55 11.7 18.4 10.75 19.25 9.8 20.6 9.8
M 13.8 11.1
Q 13.45 9.8 12.7 9.1 11.45 7.95 9.45 7.95 7.15 7.95 5.75 9.45 4.35 10.95 4.35 13.65 4.35 16.25 5.75 17.7 7.15 19.2 9.35 19.2 11.1 19.2 12.2 18.35 13.35 17.45 13.85 15.7
L 11.7 15
Q 11.45 16.2 10.8 16.75 10.2 17.3 9.3 17.3 8.1 17.3 7.4 16.45 6.65 15.55 6.65 13.5 6.65 11.55 7.4 10.7 8.15 9.8 9.35 9.8 10.2 9.8 10.85 10.3 11.45 10.8 11.65 11.65
L 13.8 11.1 Z"/>
</g>
</defs>

<g transform="matrix( 1, 0, 0, 1, 0,0) ">
<use xlink:href="#Layer0_0_FILL"/>
</g>
</svg>
