
<svg xmlns="http://www.w3.org/2000/svg" version="1.1" xmlns:xlink="http://www.w3.org/1999/xlink" preserveAspectRatio="none" x="0px" y="0px" width="40px" height="40px" viewBox="0 0 40 40">
<defs>
<g id="Layer0_0_FILL">
<path fill="#FFFFFF" stroke="none" d="
M 15.05 7.05
L 14.95 7.15 14.8 7
Q 12.7 4.9 10.35 4.25 8.05 3.55 6.85 4.75
L 5.9 5.7
Q 4.7 6.9 5.35 9.25 6.05 11.55 8.15 13.65
L 8.3 13.8 8.2 13.9
Q 7.6 14.5 7.55 15.35 7.6 16.2 8.2 16.8
L 8.25 16.85
Q 8.85 17.45 9.65 17.45 10.55 17.45 11.15 16.85
L 12.8 15.2 28.15 30.6
Q 30.75 33.15 32.75 34.05 34.7 34.9 35.5 34.1
L 35.55 34.05
Q 36.3 33.3 35.25 31.15 34.25 29 31.95 26.75
L 16.6 11.35 18 10
Q 18.55 9.4 18.55 8.55 18.6 7.7 18 7.1
L 17.95 7.05
Q 17.35 6.45 16.45 6.45 15.6 6.45 15.05 7.05 Z"/>
</g>
</defs>

<g transform="matrix( 1, 0, 0, 1, 0,0) ">
<use xlink:href="#Layer0_0_FILL"/>
</g>
</svg>
