
<svg xmlns="http://www.w3.org/2000/svg" version="1.1" xmlns:xlink="http://www.w3.org/1999/xlink" preserveAspectRatio="none" x="0px" y="0px" width="40px" height="40px" viewBox="0 0 40 40">
<defs>
<g id="Layer0_0_FILL">
<path fill="#FFFFFF" stroke="none" d="
M 23.35 21.95
Q 22.4 22.35 21.6 23.15 20.8 24 20.3 25.05 19.7 26.45 19.7 28.55 19.7 31.85 21.5 33.7 23.3 35.6 26.35 35.6 29.4 35.6 31.2 33.7 33 31.85 33 28.5 33 25.15 31.2 23.25 29.35 21.4 26.35 21.4 24.65 21.4 23.35 21.95
M 26.35 33.2
Q 24.7 33.2 23.6 32 22.55 30.8 22.55 28.45 22.55 26.1 23.6 24.95 24.65 23.75 26.35 23.75 28.05 23.75 29.1 24.9 30.15 26.1 30.15 28.45 30.15 30.85 29.1 32 28 33.2 26.35 33.2
M 14.1 21.9
Q 13.2 21.6 11.5 21.6
L 6.45 21.6 6.45 35.35 11.65 35.35
Q 13.2 35.35 14.1 35.05 15.35 34.65 16.05 33.95 17 33.05 17.55 31.55 17.95 30.3 17.95 28.6 17.95 26.7 17.5 25.35 17.05 24.05 16.2 23.15 15.35 22.25 14.1 21.9
M 12.75 24.05
Q 13.5 24.25 14 24.7 14.55 25.2 14.8 26.05 15.1 26.9 15.1 28.5 15.1 30.1 14.8 31 14.55 31.95 14.1 32.35 13.65 32.75 12.95 32.9 12.45 33.05 11.3 33.05
L 9.2 33.05 9.2 23.95 10.45 23.95
Q 12.15 23.95 12.75 24.05
M 23.75 4.15
L 21.05 4.15 21.05 17.9 23.65 17.9 23.65 8.95 29.2 17.9 32 17.9 32 4.15 29.4 4.15 29.4 13.35 23.75 4.15
M 15.4 4.15
L 15.4 11.75
Q 15.4 13.4 15.3 14.1 15.15 14.8 14.55 15.3 13.95 15.75 12.8 15.75 11.6 15.75 10.95 15.25 10.3 14.75 10.1 13.9 10 13.4 10 11.6
L 10 4.15 7.25 4.15 7.25 11.5
Q 7.25 13.8 7.5 15 7.7 15.75 8.3 16.5 8.85 17.25 9.9 17.7 10.9 18.15 12.85 18.15 14.5 18.15 15.5 17.7 16.55 17.3 17.15 16.6 17.75 15.9 17.95 14.85 18.2 13.85 18.2 11.4
L 18.2 4.15 15.4 4.15 Z"/>
</g>
</defs>

<g transform="matrix( 1, 0, 0, 1, 0,0) ">
<use xlink:href="#Layer0_0_FILL"/>
</g>
</svg>
