
<svg xmlns="http://www.w3.org/2000/svg" version="1.1" xmlns:xlink="http://www.w3.org/1999/xlink" preserveAspectRatio="none" x="0px" y="0px" width="40px" height="40px" viewBox="0 0 40 40">
<defs>
<g id="Layer0_0_FILL">
<path fill="#FFFFFF" stroke="none" d="
M 27 24.35
L 29.4 24.35 31.55 16.2 33.7 24.35 36.05 24.35 38.7 13.5 36.45 13.5 34.8 21.05 32.9 13.5 30.3 13.5 28.3 20.95 26.65 13.5 24.4 13.5 27 24.35
M 23.75 18.95
Q 23.75 16.25 22.3 14.8 20.9 13.3 18.45 13.3 17.15 13.3 16.15 13.7 15.35 14.05 14.7 14.7 14.1 15.35 13.7 16.2 13.2 17.3 13.2 19 13.2 21.6 14.65 23.05 16.05 24.55 18.5 24.55 20.9 24.55 22.35 23.05 23.75 21.55 23.75 18.95
M 20.7 16.1
Q 21.5 17 21.5 18.9 21.5 20.75 20.65 21.7 19.8 22.65 18.5 22.65 17.2 22.65 16.35 21.7 15.45 20.75 15.45 18.9 15.45 17.05 16.3 16.1 17.15 15.15 18.5 15.15 19.85 15.15 20.7 16.1
M 9.85 13.75
Q 9.1 13.5 7.35 13.5
L 2.7 13.5 2.7 24.35 4.9 24.35 4.9 19.8 5.35 19.8
Q 6.1 19.8 6.45 19.95 6.8 20.05 7.1 20.4 7.45 20.7 8.3 22
L 9.85 24.35 12.5 24.35 11.15 22.25
Q 10.4 20.95 9.9 20.45 9.45 19.95 8.75 19.55 10.15 19.35 10.9 18.55 11.6 17.75 11.6 16.55 11.6 15.55 11.15 14.8 10.65 14.05 9.85 13.75
M 8.5 17.95
Q 8.1 18.1 6.55 18.1
L 4.9 18.1 4.9 15.3 8.25 15.35
Q 8.75 15.45 9.05 15.8 9.35 16.1 9.35 16.65 9.35 17.15 9.1 17.5 8.9 17.8 8.5 17.95 Z"/>
</g>
</defs>

<g transform="matrix( 1, 0, 0, 1, 0,0) ">
<use xlink:href="#Layer0_0_FILL"/>
</g>
</svg>
