
<svg xmlns="http://www.w3.org/2000/svg" version="1.1" xmlns:xlink="http://www.w3.org/1999/xlink" preserveAspectRatio="none" x="0px" y="0px" width="40px" height="40px" viewBox="0 0 40 40">
<defs>
<g id="Layer0_0_FILL">
<path fill="#FFFFFF" stroke="none" d="
M 38.1 16.15
Q 37.75 15.6 37.15 15.4 36.55 15.2 35.3 15.2
L 31.85 15.2 31.85 23.2 33.5 23.2 33.5 19.85 33.8 19.85
Q 34.35 19.85 34.65 19.95 34.9 20.05 35.1 20.3 35.35 20.5 35.95 21.45
L 37.15 23.2 39.1 23.2 38.1 21.65
Q 37.5 20.7 37.2 20.35 36.85 19.95 36.3 19.65 37.35 19.5 37.9 18.95 38.45 18.35 38.45 17.45 38.45 16.7 38.1 16.15
M 36.6 18.15
Q 36.45 18.4 36.15 18.5 35.85 18.6 34.7 18.6
L 33.5 18.6 33.5 16.55 35.95 16.55
Q 36.35 16.65 36.55 16.9 36.75 17.15 36.75 17.55 36.75 17.9 36.6 18.15
M 27.85 15.2
L 26.1 15.2 23 23.2 24.7 23.2 25.4 21.4 28.6 21.4 29.3 23.2 31.05 23.2 27.85 15.2
M 28.05 20.05
L 25.9 20.05 26.95 17.05 28.05 20.05
M 22.3 16.55
L 22.3 15.2 16.35 15.2 16.35 23.2 22.45 23.2 22.45 21.85 18 21.85 18 19.65 22 19.65 22 18.3 18 18.3 18 16.55 22.3 16.55
M 9.55 15.25
L 9.55 23.2 15.2 23.2 15.2 21.85 11.2 21.85 11.2 15.25 9.55 15.25
M 5.9 16.8
Q 6.35 17.15 6.5 17.8
L 8.1 17.4
Q 7.8 16.45 7.25 15.9 6.35 15.05 4.9 15.05 3.2 15.05 2.15 16.15 1.15 17.25 1.15 19.25 1.15 21.15 2.15 22.25 3.2 23.35 4.8 23.35 6.05 23.35 6.9 22.7 7.75 22.05 8.1 20.75
L 6.55 20.25
Q 6.35 21.15 5.9 21.55 5.4 21.95 4.75 21.95 3.9 21.95 3.35 21.3 2.8 20.65 2.8 19.15 2.8 17.7 3.35 17.05 3.9 16.45 4.8 16.45 5.45 16.45 5.9 16.8 Z"/>
</g>
</defs>

<g transform="matrix( 1, 0, 0, 1, 0,0) ">
<use xlink:href="#Layer0_0_FILL"/>
</g>
</svg>
