
<svg xmlns="http://www.w3.org/2000/svg" version="1.1" xmlns:xlink="http://www.w3.org/1999/xlink" preserveAspectRatio="none" x="0px" y="0px" width="40px" height="40px" viewBox="0 0 40 40">
<defs>
<g id="Layer0_0_FILL">
<path fill="#FFFFFF" stroke="none" d="
M 23.4 22
Q 22.45 22.4 21.65 23.2 20.85 24.05 20.35 25.1 19.75 26.5 19.75 28.6 19.75 31.9 21.55 33.75 23.35 35.65 26.4 35.65 29.45 35.65 31.25 33.75 33.05 31.9 33.05 28.55 33.05 25.2 31.25 23.3 29.4 21.45 26.4 21.45 24.7 21.45 23.4 22
M 26.4 33.25
Q 24.75 33.25 23.65 32.05 22.6 30.85 22.6 28.55 22.6 26.15 23.65 25 24.7 23.8 26.4 23.8 28.1 23.8 29.15 24.95 30.2 26.15 30.2 28.5 30.2 30.9 29.15 32.1 28.05 33.25 26.4 33.25
M 14.15 21.95
Q 13.25 21.65 11.55 21.65
L 6.5 21.65 6.5 35.4 11.7 35.4
Q 13.25 35.4 14.15 35.1 15.4 34.7 16.1 34 17.05 33.1 17.6 31.6 18 30.35 18 28.65 18 26.75 17.55 25.45 17.1 24.1 16.25 23.2 15.4 22.3 14.15 21.95
M 10.5 24
Q 12.2 24 12.8 24.15 13.55 24.3 14.05 24.75 14.6 25.25 14.85 26.1 15.15 26.95 15.15 28.55 15.15 30.15 14.85 31.05 14.6 32 14.15 32.4 13.7 32.8 13 32.95 12.5 33.1 11.35 33.1
L 9.25 33.1 9.25 24 10.5 24
M 30.75 11.9
L 30.75 9.6 23.85 9.6 23.85 6.55 31.3 6.55 31.3 4.2 21.1 4.2 21.1 17.95 31.55 17.95 31.55 15.65 23.85 15.65 23.85 11.9 30.75 11.9
M 17.95 5.9
Q 17.35 4.95 16.35 4.6 15.35 4.2 13.15 4.2
L 7.3 4.2 7.3 17.95 10.1 17.95 10.1 12.2 10.65 12.2
Q 11.6 12.2 12.05 12.4 12.5 12.55 12.85 12.95 13.25 13.35 14.35 14.95
L 16.35 17.95 19.65 17.95 18 15.25
Q 17 13.65 16.4 13.05 15.8 12.4 14.9 11.9 16.75 11.65 17.65 10.65 18.55 9.6 18.55 8.05 18.55 6.85 17.95 5.9
M 14.65 9.85
Q 14.15 10.05 12.15 10.05
L 10.1 10.05 10.1 6.55 14.25 6.6
Q 14.95 6.7 15.3 7.15 15.7 7.55 15.7 8.25 15.7 8.85 15.4 9.3 15.1 9.7 14.65 9.85 Z"/>
</g>
</defs>

<g transform="matrix( 1, 0, 0, 1, 0,0) ">
<use xlink:href="#Layer0_0_FILL"/>
</g>
</svg>
