
<svg xmlns="http://www.w3.org/2000/svg" version="1.1" xmlns:xlink="http://www.w3.org/1999/xlink" preserveAspectRatio="none" x="0px" y="0px" width="40px" height="40px" viewBox="0 0 40 40">
<defs>
<g id="Layer0_0_FILL">
<path fill="#FFFFFF" stroke="none" d="
M 32.2 21.95
L 29.05 21.95 25.85 27.4 22.6 21.95 19.35 21.95 24.4 29.9 24.4 35.7 27.15 35.7 27.15 29.95 32.2 21.95
M 17.8 23.5
Q 17 22.5 15.8 22.15 15.05 21.95 12.5 21.95
L 8.05 21.95 8.05 35.7 10.8 35.7 10.8 30.5 12.65 30.5
Q 14.5 30.5 15.5 30.3 16.25 30.15 16.95 29.7 17.65 29.2 18.1 28.3 18.55 27.45 18.55 26.2 18.55 24.55 17.8 23.5
M 10.8 24.3
L 12.15 24.3
Q 13.65 24.3 14.15 24.4 14.85 24.5 15.25 25 15.7 25.5 15.7 26.25 15.7 26.85 15.4 27.3 15.1 27.75 14.55 27.95 14 28.2 12.35 28.2
L 10.8 28.2 10.8 24.3
M 33 11.4
Q 33 8.05 31.2 6.15 29.35 4.3 26.35 4.3 24.65 4.3 23.35 4.85 22.4 5.25 21.6 6.05 20.8 6.9 20.3 7.95 19.7 9.35 19.7 11.45 19.7 14.75 21.5 16.6 23.3 18.5 26.35 18.5 29.4 18.5 31.2 16.6 33 14.75 33 11.4
M 23.6 7.85
Q 24.65 6.65 26.35 6.65 28.05 6.65 29.1 7.8 30.15 9 30.15 11.35 30.15 13.75 29.1 14.9 28 16.1 26.35 16.1 24.7 16.1 23.6 14.9 22.55 13.7 22.55 11.35 22.55 9 23.6 7.85
M 16.5 5.75
Q 14.9 4.3 12.4 4.3 9.5 4.3 7.75 6.2 5.95 8.1 5.95 11.5 5.95 14.75 7.7 16.6 9.5 18.5 12.2 18.5 14.45 18.5 15.9 17.4 17.3 16.3 17.95 14.05
L 15.25 13.2
Q 14.9 14.7 14.1 15.4 13.3 16.1 12.2 16.1 10.7 16.1 9.75 15 8.8 13.9 8.8 11.3 8.8 8.85 9.75 7.75 10.7 6.65 12.25 6.65 13.35 6.65 14.15 7.25 14.9 7.9 15.15 8.95
L 17.9 8.3
Q 17.4 6.65 16.5 5.75 Z"/>
</g>
</defs>

<g transform="matrix( 1, 0, 0, 1, 0,0) ">
<use xlink:href="#Layer0_0_FILL"/>
</g>
</svg>
